<?xml version="1.0" encoding="UTF-8"?>
<svg id="Calque_2" data-name="Calque 2" xmlns="http://www.w3.org/2000/svg" width="206.49" height="189.79" viewBox="0 0 206.49 189.79">
  <defs>
    <style>
      .cls-1, .cls-2 {
        fill: none;
        stroke: #1d1d1b;
        stroke-linejoin: round;
        stroke-width: 4px;
      }

      .cls-2 {
        stroke-linecap: round;
      }

      .cls-3 {
        fill: #1d1d1b;
      }
    </style>
  </defs>
  <path class="cls-3" d="m45.92,4v28.96h-13.3V4h13.3m0-4h-13.3c-2.21,0-4,1.79-4,4v28.96c0,2.21,1.79,4,4,4h13.3c2.21,0,4-1.79,4-4V4c0-2.21-1.79-4-4-4h0Z"/>
  <path class="cls-3" d="m127.32,4.2v28.96h-13.3V4.2h13.3m0-4h-13.3c-2.21,0-4,1.79-4,4v28.96c0,2.21,1.79,4,4,4h13.3c2.21,0,4-1.79,4-4V4.2c0-2.21-1.79-4-4-4h0Z"/>
  <rect class="cls-2" x="55.32" y="65.04" width="11.35" height="11.35"/>
  <rect class="cls-1" x="93.57" y="65.66" width="11.54" height="11.35"/>
  <rect class="cls-2" x="131.72" y="65.36" width="11.35" height="11.35"/>
  <rect class="cls-2" x="17.65" y="98.23" width="11.35" height="11.35"/>
  <rect class="cls-2" x="55.61" y="98.23" width="11.35" height="11.35"/>
  <rect class="cls-2" x="93.37" y="98.43" width="11.35" height="11.35"/>
  <rect class="cls-2" x="55.41" y="131.1" width="11.35" height="11.35"/>
  <rect class="cls-2" x="17.85" y="131.1" width="11.35" height="11.35"/>
  <line class="cls-2" x1="2" y1="50.98" x2="155.98" y2="50.98"/>
  <path class="cls-3" d="m128.68,110.74c8,0,18.19,4.38,28.76,14.96,10.57-10.57,20.76-14.96,28.76-14.96,17.74,0,24.73,21.56,1.28,45.01l-30.05,30.05-30.05-30.05c-23.44-23.44-16.46-45.01,1.28-45.01m0-4c-8.63,0-15.59,4.37-18.62,11.69-4.7,11.35.72,26.36,14.5,40.14l30.05,30.05c.75.75,1.77,1.17,2.83,1.17s2.08-.42,2.83-1.17l30.05-30.05c13.79-13.79,19.21-28.79,14.51-40.14-3.03-7.32-9.99-11.69-18.62-11.69-9.07,0-19.18,4.74-28.76,13.43-9.58-8.69-19.69-13.43-28.76-13.43h0Z"/>
  <path class="cls-3" d="m153.92,22v74.02c-4.94-2.05-10.36-3.19-16.04-3.19-23.12,0-41.87,18.75-41.87,41.87,0,7.71,2.09,14.93,5.73,21.13H5.23V22h148.7m0-5H5.23c-2.76,0-5,2.24-5,5v133.83c0,2.76,2.24,5,5,5h96.51c1.79,0,3.45-.96,4.34-2.51.89-1.55.88-3.47-.02-5.01-3.3-5.63-5.04-12.06-5.04-18.6,0-20.33,16.54-36.87,36.87-36.87,4.89,0,9.64.94,14.13,2.81.62.26,1.27.38,1.92.38.97,0,1.94-.28,2.78-.84,1.39-.93,2.22-2.49,2.22-4.16V22c0-2.76-2.24-5-5-5h0Z"/>
</svg>