<?xml version="1.0" encoding="UTF-8"?>
<svg id="Calque_1" data-name="Calque 1" xmlns="http://www.w3.org/2000/svg" width="147.91" height="130.86" viewBox="0 0 147.91 130.86">
  <defs>
    <style>
      .cls-1 {
        fill: #fff;
      }

      .cls-1, .cls-2, .cls-3, .cls-4, .cls-5, .cls-6 {
        stroke: #1d1d1b;
        stroke-linejoin: round;
      }

      .cls-1, .cls-2, .cls-4, .cls-5, .cls-6 {
        stroke-width: 3px;
      }

      .cls-2 {
        fill: #9d9d9c;
      }

      .cls-3 {
        stroke-linecap: round;
        stroke-width: 4px;
      }

      .cls-3, .cls-4 {
        fill: none;
      }

      .cls-5 {
        fill: #575756;
      }

      .cls-6 {
        fill: #878787;
      }
    </style>
  </defs>
  <g>
    <rect class="cls-2" x="1.5" y="20.58" width="56.35" height="108.78"/>
    <path class="cls-1" d="m41.41,118.79h-23.48c-2.16,0-3.91-1.75-3.91-3.91v-1.96c0-2.16,1.75-3.91,3.91-3.91h23.48c2.16,0,3.91,1.75,3.91,3.91h0v1.96h0c0,2.16-1.75,3.91-3.91,3.91Z"/>
    <g>
      <line class="cls-4" x1="11.28" y1="71.18" x2="48.07" y2="71.18"/>
      <line class="cls-4" x1="11.28" y1="80.77" x2="48.07" y2="80.77"/>
      <line class="cls-4" x1="11.28" y1="90.36" x2="48.07" y2="90.36"/>
    </g>
    <g>
      <path class="cls-3" d="m29.67,44.58c-3.06,0-5.54-2.48-5.54-5.54s2.48-5.54,5.54-5.54,5.54,2.48,5.54,5.54"/>
      <line class="cls-3" x1="29.67" y1="29.58" x2="29.67" y2="33.03"/>
      <path class="cls-3" d="m29.67,44.58c3.06,0,5.54,2.48,5.54,5.54,0,3.06-2.48,5.54-5.54,5.54s-5.54-2.48-5.54-5.54"/>
      <line class="cls-3" x1="29.67" y1="59.58" x2="29.67" y2="56.12"/>
    </g>
  </g>
  <g>
    <rect class="cls-6" x="90.07" y="20.45" width="56.35" height="108.78"/>
    <path class="cls-1" d="m129.98,118.66h-23.48c-2.16,0-3.91-1.75-3.91-3.91v-1.96c0-2.16,1.75-3.91,3.91-3.91h23.48c2.16,0,3.91,1.75,3.91,3.91h0v1.96h0c0,2.16-1.75,3.91-3.91,3.91Z"/>
    <g>
      <line class="cls-4" x1="99.85" y1="71.05" x2="136.63" y2="71.05"/>
      <line class="cls-4" x1="99.85" y1="80.64" x2="136.63" y2="80.64"/>
      <line class="cls-4" x1="99.85" y1="90.23" x2="136.63" y2="90.23"/>
    </g>
    <g>
      <path class="cls-3" d="m118.24,44.45c-3.06,0-5.54-2.48-5.54-5.54s2.48-5.54,5.54-5.54,5.54,2.48,5.54,5.54"/>
      <line class="cls-3" x1="118.24" y1="29.45" x2="118.24" y2="32.9"/>
      <path class="cls-3" d="m118.24,44.45c3.06,0,5.54,2.48,5.54,5.54,0,3.06-2.48,5.54-5.54,5.54s-5.54-2.48-5.54-5.54"/>
      <line class="cls-3" x1="118.24" y1="59.45" x2="118.24" y2="55.99"/>
    </g>
  </g>
  <g>
    <rect class="cls-5" x="45.82" y="1.5" width="56.35" height="108.78"/>
    <path class="cls-1" d="m85.74,99.72h-23.48c-2.16,0-3.91-1.75-3.91-3.91v-1.96c0-2.16,1.75-3.91,3.91-3.91h23.48c2.16,0,3.91,1.75,3.91,3.91h0v1.96h0c0,2.16-1.75,3.91-3.91,3.91Z"/>
    <g>
      <line class="cls-4" x1="55.61" y1="52.11" x2="92.39" y2="52.11"/>
      <line class="cls-4" x1="55.61" y1="61.7" x2="92.39" y2="61.7"/>
      <line class="cls-4" x1="55.61" y1="71.28" x2="92.39" y2="71.28"/>
    </g>
    <g>
      <path class="cls-3" d="m74,25.5c-3.06,0-5.54-2.48-5.54-5.54s2.48-5.54,5.54-5.54,5.54,2.48,5.54,5.54"/>
      <line class="cls-3" x1="74" y1="10.5" x2="74" y2="13.96"/>
      <path class="cls-3" d="m74,25.5c3.06,0,5.54,2.48,5.54,5.54,0,3.06-2.48,5.54-5.54,5.54s-5.54-2.48-5.54-5.54"/>
      <line class="cls-3" x1="74" y1="40.5" x2="74" y2="37.04"/>
    </g>
  </g>
</svg>