<?xml version="1.0" encoding="UTF-8"?>
<svg id="Calque_1" data-name="Calque 1" xmlns="http://www.w3.org/2000/svg" width="108.96" height="96" viewBox="0 0 108.96 96">
  <defs>
    <style>
      .cls-1 {
        stroke-width: 4px;
      }

      .cls-1, .cls-2 {
        fill: none;
        stroke: #1d1d1b;
        stroke-miterlimit: 10;
      }

      .cls-2 {
        stroke-width: 3px;
      }
    </style>
  </defs>
  <path class="cls-1" d="m54.57,94.59L14.55,54.57C-18.81,21.21,21.21-18.81,54.57,14.55c33.05-33.05,73.07,6.97,40.02,40.02-26.99-26.99-67,13.03-40.02,40.02Z"/>
  <g>
    <path class="cls-2" d="m91.96,75.24v-5.04l-4.86-.63c-.34-1.46-.92-2.84-1.69-4.08l2.99-3.89-3.56-3.56-3.89,2.99c-1.24-.77-2.62-1.35-4.08-1.69l-.63-4.86h-5.04l-.63,4.86c-1.46.34-2.84.92-4.08,1.69l-3.89-2.99-3.56,3.56,2.99,3.89c-.77,1.24-1.35,2.62-1.69,4.08l-4.86.63v5.04l4.86.63c.34,1.46.92,2.84,1.69,4.08l-2.99,3.89,3.56,3.56,3.89-2.99c1.24.77,2.62,1.35,4.08,1.69l.63,4.86h5.04l.63-4.86c1.46-.34,2.84-.92,4.08-1.69l3.89,2.99,3.56-3.56-2.99-3.89c.77-1.24,1.35-2.62,1.69-4.08l4.86-.63Z"/>
    <circle class="cls-2" cx="73.71" cy="72.72" r="9.05"/>
  </g>
</svg>