<?xml version="1.0" encoding="UTF-8"?>
<svg id="Layer_2" data-name="Layer 2" xmlns="http://www.w3.org/2000/svg" viewBox="0 0 502.83 304.92">
  <defs>
    <style>
      .cls-1 {
        fill: #d9d9d9;
        opacity: .17;
      }

      .cls-2 {
        font-family: BellMTBold, 'Bell MT';
        font-size: 66px;
      }

      .cls-2, .cls-3 {
        fill: #1d1d1b;
      }

      .cls-4 {
        letter-spacing: -.06em;
      }

      .cls-5 {
        letter-spacing: -.01em;
      }

      .cls-3 {
        font-family: MADETommySoft-Thin, 'MADE Tommy Soft';
        font-size: 53.69px;
        font-weight: 200;
      }

      .cls-6 {
        fill: #9cbf9d;
      }

      .cls-7 {
        fill: #0c5b2a;
      }
    </style>
  </defs>
  <g id="Calque_1" data-name="Calque 1">
    <g>
      <path class="cls-1" d="m120.39,245.36c-39.74,12.21-79.48,24.42-119.22,36.62C.78,200.68.39,119.38,0,38.08,40,26.14,80,14.19,120,2.24c.13,81.04.26,162.08.39,243.12Z"/>
      <path class="cls-1" d="m372.11,245.36c-39.74,12.21-79.48,24.42-119.22,36.62-.39-81.3-.78-162.6-1.17-243.9,40-11.95,80-23.9,120-35.84.13,81.04.26,162.08.39,243.12Z"/>
      <path class="cls-1" d="m243.52,280.82c-38.31-11.56-76.62-23.12-114.93-34.68-.39-81.3-.78-162.6-1.17-243.9,39.09,11.82,78.18,23.64,117.27,35.46-.39,81.04-.78,162.08-1.17,243.12Z"/>
      <path class="cls-1" d="m502.44,283.06c-40.71-13.05-81.42-26.1-122.14-39.16-.39-81.3-.78-162.6-1.17-243.9,41.23,13.05,82.46,26.1,123.7,39.16-.13,81.3-.26,162.6-.39,243.9Z"/>
    </g>
    <text class="cls-3" transform="translate(74.12 123.66)"><tspan x="0" y="0">Agr</tspan></text>
    <text class="cls-3" transform="translate(197.61 123.23)"><tspan class="cls-4" x="0" y="0">T</tspan><tspan x="25.72" y="0">ourisme</tspan></text>
    <text class="cls-2" transform="translate(74.12 187.59)"><tspan x="0" y="0">Lau</tspan><tspan class="cls-5" x="108.6" y="0">r</tspan><tspan x="134.55" y="0">entides</tspan></text>
    <g>
      <path class="cls-7" d="m187.42,96.91l-2.16,6.55.08.02c5.61,1.82,8.67,7.84,6.85,13.45s-7.84,8.67-13.45,6.85l-.16-.05-8.36,25.38c1.04.34,24.27-14.62,29.38-29.83,3.06-9.12-3.04-19.41-12.19-22.38Z"/>
      <path class="cls-6" d="m164.63,107.65c-5.04,15.24,4.59,41.13,5.62,41.49l8.53-25.32-.15-.05c-5.58-1.9-8.56-7.97-6.65-13.55,1.9-5.58,7.97-8.56,13.55-6.65l.08.03,2.2-6.54c-9.1-3.1-20.15,1.47-23.17,10.6Z"/>
    </g>
  </g>
</svg>