<?xml version="1.0" encoding="UTF-8"?>
<svg id="Layer_2" data-name="Layer 2" xmlns="http://www.w3.org/2000/svg" viewBox="0 0 78.89 74.39">
  <defs>
    <style>
      .cls-1 {
        fill: none;
        stroke: #000;
        stroke-miterlimit: 10;
        stroke-width: 2px;
      }
    </style>
  </defs>
  <g id="Layer_1-2" data-name="Layer 1">
    <polygon class="cls-1" points="54.82 10.03 61.04 1.44 77.33 14.47 64 26.33 72.59 34.03 72 36.99 63.41 37.58 62.52 40.55 72 45.58 66.37 48.25 61.93 44.99 61.04 48.55 56 49.14 54.22 56.55 49.78 55.07 37.04 64.25 39.41 68.99 36.74 71.66 34.08 67.51 29.33 73.14 24 70.47 27.85 65.73 14.52 56.25 9.19 61.58 7.41 60.99 9.48 48.84 1.19 47.36 3.26 37.29 7.11 36.99 3.56 27.21 11.26 26.03 12.15 31.07 17.48 26.03 33.48 21.88 34.96 17.73 40.89 13.58 37.93 9.14 41.19 7.36 42.67 9.73 54.82 10.03"/>
  </g>
</svg>