<?xml version="1.0" encoding="UTF-8"?>
<svg id="Layer_2" data-name="Layer 2" xmlns="http://www.w3.org/2000/svg" viewBox="0 0 392.17 217.24">
  <defs>
    <style>
      .cls-1 {
        fill: none;
        stroke: #000;
        stroke-miterlimit: 10;
      }
    </style>
  </defs>
  <g id="Layer_1-2" data-name="Layer 1">
    <polygon class="cls-1" points="4.55 95.81 27.22 98.92 67.22 62.48 108.55 94.92 131.66 116.26 88.55 156.26 .55 126.03 4.55 95.81"/>
    <polygon class="cls-1" points="168.55 104.26 163.22 111.37 180.1 126.48 174.77 129.59 160.99 115.37 132.55 137.15 123.36 124.07 88.55 156.26 121.44 190.03 163.22 216.7 199.66 208.26 255.66 174.48 208.1 127.81 202.33 129.15 168.55 104.26"/>
    <path class="cls-1" d="m391.22,52.7l-49.78,37.33-31.56-11.11-1.78,19.56s-38.67,8.89-40,8.89l-4.33,6.78-40.33-41.06,3.78-14.61,6.22,3.11,4.89-6.67,18.22,6.22,5.78-31.56,24.44-10.22.89-15.56,6.67-3.11.89,3.11,8.44.44,5.78,12.89,16-5.33,8,4.44.44-9.33,19.56,22.67s20.44,12.89,21.33,14.22,16.44,8.89,16.44,8.89Z"/>
    <path class="cls-1" d="m347.22,106.03s-21.33,11.56-23.56,11.11-15.56-18.67-15.56-18.67l1.78-19.56,31.56,11.11,5.78,16Z"/>
    <polygon class="cls-1" points="286.33 136.7 263.77 114.15 268.1 107.37 308.1 98.48 323.66 117.15 286.33 136.7"/>
    <polygon class="cls-1" points="223.3 73.03 207.3 78.81 168.55 104.26 202.33 129.15 208.1 127.81 246.85 165.37 281.08 131.7 223.3 73.03"/>
    <polygon class="cls-1" points="286.33 136.7 279.66 162.48 255.66 174.48 246.77 165.59 281.08 131.7 286.33 136.7"/>
  </g>
</svg>