<?xml version="1.0" encoding="UTF-8"?>
<svg id="Layer_2" data-name="Layer 2" xmlns="http://www.w3.org/2000/svg" viewBox="0 0 484.59 562.01">
  <defs>
    <style>
      .cls-1 {
        fill: none;
        stroke: #000;
        stroke-miterlimit: 10;
      }
    </style>
  </defs>
  <g id="Layer_1-2" data-name="Layer 1">
    <polygon class="cls-1" points="36.81 347.74 205.7 402.85 165.41 427.15 186.15 449.07 144.67 478.11 115.63 511.3 94.89 508.93 .67 561.07 36.81 347.74"/>
    <polygon class="cls-1" points="360.37 395.15 214 256.48 371.37 194.04 483.63 302.7 401.85 327 419.63 335.89 360.37 395.15"/>
    <polygon class="cls-1" points="167.04 184.93 193.26 156.48 207.04 170.26 199.48 176.93 226.59 205.37 212.37 216.48 204.81 232.93 196.37 230.7 182.15 205.81 162.59 228.48 154.59 232.48 149.26 204.48 158.15 201.81 150.15 189.37 153.7 187.15 159.04 192.48 167.04 184.93"/>
    <path class="cls-1" d="m257.7,414.7l-27.11-83.56-57.19-76.74-26.96,3.85-4.74,31.11-40,.89-14.22,13.78,26.67,17.78,16.89,43.11-21.78,6.67,96.44,31.26-10.67,6.96s21.78,26.22,24,25.78,38.67-20.89,38.67-20.89Z"/>
    <polygon class="cls-1" points="204.81 232.93 214 256.48 173.41 254.41 154.59 232.48 162.59 228.48 182.15 205.81 196.37 230.7 204.81 232.93"/>
    <polygon class="cls-1" points="146.44 258.26 129.93 257.15 121.48 240.04 126.59 197.81 149.26 204.48 154.59 232.48 173.41 254.41 146.44 258.26"/>
    <path class="cls-1" d="m257.7,414.7s18.67,18.67,19.78,17.56,15.56-24,15.56-24l-10-10.22,34.44-43.11-103.48-98.44-40.59-2.07,57.19,76.74,27.11,83.56Z"/>
    <path class="cls-1" d="m167.56,184.26l-14.74-14.22,10.44-10.22-20.22-20.22s15.56-14.22,16-15.56-18-18-18-18L250.37.7l31.11,31.56-2.67,3.78,37.33,33.11-7.33,5.56,20.44,16.22-15.78,19.56,78.67,75.33-178.15,70.67-9.19-23.56,7.56-16.44,14.22-11.11-27.11-28.44,7.56-6.67-13.78-13.78-25.7,27.78Z"/>
  </g>
</svg>