<?xml version="1.0" encoding="UTF-8"?>
<svg id="Layer_2" data-name="Layer 2" xmlns="http://www.w3.org/2000/svg" viewBox="0 0 181.41 136.54">
  <defs>
    <style>
      .cls-1, .cls-2 {
        fill: none;
        stroke: #000;
        stroke-miterlimit: 10;
      }

      .cls-2 {
        stroke-width: .5px;
      }
    </style>
  </defs>
  <g id="Layer_2-2" data-name="Layer 2">
    <polygon class="cls-1" points="77.89 26.63 85.45 35.37 10.48 35.22 10.93 58.48 3.52 58.48 .56 85.89 25.74 85.59 26.04 95.82 39.82 96.26 39.52 107.22 42.93 107.52 43.08 118.48 47.97 118.33 47.97 125.44 55.52 125.44 55.67 119.07 66.48 119.22 64.26 129 99.97 135.22 99.97 134.04 103.52 134.78 104.56 130.33 108.26 131.07 107.82 135.52 110.34 135.96 115.82 107.96 141.15 113.44 139.52 121.3 143.52 125.59 153.89 116.11 156.71 117.59 165.45 107.22 157.89 99.82 180.71 77.15 155.37 51.67 141.74 64.85 116.56 39.82 130.04 26.48 105 .7 77.89 26.63"/>
    <polygon class="cls-2" points="85.45 35.37 100.26 50.33 96.41 80.11 103.52 81.89 104.85 78.93 121.3 81.59 123.67 74.19 108.41 58.63 111.08 55.52 105.59 50.63 116.56 39.82 130.04 26.48 105 .7 77.89 26.63 85.45 35.37"/>
    <polygon class="cls-2" points="116.56 39.82 105.59 50.63 111.08 55.52 108.41 58.63 128.41 78.93 138.34 68.85 135.82 66.19 137.45 64.41 137.89 65.15 139.97 63.07 116.56 39.82"/>
    <path class="cls-2" d="m137.15,69.74l2.22,2.52-4.89,5.33s7.26,7.56,6.67,7.56,5.78-6.52,5.78-6.52l2.59,2.76,2.59-2.46-2.52-2.67.59-.59,1.48-1.33-2.22-2.96,1.48-1.63-2.22-1.78-1.78.89-1.48-2.22,3.41-3.41-1.48-3.11-5.63,4.74-1.78-1.78-2.07,2.07-.44-.74-1.63,1.78,2.52,2.67-1.19.89Z"/>
    <polygon class="cls-2" points="141.09 84.82 149.85 94.22 152.19 91.67 159.19 98.44 180.63 76.89 155.3 51.67 147.37 60.11 148.85 63.22 145.45 66.63 146.93 68.85 148.71 67.96 150.93 69.74 149.45 71.37 151.67 74.33 149.59 76.26 152.11 78.93 149.52 81.39 146.93 78.63 141.09 84.82"/>
    <polygon class="cls-2" points="149.85 94.22 151.97 96.22 148.74 100.11 147.52 99.33 143.52 103.11 146.08 105.89 142.08 109.44 140.41 117.67 141.63 119 160.19 102.67 157.52 99.89 159.19 98.44 152.19 91.67 149.85 94.22"/>
    <polygon class="cls-2" points="160.19 102.67 164.85 107.22 156.85 117.11 153.85 116.11 143.74 125.56 139.3 121.44 140.41 117.67 142.08 118.78 160.19 102.67"/>
    <path class="cls-2" d="m123.56,74.19c-1.69,4.11-2.75,7.99-3.04,11.59l9.89,3-3.22,14.33-5-1.44-.44,1.78-4.33-.94-.78,5.83,24.44,4.78.89-3.67,4-3.56-2.56-2.78,4-3.78,1.22.78,3.22-3.89-20-21.44-3.56,4.15-4.74-4.74Z"/>
    <polygon class="cls-2" points="120.63 85.78 118.85 96.22 115.74 95.78 115.19 99.33 117.85 99.67 117.44 102.58 121.85 103.44 122.3 101.67 127.3 103.11 130.52 88.78 120.63 85.78"/>
    <polygon class="cls-2" points="116.74 108.33 91.3 103.22 96.41 80.11 103.52 81.89 104.85 78.93 121.3 81.59 118.85 96.22 115.74 95.78 115.19 99.33 117.85 99.67 116.74 108.33"/>
    <path class="cls-2" d="m85.45,35.37l-5.59,23.19-5.78-.44-2.78,11.44,1,.11-.44,2.56,4.78.33-3.89,15.44,3.22.33-.56,3.44,4.56.44-.44,3.56-1.22.22-1.07,3.07,14.07,4.15c4.36-17.77,7.37-35.41,8.96-52.89l-14.81-14.96Z"/>
    <polygon class="cls-2" points="65.56 88.26 58.74 88 58.52 81 54.97 80.56 54.85 78.67 45.19 78.89 45.19 58.78 74.08 58.11 71.3 69.56 72.3 69.67 71.85 72.22 76.63 72.56 73.97 83.11 65.41 83 65.56 88.26"/>
    <path class="cls-2" d="m82.19,48.67c-.44,0-3.33.22-3.33.22l.11-3.89-3.44-.22.11-2.89h-4.22l.02,16.37,8.43.3,2.33-9.89Z"/>
    <polygon class="cls-2" points="45.19 78.89 34.19 79.22 34.41 58.44 41.85 58.89 41.97 49.67 45.19 50 45.74 41.78 38.74 41.89 38.85 34.67 85.45 35.37 82.19 48.67 78.85 48.89 78.97 45 75.52 44.78 75.63 41.89 71.41 41.89 71.43 58.26 45.19 58.78 45.19 78.89"/>
    <polygon class="cls-2" points="34.3 65.33 34.41 58.44 41.85 58.89 41.97 49.67 45.19 50 45.74 41.78 38.74 41.89 38.69 34.72 10.3 35.11 10.97 58.56 3.85 58.44 .3 86 28.41 85.89 28.41 82.67 34.3 82.56 34.3 65.33"/>
    <polygon class="cls-2" points="25.85 85.89 26.19 95.89 39.63 95.89 39.41 107 42.97 107.78 43.08 118.56 47.97 118.67 47.85 125.78 55.63 125.44 55.63 119 66.52 119.33 70.08 100.78 64.52 99.67 64.85 88.11 58.74 88 58.52 81 54.97 80.56 54.85 78.67 34.19 79.22 34.3 82.56 28.41 82.67 28.41 85.89 25.85 85.89"/>
    <polygon class="cls-2" points="70.08 100.78 64.52 99.67 64.85 88.11 65.52 87.78 65.41 83 73.97 83.11 72.74 88 75.97 88.33 75.41 91.78 79.97 92.22 79.52 95.78 78.3 96 77.45 99.15 70.74 97.44 70.08 100.78"/>
    <polygon class="cls-2" points="71.22 129.44 71.08 125.59 73.15 125.3 74.56 122.11 76.11 121.3 76.56 119.82 77.74 119.67 77.97 118.11 79.97 118.48 77.08 112.11 79.22 108.41 78.56 105.07 80.71 104.78 81.3 102.48 79.52 101.96 81 99.96 70.74 97.44 64.19 128.78 71.22 129.44"/>
    <polygon class="cls-2" points="85 132.33 88.56 116.78 85.89 116.11 86.78 109.07 88.85 109.59 89.08 107.89 90.56 108.04 91.3 103.22 81 99.96 79.52 101.96 81.3 102.48 80.71 104.78 78.56 105.07 79.22 108.41 77.08 112.11 79.97 118.48 77.97 118.11 77.74 119.67 76.56 119.82 76.11 121.3 74.56 122.11 73.15 125.3 71.08 125.59 71.22 129.44 85 132.33"/>
    <path class="cls-2" d="m88.56,116.78l.44-1.48,2.15.22-.15,1.63.89-.07-.15,2,4.67,1.11.07-1.78s1.33.37,1.48.15.22-1.63.22-1.63l1.19.22.81-3.19,1.56.07.15-3.56-3.63-.59-.22,1.78-5.78-1.33.22-1.78-3.41-.67-.22,1.7-2.07-.52-.89,7.04,2.67.67Z"/>
    <polygon class="cls-2" points="85 132.33 89 115.3 91.15 115.52 91 117.15 91.89 117.07 91.74 119.07 96.41 120.19 96.48 118.41 97.97 118.56 98.19 116.93 99.37 117.15 100.19 113.96 101.74 114.04 101.89 110.48 98.26 109.89 98.04 111.67 92.26 110.33 92.48 108.56 90.56 108.04 91.3 103.22 115.82 107.96 110.41 135.82 107.82 135.59 108.19 131.3 104.56 130.19 103.37 134.78 99.97 134.26 100.04 135.22 85 132.33"/>
  </g>
</svg>