<?xml version="1.0" encoding="UTF-8"?>
<svg id="Layer_2" data-name="Layer 2" xmlns="http://www.w3.org/2000/svg" viewBox="0 0 438.31 362.27">
  <defs>
    <style>
      .cls-1 {
        fill: none;
        stroke: #000;
        stroke-miterlimit: 10;
      }
    </style>
  </defs>
  <g id="Layer_1-2" data-name="Layer 1">
    <polygon class="cls-1" points="281.58 61.67 346.58 .67 387.58 35.67 405.58 21.67 437.58 51.67 354.58 128.67 311.31 88.96 281.58 61.67"/>
    <polygon class="cls-1" points="292.58 110.67 311.31 88.96 354.58 128.67 402.58 82.67 420.58 100.67 336.58 177.67 311.58 200.67 298.58 190.67 285.58 205.67 271.58 189.67 263.58 204.67 220.58 164.67 266.58 126.67 272.58 131.67 292.58 110.67"/>
    <polygon class="cls-1" points="73.58 206.67 96.58 95.67 205.58 113.67 202.58 155.67 220.58 164.67 198.58 162.67 184.58 224.67 73.58 206.67"/>
    <polygon class="cls-1" points="171.58 277.67 184.58 224.67 73.58 206.67 60.58 203.67 64.58 187.67 45.58 184.67 42.58 201.67 27.58 200.67 .58 345.67 73.58 361.67 91.58 265.67 171.58 277.67"/>
    <polygon class="cls-1" points="169.58 289.67 171.58 277.67 198.58 162.67 220.58 164.67 263.58 204.67 169.58 289.67"/>
    <polygon class="cls-1" points="261.58 280.67 258.45 279.02 209.28 253.86 263.58 204.67 271.58 189.67 285.58 205.67 301.58 244.67 261.58 280.67"/>
    <polygon class="cls-1" points="296.58 293.67 261.58 280.67 301.58 244.67 285.58 205.67 298.58 190.67 311.58 200.67 336.58 177.67 345.58 190.67 331.58 200.67 350.58 224.67 329.58 238.67 323.58 262.67 336.58 269.67 328.58 285.67 305.58 282.67 296.58 293.67"/>
  </g>
</svg>