<?xml version="1.0" encoding="UTF-8"?>
<svg id="Layer_2" data-name="Layer 2" xmlns="http://www.w3.org/2000/svg" viewBox="0 0 708.8 609.37">
  <defs>
    <style>
      .cls-1 {
        fill: none;
        stroke: #000;
        stroke-miterlimit: 10;
        stroke-width: 5px;
      }
    </style>
  </defs>
  <g id="Layer_1-2" data-name="Layer 1">
    <polygon class="cls-1" points="101.83 2.83 301.83 34.83 260.5 245.5 367.16 258.83 388.5 129.5 500.5 149.5 537.83 105.5 687.16 177.5 673.83 181.5 701.83 214.83 620.5 193.5 599.16 348.17 537.83 360.17 560.5 401.5 537.83 402.83 536.5 430.83 577.83 437.5 563.16 540.17 531.16 553.5 524.5 578.83 559.16 581.5 556.5 606.83 472.5 605.5 429.83 522.83 373.83 509.5 335.16 476.17 261.83 478.83 172.5 416.17 3.16 414.83 101.83 2.83"/>
    <polygon class="cls-1" points="57.61 186.39 264.5 225.06 301.83 34.83 101.83 2.83 57.61 186.39"/>
    <polygon class="cls-1" points="293.83 249.5 253.83 472.17 172.5 416.17 3.16 414.83 57.61 186.39 264.5 225.06 260.5 245.5 293.83 249.5"/>
    <polygon class="cls-1" points="367.16 258.83 477.83 280.17 500.5 149.5 388.5 129.5 367.16 258.83"/>
    <polygon class="cls-1" points="619.31 200.61 500.5 149.5 537.83 105.5 687.16 177.5 673.83 181.5 701.83 214.83 620.5 193.5 619.31 200.61"/>
    <polygon class="cls-1" points="599.16 348.17 477.83 280.17 500.5 149.5 619.31 200.61 599.16 348.17"/>
    <polygon class="cls-1" points="572.5 476.17 424.5 433.5 477.83 280.17 599.16 348.17 537.83 360.17 560.5 401.5 537.83 402.83 536.5 430.83 577.83 437.5 572.5 476.17"/>
    <polygon class="cls-1" points="407.16 517.5 424.5 433.5 572.5 476.17 563.16 540.17 531.16 553.5 524.5 578.83 559.16 581.5 556.5 606.83 472.5 605.5 429.83 522.83 412.5 518.83 407.16 517.5"/>
  </g>
</svg>