<?xml version="1.0" encoding="UTF-8"?>
<svg id="Calque_1" data-name="Calque 1" xmlns="http://www.w3.org/2000/svg" width="94.17" height="130.96" viewBox="0 0 94.17 130.96">
  <defs>
    <style>
      .cls-1 {
        fill: #9bbf9d;
      }

      .cls-2 {
        fill: #075a2a;
      }
    </style>
  </defs>
  <path class="cls-2" d="m50.09,0l-.07,16.44c.06,0,.12,0,.19,0,14.05,0,25.43,11.39,25.43,25.43s-11.39,25.43-25.43,25.43c-.13,0-.26,0-.39,0l-.25,63.66c2.61,0,44.61-66.31,44.61-89.22S72.99,0,50.09,0Z"/>
  <path class="cls-1" d="m24.77,41.87c0-13.98,11.29-25.33,25.25-25.43l.07-16.44C27.06,0,4.99,18.83,4.99,41.74s41.95,89.22,44.58,89.22l.25-63.66c-13.87-.21-25.04-11.51-25.04-25.42Z"/>
</svg>