<?xml version="1.0" encoding="UTF-8"?>
<svg id="Calque_1" data-name="Calque 1" xmlns="http://www.w3.org/2000/svg" width="188.6" height="186.3" viewBox="0 0 188.6 186.3">
  <defs>
    <style>
      .cls-1 {
        fill: #1d1d1b;
      }

      .cls-1, .cls-2, .cls-3 {
        stroke: #1d1d1b;
        stroke-width: 3px;
      }

      .cls-1, .cls-3 {
        stroke-linecap: round;
        stroke-linejoin: round;
      }

      .cls-2 {
        stroke-miterlimit: 10;
      }

      .cls-2, .cls-3 {
        fill: none;
      }
    </style>
  </defs>
  <line class="cls-3" x1="94.63" y1="26.54" x2="153.33" y2="26.54"/>
  <line class="cls-3" x1="94.63" y1="44.21" x2="153.33" y2="44.21"/>
  <line class="cls-3" x1="94.63" y1="79.54" x2="153.33" y2="79.54"/>
  <line class="cls-3" x1="94.63" y1="61.87" x2="153.33" y2="61.87"/>
  <line class="cls-3" x1="16.37" y1="97.2" x2="153.33" y2="97.2"/>
  <line class="cls-3" x1="16.37" y1="114.87" x2="142.37" y2="114.87"/>
  <line class="cls-3" x1="16.37" y1="132.53" x2="118.89" y2="132.53"/>
  <line class="cls-3" x1="16.37" y1="150.2" x2="113.41" y2="150.2"/>
  <circle class="cls-1" cx="46.5" cy="35.36" r="16.29"/>
  <g>
    <path class="cls-1" d="m76.43,75.42c0,13.94-58.3,13.94-58.3,0"/>
    <path class="cls-1" d="m59.46,52.49c-2.98,3.77-7.59,6.19-12.77,6.19s-9.49-2.27-12.47-5.82c-9.54,4.15-16.09,12.69-16.09,22.56h58.3c0-10.17-6.96-18.94-16.97-22.93Z"/>
  </g>
  <g>
    <path class="cls-2" d="m187.1,158.76v-8.34l-8.05-1.05c-.57-2.42-1.52-4.7-2.8-6.76l4.95-6.44-5.9-5.9-6.44,4.95c-2.06-1.27-4.33-2.23-6.76-2.8l-1.05-8.05h-8.34l-1.05,8.05c-2.42.57-4.7,1.52-6.76,2.8l-6.44-4.95-5.9,5.9,4.95,6.44c-1.27,2.06-2.23,4.33-2.8,6.76l-8.05,1.05v8.34l8.05,1.05c.57,2.42,1.52,4.7,2.8,6.76l-4.95,6.44,5.9,5.9,6.44-4.95c2.06,1.27,4.33,2.23,6.76,2.8l1.05,8.05h8.34l1.05-8.05c2.42-.57,4.7-1.52,6.76-2.8l6.44,4.95,5.9-5.9-4.95-6.44c1.27-2.06,2.23-4.33,2.8-6.76l8.05-1.05Z"/>
    <circle class="cls-2" cx="156.88" cy="154.58" r="14.99"/>
  </g>
  <path class="cls-3" d="m119.67,152.35c0-19.13,15.5-34.63,34.63-34.63,4.64,0,9.06.92,13.11,2.58V1.5H1.5v165.91h121.62c-2.2-4.56-3.44-9.67-3.44-15.07Z"/>
</svg>