<?xml version="1.0" encoding="UTF-8"?><svg xmlns="http://www.w3.org/2000/svg" width="446.28" height="446.63" viewBox="0 0 446.28 446.63"><defs><style>.d{fill:#fff;}.e{fill:#d84a4a;}</style></defs><g id="a"/><g id="b"><g id="c"><g><path class="d" d="M223.14,0c123.24,0,223.14,99.9,223.14,223.14s-99.9,223.14-223.14,223.14S0,346.38,0,223.14,99.9,0,223.14,0"/><path class="e" d="M365.94,346.29c-13.75,5.89-10.8,29.47-10.8,29.47l8.29,21.55c31.9-25.76,56.55-60.12,70.45-99.57-29.88,22.58-61.14,45.64-67.93,48.55Z"/><path class="e" d="M261.83,391.47c-18.66-6.88-25.54,0-25.54,0l2.76,54.77c39.49-2.76,76.15-15.79,107.32-36.44-27.84-5.16-72.05-13.73-84.54-18.33Z"/><path class="e" d="M303.82,172.07c-2.95,21.36,18.78,15.84,21.36,9.97,2.58-5.87,55.62-66.69,55.62-66.69,0,0,5.16,14,10.68,29.1,5.52,15.1,34.62,9.58,34.62,9.58l8.86-1.59c-17.83-53.12-55.1-97.32-103.35-124.15-4.66,23.02-25.18,124.87-27.79,143.79Z"/><path class="e" d="M192.59,391.22l-93.09,18.16c33.22,22.16,72.72,35.65,115.26,37.24,.82-17.6,1.98-33.01,3.63-40.31,5.18-22.84-25.8-15.1-25.8-15.1Z"/><path class="e" d="M95.35,388.27c13.26-30.57-7.37-38.67-7.37-38.67L10.06,290.07c14.23,45.63,42.71,84.98,80.23,112.83,1.69-4.57,3.67-10.09,5.06-14.63Z"/><path class="e" d="M252.05,2.1c6.24,14.55,12.56,29.01,17.15,38.85,12.31,24.01,48.29-4.2,59.78-14.12-23.44-12.63-49.4-21.19-76.93-24.74"/><path class="e" d="M206.91,.85C116.47,7.39,40.97,67.8,12.32,150.14c4.25,.69,8.82,1.38,13.78,2.04,43.83,9.58,50.83-38.67,50.83-38.67,0,0,34.25,41.99,53.77,64.09,26.52,25.05,18.78-14.36,18.78-14.36L123.34,24.37s16.57,9.21,31.68,20.99c25.78,15.84,41.62-21.36,41.62-21.36L206.91,.85"/><g><path class="e" d="M127.61,227.79h-11.79l-1.7,3.79h-4.24l11.72-25.43h.23l11.72,25.43h-4.24l-1.7-3.79Zm-1.51-3.35l-4.37-9.74-4.39,9.74h8.76Z"/><path class="e" d="M132.8,219.13c0-7.02,5.86-12.91,12.86-12.91,3.23,.05,6.21,1.42,8.66,3.8l-2.27,3.08c-1.75-1.75-4.02-2.91-6.46-2.91-4.51,0-8.83,3.96-8.83,8.95s4.37,8.9,8.84,8.9c2.55,0,4.75-1.27,6.46-2.97l2.26,3.15c-2.15,2.12-4.88,3.74-8.59,3.74-7.06,0-12.92-5.81-12.92-12.84Z"/><path class="e" d="M161.33,210.51v6.38h9.43v3.89h-9.43v6.89h10.93v3.89h-14.84v-24.92h14.84v3.85h-10.93Zm3.63-5.91h-2.83l3.06-5.05h3.45l-3.68,5.05Z"/><path class="e" d="M190.02,231.58l-6.71-9.65h-3.06v9.65h-3.91l-.02-24.92h7.74c4.64,0,8.44,3.57,8.44,8.01,0,3.22-2.07,6.01-4.93,6.94l7.25,9.97h-4.81Zm-5.86-12.89c2.35,.01,4.31-1.89,4.31-4.11s-1.99-4.03-4.31-4.03h-3.93v8.15h3.93Z"/><path class="e" d="M197.45,206.66h3.91v24.92h-3.91v-24.92Z"/><path class="e" d="M204.96,219.13c0-7.02,5.86-12.91,12.86-12.91,3.23,.05,6.21,1.42,8.66,3.8l-2.27,3.08c-1.75-1.75-4.02-2.91-6.46-2.91-4.51,0-8.83,3.96-8.83,8.95s4.37,8.9,8.84,8.9c2.55,0,4.75-1.27,6.46-2.97l2.26,3.15c-2.15,2.12-4.88,3.74-8.59,3.74-7.06,0-12.92-5.81-12.92-12.84Z"/><path class="e" d="M229.35,222.13v-15.47h3.93v15.46c0,3.45,2.43,5.97,5.47,5.97s5.5-2.52,5.5-5.97v-15.46h3.94v15.47c0,5.72-4.13,9.91-9.43,9.91s-9.41-4.19-9.41-9.91Z"/><path class="e" d="M267.76,227.68v3.89h-15.02v-24.92h3.91v21.02h11.11Z"/><path class="e" d="M281.86,210.54h-6.68v21.04h-3.93v-21.04h-6.68v-3.88h17.28v3.88Z"/><path class="e" d="M284.74,222.13v-15.47h3.93v15.46c0,3.45,2.43,5.97,5.47,5.97s5.5-2.52,5.5-5.97v-15.46h3.94v15.47c0,5.72-4.13,9.91-9.43,9.91s-9.41-4.19-9.41-9.91Z"/><path class="e" d="M321.82,231.58l-6.71-9.65h-3.06v9.65h-3.91l-.02-24.92h7.74c4.64,0,8.44,3.57,8.44,8.01,0,3.22-2.07,6.01-4.93,6.94l7.25,9.97h-4.81Zm-5.86-12.89c2.35,.01,4.31-1.89,4.31-4.11s-1.99-4.03-4.31-4.03h-3.93v8.15h3.93Z"/><path class="e" d="M333.16,210.51v6.38h9.43v3.89h-9.43v6.89h10.93v3.89h-14.84v-24.92h14.84v3.85h-10.93Z"/></g><g><path class="e" d="M114.57,289.9v16.45h-42.75v-65.95h17.51v49.5h25.24Z"/><path class="e" d="M164.28,298.66h-24.63l-3.35,7.69h-19.15l30.64-66.76h8.3l30.68,66.76h-19.19l-3.31-7.69Zm-5.56-12.8l-6.75-15.63-6.79,15.63h13.54Z"/><path class="e" d="M240.74,240.4l-30.4,66.64h-7.94l-30.27-66.64h18.94l15.22,35.71,15.26-35.71h19.19Z"/><path class="e" d="M238.34,273.46c0-19.8,15.71-34.81,36.2-34.81s36.2,15.01,36.2,34.81-15.71,34.57-36.25,34.57-36.16-14.93-36.16-34.57Zm54.69-.12c0-10.19-8.02-18.04-18.49-18.04s-18.49,7.85-18.49,18.04,8.02,17.96,18.49,17.96,18.49-7.81,18.49-17.96Z"/><path class="e" d="M319.35,240.4h17.51v65.95h-17.51v-65.95Z"/><path class="e" d="M365.62,256.68v9.2h20.95v14.6h-20.95v9.45h25.45v16.4h-42.75v-65.95h42.75v16.28h-25.45Z"/></g></g></g></g></svg>