<?xml version="1.0" encoding="UTF-8"?><svg xmlns="http://www.w3.org/2000/svg" viewBox="0 0 123.54 153.35"><defs><style>.d{fill:#666;fill-rule:evenodd;}.e{fill:none;stroke:#000;stroke-miterlimit:10;stroke-width:5.37px;}</style></defs><g id="a"/><g id="b"><g id="c"><g><g><path d="M21.86,139.29l3.4-10.25h1.34l3.42,10.25h-1.05l-.94-2.8h-4.26l-.9,2.8h-1.02Zm4.04-9.54c-.07,.21-.19,.58-.35,1.11-.16,.53-.28,.91-.35,1.14l-1.18,3.73h3.78l-1.19-3.73c-.27-.84-.51-1.59-.71-2.25Z"/><path d="M31.07,135.27v-6.23h1.12v6.06c0,.44,.02,.83,.06,1.16,.04,.33,.12,.65,.24,.96,.12,.31,.28,.56,.48,.75,.2,.2,.47,.35,.79,.47,.33,.12,.72,.17,1.17,.17s.83-.06,1.16-.17c.33-.11,.59-.27,.79-.47,.2-.2,.36-.44,.48-.75,.12-.31,.2-.62,.24-.96,.04-.33,.06-.71,.06-1.16v-6.06h1.1v6.19c0,1.46-.32,2.53-.95,3.22-.63,.68-1.61,1.03-2.93,1.03s-2.25-.33-2.88-1c-.63-.67-.95-1.73-.95-3.19Z"/><path d="M39.7,129.82v-.79h7.71v.79h-3.32v9.47h-1.07v-9.47h-3.32Z"/><path d="M55.98,131.76c0,.7-.18,1.27-.54,1.71-.36,.44-.92,.75-1.67,.96l2.38,4.87h-1.09l-2.32-4.71h-3.2v4.71h-1.02v-10.25h3.7c1.33,0,2.29,.22,2.88,.66,.59,.44,.88,1.13,.88,2.06Zm-6.45-1.97v3.99h2.46c.34,0,.63,0,.89-.03,.25-.03,.52-.08,.79-.16,.27-.08,.5-.19,.67-.33,.18-.14,.32-.34,.43-.59,.11-.25,.17-.54,.17-.89s-.05-.66-.16-.91-.24-.44-.4-.58c-.16-.14-.37-.25-.64-.32-.26-.08-.51-.13-.74-.14-.23-.02-.51-.03-.84-.03h-2.63Z"/><path d="M57.34,135.27v-6.23h1.12v6.06c0,.44,.02,.83,.06,1.16,.04,.33,.12,.65,.24,.96,.12,.31,.28,.56,.48,.75,.2,.2,.47,.35,.79,.47,.33,.12,.72,.17,1.17,.17s.84-.06,1.16-.17c.33-.11,.59-.27,.79-.47,.2-.2,.36-.44,.48-.75,.12-.31,.2-.62,.24-.96,.04-.33,.06-.71,.06-1.16v-6.06h1.1v6.19c0,1.46-.32,2.53-.94,3.22-.63,.68-1.61,1.03-2.93,1.03s-2.25-.33-2.88-1c-.63-.67-.95-1.73-.95-3.19Z"/><path d="M71.08,128.85c.93,0,1.72,.23,2.37,.69,.65,.46,1.1,1.14,1.35,2.03l-.94,.22c-.17-.65-.49-1.17-.95-1.55-.47-.38-1.09-.57-1.86-.57-1.16,0-2,.38-2.5,1.13-.5,.76-.76,1.86-.76,3.32,0,.62,.03,1.16,.1,1.63,.06,.46,.17,.88,.33,1.25,.15,.37,.36,.68,.61,.92,.25,.23,.56,.41,.93,.54,.37,.12,.82,.18,1.32,.18,1.45,0,2.42-.66,2.89-1.99l.88,.27c-.28,.85-.75,1.48-1.42,1.91-.67,.43-1.47,.64-2.4,.64-1.45,0-2.53-.42-3.23-1.27-.71-.85-1.06-2.2-1.06-4.07s.38-3.13,1.14-3.99c.76-.86,1.84-1.29,3.23-1.29Z"/><path d="M83.51,133.44v-4.4h1.02v10.25h-1.02v-5.04h-6.09v5.04h-1.02v-10.25h1.02v4.4h6.09Z"/><path d="M93.46,139.29h-6.86v-10.25h6.79v.79h-5.76v3.6h5.01v.81h-5.01v4.27h5.84v.79Z"/><path d="M97.89,128.91c.83,0,1.53,.14,2.1,.41,.57,.27,1.06,.72,1.47,1.34l-.76,.56c-.28-.49-.65-.86-1.12-1.11-.47-.25-.98-.38-1.54-.38-.73,0-1.33,.13-1.79,.4-.46,.27-.69,.69-.69,1.25,0,.22,.05,.42,.15,.6,.1,.18,.21,.33,.35,.45,.14,.12,.32,.23,.55,.34,.23,.11,.44,.2,.62,.26,.18,.06,.41,.14,.69,.22,.28,.09,.49,.16,.64,.22,.31,.12,.57,.22,.77,.3,.2,.08,.42,.19,.67,.31,.24,.12,.44,.24,.59,.34,.15,.11,.3,.23,.46,.38,.15,.15,.27,.3,.35,.47,.08,.16,.15,.35,.2,.56,.05,.21,.08,.44,.08,.69,0,.92-.34,1.64-1.03,2.15-.69,.52-1.61,.77-2.77,.77-.33,0-.66-.03-.99-.08-.32-.05-.65-.15-.99-.29-.33-.14-.63-.31-.9-.51-.27-.21-.5-.47-.7-.8-.21-.33-.34-.7-.42-1.11l.86-.37c.21,.77,.58,1.34,1.1,1.72,.53,.37,1.22,.56,2.09,.56,.27,0,.52-.02,.76-.06,.24-.04,.48-.11,.72-.21,.24-.1,.44-.22,.61-.37,.17-.15,.31-.34,.42-.57,.1-.24,.16-.5,.16-.8,0-.19-.03-.37-.08-.53-.05-.16-.1-.29-.16-.41-.06-.11-.17-.23-.34-.35-.17-.12-.3-.21-.4-.28-.1-.07-.29-.16-.57-.27-.28-.11-.49-.19-.62-.24-.14-.05-.4-.14-.77-.27-.06-.02-.11-.04-.14-.05-.83-.29-1.41-.52-1.74-.71-.75-.41-1.18-.96-1.28-1.64-.01-.11-.02-.23-.02-.35,0-.43,.1-.81,.29-1.14,.19-.34,.45-.61,.77-.81,.32-.2,.69-.35,1.08-.46,.4-.1,.82-.16,1.26-.16Z"/></g><g><path d="M36.98,153.35v-9.13h1.32l2.91,6.6,3-6.6h1.19v9.12h-.84v-7.96l-2.96,6.4h-.84l-2.91-6.44v7.99h-.87Z"/><path d="M48.25,153.35h-.91v-9.14h.91v9.14Z"/><path d="M56.8,146.64c0,.62-.16,1.13-.48,1.52-.32,.39-.82,.67-1.49,.85l2.12,4.34h-.97l-2.07-4.2h-2.85v4.2h-.9v-9.14h3.3c1.19,0,2.04,.2,2.56,.59,.52,.39,.79,1,.79,1.84Zm-5.75-1.75v3.56h2.19c.3,0,.56-.01,.79-.03,.23-.02,.46-.07,.71-.15,.24-.08,.44-.17,.6-.3,.16-.12,.28-.3,.38-.52,.1-.22,.15-.49,.15-.79s-.05-.58-.14-.81c-.1-.22-.22-.4-.36-.52-.14-.12-.33-.22-.57-.29-.24-.07-.46-.11-.66-.13-.2-.02-.45-.03-.75-.03h-2.34Z"/><path d="M57.41,153.35l3.03-9.14h1.2l3.05,9.14h-.94l-.84-2.49h-3.79l-.8,2.49h-.91Zm3.6-8.5c-.06,.19-.17,.52-.31,.99-.14,.47-.25,.81-.32,1.02l-1.05,3.32h3.37l-1.06-3.33c-.24-.75-.45-1.42-.63-2Z"/><path d="M65.77,153.35v-9.12h3.54c.24,0,.49,.02,.75,.06,.26,.04,.49,.1,.68,.17,.2,.07,.39,.17,.57,.28,.18,.12,.33,.26,.45,.41,.12,.16,.21,.35,.28,.58,.07,.23,.11,.48,.11,.76,0,1.08-.56,1.72-1.69,1.91,.65,.13,1.14,.4,1.47,.81,.33,.41,.49,.93,.49,1.54,0,.51-.08,.93-.24,1.27-.16,.33-.41,.6-.77,.79-.35,.19-.78,.33-1.27,.41-.5,.08-1.11,.12-1.86,.12h-2.52Zm.91-8.47v3.23h2.6c.2,0,.36,0,.49-.03,.13-.02,.26-.04,.41-.07,.15-.03,.26-.06,.35-.11,.09-.04,.18-.09,.27-.16,.09-.06,.16-.13,.22-.21,.05-.08,.1-.17,.15-.28,.04-.1,.08-.22,.09-.35,.02-.13,.03-.27,.03-.43,0-.17-.02-.33-.05-.47-.03-.14-.07-.26-.12-.36-.05-.1-.12-.2-.21-.28-.09-.08-.18-.15-.27-.2-.09-.05-.2-.1-.34-.14-.13-.04-.26-.07-.37-.09-.12-.02-.26-.03-.43-.05-.17-.01-.32-.02-.45-.02h-2.36Zm0,3.94v3.85h2.56c.16,0,.35-.01,.57-.04,.22-.03,.4-.07,.55-.12,.15-.05,.3-.13,.46-.22,.16-.09,.29-.21,.38-.34,.1-.13,.17-.3,.24-.51,.06-.2,.09-.43,.09-.69,0-.21-.02-.4-.05-.57-.03-.17-.08-.32-.13-.45-.05-.13-.13-.24-.23-.34s-.2-.18-.29-.25c-.1-.07-.22-.12-.37-.17-.15-.05-.29-.08-.42-.11-.13-.03-.28-.04-.47-.04h-2.87Z"/><path d="M79.97,153.35h-6.12v-9.14h6.05v.7h-5.13v3.21h4.47v.72h-4.47v3.81h5.2v.7Z"/><path d="M86.56,153.35h-5.57v-9.14h.91v8.43h4.66v.7Z"/></g><g><path class="d" d="M78,17.34h.74c1.24,.28,2.51,.53,2.99,1.56,1.01,.09,2.49,.52,2.49,.52,0,0,.89,.44,1.07,.65-1.83,.35-3.86,.5-5.03,1.42-.66,.51-1.37,.86-1.47,1.91-.2,2.59,.93,4.82,1.76,6.72,.65,1.48,1.07,3.04,1.6,4.45,.56,1.42,1.3,2.72,1.78,4.34,.23,.82,.36,1.64,.55,2.49,.2,.86,.21,1.7,.37,2.64,.08,.59,.35,1.19,.46,1.87,.16,.86,.29,1.8,.37,2.78v.57c-.15,2.95-.62,5.59-1.7,7.6-.05,.5-.23,.86-.28,1.35-.31,.16-.59,.34-.87,.52,.01,.18,.09,.29,.09,.47-.38,.92-.06,2.22,0,3.05,.21,1.97-1,3.93-1.29,5.47-.77,.17-1.14,.77-1.7,1.19-.22,.18-.51,.29-.74,.47-.19,.17-.37,.47-.55,.62-.95,.78-3.14,.42-4.03,1.28-.08-.11-.18-.19-.28-.31-.51,.3-1.18,.3-1.79,.54-.3,.1-.59,.31-.83,.35-.99,.12-1.54-.42-2.25-.77-.24-.02-.26,.17-.35,.3-.14-.08,.12-.18,.06-.36-.51-.3-1.06-.02-1.54,0-.24,0-.41-.07-.64-.06-.69,.12-1.19,.71-1.74,1.13-.65,.49-1.47,.83-1.97,1.24-.33,.31-.52,.83-.87,1.01-.52,1.24-.5,2.78-.78,4.18-.04,.14-.16,.26-.16,.41-.02,.21,.06,.44,.06,.67-.03,.2-.18,.39-.23,.61-.08,.71,.08,1.43,.37,2.02,.2,.04,.34,.08,.51,.1,0,.24,.13,.36,.18,.59,.64,.59,1.24,1.23,1.83,1.74,.71,.61,1.54,.99,2.3,1.51,.66,.41,1.29,.83,1.91,1.24,1.65,1.07,3.39,2.08,5.15,2.93,1.71,.83,3.62,1.34,4.45,2.89,.17,.84,.32,1.52,.74,2.02,.56,.7,1.57,1.04,1.8,2.02,1.01,.77,1.87,1.65,3.11,2.17,.39,.43,.71,.95,.69,1.83-.7-.5-1.54-.35-2.43-.41-1.48-.11-2.37-1.05-3.21-1.72-.29,0-.21,.39-.42,.47-1.29,.18-2.24-.41-2.6-1.19-.12-.32-.1-.69-.16-1-.12-.65-.35-1.32-.73-1.8-.24-.33-.54-.43-.83-.68-.19-.18-.36-.42-.55-.6-2.16-1.83-4.91-3.55-7.3-5.03-1.16-.71-2.58-1.54-3.95-2.22-1.18-.62-3.47-.98-4.38-1.81-1.53-1.38-.1-4.11-.12-5.95-.22,.14-.47,.26-.65,.46-.47,.58-.57,1.7-1,2.29-.07,.08-.25,.19-.35,.3-.28,.25-.95,1.23-.95,1.23,0,0-.59,1.86-.77,3.15-.04,.24,.12,.6,.06,.83-.03,.18-.14,.37-.18,.53-.08,.32-.2,.71-.29,1.07-.07,.41-.08,.88-.12,1.18-.01,.25-.07,.48-.08,.75-.04,.74-.34,1.56-.42,2.39-.15,1.43-.31,2.79-.45,4.17-.23,2.11-.44,4.54,.51,6.08,.77,.24,1.03,.65,2.02,.79,.5,.1,1.08,.28,1.49,.28,.21,0,.7,.11,.9,.15,.35,.09,.29,.61,.35,.83-.24,.14-.56,.11-.74,.03-.68,.65-1.9,.06-3.23,.17-.54,.06-1.08,.18-1.5,.12-.66-.12-1.81-.37-1.81-.37l-1.8-1.23s-.78-1.54-.88-2.03c.12-.38,0-.76,.09-1.15,.13-.56,.47-1.09,.57-1.61,.14-.64,.52-1.33,.52-1.33,0,0,.15-2.5,.51-3.49,.12-1.25,.48-2.06,.63-2.96,.16-.81,.19-1.64,.46-2.37,.06-.13,.12-.24,.17-.42,.07-.24,.07-.54,.14-.82,.05-.18,.23-.34,.25-.51,.12-.63,.04-1.44,.16-2.17,.23-1.42,.17-2.43,.16-3.56-.02-1-.14-2.16-.14-2.16,0,0,1.04-1.36,1.75-2.16,.42-.47,.72-.84,1.07-1.26,.33-.4,.72-.96,1.04-1.35,.32-.41,.69-.71,1.05-1.06,.09-.44,.36-.71,.61-1-.19-.65,.58-.83,.69-1.25,.06-.38-.13-1.09-.33-1.36-.21-.29-.68-.35-.83-.6-.62,.25-1.07-.14-1.65-.23-.48-.06-1.05,.12-1.24-.3-.95-.24-2.13-.19-2.76-.72-.58,.2-.96,.13-1.6,.13-1.15,0-2.34,.23-3.31,.23-1.33-.06-2.1-.69-2.89-1.19-.46-.3-.97-.71-1.35-1.06-.21-.18-.6-.19-.86-.34,0-.44,.03-.91-.17-1.21-.78-.06-1.22,.27-1.81,.22-.59-.05-1.14-.56-2.02-.37,.06-.33,.24-.52,.36-.78-.33-.49-1.1,.05-1.65-.13-.15-.13-.15-.41-.31-.53,.13-.4,.53-.37,.51-.77-.01-.42-.81-.61-.78-1.19-.38-.24-.88-.4-1.39-.52-.12-.02-.53,.55-.45,1-.78,.07-.24-1.13-.38-1.18-.39-.09-.76-.19-1.08-.34-1.05-.68-1.66-2.05-3.16-2.1-.25-.2-.59-.29-.93-.27,.01-.12-.08-.16-.11-.27-.15-.19,.3-.15,.31-.35,.04-.24-.19-.36-.05-.51,.24-.13,.5,.01,.62,.16-.27-.33-.51-1.13-1.36-1.04-.39-.56-.42-1.46-.82-2.02-.07-.18,.03-.24,.05-.41-.24-.18-.74-.33-1.08-.27v-.1c.1-.08,.09-.29,.16-.41,.31-.62,1.22-1.13,1.28-1.65,.05-.35-.25-.62-.3-1.1,.53-.47,.42-1.62,.62-2.43,.15,0,.3-.15,.41-.27,.62-1.16,1.6-1.72,2.11-2.99,.41-.03,.61-.84,1.09-.88,.4-.03,1,.59,1.35,.74,.69,.27,1.58,.27,2.33,.56,1.23,.5,2.07,1.36,3.05,1.66,.35,.72,1.14,1.31,1.66,2.11,.32,.5,.44,1.08,.72,1.71,.35,.79,1.04,1.36,.78,2.22,.37,.12,.63-.21,.93-.3,.18-.06,.45-.03,.62-.11,.24-.11,.35-.41,.62-.56,.36-.2,.68-.22,.88-.52,1.31,.07,1.28-1.3,2.68-.99,.23-.43,.77-.44,1.15-.72,.24-.19,.33-.46,.56-.57,.34-.17,.77-.08,1.19-.26,0-.53-.08-1.07,.06-1.6,.16-.68,1.07-1.49,1.66-1.56,.12,0,.35,.11,.56,.11,.1,0,.3-.12,.36-.11,.2,.04,.33,.24,.53,.26,.41,.05,.69-.24,1.07-.36,.32,.05,.56-.01,.99,0,.17-.06,.05-.42,.16-.52,.61,.22,.73-.65,1.33-.46,.11-.24,.06-.3,.27-.42,.31,.05,.35,.36,.67,.42,.91-.51,2.11,.11,3.09-.21,.42,.3,.87,.12,1.41,.15,.18-.06-.02-.32,.16-.3,.26,.04,.57,.04,.82,.1-.09-.39,.26-.36,.37-.56,.17-.13-.34-.3-.11-.47,.36-.05,.37,.27,.77,.21,.18,.03,.05-.24,.16-.26,.21,.26,.55,.2,.78,0,.12,.15,.24,.32,.54,.32,.21,.03,.11-.23,.23-.27,.28,.15,.44,.41,.6,.68,.77-.47,1.3,1.24,2.02,.3-.25-.24-.67-.33-.72-.82,.12,.05,.42,.11,.54,0,.12-.15-.12-.39,0-.51,1.6,.23,2,1.69,3.67,1.87-.03-.33-.25-.42-.23-.78,.11,.13,.2,.25,.46,.21,.17-.14-.07-.35,.06-.46,.51,.17,.71-.24,1.08-.27,.42-.03,.4,.25,.78,.47,.21,.12,.49,0,.57,.26,.23-.2,.34-.49,.68-.58,.34,.2,.68,.41,.98,.62h.41c.65,.23,.84,.83,1.25,1.24,.17,.18,.41,.36,.61,.53,.63,.54,1.24,1.01,1.7,1.7,1.1-.59,1.24-1.03,1.72-2.27,.29-.74,.66-1.23,.67-2.02,0-1.07-.31-2.22-.5-3.3-.42-2.13-1.12-4.05-1.89-5.85-1.45-3.41-3.56-6.91-3.56-11.38,0-.47,.14-1.07,.12-1.49-.04-.22-.17-.43-.23-.67-.3-2.18,.94-2.86,2.43-3.32Z"/><path class="e" d="M2.69,61.77C2.69,29.14,29.14,2.69,61.77,2.69s59.08,26.45,59.08,59.08-26.45,59.09-59.08,59.09S2.69,94.4,2.69,61.77Z"/></g></g></g></g></svg>