<svg xmlns="http://www.w3.org/2000/svg" viewBox="0 0 507.71 85.18"><defs><style>.cls-1{font-size:72px;fill:#fff;font-family:CooperBlack, Cooper Black;}.cls-2{fill:#f9b233;}.cls-3{fill:#ffedd5;}.cls-4{fill:none;stroke:#f9b233;stroke-miterlimit:10;stroke-width:4px;}</style></defs><g id="Calque_2" data-name="Calque 2"><g id="Calque_1-2" data-name="Calque 1"><text class="cls-1" transform="translate(0 67.11)">BED<tspan class="cls-2" x="159.15" y="0" xml:space="preserve">      REAK</tspan></text><path class="cls-2" d="M162.36,17.38C162.62,8.85,175.6-.88,187.2.06c12.07,1,14.3,12.87,25.49,12.75,10-.11,11.66-9.57,22.42-10s22.6,8.68,22.68,16.56c0,4.48-3.68,5.93-6.87,10.79-11,16.8,8.35,37.68,0,49.35-2.74,3.83-6.68,4.15-42.15,4.9-34,.72-38.57.6-41.18-3.27-7.28-10.78,14.86-29.78,6.21-47.71C169.68,24.86,162.16,24,162.36,17.38Z"/><path class="cls-3" d="M170.37,21.58c.21-7.1,11-15.2,20.67-14.42,10,.82,11.9,10.71,21.21,10.61,8.29-.09,9.71-8,18.65-8.35s18.81,7.23,18.88,13.79c0,3.72-3.06,4.93-5.71,9-9.17,14,7,31.36,0,41.07-2.29,3.19-5.56,3.45-35.08,4.07-28.27.6-32.09.51-34.27-2.72-6.06-9,12.37-24.77,5.17-39.7C176.46,27.8,170.21,27.05,170.37,21.58Z"/><line class="cls-4" x1="184.14" y1="7.98" x2="186.82" y2="77.61"/><line class="cls-4" x1="230.9" y1="9.42" x2="228.42" y2="76.8"/><line class="cls-4" x1="174.51" y1="28.27" x2="249.78" y2="26.48"/><line class="cls-4" x1="180.63" y1="49.02" x2="241.6" y2="47.26"/><line class="cls-4" x1="174.05" y1="66.47" x2="245.69" y2="64.59"/><line class="cls-4" x1="212.25" y1="17.77" x2="208.99" y2="77.32"/></g></g></svg>