<?xml version="1.0" encoding="UTF-8"?><svg xmlns="http://www.w3.org/2000/svg" viewBox="0 0 143.88 127.78"><defs><style>.d{fill:red;}.e{fill:#d9e021;}</style></defs><g id="a"/><g id="b"><g id="c"><g><g><path class="d" d="M57.67,25.85c-29.13,13.27-22.52,29.08-13.76,48.3,8.75,19.22,39.7,29.55,47.6,25.95,7.9-3.6,20.4-33.74,11.65-52.96-8.76-19.22-16.37-34.57-45.5-21.3Zm4.81,28.53c.69-.31,2.27,1.64,3.5,4.35,1.23,2.71,1.66,5.17,.97,5.48-.68,.32-2.25-1.62-3.48-4.33-1.24-2.72-1.69-5.18-.99-5.5Zm-12.67,17.65c-.68,.32-2.25-1.63-3.49-4.34-1.23-2.72-1.67-5.17-.99-5.49,.7-.31,2.27,1.63,3.5,4.34,1.24,2.72,1.68,5.18,.98,5.49Zm9.35,11.51c-.62,.29-2.04-1.48-3.16-3.93-1.1-2.44-1.51-4.66-.87-4.94,.62-.29,2.04,1.47,3.14,3.91,1.13,2.46,1.52,4.67,.9,4.96Zm-9.76-26.12c-.81,.38-2.66-1.92-4.12-5.13-1.46-3.2-1.98-6.09-1.17-6.47,.82-.38,2.67,1.91,4.13,5.12,1.46,3.21,1.98,6.11,1.15,6.48Zm8.77,10.82c-.69,.31-2.27-1.64-3.5-4.34-1.23-2.71-1.68-5.17-.98-5.49,.69-.31,2.25,1.63,3.49,4.35,1.24,2.71,1.68,5.17,.99,5.49Zm5.37,7.95c-1.11-2.44-1.52-4.67-.89-4.94,.63-.29,2.05,1.46,3.15,3.9,1.13,2.46,1.52,4.67,.89,4.96-.61,.29-2.03-1.47-3.15-3.92Zm10.03,16.37c-.51,.22-1.64-1.18-2.54-3.16-.9-1.97-1.22-3.75-.71-3.98,.5-.23,1.65,1.19,2.53,3.15,.9,1.98,1.23,3.77,.72,4Zm-14.3-39.63c-.82,.38-2.67-1.92-4.13-5.12-1.46-3.21-1.98-6.11-1.16-6.48,.81-.38,2.66,1.92,4.12,5.13,1.47,3.2,1.98,6.1,1.17,6.47Zm13.4,24.46c-.62,.29-2.04-1.47-3.16-3.92-1.11-2.44-1.52-4.67-.88-4.95,.62-.28,2.03,1.47,3.14,3.91,1.12,2.46,1.51,4.67,.9,4.96Zm7.28,12.25c-.5,.23-1.63-1.18-2.53-3.16-.9-1.97-1.21-3.75-.71-3.98,.5-.23,1.63,1.18,2.52,3.15,.91,1.98,1.24,3.76,.72,3.99Zm5.41-2.46c-.5,.22-1.64-1.18-2.54-3.16-.89-1.97-1.21-3.75-.71-3.98,.5-.23,1.65,1.19,2.54,3.15,.9,1.97,1.23,3.77,.72,4Zm-5.98-12.86c-.62,.29-2.04-1.47-3.15-3.91-1.12-2.46-1.51-4.66-.89-4.95,.62-.29,2.04,1.47,3.17,3.92,1.1,2.44,1.51,4.67,.88,4.95Zm-4.98-13.49c-.69,.32-2.25-1.62-3.48-4.33-1.24-2.74-1.69-5.19-.99-5.5,.7-.31,2.26,1.62,3.5,4.35,1.23,2.71,1.67,5.16,.97,5.47Zm-4.75-12.63c-.82,.37-2.67-1.92-4.13-5.12-1.46-3.21-1.98-6.11-1.16-6.48,.82-.37,2.66,1.92,4.12,5.13,1.46,3.2,1.99,6.09,1.17,6.47Zm21.84,36.18c-.49,.23-1.63-1.18-2.54-3.15-.89-1.98-1.21-3.76-.71-3.98,.5-.23,1.63,1.17,2.53,3.14,.9,1.99,1.22,3.76,.71,3.99Zm-4.47-13.53c-.63,.29-2.04-1.47-3.17-3.93-1.11-2.44-1.52-4.66-.89-4.94,.63-.28,2.04,1.46,3.15,3.92,1.13,2.45,1.52,4.66,.9,4.95Zm-4.17-13.87c-.68,.32-2.26-1.62-3.49-4.33-1.24-2.72-1.68-5.18-1-5.51,.7-.3,2.27,1.65,3.52,4.35,1.22,2.72,1.65,5.17,.97,5.48Zm-4.41-12.79c-.83,.38-2.68-1.93-4.14-5.14-1.46-3.2-1.98-6.09-1.17-6.46,.82-.38,2.67,1.92,4.13,5.12,1.46,3.21,1.97,6.11,1.17,6.48Zm19.15,37.4c-.5,.23-1.63-1.18-2.53-3.15-.9-1.97-1.22-3.76-.72-3.98,.5-.23,1.64,1.18,2.53,3.15,.91,1.98,1.22,3.76,.72,3.98Zm-3-14.19c-.63,.28-2.03-1.48-3.16-3.93-1.12-2.46-1.52-4.66-.9-4.95,.64-.28,2.05,1.45,3.17,3.91,1.13,2.44,1.51,4.67,.89,4.96Zm-3.35-14.25c-.71,.33-2.25-1.62-3.49-4.34-1.25-2.71-1.69-5.17-.99-5.48,.7-.32,2.25,1.61,3.5,4.34,1.25,2.7,1.68,5.16,.98,5.47Zm9,11.66c-.62,.29-2.05-1.46-3.16-3.92-1.11-2.44-1.51-4.67-.88-4.95,.62-.28,2.03,1.48,3.14,3.91,1.12,2.46,1.52,4.67,.9,4.96Zm-11.84-25.18c-.82,.39-2.66-1.91-4.12-5.12-1.46-3.21-1.99-6.11-1.17-6.47,.83-.38,2.68,1.92,4.13,5.12,1.45,3.2,1.97,6.1,1.16,6.46Zm11.29,9.67c-.68,.32-2.25-1.64-3.49-4.33-1.23-2.73-1.68-5.19-1-5.5,.7-.31,2.28,1.63,3.51,4.35,1.24,2.69,1.67,5.16,.98,5.48Z"/><path class="e" d="M47.51,29.08l24.77-11.29-6.69-3.12-.2-11.97s-5.5,2.51-4.81,11.31l-2.98-7.76-1.15,9.64-10.78-4.21,4.36,7.13-12.63-3.35,8.35,8.56-3.76,7.58,5.51-2.51Z"/><path class="e" d="M55.59,16.75l-2.22,.08c-.02-.13-1.85-12.87-9.38-14.38l.14-2.45c9.33,1.87,11.38,16.14,11.46,16.75Z"/></g><g><path d="M8.56,127.54H0v-14.03H1.4v12.94h7.16v1.08Z"/><path d="M8.6,127.54l4.66-14.03h1.84l4.68,14.03h-1.44l-1.28-3.82h-5.83l-1.23,3.82h-1.4Zm5.53-13.05c-.1,.29-.25,.8-.47,1.52s-.38,1.24-.48,1.57l-1.62,5.1h5.17l-1.63-5.11c-.37-1.15-.69-2.17-.97-3.08Z"/><path d="M25.75,127.54v-14h5.43c.37,0,.75,.03,1.15,.1,.4,.06,.75,.15,1.05,.26,.3,.11,.6,.25,.88,.43,.28,.18,.51,.39,.69,.64s.33,.54,.44,.89c.11,.35,.16,.74,.16,1.17,0,1.66-.87,2.64-2.6,2.94,1,.2,1.76,.61,2.26,1.25,.5,.63,.76,1.42,.76,2.37,0,.79-.12,1.43-.36,1.95-.24,.51-.64,.92-1.18,1.21-.54,.3-1.19,.5-1.95,.62-.76,.12-1.71,.18-2.86,.18h-3.86Zm1.39-13v4.95h3.99c.3,0,.55-.01,.75-.04s.4-.06,.63-.11,.4-.1,.54-.16c.14-.06,.28-.14,.42-.24s.25-.2,.34-.32c.08-.12,.16-.26,.23-.42,.07-.16,.12-.34,.14-.54s.04-.41,.04-.65c0-.26-.02-.5-.07-.72-.05-.22-.11-.4-.19-.56-.08-.16-.19-.3-.33-.42-.14-.12-.27-.23-.41-.31-.14-.08-.31-.16-.52-.22-.21-.06-.4-.11-.58-.13-.18-.03-.4-.05-.66-.07s-.49-.03-.69-.03h-3.63Zm0,6.05v5.91h3.93c.25,0,.54-.02,.88-.06s.61-.1,.84-.18c.22-.08,.46-.19,.7-.34,.24-.14,.44-.32,.58-.53s.27-.46,.36-.78,.14-.67,.14-1.06c0-.32-.03-.61-.08-.88-.05-.26-.12-.49-.21-.69-.08-.2-.2-.38-.35-.53s-.3-.28-.45-.38c-.15-.1-.34-.19-.57-.27-.23-.07-.44-.13-.64-.17-.19-.04-.44-.06-.72-.06h-4.41Z"/><path d="M47.55,127.54h-9.39v-14.03h9.28v1.07h-7.89v4.92h6.86v1.1h-6.86v5.84h7.99v1.08Z"/><path d="M57.67,127.54h-8.56v-14.03h1.4v12.94h7.16v1.08Z"/><path d="M67.44,127.54h-8.56v-14.03h1.4v12.94h7.16v1.08Z"/><path d="M78.05,127.54h-9.39v-14.03h9.28v1.07h-7.88v4.92h6.86v1.1h-6.86v5.84h7.99v1.08Z"/><path class="d" d="M93.21,114.58h-7.88v5h6.85v1.09h-6.85v6.86h-1.4v-14.03h9.28v1.07Z"/><path class="d" d="M104.62,117.24c0,.96-.25,1.74-.74,2.33-.5,.6-1.26,1.03-2.29,1.31l3.26,6.66h-1.49l-3.18-6.45h-4.38v6.45h-1.39v-14.03h5.07c1.82,0,3.13,.3,3.94,.91s1.21,1.54,1.21,2.82Zm-8.82-2.69v5.46h3.36c.46,0,.86-.02,1.21-.05,.35-.03,.71-.11,1.08-.22,.37-.12,.68-.27,.92-.46,.24-.19,.44-.46,.59-.8,.15-.34,.23-.75,.23-1.22s-.07-.9-.22-1.24c-.15-.34-.33-.61-.55-.79-.22-.19-.51-.34-.87-.44-.36-.11-.7-.17-1.01-.2-.31-.03-.7-.04-1.15-.04h-3.59Z"/><path class="d" d="M105.56,127.54l4.66-14.03h1.84l4.68,14.03h-1.44l-1.28-3.82h-5.83l-1.23,3.82h-1.4Zm5.53-13.05c-.1,.29-.25,.8-.47,1.52-.22,.72-.38,1.24-.48,1.57l-1.62,5.1h5.17l-1.63-5.11c-.37-1.15-.69-2.17-.97-3.08Z"/><path class="d" d="M119.94,127.54h-1.4v-14.03h1.4v14.03Z"/><path class="d" d="M127.35,113.34c1.13,0,2.09,.19,2.87,.56,.78,.38,1.45,.99,2.01,1.84l-1.03,.77c-.38-.66-.88-1.17-1.52-1.52-.64-.35-1.34-.52-2.12-.52-1,0-1.82,.19-2.45,.56-.63,.37-.95,.94-.95,1.71,0,.3,.07,.58,.2,.82,.13,.25,.3,.45,.48,.61,.19,.16,.44,.32,.76,.47s.6,.27,.85,.35c.25,.08,.57,.19,.94,.31,.38,.12,.67,.22,.87,.3,.43,.17,.78,.31,1.05,.42,.27,.11,.58,.25,.91,.42s.6,.32,.8,.46c.2,.14,.41,.32,.62,.52,.21,.2,.37,.42,.48,.64,.11,.22,.2,.48,.28,.77,.07,.29,.11,.61,.11,.94,0,1.26-.47,2.24-1.41,2.95s-2.21,1.06-3.79,1.06c-.45,0-.9-.04-1.35-.11-.44-.08-.89-.21-1.35-.39-.46-.18-.87-.42-1.23-.7s-.68-.65-.96-1.09c-.28-.45-.47-.95-.57-1.51l1.18-.51c.29,1.05,.79,1.84,1.51,2.35,.72,.51,1.67,.77,2.86,.77,.36,0,.71-.03,1.04-.08,.33-.05,.66-.15,.98-.28,.32-.13,.6-.3,.84-.5s.43-.46,.57-.79c.14-.32,.21-.69,.21-1.1,0-.26-.04-.5-.11-.72-.07-.22-.14-.4-.22-.56-.08-.16-.23-.32-.46-.48-.23-.17-.41-.3-.55-.39-.13-.09-.39-.22-.78-.37-.38-.15-.67-.26-.86-.33-.19-.07-.54-.19-1.06-.37-.08-.03-.15-.05-.19-.07-1.14-.4-1.93-.72-2.38-.97-1.03-.57-1.61-1.32-1.75-2.24-.02-.15-.03-.31-.03-.48,0-.58,.13-1.1,.39-1.56,.26-.46,.61-.83,1.06-1.11,.44-.28,.94-.49,1.48-.63,.55-.14,1.12-.21,1.73-.21Z"/><path class="d" d="M143.88,127.54h-9.39v-14.03h9.28v1.07h-7.88v4.92h6.86v1.1h-6.86v5.84h7.99v1.08Z"/></g></g></g></g></svg>