<svg xmlns="http://www.w3.org/2000/svg" viewBox="0 0 218.68 186.2"><defs><style>.cls-1{fill:#17b24b;}.cls-2{fill:#694938;}.cls-3{fill:#997064;}.cls-4{fill:#71534a;}.cls-5{fill:#73bf44;}.cls-6{fill:#069246;}.cls-7{fill:#0cb054;}.cls-8{fill:#0d7e3f;}</style></defs><g id="Calque_2" data-name="Calque 2"><g id="Calque_2-2" data-name="Calque 2"><path class="cls-1" d="M131.72,120.48h-9.18a3.8,3.8,0,0,1-2.84-.89,4,4,0,0,1-.86-2.84V94.15a3.19,3.19,0,0,1,3.7-3.74h9.74a22.44,22.44,0,0,1,3.73.27,7.91,7.91,0,0,1,2.83,1,7.42,7.42,0,0,1,1.89,1.61A7.25,7.25,0,0,1,142,95.47a7.4,7.4,0,0,1,.43,2.49c0,3-1.51,5.21-4.51,6.6q5.92,1.89,5.92,7.35a8.26,8.26,0,0,1-1.29,4.54,7.7,7.7,0,0,1-3.48,3,11.87,11.87,0,0,1-3.16.81A31.71,31.71,0,0,1,131.72,120.48ZM124.94,95v7.77h5.57a11.14,11.14,0,0,0,3.52-.43,3.36,3.36,0,0,0,1.9-1.64,3.74,3.74,0,0,0,.51-1.93,3,3,0,0,0-1.62-3,12.36,12.36,0,0,0-4.94-.75Zm6.33,12.14h-6.33v8.78h6.54c4.11,0,6.17-1.49,6.17-4.45a3.64,3.64,0,0,0-1.6-3.31A9,9,0,0,0,131.27,107.13Z"/><path class="cls-1" d="M151.53,95.62a3,3,0,0,1-2-.71,2.79,2.79,0,0,1,0-4,2.84,2.84,0,0,1,2-.77,2.9,2.9,0,0,1,1.93.7,2.48,2.48,0,0,1,.84,2,2.56,2.56,0,0,1-.82,2A2.83,2.83,0,0,1,151.53,95.62Zm2.77,5.79v16.18a3.57,3.57,0,0,1-.8,2.54,2.66,2.66,0,0,1-2,.86,2.53,2.53,0,0,1-2-.88,3.74,3.74,0,0,1-.77-2.52v-16a3.6,3.6,0,0,1,.77-2.5,2.6,2.6,0,0,1,2-.84,2.68,2.68,0,0,1,2,.84A3.23,3.23,0,0,1,154.3,101.41Z"/><path class="cls-1" d="M181.05,109.61a13.16,13.16,0,0,1-.78,4.61,10.24,10.24,0,0,1-2.26,3.63,9.8,9.8,0,0,1-3.53,2.33,12.42,12.42,0,0,1-4.61.81,12,12,0,0,1-4.57-.82,10.12,10.12,0,0,1-5.78-6,13.21,13.21,0,0,1-.77-4.6,13.36,13.36,0,0,1,.78-4.66,10.12,10.12,0,0,1,2.24-3.6A9.76,9.76,0,0,1,165.3,99a13.33,13.33,0,0,1,9.18,0,10,10,0,0,1,3.55,2.34,10.22,10.22,0,0,1,2.25,3.61A13.31,13.31,0,0,1,181.05,109.61Zm-5.62,0a8.43,8.43,0,0,0-1.51-5.33,4.91,4.91,0,0,0-4-1.91,5,5,0,0,0-2.89.85,5.39,5.39,0,0,0-1.93,2.51,10.26,10.26,0,0,0-.68,3.88,10,10,0,0,0,.67,3.83A5.44,5.44,0,0,0,167,116a5.27,5.27,0,0,0,7-1A8.4,8.4,0,0,0,175.43,109.61Z"/><path class="cls-2" d="M131.72,170.88h-9.18a3.8,3.8,0,0,1-2.84-.89,4,4,0,0,1-.86-2.84v-22.6a3.19,3.19,0,0,1,3.7-3.74h9.74a22.44,22.44,0,0,1,3.73.27,7.91,7.91,0,0,1,2.83,1,7.42,7.42,0,0,1,1.89,1.61,7.25,7.25,0,0,1,1.25,2.15,7.4,7.4,0,0,1,.43,2.49c0,3-1.51,5.21-4.51,6.61q5.92,1.88,5.92,7.34a8.26,8.26,0,0,1-1.29,4.54,7.7,7.7,0,0,1-3.48,3,11.87,11.87,0,0,1-3.16.81A31.71,31.71,0,0,1,131.72,170.88Zm-6.78-25.49v7.77h5.57a11.14,11.14,0,0,0,3.52-.43,3.36,3.36,0,0,0,1.9-1.64,3.71,3.71,0,0,0,.51-1.93,3,3,0,0,0-1.62-3,12.36,12.36,0,0,0-4.94-.75Zm6.33,12.14h-6.33v8.78h6.54c4.11,0,6.17-1.49,6.17-4.45a3.64,3.64,0,0,0-1.6-3.31A9,9,0,0,0,131.27,157.53Z"/><path class="cls-2" d="M151.53,146a3,3,0,0,1-2-.71,2.79,2.79,0,0,1,0-4,3,3,0,0,1,3.91-.07,2.48,2.48,0,0,1,.84,2,2.56,2.56,0,0,1-.82,2A2.83,2.83,0,0,1,151.53,146Zm2.77,5.79V168a3.57,3.57,0,0,1-.8,2.54,2.66,2.66,0,0,1-2,.86,2.53,2.53,0,0,1-2-.88,3.74,3.74,0,0,1-.77-2.52V152a3.6,3.6,0,0,1,.77-2.5,2.6,2.6,0,0,1,2-.84,2.68,2.68,0,0,1,2,.84A3.23,3.23,0,0,1,154.3,151.81Z"/><path class="cls-2" d="M178.11,164.07a6.8,6.8,0,0,1-1.13,4,6.9,6.9,0,0,1-3.33,2.5,14.88,14.88,0,0,1-5.36.85,13.2,13.2,0,0,1-5.17-.92,7.68,7.68,0,0,1-3.18-2.31,4.66,4.66,0,0,1-1-2.78,2.19,2.19,0,0,1,.65-1.58,2.28,2.28,0,0,1,1.66-.65,2,2,0,0,1,1.36.43,4.94,4.94,0,0,1,.9,1.21,6,6,0,0,0,2.06,2.23,6.14,6.14,0,0,0,3.27.74,4.73,4.73,0,0,0,2.76-.75,2.09,2.09,0,0,0,1.08-1.71,2.34,2.34,0,0,0-1.12-2.15,13.92,13.92,0,0,0-3.68-1.29,30.23,30.23,0,0,1-4.71-1.51,7.76,7.76,0,0,1-2.9-2.08,4.79,4.79,0,0,1-1.09-3.18,5.62,5.62,0,0,1,1-3.18,6.94,6.94,0,0,1,3-2.39,11.44,11.44,0,0,1,4.73-.89,15.48,15.48,0,0,1,3.9.45,9.7,9.7,0,0,1,2.9,1.21,6.06,6.06,0,0,1,1.76,1.68,3.35,3.35,0,0,1,.61,1.81,2.07,2.07,0,0,1-.65,1.57,2.52,2.52,0,0,1-1.84.62,2.22,2.22,0,0,1-1.46-.49,9.33,9.33,0,0,1-1.39-1.48,5,5,0,0,0-1.49-1.31,4.73,4.73,0,0,0-2.34-.49,4.58,4.58,0,0,0-2.52.64,1.89,1.89,0,0,0-1,1.61,1.76,1.76,0,0,0,.74,1.45,6,6,0,0,0,2,.93c.83.25,2,.55,3.44.9a18.56,18.56,0,0,1,4.26,1.52,7.11,7.11,0,0,1,2.5,2.08A4.61,4.61,0,0,1,178.11,164.07Z"/><path class="cls-2" d="M183.16,149.12h.61v-3.36c0-.91,0-1.61.07-2.12a3.3,3.3,0,0,1,.4-1.33,2.57,2.57,0,0,1,.95-.93,2.67,2.67,0,0,1,1.37-.36,2.78,2.78,0,0,1,1.93.8,2.46,2.46,0,0,1,.73,1.3,12.2,12.2,0,0,1,.15,2.19v3.81h2a2.68,2.68,0,0,1,1.82.56,1.89,1.89,0,0,1,.62,1.45,1.61,1.61,0,0,1-.89,1.58,5.79,5.79,0,0,1-2.55.45h-1v10.3a17.28,17.28,0,0,0,.09,2,2,2,0,0,0,.5,1.14,1.65,1.65,0,0,0,1.3.44,6.56,6.56,0,0,0,1.33-.17,6.57,6.57,0,0,1,1.31-.17,1.69,1.69,0,0,1,1.22.54,1.8,1.8,0,0,1,.55,1.34,2.24,2.24,0,0,1-1.48,2.07,9.93,9.93,0,0,1-4.24.72,7.32,7.32,0,0,1-4-.88,4.07,4.07,0,0,1-1.78-2.44,16.58,16.58,0,0,1-.42-4.16V153.16H183a2.67,2.67,0,0,1-1.84-.57,1.88,1.88,0,0,1-.64-1.46,1.81,1.81,0,0,1,.67-1.45A3,3,0,0,1,183.16,149.12Z"/><path class="cls-2" d="M218.68,160a13.16,13.16,0,0,1-.78,4.61,10.1,10.1,0,0,1-2.26,3.63,9.8,9.8,0,0,1-3.53,2.33,12.42,12.42,0,0,1-4.61.81,12,12,0,0,1-4.57-.82,10.12,10.12,0,0,1-5.78-6,13.21,13.21,0,0,1-.77-4.6,13.36,13.36,0,0,1,.78-4.66,10.12,10.12,0,0,1,2.24-3.6,9.85,9.85,0,0,1,3.53-2.31,13.33,13.33,0,0,1,9.18,0,9.86,9.86,0,0,1,3.55,2.34,10.08,10.08,0,0,1,2.25,3.61A13.31,13.31,0,0,1,218.68,160Zm-5.62,0a8.43,8.43,0,0,0-1.51-5.33,4.89,4.89,0,0,0-4.05-1.91,5.07,5.07,0,0,0-2.89.85,5.39,5.39,0,0,0-1.93,2.51,11.37,11.37,0,0,0,0,7.72,5.46,5.46,0,0,0,1.91,2.51,4.94,4.94,0,0,0,2.92.87,4.87,4.87,0,0,0,4.05-1.92A8.4,8.4,0,0,0,213.06,160Z"/><rect class="cls-3" x="26.64" y="84.33" width="85.56" height="85.56"/><ellipse class="cls-4" cx="69.21" cy="84.08" rx="42.57" ry="16.31"/><ellipse class="cls-3" cx="69.42" cy="169.89" rx="42.57" ry="16.31"/><rect class="cls-5" x="65.63" y="50.88" width="7.59" height="49.43"/><path class="cls-3" d="M40.6,152.81c-13.74,0-24.87-9.78-24.87-21.84s11.13-21.84,24.87-21.84A27.58,27.58,0,0,1,52,111.54a28.71,28.71,0,0,0-22.54-11.15c-16.25,0-29.42,14-29.42,31.16s13.17,31.17,29.42,31.17a28.91,28.91,0,0,0,23.86-13A27.36,27.36,0,0,1,40.6,152.81Z"/><path class="cls-6" d="M120.9,36.35c7.11-3.74-12.37,23-24.5,29.35s-25,5.8-28.74-1.32,3-18.06,15.18-24.45S109.62,42.29,120.9,36.35Z"/><path class="cls-7" d="M80.82,1.27c1.13-8,11.39,23.47,9.47,37S80.36,62,72.4,60.85s-12.87-13.05-11-26.62S79,13.89,80.82,1.27Z"/><path class="cls-8" d="M32.09,20.93c-5.25-6.09,3.11,25.9,12.06,36.28s21.14,14.54,27.23,9.28,3.78-17.92-5.18-28.3S40.41,30.58,32.09,20.93Z"/></g></g></svg>