<svg xmlns="http://www.w3.org/2000/svg" viewBox="0 0 154.52 176.68"><defs><style>.cls-1{fill:#1d1d1b;}.cls-2,.cls-4{fill:none;stroke-miterlimit:10;}.cls-2{stroke:#fff;}.cls-3{fill:#fff;}.cls-4{stroke:#1d1d1b;stroke-width:1.5px;}</style></defs><g id="Calque_2" data-name="Calque 2"><g id="Bistro"><circle class="cls-1" cx="77.26" cy="99.42" r="77.26"/><circle class="cls-2" cx="77.26" cy="99.42" r="70.72"/><path class="cls-3" d="M61.79,69.72a2.66,2.66,0,0,1,1.65,1,3.11,3.11,0,0,1,.53,1.8,3.05,3.05,0,0,1-1,2.45,4.69,4.69,0,0,1-3.16.89H55.92V74.85h1.27V65.52H55.92v-1H59.8a4.63,4.63,0,0,1,2.81.69,2.4,2.4,0,0,1,.92,2,2.74,2.74,0,0,1-.42,1.53,2.47,2.47,0,0,1-1.32,1Zm-2-.38c1.58,0,2.37-.66,2.37-2A1.63,1.63,0,0,0,61.6,66a3.34,3.34,0,0,0-1.89-.43H58.46v3.82Zm0,5.51a3.56,3.56,0,0,0,2.11-.52,2.11,2.11,0,0,0,.68-1.77A2,2,0,0,0,62,70.93a3.17,3.17,0,0,0-2-.53H58.46v4.45Z"/><path class="cls-3" d="M65.45,74.85h1.06V68.7H65.45V67.64h2.33v7.21h1.06V75.9H65.45Zm.7-9.45a.85.85,0,0,1,.91-.93.92.92,0,0,1,.66.24.84.84,0,0,1,.25.64.87.87,0,0,1-.25.67,1,1,0,0,1-.68.25A.87.87,0,0,1,66.4,66,.81.81,0,0,1,66.15,65.4Z"/><path class="cls-3" d="M72.53,76.12a5.71,5.71,0,0,1-2.42-.52V73.76h1.1v1.11a5.15,5.15,0,0,0,1.4.19A2.12,2.12,0,0,0,74,74.73a1.12,1.12,0,0,0,.39-.91,1,1,0,0,0-.47-.88,6.78,6.78,0,0,0-1.46-.68,4.61,4.61,0,0,1-1.9-1.09A2,2,0,0,1,70,69.8a2.08,2.08,0,0,1,.82-1.7A3.24,3.24,0,0,1,73,67.43a5.15,5.15,0,0,1,2.25.51v1.82H74.09V68.64a3.21,3.21,0,0,0-1.2-.19,1.94,1.94,0,0,0-1.21.32,1.06,1.06,0,0,0-.4.86,1,1,0,0,0,.43.83,6.09,6.09,0,0,0,1.37.65,5.56,5.56,0,0,1,1.94,1,2,2,0,0,1,.6,1.53,2.14,2.14,0,0,1-.85,1.77A3.54,3.54,0,0,1,72.53,76.12Z"/><path class="cls-3" d="M79.71,76.12a2.05,2.05,0,0,1-1.44-.48,1.78,1.78,0,0,1-.53-1.41V68.7H76.68V67.64h1.06v-1.9L79,65.5v2.14h1.91V68.7H79V74a1.11,1.11,0,0,0,.24.83,1,1,0,0,0,.65.21,2.27,2.27,0,0,0,1-.26v1A2.86,2.86,0,0,1,79.71,76.12Z"/><path class="cls-3" d="M82,74.85h1V68.7H82V67.64h2.26l.07,1.19h0a3,3,0,0,1,.89-1,2.07,2.07,0,0,1,1.16-.31,2,2,0,0,1,.45,0v1.33a3.52,3.52,0,0,0-.66-.06,1.89,1.89,0,0,0-1.07.29,2.48,2.48,0,0,0-.81.92v4.81h1.27V75.9H82Z"/><path class="cls-3" d="M87.8,71.82a4.82,4.82,0,0,1,1-3.2,3.09,3.09,0,0,1,2.49-1.19,3,3,0,0,1,2.4,1.1,4.79,4.79,0,0,1,.9,3.1,5.22,5.22,0,0,1-1,3.26,3,3,0,0,1-2.5,1.23,2.91,2.91,0,0,1-2.43-1.18A5,5,0,0,1,87.8,71.82Zm1.34-.19a4.94,4.94,0,0,0,.54,2.55,1.72,1.72,0,0,0,1.55.88,1.68,1.68,0,0,0,1.49-.82,4.67,4.67,0,0,0,.52-2.49c0-2.17-.69-3.26-2.07-3.26a1.73,1.73,0,0,0-1.52.75A4.35,4.35,0,0,0,89.14,71.63Z"/><path class="cls-3" d="M69.05,142.55v1.31H65.47v-.54a11.68,11.68,0,0,0,1.87-1.84,2.75,2.75,0,0,0,.75-1.58,1,1,0,0,0-.2-.68.93.93,0,0,0-.75-.25,2.24,2.24,0,0,0-.93.21v.87h-.62v-1.22a3.38,3.38,0,0,1,1.63-.45,1.71,1.71,0,0,1,1.21.39,1.35,1.35,0,0,1,.41,1.06,2.92,2.92,0,0,1-.75,1.73,11,11,0,0,1-1.66,1.68v0h2v-.71Z"/><path class="cls-3" d="M69.52,144.25a4.73,4.73,0,0,0,1.39.21,2,2,0,0,0,1.25-.33,1.19,1.19,0,0,0,.43-1,1,1,0,0,0-.41-.91,2.2,2.2,0,0,0-1.24-.29H70.6v-.6h.23A1.62,1.62,0,0,0,72,141a1.28,1.28,0,0,0,.4-1,1,1,0,0,0-.28-.77,1.16,1.16,0,0,0-.85-.27,2.49,2.49,0,0,0-1,.18v.78h-.62v-1.14a3.54,3.54,0,0,1,1.62-.41,2,2,0,0,1,1.35.44A1.44,1.44,0,0,1,73.1,140,1.69,1.69,0,0,1,72,141.54v0a1.51,1.51,0,0,1,1.39,1.57,2,2,0,0,1-.16.77,1.85,1.85,0,0,1-.47.61,2.39,2.39,0,0,1-.78.4,3.78,3.78,0,0,1-1.06.14,4.54,4.54,0,0,1-1.35-.19Z"/><path class="cls-3" d="M78.7,143.14h-3v-.52l3.11-4.12h.58v4.05h.72v.59h-.72v1.43H78.7Zm-2.18-.59H78.7v-2.89h0l-2.15,2.86Z"/><path class="cls-3" d="M81,141.19a3.35,3.35,0,0,1,.57-2.07,1.82,1.82,0,0,1,1.52-.74,1.69,1.69,0,0,1,1.42.72,3.3,3.3,0,0,1,.54,2,3.5,3.5,0,0,1-.55,2.07,1.79,1.79,0,0,1-2.95,0A3.46,3.46,0,0,1,81,141.19Zm.75-.05a3.35,3.35,0,0,0,.34,1.66,1,1,0,0,0,.93.58,1,1,0,0,0,1-.59,3.45,3.45,0,0,0,.33-1.67,3.27,3.27,0,0,0-.31-1.59,1,1,0,0,0-1-.56,1.07,1.07,0,0,0-1,.55A3.15,3.15,0,0,0,81.71,141.14Z"/><path class="cls-3" d="M34.76,112.86a12.09,12.09,0,0,1,.35-2.66c.22-1,.55-2.28,1-3.86s.86-3,1.1-4.2a14.84,14.84,0,0,0,.37-3.1q0-3.58-3.15-3.58a7.58,7.58,0,0,0-1.74.21l-4.2,19.81H20.89L28,82.06l7.77-1L33.24,93.15h.42a5.8,5.8,0,0,0,3.78-1.42,9.72,9.72,0,0,0,2.71-3.54,10,10,0,0,0,1-4.18,5.6,5.6,0,0,0-1.44-4,5.68,5.68,0,0,0-4.34-1.55A17.28,17.28,0,0,0,27.88,80a11.43,11.43,0,0,0-5,4.42,12.88,12.88,0,0,0-1.76,6.83,6.91,6.91,0,0,0,.37,2.7,4.35,4.35,0,0,1,.37.87,6.41,6.41,0,0,1-4.23-1.18,4.88,4.88,0,0,1-1.39-3.92A9.93,9.93,0,0,1,19,83.19,20.43,20.43,0,0,1,26.09,78a20.63,20.63,0,0,1,8.62-2,16.7,16.7,0,0,1,6.62,1.16,9,9,0,0,1,4,3.07,7.28,7.28,0,0,1,1.31,4.18,9.39,9.39,0,0,1-1.52,4.94,12.14,12.14,0,0,1-4.16,4,4.6,4.6,0,0,1,2.82,1.91,6.38,6.38,0,0,1,.81,3.34,15,15,0,0,1-.37,3.23q-.36,1.71-1,4.23c-.28,1.09-.54,2.16-.79,3.21A12.26,12.26,0,0,0,42,112a4.19,4.19,0,0,0,.56,2.16,2.87,2.87,0,0,0,1.49,1.31,20.17,20.17,0,0,1-5.2.9C36.13,116.38,34.76,115.2,34.76,112.86Z"/><path class="cls-3" d="M49.06,113.7c-1.51-1.33-2.26-3.44-2.26-6.31a25,25,0,0,1,1.47-7.93A18.65,18.65,0,0,1,53,91.92a11.24,11.24,0,0,1,8.19-3.18q6.74,0,6.73,8.4v.06a2.43,2.43,0,0,0,.58,0,10.85,10.85,0,0,0,4-.92,20.11,20.11,0,0,0,4.1-2.23l.47,1.42a12.49,12.49,0,0,1-4,2.75,20.5,20.5,0,0,1-5.34,1.61,23.92,23.92,0,0,1-2.15,8.35,14.3,14.3,0,0,1-4.47,5.52,10,10,0,0,1-5.94,1.94A8.93,8.93,0,0,1,49.06,113.7Zm10.77-4.18A13.16,13.16,0,0,0,62,105.58,25.48,25.48,0,0,0,63.4,100c-.94-.21-1.42-.94-1.42-2.2A2.77,2.77,0,0,1,63.61,95a5.41,5.41,0,0,0-.52-2.39,1.61,1.61,0,0,0-1.47-.66c-1.16,0-2.28.84-3.37,2.52a22.76,22.76,0,0,0-2.63,6.05,23.22,23.22,0,0,0-1,6.2,6.83,6.83,0,0,0,.57,3.39,2.35,2.35,0,0,0,2.11.86A3.48,3.48,0,0,0,59.83,109.52Z"/><path class="cls-3" d="M74.59,127.31a4.53,4.53,0,0,1-1.68-3.79,5.74,5.74,0,0,1,2.42-4.81,21.25,21.25,0,0,1,6.15-3l.63-2.83a8.66,8.66,0,0,1-3.1,2.31,8.57,8.57,0,0,1-3.21.63,5.45,5.45,0,0,1-4.07-1.58,6.51,6.51,0,0,1-1.55-4.73,18.23,18.23,0,0,1,.42-3.41l3.57-16.87h7.57L78,107.08a5.11,5.11,0,0,0-.16,1.31c0,1.54.52,2.31,1.58,2.31a3.14,3.14,0,0,0,2.41-1.18,8.68,8.68,0,0,0,1.68-3.13l3.68-17.18h7.57l-5.2,24.38a9.25,9.25,0,0,0,4-2.52,13.47,13.47,0,0,0,2.58-5h2.21a14.86,14.86,0,0,1-3.84,6.85,12.71,12.71,0,0,1-5.47,3l-.78,3.79q-1,5.09-3.63,7a9.51,9.51,0,0,1-5.83,1.92A6.67,6.67,0,0,1,74.59,127.31Zm4.73-4a9.6,9.6,0,0,0,1.32-3.47l.31-1.52q-5.15,1.89-5.15,4.47a1.75,1.75,0,0,0,.48,1.21,1.66,1.66,0,0,0,1.31.52A2.26,2.26,0,0,0,79.32,123.31Z"/><path class="cls-3" d="M97.45,113.75c-1.33-1.37-2-3.5-2-6.41A23.85,23.85,0,0,1,97,99.17a18.72,18.72,0,0,1,4.62-7.25A10.18,10.18,0,0,1,109,89a5.66,5.66,0,0,1,3.21.73,2.27,2.27,0,0,1,1,1.95V92l.57-2.78h7.57l-3.78,17.87a6.44,6.44,0,0,0-.21,1.68c0,1.5.72,2.26,2.15,2.26a3.19,3.19,0,0,0,2.55-1.37,10.24,10.24,0,0,0,1.71-3.57H126q-2,5.67-4.81,7.7a10,10,0,0,1-5.76,2,5,5,0,0,1-3.54-1.24,5.51,5.51,0,0,1-1.61-3.6,14.35,14.35,0,0,1-3.39,3.5,7.42,7.42,0,0,1-4.44,1.34A6.67,6.67,0,0,1,97.45,113.75Zm11-4.28a6.49,6.49,0,0,0,1.76-3.39l2.52-11.88a2.14,2.14,0,0,0-.52-1.34,2,2,0,0,0-1.63-.66q-2.1,0-3.78,2.45a19.15,19.15,0,0,0-2.63,5.88,23.37,23.37,0,0,0-1,6.07c0,1.75.26,2.88.76,3.37a2.59,2.59,0,0,0,1.87.73A3.79,3.79,0,0,0,108.46,109.47Z"/><path class="cls-3" d="M124.8,114.2a6.7,6.7,0,0,1-1.55-4.81,18.22,18.22,0,0,1,.42-3.42l5.63-26.32,7.77-1.06L131,107a5.91,5.91,0,0,0-.21,1.52A1.88,1.88,0,0,0,133,110.6a4.23,4.23,0,0,0,1.68-.32,5.64,5.64,0,0,1-5.78,5.52A5.45,5.45,0,0,1,124.8,114.2Z"/><circle class="cls-3" cx="74.88" cy="140.17" r="1.12"/><path class="cls-4" d="M64.43,20C58.12,16.24,56.36,10,58.35,7c1.69-2.54,6.8-3.86,10-1.52a6.9,6.9,0,0,1,2.48,4"/><path class="cls-4" d="M69.6,4.38A8.52,8.52,0,0,1,81.18,2.14,8.41,8.41,0,0,1,84,11.83"/><path class="cls-4" d="M85.43,2.31c5.37-1,10.14,1.69,11.25,5.1,1.34,4.14-2.33,10.53-9.41,11.51"/></g></g></svg>