<?xml version="1.0" encoding="UTF-8"?><svg xmlns="http://www.w3.org/2000/svg" viewBox="0 0 143.95 49.12"><defs><style>.d{fill:#d9dc26;}</style></defs><g id="a"/><g id="b"><g id="c"><g><g><path d="M28.29,38.69v-1.49l1.2-.68c.54-.31,1.02-.52,1.42-.64,.41-.12,.84-.18,1.3-.18,1.01,0,1.82,.23,2.44,.68s.99,1.03,1.11,1.73c.09,.53,.14,1.83,.16,3.91,.01,1.97,.06,3.05,.13,3.26,.07,.2,.26,.31,.55,.31h.86v.72c-.83-.05-1.42-.08-1.74-.08-.41,0-.96,.03-1.65,.08v-.98c.01-.31,0-.63,0-.95l-2.27,1.73c-.2,.15-.41,.26-.6,.32-.2,.06-.47,.09-.82,.09-.94,0-1.66-.23-2.16-.7s-.75-1.09-.75-1.87c0-.74,.18-1.38,.53-1.93,.35-.55,.86-.96,1.51-1.22,.65-.26,2.17-.61,4.56-1.03-.01-.93-.22-1.62-.61-2.08-.5-.58-1.21-.87-2.13-.87-.35,0-.68,.04-.99,.13s-.59,.21-.86,.39c-.21,.52-.41,1.02-.58,1.5l-.61-.17Zm5.78,1.75c-2.03,.44-3.32,.85-3.87,1.23-.55,.38-.82,.98-.82,1.78,0,.54,.16,.97,.47,1.3,.31,.33,.72,.49,1.22,.49,.55,0,1.07-.15,1.57-.46s.98-.76,1.43-1.37l-.02-2.43,.02-.54Z"/><path class="d" d="M47.63,37.61v4.27c0,2.05,.06,3.19,.18,3.43s.49,.36,1.1,.36h.97v.64c-1.2-.05-2.06-.08-2.58-.08l-3.47,.08v-.64h.74c.57,0,.91-.11,1.01-.34,.14-.31,.21-1.46,.21-3.46v-4.27l-1.58,.1v-.46c.52-.25,1.05-.52,1.58-.8v-1.4c0-.71,.1-1.29,.29-1.74s.58-.97,1.17-1.58c.78-.81,1.38-1.34,1.81-1.59,.29-.17,.65-.25,1.08-.25,.29,0,.6,.05,.96,.14-.02,.37-.03,.67-.03,.9s.01,.54,.03,.93l-.27,.12c-.43-.38-.93-.57-1.48-.57-.61,0-1.05,.21-1.31,.63s-.39,1.44-.39,3.06v1.46c1.19,0,2.15-.04,2.91-.11l.08,.11-.18,1.05-1.35-.03c-.33,0-.82,.01-1.46,.03Z"/><path class="d" d="M51.85,41.05c0-1.01,.23-1.92,.7-2.74,.47-.82,1.12-1.45,1.97-1.92,.85-.46,1.81-.69,2.88-.69,1.56,0,2.81,.46,3.74,1.38,.94,.92,1.4,2.15,1.4,3.69,0,1.81-.61,3.26-1.83,4.32-1.09,.96-2.4,1.44-3.92,1.44s-2.65-.49-3.57-1.48c-.92-.98-1.38-2.32-1.38-4.01Zm2.06-.77c0,1.51,.31,2.8,.93,3.87,.62,1.07,1.51,1.61,2.67,1.61,.89,0,1.6-.34,2.15-1.01s.82-1.7,.82-3.07c0-1.11-.16-2.06-.48-2.87-.32-.81-.75-1.4-1.27-1.77-.53-.37-1.12-.55-1.77-.55-.58,0-1.1,.15-1.56,.44-.46,.29-.81,.68-1.03,1.17-.3,.67-.45,1.39-.45,2.18Z"/><path class="d" d="M72.54,46.31l.12-1.98-.65,.7c-.5,.55-1.02,.93-1.54,1.16-.52,.22-1.17,.33-1.93,.33-.66,0-1.22-.14-1.7-.42-.47-.28-.82-.64-1.04-1.08-.22-.44-.32-1.14-.32-2.1,0-.5,.01-1.08,.03-1.73l.03-1.77c0-1.24-.04-1.92-.1-2.06s-.3-.21-.7-.21h-.98v-.6c1-.09,1.92-.27,2.76-.55l.91-.34c.12,0,.19,.09,.19,.27l-.08,1.12c-.1,1.55-.15,2.99-.15,4.32s.05,2.18,.16,2.55,.34,.68,.69,.92c.35,.25,.78,.37,1.28,.37,.68,0,1.3-.22,1.87-.66,.57-.44,.94-.88,1.11-1.33,.09-.26,.14-1.03,.14-2.32,0-2.17-.04-3.34-.12-3.53-.07-.15-.4-.23-.99-.23h-.87v-.6c.75-.09,1.39-.19,1.92-.31,.53-.12,1.08-.29,1.67-.53,.07-.04,.14-.05,.2-.05,.12,0,.19,.07,.19,.21l-.04,1.02c-.11,2.5-.17,4.7-.17,6.61,0,1.07,.05,1.68,.17,1.83,.16,.23,.51,.34,1.04,.34h.64v.64c-.92-.05-1.69-.08-2.33-.08-.48,0-.95,.03-1.43,.08Z"/><path class="d" d="M81.04,38.19c.29-.28,.61-.64,.96-1.1,.41-.53,.79-.9,1.14-1.1,.35-.2,.72-.3,1.11-.3s.71,.05,.92,.14c.1,.04,.15,.11,.15,.21v.11c-.13,.59-.19,1.42-.21,2.49h-.49c-.17-.37-.37-.64-.6-.79-.23-.15-.51-.23-.83-.23-.43,0-.83,.15-1.2,.44-.37,.29-.61,.7-.74,1.23s-.19,1.56-.19,3.1c0,1.02,.04,1.87,.12,2.56,.03,.26,.1,.42,.22,.48,.28,.15,.69,.23,1.23,.23h.66v.64c-1.12-.05-2.18-.08-3.18-.08s-1.93,.03-2.89,.08v-.64l1.05-.09c.37-.03,.61-.1,.71-.21,.1-.11,.16-.46,.19-1.06,.05-1.05,.08-2.3,.08-3.75,0-1.76-.07-2.8-.21-3.11-.09-.2-.39-.3-.9-.3h-.92v-.64c.71-.08,1.34-.19,1.9-.31,.56-.13,1.05-.29,1.48-.49,.1-.05,.19-.08,.25-.08,.08,0,.14,.02,.17,.07,.03,.04,.04,.14,.04,.3l-.04,2.18Z"/><path class="d" d="M94.24,44.76l.3,.26-.45,.7c-.5,.27-1.01,.47-1.54,.61-.53,.13-1.06,.2-1.61,.2-1.08,0-1.99-.2-2.74-.61-.75-.41-1.33-1-1.74-1.78-.41-.78-.61-1.7-.61-2.77,0-.94,.16-1.76,.47-2.46,.31-.7,.75-1.25,1.32-1.64,.57-.4,1.27-.78,2.12-1.16,.6-.27,1.27-.41,2.01-.41,.56,0,1.05,.05,1.45,.14,.41,.09,.84,.25,1.31,.49-.18,.97-.28,1.94-.3,2.91h-.69v-.55c0-.47-.07-.8-.2-.99-.14-.19-.44-.39-.93-.58-.48-.19-1.01-.29-1.58-.29-.99,0-1.75,.3-2.28,.9s-.8,1.5-.8,2.7c0,1.54,.39,2.78,1.18,3.7,.71,.84,1.62,1.26,2.74,1.26,.44,0,.87-.05,1.29-.17,.42-.11,.85-.27,1.26-.48Z"/><path class="d" d="M99.31,37.79l1.44-1.26c.34-.31,.67-.53,.99-.65,.33-.12,.72-.18,1.18-.18,.81,0,1.52,.16,2.11,.49,.6,.33,1.01,.74,1.24,1.25s.35,1.37,.35,2.59l-.07,3.25c0,.73,.03,1.31,.09,1.73,.02,.18,.08,.31,.18,.39,.1,.09,.31,.15,.64,.18l.83,.09v.64c-.71-.05-1.4-.08-2.07-.08-.58,0-1.15,.03-1.72,.08,.13-1.84,.2-3.64,.2-5.42,0-1.19-.08-2-.22-2.43-.15-.42-.42-.76-.81-1.01-.39-.25-.88-.37-1.47-.37s-1.16,.14-1.66,.43c-.5,.29-.84,.62-1.03,1-.13,.27-.2,.91-.2,1.93v1.91c0,1.74,.04,2.7,.12,2.89,.08,.18,.37,.3,.88,.34l.96,.09v.64c-1.14-.05-2.06-.08-2.75-.08s-1.67,.03-2.84,.08v-.64l.69-.09c.43-.05,.7-.11,.81-.18,.11-.07,.18-.23,.22-.48,.05-.39,.08-1.28,.08-2.65v-7.4c0-1.95-.05-3.04-.15-3.28-.07-.16-.36-.24-.89-.24h-.76v-.67c1.13-.12,2.04-.28,2.72-.49l.9-.31c.12,0,.18,.08,.18,.23l-.03,.45-.07,1.97c-.04,.99-.05,1.76-.05,2.31v2.94Z"/><path class="d" d="M111.13,41c.04,1.44,.41,2.54,1.11,3.28s1.62,1.12,2.76,1.12c.51,0,1.02-.08,1.52-.25,.5-.17,1-.42,1.5-.76l.19,.17-.35,.92c-.61,.35-1.23,.61-1.88,.79-.64,.17-1.31,.26-1.99,.26-1.48,0-2.68-.47-3.59-1.41-.91-.94-1.37-2.21-1.37-3.82,0-1.23,.26-2.29,.77-3.19,.34-.59,.96-1.14,1.87-1.65s1.79-.76,2.64-.76c1.29,0,2.32,.38,3.08,1.14,.76,.76,1.14,1.83,1.14,3.19l-.02,.65c-.48,.12-.94,.19-1.38,.23-.78,.06-1.87,.09-3.25,.09h-2.74Zm.02-.82c1.13,.05,2.38,.08,3.75,.08,.55,0,1.08-.03,1.59-.08v-.61c0-.64-.13-1.25-.38-1.83-.16-.36-.44-.66-.84-.89-.4-.24-.87-.36-1.39-.36-.82,0-1.47,.3-1.96,.9-.49,.6-.74,1.53-.76,2.8Z"/><path class="d" d="M123.25,37.69v4.31c0,1.12,.04,1.84,.11,2.15,.07,.32,.22,.56,.44,.74,.22,.18,.51,.26,.85,.26,.21,0,.42-.04,.62-.13,.2-.08,.4-.21,.6-.38l.32,.38-1.07,1.25c-.24,.08-.46,.14-.68,.19-.22,.04-.43,.07-.64,.07-.54,0-1-.1-1.38-.29-.38-.19-.65-.45-.82-.76-.17-.31-.25-.78-.25-1.41l.04-2.12v-4.17c-.56,0-1.14,.03-1.75,.08v-.47c.63-.24,1.21-.49,1.75-.76,0-1.05-.04-2.18-.09-3.4,.85-.36,1.47-.65,1.84-.87l.29,.22c-.06,.57-.12,1.92-.19,4.05,.89,0,1.62-.01,2.18-.03l.88-.04-.12,1.13h-2.94Z"/><path class="d" d="M130.58,37.69v4.31c0,1.12,.04,1.84,.11,2.15,.07,.32,.22,.56,.44,.74,.22,.18,.51,.26,.85,.26,.21,0,.42-.04,.62-.13,.2-.08,.4-.21,.6-.38l.32,.38-1.07,1.25c-.24,.08-.46,.14-.68,.19-.22,.04-.43,.07-.64,.07-.54,0-1-.1-1.38-.29-.38-.19-.65-.45-.82-.76-.17-.31-.25-.78-.25-1.41l.04-2.12v-4.17c-.56,0-1.14,.03-1.75,.08v-.47c.63-.24,1.21-.49,1.75-.76,0-1.05-.04-2.18-.09-3.4,.85-.36,1.47-.65,1.84-.87l.29,.22c-.06,.57-.12,1.92-.19,4.05,.89,0,1.62-.01,2.18-.03l.88-.04-.12,1.13h-2.94Z"/><path class="d" d="M136.55,41c.04,1.44,.41,2.54,1.11,3.28s1.62,1.12,2.76,1.12c.51,0,1.02-.08,1.52-.25,.5-.17,1-.42,1.5-.76l.19,.17-.35,.92c-.61,.35-1.23,.61-1.88,.79-.64,.17-1.31,.26-1.99,.26-1.48,0-2.68-.47-3.59-1.41-.91-.94-1.37-2.21-1.37-3.82,0-1.23,.26-2.29,.77-3.19,.34-.59,.96-1.14,1.87-1.65s1.79-.76,2.64-.76c1.29,0,2.32,.38,3.08,1.14,.76,.76,1.14,1.83,1.14,3.19l-.02,.65c-.48,.12-.94,.19-1.38,.23-.78,.06-1.87,.09-3.25,.09h-2.74Zm.02-.82c1.13,.05,2.38,.08,3.75,.08,.55,0,1.08-.03,1.59-.08v-.61c0-.64-.13-1.25-.38-1.83-.16-.36-.44-.66-.84-.89-.4-.24-.87-.36-1.39-.36-.82,0-1.47,.3-1.96,.9-.49,.6-.74,1.53-.76,2.8Z"/></g><g><path class="d" d="M19.49,.06c.33,.45,.2,1.35,.23,1.88,.05,.98,.06,1.98,.06,2.98,0,2.12-.14,4.21-.14,6.34,0,.42-.14,1.23,.43,1.31,.44,.07,.37-.45,.37-.74,0-.52,.03-1.02,.03-1.54,0-1.64,.09-3.27,.09-4.9,0-.8,.02-1.62,.06-2.42,.03-.5,.02-.99,.2-1.46,.08-.2,.2-.36,.27-.52,.15,1.81,.09,3.64,.09,5.47s-.06,2.48-.06,3.72c0,.45-.03,.89-.03,1.34,0,.25-.06,.67,.09,.89,.18,.26,.36,.13,.53-.05,.11-.11,.15-.21,.18-.36,.14-.66,.03-1.47,.03-2.13v-3.25c0-.88,.03-1.79,.11-2.67,.11-1.13,0-2.27,.28-3.36,.05-.21,.09-.39,.18-.57,.02,0,.04-.01,.05,0,.07,.2,.06,.52,.09,.74,.08,.59,.05,1.22,.05,1.83,0,.96-.1,1.93-.06,2.9,.09,1.95-.03,3.94-.03,5.91,0,.27-.1,.79,.06,1,.13,.17,.43,.21,.59,.1,.44-.3,.21-1.8,.21-2.27v-1.74c0-.91-.11-1.79-.11-2.7s.03-1.85,.03-2.78c0-.5,.09-.98,.11-1.48,.01-.29,.09-.48,.14-.77,.03-.17,0-.35,.04-.51,.02-.1,.1-.15,.11-.25,.04,0,.09,0,.13,0,.19,.35,.15,.97,.17,1.36,.04,.89,.06,1.8,.06,2.71V13.43c0,.36,.07,.83-.03,1.17-.03,.12-.11,.22-.14,.34-.03,.11,0,.23-.05,.34-.19,.4-.56,.47-.95,.51-.59,.06-.8,.21-.72,.82,.09,.72,0,1.46-.08,2.17-.11,1.34,.03,2.71-.03,4.05-.06,2.91-.09,5.84,.17,8.75,.03,.46,.2,.86,.23,1.34,.03,.6-.03,1.2,.03,1.8,.06,.6,.14,1.2,.23,1.77,.11,.74,.09,1.51,.2,2.25,.11,.66,.31,1.28,.37,1.94,.03,.63-.09,1.28,.06,1.91,.23,1.05,.26,2.45,.03,3.56-.14,.85-1.91,3.68-2.99,2.79-1.63-1.28-1.74-3.68-1.83-5.56-.06-1.6,.14-3.14,.4-4.73,.14-.74,.43-1.45,.57-2.2,.14-.71,.09-1.4,.2-2.08,.17-1.28,.17-2.68,.43-3.96,.2-1.23,.29-2.37,.29-3.59,0-.8,.09-1.54,.09-2.34v-2.28c0-.69,.23-1.37,.28-2.05,.03-.8,.06-1.6,.03-2.37-.03-1-.57-1.54-1.2-2.22-.74-.8-.94-1.31-1-2.42-.09-2.17-.14-4.39,.11-6.53,.2-1.71-.06-3.51,.26-5.16,.03-.14,.26-1.22,.29-1.37"/><g><path d="M15.75,20.85l-.09,.27-.09,.45-.4,.34-.09,.29-.27,.07-.29,.43-.52,.11-.45,.31-.65,.07-.34,.36h-.58l-.25,.16-.31-.04c-.3,.21-.65,.35-1.06,.43l-.16-.09-.65,.47-.25-.13-.16,.11-.4-.09-.16,.09-.4,.04-.31-.07-.4,.34-.47-.2v.02s-.11,.07-.25,.11l-.13-.16c-.21,.21-.46,.31-.74,.31h-.11c-.06-.06-.1-.09-.14-.09l-.36,.4-.43,.14-.36-.21-.09-.42-.49,.18s.04-.05,.04-.07v-.07s-.02-.06-.02-.09c0-.04,.03-.07,.09-.09l-.38-.7v-.91l.11-.38-.11-.52,.2-.36-.09-.29,.07-.49c-.04-.16-.1-.34-.16-.54l-.02-.31c-.49-.25-.77-.49-.83-.72,.07-.36,.29-.64,.65-.85,.01-.01,.1-.07,.25-.16l-.16-.49,.18-.07-.09-.34,.07-.09-.13-.34,.07-.18-.02-.52-.27-.54,.04-.22-.13-.09v-.52l-.11-.18-.16-.54-.02-.02-.24,.2-.22-.16-.24,.16-.09-.11-.38,.25-.22-.34-.44,.27c-.74-.43-1.11-.82-1.11-1.15,0-.3,.16-.48,.47-.54,.15-.24,.37-.36,.65-.36h.09l.25,.11,.04-.02c.66,0,1.14,.03,1.44,.09,.25-.06,.48-.09,.67-.09l.11,.09,.16-.04,.63,.23,1.3,.16h1.01c.25,.03,.46,.09,.61,.19l.18,.08c.3,.06,.5,.08,.61,.08l.54-.09,.11,.13c.19,0,.37,.08,.52,.23l.65,.02,.27,.25c.19,.08,.36,.11,.49,.11l.45,.13,.18,.18h.52l.13,.31,.47,.29,.16,.7-.36,.65c-.33,.37-.66,.59-.99,.65l-.36,.2-.18-.05-.47,.31c-.1-.01-.19-.02-.27-.02l-.47,.16-.04-.02-.29,.38-.43,.07c-.39,.2-.78,.29-1.17,.29l-.45,.25h-.47l-.38,.21-.29,.04,.79,.23h.45l.74,.07,.85-.13,.04,.07h.45c.36,0,.59,.07,.7,.22,.1-.07,.22-.11,.36-.11,.25,.09,.43,.13,.52,.13,.1,0,.25-.04,.43-.11,.19,.1,.56,.16,1.1,.16l.2,.11c.4,.06,.73,.15,.99,.27h.36c.18,.18,.38,.27,.61,.27,.09,.09,.34,.26,.74,.52,.22,.15,.34,.31,.34,.49Zm-5.19-5.12v-.18l-.07-.02-.16-.18h-.25l-.23-.11c-.12-.03-.22-.06-.31-.09l-.25,.18-.45-.34-.38-.11-.16,.09-.43-.22h-.11c-.15,0-.4-.02-.74-.07l-.52,.07-.27-.25-.25,.04-.09-.02-.13,.11-.43-.16-.09,.04v.54l.11,.42-.11,.33,.11,.51v.47l.13,.36-.13,.38v.04h.37c.08-.03,.19-.06,.35-.09l-.02,.07,.27-.21,.04-.19h.56c.46-.11,.76-.25,.9-.4h.27l.11-.09c.24-.24,.49-.36,.76-.36h.09c.08,0,.14-.04,.2-.11l.61-.18h.07c.17-.13,.37-.22,.61-.27Zm3.21,5.39l-.07-.04-.36-.04-.09-.11h-.11l-.52-.22-.43,.04-.2-.18-.45,.05c-.09-.08-.19-.13-.29-.16-.14,.08-.26,.11-.38,.11-.11-.01-.23-.06-.36-.13-.26,0-.53-.02-.84-.07l-.77-.02c-.26-.07-.49-.11-.7-.11-.09,0-.2,.02-.34,.04l-.5,.11-.34-.22-.02,.13-.99-.09c-.14-.09-.22-.15-.25-.18-.26,0-.38,.13-.38,.38v.34l.16,.31-.16,.34,.08,.16-.04,.32,.16,.26,.06,.41-.2,.36,.02,.12,.07,.05,.04,.35,.63-.02,.38-.13,.65,.02,.16,.07s.12-.08,.23-.11l.38-.18,.63,.02,.63-.2,.54-.22,.32,.02,.54-.24,.77-.04c.38-.01,.65-.14,.83-.37h.32l.25-.11,.18-.25,.5-.13,.16-.27,.11-.13Z"/><path d="M43.35,21.93c0,.18-.1,.4-.29,.65-.24,.31-.53,.56-.88,.74-.12,.1-.25,.17-.38,.18-.27,.18-.53,.28-.79,.29-.1,.1-.28,.2-.54,.29h-.4l-.4,.31-.43-.09-.13,.02-.34,.04c-.23,.03-.41,.04-.56,.04-.03,0-.08,0-.16-.02h-.18l-.31,.11-.45,.04h-.52l-.25,.14,.07,.08c-.34,0-.61,0-.81,.02l-.11-.02-.92-.08-1.3-.06-.43-.08c-.13,.09-.29,.13-.47,.13-.21,0-.43-.07-.65-.2l-.43,.16-.22-.2c-.63-.01-1-.07-1.1-.18l-.09-.04s-.08,.02-.38,.04l-.88-.58-.4-.09c-.25-.12-.47-.33-.65-.63-.15-.25-.22-.5-.22-.74,0-.16,.08-.46,.22-.88l.45-.49,.54,.02c.12-.16,.29-.25,.52-.25,.48,0,.72,.39,.72,1.16-.31,.08-.5,.14-.56,.18-.08,.09-.19,.19-.34,.3v.07l.2,.11,.27,.28,.88-.04,.74,.22,1.17-.02,.43,.29,.2-.13c.09,0,.2,.03,.34,.09l.58,.09,.04,.14h.36c.34-.12,.54-.18,.58-.18h1.98l.49-.13,.25-.25,.85,.09c.43-.13,.78-.2,1.03-.2h.11c.1-.07,.19-.11,.27-.11,.04,0,.1,.02,.16,.04l.22-.09v-.18h.47c.1-.13,.29-.21,.56-.22,.21-.19,.38-.3,.52-.31l.18-.27c0-.14-.48-.43-1.44-.88l-.18-.14c-.31-.03-.56-.08-.74-.16-.1,0-.2,0-.29-.02h-.04c-.08,0-.37-.09-.88-.27-.17-.12-.34-.18-.52-.18-.06,0-.15,.02-.27,.04h-.45l-.07-.07c-.24-.04-.43-.11-.56-.2l-.27,.09-.7-.34h-.45l-.29-.18h-.45l-.07-.11h-.36l-.31-.36h-.16c-.46,0-.82-.09-1.08-.27l-.04-.04c-.33-.1-.57-.27-.72-.49l-.38-.36-.25-.58-.27-.36,.11-.91,.54-.62c.09-.01,.16-.11,.2-.29,.04-.02,.12-.05,.23-.11l1.15-.62h.31c.21,0,.43-.07,.65-.22h.13v.04l.22-.2h.11c.48-.18,.88-.27,1.19-.27h.11l.2,.02,.34-.2c.09-.01,.21-.02,.36-.02h.13c.1,0,.29-.01,.55-.04,.26-.03,.47-.05,.62-.07l.4-.02,.61-.31s.14,.14,.29,.34h.49c.09,0,.25,.04,.49,.11h.16c.36,0,.66,.08,.9,.23,.79,.2,1.19,.6,1.19,1.2,0,.51-.41,.82-1.24,.93l-.18-.27s-.12-.04-.24-.09c-.11-.04-.2-.07-.26-.09h-.49l-.22-.25-.36,.04-.2,.22-.54-.38-.58,.09-.7-.16c-.43,.03-.8,.12-1.1,.27l-.04,.02s-.09,.06-.15,.08c-.05,.02-.09,.03-.1,.03l-.31-.13-.63,.29-1.17,.31-.27-.07-.49,.31h-.22l-.13,.2-.47,.31,.04,.13,.25,.25,.23,.07,.36,.23,.7,.25,.34,.02,.61,.36,.18-.07c.43,.09,.73,.21,.88,.36l.07,.07h.04l.45,.27,.16-.16,.54,.07h.4l.31,.25h.16c.25,0,.48,.03,.67,.09h.23c.27,0,.57,.13,.9,.38l.27-.09,.2,.09h.38l.65,.45,.67,.07,.27,.36c.51,.31,.84,.59,1,.82,.16,.23,.24,.57,.24,1,0,.03,0,.08,.02,.13v.16Z"/><path d="M60.12,13.57l-.56,1.12-.52,.07h-.7l-.38,.04-.29-.04-1.41,.13-.4-.13-.09,.02c-.15,.06-.4,.12-.76,.18h-.81l-.18-.07h-.07c-.15,0-.37,.03-.65,.09-.22,.05-.5,.07-.83,.07l-.37-.08-.07,.29h-.27l-.07,1.06,.12,.18-.04,.34v.58c-.01,.61-.07,1.03-.19,1.24l.18,.25-.13,.65,.13,.18-.25,.36v.18l-.13,.25,.09,.49-.04,.94-.16,.43s.02,.05,.02,.11c0-.03-.02,.07-.07,.29,0,.02,0,.04,.02,.09v.11c0,.17-.06,.32-.18,.47l.09,.31c0,.1,0,.17-.02,.2l-.02,.07c-.03,.09-.04,.18-.04,.27,0,.28,.03,.52,.09,.72-.33,.06-.52,.09-.56,.09-.13,0-.25-.01-.34-.04l-.04-.02c-.39-.09-.58-.45-.58-1.08v-.31c0-.12-.01-.29-.03-.51-.02-.22-.03-.38-.03-.48,0-.15,.02-.28,.07-.38l.09-.92c-.12-.16-.18-.3-.18-.4,0-.03,.03-.09,.09-.18-.09-.12-.13-.21-.13-.27,0-.12,.04-.22,.11-.29,0-.13,.06-.32,.18-.56-.03-.12-.04-.25-.04-.38,.1,0,.16-.05,.16-.16,0-.03-.02-.08-.04-.15-.03-.07-.04-.14-.04-.21l.09,.09-.11-.2c0-.28,.04-.53,.11-.74v-.65l-.11-.47,.11-.88-.11-.65,.04-.23-.34,.02-.25,.13-.18-.02v.09c-.31,0-.62-.02-.92-.07l-.07,.18-.88-.29-1.17-.02-.74,.2c-.6-.51-.9-.88-.9-1.1,0-.13,.02-.27,.07-.4v.07l.49-.4,.43,.02,1.51,.25,.38-.13,1.15,.03,.9,.13,.58-.23,.2-.58,.9,.22h.04l.04,.06,.31,.35,.09,.02,.31-.14,.65,.14c.64-.09,1.03-.14,1.15-.14,.18,0,.37,.04,.56,.11,.04,0,.13,0,.27,.02h.56l.76-.14,.65,.1,.09,.04,.34-.14,.47,.14h2.81Z"/><path d="M75.2,24.11l-.13-.04-.2,.29-.52,.07-.45,.16-.63-.13-.11,.04-.43,.29c-.11-.09-.23-.17-.38-.22l-.4,.38-.31-.31-.13,.04s-.09-.09-.15-.13-.09-.07-.1-.09h-.96l-.16-.18c-.12-.03-.27-.07-.45-.11-.22-.06-.44-.13-.65-.2h-.27l-.2-.22h-.09c-.12,0-.25-.07-.39-.22s-.23-.23-.28-.25c-.3-.15-.61-.31-.92-.48-.31-.17-.55-.41-.72-.71-.32-.16-.55-.34-.72-.54l-.63-.49-.74-.72-.16-.07-.43-.4-.16-.02-.07,.02c-.09,.03-.18,.04-.27,.04s-.19-.02-.29-.06c-.11-.04-.18-.28-.23-.73l.2-.22c.09-.31,.24-.57,.45-.76l.63-.07v.04s.02,.09,.07,.13h.31c.02,.09,.13,.13,.36,.13s.52-.02,.9-.07v-.13c.18,.03,.45,.04,.81,.04,.48,0,.88-.04,1.21-.11l.29-.13,.5-.09,.63-.07,.09,.02,.11-.04c.12-.04,.32-.1,.61-.16l.18-.07,.2-.11h.09l.25-.18,.65-.2c.15-.08,.22-.14,.22-.18,0-.06-.04-.12-.11-.18l-.56-.49-.22-.05-.13-.09c-.09-.09-.22-.16-.38-.2h-.29l-.47-.17h-.31l-.29-.28h-.45l-.22-.02-1.28-.09-.07-.02-.09,.02-.31-.07-.2,.05-.7-.08-.74,.12-.38-.11-.36,.05-.28-.05-.35,.15-.18-.07-.34,.13h-.16c-.03,.12-.04,.21-.04,.27,0,.03,0,.06,.02,.09v.09l-.06,1.13c-.04,.14-.06,.27-.06,.41,0,.24,.08,.47,.22,.68l-.22,.32,.09,.59-.16,.59c-.09,.33-.13,.67-.13,1.02v1.04l.16,1.33,.04,.18-.2,.86v.18c0,.39-.48,.59-1.44,.59l.16-1.19-.09-.22-.27-1.15c-.04-.12-.07-.22-.07-.31,0-.12,.04-.27,.11-.45-.09-.09-.13-.19-.13-.29,0-.15,.07-.34,.2-.58-.04-.12-.07-.25-.07-.4v-.63c.15-.21,.22-.33,.22-.36s-.08-.17-.22-.43l.18-.45-.07-.38,.09-.09,.02-.22-.22-.9,.11-.4-.11-.74h-.54l-.54,.61c-.13-.21-.38-.4-.72-.55-.24-.2-.36-.41-.36-.64,0-.2,.1-.42,.31-.67l.52-.34,.81-.07h.76c.15-.34,.46-.52,.95-.52h.61l.13,.38,.38-.13,.63,.11,.85-.11,1.24,.16h1.69l.81,.11h.81l.07,.11h.22v-.07l1.48,.56,.61,.27,.47,.04,.18,.2c.67,.51,1.06,1.05,1.15,1.62l-.02,.11c-.06,.28-.19,.53-.4,.74l-.92,.92-.56,.04-.11,.04c-.24,.13-.53,.22-.88,.27l-.18,.16-.7,.18h-.11c-.15,0-.27,.03-.36,.09l-.54,.47-.47-.27-.07,.02-.25,.13-.16-.16c-.03,.08-.11,.17-.22,.27l-.43-.16-.4,.16-.11-.09-.13,.04,.07,.04,.18,.24,.84,.66,.25,.36,.22,.22,.13,.31,.52,.02,.74,.69,.34,.13,.47,.27,.45,.11,.56,.2,.31-.02,.27-.16,.11,.29,.38-.07,.07,.13,.27,.07,.76-.07,.31,.07,.99-.18,.72-.16,.11-.2h.31l.43-.52c.36,.4,.54,.72,.54,.94l.02,.11c0,.15-.36,.47-1.08,.97Z"/><path d="M90.77,18.63l-.22,.47-.09,.74-.22,.2c-.09,.6-.32,.98-.7,1.15l-.16,.07-1.35,.94-.4,.23-.65,.72-.41-.07-.25,.18-.45,.16-1.12,.58c-.09-.03-.21-.1-.36-.2-.1,.15-.27,.25-.49,.29h-.09l-.45,.36-.09-.04h-.43l-.2,.16-.85-.02-1.12,.22h-.52l-.63-.09-.11-.11-.9-.13-.38-.18h-.54v-.25l-.43-.45-.56-.25-.25-.7-.02-.52-.13-.16-.02-1.01,.29-.9v-.54l.07-.11v-.43l.31-.31v-.22l.13-.25v-.22l.09-.11-.11-.25,.36-.25,.43-.9,.92-1.33,.22-.11c.04-.07,.11-.17,.2-.29l.22-.18v-.36l.34-.07c.22-.18,.47-.31,.74-.4l.11-.13c.13-.06,.52-.14,1.17-.23l.61-.09,.72,.09h1.48l.72,.02-.04,.12,.34,.09c.09-.04,.13-.11,.13-.23,.07,.15,.24,.23,.49,.23l.18,.2h.67l1.51,.65,.18,.49,.13,.2,.4,.16,.61,.99,.36,.45c.41,.94,.61,1.51,.61,1.69v.25Zm-1.69,.13l-.11-.63,.11-.18-.16-.38s.02-.07,.02-.13c0-.04-.02-.08-.04-.11l-.4-.27-.13-.36-.18-.07-.07-.31-.56-.52-.34-.27-.13,.07c-.34-.29-.98-.53-1.91-.72-.12,0-.2,0-.22-.02h-.11l-.41-.12-.22,.12c-.23-.07-.36-.11-.41-.11-.01,0-.07,.02-.17,.06-.1,.04-.18,.06-.26,.06h-.18c-.11,.18-.35,.34-.74,.47l-.29-.04-.32,.16-.4-.04c-.27,.21-.58,.43-.94,.65l-.11,.16-.11,.49-.52,.22-.09,.11c-.09,.18-.21,.35-.36,.49v.38l-.31,.14-.07,.04-.2,.67-.31,.18c-.04,.76-.17,1.3-.38,1.6-.12,.17-.19,.39-.2,.67l-.09,.25,.07,.16,.07,.34,.27,.29,.04,.29,.22,.22c.42,.24,.79,.37,1.12,.38l.94-.25,.2,.2h.27l.04-.03,.67-.13,.72,.12c.12-.12,.26-.18,.43-.18,.34-.21,.64-.31,.88-.31l.47-.27,.36-.02,.29-.22,.7-.02c.06-.01,.13-.02,.2-.02l.04-.07c.1-.15,.26-.25,.47-.29l.27-.63,.18,.11,.18-.09,.31-.29,.11,.04,.38-.27,.68-.67,.29-.09,.13-.34,.18-.11-.04-.2,.18-.34Z"/></g></g></g></g></g></svg>