<?xml version="1.0" encoding="UTF-8"?><svg xmlns="http://www.w3.org/2000/svg" viewBox="0 0 593.37 831.98"><defs><style>.d{fill:#fff;}.e{fill:#736357;}.f{fill:#fbb03b;}</style></defs><g id="a"/><g id="b"><g id="c"><rect class="e" y="53.47" width="388.38" height="725.05"/><path class="f" d="M181.41,778.52H491.54c43.21,0,78.24-24.92,78.24-55.67V284.81c-49.33-79.1-320.57,41.03-388.38,0v493.7Z"/><path class="d" d="M201.32,225.3c9.02,0,17.39,2.74,24.33,7.44,5.17-6.61,11.99-11.87,19.85-15.15-.43-2.32-.69-4.7-.69-7.14,0-21.35,17.31-38.66,38.66-38.66s38.66,17.31,38.66,38.66c0,2.84-.33,5.61-.91,8.28,.38-.18,.76-.35,1.14-.52-.15-1.44-.23-2.91-.23-4.39,0-23.21,18.81-42.02,42.02-42.02,23.02,0,41.69,18.51,41.99,41.46,8.05-3.78,17.03-5.91,26.51-5.91,7.13,0,13.98,1.21,20.36,3.42,9.35-16.07,26.74-26.89,46.68-26.89,29.81,0,53.97,24.16,53.97,53.97,0,2.14-.14,4.25-.38,6.32,.13,0,.25-.02,.38-.02,21.93,0,39.7,17.78,39.7,39.7s-17.78,39.7-39.7,39.7c-19.91,0-36.35-14.68-39.21-33.79-4.69,1.33-9.64,2.06-14.76,2.06-2.87,0-5.68-.23-8.43-.66-8.74,23.9-31.68,40.97-58.61,40.97-9.51,0-18.51-2.14-26.58-5.94-1.84,35.24-31,63.25-66.7,63.25-36.89,0-66.8-29.91-66.8-66.8,0-3.82,.34-7.55,.95-11.19-2.95,.55-5.98,.85-9.09,.85-12.55,0-23.99-4.7-32.69-12.43-7.85,7.69-18.58,12.43-30.43,12.43-24.02,0-43.5-19.47-43.5-43.5s19.47-43.5,43.5-43.5Z"/><g><path class="d" d="M59.5,192.97V96.68h14.1v96.29h-14.1Zm8.54-47.33v-6.65h27.67v6.65h-27.67Zm4.61-3.8v-6.17h15.73c5.11,0,9.08-1.14,11.9-3.42,2.83-2.28,4.24-5.55,4.24-9.8s-1.48-7.35-4.44-9.56c-2.96-2.21-7.18-3.32-12.65-3.32h-14.51l-1.63-12.88h16.82c9.76,0,17.31,2.11,22.65,6.34,5.33,4.23,8,10.25,8,18.07,0,6.65-2.53,11.77-7.6,15.36-5.06,3.59-12.25,5.39-21.56,5.39h-16.95Zm0,51.13v-12.88h19.8c5.97,0,10.6-1.37,13.9-4.1,3.3-2.73,4.95-6.57,4.95-11.49s-1.72-8.99-5.15-11.77c-3.44-2.78-8.32-4.17-14.65-4.17h-18.58l-1.63-6.17h23.6c9.76,0,17.31,2.1,22.65,6.31,5.33,4.2,8,10.15,8,17.83,0,8.41-2.53,14.92-7.6,19.53s-12.25,6.92-21.56,6.92h-23.73Z"/><path class="d" d="M60.04,219.1v-12.88h58.59v12.88H60.04Zm0,83.41v-12.88h58.59v12.88H60.04Zm22.17,0v-96.29h14.11v96.29h-14.11Z"/><path class="d" d="M86.01,413.41c-5.47,0-10.59-.44-15.36-1.32-4.77-.88-9.19-2.2-13.26-3.97l1.76-13.7c4.97,2.13,9.78,3.74,14.41,4.85,4.63,1.11,9.14,1.66,13.53,1.66,6.33,0,11.03-1.11,14.11-3.32,3.07-2.21,4.61-5.58,4.61-10.1,0-5.74-2.94-9.94-8.82-12.61l-16.68-7.59c-6.56-2.98-11.59-6.58-15.09-10.78-3.5-4.2-5.25-9.43-5.25-15.67,0-8.41,2.53-14.92,7.59-19.53,5.06-4.61,12.23-6.92,21.5-6.92,6.46,0,12.18,.95,17.16,2.85,4.97,1.9,9.77,5,14.38,9.29l-9.49,9.63c-3.98-3.25-7.7-5.62-11.16-7.09-3.46-1.47-7.06-2.2-10.82-2.2-4.66,0-8.26,1.12-10.82,3.36-2.55,2.24-3.83,5.55-3.83,9.93,0,3.12,.84,5.66,2.51,7.63,1.67,1.97,4.14,3.72,7.39,5.26l14.11,6.65c7.14,3.35,12.57,7.12,16.28,11.32,3.71,4.21,5.56,9.61,5.56,16.21,0,8.73-2.84,15.27-8.51,19.63-5.67,4.36-14.27,6.54-25.8,6.54Z"/><path class="d" d="M54.07,438.18v-12.88H124.6v12.88H54.07Zm28.21,83.41v-96.29h14.1v96.29h-14.1Z"/><path class="d" d="M58.14,631.13v-96.29h14.1v96.29h-14.1Zm13.16-36.62v-12.88h19.94c5.38,0,9.57-1.42,12.58-4.27,3.01-2.85,4.51-6.85,4.51-12,0-5.65-1.5-10-4.51-13.05-3.01-3.05-7.2-4.58-12.58-4.58h-19.67l-1.63-12.88h21.29c9.99,0,17.71,2.53,23.16,7.6,5.45,5.06,8.17,12.25,8.17,21.56s-2.72,17.18-8.17,22.51c-5.45,5.33-13.17,8-23.16,8h-19.94Zm38.52,36.62l-21.57-45.3h14.92l22.92,45.3h-16.27Z"/><path class="d" d="M89.34,742.03c-23.69,0-35.53-16.28-35.53-48.83s11.84-50.18,35.53-50.18,35.53,16.73,35.53,50.18-11.84,48.83-35.53,48.83Zm0-12.48c14.01,0,21.02-12.12,21.02-36.35s-7.01-37.7-21.02-37.7-21.02,12.57-21.02,37.7,7.01,36.35,21.02,36.35Z"/></g><circle class="d" cx="289.25" cy="473.59" r="33.33"/><circle class="d" cx="342.23" cy="551.92" r="20.97"/></g></g></svg>