<?xml version="1.0" encoding="UTF-8"?><svg id="a" xmlns="http://www.w3.org/2000/svg" width="786.83" height="789.43" viewBox="0 0 786.83 789.43"><defs><style>.b{fill:none;}.b,.c{stroke:#000;stroke-miterlimit:10;stroke-width:3px;}.c{fill:#fff;}</style></defs><path class="c" d="M604.96,334.44c-58.46,0-82.11,126.19-28.18,141.9,6.62,1.93,11.23,6.96,11.85,13.52,.04,.42,.06,.84,.07,1.27,.92,55.58-6.38,173-7.42,216.3-.21,8.94,11.71,17.82,20.86,17.98h0c9.28,.15,20.92-7.02,20.84-16.08-.34-36.73-2.12-128.41-3.57-218.73,0-.42,.03-.83,.07-1.24,.58-6.07,4.72-10.85,10.75-12.94,49.54-17.21,33.19-141.99-25.27-141.99Z"/><path class="c" d="M238.53,480.26c2.78-32.16,24.54-130.57-23.34-145.44-6.62-2.06-11.23-7.42-11.85-14.42-.04-.44-.06-.89-.07-1.35-.92-59.25,6.38-184.44,7.42-230.61,.21-9.53-11.71-19-20.86-19.17h0c-9.28-.16-20.92,7.48-20.84,17.14,.34,39.16,2.12,136.91,3.57,233.19,0,.45-.03,.89-.07,1.32-.58,6.47-4.72,11.57-10.75,13.8-43.8,16.22-21.59,113.94-19.36,145.53"/><line class="b" x1="206.48" y1="383.88" x2="206.48" y2="480.26"/><line class="b" x1="174.09" y1="383.88" x2="174.09" y2="480.26"/><line class="b" x1="272.59" y1="331.51" x2="271.49" y2="480.26"/><path class="b" d="M371.01,333.88s-90.42,66.3-72.36,78.84c13.87,9.63,209.64-73.27,34.96,65.48"/><ellipse class="b" cx="272.04" cy="297.56" rx="9.73" ry="9.5"/><line class="b" x1="433.07" y1="285.34" x2="431.62" y2="480.36"/><line class="b" x1="397.21" y1="334.36" x2="468.59" y2="334.64"/><path class="b" d="M561.36,334.68q-103.3,0-103.3,145.76"/></svg>