<svg xmlns="http://www.w3.org/2000/svg" viewBox="0 0 128.97 53.28"><defs><style>.cls-1{fill:#3c3c3b;}.cls-2{fill:#b2b2b2;}.cls-3{fill:#a62422;}.cls-4{fill:#878787;}</style></defs><g id="Calque_2" data-name="Calque 2"><g id="Calque_1-2" data-name="Calque 1"><path class="cls-1" d="M9.48,11.49H20.82a0,0,0,0,1,0,0V36.75a5,5,0,0,1-5,5H14.52a5,5,0,0,1-5-5V11.49A0,0,0,0,1,9.48,11.49Z" transform="translate(41.79 11.49) rotate(90)"/><rect class="cls-2" x="79.45" y="3.76" width="3.3" height="95.74" transform="translate(132.73 -29.47) rotate(90)"/><path class="cls-3" d="M14.74,2.72v3a2.39,2.39,0,0,1-1.81,2.49h0a2.34,2.34,0,0,1,1.81,2.5v3.19a2.28,2.28,0,0,1-.83,1.85,3.48,3.48,0,0,1-2.26.67H1.59V14.11H4V2.33H1.59V0h10.2C13.76,0,14.74.91,14.74,2.72ZM11.12,5.46V3c0-.47-.2-.71-.6-.71H7.62V7H9.83C10.69,7,11.12,6.51,11.12,5.46Zm0,5.42c0-1-.43-1.49-1.29-1.49H7.62v4.72h2.85c.42,0,.64-.23.65-.69Z"/><path class="cls-3" d="M27.53,0V2.33H15.84V0ZM26.06,6.79v7.13a2.24,2.24,0,0,1-.85,1.85,3.49,3.49,0,0,1-2.25.67H18.79a3,3,0,0,1-2.22-.77,2.57,2.57,0,0,1-.73-1.95V6.62a2.29,2.29,0,0,1,.95-2,3.5,3.5,0,0,1,2.08-.59H23.1C25.07,4.06,26.06,5,26.06,6.79Zm-3.54,7.26V6.49c0-.48-.2-.72-.59-.72L20,5.79c-.42,0-.63.24-.63.73v7.55a.6.6,0,0,0,.68.68h1.82C22.3,14.75,22.52,14.51,22.52,14.05Z"/><path class="cls-3" d="M40.06,0V2.33H27V0ZM38.37,13.72c0,1.82-1,2.72-2.88,2.72H31.2a3.2,3.2,0,0,1-2.26-.74,2.62,2.62,0,0,1-.78-2V6.14H27V4.06h4.7v10a.61.61,0,0,0,.7.68H34.2a.58.58,0,0,0,.65-.66V6.14H33.67V4.06h4.7Z"/><path class="cls-3" d="M51.45,0V2.33H39.85V0ZM50.07,8.13H46.53V6.49c0-.48-.2-.72-.59-.72L44,5.79c-.43,0-.64.24-.64.73v7.55a.6.6,0,0,0,.68.68h1.82c.43,0,.64-.24.64-.7V12.39h3.54v1.53a2.28,2.28,0,0,1-.83,1.85,3.51,3.51,0,0,1-2.27.67H42.8a3,3,0,0,1-2.22-.77,2.57,2.57,0,0,1-.73-1.95V6.62a2.29,2.29,0,0,1,.95-2,3.5,3.5,0,0,1,2.08-.59h4.23c2,0,3,.91,3,2.73Z"/><path class="cls-3" d="M61.93,16.44H58.36V6.79a.82.82,0,0,0,0-.31c0-.05-.08-.07-.16-.07s-.65.26-1.27.79a4.91,4.91,0,0,0-1,1.19v5.72H57v2.33H51.26V14.11h1.18V2.33H51.26V0h4.59V5.82a6.07,6.07,0,0,1,1.54-1.11,5,5,0,0,1,2.3-.66,2.33,2.33,0,0,1,1.64.56,1.91,1.91,0,0,1,.6,1.48ZM63.5,0V2.33H57V0Z"/><path class="cls-3" d="M74.92,0V2.33H63.31V0ZM73.53,11.22H66.85v2.85a.61.61,0,0,0,.69.68h1.81c.43,0,.64-.24.64-.7V12.39h3.54v1.53a2.26,2.26,0,0,1-.84,1.85,3.52,3.52,0,0,1-2.26.67H66.27A3,3,0,0,1,64,15.67a2.61,2.61,0,0,1-.73-1.95V6.62a2.29,2.29,0,0,1,1-2,3.5,3.5,0,0,1,2.08-.59h4.24c2,0,3,.88,3,2.63ZM70,9.81V6.49c0-.48-.2-.72-.59-.72l-1.91,0c-.43,0-.64.24-.64.73V9.81Z"/><path class="cls-3" d="M86.47,0V2.33H74.74V0ZM85.1,10.8H81.53v-4a.82.82,0,0,0,0-.31.17.17,0,0,0-.16-.07c-.21,0-.58.27-1.1.82a5.75,5.75,0,0,0-.9,1.16v5.72h1.13v2.33H74.74V14.11h1.17v-8H74.74V4.06h4.59V5.82a5.76,5.76,0,0,1,1.4-1.08,4.22,4.22,0,0,1,2.13-.69,2.35,2.35,0,0,1,1.64.56,1.91,1.91,0,0,1,.6,1.48Z"/><path class="cls-3" d="M97.87,0V2.33H86.26V0ZM96.48,11.22H89.8v2.85a.61.61,0,0,0,.69.68H92.3c.43,0,.64-.24.64-.7V12.39h3.54v1.53a2.26,2.26,0,0,1-.84,1.85,3.52,3.52,0,0,1-2.26.67H89.22A3,3,0,0,1,87,15.67a2.61,2.61,0,0,1-.73-1.95V6.62a2.29,2.29,0,0,1,.95-2,3.5,3.5,0,0,1,2.08-.59h4.23c2,0,3,.88,3,2.63ZM92.94,9.81V6.49c0-.48-.2-.72-.59-.72l-1.91,0c-.43,0-.64.24-.64.73V9.81Z"/><path class="cls-3" d="M109.42,0V2.33H97.69V0Zm-1.37,10.8h-3.58v-4a.91.91,0,0,0,0-.31.17.17,0,0,0-.16-.07c-.21,0-.58.27-1.1.82a5.75,5.75,0,0,0-.9,1.16v5.72h1.13v2.33H97.69V14.11h1.17v-8H97.69V4.06h4.59V5.82a5.76,5.76,0,0,1,1.4-1.08,4.22,4.22,0,0,1,2.13-.69,2.35,2.35,0,0,1,1.64.56,1.91,1.91,0,0,1,.6,1.48Z"/><path class="cls-3" d="M115.94,1.22c0,.33-.29.62-.86.86a5.75,5.75,0,0,1-2.15.35,5.59,5.59,0,0,1-2.1-.35c-.57-.24-.85-.53-.85-.86s.28-.63.85-.87a5.59,5.59,0,0,1,2.1-.35,5.81,5.81,0,0,1,2.14.35Q115.94.71,115.94,1.22Zm-.08,15.22H110V14.11h1.17v-8H110V4.06h5.82V6.14h-1.13v8h1.13Z"/><path class="cls-3" d="M128.55,0V2.33H116.94V0Zm-1.39,11.22h-6.68v2.85a.6.6,0,0,0,.68.68H123c.42,0,.64-.24.64-.7V12.39h3.54v1.53a2.27,2.27,0,0,1-.85,1.85,3.5,3.5,0,0,1-2.26.67h-4.16a3,3,0,0,1-2.22-.77,2.57,2.57,0,0,1-.73-1.95V6.62a2.29,2.29,0,0,1,1-2A3.48,3.48,0,0,1,120,4.06h4.23c2,0,3,.88,3,2.63Zm-3.54-1.41V6.49c0-.48-.2-.72-.59-.72l-1.92,0c-.42,0-.63.24-.63.73V9.81Z"/><path class="cls-4" d="M70.69,33.75H68.77q-.6,0-.6.72v7.59a.58.58,0,0,0,.65.66h1.82a.6.6,0,0,0,.68-.67V34.48C71.32,34,71.11,33.75,70.69,33.75Z"/><path class="cls-4" d="M58.36,33.74H56.44c-.42,0-.63.24-.63.73v3.3H59V34.46C59,34,58.75,33.74,58.36,33.74Z"/><path class="cls-4" d="M82.2,33.74H80.28c-.42,0-.63.24-.63.73v3.3h3.14V34.46C82.79,34,82.59,33.74,82.2,33.74Z"/><path class="cls-4" d="M124,21H33.23V53.28H129V26A5,5,0,0,0,124,21ZM69.33,28H99.27v2.33H69.33ZM57.74,28h1.62l-1.11,2.67H56.63ZM51.41,44.4H43.85V42.07H45.6V37.34H41.43v4.73h1.74V44.4H35.61V42.07h2.17V30.29H35.61V28h7.56v2.33H41.43V35H45.6V30.29H43.85V28H56.49l-1,2.33h-6.3V42.07h2.17Zm11.08-5.22H55.81V42a.6.6,0,0,0,.68.67h1.82c.42,0,.64-.23.64-.7V40.35h3.54v1.53a2.26,2.26,0,0,1-.85,1.85,3.49,3.49,0,0,1-2.25.67H55.22A3,3,0,0,1,53,43.64a2.61,2.61,0,0,1-.73-2v-7.1a2.29,2.29,0,0,1,.95-2A3.5,3.5,0,0,1,55.3,32h4.23c2,0,3,.87,3,2.62Zm12.37,2.5c0,1.82-1,2.72-3,2.72H63.65V42.07h1V30.29h-5L60.61,28h7.56V32h3.67c2,0,3,.85,3,2.55Zm11.47-2.5H79.65V42a.6.6,0,0,0,.68.67h1.82c.42,0,.64-.23.64-.7V40.35h3.54v1.53a2.23,2.23,0,0,1-.85,1.85,3.49,3.49,0,0,1-2.25.67H79.06a3,3,0,0,1-2.22-.76,2.61,2.61,0,0,1-.73-2v-7.1a2.29,2.29,0,0,1,1-2A3.5,3.5,0,0,1,79.14,32h4.23c2,0,3,.87,3,2.62Zm11.57-.42H94.32v-4a1,1,0,0,0,0-.31.17.17,0,0,0-.16-.07c-.22,0-.58.27-1.1.82a6.19,6.19,0,0,0-.91,1.16v5.72h1.14V44.4H87.53V42.07h1.18v-8H87.53V32h4.59v1.75a6,6,0,0,1,1.41-1.08A4.21,4.21,0,0,1,95.65,32a2.33,2.33,0,0,1,1.64.56,1.89,1.89,0,0,1,.61,1.48Zm11-4.66h-5v7.33c0,.44.23.65.69.65h.18q.6,0,.6-.69V40.16h3.53v1.72a2.27,2.27,0,0,1-.83,1.85,3.5,3.5,0,0,1-2.26.67h-2.5c-2,0-2.93-.9-2.93-2.72V34.1H99.2V32h1.14V28h3.56V32h5Zm1.29-3.81h-4.82V28h4.82Zm6.71,2a4,4,0,1,1,4-4A4,4,0,0,1,116.9,32.31Z"/><rect class="cls-2" x="79.45" y="3.76" width="3.3" height="95.74" transform="translate(132.73 -29.47) rotate(90)"/></g></g></svg>