<svg xmlns="http://www.w3.org/2000/svg" viewBox="0 0 392 314.54"><defs><style>.cls-1{fill:#3f1111;}</style></defs><g id="Calque_2" data-name="Calque 2"><g id="Calque_1-2" data-name="Calque 1"><path class="cls-1" d="M18,16.68c-8.54,4.57-17,12-18,25,1,43,83,66,101,65-11,0-41,30-34,48,6.13,7.17,41,1,53-27-7,24,15,45,15,45s4,33.82,15,46c-1.92,6.75-2,14,0,19,4,14,24,26,46,25v-205c-10.05-6.76-22-9-35-9-11,0-38,6-40,18-10,2-86.86-2.68-102-25C10,28.34,18,16.68,18,16.68Z"/><path class="cls-1" d="M374,16.68c8.54,4.57,17,12,18,25-1,43-83,66-101,65,11,0,41,30,34,48-6.13,7.17-41,1-53-27,7,24-15,45-15,45s-4,33.82-15,46c1.92,6.75,2,14,0,19-4,14-24,26-46,25v-205c10.05-6.76,22-9,35-9,11,0,38,6,40,18,10,2,86.86-2.68,102-25C382.05,28.34,374,16.68,374,16.68Z"/><path d="M120.5,35.89q0,2.52-2.88,4.32a13,13,0,0,1-7,1.8H99.16V40.93h2V1.08h-2V0h11.47a13,13,0,0,1,7,1.8q2.88,1.8,2.88,4.32v8.12q0,3.93-5.73,5.56c3.82,1.18,5.73,3,5.73,5.6Zm-6.58-19V3.49a2.06,2.06,0,0,0-1-1.7,3.84,3.84,0,0,0-2.33-.71h-2.85v18.2h2.85a3.84,3.84,0,0,0,2.33-.71A2,2,0,0,0,113.92,16.88Zm0,21.65V22.76a2.07,2.07,0,0,0-1-1.7,3.9,3.9,0,0,0-2.33-.7h-2.85V40.93h2.85a3.84,3.84,0,0,0,2.33-.71A2,2,0,0,0,113.92,38.53Z"/><path d="M143.62,36.18A5.16,5.16,0,0,1,141,40.53a13.38,13.38,0,0,1-13.3,0A5.14,5.14,0,0,1,125,36.18V16.64a5.14,5.14,0,0,1,2.65-4.35,13.38,13.38,0,0,1,13.3,0,5.16,5.16,0,0,1,2.63,4.35Zm-6.42,2.64V14q0-2.4-2.85-2.4c-1.93,0-2.89.8-2.89,2.4V38.82c0,1.6,1,2.4,2.89,2.4S137.2,40.42,137.2,38.82Z"/><path d="M168.33,42h-8.46v-.85a8.8,8.8,0,0,1-4.74,1.14q-7,0-7-5.5V11.89h-2.05V10.81h8.47v28c0,1.52.8,2.28,2.41,2.28a4.94,4.94,0,0,0,2.93-1V11.89h-2.05V10.81h8.47V40.93h2Z"/><path d="M189.64,36.18A5.16,5.16,0,0,1,187,40.53a11.62,11.62,0,0,1-6.64,1.77,11.76,11.76,0,0,1-6.66-1.77,5.14,5.14,0,0,1-2.65-4.35V16.64a5.14,5.14,0,0,1,2.65-4.35,11.76,11.76,0,0,1,6.66-1.77A11.62,11.62,0,0,1,187,12.29a5.16,5.16,0,0,1,2.63,4.35v3.72h-6.42V14q0-2.4-2.85-2.4c-1.92,0-2.89.8-2.89,2.4V38.82c0,1.6,1,2.4,2.89,2.4s2.85-.8,2.85-2.4V32.46h6.42Z"/><path d="M214.36,42h-8.47V14q0-2.28-2.37-2.28a5,5,0,0,0-3,1V40.93h2.09V42H192.09V40.93h2.08V1.08h-2.08V0h8.46V11.66a8.88,8.88,0,0,1,4.78-1.14q7,0,7,5.51v24.9h2.05Z"/><path d="M235.42,36.18a5.15,5.15,0,0,1-2.62,4.35,13.4,13.4,0,0,1-13.31,0,5.15,5.15,0,0,1-2.64-4.35V16.64a5.15,5.15,0,0,1,2.64-4.35,13.4,13.4,0,0,1,13.31,0,5.15,5.15,0,0,1,2.62,4.35V26.89H223.27V38.82q0,2.4,2.88,2.4t2.85-2.4V32.46h6.42ZM229,25.81V14q0-2.4-2.85-2.4T223.27,14V25.81Z"/><path d="M257.69,20.36h-6.42V14c0-1.52-.65-2.28-2-2.28a4.11,4.11,0,0,0-2.57,1V40.93h2.09V42H238.27V40.93h2.09v-29h-2.09V10.81h8.47v.85a8.32,8.32,0,0,1,4.53-1.14c4.28,0,6.42,1.83,6.42,5.51Z"/><path d="M270.53,42H260V40.93h2.05v-29H260V10.81h8.47V40.93h2Zm-2-34.8h-6.42V0h6.42Z"/><path d="M292,36.18a5.16,5.16,0,0,1-2.63,4.35,11.62,11.62,0,0,1-6.64,1.77,11.76,11.76,0,0,1-6.66-1.77,5.14,5.14,0,0,1-2.65-4.35V16.64a5.14,5.14,0,0,1,2.65-4.35,11.76,11.76,0,0,1,6.66-1.77,11.62,11.62,0,0,1,6.64,1.77A5.16,5.16,0,0,1,292,16.64V26.89H279.88V38.82c0,1.6,1,2.4,2.89,2.4s2.85-.8,2.85-2.4V32.46H292Zm-6.42-10.37V14q0-2.4-2.85-2.4c-1.93,0-2.89.8-2.89,2.4V25.81Z"/><path d="M146.27,314.25H125.13v-1.09h2.16V273.32h-2.16v-1.08h11.22v1.08H134.2v39.84h5.19V301.65h6.88Z"/><path d="M170.4,314.25h-8.91v-.85a9.29,9.29,0,0,1-4.85,1.14q-7.17,0-7.17-5.51v-6.91q0-5.81,10-5.8h2.06V286.24c0-1.6-.84-2.4-2.53-2.4a2.15,2.15,0,0,0-2.48,2.4v6.36h-6.75v-3.72a5.12,5.12,0,0,1,2.51-4.46,14.42,14.42,0,0,1,13.47,0,5.14,5.14,0,0,1,2.49,4.46v24.28h2.2Zm-8.91-1.94V297.4h-2c-2.19,0-3.29.79-3.29,2.37v11.28a2,2,0,0,0,2.32,2.29A5.08,5.08,0,0,0,161.49,312.31Z"/><path d="M192.92,308.42q0,2.55-2.85,4.33a14.92,14.92,0,0,1-14.17,0q-2.85-1.78-2.85-4.33v-6.77H180v9.4c0,1.61,1,2.41,3,2.41s3-.8,3-2.41v-7.29a7.54,7.54,0,0,0-2.06-5.24l-8.65-9.35a7.8,7.8,0,0,1-2.24-5.39v-5.71q0-2.55,2.85-4.34a14.92,14.92,0,0,1,14.17,0q2.85,1.78,2.85,4.34v6.76H186v-9.4c0-1.6-1-2.4-3-2.4s-3,.8-3,2.4v7a7.51,7.51,0,0,0,2.07,5.22l8.64,9.34a7.83,7.83,0,0,1,2.24,5.42Z"/><path d="M218,314.25h-8.9v-.85a9.31,9.31,0,0,1-4.85,1.14q-7.17,0-7.17-5.51v-6.91q0-5.81,10-5.8h2.07V286.24c0-1.6-.85-2.4-2.53-2.4s-2.49.8-2.49,2.4v6.36h-6.75v-3.72a5.14,5.14,0,0,1,2.51-4.46,14.44,14.44,0,0,1,13.48,0,5.14,5.14,0,0,1,2.49,4.46v24.28H218Zm-8.9-1.94V297.4h-2c-2.2,0-3.29.79-3.29,2.37v11.28a2,2,0,0,0,2.32,2.29A5.13,5.13,0,0,0,209.12,312.31Z"/><path d="M230.46,314.25H219.41v-1.09h2.15V273.32h-2.15v-1.08h8.86v40.92h2.19Z"/><path d="M243.41,314.25h-11v-1.09h2.15V273.32h-2.15v-1.08h8.86v40.92h2.19Z"/><path d="M266,308.42q0,2.58-2.76,4.35a14.69,14.69,0,0,1-14,0q-2.79-1.77-2.79-4.35V288.88q0-2.58,2.79-4.35a14.61,14.61,0,0,1,14,0q2.76,1.77,2.76,4.35v10.25H253.24v11.92c0,1.61,1,2.41,3,2.41s3-.8,3-2.41V304.7H266Zm-6.75-10.37V286.24c0-1.6-1-2.4-3-2.4s-3,.8-3,2.4v11.81Z"/></g></g></svg>