<?xml version="1.0" encoding="UTF-8"?><svg xmlns="http://www.w3.org/2000/svg" viewBox="0 0 358.7 298.39"><defs><style>.d{fill:#fff;}</style></defs><g id="a"/><g id="b"><g id="c"><g><path d="M4.69,1.93V187.23h-1.71s-9.38,96.38,5.12,97.86c39.25,3.99,18.77-6.25,8.53-16.49s0-64.02,0-64.02v-17.45l35.84,1.02s54.61-63.77-8.53-91.84c0,0,78.5-112.24-39.25-94.39Z"/><ellipse class="d" cx="11.52" cy="13.76" rx="3.41" ry="5.1"/><path class="d" d="M21.76,17.28c0,15.06,0,46.4,0,66.04,0,7.04,4.47,10.82,7.36,6.23,14.51-23.02,41.73-74.77-2.58-80.47-2.58-.33-4.77,3.43-4.77,8.2Z"/><path class="d" d="M21.76,122.79v42.37c0,4.95,1.97,8.89,4.3,8.52,7.87-1.22,23.87-6.69,24.68-30.86,.83-24.66-16.68-28.24-24.87-28.58-2.26-.09-4.11,3.75-4.11,8.54Z"/><path d="M75.08,169.65c0-4.32,1.6-8.17,4.8-11.56,3.89-4.11,8.55-6.16,13.96-6.16s10.05,2.05,13.92,6.16c3.2,3.41,4.8,7.28,4.8,11.6s-1.52,8.07-4.56,11.4c-3.73,4.11-8.45,6.16-14.16,6.16s-10.44-2.05-14.2-6.16c-1.47-1.6-2.59-3.39-3.38-5.36s-1.18-4-1.18-6.08Zm7.28-.46c0,4.63,1.04,8.56,3.12,11.79,2.35,3.6,5.21,5.39,8.6,5.39,1.44,0,2.84-.4,4.2-1.2s2.53-1.92,3.52-3.36c1.04-1.49,1.88-3.36,2.52-5.61,.64-2.25,.96-4.43,.96-6.53s-.34-4.39-1.02-6.61-1.59-4.13-2.74-5.73c-2.19-3.01-4.87-4.51-8.04-4.51s-5.61,1.58-7.8,4.75c-2.21,3.17-3.32,7.04-3.32,11.62Z"/><path d="M145.73,187.25c-.35-1.62-.52-3.29-.52-4.99-3.33,3.33-7.28,4.99-11.84,4.99-3.33,0-6.01-.81-8.04-2.44-1.97-1.6-2.96-3.86-2.96-6.79v-13.9l-.04-3.04c0-1.81-.11-3.13-.32-3.95-.21-.82-.61-1.53-1.2-2.12-.77-.72-2.16-1.25-4.16-1.6v-.88h11.76v20.28c0,2.85,.1,4.97,.3,6.34,.2,1.37,.56,2.5,1.1,3.38,.58,.91,1.42,1.62,2.51,2.14,1.09,.52,2.31,.78,3.67,.78,1.49,0,2.89-.29,4.19-.88,1.3-.59,2.33-1.38,3.07-2.4,.77-1.04,1.28-2.24,1.54-3.6s.38-3.59,.38-6.71v-7.83l-.04-2.96c0-1.81-.1-3.13-.3-3.95-.2-.82-.61-1.53-1.22-2.12-.75-.72-2.13-1.25-4.16-1.6v-.88h11.76v21.69c0,2.74,.07,4.67,.22,5.77s.43,2,.86,2.7c.48,.74,1.04,1.28,1.68,1.62,.64,.33,1.56,.54,2.76,.62v.84l-11,1.48Z"/><path d="M189.58,178.97l.8,.28c-.93,2.83-2.36,4.87-4.28,6.12s-4.56,1.88-7.92,1.88c-5.39,0-9.61-1.6-12.68-4.8-2.99-3.15-4.48-7.12-4.48-11.92,0-2.35,.41-4.67,1.24-6.96s1.96-4.25,3.4-5.88c1.63-1.87,3.62-3.29,5.98-4.28s4.94-1.48,7.74-1.48c3.87,0,6.89,.87,9.08,2.6,1.33,1.07,2,2.24,2,3.52,0,.85-.28,1.57-.84,2.14s-1.24,.86-2.04,.86c-1.73,0-3.01-1.27-3.84-3.8-.37-1.17-.67-1.97-.9-2.4-.23-.43-.55-.8-.98-1.12-.82-.61-1.84-.92-3.03-.92-1.57,0-3.02,.44-4.35,1.32-1.17,.77-2.16,1.74-2.97,2.9-.81,1.16-1.52,2.62-2.13,4.38-.93,2.69-1.4,5.33-1.4,7.92,0,2.37,.43,4.69,1.28,6.96,.85,2.27,2.01,4.16,3.47,5.68,2.29,2.4,4.98,3.6,8.06,3.6,2.55,0,4.67-.81,6.35-2.44,.85-.85,1.66-2.24,2.44-4.16Z"/><path d="M206.52,130.34v27.39c.93-1.14,1.76-2.04,2.48-2.68,.72-.64,1.59-1.2,2.6-1.68,1.95-.96,4.16-1.44,6.64-1.44,3.15,0,5.75,.63,7.8,1.88,1.47,.93,2.47,2.07,3.02,3.42s.82,3.36,.82,6.05v11.67l.04,3.04c0,1.81,.11,3.13,.32,3.97,.21,.84,.63,1.54,1.24,2.1,.75,.72,2.12,1.26,4.12,1.64v.84h-17.66v-.84c1.41-.19,2.41-.41,3.01-.68,.6-.27,1.14-.72,1.62-1.36,.48-.67,.81-1.57,1-2.72,.19-1.14,.28-2.84,.28-5.07v-12.66c0-1.92-.15-3.43-.44-4.55-.29-1.12-.78-2.09-1.48-2.92-1.36-1.57-3.27-2.36-5.75-2.36-6.44,0-9.66,5.09-9.66,15.26v6.39l.04,2.96c0,1.81,.11,3.14,.32,3.97s.62,1.54,1.24,2.1c.74,.72,2.11,1.26,4.11,1.64v.84h-17.66v-.84c1.6-.21,2.75-.51,3.44-.9s1.25-1.04,1.68-1.98c.29-.61,.5-1.54,.62-2.78s.18-3.03,.18-5.37v-31.35c0-2.71-.07-4.63-.2-5.75s-.43-2.02-.88-2.72c-.45-.74-1-1.28-1.64-1.6-.64-.32-1.56-.52-2.76-.6v-.88l11.52-1.44Z"/><path d="M246.78,164.77c-.11,1.31-.16,2.25-.16,2.84,0,2.32,.34,4.59,1.02,6.8,.68,2.21,1.6,4.05,2.77,5.52,1.2,1.49,2.68,2.67,4.44,3.52s3.62,1.28,5.56,1.28c1.43,0,2.8-.24,4.08-.72,1.29-.48,2.36-1.15,3.21-2,.96-.93,1.78-2.43,2.47-4.48l.84,.28c-.69,3.12-2.18,5.47-4.46,7.06s-5.31,2.38-9.1,2.38c-3.28,0-6.09-.52-8.44-1.56s-4.33-2.64-5.96-4.8c-2.27-3.01-3.4-6.72-3.4-11.12,0-6,2.15-10.71,6.44-14.12,3.12-2.48,6.68-3.72,10.68-3.72,2.13,0,4.11,.38,5.92,1.14s3.35,1.86,4.6,3.3c1.95,2.24,2.92,5.04,2.92,8.4h-23.44Zm17.44-1.56c-.19-2.67-.68-4.72-1.47-6.16-.72-1.31-1.67-2.34-2.87-3.1-1.19-.76-2.47-1.14-3.82-1.14-2.28,0-4.28,.99-5.99,2.96-1.71,1.97-2.73,4.45-3.05,7.44h17.2Z"/><path d="M287.47,158.09c.96-1.68,2.04-2.94,3.24-3.8,2.21-1.57,4.73-2.36,7.56-2.36,1.73,0,3.05,.39,3.96,1.16,.83,.69,1.24,1.54,1.24,2.56,0,.75-.25,1.36-.74,1.84-.49,.48-1.13,.72-1.9,.72-.91,0-1.69-.37-2.36-1.12l-1.24-1.36c-.99-1.04-2.15-1.56-3.48-1.56-1.81,0-3.23,1.17-4.24,3.51-1.01,2.34-1.52,5.61-1.52,9.79v7.47l.04,3.04c0,1.81,.11,3.14,.32,3.97s.63,1.54,1.24,2.1c.75,.72,2.12,1.26,4.12,1.64v.84h-17.68v-.84c1.6-.21,2.75-.51,3.44-.89s1.25-1.04,1.68-1.97c.29-.61,.5-1.53,.62-2.77,.12-1.23,.18-3.02,.18-5.35v-9.83c0-2.73-.07-4.65-.2-5.75s-.43-2-.88-2.69c-.45-.74-1-1.28-1.64-1.61s-1.56-.54-2.76-.62v-.84l10.31-1.44c.46,2.39,.69,4.44,.69,6.15Z"/><path d="M305.77,153.37l11.52-1.44v23.04l.04,3.03c0,1.81,.11,3.13,.32,3.97s.63,1.53,1.24,2.09c.75,.72,2.12,1.26,4.12,1.63v.84h-17.68v-.84c1.6-.21,2.75-.51,3.44-.89s1.25-1.04,1.68-1.97c.29-.61,.5-1.53,.62-2.77,.12-1.23,.18-3.02,.18-5.35v-9.83c0-2.73-.07-4.65-.2-5.75s-.43-2-.88-2.69c-.45-.74-1-1.28-1.64-1.61s-1.56-.54-2.76-.62v-.84Zm8.34-15.8c-1.05,0-1.91-.33-2.59-1-.68-.67-1.03-1.51-1.03-2.52s.35-1.82,1.05-2.5c.7-.68,1.55-1.02,2.57-1.02s1.88,.34,2.57,1.02,1.05,1.51,1.05,2.5-.34,1.85-1.03,2.52c-.68,.67-1.55,1-2.59,1Z"/><path d="M334.46,164.77c-.11,1.31-.16,2.25-.16,2.84,0,2.32,.34,4.59,1.02,6.8,.68,2.21,1.6,4.05,2.77,5.52,1.2,1.49,2.68,2.67,4.44,3.52s3.62,1.28,5.56,1.28c1.43,0,2.8-.24,4.08-.72,1.29-.48,2.36-1.15,3.21-2,.96-.93,1.78-2.43,2.47-4.48l.84,.28c-.69,3.12-2.18,5.47-4.46,7.06s-5.31,2.38-9.1,2.38c-3.28,0-6.09-.52-8.44-1.56s-4.33-2.64-5.96-4.8c-2.27-3.01-3.4-6.72-3.4-11.12,0-6,2.15-10.71,6.44-14.12,3.12-2.48,6.68-3.72,10.68-3.72,2.13,0,4.11,.38,5.92,1.14s3.35,1.86,4.6,3.3c1.95,2.24,2.92,5.04,2.92,8.4h-23.44Zm17.44-1.56c-.19-2.67-.68-4.72-1.47-6.16-.72-1.31-1.67-2.34-2.87-3.1-1.19-.76-2.47-1.14-3.82-1.14-2.28,0-4.28,.99-5.99,2.96-1.71,1.97-2.73,4.45-3.05,7.44h17.2Z"/><path d="M73.78,279.24l.68,.4c-.96,2.8-3.16,4.2-6.6,4.2-1.9,0-3.47-.47-4.73-1.4-.83-.61-1.68-1.68-2.56-3.2-1.79,1.6-3.14,2.65-4.05,3.16-1.74,.96-3.75,1.44-6.05,1.44-2.94,0-5.27-.71-6.99-2.12-1.72-1.41-2.58-3.32-2.58-5.72,0-2.21,.71-4.07,2.12-5.56,.8-.83,1.72-1.49,2.76-1.98s2.55-.99,4.52-1.5c2.32-.59,4.03-1.08,5.14-1.48s2.03-.88,2.78-1.44c.85-.61,1.44-1.33,1.76-2.16s.48-1.97,.48-3.44c0-3.12-.59-5.4-1.76-6.84-.53-.67-1.22-1.2-2.06-1.6s-1.71-.6-2.62-.6c-1.09,0-2.07,.28-2.92,.84s-1.49,1.33-1.92,2.32l-1,2.32c-.53,1.25-1.49,1.88-2.88,1.88-.91,0-1.67-.3-2.28-.9s-.92-1.35-.92-2.26c0-1.36,.96-2.51,2.88-3.44,1.04-.48,2.33-.87,3.87-1.18,1.53-.31,3.04-.46,4.51-.46,1.66,0,3.38,.21,5.17,.64s3.28,.97,4.49,1.64c1.74,.99,2.82,2.27,3.24,3.84,.21,.8,.32,2.15,.32,4.04v14.8c0,2.51,.11,4.21,.32,5.12,.45,1.89,1.55,2.84,3.28,2.84,.83,0,1.47-.15,1.94-.44s1.02-.88,1.66-1.76Zm-13.24-15.76c-1.44,1.2-3.02,2.25-4.74,3.16-1.94,1.04-3.28,1.83-4.03,2.36s-1.42,1.17-2.03,1.92c-1.25,1.55-1.87,3.35-1.87,5.4,0,1.76,.48,3.21,1.45,4.36s2.2,1.72,3.69,1.72c1.3,0,2.53-.41,3.69-1.22,1.16-.81,2.03-1.9,2.61-3.26,.82-1.79,1.24-4.37,1.24-7.76v-6.68Z"/><path d="M87.56,279.76l.04,7.34v2.75c0,1.81,.11,3.13,.32,3.97s.63,1.55,1.24,2.13c.75,.72,2.12,1.25,4.12,1.6v.84h-17.68v-.84c1.6-.21,2.75-.51,3.44-.88s1.25-1.02,1.68-1.96c.29-.61,.5-1.55,.62-2.8,.12-1.25,.18-3.04,.18-5.35v-27.61c0-3.01-.47-5.16-1.42-6.43s-2.54-1.92-4.78-1.92v-1l11.68-1.64c.29,1.28,.44,2.45,.44,3.52v.76c1.97-1.33,3.82-2.29,5.55-2.86s3.61-.86,5.63-.86c4.05,0,7.51,1.21,10.38,3.64,1.81,1.55,3.21,3.48,4.19,5.8s1.48,4.88,1.48,7.68-.53,5.61-1.58,8.12-2.55,4.57-4.49,6.2c-3.03,2.59-6.64,3.88-10.82,3.88-2,0-3.72-.29-5.17-.88s-3.14-1.65-5.05-3.2Zm0-13.28c0,3.68,.16,6.45,.48,8.32,.32,1.87,.89,3.37,1.71,4.52,.74,1.01,1.72,1.83,2.93,2.44,1.21,.61,2.44,.92,3.69,.92,2.81,0,5.27-1.33,7.37-4,1.27-1.6,2.26-3.49,2.95-5.68,.69-2.19,1.04-4.47,1.04-6.84s-.33-4.54-.98-6.74-1.56-4.09-2.73-5.66c-1.99-2.72-4.42-4.08-7.29-4.08-1.41,0-2.74,.35-3.98,1.04s-2.24,1.64-2.99,2.84c-.82,1.28-1.39,2.87-1.71,4.78-.32,1.91-.48,4.62-.48,8.14Z"/><path d="M120.42,266.24c0-4.32,1.6-8.17,4.8-11.56,3.89-4.11,8.55-6.16,13.96-6.16s10.05,2.05,13.92,6.16c3.2,3.41,4.8,7.28,4.8,11.6s-1.52,8.07-4.56,11.4c-3.73,4.11-8.45,6.16-14.16,6.16s-10.44-2.05-14.2-6.16c-1.47-1.6-2.59-3.39-3.38-5.36s-1.18-4-1.18-6.08Zm7.28-.46c0,4.63,1.04,8.56,3.12,11.79,2.35,3.6,5.21,5.39,8.6,5.39,1.44,0,2.84-.4,4.2-1.2s2.53-1.92,3.52-3.36c1.04-1.49,1.88-3.36,2.52-5.61,.64-2.25,.96-4.43,.96-6.53s-.34-4.39-1.02-6.61-1.59-4.13-2.74-5.73c-2.19-3.01-4.87-4.51-8.04-4.51s-5.61,1.58-7.8,4.75c-2.21,3.17-3.32,7.04-3.32,11.62Z"/><path d="M162.71,249.96l11.52-1.44v23.04l.04,3.03c0,1.81,.11,3.13,.32,3.97s.63,1.53,1.24,2.09c.75,.72,2.12,1.26,4.12,1.63v.84h-17.68v-.84c1.6-.21,2.75-.51,3.44-.89s1.25-1.04,1.68-1.97c.29-.61,.5-1.53,.62-2.77,.12-1.23,.18-3.02,.18-5.35v-9.83c0-2.73-.07-4.65-.2-5.75s-.43-2-.88-2.69c-.45-.74-1-1.28-1.64-1.61s-1.56-.54-2.76-.62v-.84Zm8.34-15.8c-1.05,0-1.91-.33-2.59-1-.68-.67-1.03-1.51-1.03-2.52s.35-1.82,1.05-2.5c.7-.68,1.55-1.02,2.57-1.02s1.88,.34,2.57,1.02,1.05,1.51,1.05,2.5-.34,1.85-1.03,2.52c-.68,.67-1.55,1-2.59,1Z"/><path d="M194.32,248.52c.37,1.55,.56,3,.56,4.34v.64c3.31-3.32,7.24-4.99,11.8-4.99,3.41,0,6.16,.8,8.24,2.4,2.05,1.57,3.08,3.81,3.08,6.71v16.94c0,1.81,.11,3.13,.32,3.97,.21,.84,.63,1.54,1.24,2.1,.75,.72,2.12,1.26,4.12,1.64v.84h-17.68v-.84c1.6-.21,2.75-.51,3.44-.9,.69-.39,1.25-1.04,1.68-1.98,.29-.61,.5-1.54,.62-2.78,.12-1.24,.18-3.01,.18-5.33v-8.47c0-2.9-.1-5.03-.3-6.39-.2-1.36-.58-2.45-1.14-3.28-.61-.93-1.49-1.66-2.63-2.18-1.14-.52-2.41-.78-3.79-.78-1.49,0-2.88,.29-4.17,.88-1.29,.59-2.31,1.38-3.05,2.4-.8,1.07-1.32,2.27-1.58,3.62-.25,1.34-.38,3.57-.38,6.69v7.83l.04,2.96c0,1.81,.11,3.14,.32,3.97s.63,1.54,1.24,2.1c.75,.72,2.12,1.26,4.12,1.64v.84h-17.68v-.84c1.6-.21,2.75-.51,3.44-.89s1.25-1.04,1.68-1.97c.29-.61,.5-1.53,.62-2.77,.12-1.23,.18-3.02,.18-5.35v-9.83c0-2.73-.07-4.65-.2-5.75s-.43-2-.88-2.69c-.45-.74-1-1.28-1.64-1.61s-1.56-.54-2.76-.62v-.84l10.96-1.44Z"/><path d="M236.74,249.12h10.16v1.52h-10.16v23.28c0,2.8,.48,4.8,1.44,6,.5,.67,1.17,1.19,1.99,1.56,.82,.37,1.71,.56,2.67,.56,1.2,0,2.19-.25,2.99-.74s1.67-1.39,2.63-2.7l.6,.52c-.88,1.6-2.11,2.79-3.7,3.56s-3.57,1.16-5.94,1.16c-3.15,0-5.44-.61-6.88-1.84-.77-.64-1.28-1.41-1.52-2.3s-.36-2.5-.36-4.82v-24.24h-4.28v-.64c1.73-.56,3.33-1.64,4.8-3.24,.88-.99,1.6-1.97,2.13-2.94s1.05-2.23,1.53-3.78l.4-1.32h1.49v10.4Z"/><path d="M256.92,261.36c-.11,1.31-.16,2.25-.16,2.84,0,2.32,.34,4.59,1.02,6.8,.68,2.21,1.6,4.05,2.77,5.52,1.2,1.49,2.68,2.67,4.44,3.52s3.62,1.28,5.56,1.28c1.43,0,2.8-.24,4.08-.72,1.29-.48,2.36-1.15,3.21-2,.96-.93,1.78-2.43,2.47-4.48l.84,.28c-.69,3.12-2.18,5.47-4.46,7.06s-5.31,2.38-9.1,2.38c-3.28,0-6.09-.52-8.44-1.56s-4.33-2.64-5.96-4.8c-2.27-3.01-3.4-6.72-3.4-11.12,0-6,2.15-10.71,6.44-14.12,3.12-2.48,6.68-3.72,10.68-3.72,2.13,0,4.11,.38,5.92,1.14s3.35,1.86,4.6,3.3c1.95,2.24,2.92,5.04,2.92,8.4h-23.44Zm17.44-1.56c-.19-2.67-.68-4.72-1.47-6.16-.72-1.31-1.67-2.34-2.87-3.1-1.19-.76-2.47-1.14-3.82-1.14-2.28,0-4.28,.99-5.99,2.96-1.71,1.97-2.73,4.45-3.05,7.44h17.2Z"/></g></g></g></svg>