<svg xmlns="http://www.w3.org/2000/svg" viewBox="0 0 323.41 101.63"><defs><style>.cls-1{fill:#dfd0b2;}.cls-2{fill:#c79c5d;}.cls-3{fill:#fff;}.cls-4{fill:none;stroke:#c7b299;stroke-miterlimit:10;}</style></defs><g id="Calque_2" data-name="Calque 2"><g id="boulangerie"><path class="cls-1" d="M248,35.73c0,14.48-37.38,16.73-83.5,16.73S80,50.21,80,35.73,118.37,0,164.48,0,248,21.24,248,35.73Z"/><rect class="cls-2" x="38" y="36.2" width="248" height="45" rx="17.6"/><path class="cls-2" d="M66,65.2,38,63.08,10,65.2c-5,0-10-4-10-9H0c0-5,5-9,10-9l28,2.11,28-2.11a9,9,0,0,1,9,9h0A9,9,0,0,1,66,65.2Z"/><path class="cls-2" d="M257.4,47.09l28,2.11,28-2.11c5,0,10,4,10,9h0c0,5-5,9-10,9l-28-2.12-28,2.12a9,9,0,0,1-9-9h0A9,9,0,0,1,257.4,47.09Z"/><path class="cls-3" d="M91.94,57.59c3.26.54,5.91,2.1,5.91,5.4a5.89,5.89,0,0,1-3.29,5.24,11.33,11.33,0,0,1-5.89,1.32H80.31v-1c2.89-.27,3.06-.58,3.06-3.26V51.7c0-2.82-.3-3.05-3.06-3.29v-.95h8.91c2.55,0,4.15.44,5.23,1.19a4.43,4.43,0,0,1,2,3.8C96.46,55.65,93.84,57.11,91.94,57.59ZM88,57.18c3.74,0,5.27-1.5,5.27-4.29,0-2.38-1.46-4.21-4.73-4.21a3.51,3.51,0,0,0-1.9.34c-.27.2-.38.58-.38,1.66v6.5Zm-1.74,8.09c0,2.45.58,3.06,3,3.06,2.65,0,5.23-1.43,5.23-5s-2.45-5-6.59-5H86.29Z"/><path class="cls-3" d="M108.36,54.22a7.31,7.31,0,0,1,7.41,7.62c0,5.5-4.08,8.12-7.41,8.12a7.47,7.47,0,0,1-7.55-7.58A7.79,7.79,0,0,1,108.36,54.22ZM108,55.38c-2.07,0-3.94,2-3.94,5.95,0,4.31,1.9,7.44,4.69,7.44,2.11,0,3.88-1.53,3.88-6.19C112.58,58.61,110.94,55.38,108,55.38Z"/><path class="cls-3" d="M134.64,68.77a39.4,39.4,0,0,0-5.2,1.19V67.34c-1.84,1.53-3.33,2.62-5.2,2.62C122,70,120,68.57,120,64.86V58.27c0-1.84-.27-2-1.12-2.21l-1-.17V55a47.87,47.87,0,0,0,4.87-.61c-.11,1.09-.11,2.72-.11,5V64c0,3,1.57,3.84,3.1,3.84a5.4,5.4,0,0,0,3.67-1.63V58.27c0-1.84-.41-2.08-1.56-2.25l-1.09-.13V55a47.29,47.29,0,0,0,5.34-.61V65.78c0,1.7.27,1.94,1.56,2l.95,0Z"/><path class="cls-3" d="M135.83,69.55v-1c2.18-.2,2.45-.37,2.45-2.62V49.7c0-2.07-.17-2.28-2.35-2.55v-.88a24.38,24.38,0,0,0,5-1.16V66c0,2.25.2,2.42,2.41,2.62v1Z"/><path class="cls-3" d="M155.93,70a2.47,2.47,0,0,1-1.6-.65,3.18,3.18,0,0,1-.82-1.52c-1.36.91-3,2.17-4.08,2.17a4.17,4.17,0,0,1-4.15-4.18c0-1.67.92-2.75,2.79-3.4a26.27,26.27,0,0,0,5.37-2.21v-.68c0-2.41-1.22-3.81-3-3.81a2,2,0,0,0-1.6.78,7.37,7.37,0,0,0-.91,2.21,1,1,0,0,1-1,.79,1.64,1.64,0,0,1-1.5-1.5c0-.48.45-.88,1.13-1.36a14.28,14.28,0,0,1,4.89-2.38,4.47,4.47,0,0,1,4.59,4.86v6.56c0,1.57.58,2,1.19,2a2.78,2.78,0,0,0,1.23-.37l.34,1Zm-2.49-8.6c-.74.37-2.38,1.09-3.16,1.43-1.29.58-2.07,1.22-2.07,2.48a2.48,2.48,0,0,0,2.45,2.62,4.51,4.51,0,0,0,2.78-1.23Z"/><path class="cls-3" d="M170,69.55v-1c2-.2,2.18-.44,2.18-2.75V60.24c0-2.38-.85-4-3.1-4A5.94,5.94,0,0,0,165.31,58v8c0,2.35.2,2.42,2.21,2.62v1h-7.34v-1c2.24-.24,2.44-.37,2.44-2.62V59c0-2.21-.23-2.31-2.07-2.62v-.88a19.44,19.44,0,0,0,4.76-1.36V56.8c.68-.47,1.43-1,2.31-1.56a5.23,5.23,0,0,1,2.82-1c2.72,0,4.42,2,4.42,5.3V66c0,2.31.21,2.42,2.18,2.62v1Z"/><path class="cls-3" d="M183.53,64.59a2.51,2.51,0,0,0-1.12,1.7c0,.61.58,1.29,2.11,1.29l3.81,0c2.17,0,5,.71,5,4.08,0,3.53-4.18,6.86-8.7,6.86-3.84,0-5.92-2.24-6-4.25a2.65,2.65,0,0,1,.85-1.93,29.51,29.51,0,0,1,2.78-2.45A4.42,4.42,0,0,1,179.69,68a3.13,3.13,0,0,1-.4-1.46,7.26,7.26,0,0,0,3.12-2.34Zm1.64.34c-3.17,0-5.78-1.94-5.78-5.13,0-3.88,3.46-5.68,6.12-5.68a6.89,6.89,0,0,1,3.26.85,22.85,22.85,0,0,0,4.56-.51l.2.3a4.21,4.21,0,0,1-1.26,1.81c-.51,0-1.63-.14-2.11-.17a5.22,5.22,0,0,1,1,3.09C191.15,63.2,188.09,64.93,185.17,64.93Zm.78,5c-1.67,0-2.42.2-3,.71a4,4,0,0,0-1.63,2.79c0,1.87,1.94,3.27,4.56,3.27,3.23,0,5.06-1.67,5.06-3.85a2.56,2.56,0,0,0-1.49-2.48A9.23,9.23,0,0,0,186,70Zm-.78-14.75c-1.53,0-2.89,1.39-2.89,4.08s1.36,4.55,3.23,4.55c1.49-.07,2.82-1.32,2.82-4.08S187.07,55.21,185.17,55.21Z"/><path class="cls-3" d="M206.86,66.66c-2.18,2.72-4.56,3.3-5.65,3.3-4.14,0-6.66-3.4-6.66-7.31a8.76,8.76,0,0,1,2.21-5.95,7,7,0,0,1,5.07-2.48,5.31,5.31,0,0,1,5.2,5.27c0,.68-.14,1-.68,1.12s-5,.44-9.08.58c-.1,4.56,2.69,6.42,5.1,6.42a5.71,5.71,0,0,0,3.94-1.73ZM201,55.51c-1.56,0-3.09,1.46-3.57,4.22,1.9,0,3.81,0,5.81-.1.62,0,.82-.17.82-.68A3.17,3.17,0,0,0,201,55.51Z"/><path class="cls-3" d="M216.89,69.55h-7.82v-1c2.14-.2,2.34-.37,2.34-2.58V59c0-2.25-.13-2.35-2.1-2.59v-.85a19,19,0,0,0,4.79-1.39v3.74c1.19-1.77,2.62-3.64,4.32-3.64a1.76,1.76,0,0,1,2,1.63,2.29,2.29,0,0,1-1.16,1.87.66.66,0,0,1-.88-.07,2.15,2.15,0,0,0-1.53-.85c-.71,0-2,1.06-2.72,2.79V66c0,2.25.17,2.42,2.79,2.62Z"/><path class="cls-3" d="M222,69.55v-1c2.15-.2,2.38-.37,2.38-2.68v-7c0-2.11-.1-2.24-2.14-2.58v-.82A22,22,0,0,0,227,54.15V65.92c0,2.31.24,2.48,2.45,2.68v1Zm3.54-18.73a1.86,1.86,0,0,1-1.8-1.8,1.83,1.83,0,0,1,1.83-1.87A1.77,1.77,0,0,1,227.26,49,1.81,1.81,0,0,1,225.49,50.82Z"/><path class="cls-3" d="M243.54,66.66C241.37,69.38,239,70,237.9,70c-4.15,0-6.66-3.4-6.66-7.31a8.71,8.71,0,0,1,2.21-5.95,6.94,6.94,0,0,1,5.06-2.48,5.3,5.3,0,0,1,5.2,5.27c0,.68-.13,1-.68,1.12s-5,.44-9.07.58c-.11,4.56,2.68,6.42,5.1,6.42A5.73,5.73,0,0,0,243,65.88ZM237.7,55.51c-1.57,0-3.1,1.46-3.57,4.22,1.9,0,3.8,0,5.81-.1.61,0,.81-.17.81-.68A3.15,3.15,0,0,0,237.7,55.51Z"/><path class="cls-4" d="M115.48,8.23c1.26,3.27,19.33,5.88,19,16"/><path class="cls-4" d="M145.87,1.16c.57,3,26.93,10.94,26.61,21.07"/><path class="cls-4" d="M179.07.71c-.19,4.46,23.72,9.41,23.41,19.52"/><path class="cls-2" d="M131,90c-.36-1.15-.87-2.47-2.52-2.47a1.66,1.66,0,0,0-1.73,1.75c0,1,.67,1.58,2.25,2.37,1.93,1,3.15,1.89,3.15,3.68,0,2.12-1.76,3.67-4.34,3.67a10.42,10.42,0,0,1-3-.56c-.11-.41-.42-2.28-.54-3.13l.7-.16c.36,1.13,1.37,3.09,3.13,3.09a1.66,1.66,0,0,0,1.77-1.83c0-1-.65-1.66-2.17-2.47-1.87-1-3.09-1.91-3.09-3.78s1.47-3.39,4.18-3.39a12.71,12.71,0,0,1,2.57.33c.07.66.2,1.6.34,2.74Z"/><path class="cls-2" d="M137.33,98.7a2.12,2.12,0,0,1-.72.2c-1.39,0-2.22-.65-2.22-2.29v-5h-1.15l-.11-.22.52-.68h.74v-1.5c.61-.43,1.5-1,2.13-1.44l.23.15c0,.48-.05,1.44,0,2.79h1.81a.77.77,0,0,1-.15.9h-1.66V96c0,1.4.58,1.56.92,1.56a2.15,2.15,0,0,0,.87-.18l.18.65Z"/><path class="cls-2" d="M144.28,95.22h-4.54l.14-1.4h4.54Z"/><path class="cls-2" d="M151.4,87.64c-1.26.15-1.42.26-1.42,1.77v5.94c0,2.09-.2,3.83-1.91,5.18a6.25,6.25,0,0,1-2.23,1.1l-.29-.68a2.68,2.68,0,0,0,1.73-2.22,22.19,22.19,0,0,0,.2-3.45V89.41c0-1.51-.18-1.64-1.57-1.77V87h5.49Z"/><path class="cls-2" d="M159.11,96.92a4.12,4.12,0,0,1-3.3,2A3.68,3.68,0,0,1,152,95a4.76,4.76,0,0,1,1.35-3.24,4,4,0,0,1,2.81-1.26,3,3,0,0,1,3,2.93c0,.31,0,.62-.23.67s-2.88.22-4.63.29c.07,1.91,1.13,2.88,2.43,2.88a3.08,3.08,0,0,0,2.05-.81Zm-3.28-5.71c-.72,0-1.33.84-1.44,2.27l2.18-.06c.25,0,.36,0,.36-.36C157,92.16,156.53,91.21,155.83,91.21Zm-.68-2,1.71-2.79a10.63,10.63,0,0,1,2.14-.08l0,.26-3.42,2.95Z"/><path class="cls-2" d="M165,98.68h-4.75v-.61c.95-.11,1-.2,1-1.28V92.85c0-.9-.07-1-.91-1.17v-.56a17.2,17.2,0,0,0,3.24-.69v1.95c.81-1.24,1.45-1.91,2.19-1.91A1.09,1.09,0,0,1,167,91.55a1.74,1.74,0,0,1-.92,1.53.47.47,0,0,1-.55-.09c-.31-.25-.54-.54-.85-.54s-.72.23-1,.92v3.42c0,1.08.12,1.13,1.38,1.28Z"/><path class="cls-2" d="M171.92,90.47a4,4,0,0,1,4.14,4.07,4.24,4.24,0,1,1-8.48.2A4.25,4.25,0,0,1,171.92,90.47Zm2-.79c-.08-.06-2-1.57-2.08-1.62s-2,1.56-2.05,1.62l-.47-.43,2.18-2.94h.69l2.21,2.94Zm-2.18,1.51c-.78,0-1.53.81-1.53,3s.73,4,1.87,4c.68,0,1.42-.47,1.42-3.1S172.82,91.19,171.71,91.19Z"/><path class="cls-2" d="M187.08,98.68v-.61c.72-.11.85-.18.85-1.28V93.67c0-1.49-.71-1.76-1.26-1.76a2.08,2.08,0,0,0-1.34.56c0,.21,0,.48,0,.75v3.64c0,1,0,1.1.88,1.21v.61H182.2v-.61c.79-.11.87-.16.87-1.21V93.58c0-1.27-.51-1.69-1.18-1.69a2.23,2.23,0,0,0-1.38.54v4.43c0,1,.11,1.1.77,1.21v.61h-4.12v-.61c1-.13,1-.2,1-1.28V93c0-1,0-1.17-.86-1.29V91.1a19.68,19.68,0,0,0,3.17-.68v1.35c.39-.27.72-.51,1.1-.74a2.88,2.88,0,0,1,1.53-.56,2.05,2.05,0,0,1,2,1.37c.44-.33.8-.58,1.25-.88a2.67,2.67,0,0,1,1.44-.49c1.56,0,2.39,1.06,2.39,2.9v3.49c0,1,.09,1.06,1,1.21v.61Z"/><path class="cls-2" d="M199.36,96.92a4.12,4.12,0,0,1-3.3,2A3.68,3.68,0,0,1,192.28,95a4.72,4.72,0,0,1,1.35-3.24,4,4,0,0,1,2.81-1.26,3,3,0,0,1,3,2.93c0,.31,0,.62-.24.67s-2.88.22-4.62.29c.07,1.91,1.13,2.88,2.43,2.88a3.1,3.1,0,0,0,2.05-.81Zm-3.28-5.71c-.72,0-1.33.84-1.44,2.27l2.18-.06c.25,0,.36,0,.36-.36C197.19,92.16,196.78,91.21,196.08,91.21Z"/></g></g></svg>