<?xml version="1.0" encoding="UTF-8"?><svg xmlns="http://www.w3.org/2000/svg" viewBox="0 0 307 303.19"><defs><style>.d{fill:#65210b;stroke:#39120b;stroke-miterlimit:10;stroke-width:4px;}.e{fill:#ce9548;}.f{font-size:25.09px;}.f,.g{fill:#39120b;font-family:BauerBodoniBT-Titling, BauerBodni Titl BT;font-style:italic;}.g{font-size:14.52px;}</style></defs><g id="a"/><g id="b"><g id="c"><g><path class="e" d="M39.56,123.82c4.48-2.24,12.81-.72,16.78-7.09,6.74-10.79-10.82-34.68-13.05-39.53,7.09,2.98,25.46,14.99,35.8,8.2,6.9-4.52,5.97-14.17,8.2-18.27,5.97,4.48,15.1,30.17,28.34,29.46,.96-.05,2.41-.13,3.73-1.12,11.55-8.69-13.43-61.16-13.05-67.5,4.48,1.86,13.39,14.75,23.5,12.68,14.19-2.91,20.14-35.06,22.75-40.65,4.48,5.22,8.65,38.02,23.12,41.02,10.1,2.1,19.39-8.95,23.5-11.93-.75,6.34-17.25,47.31-11.19,65.27,.45,1.33,1.08,2.59,2.24,2.98,6.98,2.36,23.87-23.12,28.72-28.72,1.86,5.97,1.3,12.62,7.83,17.16,10.22,7.1,28.72-5.22,35.8-6.71-1.86,6.34-16.86,24.63-10.82,37.3,3.4,7.12,10.44,5.59,15.66,8.95"/><path class="e" d="M208.7,233.04c-.42,10.51,4.48,13.8,7.46,21.26-7.09-.75-43.37-18.64-55.2-7.83-11.4,10.42-1.49,41.4-1.12,55.94-4.48,.75-8.58,1.12-13.8,.37,0-14.55,8.14-44.68-3.73-54.82-11.93-10.2-42.89,5.97-51.47,7.46,1.86-5.22,9.03-11.77,8.58-23.12"/><g><text class="f" transform="translate(96.78 153.72)"><tspan x="0" y="0">La Cabane</tspan></text><text class="g" transform="translate(148.19 183.77)"><tspan x="0" y="0">À</tspan></text><text class="f" transform="translate(110.38 219.66)"><tspan x="0" y="0">Maurice</tspan></text></g><line class="d" y1="125.2" x2="307" y2="125.2"/><line class="d" y1="232.38" x2="307" y2="232.38"/></g></g></g></svg>