<svg xmlns="http://www.w3.org/2000/svg" viewBox="0 0 843.57 650"><defs><style>.cls-1{fill:red;}.cls-2{fill:#48eef7;}.cls-3{fill:#088717;}</style></defs><g id="Calque_2" data-name="Calque 2"><g id="Calque_1-2" data-name="Calque 1"><path class="cls-1" d="M691.47,266,709,212.11l-87.42,18.55a10.49,10.49,0,0,1-11.77-6.13l-16.94-39.84-68.23,73.23a10.48,10.48,0,0,1-17.9-9.2L539.64,79,486.9,109.52c-.2.12-.4.23-.61.33a10.49,10.49,0,0,1-14.07-4.69L418.67,0,365.12,105.18c-.1.21-.21.41-.33.61a10.49,10.49,0,0,1-14.35,3.74L297.7,79.05l32.9,169.68a10.48,10.48,0,0,1-17.9,9.19l-68.23-73.23-16.94,39.84a10.48,10.48,0,0,1-11.77,6.13l-87.42-18.55L145.86,266Z"/><path class="cls-1" d="M566.9,456l91.36-74H179.08l91.36,74a10.47,10.47,0,0,1,3.23,11.77L255,519.36,393.51,495a15.3,15.3,0,0,1,17.9,15.8L404.15,650h29l-7.26-139.19A15.34,15.34,0,0,1,443.83,495l138.55,24.35-18.71-51.61A10.48,10.48,0,0,1,566.9,456Z"/><path d="M0,293.46H7.14v59.71H30.76v7.25H0Z"/><path d="M39.12,292.36c-1.88,8.35-5.41,19-7.71,23.55l-4.59.69a165.7,165.7,0,0,0,4.84-23.34Z"/><path d="M75.87,329H54.38v24.15H78.33v7.25H47.24v-67H77.1v7.25H54.38v21.16H75.87Zm-1.4-50.77L64.05,289.88h-5.9l7.63-11.63Z"/><path d="M87.35,327.33c0-5.66-.08-10.53-.33-15h6.32l.24,9.44h.33c1.8-6.46,6.15-10.53,11-10.53a6.5,6.5,0,0,1,2,.3v8.24a9,9,0,0,0-2.46-.29c-5.08,0-8.69,4.66-9.68,11.22a30.36,30.36,0,0,0-.33,4.08v25.63H87.35Z"/><path d="M135.74,360.42l-.57-6.06h-.25a14.14,14.14,0,0,1-12.14,7.15c-8,0-12.14-6.85-12.14-13.81,0-11.62,8.53-18,23.87-17.88v-1c0-4-.9-11.12-9-11.12a17.38,17.38,0,0,0-10.34,3.57l-1.64-5.76a21.53,21.53,0,0,1,13-4.27c12.14,0,15.1,10,15.1,19.67v18a82.18,82.18,0,0,0,.65,11.53Zm-1.07-24.54c-7.87-.2-16.81,1.49-16.81,10.83,0,5.66,3.12,8.34,6.81,8.34,5.17,0,8.45-4,9.59-8a10.76,10.76,0,0,0,.41-2.79Z"/><path d="M153,360.42c.16-3.28.32-8.15.32-12.42V289.88h7.14v30.2h.16c2.55-5.36,7.14-8.84,13.54-8.84,9.84,0,16.81,9.93,16.73,24.54,0,17.19-8.94,25.73-17.8,25.73-5.74,0-10.33-2.68-13.29-9h-.24l-.33,7.95Zm7.46-19.28a18.91,18.91,0,0,0,.33,3.18c1.39,6.06,5.57,10.24,10.82,10.24,7.55,0,12.06-7.45,12.06-18.48,0-9.64-4.1-17.89-11.81-17.89-4.92,0-9.51,4.08-11,10.73a21.2,21.2,0,0,0-.41,3.58Z"/><path d="M200,289.88h7.22v70.54H200Z"/><path d="M227.36,298.82c.08,3-1.73,5.37-4.6,5.37-2.54,0-4.34-2.39-4.34-5.37s1.88-5.46,4.51-5.46S227.36,295.74,227.36,298.82Zm-8,61.6V312.33h7.22v48.09Z"/><path d="M242.53,338c.16,11.83,6.4,16.7,13.61,16.7a22.2,22.2,0,0,0,11-2.49l1.23,6.26a27.35,27.35,0,0,1-13.2,3c-12.22,0-19.52-9.74-19.52-24.24s7.05-25.93,18.62-25.93c13,0,16.4,13.81,16.4,22.65a40.61,40.61,0,0,1-.24,4.07Zm21.16-6.25c.08-5.57-1.89-14.21-10-14.21-7.3,0-10.49,8.15-11.07,14.21Zm-12.14-40.14,7.22,14.2H253.6l-10-14.2Z"/><path d="M279.6,327.33c0-5.66-.08-10.53-.33-15h6.32l.25,9.44h.32c1.81-6.46,6.16-10.53,11-10.53a6.46,6.46,0,0,1,2.05.3v8.24a8.93,8.93,0,0,0-2.46-.29c-5.08,0-8.69,4.66-9.67,11.22a28.8,28.8,0,0,0-.33,4.08v25.63H279.6Z"/><path d="M309.62,338c.17,11.83,6.4,16.7,13.62,16.7a22.25,22.25,0,0,0,11-2.49l1.23,6.26a27.43,27.43,0,0,1-13.21,3c-12.22,0-19.52-9.74-19.52-24.24s7.06-25.93,18.62-25.93c13,0,16.4,13.81,16.4,22.65a40.61,40.61,0,0,1-.24,4.07Zm21.16-6.25c.08-5.57-1.88-14.21-10-14.21-7.3,0-10.5,8.15-11.08,14.21Z"/><path d="M450.53,289.88V348c0,4.27.08,9.14.33,12.42h-6.48l-.33-8.35h-.16c-2.22,5.37-7.06,9.44-13.54,9.44-9.59,0-17-9.84-17-24.44-.09-16,8.12-25.83,17.79-25.83a12.88,12.88,0,0,1,12,7.35h.16V289.88Zm-7.22,42a18.22,18.22,0,0,0-.33-3.67c-1.06-5.57-5-10.14-10.41-10.14-7.47,0-11.9,8-11.9,18.58,0,9.74,3.94,17.79,11.73,17.79,4.84,0,9.27-3.88,10.58-10.43a18.1,18.1,0,0,0,.33-3.78Z"/><path d="M466.52,338c.17,11.83,6.4,16.7,13.62,16.7a22.22,22.22,0,0,0,11-2.49l1.23,6.26a27.4,27.4,0,0,1-13.21,3c-12.22,0-19.52-9.74-19.52-24.24s7.06-25.93,18.62-25.93c13,0,16.41,13.81,16.41,22.65a40,40,0,0,1-.25,4.07Zm21.16-6.25c.09-5.57-1.88-14.21-10-14.21-7.3,0-10.5,8.15-11.07,14.21Z"/><path d="M502.61,351.48a16.7,16.7,0,0,0,9.52,3.47c5.25,0,7.71-3.18,7.71-7.15,0-4.17-2.05-6.46-7.39-8.84-7.13-3.08-10.49-7.85-10.49-13.61,0-7.75,5.16-14.11,13.69-14.11a17.18,17.18,0,0,1,9.76,3l-1.8,6.36a13.6,13.6,0,0,0-8.12-2.78,6.27,6.27,0,0,0-6.64,6.55c0,4,2.37,5.77,7.54,8.15,6.89,3.18,10.42,7.35,10.42,14.51,0,8.44-5.42,14.4-14.85,14.4a19.56,19.56,0,0,1-11.15-3.28Z"/><path d="M635.07,331c-.41-9.34-.9-20.57-.82-28.91H634c-1.88,7.85-4.18,16.19-7,25.43L617.27,360h-5.41l-8.94-31.89c-2.62-9.44-4.84-18.08-6.4-26h-.16c-.16,8.34-.57,19.57-1.07,29.61l-1.47,28.71H587l3.85-67H600l9.43,32.38c2.3,8.25,4.18,15.6,5.58,22.56h.24c1.4-6.76,3.37-14.11,5.83-22.56l9.84-32.38H640l3.45,67h-7Z"/><path d="M690.6,336c0,17.78-10.17,25.53-19.77,25.53-10.74,0-19-9.54-19-24.74,0-16.09,8.7-25.53,19.69-25.53C682.89,311.24,690.6,321.27,690.6,336Zm-31.5.49c0,10.54,5,18.48,12.06,18.48,6.89,0,12.06-7.84,12.06-18.67,0-8.15-3.37-18.48-11.9-18.48S659.1,327.33,659.1,336.47Z"/><path d="M699.7,325.35c0-5-.08-9-.32-13h6.39l.41,7.95h.17c2-4.57,6.56-9,13.12-9,5.49,0,14,4,14,20.47v28.71h-7.21V332.7c0-7.75-2.38-14.21-9.19-14.21-4.76,0-8.45,4.07-9.68,8.94a15.05,15.05,0,0,0-.49,4.08v28.91H699.7Z"/><path d="M753.59,298.52v13.81h10.33V319H753.59v25.93c0,6,1.4,9.34,5.41,9.34a13.37,13.37,0,0,0,4.19-.6l.32,6.56a14.79,14.79,0,0,1-6.39,1.19,9.18,9.18,0,0,1-7.79-3.67c-2.05-2.59-2.79-6.86-2.79-12.52V319h-6.15v-6.66h6.15V300.81Z"/><path d="M771.06,351.48a16.68,16.68,0,0,0,9.52,3.47c5.24,0,7.71-3.18,7.71-7.15,0-4.17-2.06-6.46-7.39-8.84-7.13-3.08-10.49-7.85-10.49-13.61,0-7.75,5.16-14.11,13.69-14.11a17.18,17.18,0,0,1,9.76,3l-1.8,6.36a13.6,13.6,0,0,0-8.12-2.78,6.27,6.27,0,0,0-6.65,6.55c0,4,2.38,5.77,7.55,8.15,6.89,3.18,10.42,7.35,10.42,14.51,0,8.44-5.42,14.4-14.85,14.4a19.54,19.54,0,0,1-11.15-3.28Z"/><path class="cls-1" d="M380.75,326.61c-1.8-7.71-5.94-11.18-11.68-11.75,0,0-11.51-.95-12.21,11.75s21.06,21.15,21.06,21.15l2.82-21.15Z"/><path class="cls-1" d="M374.71,326.52c1.8-7.7,5.93-11.17,11.68-11.75,0,0,11.51-.94,12.2,11.75s-20.66,21.24-20.66,21.24l-3.22-21.24Z"/><circle class="cls-2" cx="558.59" cy="331.26" r="17.64"/><polygon class="cls-3" points="809.34 347.84 843.57 347.84 826.45 314.67 809.34 347.84"/></g></g></svg>