<?xml version="1.0" encoding="UTF-8"?><svg xmlns="http://www.w3.org/2000/svg" viewBox="0 0 110.18 144.45"><defs><style>.d{fill:#42210b;}.e{fill:#754c24;}</style></defs><g id="a"/><g id="b"><g id="c"><g><g><g><path class="d" d="M44.87,38.45c5.08-8.27,12.3-14.63,20.36-18.03C58.23,7.06,45.5-.79,33.42,.06c5.51,6.15,10.18,16.75,11.03,34.36,.21,1.48,.42,2.75,.42,4.03h0Z"/><path class="d" d="M34.05,35.05c-.85-19.51-7-27.56-11.88-30.96C10.31,11.94,5.85,29.97,11.99,46.93c4.88,13.15,14.85,22.27,25.45,25.23-.63-5.08-.63-10.39,.42-15.69-1.91-6.15-3.4-13.15-3.82-21.42h0Z"/><path class="e" d="M92.16,28.05c-4.88,3.4-11.03,11.45-11.88,30.75-.85,17.6-6.15,29.69-12.93,37.96,.85,0,1.7,.21,2.54,.21,13.15,0,26.51-10.38,32.45-26.08,6.15-17.18,1.7-34.99-10.18-42.84h0Z"/></g><path class="e" d="M80.71,24.24h-2.12c-13.15,0-26.51,10.18-32.44,26.08-6.37,17.18-1.7,34.99,10.18,42.84,6.57-6.79,12.51-17.4,13.14-34.56,1.07-17.82,5.73-28.21,11.24-34.36h0Z"/></g><g><path d="M20.46,129.34c-3.85,0-6.59-1.4-6.99-4.5-.1-.1-.1-.15-.1-.3-.75,1.2-2,3.05-3.15,3.05-.25,0-1.9-.25-1.95-.6-.45-3.2,6.29-14.54,7.74-17.49,.6-1.25,.45-1.75,.35-2.05,.25-1.65,3.85-5.95,6.44-5.95,.5,0,2.5,.5,2.8,1.7,.25,.8-.3,.3-.55,.3-4.55,0-12.24,15.04-14.19,19.68-1.15,2.85,.5,2.65,1.65,1.3,.75-.9,1.45-1.75,1.85-1.7,1.4,0,1.2,1.4,1.4,2.2,.45,2,2.05,3.55,5.05,3.55,7.14,.05,11.99-5.45,6.29-11.69-2.15-2.4-5.6-4.65-5.79-6.04-.1-.95,1.4-1.7,2.15-1.7,3.1,0,10.34-2.75,12.39-5.35,1.6-2,1.65-4.5-2.6-5.25-6.64-1.25-28.28,2.75-29.18,10.94-.3,2.5,2.65,2.9,3.75,3.5,.75,.35,.45,.75-.3,.65-1.7-.1-5.3-1.8-4.9-4.85,0-.15-.1-.65-.1-.8,.3-3.15,4.5-6.15,7.34-7.69,5.35-2.9,17.38-5,23.23-3.7,3.25,.75,5.2,2.8,5.2,5.05-.05,6.14-10.09,8.19-14.79,8.39,5.75,3.5,12.74,8.24,6.79,15.29-2,2.45-5.79,4.05-9.84,4.05Z"/><path d="M39.15,114.8c.55-1.55,1.05-2.8,1.75-2.95,.65-.05,1.5,.1,1.75,.6,.3,.6-.25,1.55-1,3.1-1.5,3-2.85,5.65-3,7.24-.35,2.15,.65,3.3,2.3,2.45,1.6-.9,5.35-4.05,7.44-6.94,.25-.35,.85-.05,.6,.4-.95,1.75-4,5.05-6.49,6.84-1.6,1.2-5.3,2.4-6.29-.6-.4-1.15,.45-3.85,1.5-6.15-.45,.55-.9,1.3-1.95,2.5-.5,.55-1-.1-.55-.7,1.75-2.15,3.1-4,3.85-5.15-.05-.15-.05-.35,.1-.65Zm4-5.54c-.9,0-2.15,0-2.15-1.05,0-.25,2.7-2.25,3-2.5,2.05-1.65,.8,.1,.8,1.1,0,.55-1.15,2.45-1.65,2.45Z"/><path d="M48.24,126.19c-.75,1-.3,2,1.55,1.5,2.5-.75,6.19-3.6,6.19-6.49,0-1.4-2.8-2.45-3.75-3.1-.75-.5-1.4-1.05-1.7-1.8-.55,.95-1.35,2.15-2.25,3.45-.45,.55-1.05,.1-.7-.45,1.45-2,2.35-3.7,2.7-4.7,.5-3.9,7.04-7.14,10.64-7.14,2.25,0,4.25,1.05,3.1,3.4-.3,.7-.85,1.25-1.55,1.7-.25,.2-.9-.1-.25-.75,.8-.8,1.45-2.55,.05-2.7-1.55-.1-4.25,1-5.45,1.6-1.65,.8-3.05,1.85-4.3,3.6-1.05,1.45-.85,2.45,.55,3.3,3.4,2,7.64,3.2,3.95,7.34-1.7,1.9-4.55,3.1-6.99,3.65-.95,.2-3.05,.5-3.6-.55-.35-.5,.1-1.35,.65-2,.5-.5,1.45-1.05,2.4-1.45,.35-.1,.45,.35,.1,.5-.55,.25-1.05,.7-1.35,1.1Z"/><path d="M74.77,112.2c-.75,.25-3.3,.6-5.65,.85-.65,1.2-1.25,2.05-1.4,2.5-1.5,3-2.85,5.65-3,7.24-.35,2.15,.65,3.3,2.3,2.45,1.6-.9,5.35-4.05,7.44-6.94,.25-.35,.85-.05,.6,.4-.95,1.75-4,5.05-6.49,6.84-1.6,1.2-5.29,2.4-6.29-.6-.4-1.15,.45-3.85,1.5-6.15-.45,.55-.9,1.3-1.95,2.5-.5,.55-1-.1-.55-.7,1.75-2.15,3.1-4,3.85-5.15,0-.1,.45-.9,1.1-2.1-.5,.1-.9,.1-1.15,.1-.5,0-1-.45-.7-1.1,.4-.85,1.7-.85,2.65-.9,.05-.1,.1-.1,.2-.1l2.5-4.65c1.25-2.15,1.35-2.65,2.05-2.75,.75-.1,1.7,.05,2,.5,.45,.6-.15,1.6-.45,2.05-.25,.5-.75,.45-1.05,1.05l-2.4,4.2,.65-.05c1.55-.15,2.8-.4,4.7-.35,.6,0,1.65,.35-.45,.85Z"/><path d="M73.52,119.49c1.8-2.2,3.35-4.55,4.65-7.04-.75-.1-1.25-.6-1.05-1.2,.45-1.5,2.55-3.55,4.05-4.25,1.45-.65,2.5-1.2,1.15,1.25l-1.95,3.1c1.7,.1,3.45,.2,5.25,.1,3-.15,1.8,1.55,.05,3.55-2.25,2.6-3.9,5.84-4.5,7.44-.8,2.25-.05,3.65,1.6,2.8,1.6-.9,5.35-4.05,7.39-6.94,.25-.35,.9-.05,.65,.4-.95,1.75-4,5.05-6.49,6.84-.9,.7-2.5,1.4-3.9,1.4-1.1,0-2.05-.45-2.4-1.85-.9-3.25,2.4-6.89,4.25-8.79,.75-.85,3.05-3.05-.4-3.6-.8-.15-1.5-.25-2.25-.25-1.8,2.55-3.5,5.15-5.5,7.59-.5,.65-1.35,.4-.6-.55Z"/><path d="M98.65,121.79c-.3-1.05,.4-1.85,1.25-1.6,1.35-2.7,.95-3.75,.7-4.35-.55-1.4,1.65-1.9,2.05-.55,.7,2.05-1.05,5.15-2.15,6.69,.05,.95,.6,1.35,1.25,1.35,1.6,0,3.25-1.85,4.25-2.9,.6-.7,1.25-1.45,1.75-2.15,.25-.35,.85-.05,.6,.4-.3,.6-.95,1.4-1.7,2.3-1.1,1.35-3.1,3.5-5.05,3.5-.85,0-1.7-.5-2.05-1.25-.65,.7-1.3,1.35-1.95,1.95-2.25,1.9-4.95,2.05-6.59,1-1.65-1-2.25-3.35-1.35-6.45,.5-1.9,2.15-4.55,4.4-6.54,1.85-1.65,4.1-2.45,5.6-1.9,.9,.3,1.65,1.15,1.45,2.4-.1,.8-.85,.75-.85,.35,.1-.55,0-1.35-.95-1.35-2.2,0-6.99,5.1-7.79,9.64-.35,1.95,.25,3.65,2.1,3.65,1.55,0,3.7-1.65,5.2-3.9-.05-.1-.15-.15-.15-.3Z"/></g><g><path d="M0,144.23v-11.79H1.53v10.44H6.21v1.35H0Z"/><path d="M7.92,138.46c0-1.04,.25-1.84,.75-2.39,.5-.55,1.27-.83,2.31-.83s1.79,.27,2.31,.82c.52,.55,.78,1.35,.78,2.4v1.85h-4.63v1.06c0,.61,.14,1.05,.43,1.32,.29,.27,.75,.41,1.39,.41,.19,0,.4-.01,.63-.04s.46-.05,.69-.08c.23-.03,.46-.06,.67-.1,.21-.04,.39-.07,.55-.11l-.07,1.35c-.4,.07-.82,.14-1.27,.22-.45,.07-.85,.11-1.2,.11-1.21,0-2.07-.26-2.58-.78-.51-.52-.77-1.32-.77-2.38v-2.83Zm1.53,.63h3.1v-.81c0-.6-.14-1.04-.43-1.33s-.67-.43-1.13-.43-.83,.14-1.11,.43c-.28,.29-.42,.71-.42,1.28v.86Z"/><path d="M24.98,144.45c-1.13,0-1.95-.28-2.48-.84s-.78-1.37-.78-2.44v-2.66c0-1.06,.26-1.87,.78-2.43,.52-.56,1.35-.85,2.48-.85,.31,0,.58,.02,.82,.04,.23,.03,.55,.08,.95,.13l-.04,1.35c-.31-.06-.59-.11-.84-.14-.25-.03-.54-.04-.89-.04-.58,0-1.01,.16-1.3,.47-.29,.31-.43,.76-.43,1.33v2.9c0,.61,.15,1.07,.46,1.37s.73,.45,1.27,.45c.35,0,.65-.01,.89-.04,.25-.03,.52-.08,.84-.14l.04,1.35c-.4,.06-.71,.1-.95,.13s-.51,.04-.82,.04Z"/><path d="M34.83,144.23h-1.46v-1.4c-.71,1.08-1.49,1.62-2.36,1.62-.68,0-1.24-.24-1.66-.71-.42-.47-.63-1.13-.63-1.97v-.5c0-.36,.06-.7,.19-1.01,.13-.31,.31-.58,.54-.8,.23-.22,.52-.4,.85-.53,.34-.13,.71-.2,1.13-.2,.26,0,.57,.02,.92,.07s.66,.1,.94,.16v-.95c0-.54-.12-.92-.35-1.13s-.6-.32-1.09-.32c-.18,0-.38,0-.59,.03-.22,.02-.43,.04-.65,.07-.22,.03-.43,.06-.64,.09-.21,.03-.39,.06-.55,.08v-1.31c.4-.06,.82-.12,1.28-.18,.46-.06,.84-.09,1.15-.09,1.03,0,1.78,.23,2.26,.68,.47,.46,.71,1.19,.71,2.21v6.1Zm-3.47-1.15c.31,0,.64-.14,.99-.41,.35-.28,.67-.68,.95-1.21v-1.39c-.24-.05-.5-.08-.77-.1-.28-.02-.51-.03-.7-.03-.5,0-.89,.13-1.15,.41-.26,.27-.4,.64-.4,1.11v.2c0,.46,.1,.81,.31,1.05,.2,.25,.46,.37,.77,.37Z"/><path d="M38.07,134.53c.01-.95,.25-1.65,.71-2.12,.46-.46,1.13-.69,1.99-.69,.22,0,.43,.01,.64,.04s.38,.06,.5,.08v1.22c-.17-.02-.34-.04-.52-.06-.18-.02-.38-.03-.59-.03-.35,0-.63,.11-.86,.33-.22,.22-.33,.55-.33,.98v1.15h1.62v1.26h-1.62v7.52h-1.53v-7.52h-1.26v-1.26h1.26v-.92Z"/><path d="M43.43,138.46c0-1.04,.25-1.84,.75-2.39,.5-.55,1.27-.83,2.31-.83s1.79,.27,2.31,.82c.52,.55,.78,1.35,.78,2.4v1.85h-4.63v1.06c0,.61,.14,1.05,.43,1.32,.29,.27,.75,.41,1.39,.41,.19,0,.4-.01,.63-.04,.23-.02,.46-.05,.69-.08,.23-.03,.46-.06,.67-.1,.21-.04,.39-.07,.55-.11l-.07,1.35c-.4,.07-.82,.14-1.27,.22-.45,.07-.85,.11-1.2,.11-1.21,0-2.07-.26-2.58-.78-.51-.52-.77-1.32-.77-2.38v-2.83Zm1.53,.63h3.1v-.81c0-.6-.14-1.04-.43-1.33s-.67-.43-1.13-.43-.83,.14-1.11,.43-.42,.71-.42,1.28v.86Zm1.4-4.68h-1.19l1.37-2.5h1.53l-1.71,2.5Z"/><path d="M57.24,138.24c0-.94,.22-1.67,.65-2.21,.43-.53,1.06-.8,1.89-.8,.38,0,.77,.1,1.16,.3,.39,.2,.72,.4,1,.6v-4.19h1.53v12.29h-1.46v-1.42c-.35,.54-.73,.95-1.14,1.22-.41,.28-.85,.41-1.32,.41-.75,0-1.31-.25-1.71-.76-.4-.5-.59-1.25-.59-2.25v-3.2Zm2.66,4.84c.35,0,.7-.14,1.06-.41,.36-.28,.68-.68,.97-1.21v-3.96c-.25-.26-.55-.48-.89-.65-.34-.17-.65-.25-.93-.25-.42,0-.75,.15-.99,.44-.24,.29-.36,.77-.36,1.41v2.79c0,.68,.1,1.16,.32,1.43,.21,.27,.48,.4,.82,.4Z"/><path d="M72.4,135.45v8.78h-1.44v-1.26c-.32,.48-.69,.85-1.09,1.1s-.84,.38-1.3,.38c-.73,0-1.31-.25-1.75-.74-.43-.49-.65-1.25-.65-2.27v-5.99h1.53v5.72c0,.66,.11,1.13,.32,1.42s.5,.43,.85,.43,.7-.13,1.05-.39c.35-.26,.67-.62,.95-1.07v-6.12h1.53Z"/><path d="M80.49,144.23v-8.78h1.44v1.31c.31-.49,.67-.87,1.08-1.13,.41-.26,.85-.4,1.31-.4,.77,0,1.36,.26,1.77,.77,.41,.52,.62,1.26,.62,2.23v5.99h-1.53v-5.78c0-.65-.11-1.11-.32-1.39-.22-.28-.5-.41-.85-.41s-.7,.13-1.06,.4c-.36,.26-.67,.62-.94,1.08v6.1h-1.53Z"/><path d="M95.58,141.17c0,1.02-.25,1.82-.76,2.4s-1.31,.87-2.41,.87-1.91-.29-2.41-.87-.76-1.38-.76-2.4v-2.66c0-1.02,.25-1.82,.76-2.4,.5-.58,1.31-.87,2.41-.87s1.91,.29,2.41,.87c.5,.58,.76,1.38,.76,2.4v2.66Zm-1.53-2.81c0-.61-.14-1.07-.43-1.39-.29-.31-.69-.47-1.21-.47s-.92,.16-1.21,.48c-.29,.32-.43,.78-.43,1.4v2.92c0,.61,.14,1.08,.43,1.39,.29,.32,.69,.48,1.21,.48s.92-.16,1.21-.48c.29-.32,.43-.78,.43-1.39v-2.93Z"/><path d="M98.19,144.23v-8.78h1.44v1.31c.31-.49,.67-.87,1.08-1.13,.41-.26,.85-.4,1.31-.4,.17,0,.3,.01,.4,.04v1.73c-.1-.02-.2-.04-.3-.04-.1,0-.24,0-.41,0-.38,0-.75,.1-1.09,.3s-.65,.52-.91,.96v6.03h-1.53Z"/><path d="M103.95,138.24c0-.94,.22-1.67,.65-2.21,.43-.53,1.06-.8,1.89-.8,.38,0,.77,.1,1.16,.3,.39,.2,.72,.4,1,.6v-4.19h1.53v12.29h-1.46v-1.42c-.35,.54-.73,.95-1.14,1.22-.41,.28-.85,.41-1.32,.41-.75,0-1.31-.25-1.71-.76-.4-.5-.59-1.25-.59-2.25v-3.2Zm2.66,4.84c.35,0,.7-.14,1.06-.41,.36-.28,.68-.68,.97-1.21v-3.96c-.25-.26-.55-.48-.89-.65-.34-.17-.65-.25-.93-.25-.42,0-.75,.15-.99,.44-.24,.29-.36,.77-.36,1.41v2.79c0,.68,.1,1.16,.32,1.43,.21,.27,.48,.4,.82,.4Z"/></g></g></g></g></svg>