<svg xmlns="http://www.w3.org/2000/svg" viewBox="0 0 136.57 110.2"><defs><style>.cls-1{fill:#ffb87f;}.cls-2{fill:#e6ff0a;}.cls-3,.cls-7{fill:#bf4b00;}.cls-4{fill:#39b54a;}.cls-5{fill:none;stroke:#8c6239;stroke-miterlimit:10;stroke-width:3px;}.cls-6{fill:#ed1c24;}.cls-7{font-size:17px;font-family:ErasITC-Demi, Eras Demi ITC;font-weight:300;}</style></defs><g id="Calque_2" data-name="Calque 2"><g id="Calque_1-2" data-name="Calque 1"><path class="cls-1" d="M96.32,67.19l-83-7.68a1.68,1.68,0,0,1-.21-3.32l121.22-27.7"/><path class="cls-2" d="M89,59.08,44.89,55c-6.61-.61-7.2-10-.71-11.47L125,25.72"/><text/><path class="cls-3" d="M89,52.68,39.15,48.07a4.92,4.92,0,0,1-.6-9.71L119.84,23.3"/><path class="cls-4" d="M91.14,48.24l-42.84-4c-6.85-.63-7.46-10.4-.74-11.87L127.1,14.88"/><path class="cls-1" d="M92.37,40.39l-83-7.68a1.68,1.68,0,0,1-.21-3.32L133.41,2.5"/><path class="cls-1" d="M133.41,2.5,91.72,40l5,26.84,36-33.19a12,12,0,0,0,3.73-10.56Z"/><line class="cls-5" x1="76.39" y1="26" x2="76.39"/><ellipse class="cls-4" cx="76.38" cy="9" rx="7.24" ry="5.09" transform="translate(2.88 31.65) rotate(-23.84)"/><circle class="cls-6" cx="72.6" cy="10.38" r="2.14"/><text class="cls-7" transform="translate(11.28 85.33)">Sandwich du <tspan x="0" y="18" xml:space="preserve">  mont-laurier</tspan></text></g></g></svg>