<svg xmlns="http://www.w3.org/2000/svg" viewBox="0 0 259.61 133.52"><defs><style>.cls-1{fill:#034c3c;}</style></defs><g id="Layer_2" data-name="Layer 2"><g id="Layer_1-2" data-name="Layer 1"><path d="M46.53,126.11a1.6,1.6,0,0,0,.37-.39.2.2,0,0,1,.17-.14c.08,0,.12.07.13.21l.13,2.07a.73.73,0,0,1,0,.21s0,0-.08,0-.13-.08-.2-.25A4.08,4.08,0,0,0,46,126.31a2.29,2.29,0,0,0-1.52-.6,2.11,2.11,0,0,0-1.32.47,3,3,0,0,0-.93,1.32,5.15,5.15,0,0,0-.33,1.85,4,4,0,0,0,.92,2.73,2.69,2.69,0,0,0,2,1,2.27,2.27,0,0,0,1.42-.49,3.37,3.37,0,0,0,1-1.13q.09-.18.18-.18c.09,0,.13,0,.13.14a2,2,0,0,1-.45.75,3.22,3.22,0,0,1-1.17.94,3.44,3.44,0,0,1-1.56.36,3.8,3.8,0,0,1-3.27-1.89,4,4,0,0,1-.52-2.08,4.44,4.44,0,0,1,.5-2.11A3.57,3.57,0,0,1,42.48,126a3.72,3.72,0,0,1,1.88-.53,3.61,3.61,0,0,1,1.06.17A5.31,5.31,0,0,1,46.53,126.11Z"/><path d="M55.3,125.69a18.55,18.55,0,0,1,.33,1.86s0,0-.06,0a.14.14,0,0,1-.09,0,4.7,4.7,0,0,0-.78-1,2.32,2.32,0,0,0-.74-.49,3.92,3.92,0,0,0-1.29-.14,7.06,7.06,0,0,0-1.36.1.37.37,0,0,0,0,.21s0,.08,0,.15c0,.32-.06,1.17-.06,2.56a2.45,2.45,0,0,0,0,.25l.61,0a2,2,0,0,0,1.07-.22,1.77,1.77,0,0,0,.58-1c0-.09.07-.13.12-.13s.11.06.11.18l0,.23c0,.31,0,.64,0,1,0,.54,0,1,0,1.45,0,.13,0,.2-.11.2s-.09-.05-.1-.14a1.63,1.63,0,0,0-.52-1,3.23,3.23,0,0,0-1.72-.3c0,.28,0,.75,0,1.39a8.32,8.32,0,0,0,.09,1.59.87.87,0,0,0,.42.53,2.29,2.29,0,0,0,1.14.2c1.53,0,2.51-.53,2.95-1.58.06-.13.11-.2.17-.2s.1,0,.1.13a.4.4,0,0,1,0,.15c0,.08-.08.36-.17.84,0,.11-.1.41-.23.93H53.17c-.36,0-.87,0-1.56,0s-1.29,0-1.82,0a4.66,4.66,0,0,1-.82,0,.08.08,0,0,1,0-.07c0-.08.07-.12.2-.12.43,0,.72-.11.85-.34a4.15,4.15,0,0,0,.21-1.7v-1.21l0-1.14c0-.23,0-.66,0-1.29a9.69,9.69,0,0,0-.07-1.09.46.46,0,0,0-.18-.27,1.78,1.78,0,0,0-.66-.27c-.1,0-.15-.07-.15-.13s.07-.11.2-.11l1.2.07c.43,0,1.47,0,3.13,0Z"/><path d="M59.46,125.66c.24.32.65.82,1.23,1.49l1.88,2.19,1.81,2.11c0-.72.06-1.64.06-2.78,0-.86,0-1.43,0-1.72a1.15,1.15,0,0,0-.39-.73,1.24,1.24,0,0,0-.85-.3c-.16,0-.23,0-.23-.1s0-.07,0-.08a4.73,4.73,0,0,1,.79-.06c.49,0,.91,0,1.24,0h.93c.12,0,.18,0,.18.11s0,.09-.16.1a1.46,1.46,0,0,0-.85.32,1.09,1.09,0,0,0-.32.7c0,.31,0,1.35,0,3.11l0,3.13c0,.15,0,.23-.12.23l-.08,0a6.14,6.14,0,0,1-.53-.6l-1.17-1.37c-.47-.53-.83-1-1.1-1.3-.58-.71-1-1.15-1.11-1.31a10,10,0,0,1-1-1.18c-.07-.11-.13-.17-.18-.17s-.07.07-.07.23v.91c0,1.17,0,2.1.1,2.79a4.44,4.44,0,0,0,.2,1.22,1.07,1.07,0,0,0,.35.36.9.9,0,0,0,.55.19c.26,0,.39,0,.39.14s-.08.11-.22.11H57.87c-.13,0-.2,0-.2-.1s.06-.12.19-.12a1.17,1.17,0,0,0,1-.32,2.58,2.58,0,0,0,.24-1.37l0-2.08a11.84,11.84,0,0,0-.1-2.16,2.67,2.67,0,0,0-.45-.8,1.17,1.17,0,0,0-.8-.53c-.13,0-.2-.05-.2-.11s.09-.11.26-.11Z"/><path d="M70.85,126l-.65,0a2.61,2.61,0,0,0-1.84.54,2.11,2.11,0,0,0-.67,1,.16.16,0,0,1-.27.09,17,17,0,0,1,.23-1.9H68c.31,0,.72,0,1.23,0s1.4,0,2.54,0,1.93,0,2.28,0,.77,0,1.33,0a6.24,6.24,0,0,1,.09.88c0,.35,0,.6.07.74a.34.34,0,0,1,0,.1q0,.15-.12.15a.19.19,0,0,1-.13,0s-.11-.15-.23-.34a2.54,2.54,0,0,0-.63-.72,1.69,1.69,0,0,0-.74-.32,11.92,11.92,0,0,0-1.64-.09c0,.59-.07,1.27-.07,2a31.84,31.84,0,0,0,.16,4.47c.11.46.49.68,1.16.68.16,0,.24,0,.24.1s-.08.12-.23.12H69.71c-.09,0-.14,0-.14-.11s.09-.11.28-.11a1,1,0,0,0,.75-.27,1.06,1.06,0,0,0,.33-.71c0-.3,0-1.16,0-2.59C71,128.34,70.93,127.14,70.85,126Z"/><path d="M81.52,129.4a2.9,2.9,0,0,1,1.14.74,2.7,2.7,0,0,1,.47,1.2,2.92,2.92,0,0,0,.55,1.43,1.26,1.26,0,0,0,.92.39c.11,0,.16.05.16.12s-.06.1-.18.1a10.2,10.2,0,0,1-2-.11c-.23-.07-.41-.48-.52-1.21a10.46,10.46,0,0,0-.33-1.56,1.51,1.51,0,0,0-.56-.76,2,2,0,0,0-1.18-.26,4.49,4.49,0,0,0-.69.06q0,.38,0,.78c0,1,0,1.66,0,2a1,1,0,0,0,.25.65,1,1,0,0,0,.69.21c.15,0,.22,0,.22.11s-.09.11-.26.11H77.3c-.17,0-.26,0-.26-.11s.07-.11.2-.11a1,1,0,0,0,.62-.13.89.89,0,0,0,.28-.42,4,4,0,0,0,.1-1l0-1.21V128.5a18.07,18.07,0,0,0-.06-1.86A1.14,1.14,0,0,0,78,126a1.45,1.45,0,0,0-.74-.24c-.08,0-.12-.05-.12-.1s.08-.1.25-.1l3.48-.08a3.19,3.19,0,0,1,2.09.56,1.73,1.73,0,0,1,.65,1.36,1.76,1.76,0,0,1-.26.93,1.72,1.72,0,0,1-.62.61A7.83,7.83,0,0,1,81.52,129.4Zm-2.22-.15a9,9,0,0,0,1.69-.16,1.75,1.75,0,0,0,1-.6,1.6,1.6,0,0,0,.4-1.1,1.71,1.71,0,0,0-.44-1.16,1.82,1.82,0,0,0-1.41-.5,5.8,5.8,0,0,0-1.18.14c0,1.09-.07,1.95-.07,2.6C79.25,128.69,79.27,129,79.3,129.25Z"/><path d="M92.33,125.69a15.68,15.68,0,0,1,.34,1.86s0,0-.07,0a.15.15,0,0,1-.08,0,4.7,4.7,0,0,0-.78-1,2.43,2.43,0,0,0-.74-.49,3.92,3.92,0,0,0-1.29-.14,7,7,0,0,0-1.36.1.36.36,0,0,0,0,.21,1,1,0,0,1,0,.15c0,.32-.06,1.17-.06,2.56,0,.06,0,.15,0,.25l.62,0a2,2,0,0,0,1.07-.22,1.84,1.84,0,0,0,.58-1c0-.09.07-.13.12-.13s.11.06.11.18l0,.23c0,.31,0,.64,0,1,0,.54,0,1,0,1.45,0,.13,0,.2-.11.2s-.09-.05-.11-.14a1.54,1.54,0,0,0-.52-1,3.18,3.18,0,0,0-1.72-.3c0,.28,0,.75,0,1.39a9.73,9.73,0,0,0,.08,1.59.86.86,0,0,0,.43.53,2.25,2.25,0,0,0,1.13.2c1.53,0,2.52-.53,3-1.58,0-.13.11-.2.17-.2s.09,0,.09.13a.4.4,0,0,1,0,.15c0,.08-.08.36-.17.84,0,.11-.09.41-.22.93H90.2c-.35,0-.87,0-1.55,0s-1.29,0-1.82,0a4.83,4.83,0,0,1-.83,0,.09.09,0,0,1,0-.07c0-.08.06-.12.19-.12a.92.92,0,0,0,.86-.34,4.15,4.15,0,0,0,.21-1.7v-1.21l0-1.14c0-.23,0-.66,0-1.29s0-1-.07-1.09a.46.46,0,0,0-.18-.27,1.78,1.78,0,0,0-.66-.27c-.11,0-.16-.07-.16-.13s.07-.11.21-.11l1.2.07q.63,0,3.12,0Z"/><path d="M101,125.63l1.21,0a4.87,4.87,0,0,1,3.48,1.13,3.76,3.76,0,0,1,1.17,2.83,3.93,3.93,0,0,1-.56,2.11,3.78,3.78,0,0,1-1.41,1.35,4.84,4.84,0,0,1-2.26.46c-.21,0-.48,0-.81,0l-1-.07c-1.28,0-2,0-2.27,0s-.19,0-.19-.1a.09.09,0,0,1,.07-.09,2.73,2.73,0,0,1,.44-.07.86.86,0,0,0,.66-.38,5.87,5.87,0,0,0,.24-2l.09-3.13a7,7,0,0,0-.07-1,1.25,1.25,0,0,0-.23-.66,1,1,0,0,0-.5-.19c-.16,0-.25-.07-.25-.14s0-.12.13-.12.32,0,.72,0S100.47,125.63,101,125.63Zm-.21,5.71a4,4,0,0,0,.11,1.11.91.91,0,0,0,.44.55,2,2,0,0,0,1.08.22,2.81,2.81,0,0,0,1.74-.51,3.34,3.34,0,0,0,1-1.35,4.44,4.44,0,0,0,.38-1.8,4.2,4.2,0,0,0-.85-2.55,3.11,3.11,0,0,0-2.66-1.14,4.74,4.74,0,0,0-.93,0c-.09,0-.13.14-.13.32s0,.42,0,.82c0,.57-.07,1-.08,1.35l0,1.62C100.75,130.79,100.74,131.23,100.74,131.34Z"/><path d="M114.87,125.69a18.55,18.55,0,0,1,.33,1.86s0,0-.06,0a.14.14,0,0,1-.09,0,5,5,0,0,0-.77-1,2.47,2.47,0,0,0-.75-.49,3.92,3.92,0,0,0-1.29-.14,6.88,6.88,0,0,0-1.35.1.3.3,0,0,0,0,.21s0,.08,0,.15c0,.32-.06,1.17-.06,2.56a2.45,2.45,0,0,0,0,.25l.61,0a2,2,0,0,0,1.08-.22,1.9,1.9,0,0,0,.58-1c0-.09.06-.13.11-.13s.11.06.11.18l0,.23c0,.31,0,.64,0,1,0,.54,0,1,0,1.45,0,.13,0,.2-.11.2s-.08-.05-.1-.14a1.63,1.63,0,0,0-.52-1,3.23,3.23,0,0,0-1.72-.3c0,.28,0,.75,0,1.39a8.32,8.32,0,0,0,.09,1.59.87.87,0,0,0,.42.53,2.32,2.32,0,0,0,1.14.2c1.53,0,2.51-.53,3-1.58.06-.13.12-.2.17-.2s.1,0,.1.13a.4.4,0,0,1,0,.15c0,.08-.08.36-.17.84,0,.11-.1.41-.23.93h-2.46c-.35,0-.87,0-1.56,0s-1.29,0-1.82,0a4.66,4.66,0,0,1-.82,0,.08.08,0,0,1,0-.07c0-.08.07-.12.2-.12a.93.93,0,0,0,.86-.34,4.41,4.41,0,0,0,.2-1.7v-2.35c0-.23,0-.66,0-1.29a7.56,7.56,0,0,0-.07-1.09.46.46,0,0,0-.18-.27,1.78,1.78,0,0,0-.66-.27c-.1,0-.15-.07-.15-.13s.07-.11.2-.11l1.2.07c.43,0,1.47,0,3.13,0Z"/><path d="M125,133.49h-.35q-.27-.88-.87-2.43l-1.11-2.88a15,15,0,0,0-.72-1.67,1.4,1.4,0,0,0-.4-.45,1.25,1.25,0,0,0-.55-.15c-.09,0-.14,0-.14-.11s.05-.11.14-.11h3.09c.19,0,.28,0,.28.1s-.06.13-.18.13c-.52,0-.78.22-.78.67a2.58,2.58,0,0,0,.07.51c0,.23.13.52.24.86l.75,2.08c.38,1.05.63,1.7.73,1.94l1.26-3.51a8.14,8.14,0,0,0,.54-1.87c0-.42-.25-.65-.76-.69-.1,0-.15,0-.15-.11s0-.07,0-.09a1.78,1.78,0,0,1,.33,0h2a1.56,1.56,0,0,1,.32,0,.07.07,0,0,1,.06.08c0,.07-.08.12-.23.14a1,1,0,0,0-.66.33,3.26,3.26,0,0,0-.42.61c-.14.24-.5,1.19-1.09,2.85C126.19,130.3,125.72,131.56,125,133.49Z"/><path d="M130.5,125.56l1.07,0,1.65,0c.19,0,.29,0,.29.12s0,.1-.16.11c-.43.06-.7.21-.81.47a13.09,13.09,0,0,0-.16,2.89c0,.61,0,1.3,0,2.07a11.49,11.49,0,0,0,.11,1.37.67.67,0,0,0,.22.36,1.2,1.2,0,0,0,.62.21c.09,0,.14.05.14.11s0,.1-.13.1h-1.46l-1.25,0c-.14,0-.2,0-.2-.12s.05-.12.16-.12c.37,0,.58-.13.64-.37a14.33,14.33,0,0,0,.1-2.26c0-1.23,0-2.23,0-3a3.62,3.62,0,0,0-.19-1.4.8.8,0,0,0-.6-.32c-.11,0-.16-.06-.16-.13S130.42,125.56,130.5,125.56Z"/><path d="M141.94,133.39h-.33c-.15,0-.41,0-.79,0s-1.17,0-2.37,0H137l-.6,0-.63,0q-.45,0-.45-.12c0-.06.06-.09.18-.1a1.23,1.23,0,0,0,.79-.24,1.08,1.08,0,0,0,.31-.61,16.21,16.21,0,0,0,.08-2.12v-2.12a7.7,7.7,0,0,0-.09-1.44,1.07,1.07,0,0,0-.38-.63,1.22,1.22,0,0,0-.64-.24c-.13,0-.19-.06-.19-.13s.06-.11.17-.11h.15c.63,0,1.35.06,2.19.06l1,0q.15,0,.15.12c0,.07,0,.1-.17.1a1.33,1.33,0,0,0-.69.17.84.84,0,0,0-.37.38,2.49,2.49,0,0,0-.1.84l0,2.8v1.56a4.59,4.59,0,0,0,.06.95.82.82,0,0,0,.26.39,1,1,0,0,0,.7.18l1.06,0a2.4,2.4,0,0,0,1.44-.79,4,4,0,0,0,.86-1.22c0-.1.09-.15.16-.15s.1,0,.1.14-.06.5-.17,1.18S142,133.29,141.94,133.39Z"/><path d="M150.16,133.39h-.33c-.14,0-.4,0-.78,0s-1.18,0-2.38,0h-1.49l-.6,0-.63,0q-.45,0-.45-.12c0-.06.06-.09.18-.1a1.25,1.25,0,0,0,.79-.24,1.14,1.14,0,0,0,.31-.61,16.21,16.21,0,0,0,.08-2.12v-2.12a7.7,7.7,0,0,0-.09-1.44,1.06,1.06,0,0,0-.37-.63,1.26,1.26,0,0,0-.65-.24c-.12,0-.19-.06-.19-.13s.06-.11.17-.11h.16q.93.06,2.19.06l1,0c.11,0,.16,0,.16.12s-.06.1-.17.1a1.37,1.37,0,0,0-.7.17.89.89,0,0,0-.37.38,2.56,2.56,0,0,0-.09.84l-.05,2.8,0,1.56a4.59,4.59,0,0,0,.06.95.79.79,0,0,0,.25.39,1.06,1.06,0,0,0,.71.18l1,0a2.42,2.42,0,0,0,1.45-.79,3.93,3.93,0,0,0,.85-1.22c.05-.1.1-.15.16-.15s.1,0,.1.14-.06.5-.17,1.18S150.19,133.29,150.16,133.39Z"/><path d="M158.19,125.69a18.55,18.55,0,0,1,.33,1.86.07.07,0,0,1-.06,0s-.05,0-.09,0a5,5,0,0,0-.77-1,2.47,2.47,0,0,0-.75-.49,3.89,3.89,0,0,0-1.28-.14,6.92,6.92,0,0,0-1.36.1.36.36,0,0,0-.05.21,1,1,0,0,1,0,.15c0,.32-.06,1.17-.06,2.56a2.45,2.45,0,0,0,0,.25l.61,0a2,2,0,0,0,1.08-.22,1.9,1.9,0,0,0,.58-1c0-.09.06-.13.11-.13s.12.06.12.18l0,.23c0,.31,0,.64,0,1,0,.54,0,1,0,1.45,0,.13,0,.2-.1.2s-.09-.05-.11-.14a1.58,1.58,0,0,0-.52-1,3.23,3.23,0,0,0-1.72-.3c0,.28,0,.75,0,1.39a8.32,8.32,0,0,0,.09,1.59.86.86,0,0,0,.43.53,2.25,2.25,0,0,0,1.13.2c1.53,0,2.51-.53,3-1.58.05-.13.11-.2.16-.2s.1,0,.1.13a.4.4,0,0,1,0,.15c0,.08-.08.36-.17.84,0,.11-.1.41-.23.93h-2.46c-.35,0-.87,0-1.56,0s-1.29,0-1.81,0a4.73,4.73,0,0,1-.83,0,.1.1,0,0,1,0-.07c0-.08.07-.12.2-.12a.93.93,0,0,0,.86-.34,4.41,4.41,0,0,0,.2-1.7v-1.21l0-1.14c0-.23,0-.66,0-1.29s-.05-1-.07-1.09a.54.54,0,0,0-.19-.27,1.78,1.78,0,0,0-.66-.27c-.1,0-.15-.07-.15-.13s.07-.11.21-.11l1.2.07q.63,0,3.12,0Zm-3.21-.77.9-1.28a3.14,3.14,0,0,1,.43-.5.57.57,0,0,1,.37-.14.32.32,0,0,1,.37.37c0,.2-.19.45-.57.74l-1.39,1.07a.42.42,0,0,1-.19.1c-.06,0-.09,0-.09-.07A1,1,0,0,1,155,124.92Z"/><path d="M168.16,128.1c-.06,0-.11-.06-.16-.18a4,4,0,0,0-1.28-1.65,2.76,2.76,0,0,0-1.68-.58,2.54,2.54,0,0,0-1.42.45,3.17,3.17,0,0,0-1.13,1.38,4.61,4.61,0,0,0-.43,2,4,4,0,0,0,.89,2.6,2.77,2.77,0,0,0,2.24,1.09A2,2,0,0,0,166,133a2.47,2.47,0,0,0,.63-.42,1.71,1.71,0,0,0,.36-.42,2.41,2.41,0,0,0,.06-.71,2.08,2.08,0,0,0-.26-1.28,1,1,0,0,0-.82-.31h-.18c-.11,0-.17,0-.17-.11s.06-.14.19-.14h.31l1.33,0,1.63,0c.09,0,.13,0,.13.12s-.05.13-.15.14a1.53,1.53,0,0,0-.59.16.5.5,0,0,0-.28.28,1.73,1.73,0,0,0-.06.54,8.86,8.86,0,0,1-.06,1.52,4,4,0,0,1-1.1.62,4.69,4.69,0,0,1-2.07.49,4.17,4.17,0,0,1-2.94-1.12,3.61,3.61,0,0,1-1.23-2.81A4,4,0,0,1,162.9,126a4.37,4.37,0,0,1,2-.53,4.79,4.79,0,0,1,2.11.56,1.15,1.15,0,0,0,.45.16.31.31,0,0,0,.28-.16c.06-.09.11-.13.16-.13s.14.11.16.34.08.91.17,1.65a.38.38,0,0,1,0,.1C168.28,128.06,168.24,128.1,168.16,128.1Z"/><path d="M171.12,125.56l1.08,0,1.64,0c.2,0,.29,0,.29.12s0,.1-.15.11c-.44.06-.71.21-.82.47a13.09,13.09,0,0,0-.16,2.89c0,.61,0,1.3.05,2.07a10.31,10.31,0,0,0,.1,1.37.68.68,0,0,0,.23.36,1.15,1.15,0,0,0,.61.21c.1,0,.14.05.14.11s0,.1-.13.1h-1.46l-1.25,0c-.13,0-.2,0-.2-.12s0-.12.16-.12c.37,0,.58-.13.64-.37a13.09,13.09,0,0,0,.1-2.26c0-1.23,0-2.23,0-3a3.76,3.76,0,0,0-.2-1.4.8.8,0,0,0-.6-.32c-.11,0-.16-.06-.16-.13S171,125.56,171.12,125.56Z"/><path d="M179.51,125.47h.28c.43.9,1,2.44,1.81,4.63a20.3,20.3,0,0,0,1,2.57,1.06,1.06,0,0,0,.89.53c.13,0,.2.06.2.13s0,.09-.1.09h-.09c-.36,0-.82,0-1.37,0-.86,0-1.41,0-1.65,0s-.18,0-.18-.1,0-.09.13-.1a1.61,1.61,0,0,0,.69-.17.43.43,0,0,0,.2-.39,5.72,5.72,0,0,0-.36-1.27l-.35-1-2.74,0a9.09,9.09,0,0,0-.61,2.06.56.56,0,0,0,.31.54,1.43,1.43,0,0,0,.59.2c.15,0,.22.05.22.13s0,.06-.07.08l-1.14,0c-.65,0-1.1,0-1.33,0s-.18,0-.18-.11,0-.1.16-.12a1.36,1.36,0,0,0,1-.92q.36-.84,1.11-3C178.46,127.93,179,126.67,179.51,125.47Zm-.23,1.29A28.5,28.5,0,0,0,178,130l.87,0,1.65,0c-.14-.41-.34-1-.61-1.63S179.38,127,179.28,126.76Z"/><path d="M187.49,126l-.65,0a2.61,2.61,0,0,0-1.84.54,2,2,0,0,0-.66,1,.16.16,0,0,1-.16.14.13.13,0,0,1-.11,0,14.89,14.89,0,0,1,.23-1.9h.35c.31,0,.72,0,1.23,0s1.4,0,2.55,0,1.92,0,2.28,0,.76,0,1.32,0a8.16,8.16,0,0,1,.1.88,5.93,5.93,0,0,0,.07.74v.1q0,.15-.12.15a.21.21,0,0,1-.13,0,3.44,3.44,0,0,1-.22-.34,2.72,2.72,0,0,0-.64-.72,1.65,1.65,0,0,0-.73-.32,12.23,12.23,0,0,0-1.65-.09c0,.59-.07,1.27-.07,2a33.66,33.66,0,0,0,.16,4.47c.11.46.5.68,1.16.68.16,0,.24,0,.24.1s-.07.12-.23.12h-3.62c-.09,0-.14,0-.14-.11s.1-.11.28-.11a1,1,0,0,0,.75-.27,1.06,1.06,0,0,0,.33-.71c0-.3,0-1.16,0-2.59C187.61,128.34,187.57,127.14,187.49,126Z"/><path d="M193.9,125.62h2.95c.17,0,.25,0,.25.11s-.06.11-.18.12a1.08,1.08,0,0,0-.62.23,1.27,1.27,0,0,0-.31.67,13.69,13.69,0,0,0-.1,2.05,21.36,21.36,0,0,0,.11,2.62,1.68,1.68,0,0,0,.68,1.15,2.53,2.53,0,0,0,1.56.43,2.69,2.69,0,0,0,1.58-.39,1.85,1.85,0,0,0,.7-1.18,20.89,20.89,0,0,0,.17-3.39,3.67,3.67,0,0,0-.28-1.76.92.92,0,0,0-.82-.42c-.14,0-.22,0-.22-.12s.1-.12.29-.12H202q.15,0,.15.12c0,.05,0,.09-.13.1a1.12,1.12,0,0,0-.65.28,1.38,1.38,0,0,0-.27.8,14.16,14.16,0,0,0-.07,1.68A22.58,22.58,0,0,1,201,131a3.06,3.06,0,0,1-.45,1.45,2.44,2.44,0,0,1-1,.77,4.42,4.42,0,0,1-1.69.29,4.16,4.16,0,0,1-1.74-.33,1.89,1.89,0,0,1-1-.87,4,4,0,0,1-.25-1.62l0-1.64a10.31,10.31,0,0,0-.19-2.67.77.77,0,0,0-.79-.5c-.14,0-.2,0-.2-.1S193.74,125.62,193.9,125.62Z"/><path d="M208.15,129.4a2.93,2.93,0,0,1,1.13.74,2.59,2.59,0,0,1,.47,1.2,3,3,0,0,0,.55,1.43,1.26,1.26,0,0,0,.92.39c.11,0,.16.05.16.12s-.06.1-.18.1a10.28,10.28,0,0,1-2-.11c-.23-.07-.4-.48-.52-1.21a8.39,8.39,0,0,0-.33-1.56,1.55,1.55,0,0,0-.55-.76,2.1,2.1,0,0,0-1.19-.26,4.6,4.6,0,0,0-.69.06q0,.38,0,.78c0,1,0,1.66,0,2a1,1,0,0,0,.25.65,1,1,0,0,0,.7.21c.14,0,.21,0,.21.11s-.09.11-.26.11h-2.91c-.17,0-.26,0-.26-.11s.07-.11.2-.11a1.1,1.1,0,0,0,.63-.13,1,1,0,0,0,.27-.42,4,4,0,0,0,.1-1V128.5a18.07,18.07,0,0,0-.06-1.86,1.07,1.07,0,0,0-.22-.61,1.45,1.45,0,0,0-.74-.24c-.08,0-.12-.05-.12-.1s.08-.1.25-.1l3.48-.08a3.19,3.19,0,0,1,2.09.56,1.7,1.7,0,0,1,.65,1.36,1.76,1.76,0,0,1-.26.93,1.64,1.64,0,0,1-.62.61A7.61,7.61,0,0,1,208.15,129.4Zm-2.23-.15a9,9,0,0,0,1.69-.16,1.75,1.75,0,0,0,1-.6,1.6,1.6,0,0,0,.4-1.1,1.71,1.71,0,0,0-.44-1.16,1.82,1.82,0,0,0-1.41-.5,5.63,5.63,0,0,0-1.17.14c0,1.09-.07,1.95-.07,2.6C205.88,128.69,205.89,129,205.92,129.25Z"/><path d="M219,125.69a15.68,15.68,0,0,1,.34,1.86s0,0-.06,0a.14.14,0,0,1-.09,0,4.7,4.7,0,0,0-.78-1,2.32,2.32,0,0,0-.74-.49,3.92,3.92,0,0,0-1.29-.14,7.06,7.06,0,0,0-1.36.1.36.36,0,0,0-.05.21,1,1,0,0,1,0,.15c0,.32-.06,1.17-.06,2.56,0,.06,0,.15,0,.25l.61,0a2,2,0,0,0,1.07-.22,1.84,1.84,0,0,0,.58-1c0-.09.07-.13.12-.13s.11.06.11.18l0,.23c0,.31-.05.64-.05,1,0,.54,0,1,0,1.45,0,.13,0,.2-.11.2s-.09-.05-.11-.14a1.54,1.54,0,0,0-.52-1,3.16,3.16,0,0,0-1.71-.3c0,.28,0,.75,0,1.39a8.32,8.32,0,0,0,.09,1.59.87.87,0,0,0,.42.53,2.27,2.27,0,0,0,1.14.2c1.52,0,2.51-.53,2.95-1.58.06-.13.11-.2.17-.2s.09,0,.09.13a.4.4,0,0,1,0,.15c0,.08-.08.36-.17.84,0,.11-.09.41-.22.93h-2.47c-.35,0-.87,0-1.55,0s-1.29,0-1.82,0a4.83,4.83,0,0,1-.83,0,.09.09,0,0,1,0-.07c0-.08.06-.12.19-.12.44,0,.73-.11.86-.34a4.15,4.15,0,0,0,.21-1.7v-1.21l0-1.14c0-.23,0-.66,0-1.29a9.69,9.69,0,0,0-.07-1.09.46.46,0,0,0-.18-.27,1.78,1.78,0,0,0-.66-.27c-.1,0-.16-.07-.16-.13s.07-.11.21-.11l1.2.07q.63,0,3.12,0Z"/><polygon class="cls-1" points="101.95 10.06 101.95 10.06 89.31 27.06 114.53 27.12 101.95 10.06"/><polygon class="cls-1" points="101.96 16.56 101.96 16.56 85.94 38.1 117.89 38.17 101.96 16.56"/><polygon class="cls-1" points="157.32 10.06 157.32 10.06 144.67 27.07 169.89 27.12 157.32 10.06"/><polygon class="cls-1" points="157.32 16.57 157.32 16.57 141.3 38.11 173.25 38.18 157.32 16.57"/><polygon class="cls-1" points="177.83 40.93 177.83 40.93 164.85 61.22 190.72 61.27 177.83 40.93"/><polygon class="cls-1" points="177.83 48.69 177.83 48.69 161.39 74.38 194.16 74.45 177.83 48.69"/><polygon class="cls-1" points="177.84 57.45 177.84 57.45 157.97 89.95 197.56 90.03 177.84 57.45"/><polygon class="cls-1" points="81.46 40.95 81.46 40.95 68.48 61.24 94.35 61.29 81.46 40.95"/><polygon class="cls-1" points="81.47 48.71 81.47 48.71 65.02 74.4 97.79 74.47 81.47 48.71"/><polygon class="cls-1" points="81.47 57.47 81.47 57.47 61.61 89.97 101.19 90.05 81.47 57.47"/><polygon class="cls-1" points="129.64 0 129.64 0 115.58 25.2 143.6 25.26 129.64 0"/><polygon class="cls-1" points="129.65 12.96 129.65 12.96 109.58 41.44 149.59 41.52 129.65 12.96"/><polygon class="cls-1" points="101.97 23.91 101.97 23.91 82.62 49.93 121.2 50.01 101.97 23.91"/><polygon class="cls-1" points="157.33 23.92 157.33 23.92 137.01 49.94 176.56 50.02 157.33 23.92"/><polygon class="cls-1" points="129.65 22.67 129.65 22.67 102.57 57.06 156.57 57.18 129.65 22.67"/><rect class="cls-1" x="119.26" y="70.46" width="21" height="19.54"/><path class="cls-1" d="M81.61,48V90h34.65V67.46h27V90h34.35V48Zm63.26,19.29L129.7,62.55l-15.44,4.83-.89-2.87,16.5-5.05,8.39,2.63V57.46h3V63l4.51,1.41Z"/><path d="M11.22,101h-.61c0-.58.06-1.05.06-1.4A3,3,0,0,0,10,97.43a2.34,2.34,0,0,0-1.66-.62,4.68,4.68,0,0,0-2.78,1.08,8.55,8.55,0,0,0-2.48,3.38,11.41,11.41,0,0,0-1,4.73,5.84,5.84,0,0,0,1,3.6,3,3,0,0,0,2.42,1.25c1.32,0,2.52-.79,3.62-2.36a.45.45,0,0,1,.35-.24.37.37,0,0,1,.25.1.32.32,0,0,1,.1.22A2.81,2.81,0,0,1,9,109.76a6.07,6.07,0,0,1-1.89,1.47,4.78,4.78,0,0,1-2.24.59,4.68,4.68,0,0,1-2.47-.69,4.59,4.59,0,0,1-1.77-2,6.82,6.82,0,0,1-.63-3,10.41,10.41,0,0,1,1.29-4.9,10.27,10.27,0,0,1,3.23-3.76,6.72,6.72,0,0,1,3.79-1.32,5.78,5.78,0,0,1,1.31.14c.19,0,1,.3,2.32.78A14.8,14.8,0,0,0,11.22,101Z"/><path d="M26.91,109.12l-.15.64c-.38,0-.67.07-.87.07s-.76,0-1.29-.08a14,14,0,0,0-1.46-.08,3.32,3.32,0,0,0-1,.16c.31-.87.66-2.06,1.06-3.6l.87-3.37L21,103c-.54,0-1.09.07-1.65.12a19,19,0,0,1-1.57,4.43,6,6,0,0,1-1.86,2.12,3.69,3.69,0,0,1-2,.68,2.79,2.79,0,0,1-1.6-.45.92.92,0,0,1-.48-.78.65.65,0,0,1,.19-.48.61.61,0,0,1,.46-.2c.29,0,.59.21.9.62a1.93,1.93,0,0,0,.46.48.71.71,0,0,0,.39.1q.87,0,1.65-1.41a42.81,42.81,0,0,0,2.26-7l1.1-4.11a6.32,6.32,0,0,0-3.39.74,2.07,2.07,0,0,0-1.13,1.68,1.54,1.54,0,0,0,.31.79,1.57,1.57,0,0,1,.27.73.73.73,0,0,1-.21.54.72.72,0,0,1-.53.2.82.82,0,0,1-.67-.37,1.81,1.81,0,0,1-.28-1.1,3.25,3.25,0,0,1,.94-2.3,5.25,5.25,0,0,1,2.75-1.41,22.51,22.51,0,0,1,4.14-.24,30.39,30.39,0,0,0-1.87,5.8,40.38,40.38,0,0,0,4.7-.22A23.38,23.38,0,0,1,26,97.4a5.12,5.12,0,0,1,1.67-1.86A3.92,3.92,0,0,1,29.76,95a2.66,2.66,0,0,1,1.53.37,1,1,0,0,1,.53.86.59.59,0,0,1-.19.46.67.67,0,0,1-.49.18,1.31,1.31,0,0,1-.89-.56,1.38,1.38,0,0,0-.9-.56c-.56,0-1.12.52-1.66,1.56Q26.22,100.07,24.3,109l.53.08a6.94,6.94,0,0,0,1,.11A6,6,0,0,0,26.91,109.12Z"/><path d="M43.26,109.13l-.11.64-.71,0c-.29,0-.64,0-1.06-.06-.7-.08-1.15-.12-1.34-.12a10.64,10.64,0,0,0-1.45.15,13.17,13.17,0,0,0,.58-1.84,18.61,18.61,0,0,0,.36-2.36q-1.31,0-4.08.06a29.39,29.39,0,0,1-4.2,5.47,4,4,0,0,1-2.54,1.12,1.54,1.54,0,0,1-.95-.24.78.78,0,0,1-.31-.63.65.65,0,0,1,.19-.48.58.58,0,0,1,.45-.19,2.08,2.08,0,0,1,.42.06,5.33,5.33,0,0,0,.91.15,2.57,2.57,0,0,0,1.66-.85,36.17,36.17,0,0,0,4.39-5.84,66.89,66.89,0,0,1,5.33-7.32,21.16,21.16,0,0,0-3.47.47,2.79,2.79,0,0,0-1.41.9,1.9,1.9,0,0,0-.48,1.21,1.65,1.65,0,0,0,.15.57,1.87,1.87,0,0,1,.16.61.65.65,0,0,1-.19.44.68.68,0,0,1-.47.19.75.75,0,0,1-.61-.29,1.38,1.38,0,0,1-.23-.86,3.15,3.15,0,0,1,.42-1.56,3.58,3.58,0,0,1,1.21-1.27,6.24,6.24,0,0,1,2-.78A14.35,14.35,0,0,1,40,96.25,11.59,11.59,0,0,0,41.67,96a2.4,2.4,0,0,0,1-.57,24.39,24.39,0,0,0-.48,2.42l-.88,6.49L40.81,109a6.13,6.13,0,0,0,1.5.21A4.73,4.73,0,0,0,43.26,109.13Zm-3.62-4.39a56,56,0,0,1,1.08-6.66c-.95,1.26-1.54,2-1.77,2.38l-2.89,4.28c.62,0,1.51,0,2.66,0Z"/><path d="M45.61,109.81l.14-.6a4.3,4.3,0,0,0,1.58-.52,2.37,2.37,0,0,0,.72-1,22.31,22.31,0,0,0,.87-3.08,29.81,29.81,0,0,1,1.33-4.45,7.41,7.41,0,0,1,2.27-3,4.64,4.64,0,0,1,2.75-1,2.47,2.47,0,0,1,1.5.45,1.22,1.22,0,0,1,.6.93.63.63,0,0,1-.18.46.58.58,0,0,1-.45.19,1.38,1.38,0,0,1-.82-.43,4.29,4.29,0,0,0-.84-.62,1.25,1.25,0,0,0-.58-.15,1.3,1.3,0,0,0-.64.18,3.44,3.44,0,0,0-.94.94,9.81,9.81,0,0,0-1,2c-.23.61-.53,1.62-.89,3a44.84,44.84,0,0,1-1.29,4.46,4.5,4.5,0,0,1-.76,1.3,12.86,12.86,0,0,1,2.56-.34,7.68,7.68,0,0,1,1.11.07q.51.07,1.77.36a7.37,7.37,0,0,0,1.53.26,1.09,1.09,0,0,0,.73-.26.79.79,0,0,0,.29-.61,1.74,1.74,0,0,0-.15-.59,1.64,1.64,0,0,1-.15-.58.65.65,0,0,1,.18-.48.63.63,0,0,1,.47-.17.73.73,0,0,1,.58.29,1.27,1.27,0,0,1,.24.82,2.14,2.14,0,0,1-.82,1.68,3.22,3.22,0,0,1-2.19.71c-.46,0-1.05,0-1.77-.1-2.44-.22-4-.33-4.78-.33A21.09,21.09,0,0,0,45.61,109.81Z"/><path d="M74.25,98.86h-.6a6.11,6.11,0,0,0,.09-.91.56.56,0,0,0-.38-.58,14,14,0,0,0-2.85-.14H68.87l-1.24,5H70a3.46,3.46,0,0,0,1.36-.16,1.22,1.22,0,0,0,.37-.82h.64c-.24.91-.46,1.9-.64,3H71.1a7.82,7.82,0,0,0,.06-.82.49.49,0,0,0-.16-.3.52.52,0,0,0-.29-.13,5.69,5.69,0,0,0-.95,0H67.45a32.16,32.16,0,0,1-2.08,6,6.6,6.6,0,0,1,1.86-.32,16.37,16.37,0,0,1,3.32.42,7.67,7.67,0,0,0,1.41.24,1.2,1.2,0,0,0,.8-.25.71.71,0,0,0,.3-.56,1.94,1.94,0,0,0-.15-.58,1.7,1.7,0,0,1-.1-.52.6.6,0,0,1,.21-.46.68.68,0,0,1,.5-.2.72.72,0,0,1,.58.27,1,1,0,0,1,.24.71,2.16,2.16,0,0,1-.84,1.68,3.29,3.29,0,0,1-2.22.72,15.55,15.55,0,0,1-1.83-.13,36.06,36.06,0,0,0-3.7-.27,33.07,33.07,0,0,0-3.9.27l.18-.62a8,8,0,0,0,1.58-.54,1.28,1.28,0,0,0,.39-.51A26.22,26.22,0,0,0,65.4,104q.87-3.21,1.75-6.78a5.37,5.37,0,0,0-2.56.64,5,5,0,0,0-1.88,1.66,3.9,3.9,0,0,0-.68,2.16,3,3,0,0,0,.1.84,4.78,4.78,0,0,0,.43,1,1.47,1.47,0,0,1,.21.64.57.57,0,0,1-.2.44.72.72,0,0,1-.51.19.8.8,0,0,1-.7-.44,3.45,3.45,0,0,1-.38-1.74,6,6,0,0,1,1.79-4.23A6.9,6.9,0,0,1,68,96.46h3.87a12,12,0,0,0,3-.26C74.52,97.45,74.33,98.34,74.25,98.86Z"/><path d="M86.51,109l-.16.64a5.77,5.77,0,0,1-1.27.17c-.32,0-.84,0-1.57-.1-.55,0-1-.07-1.47-.07a13.45,13.45,0,0,0-2.33.21l.16-.62a3.7,3.7,0,0,0,1.66-.47,2,2,0,0,0,.63-.89q.27-.61,1.2-4.35l1.45-6,.08-.28-1,0a9.77,9.77,0,0,0-3.3.45A3.77,3.77,0,0,0,78.74,99a3.12,3.12,0,0,0-.62,1.85,1.7,1.7,0,0,0,.13.64,3.2,3.2,0,0,0,.49.65,1.18,1.18,0,0,1,.39.76.68.68,0,0,1-.23.52.73.73,0,0,1-.54.22.87.87,0,0,1-.76-.45,3,3,0,0,1-.43-1.69A4.76,4.76,0,0,1,78,98.83a5.65,5.65,0,0,1,2.34-2A8.36,8.36,0,0,1,84,96.12a27.18,27.18,0,0,1,3.24.3,21.34,21.34,0,0,0,2.28.2,1.63,1.63,0,0,0,1-.24.76.76,0,0,0,.29-.63s0-.15,0-.31a1.59,1.59,0,0,1,0-.28.69.69,0,0,1,.21-.51.66.66,0,0,1,.48-.2.7.7,0,0,1,.56.25,1,1,0,0,1,.22.66,1.78,1.78,0,0,1-.91,1.47,5.68,5.68,0,0,1-3,.62c-.51,0-1.06,0-1.64-.07l-.71,2.74-1,3.89-.6,2.37-.62,2.7a10.88,10.88,0,0,0,1.25.09A6.87,6.87,0,0,0,86.51,109Z"/><path d="M100,100.5h-.58c.08-.78.12-1.38.12-1.78a1.94,1.94,0,0,0-.46-1.37,1.69,1.69,0,0,0-1.27-.5,3,3,0,0,0-2.16.9,2.73,2.73,0,0,0-.92,2,2.26,2.26,0,0,0,.25,1.08,6.36,6.36,0,0,0,1.12,1.35,12.9,12.9,0,0,1,2.08,2.43,3.43,3.43,0,0,1,.49,1.71,4.31,4.31,0,0,1-.74,2.36,5.65,5.65,0,0,1-2.21,1.87,6.8,6.8,0,0,1-3.09.74,4.3,4.3,0,0,1-2.69-.84,2.24,2.24,0,0,1-1.1-1.75,1.2,1.2,0,0,1,.28-.82.9.9,0,0,1,.66-.32.77.77,0,0,1,.63.3,2,2,0,0,1,.32.81,3,3,0,0,0,.44,1.1,1.9,1.9,0,0,0,.72.57,2.32,2.32,0,0,0,1,.22,4.09,4.09,0,0,0,2.82-1.09,3.2,3.2,0,0,0,1.21-2.4,2.74,2.74,0,0,0-.16-.89,3.73,3.73,0,0,0-.56-1A14.49,14.49,0,0,0,95,103.82a13.47,13.47,0,0,1-1.2-1.29,4.1,4.1,0,0,1-.52-1,3.29,3.29,0,0,1-.17-1,3.68,3.68,0,0,1,.69-2.06,5.12,5.12,0,0,1,1.78-1.65,5.06,5.06,0,0,1,2.5-.61,8.75,8.75,0,0,1,1.72.21c.4.08.73.13,1,.17a11.15,11.15,0,0,0-.38,1.38C100.33,98.37,100.2,99.22,100,100.5Z"/><path d="M121.91,109.13l-.11.64-.71,0c-.3,0-.65,0-1.06-.06-.71-.08-1.16-.12-1.34-.12a10.75,10.75,0,0,0-1.46.15,13.19,13.19,0,0,0,.59-1.84,23.3,23.3,0,0,0,.36-2.36q-1.32,0-4.08.06a29.75,29.75,0,0,1-4.21,5.47,4,4,0,0,1-2.54,1.12,1.53,1.53,0,0,1-.94-.24.75.75,0,0,1-.31-.63.68.68,0,0,1,.18-.48.58.58,0,0,1,.45-.19,2.07,2.07,0,0,1,.43.06,5.27,5.27,0,0,0,.9.15,2.59,2.59,0,0,0,1.67-.85,36.78,36.78,0,0,0,4.39-5.84,65.57,65.57,0,0,1,5.33-7.32,21,21,0,0,0-3.47.47,2.86,2.86,0,0,0-1.42.9,2,2,0,0,0-.47,1.21,1.65,1.65,0,0,0,.15.57,2.07,2.07,0,0,1,.15.61.61.61,0,0,1-.19.44.66.66,0,0,1-.46.19.74.74,0,0,1-.61-.29,1.32,1.32,0,0,1-.24-.86,3.16,3.16,0,0,1,.43-1.56,3.49,3.49,0,0,1,1.21-1.27,6.14,6.14,0,0,1,2-.78,14.35,14.35,0,0,1,2.14-.26,11.14,11.14,0,0,0,1.67-.22,2.5,2.5,0,0,0,1-.57c-.23.92-.39,1.73-.49,2.42l-.88,6.49-.51,4.65a6.26,6.26,0,0,0,1.5.21A4.9,4.9,0,0,0,121.91,109.13Zm-3.63-4.39a56,56,0,0,1,1.08-6.66c-1,1.26-1.54,2-1.76,2.38l-2.9,4.28q.93,0,2.67,0Z"/><path d="M131.47,103.2l-1.51,6a5.33,5.33,0,0,0,.86.08,5.26,5.26,0,0,0,1.23-.17l-.11.55a5.93,5.93,0,0,1-1.18.16c-.29,0-.72,0-1.29-.08s-.92-.08-1.25-.08a10.06,10.06,0,0,0-2.08.26l.17-.63a4.89,4.89,0,0,0,1.61-.61,3.29,3.29,0,0,0,.86-1.7l1.58-6.28a9.59,9.59,0,0,0,.29-1.41.34.34,0,0,0-.14-.31,1.13,1.13,0,0,0-.55-.09l.14-.54a11.29,11.29,0,0,0,2.72-.41c-.09.28-.21.7-.35,1.26l-.85,3.31a5,5,0,0,0,.92.11,3.34,3.34,0,0,0,2.41-1,3.15,3.15,0,0,0,1-2.33,2.16,2.16,0,0,0-.8-1.72,3.31,3.31,0,0,0-2.19-.67,7.59,7.59,0,0,0-3.46.85A6.49,6.49,0,0,0,127,99.85a4.69,4.69,0,0,0-.84,2.64,2.3,2.3,0,0,0,.87,1.8,3.23,3.23,0,0,1,.54.54.75.75,0,0,1,.1.36.57.57,0,0,1-.18.41.61.61,0,0,1-.42.17,1.32,1.32,0,0,1-1.09-.71,4,4,0,0,1-.61-2.26,5.87,5.87,0,0,1,1-3.23,7.09,7.09,0,0,1,2.9-2.47,9,9,0,0,1,4.09-1,6.56,6.56,0,0,1,3.31.76,2.42,2.42,0,0,1,1.29,2.22,3.56,3.56,0,0,1-1.19,2.57,5.7,5.7,0,0,1-3.27,1.53c.35.69.57,1.15.67,1.39.16.41.4,1.09.72,2a14.51,14.51,0,0,0,2.35,4.74,2.62,2.62,0,0,0,2,1,1.32,1.32,0,0,0,1.39-1,2,2,0,0,1,.33-.75.7.7,0,0,1,.49-.21.59.59,0,0,1,.45.2.6.6,0,0,1,.19.46,1.76,1.76,0,0,1-.77,1.32,3,3,0,0,1-2,.63,4.44,4.44,0,0,1-2.09-.53,6.18,6.18,0,0,1-1.93-1.72,12,12,0,0,1-1.64-2.88c-.23-.56-.58-1.59-1-3.09-.27-.91-.43-1.46-.5-1.64l-.28,0A1.74,1.74,0,0,0,131.47,103.2Z"/><path d="M153.57,100.7H153a8.61,8.61,0,0,0,.06-.94,2.59,2.59,0,0,0-2.72-2.91,5.68,5.68,0,0,0-3.19,1.08,8,8,0,0,0-2.62,3,8.41,8.41,0,0,0-1,4,4.24,4.24,0,0,0,1,3.12,3.13,3.13,0,0,0,2.26,1,5.19,5.19,0,0,0,2.73-.78,11,11,0,0,0,.52-2.34.54.54,0,0,0-.21-.45,1.33,1.33,0,0,0-.74-.16l-.87.06.1-.55a5.63,5.63,0,0,1,1-.09c.28,0,.61,0,1,0H151c.27,0,.68,0,1.23-.07l.76,0-.12.57a1,1,0,0,0-.81.24,3.42,3.42,0,0,0-.5,1.32,25.89,25.89,0,0,1-1.83,5.54,6.23,6.23,0,0,1-2,2.46,4.42,4.42,0,0,1-2.47.75,3,3,0,0,1-1.82-.51,1.4,1.4,0,0,1-.69-1.07.73.73,0,0,1,.22-.52.7.7,0,0,1,.5-.21,1.29,1.29,0,0,1,.87.54,4.64,4.64,0,0,0,.86.78,1.31,1.31,0,0,0,.66.18,1.68,1.68,0,0,0,1.25-.55c.74-.72,1.46-2.41,2.18-5a7.13,7.13,0,0,1-1.51.61,5.94,5.94,0,0,1-1.57.21,4.47,4.47,0,0,1-3.12-1,5,5,0,0,1-1.52-3.89,8.36,8.36,0,0,1,1.15-4.26,9.38,9.38,0,0,1,3.22-3.29,7.39,7.39,0,0,1,3.9-1.29,10.55,10.55,0,0,1,2.35.32,11.55,11.55,0,0,0,2.08.31A13.8,13.8,0,0,0,153.57,100.7Z"/><path d="M169.23,98.86h-.59a6.11,6.11,0,0,0,.09-.91.56.56,0,0,0-.38-.58,14,14,0,0,0-2.85-.14h-1.65l-1.24,5h2.33a3.46,3.46,0,0,0,1.36-.16,1.18,1.18,0,0,0,.36-.82h.65c-.24.91-.46,1.9-.65,3h-.57a7.82,7.82,0,0,0,.06-.82.55.55,0,0,0-.16-.3.56.56,0,0,0-.3-.13,5.49,5.49,0,0,0-.94,0h-2.31a32.16,32.16,0,0,1-2.08,6,6.6,6.6,0,0,1,1.86-.32,16.37,16.37,0,0,1,3.32.42,7.67,7.67,0,0,0,1.41.24,1.22,1.22,0,0,0,.8-.25.71.71,0,0,0,.3-.56,1.94,1.94,0,0,0-.15-.58,1.45,1.45,0,0,1-.1-.52.6.6,0,0,1,.21-.46.68.68,0,0,1,.5-.2.72.72,0,0,1,.58.27,1,1,0,0,1,.23.71,2.16,2.16,0,0,1-.84,1.68,3.28,3.28,0,0,1-2.21.72,15.55,15.55,0,0,1-1.83-.13,36.25,36.25,0,0,0-3.7-.27,33.07,33.07,0,0,0-3.9.27l.18-.62a7.55,7.55,0,0,0,1.57-.54,1.3,1.3,0,0,0,.4-.51,26.22,26.22,0,0,0,1.4-4.27c.57-2.14,1.16-4.4,1.75-6.78a5.34,5.34,0,0,0-2.56.64,4.92,4.92,0,0,0-1.88,1.66,3.83,3.83,0,0,0-.68,2.16,3.49,3.49,0,0,0,.09.84,5.58,5.58,0,0,0,.44,1,1.47,1.47,0,0,1,.21.64.6.6,0,0,1-.2.44.72.72,0,0,1-.51.19.78.78,0,0,1-.7-.44,3.45,3.45,0,0,1-.38-1.74,6,6,0,0,1,1.79-4.23A6.9,6.9,0,0,1,163,96.46h3.86a12,12,0,0,0,3-.26C169.51,97.45,169.32,98.34,169.23,98.86Z"/><path d="M180.64,96.1l.31,1.32c.3,1.19.59,2.24.87,3.14s1,3,2.2,6.23c.11-.41.34-1.32.68-2.74.43-1.84.72-3,.86-3.47a14.47,14.47,0,0,1,1.22-3,4,4,0,0,1,1.31-1.41,3.17,3.17,0,0,1,1.63-.42,1.87,1.87,0,0,1,1.12.28.82.82,0,0,1,.39.67.7.7,0,0,1-.21.5.67.67,0,0,1-.49.21,1.37,1.37,0,0,1-.47-.11c-.38-.15-.6-.24-.68-.26a2,2,0,0,0-.44,0,1.36,1.36,0,0,0-.94.37,8.73,8.73,0,0,0-1.54,3.27q-.84,2.63-2.14,8.37l-.38,1.67c-.86-1.88-1.43-3.21-1.74-4q-.6-1.58-1.38-4l-1.24-3.89c-.15.9-.5,2.41-1.05,4.54s-.88,3.36-1,3.68a8.6,8.6,0,0,1-1.11,2.33,3.93,3.93,0,0,1-1.29,1.18,3.38,3.38,0,0,1-1.55.37,2.93,2.93,0,0,1-1.74-.48,1,1,0,0,1-.52-.88.59.59,0,0,1,.19-.42.64.64,0,0,1,.47-.19,1.15,1.15,0,0,1,.75.37,2.06,2.06,0,0,0,1.32.66,1.86,1.86,0,0,0,1.26-.57,8.91,8.91,0,0,0,1.78-3.67,78.71,78.71,0,0,0,2-8.58,9.09,9.09,0,0,0-1.51.22,6.39,6.39,0,0,0-1.87.64A3,3,0,0,0,174.57,99a2.62,2.62,0,0,0-.4,1.37,3.13,3.13,0,0,0,.1.73,2.59,2.59,0,0,0,.3.61,1.32,1.32,0,0,1,.25.63.62.62,0,0,1-.19.46.71.71,0,0,1-.49.19.86.86,0,0,1-.73-.45,2.32,2.32,0,0,1-.31-1.35,4.31,4.31,0,0,1,.76-2.56,4.69,4.69,0,0,1,2-1.59,14.21,14.21,0,0,1,3.13-.66A14.48,14.48,0,0,0,180.64,96.1Z"/><path d="M199.22,109l-.15.64a5.85,5.85,0,0,1-1.28.17c-.31,0-.84,0-1.56-.1-.55,0-1-.07-1.48-.07a13.43,13.43,0,0,0-2.32.21l.16-.62a3.65,3.65,0,0,0,1.65-.47,2,2,0,0,0,.64-.89q.27-.61,1.2-4.35l1.44-6,.08-.28-1,0a9.88,9.88,0,0,0-3.31.45,3.82,3.82,0,0,0-1.84,1.3,3.11,3.11,0,0,0-.61,1.85,1.69,1.69,0,0,0,.12.64,3.38,3.38,0,0,0,.5.65,1.16,1.16,0,0,1,.38.76.67.67,0,0,1-.22.52.73.73,0,0,1-.54.22.89.89,0,0,1-.77-.45,3,3,0,0,1-.43-1.69,4.84,4.84,0,0,1,.85-2.66,5.65,5.65,0,0,1,2.34-2,8.4,8.4,0,0,1,3.62-.71,27.23,27.23,0,0,1,3.23.3,21.48,21.48,0,0,0,2.29.2,1.59,1.59,0,0,0,1-.24.73.73,0,0,0,.29-.63s0-.15,0-.31a2.66,2.66,0,0,1,0-.28.69.69,0,0,1,.2-.51.67.67,0,0,1,.48-.2.69.69,0,0,1,.56.25.92.92,0,0,1,.22.66,1.76,1.76,0,0,1-.91,1.47,5.65,5.65,0,0,1-3.05.62c-.51,0-1.05,0-1.63-.07-.08.27-.31,1.19-.71,2.74l-1,3.89-.59,2.37-.63,2.7a11,11,0,0,0,1.26.09A6.79,6.79,0,0,0,199.22,109Z"/><path d="M216,98.86h-.6a6.11,6.11,0,0,0,.09-.91.55.55,0,0,0-.38-.58,13.92,13.92,0,0,0-2.84-.14h-1.65l-1.24,5h2.33A3.43,3.43,0,0,0,213,102a1.22,1.22,0,0,0,.37-.82H214c-.24.91-.45,1.9-.64,3h-.58a7.82,7.82,0,0,0,.06-.82.49.49,0,0,0-.16-.3.52.52,0,0,0-.29-.13,5.62,5.62,0,0,0-.95,0h-2.31a31.44,31.44,0,0,1-2.08,6,6.6,6.6,0,0,1,1.87-.32,16.29,16.29,0,0,1,3.31.42,7.67,7.67,0,0,0,1.41.24,1.2,1.2,0,0,0,.8-.25.71.71,0,0,0,.3-.56,1.94,1.94,0,0,0-.15-.58,1.67,1.67,0,0,1-.09-.52.6.6,0,0,1,.21-.46.65.65,0,0,1,.5-.2.74.74,0,0,1,.58.27,1.08,1.08,0,0,1,.23.71,2.16,2.16,0,0,1-.84,1.68A3.29,3.29,0,0,1,213,110a15.27,15.27,0,0,1-1.82-.13,36.25,36.25,0,0,0-3.7-.27,32.79,32.79,0,0,0-3.9.27l.17-.62a7.75,7.75,0,0,0,1.58-.54,1.4,1.4,0,0,0,.4-.51,27.28,27.28,0,0,0,1.4-4.27q.85-3.21,1.75-6.78a5.38,5.38,0,0,0-2.57.64,5,5,0,0,0-1.88,1.66,3.9,3.9,0,0,0-.68,2.16,3.45,3.45,0,0,0,.1.84,5.39,5.39,0,0,0,.43,1,1.38,1.38,0,0,1,.22.64.58.58,0,0,1-.21.44.72.72,0,0,1-.51.19.78.78,0,0,1-.69-.44,3.35,3.35,0,0,1-.38-1.74,5.94,5.94,0,0,1,1.79-4.23,6.87,6.87,0,0,1,5.21-1.88h3.87a11.92,11.92,0,0,0,3-.26C216.22,97.45,216,98.34,216,98.86Z"/><path d="M227.5,96.2a33.24,33.24,0,0,0-2.24,5.09,11.35,11.35,0,0,0-.78,3.66,3.76,3.76,0,0,0,.8,2.55,2.51,2.51,0,0,0,2,.91,4.25,4.25,0,0,0,2.12-.56,8,8,0,0,0,2.44-2.26,12.87,12.87,0,0,0,1.83-3.63,12.3,12.3,0,0,0,.71-4,5.54,5.54,0,0,0-.55-2.43l-.33-.69a1.27,1.27,0,0,1,0-.34.75.75,0,0,1,.21-.55.69.69,0,0,1,.51-.21.93.93,0,0,1,.84.56,5,5,0,0,1,.43,2.37,16.69,16.69,0,0,1-1.51,6.84,11.86,11.86,0,0,1-3.48,4.86,6.93,6.93,0,0,1-4.16,1.46,3.28,3.28,0,0,1-2.71-1.17,4.49,4.49,0,0,1-.95-2.89,10.26,10.26,0,0,1,.44-2.9,46.55,46.55,0,0,1,2.38-5.81,7.36,7.36,0,0,0-2.52.34,3.51,3.51,0,0,0-1.61,1,1.79,1.79,0,0,0-.49,1.16,1.36,1.36,0,0,0,.26.63,1.62,1.62,0,0,1,.27.72.77.77,0,0,1-.2.54.69.69,0,0,1-.51.21.82.82,0,0,1-.65-.34,1.33,1.33,0,0,1-.27-.87,3.39,3.39,0,0,1,.5-1.73,4.22,4.22,0,0,1,1.32-1.4,5.85,5.85,0,0,1,2-.77,19.63,19.63,0,0,1,2.44-.22C226.8,96.28,227.31,96.24,227.5,96.2Z"/><path d="M246.61,96.34l-.19.6a4.6,4.6,0,0,0-1.69.32,1.2,1.2,0,0,0-.45.47c-.14.27-.56,1.7-1.25,4.29-.23.85-.8,3.19-1.72,7a6.07,6.07,0,0,0,2,.22l-.18.54a13,13,0,0,1-1.44-.09c-.52,0-1.12-.07-1.82-.07a14.23,14.23,0,0,0-2.62.22l.14-.6a7.46,7.46,0,0,0,1.88-.49.78.78,0,0,0,.24-.19,2.55,2.55,0,0,0,.37-.82c.13-.41.58-2.07,1.35-5q.33-1.27,1.37-5.55a9,9,0,0,0-1.9.21l.21-.61a6.37,6.37,0,0,1,1-.18c.33,0,1.08-.06,2.24-.09A21.06,21.06,0,0,0,246.61,96.34Z"/><path d="M247.12,109.81l.14-.6a4.16,4.16,0,0,0,1.58-.52,2.37,2.37,0,0,0,.72-1,21.87,21.87,0,0,0,.88-3.08,28.65,28.65,0,0,1,1.33-4.45,7.33,7.33,0,0,1,2.27-3,4.61,4.61,0,0,1,2.74-1,2.47,2.47,0,0,1,1.5.45,1.21,1.21,0,0,1,.61.93.6.6,0,0,1-.19.46.58.58,0,0,1-.44.19,1.33,1.33,0,0,1-.82-.43,4.29,4.29,0,0,0-.84-.62,1.28,1.28,0,0,0-.58-.15,1.27,1.27,0,0,0-.64.18,3.19,3.19,0,0,0-.94.94,9.35,9.35,0,0,0-1,2,28.49,28.49,0,0,0-.9,3,43,43,0,0,1-1.28,4.46,4.75,4.75,0,0,1-.77,1.3,12.86,12.86,0,0,1,2.57-.34,7.54,7.54,0,0,1,1.1.07q.51.07,1.77.36a7.37,7.37,0,0,0,1.53.26,1.09,1.09,0,0,0,.73-.26.8.8,0,0,0,.3-.61,1.58,1.58,0,0,0-.16-.59,1.64,1.64,0,0,1-.15-.58.65.65,0,0,1,.18-.48.66.66,0,0,1,.48-.17.73.73,0,0,1,.57.29,1.27,1.27,0,0,1,.24.82,2.16,2.16,0,0,1-.81,1.68,3.23,3.23,0,0,1-2.2.71c-.46,0-1.05,0-1.77-.1-2.43-.22-4-.33-4.78-.33A21.09,21.09,0,0,0,247.12,109.81Z"/><rect x="35.61" y="117" width="189" height="2"/></g></g></svg>