<svg xmlns="http://www.w3.org/2000/svg" viewBox="0 0 280.86 327.1"><defs><style>.cls-1,.cls-4{fill:none;stroke:#000;stroke-miterlimit:10;}.cls-1{stroke-width:2px;}.cls-2{font-size:24px;font-family:BerlinSansFBDemi-Bold, Berlin Sans FB Demi;font-weight:700;}.cls-3{fill:#8cc63f;}.cls-4{stroke-width:4px;}</style></defs><g id="Calque_2" data-name="Calque 2"><g id="Centre_de_villégiature" data-name="Centre de villégiature"><polygon class="cls-1" points="279.86 245.45 279.86 84.45 140.43 3.95 1 84.45 1 245.45 140.43 325.95 279.86 245.45"/><text class="cls-2" transform="translate(24.46 242.84)">Centre de villégiature</text><path class="cls-3" d="M241.89,71.28c0,48.32-41.5,87.5-41.5,87.5s-41.5-39.18-41.5-87.5S200.39.78,200.39.78,241.89,23,241.89,71.28Z"/><path class="cls-3" d="M122,70.5c0,48.32-41.5,87.5-41.5,87.5S39,118.82,39,70.5,80.47,0,80.47,0,122,22.18,122,70.5Z"/><line class="cls-4" x1="80.47" y1="118.5" x2="80.47" y2="227.5"/><line class="cls-4" x1="200.39" y1="118.5" x2="200.39" y2="227.5"/><line class="cls-4" x1="141.76" y1="98" x2="64.68" y2="147.04"/><line class="cls-4" x1="139.68" y1="98" x2="216.76" y2="147.04"/><path d="M65.58,252.74c-.57-1.83-1.37-3.92-4-3.92a2.64,2.64,0,0,0-2.75,2.77c0,1.58,1.06,2.52,3.58,3.78,3.06,1.52,5,3,5,5.84,0,3.37-2.81,5.83-6.9,5.83a16.64,16.64,0,0,1-4.81-.88c-.17-.66-.65-3.64-.85-5l1.11-.26c.57,1.8,2.18,4.92,5,4.92a2.63,2.63,0,0,0,2.8-2.92c0-1.66-1-2.63-3.43-3.92-3-1.6-4.92-3-4.92-6s2.34-5.38,6.64-5.38a21,21,0,0,1,4.09.51c.11,1.06.31,2.55.54,4.35Z"/><path d="M79,267a2.65,2.65,0,0,1-1.78-.6,2.93,2.93,0,0,1-.74-1.06,10.82,10.82,0,0,1-3,1.66,3.77,3.77,0,0,1-3.9-3.69c0-1.52.69-2.21,2.21-2.81,1.69-.63,4-1.31,4.6-1.89v-1.25c0-1.49-.54-2.32-1.77-2.32a1.39,1.39,0,0,0-1.14.57,5.36,5.36,0,0,0-.69,1.89,1.13,1.13,0,0,1-1.23,1,1.76,1.76,0,0,1-1.69-1.49c0-.51.34-.88,1-1.34a14,14,0,0,1,4.58-2,5,5,0,0,1,2.95.83,3.87,3.87,0,0,1,1.57,3.52v4.95c0,1.37.46,1.71.92,1.71a2,2,0,0,0,.88-.23l.32,1Zm-2.64-7.21-1.6.88a2.07,2.07,0,0,0-1.4,1.95,2,2,0,0,0,1.74,2.17,1.62,1.62,0,0,0,1.26-.45Z"/><path d="M82.92,266.61v-1c1.55-.2,1.72-.31,1.72-2.35v-5.57c0-1.92-.14-2-1.49-2.21v-.94a31,31,0,0,0,5.18-1v9.75c0,1.95.12,2.15,1.77,2.35v1Zm3.35-14.82a2.08,2.08,0,0,1-2.06-2,2.05,2.05,0,0,1,2.09-2,2,2,0,0,1,2.06,2A2.05,2.05,0,0,1,86.27,251.79Z"/><path d="M99.63,266.61v-1c1.2-.17,1.29-.29,1.29-2.26v-4.89c0-2-1-2.66-2-2.66a3.45,3.45,0,0,0-2.15.86v6.92c0,1.74.12,1.86,1.29,2v1H91.42v-1c1.49-.26,1.66-.29,1.66-2.14v-6c0-1.71-.23-1.8-1.49-2.06v-.91a29.39,29.39,0,0,0,5.24-1.09c0,.4-.06,1.4-.06,2.06.57-.4,1.17-.83,1.83-1.23a4,4,0,0,1,2.23-.74c2.32,0,3.78,1.68,3.78,4.6v5.41c0,1.77.17,1.86,1.55,2.06v1Z"/><path d="M113.51,266.64a3.18,3.18,0,0,1-1.15.32c-2.2,0-3.51-1-3.51-3.64v-8H107l-.17-.34.83-1.09h1.18v-2.37c1-.69,2.37-1.61,3.37-2.29l.37.23c0,.77-.08,2.28,0,4.43h2.86a1.25,1.25,0,0,1-.23,1.43h-2.63v7c0,2.23.91,2.49,1.45,2.49a3.53,3.53,0,0,0,1.38-.29l.28,1Z"/><path d="M124.55,261.12h-7.21l.23-2.23h7.21Z"/><path d="M142.92,261.75c-.14.77-.94,4.06-1.2,4.86H126.87v-1c2.6-.25,2.78-.4,2.78-2.8V251.85c0-2.43-.35-2.6-2.29-2.77V248h9.3c3,0,4,0,4.4-.06,0,.51.17,2.86.29,4.63l-1.12.15a7.08,7.08,0,0,0-1.23-2.66c-.51-.58-.89-.75-2.34-.75H134.8c-1.09,0-1.21.06-1.21,1v6h2.81c1.6,0,1.89-.43,2.31-2.46h1.12v6.38h-1.12c-.45-2.12-.68-2.46-2.34-2.46h-2.78v4.92c0,2,.06,2.58,1.83,2.61h2c1.6,0,2-.2,2.66-1a13.1,13.1,0,0,0,1.74-2.86Z"/><path d="M158.6,265.93c-1.72.23-3.55.6-5.44,1V265c-1.17,1-2.37,1.95-3.94,1.95-2.41,0-3.75-1.55-3.75-4.09v-5.93c0-1.31-.17-1.46-.95-1.66l-.6-.17v-.91c1.46-.06,3.72-.26,5.32-.49-.05,1.2-.08,2.69-.08,4.32v4.18c0,1.86.94,2.49,1.94,2.49a2.58,2.58,0,0,0,2.06-.83V257c0-1.31-.14-1.54-.94-1.69l-.86-.17v-.91a54,54,0,0,0,5.52-.49V263c0,1.48.18,1.8,1.09,1.88l.63.06Z"/><path d="M168,257.63c-.75-2-1.72-2.92-3.07-2.92a1.47,1.47,0,0,0-1.51,1.52c0,1,.71,1.54,2.2,2.2,2.32,1,3.89,2,3.89,4.26,0,2.86-2.72,4.27-5.21,4.27a9.61,9.61,0,0,1-3.63-.86c-.11-.66-.37-2.63-.46-3.64l1-.17c.6,1.81,1.77,3.49,3.63,3.49a1.45,1.45,0,0,0,1.63-1.48c0-.89-.43-1.55-2.2-2.41s-3.72-1.91-3.72-4.29,1.86-4,4.89-4a12.86,12.86,0,0,1,3.09.43c.09.77.34,2.6.46,3.37Z"/><path d="M177,266.64a3.18,3.18,0,0,1-1.15.32c-2.2,0-3.51-1-3.51-3.64v-8h-1.84l-.17-.34.83-1.09h1.18v-2.37c1-.69,2.37-1.61,3.37-2.29l.37.23c0,.77-.08,2.28-.05,4.43h2.86a1.25,1.25,0,0,1-.23,1.43H176v7c0,2.23.91,2.49,1.45,2.49a3.53,3.53,0,0,0,1.38-.29l.28,1Z"/><path d="M189.76,267a2.69,2.69,0,0,1-1.78-.6,2.93,2.93,0,0,1-.74-1.06,10.82,10.82,0,0,1-3,1.66,3.76,3.76,0,0,1-3.89-3.69c0-1.52.68-2.21,2.2-2.81,1.69-.63,3.95-1.31,4.61-1.89v-1.25c0-1.49-.55-2.32-1.78-2.32a1.39,1.39,0,0,0-1.14.57,5.36,5.36,0,0,0-.69,1.89,1.13,1.13,0,0,1-1.23,1,1.76,1.76,0,0,1-1.69-1.49c0-.51.35-.88,1-1.34a14,14,0,0,1,4.58-2,5,5,0,0,1,2.95.83,3.87,3.87,0,0,1,1.57,3.52v4.95c0,1.37.46,1.71.92,1.71a2,2,0,0,0,.88-.23l.32,1Zm-2.63-7.21-1.61.88a2.09,2.09,0,0,0-1.4,1.95,2,2,0,0,0,1.75,2.17,1.64,1.64,0,0,0,1.26-.45Z"/><path d="M205.07,263.84a6.61,6.61,0,0,1-5,3.12,6,6,0,0,1-6.27-6.15,6.85,6.85,0,0,1,2.92-5.47,8.37,8.37,0,0,1,5-1.77,4.54,4.54,0,0,1,2.52.68,1.2,1.2,0,0,1,.54,1.06,1.82,1.82,0,0,1-1.29,1.6.87.87,0,0,1-.63-.31,5.1,5.1,0,0,0-3-1.49c-1.12,0-2.46,1.09-2.46,4.18,0,3.8,2.77,5,4,5a4.25,4.25,0,0,0,3.06-1.2Z"/><path d="M214,266.61v-1c1.26-.2,1.35-.4,1.35-1.94v-5c0-2.2-.92-3-2-3a2.93,2.93,0,0,0-2.09.83v7.16c0,1.54.14,1.74,1.46,1.94v1h-6.81v-1c1.4-.17,1.66-.26,1.66-2.06V250.33c0-1.31-.18-1.63-1.78-1.88v-.92a29.19,29.19,0,0,0,5.47-1v8.87a5.86,5.86,0,0,1,3.86-1.86c2.49,0,4,1.63,4,4.77v5.24c0,1.8.2,1.83,1.57,2.06v1Z"/><path d="M233.53,263.81A6.54,6.54,0,0,1,228.3,267c-3.84,0-6-2.84-6-6.24a7.52,7.52,0,0,1,2.14-5.15,6.4,6.4,0,0,1,4.47-2,4.69,4.69,0,0,1,4.72,4.66c0,.49,0,1-.37,1.06-.55.14-4.58.34-7.36.46.12,3,1.81,4.57,3.87,4.57A5,5,0,0,0,233,263Zm-5.2-9.07c-1.15,0-2.12,1.34-2.29,3.6l3.46-.08c.4,0,.57-.09.57-.57C230.1,256.26,229.44,254.74,228.33,254.74Z"/></g></g></svg>