<svg xmlns="http://www.w3.org/2000/svg" viewBox="0 0 146.5 60.18"><defs><style>.cls-1{fill:#349cc5;}.cls-2{fill:none;stroke:#000;stroke-miterlimit:10;}</style></defs><g id="Calque_2" data-name="Calque 2"><g id="Calque_1-2" data-name="Calque 1"><polygon points="87.42 5.49 79.98 13.94 81.03 15.55 87.42 8.03 98.3 20.82 100.13 20.82 100.94 20.82 87.42 5.49"/><polygon points="66.52 13.94 59.08 5.49 45.56 20.82 46.81 20.82 48.2 20.82 59.08 8.03 65.47 15.55 66.52 13.94"/><polygon class="cls-1" points="73.25 0 59.74 20.82 60.98 20.82 62.37 20.82 73.25 3.45 84.13 20.82 85.95 20.82 86.76 20.82 73.25 0"/><line class="cls-2" x1="8.66" y1="33.04" x2="29.03" y2="33.04"/><line class="cls-2" x1="117.47" y1="33.04" x2="137.84" y2="33.04"/></g><g id="Calque_2-2" data-name="Calque 2"><polygon points="68.67 27.2 63.47 38.77 63.95 38.77 64.48 38.77 68.67 29.12 72.84 38.77 73.55 38.77 73.86 38.77 68.67 27.2"/><path d="M45,39a5.77,5.77,0,0,1-3-.81A6,6,0,0,1,39.82,36,5.9,5.9,0,0,1,39,33a5.8,5.8,0,0,1,.79-3A5.94,5.94,0,0,1,42,27.87a5.85,5.85,0,0,1,5.36-.3,6.22,6.22,0,0,1,2,1.45l-.63.56A5.07,5.07,0,0,0,47,28.32,4.87,4.87,0,0,0,45,27.87a4.93,4.93,0,0,0-2.55.69,5.26,5.26,0,0,0-1.87,1.88,5.22,5.22,0,0,0,0,5.19,5.34,5.34,0,0,0,1.87,1.88A4.93,4.93,0,0,0,45,38.2a5,5,0,0,0,2.19-.5,5.27,5.27,0,0,0,1.77-1.41l.65.51a5.93,5.93,0,0,1-2.05,1.64A5.79,5.79,0,0,1,45,39Z"/><path d="M60,33.47H53V38.9h-.83V27.2H53v5.44H60V27.2h.81V38.9H60Z"/><path d="M76.56,38.9V27.2h.81V38.09h6.57v.81Z"/><path d="M87,38.9V27.2H94.6V28H87.83v4.61H93.1v.83H87.83v4.59H94.6v.84Z"/><path d="M107.47,27.2V28h-4.63V38.9H102V28H97.37V27.2Z"/><polygon class="cls-1" points="105.76 43.65 98.79 59.9 99.43 59.9 100.15 59.9 105.76 46.35 111.37 59.9 112.31 59.9 112.73 59.9 105.76 43.65"/><path class="cls-1" d="M14,43.65V44.8H7.6V59.9H6.45V44.8H0V43.65Z"/><path class="cls-1" d="M27.25,59.9,20.5,51.7h2a8.13,8.13,0,0,0,3-.47A3.89,3.89,0,0,0,27,50a2.83,2.83,0,0,0,.63-1.78,3,3,0,0,0-.53-1.67,3.88,3.88,0,0,0-1.5-1.28,4.78,4.78,0,0,0-2.25-.5H18.77V59.9H17.65V43.65h5.67a6.26,6.26,0,0,1,2.15.36,5.39,5.39,0,0,1,1.75,1,4.64,4.64,0,0,1,1.12,1.48,3.9,3.9,0,0,1,.38,1.7,4,4,0,0,1-.82,2.46A4.75,4.75,0,0,1,26,52.25a5,5,0,0,1-1.51.44,13,13,0,0,1-1.57.09l5.88,7.12Z"/><path class="cls-1" d="M33.1,59.9V43.65H43.62V44.8h-9.4v6.4h7.33v1.15H34.22v6.38h9.4V59.9Z"/><path class="cls-1" d="M63.55,59.9V47.05l-7.2,10.28L49.05,47V59.9H47.92V43.45l8.43,11.9,8.32-11.9V59.9Z"/><path class="cls-1" d="M80.06,52.91a3.9,3.9,0,0,1,.81,2.42A4.16,4.16,0,0,1,80.49,57a4.57,4.57,0,0,1-1.12,1.49,5.44,5.44,0,0,1-1.76,1,6.33,6.33,0,0,1-2.14.36h-6l0-16.25h4.65a5.07,5.07,0,0,1,3.63,1.28,4,4,0,0,1,1,1.32,3.68,3.68,0,0,1,.34,1.55,3.77,3.77,0,0,1-.46,1.83A3.63,3.63,0,0,1,77.5,50.9l-.23.15a8.45,8.45,0,0,1,.83.3A5,5,0,0,1,80.06,52.91Zm-9.41-2.18h3.47a7,7,0,0,0,1.13-.08,4.32,4.32,0,0,0,.9-.25,3.53,3.53,0,0,0,1.24-.95A2.43,2.43,0,0,0,78,47.8a2.7,2.7,0,0,0-.43-1.46,3.17,3.17,0,0,0-1.3-1.11,4.58,4.58,0,0,0-2.07-.43H70.65Zm7.07,7.55A4,4,0,0,0,79.22,57a3,3,0,0,0,.53-1.66,2.88,2.88,0,0,0-.61-1.77,3.81,3.81,0,0,0-1.47-1.16,7.54,7.54,0,0,0-3-.52h-4v6.9h4.82A4.91,4.91,0,0,0,77.72,58.28Z"/><path class="cls-1" d="M84.67,59.9V43.65H85.8V58.78h9.12V59.9Z"/><path class="cls-1" d="M117.72,46.7V59.9H116.6V43.45L127.85,56.9V43.65H129V60.18Z"/><path class="cls-1" d="M146.5,43.65V44.8h-6.43V59.9h-1.15V44.8h-6.45V43.65Z"/></g></g></svg>