<?xml version="1.0" encoding="UTF-8"?><svg xmlns="http://www.w3.org/2000/svg" viewBox="0 0 155.19 217"><defs><style>.d{fill:#b48e00;}.e{stroke:#000;stroke-width:3px;}.e,.f{fill:none;stroke-miterlimit:10;}.f{stroke:#d4a100;stroke-width:5px;}</style></defs><g id="a"/><g id="b"><g id="c"><g><path d="M24.47,51.06c-1.3,.33-2.59,.5-3.89,.5-2.59,0-4.84-.53-6.73-1.6-1.9-1.07-2.84-3.3-2.84-6.69,0-3.68,.95-6.16,2.84-7.43,1.9-1.27,4.19-1.91,6.89-1.91,1.01,0,2.26,.09,3.74,.27v2.1c-.98-.21-1.9-.31-2.75-.31-1.69,0-3.13,.46-4.32,1.37-1.2,.91-1.79,2.71-1.79,5.4,0,1.6,.13,2.85,.39,3.75,.26,.9,.86,1.62,1.81,2.16,.94,.53,2.13,.8,3.56,.8,.84,0,1.88-.14,3.11-.42v2.03Z"/><path d="M31.26,34.21h4.35v17.15h-4.35v-17.15Z"/><path d="M43.2,34.21h6.27c2.96,0,5.3,.59,7.01,1.78,1.71,1.19,2.56,3.42,2.56,6.71s-.75,5.4-2.25,6.7c-1.5,1.3-4.19,1.95-8.09,1.95h-5.51v-17.15Zm4.35,1.76v13.65c1.82,0,3.2-.18,4.14-.54s1.65-1.03,2.11-2.01c.46-.98,.69-2.44,.69-4.4,0-2.49-.43-4.23-1.3-5.22-.87-.99-2.56-1.48-5.07-1.48h-.58Z"/><path d="M79.37,51.35h-4.51l-5.04-8.05h-.38v8.05h-4.35v-17.15h6.01c4.9,0,7.35,1.46,7.35,4.39,0,1.33-.36,2.33-1.09,3-.72,.67-1.9,1.18-3.54,1.52l5.53,8.24Zm-9.93-9.62c1.68-.02,2.9-.23,3.65-.64,.75-.41,1.12-1.15,1.12-2.23s-.34-1.77-1.02-2.21c-.68-.44-1.85-.66-3.5-.66h-.25v5.73Z"/><path d="M96.32,51.35h-11.65v-17.15h11.45v1.95h-7.15v5.44h6.62v1.95h-6.62v5.91h7.35v1.9Z"/><path d="M116.14,51.35h-4.51l-5.04-8.05h-.38v8.05h-4.35v-17.15h6.01c4.9,0,7.35,1.46,7.35,4.39,0,1.33-.36,2.33-1.09,3-.72,.67-1.9,1.18-3.54,1.52l5.53,8.24Zm-9.93-9.62c1.68-.02,2.9-.23,3.65-.64,.75-.41,1.12-1.15,1.12-2.23s-.34-1.77-1.02-2.21c-.68-.44-1.85-.66-3.5-.66h-.25v5.73Z"/><path d="M122.07,34.21h4.35v17.15h-4.35v-17.15Z"/><path d="M145.51,51.35h-11.65v-17.15h11.45v1.95h-7.15v5.44h6.62v1.95h-6.62v5.91h7.35v1.9Z"/></g><path class="f" d="M127.77,178.82c57.32-39.9,5.2-136.27-50.18-104.82C22.16,42.57-29.87,138.98,27.42,178.82c32.17,21.18,38.67,14.68,50.17,12.18,11.5,2.5,18,9,50.18-12.18Z"/><polygon class="e" points="85.59 55 69.59 55 77.59 65 77.59 65 85.59 55"/><g><path class="d" d="M75.4,104.81h-9.54v-.7h.97v-25.9h-.97v-.7h5.07v.7h-.97v25.9h2.34v-7.48h3.1v8.19Zm-7.01-.7v-25.9h-.78v25.9h.78Zm5.47,0v-6.78h-.78v6.78h.78Z"/><path class="d" d="M89.18,104.81h-5.07v-.7h.97l-.7-7.92h-2.8l-.78,7.92h.97v.7h-2.93v-.7h.97l2.74-26.6h3.12l2.53,26.6h.97v.7Zm-4.84-9.31l-1.29-14.76-1.43,14.76h2.72Zm2.3,8.61l-2.46-25.9h-.78l2.46,25.9h.78Z"/><path class="d" d="M41.57,127.52c0,1.48-.62,2.76-1.86,3.82-1.24,1.06-2.74,1.59-4.5,1.59h-1.84v14.93h1.32v.96h-6.88v-.96h1.32v-35.2h-1.32v-.96h7.4c1.76,0,3.26,.53,4.5,1.59,1.24,1.06,1.86,2.33,1.86,3.82v10.4Zm-10.33,20.34v-35.2h-1.06v35.2h1.06Zm6.08-18.01v-15.06c0-.59-.21-1.09-.62-1.5s-.91-.62-1.5-.62h-1.84v19.31h1.84c.59,0,1.09-.21,1.5-.62s.62-.91,.62-1.5Zm2.12-1.5v-12.06c0-1.43-.63-2.54-1.89-3.34,.55,.64,.83,1.5,.83,2.59v13.56c0,1.09-.28,1.95-.83,2.59,1.26-.79,1.89-1.91,1.89-3.34Z"/><path class="d" d="M60.54,143.66c0,1.48-.62,2.76-1.86,3.82-1.24,1.06-2.74,1.59-4.5,1.59s-3.24-.53-4.49-1.59c-1.25-1.06-1.88-2.33-1.88-3.82v-26.81c0-1.48,.62-2.76,1.88-3.82,1.25-1.06,2.75-1.59,4.49-1.59s3.26,.53,4.5,1.59c1.24,1.06,1.86,2.33,1.86,3.82v26.81Zm-9.91,3.57c-.47-.67-.7-1.53-.7-2.56v-28.83c0-1.02,.23-1.86,.7-2.54-1.17,.79-1.76,1.85-1.76,3.18v27.56c0,1.31,.59,2.37,1.76,3.18Zm5.67-1.24v-31.47c0-.59-.21-1.09-.62-1.5s-.91-.62-1.5-.62-1.09,.21-1.5,.62-.62,.91-.62,1.5v31.47c0,.59,.21,1.09,.62,1.5s.91,.62,1.5,.62,1.09-.21,1.5-.62,.62-.91,.62-1.5Zm2.12-1.48v-28.52c0-1.41-.64-2.53-1.92-3.34,.57,.66,.85,1.53,.85,2.61v29.99c0,1.07-.28,1.93-.85,2.59,1.28-.81,1.92-1.92,1.92-3.34Z"/><path class="d" d="M84.59,148.81h-6.88v-.96h1.32v-25.28l-2.98,26.24h-3.39l-3.49-26.24v25.28h1.32v.96h-3.96v-.96h1.32v-35.2h-1.32v-.96h5.62l3.65,28.91,3.18-28.91h5.62v.96h-1.32v35.2h1.32v.96Zm-9.65-.96l-4.87-35.2h-1.16l4.87,35.2h1.16Zm6.21,0v-35.2h-1.06v35.2h1.06Z"/><path class="d" d="M107.86,148.81h-6.88v-.96h1.32v-25.28l-2.98,26.24h-3.39l-3.49-26.24v25.28h1.32v.96h-3.96v-.96h1.32v-35.2h-1.32v-.96h5.62l3.65,28.91,3.18-28.91h5.62v.96h-1.32v35.2h1.32v.96Zm-9.65-.96l-4.87-35.2h-1.16l4.87,35.2h1.16Zm6.21,0v-35.2h-1.06v35.2h1.06Z"/><path class="d" d="M126.32,148.81h-13.25v-.96h1.32v-35.2h-1.32v-.96h13.25v11.13h-4.24v-10.17h-3.44v16.07h5.02v.96h-5.02v18.17h3.44v-10.17h4.24v11.13Zm-9.81-.96v-35.2h-1.06v35.2h1.06Zm7.69-25.96v-9.24h-1.06v9.24h1.06Zm0,25.96v-9.21h-1.06v9.21h1.06Z"/><path class="d" d="M63.3,179.73c0,1.12-.47,2.08-1.41,2.88s-2.07,1.2-3.4,1.2h-5.59v-.72h1v-26.56h-1v-.72h5.59c1.33,0,2.46,.4,3.4,1.2s1.41,1.76,1.41,2.88v19.84Zm-7.79,3.36v-26.56h-.8v26.56h.8Zm4.59-1.6v-23.36c0-.44-.16-.82-.47-1.13s-.69-.47-1.13-.47h-1.39v26.56h1.39c.44,0,.82-.16,1.13-.47s.47-.69,.47-1.13Zm1.6-1.11v-21.11c0-1.08-.48-1.92-1.43-2.52,.42,.48,.62,1.13,.62,1.95v22.25c0,.81-.21,1.46-.62,1.95,.95-.61,1.43-1.45,1.43-2.52Z"/><path class="d" d="M71.63,156.53l-2.36,7.68h-1.46l.62-8.4h3.2v.72Zm-1.68,0h-.8l-.72,7.05h.33l1.19-7.05Z"/><path class="d" d="M86.02,179.93c0,1.12-.47,2.08-1.41,2.88s-2.07,1.2-3.4,1.2-2.44-.4-3.39-1.2c-.94-.8-1.42-1.76-1.42-2.88v-20.23c0-1.12,.47-2.08,1.42-2.88,.94-.8,2.07-1.2,3.39-1.2s2.46,.4,3.4,1.2,1.41,1.76,1.41,2.88v20.23Zm-7.48,2.7c-.35-.51-.53-1.15-.53-1.93v-21.76c0-.77,.18-1.41,.53-1.91-.89,.6-1.33,1.4-1.33,2.4v20.8c0,.99,.44,1.79,1.33,2.4Zm4.28-.94v-23.75c0-.44-.16-.82-.47-1.13s-.69-.47-1.13-.47-.82,.16-1.13,.47-.47,.69-.47,1.13v23.75c0,.44,.16,.82,.47,1.13s.69,.47,1.13,.47,.82-.16,1.13-.47,.47-.69,.47-1.13Zm1.6-1.11v-21.52c0-1.07-.48-1.91-1.45-2.52,.43,.5,.64,1.15,.64,1.97v22.64c0,.81-.21,1.46-.64,1.95,.96-.61,1.45-1.45,1.45-2.52Z"/><path class="d" d="M101.93,183.81h-1.39c-1.88,0-2.81-.98-2.81-2.93v-9.9c0-.44-.16-.82-.47-1.13s-.69-.47-1.13-.47h-1.39v13.71h1v.72h-5.2v-.72h1v-26.56h-1v-.72h5.59c1.33,0,2.46,.4,3.4,1.2s1.41,1.76,1.41,2.88v5.41c0,1.75-.93,2.98-2.79,3.71,1.86,.78,2.79,2.02,2.79,3.73v9.28c0,.72,.31,1.07,.92,1.07h.08v.72Zm-8.79-.72v-26.56h-.8v26.56h.8Zm4.59-16.04v-8.93c0-.44-.16-.82-.47-1.13s-.69-.47-1.13-.47h-1.39v12.13h1.39c.44,0,.82-.16,1.13-.47s.47-.69,.47-1.13Zm1.6-1.11v-6.68c0-1.08-.48-1.92-1.43-2.52,.42,.48,.62,1.13,.62,1.95v7.79c0,.82-.21,1.48-.62,1.97,.95-.61,1.43-1.45,1.43-2.52Zm.8,17.34c-.53-.3-.8-.87-.8-1.72v-9.47c0-1.07-.48-1.91-1.43-2.52,.42,.5,.62,1.15,.62,1.95v9.69c0,1.2,.53,1.89,1.6,2.07Z"/><rect class="d" x="15.59" y="128" width="7" height="2"/><rect class="d" x="131.59" y="128" width="7" height="2"/></g></g></g></svg>