<svg xmlns="http://www.w3.org/2000/svg" viewBox="0 0 163.69 52.28"><defs><style>.cls-1{fill:#fff692;}.cls-2{fill:#a57356;}</style></defs><g id="Layer_2" data-name="Layer 2"><g id="Layer_1-2" data-name="Layer 1"><path class="cls-1" d="M47.42,51.84c1.27-.09-6-5.7-13-7-7.22-1.34-16.31,2.61-20,0-7.9-5.6-5-21-13-17-4.25,2.12,2,17,6,23,14,2,15.75,1,21,1S33.42,52.84,47.42,51.84Z"/><path class="cls-2" d="M49.42,29.84c6-13,8.66-24.43-2-29-7-3-16,2-24,16-7.4,12.94-10,24.3,1,28S43.17,43.38,49.42,29.84Z"/><path class="cls-2" d="M31.31,40.81l-10.89-7c-.48-.14,6-11-1-9l-7,18c-1,2-.71,3.1.27,3.18l28.41,2.3A1.23,1.23,0,0,0,41.75,46L31.52,40.89A.76.76,0,0,0,31.31,40.81Z"/><path class="cls-2" d="M98.26,7H101a10.18,10.18,0,0,1,3.57.44,4.28,4.28,0,0,1,2,1.52,4,4,0,0,1,.66,2.3,4.26,4.26,0,0,1-1,2.82,5.21,5.21,0,0,1-2.94,1.64l3.44,7.08h-3.08L100.26,16H100l-1,6.89h-3Zm2.11,6.32a6.66,6.66,0,0,0,3.14-.5,1.67,1.67,0,0,0,.73-1.47,1.44,1.44,0,0,0-.3-.93,1.51,1.51,0,0,0-.84-.53,10.44,10.44,0,0,0-2.23-.15Z"/><path class="cls-2" d="M112.17,7h8.49l-.36,2.8h-5.51l-.46,3.27h5.55l-.37,2.78H114l-.59,4.19H119l-.36,2.76H110Z"/><path class="cls-2" d="M133.31,9.24l-2.16,1.92c-.89-1.15-1.71-1.72-2.48-1.72a1.39,1.39,0,0,0-.95.33,1.07,1.07,0,0,0-.37.82,1.81,1.81,0,0,0,.34,1,24.42,24.42,0,0,0,2.09,2.38A16.31,16.31,0,0,1,131,15.32a7.36,7.36,0,0,1,1,1.77,4.66,4.66,0,0,1,.31,1.67A4.23,4.23,0,0,1,131,22a4.84,4.84,0,0,1-3.47,1.29,6.11,6.11,0,0,1-5.26-3.06l2.28-1.84c.92,1.4,1.91,2.1,3,2.1a1.79,1.79,0,0,0,1.28-.5,1.56,1.56,0,0,0,.52-1.19,2.2,2.2,0,0,0-.32-1.12,14.66,14.66,0,0,0-1.81-2.15A16,16,0,0,1,125.08,13a4.53,4.53,0,0,1-.66-2.26,4.06,4.06,0,0,1,4.2-4.07A5.64,5.64,0,0,1,133.31,9.24Z"/><path class="cls-2" d="M136.17,7h9.65l-.35,2.82h-3.29l-1.78,13h-2.94l1.77-13H135.8Z"/><path class="cls-2" d="M156.21,6.64a7.3,7.3,0,0,1,5.37,2.1,7.16,7.16,0,0,1,2.11,5.32,9.14,9.14,0,0,1-1.25,4.65,8.67,8.67,0,0,1-3.33,3.36,9.55,9.55,0,0,1-4.77,1.17,7.32,7.32,0,0,1-5.39-2,7.08,7.08,0,0,1-2-5.26,9.18,9.18,0,0,1,2.4-6.37A8.85,8.85,0,0,1,156.21,6.64Zm-.11,2.81a6,6,0,0,0-3.1.82,6.12,6.12,0,0,0-2.26,2.36,6.5,6.5,0,0,0-.86,3.19,4.87,4.87,0,0,0,1.19,3.3,4.34,4.34,0,0,0,3.43,1.35,6,6,0,0,0,4.4-1.83,6.07,6.07,0,0,0,1.81-4.43,4.72,4.72,0,0,0-1.28-3.46A4.43,4.43,0,0,0,156.1,9.45Z"/><path d="M45.69,3.88a3.55,3.55,0,0,1,3,1.41A4.34,4.34,0,0,1,49.56,8a14.28,14.28,0,0,1-1.91,6.48,23.48,23.48,0,0,1-4.16,5.62c-1.09,1.08-2,1.61-2.58,1.61a1.69,1.69,0,0,1-1.52-1.61c0-.68.6-1.46,1.79-2.34a16.85,16.85,0,0,0,4-4.1q2.2-3.23,2.2-5.45A1.93,1.93,0,0,0,47,6.84a1.52,1.52,0,0,0-1.18-.44q-1.62,0-4.57,2.34a47.86,47.86,0,0,0-7.12,7.18,49.68,49.68,0,0,0-7.27,11.37,25.28,25.28,0,0,0-2.58,9.9,5,5,0,0,0,1.15,3.34,3.8,3.8,0,0,0,3.07,1.55q3.17,0,8-4.92A41.33,41.33,0,0,0,40,32.83a21.56,21.56,0,0,0,1.73-2.58c.29-.57.63-.85,1-.85s.65.2.65.61c0,.88-1.1,2.86-3.28,5.92a27.54,27.54,0,0,1-6,6.27,11.93,11.93,0,0,1-7,2.73,5.9,5.9,0,0,1-5.31-3.08,8.41,8.41,0,0,1-1.2-4.48q0-6.33,6-16A59.34,59.34,0,0,1,37.31,8.19Q42.2,3.89,45.69,3.88Z"/><path d="M56.56,29.72c1.06,0,1.6.65,1.6,2,0,1.74-.8,3.93-2.4,6.59-1.75,2.87-3.43,4.31-5.06,4.31a1.74,1.74,0,0,1-1.66-1,2.77,2.77,0,0,1-.28-1.27,10.91,10.91,0,0,1,1.72-5.43,13.21,13.21,0,0,1,3.77-4.22A4.17,4.17,0,0,1,56.56,29.72Zm-2,7.38c-.33-.26-.49-.46-.49-.6s.21-.39.62-.86c1.17-1.32,1.76-2.38,1.76-3.18a.57.57,0,0,0-.1-.32.51.51,0,0,0-.49-.29c-.41,0-1,.4-1.83,1.21a12.26,12.26,0,0,0-2.38,3.22,7.42,7.42,0,0,0-1,3.15,1,1,0,0,0,.17.58.77.77,0,0,0,.65.36q.93,0,2-1.41a5.81,5.81,0,0,0,.76-1.21A3.73,3.73,0,0,0,54.53,37.1Z"/><path d="M64.22,35.83c-.39,1-.68,1.84-.88,2.47a5,5,0,0,0-.29,1.3c0,.33.15.49.47.49s1.07-.44,1.81-1.33a24.29,24.29,0,0,0,1.56-2.32c.28-.44.56-.66.86-.66s.51.16.51.48c0,.56-.64,1.7-1.93,3.4s-2.59,2.68-3.73,2.68a1.43,1.43,0,0,1-1.21-.63,1.79,1.79,0,0,1-.34-1.09,10.21,10.21,0,0,1,.67-3,46.63,46.63,0,0,1,2-4.7,66.15,66.15,0,0,1,6.86-11.63c1.86-2.44,3.4-3.67,4.63-3.67a1.16,1.16,0,0,1,.95.45,1.55,1.55,0,0,1,.39,1q0,2.73-4.88,9.1a47.3,47.3,0,0,1-5.23,5.66Zm1.39-3.1a35.79,35.79,0,0,0,7.26-8.79c1.11-1.84,1.66-3.05,1.66-3.65,0-.29-.12-.43-.37-.43-.72,0-2,1.42-3.91,4.28A60.28,60.28,0,0,0,65.61,32.73Z"/><path d="M77.45,30.62a.66.66,0,0,1,.54.25.72.72,0,0,1,.16.43,2.63,2.63,0,0,1-.57,1.18,37,37,0,0,0-2.89,5.17A44.23,44.23,0,0,0,73.07,42c-.21.65-.53,1-1,1a.73.73,0,0,1-.62-.31.84.84,0,0,1-.21-.54,19.67,19.67,0,0,1,1.25-3.91,26.81,26.81,0,0,1,3.16-5.78,12.11,12.11,0,0,1,1-1.39A1,1,0,0,1,77.45,30.62Zm3.71-7.25a.79.79,0,0,1,.88.9,3,3,0,0,1-.86,1.82,2.24,2.24,0,0,1-1.59,1,.78.78,0,0,1-.6-.28.87.87,0,0,1-.23-.62,3,3,0,0,1,1-2A2.06,2.06,0,0,1,81.16,23.37Z"/><path d="M83.68,35.82a28.54,28.54,0,0,1,2.89-2.7,6.09,6.09,0,0,1,2.54-1.46.74.74,0,0,1,.55.23.66.66,0,0,1,.21.47,2.45,2.45,0,0,1-.68,1.21,10.83,10.83,0,0,0-1.46,2.26c3-3,5.13-4.59,6.25-4.59a.92.92,0,0,1,.6.22.75.75,0,0,1,.27.59,2.35,2.35,0,0,1-.84,1.4q-3.69,3.81-3.69,6.25a2.31,2.31,0,0,0,.35,1.43l.51.64a.64.64,0,0,1,.16.45,1,1,0,0,1-.92.9,1.48,1.48,0,0,1-1.19-.82A4,4,0,0,1,88.57,40a7.28,7.28,0,0,1,1-3.59,16.63,16.63,0,0,1,1.17-1.72,19.41,19.41,0,0,0-3.38,3.44,20.67,20.67,0,0,0-2.11,3.32c-.3.59-.65.88-1.05.88s-.66-.25-.66-.74a10.93,10.93,0,0,1,1.09-3.3,30.81,30.81,0,0,1,1.54-3,15.67,15.67,0,0,0-5,7c-.27.65-.63,1-1.09,1a.63.63,0,0,1-.51-.24.79.79,0,0,1-.21-.56,13.09,13.09,0,0,1,1.29-4.16,34,34,0,0,1,3-5.73c.78-1.18,1.39-1.77,1.82-1.77s.58.2.58.62a4.2,4.2,0,0,1-.72,1.37A25.53,25.53,0,0,0,83.68,35.82Z"/><path d="M103,39.1A14.7,14.7,0,0,1,101.71,41a3.3,3.3,0,0,1-2.44,1.52,1.82,1.82,0,0,1-1.64-1A3.09,3.09,0,0,1,97.26,40a10.49,10.49,0,0,1,1.37-4.78,12.58,12.58,0,0,1,3.67-4.47,4.66,4.66,0,0,1,2.72-1,1.91,1.91,0,0,1,1.36.51,1.39,1.39,0,0,1,.47,1,3.3,3.3,0,0,1-.33,1.2,1.32,1.32,0,0,1,.29.72,3.35,3.35,0,0,1-.54,1.35,14.54,14.54,0,0,0-1.14,2.54,8.48,8.48,0,0,0-.6,2.69,1.89,1.89,0,0,0,.49,1.35,3.56,3.56,0,0,0,.8.45.83.83,0,0,1,.48.82.74.74,0,0,1-.27.6,1,1,0,0,1-.68.26,2.29,2.29,0,0,1-1.82-.94,2.9,2.9,0,0,1-.62-1.91C102.91,40.13,102.93,39.7,103,39.1Zm2.45-6.43a1.89,1.89,0,0,0-.51-.63,1,1,0,0,0-.59-.21c-1,0-2.06.87-3.22,2.6a9.31,9.31,0,0,0-1.92,4.86,1.24,1.24,0,0,0,.19.74.65.65,0,0,0,.56.26c.62,0,1.35-.67,2.18-2a32.91,32.91,0,0,0,1.74-3.23,17.56,17.56,0,0,1,1-1.83A2.51,2.51,0,0,1,105.43,32.67Z"/><path d="M111.6,42.61a2,2,0,0,1-.58-.23A2.57,2.57,0,0,1,109.77,40c0-2.08,1.08-4.38,3.26-6.91,1.66-1.94,3.16-2.91,4.47-2.91a1.33,1.33,0,0,1,1.21.68,1.79,1.79,0,0,1,.22.94,4.63,4.63,0,0,1-1.14,2.87c-.56.73-1.05,1.1-1.48,1.1s-.57-.21-.57-.63a.82.82,0,0,1,.09-.42,3.89,3.89,0,0,1,.54-.56,4.68,4.68,0,0,0,.74-1,1.58,1.58,0,0,0,.25-.72c0-.21-.11-.32-.35-.32a2.57,2.57,0,0,0-1.25.65,11.34,11.34,0,0,0-2.65,3.24,7.85,7.85,0,0,0-1.37,3.63,1.2,1.2,0,0,0,.25.76,1.18,1.18,0,0,0,1,.51,4.77,4.77,0,0,0,2.91-1.52,17.84,17.84,0,0,0,2.4-2.62c.34-.48.63-.72.88-.72a.52.52,0,0,1,.39.19.6.6,0,0,1,.16.39c0,.63-.87,1.83-2.62,3.62a6.86,6.86,0,0,1-3.94,2.38l-.79,1.45a4.34,4.34,0,0,1,1.35.45,1.34,1.34,0,0,1,.7,1.23,2,2,0,0,1-.8,1.6,3,3,0,0,1-2,.64,3.51,3.51,0,0,1-2.15-.62,1.21,1.21,0,0,1-.54-.92q0-.57.45-.57a.81.81,0,0,1,.41.18,3.09,3.09,0,0,0,1.68.64,1.68,1.68,0,0,0,1-.27.57.57,0,0,0-.08-1.06,1.34,1.34,0,0,0-.58-.15,2.82,2.82,0,0,1-.9-.1.44.44,0,0,1-.25-.41,2.7,2.7,0,0,1,.41-1Z"/><path d="M131.51,29.72c1.07,0,1.6.65,1.6,2,0,1.74-.8,3.93-2.4,6.59-1.75,2.87-3.43,4.31-5.06,4.31a1.75,1.75,0,0,1-1.66-1,2.77,2.77,0,0,1-.27-1.27,10.81,10.81,0,0,1,1.72-5.43,13,13,0,0,1,3.77-4.22A4.11,4.11,0,0,1,131.51,29.72Zm-2,7.38c-.33-.26-.49-.46-.49-.6s.21-.39.63-.86c1.17-1.32,1.75-2.38,1.75-3.18a.65.65,0,0,0-.09-.32.53.53,0,0,0-.49-.29c-.42,0-1,.4-1.84,1.21a12.49,12.49,0,0,0-2.38,3.22,7.42,7.42,0,0,0-1,3.15,1,1,0,0,0,.18.58.76.76,0,0,0,.64.36q.94,0,2-1.41a5.86,5.86,0,0,0,.77-1.21A4.1,4.1,0,0,0,129.48,37.1Z"/><path d="M139.58,35.62l.49-.47c2.72-2.66,4.54-4,5.47-4,.51,0,.76.28.76.84a2.32,2.32,0,0,1-.68,1.38q-3.74,4.36-3.73,7.68a3.91,3.91,0,0,0,.58,2,1.56,1.56,0,0,1,.28.7.6.6,0,0,1-.24.45.81.81,0,0,1-.6.28,1.57,1.57,0,0,1-1.35-1,4.76,4.76,0,0,1-.53-2.32,11.25,11.25,0,0,1,2-5.84,15.6,15.6,0,0,0-4.94,6c-.39.69-.81,1-1.25,1a.72.72,0,0,1-.55-.24.94.94,0,0,1-.27-.7c0-.7.8-2.55,2.4-5.53.86-1.61,1.54-2.78,2-3.51s.92-1.08,1.27-1.08a.68.68,0,0,1,.49.24.87.87,0,0,1,.28.62,2.45,2.45,0,0,1-.57,1.23A21.36,21.36,0,0,0,139.58,35.62Z"/><text/><path class="cls-1" d="M4.42,23.77c0,3.9-.33,7.07.5,7.07s1.5-3.17,1.5-7.07S4.42,19.86,4.42,23.77Z"/><path class="cls-1" d="M2.36,23.77c0,3.9.33,7.07-.5,7.07s-1.44-3.1-1.44-7S2.36,19.86,2.36,23.77Z"/></g></g></svg>