<svg xmlns="http://www.w3.org/2000/svg" viewBox="0 0 332.03 483.25"><defs><style>.cls-1{fill:#f9b233;stroke:#1d1d1b;stroke-width:7px;}.cls-1,.cls-3,.cls-5{stroke-miterlimit:10;}.cls-2{fill:#d63734;}.cls-3,.cls-5{fill:none;}.cls-3{stroke:#fdf0f2;stroke-width:20px;}.cls-4{fill:#1d1d1b;}.cls-5{stroke:#000;}</style></defs><g id="Calque_2" data-name="Calque 2"><g id="Calque_5" data-name="Calque 5"><path class="cls-1" d="M64.69,75.62h15a6.94,6.94,0,0,1,6.94,6.94V256.07a0,0,0,0,1,0,0H57.74a0,0,0,0,1,0,0V82.56a6.94,6.94,0,0,1,6.94-6.94Z" transform="translate(-30.82 17.17) rotate(-11.19)"/><path class="cls-1" d="M85.6,25.52h15a6.94,6.94,0,0,1,6.94,6.94V206a0,0,0,0,1,0,0H78.66a0,0,0,0,1,0,0V32.47a6.94,6.94,0,0,1,6.94-6.94Z" transform="translate(-8.62 7.49) rotate(-4.4)"/><path class="cls-1" d="M116.92,89h15A6.94,6.94,0,0,1,138.85,96V269.48a0,0,0,0,1,0,0H110a0,0,0,0,1,0,0V96A6.94,6.94,0,0,1,116.92,89Z" transform="translate(-18.31 14.2) rotate(-6.09)"/><path class="cls-1" d="M143.28,47.06h15A6.94,6.94,0,0,1,165.21,54V227.51a0,0,0,0,1,0,0H136.34a0,0,0,0,1,0,0V54A6.94,6.94,0,0,1,143.28,47.06Z" transform="matrix(0.99, -0.16, 0.16, 0.99, -20.29, 26.31)"/><path class="cls-1" d="M154.65,3.76h28.87a0,0,0,0,1,0,0V177.26a6.94,6.94,0,0,1-6.94,6.94h-15a6.94,6.94,0,0,1-6.94-6.94V3.76a0,0,0,0,1,0,0Z" transform="translate(342.33 180.07) rotate(177.36)"/><path class="cls-1" d="M251.85,75.62h28.87a0,0,0,0,1,0,0V249.12a6.94,6.94,0,0,1-6.94,6.94h-15a6.94,6.94,0,0,1-6.94-6.94V75.62A0,0,0,0,1,251.85,75.62Z" transform="translate(495.31 380.22) rotate(-168.81)"/><path class="cls-1" d="M230.94,25.52h28.87a0,0,0,0,1,0,0V199a6.94,6.94,0,0,1-6.94,6.94h-15a6.94,6.94,0,0,1-6.94-6.94V25.52A0,0,0,0,1,230.94,25.52Z" transform="matrix(-1, -0.08, 0.08, -1, 481.13, 250)"/><path class="cls-1" d="M199.61,89h28.87a0,0,0,0,1,0,0V262.54a6.94,6.94,0,0,1-6.94,6.94h-15a6.94,6.94,0,0,1-6.94-6.94V89a0,0,0,0,1,0,0Z" transform="translate(407.88 380.2) rotate(-173.91)"/><path class="cls-1" d="M173.26,47.06h28.87a0,0,0,0,1,0,0V220.57a6.94,6.94,0,0,1-6.94,6.94h-15a6.94,6.94,0,0,1-6.94-6.94V47.06a0,0,0,0,1,0,0Z" transform="translate(350.6 303.23) rotate(-170.65)"/><polygon class="cls-2" points="17.32 129.22 69.36 315.09 262.67 315.09 314.71 129.22 225.49 196.13 166.01 92.04 106.53 196.13 17.32 129.22"/><line class="cls-3" x1="21.65" y1="133.36" x2="72.18" y2="321.03"/><line class="cls-3" x1="310.37" y1="129.47" x2="259.85" y2="317.14"/><line class="cls-3" x1="271.11" y1="316.31" x2="76.76" y2="316.31"/><path class="cls-4" d="M232.42,182,166,54,99.61,182,0,99.68,58.1,328.25H273.92L332,99.68Zm27.43,131.85H72.18L21.65,133.36l86.62,65L166,97.27l57.75,101.05,86.61-65Z"/><line class="cls-5" x1="41.18" y1="459.78" x2="60.29" y2="459.78"/><line class="cls-5" x1="267.85" y1="459.78" x2="286.96" y2="459.78"/><path class="cls-4" d="M49.56,402c0,9.8-4.9,15.4-14.35,15.4S20.86,411.8,20.86,402V370.15c0-9.8,4.9-15.4,14.35-15.4s14.35,5.6,14.35,15.4v6h-9.1v-6.56c0-4.38-1.92-6-5-6s-5,1.66-5,6v33.07c0,4.37,1.92,5.95,5,5.95s5-1.58,5-5.95v-8.75h9.1Z"/><path class="cls-4" d="M83.42,409.17v-9.62c0-5.69-1.92-7.79-6.3-7.79H73.8V416.7H64.17V355.45H78.7c10,0,14.26,4.64,14.26,14.09v4.81c0,6.3-2,10.41-6.3,12.42,4.81,2,6.39,6.65,6.39,13v9.45c0,3,.08,5.16,1,7.44H84.3C83.77,415.12,83.42,414.16,83.42,409.17ZM73.8,383h3.76c3.59,0,5.77-1.57,5.77-6.47v-6c0-4.38-1.48-6.3-4.9-6.3H73.8Z"/><path class="cls-4" d="M121.92,354.75c9.45,0,14.61,5.6,14.61,15.4V402c0,9.8-5.16,15.4-14.61,15.4s-14.61-5.6-14.61-15.4V370.15C107.31,360.35,112.47,354.75,121.92,354.75Zm0,53.9c3.06,0,5-1.67,5-6V369.54c0-4.38-1.93-6-5-6s-5,1.66-5,6v33.07C116.93,407,118.86,408.65,121.92,408.65Z"/><path class="cls-4" d="M160.68,402.7c0,4.37,1.92,5.95,5,5.95s5-1.58,5-5.95V355.45h9.1v46.63c0,9.8-4.9,15.4-14.35,15.4s-14.35-5.6-14.35-15.4V355.45h9.63Zm.52-60.2h8.66l7.79,9.71h-8.22l-3.94-4.81-3.85,4.81h-8.22Z"/><path class="cls-4" d="M222,355.45v8.75H212v52.5h-9.63V364.2H192.26v-8.75Z"/><path class="cls-4" d="M257.79,381.26V390H244.58V408h16.63v8.75H235V355.45h26.25v8.75H244.58v17.06Z"/><path class="cls-4" d="M288.85,354.75c9.36,0,14.18,5.6,14.18,15.4v1.92h-9.1v-2.53c0-4.38-1.75-6-4.82-6s-4.81,1.66-4.81,6c0,12.6,18.81,15,18.81,32.46,0,9.8-4.9,15.4-14.35,15.4s-14.34-5.6-14.34-15.4v-3.76h9.09v4.37c0,4.37,1.93,5.95,5,5.95s5-1.58,5-5.95c0-12.6-18.81-15-18.81-32.46C274.68,360.35,279.49,354.75,288.85,354.75Z"/><path class="cls-4" d="M79.73,437.07h3v43.41H97.28v2.77H79.73Z"/><path class="cls-4" d="M105.59,483.25h-2.77L112.91,437h4.42l10.29,46.24h-3L122.28,473H107.9Zm16.23-12.87L115,440.5l-6.66,29.88Z"/><path class="cls-4" d="M153,446.9v2.64c0,5-1.39,8.11-6.07,9.1,5,1,6.93,4.68,6.93,9.9v4c0,6.66-3,10.69-10.1,10.69h-9.89V437.07h9.7C150.51,437.07,153,440.5,153,446.9Zm-3,3.23v-3c0-4.81-1.51-7.32-6.46-7.32h-6.6v17.61h5.15C147.48,457.45,150,456,150,450.13Zm.86,22.36v-4.15c0-6-2.7-8.12-8.18-8.12h-5.74v20.26h6.86C148.86,480.48,150.84,477.64,150.84,472.49Z"/><path class="cls-4" d="M176.11,461.21h-12.6v19.27h15.17v2.77H160.47V437.07h18.21v2.77H163.51v18.6h12.6Z"/><path class="cls-4" d="M185.27,437.07h3v43.41h14.51v2.77H185.27Z"/><path class="cls-4" d="M209,437.07h3v43.41h14.51v2.77H209Z"/><path class="cls-4" d="M248.4,461.21H235.8v19.27H251v2.77h-18.2V437.07H251v2.77H235.8v18.6h12.6Z"/></g></g></svg>