<?xml version="1.0" encoding="UTF-8"?><svg xmlns="http://www.w3.org/2000/svg" viewBox="0 0 808.02 1050.34"><defs><style>.d,.e,.f{stroke:#000;stroke-miterlimit:10;}.d,.g{fill:#ffa93f;}.f{fill:#fff;}.h{fill:#ffee29;}.i{fill:#ff0;}</style></defs><g id="a"/><g id="b"><g id="c"><g><g><path class="d" d="M96.73,936.09c.47-1.09,1.09-2.22,1.84-3.4,1.42-2.55,2.6-4.72,3.54-6.51,16-5.05,30.96-7.58,44.89-7.58,4.44,0,8.66,.47,12.67,1.42,3.82,.9,6.94,2.48,9.35,4.74,2.36,2.17,4.2,5.43,5.52,9.77,1.37,4.34,2.43,9.61,3.19,15.79l1.63,12.74,4.74,32.92c1.89,13.45,3.87,23.88,5.95,31.29-15.01,4.39-25.65,8.07-31.93,11.04,0-5.33-.76-19.82-2.27-43.47-8.83-.57-14.82-.85-17.98-.85-3.4,.14-7.87,.37-13.42,.67-5.55,.31-10.73,.6-15.54,.89-17.94,19.78-32.4,32.87-43.4,39.29-11.09,6.47-21.5,9.7-31.22,9.7s-17.18-2.36-23.22-7.08c-6.09-4.67-9.13-9.56-9.13-14.66,0-5.76,3.19-12.18,9.56-19.26,6.28-6.99,14.61-13.14,24.99-18.48,10.34-5.24,22.63-7.86,36.89-7.86,3.4,0,6.64,.09,9.74,.28,3.09,.19,6.58,.5,10.48,.92,3.89,.43,7.85,.92,11.86,1.49l14.23-20.6c2.78-4.06,8.35-13.33,16.71-27.83-5.57,.14-11.74,.61-18.51,1.42-6.77,.8-13.82,1.87-21.13,3.19Zm-59.47,62.3c-3.68,5.24-5.52,10.46-5.52,15.65s1.82,9.39,5.45,11.89c3.63,2.5,7.95,3.75,12.96,3.75,3.82,0,9.06-.5,15.72-1.49,.24-.42,3-3.45,8.28-9.06,4.81-5.1,12.11-13.26,21.88-24.5-23.32,.8-42.91,2.05-58.76,3.75Zm80.85-16.71c3.63,.42,8.75,1.24,15.36,2.44,6.61,1.2,13.78,2.61,21.52,4.21-1.84-15.01-4.77-30.99-8.78-47.93-5.19,9.39-14.56,23.15-28.11,41.28Z"/><path class="d" d="M195.78,957.4c7.13-1.18,12.39-2.09,15.79-2.73,3.4-.64,6.58-1.36,9.56-2.16,.75,5,1.25,9.13,1.49,12.39,3.92-2.41,7.28-4.72,10.09-6.94,2.81-2.22,5.13-4.39,6.97-6.51,6.42,1.75,11.61,4.32,15.58,7.72,3.87,3.4,5.8,9.09,5.8,17.06,0,14.16-6.65,26.6-19.96,37.31l-9.35-4.18-5.24-2.19c-4.25,17.84-7.22,32.05-8.92,42.62l-19.61-1.77c.24-2.22,.66-6.97,1.27-14.27,.61-7.29,1.04-13.75,1.27-19.36,.24-5.62,.35-10.24,.35-13.88,0-20.34-1.7-34.71-5.1-43.12Zm26.83,17.98c.47,2.88,.71,5.62,.71,8.21l-.07,8.92c3.35,1.32,7.74,2.67,13.17,4.04,.38-2.55,.57-5,.57-7.36,0-11.09-1.89-18.45-5.66-22.09-2.88,3.02-5.78,5.78-8.71,8.28Z"/><path class="d" d="M265.88,972.27l1.91-8.85c9.49-1.56,20.37-5.24,32.64-11.04v12.46l-.21,5.31c0,.71,.02,1.35,.07,1.91,.05,1.56,.07,3.71,.07,6.44,0,1.23,.02,2.22,.07,2.97l.5,12.46c.09,2.69,.45,8.73,1.06,18.12-9.72,1.7-18.17,2.97-25.35,3.82,.66-5.95,.99-14.8,.99-26.55l-.28-17.77c-1.98,.8-4.11,1.2-6.37,1.2-1.7,0-3.4-.16-5.1-.5Zm20.96-52.18c3.54,0,6.61,1.23,9.2,3.68,2.55,2.46,3.82,5.57,3.82,9.35,0,3.54-1.27,6.58-3.82,9.13-2.6,2.55-5.66,3.82-9.2,3.82s-6.58-1.27-9.13-3.82c-2.55-2.5-3.82-5.55-3.82-9.13s1.28-6.65,3.82-9.2c2.5-2.55,5.54-3.82,9.13-3.82Z"/><path class="d" d="M332.85,951.46c9.53,.24,16.35,.85,20.46,1.84,4.39,1.09,8.02,3.38,10.9,6.87,2.88,3.59,4.32,8.12,4.32,13.59-7.36,1.23-14.33,3.09-20.89,5.59-1.09-5.24-3.92-8.45-8.5-9.63-.85,8.54-1.28,14.42-1.28,17.63,0,2.36,.68,4.29,2.05,5.8,1.37,1.51,3.54,2.79,6.51,3.82,3.07,1.13,5.85,1.7,8.35,1.7,3.96,0,7.72-2.31,11.26-6.94l.28,.28c-2.74,7.69-6.14,13.31-10.2,16.85-4.01,3.54-10.01,5.31-17.98,5.31-5.95,0-10.74-1.2-14.37-3.61-3.59-2.41-6-5.36-7.22-8.85-1.27-3.49-1.91-8.12-1.91-13.88s.24-13.33,.71-22.16c5.47-5.1,11.3-9.84,17.49-14.23Z"/><path class="d" d="M380.64,956.48c5.57-.38,14.09-2.27,25.56-5.66-.61,1.56-1.28,4.79-1.98,9.7-.43,2.93-.99,6.23-1.7,9.91-.71,3.82-1.06,7.22-1.06,10.2s.59,6.09,1.77,8.92c1.23,3.16,2.88,6.75,4.96,10.76,4.39-3.49,7.53-6.49,9.42-8.99,.05-1.37,.07-4.01,.07-7.93,0-13.17-.59-22.77-1.77-28.82,1.84,.33,3.54,.5,5.1,.5,5.9,0,12.72-.61,20.46-1.84-.42,7.27-.64,16.14-.64,26.62,0,6.09,.21,16.33,.64,30.73-2.69,.47-7.95,1.49-15.79,3.04l-9.77,1.91c.85-4.48,1.27-8.59,1.27-12.32-3.63,1.79-9.68,5.55-18.12,11.26-6.61-1.7-10.79-3.07-12.53-4.11-1.84-.99-3.61-3.07-5.31-6.23-1.7-3.21-2.55-7.79-2.55-13.74,0-11.71,.66-23.01,1.98-33.91Z"/><path class="d" d="M458.1,927.1l13.88-3.54,10.48-2.83-2.97,52.25-1.06,20.53c3.49,2.5,7.43,5.03,11.82,7.58v.5c-5.62,5.24-10.34,10.41-14.16,15.51-6.51-1.37-11.38-4.19-14.58-8.46-3.21-4.27-4.81-10.02-4.81-17.24,0-2.88,.14-7.6,.42-14.16,.28-6.32,.61-23.03,.99-50.13Z"/><path class="d" d="M503.13,951.46l-.07-5.73c.57-.09,2.81-.33,6.73-.71,6.65-.71,11.61-1.3,14.87-1.77,.05,.76,.07,1.56,.07,2.41,0,1.51-.17,4.01-.5,7.5,1.51,.14,4.51,.21,8.99,.21,3.07,0,5.12-.07,6.16-.21-1.27,7.65-2.1,12.15-2.48,13.52-3.16,.47-7.53,.83-13.1,1.06-.33,6.99-.5,11.75-.5,14.3,0,4.11,.97,7.39,2.9,9.84,1.89,2.41,5.17,4.29,9.84,5.66l-12.25,18.55c-15.43-4.25-23.15-12.22-23.15-23.93,0-1.94,.33-5.66,.99-11.19,.66-5.71,1.04-9.56,1.13-11.54-2.17,.05-4.58,.31-7.22,.78l7.5-12.88v-1.42l.07-4.46Z"/><path class="d" d="M546.82,965.69l15.93-13.52,19.04,1.42c6.14,.52,10.48,2.05,13.03,4.6s3.96,5.52,3.96,8.64c0,1.37-.19,3.14-.57,5.31-.52,2.55-1.06,6.35-1.63,11.4-6.47,3.35-11.38,5.31-14.73,5.88-3.4,.57-6.66,.85-9.77,.85-1.18,0-2.64-.12-4.39-.35,4.62,5.76,9.13,8.64,13.52,8.64,5.19,0,9.87-1.96,14.02-5.88h.57c-4.72,14.73-13.45,22.09-26.2,22.09-6.61,0-11.4-.92-14.37-2.76-2.97-1.84-5.24-4.51-6.8-8-1.61-3.4-2.41-9.84-2.41-19.33l.35-12.11,.43-6.87Zm21.38,.71l-1.84,17.28c4.11,0,8.52-.14,13.24-.43,.09-3.12,.14-4.6,.14-4.46,0-4.01-1.06-7.03-3.19-9.06-2.17-2.08-4.96-3.19-8.36-3.33Z"/><path class="d" d="M610.25,956.48c5.57-.38,14.09-2.27,25.56-5.66-.61,1.56-1.28,4.79-1.98,9.7-.43,2.93-.99,6.23-1.7,9.91-.71,3.82-1.06,7.22-1.06,10.2s.59,6.09,1.77,8.92c1.23,3.16,2.88,6.75,4.96,10.76,4.39-3.49,7.53-6.49,9.42-8.99,.05-1.37,.07-4.01,.07-7.93,0-13.17-.59-22.77-1.77-28.82,1.84,.33,3.54,.5,5.1,.5,5.9,0,12.72-.61,20.46-1.84-.42,7.27-.64,16.14-.64,26.62,0,6.09,.21,16.33,.64,30.73-2.69,.47-7.95,1.49-15.79,3.04l-9.77,1.91c.85-4.48,1.27-8.59,1.27-12.32-3.63,1.79-9.68,5.55-18.12,11.26-6.61-1.7-10.79-3.07-12.53-4.11-1.84-.99-3.61-3.07-5.31-6.23-1.7-3.21-2.55-7.79-2.55-13.74,0-11.71,.66-23.01,1.98-33.91Z"/><path class="d" d="M685.8,973.26l.5-20.39,21.45,1.98,1.2,16.36c1.13-3.21,2.15-6.33,3.04-9.35,.71-2.5,1.49-4.44,2.34-5.81,.75-1.32,2.1-2.48,4.04-3.47,1.84-.99,4.06-1.49,6.66-1.49,2.93,0,6.16,.68,9.7,2.05l-2.34,8.99c-1.18,4.86-2.67,10.24-4.46,16.14-5.66-3.73-9.49-5.88-11.47-6.44-3.78,4.96-6.02,8.71-6.73,11.26,.28,4.25,.59,7.53,.92,9.84,4.25,1.51,8,2.27,11.26,2.27-1.98,5.57-4.41,11.66-7.29,18.27-9.82,0-15.84-.59-18.05-1.77-2.31-1.13-4.72-3.07-7.22-5.81-2.55-2.78-3.82-8.07-3.82-15.86,0-5.1,.09-10.69,.28-16.78Z"/><path class="d" d="M757.8,951.95c.28,0,4.34,.28,12.18,.85,8.4,.52,16.59,.78,24.57,.78-.05,.19-.57,1.96-1.56,5.31-1.65,5.48-2.5,9.54-2.55,12.18-5.52-2.17-16.26-3.94-32.21-5.31,2.27,6.7,9.68,10.05,22.23,10.05,6.61,0,11.14,.28,13.59,.85,2.36,.57,4.22,1.75,5.59,3.54,1.32,1.75,1.98,4.27,1.98,7.58,0,3.54-.76,7.01-2.27,10.41-1.61,3.4-3.47,6.14-5.59,8.21-2.17,2.12-6,4.04-11.47,5.73-5.43,1.7-11.14,2.55-17.13,2.55-10.38,0-19.04-2.12-25.98-6.37,.85-2.83,2.15-6.3,3.89-10.41,7.36,3.21,15.69,4.81,24.99,4.81,4.91,0,9.44-1.37,13.59-4.11-2.88-2.03-6.02-3.04-9.42-3.04-.71,0-1.56,.02-2.55,.07-2.36,.09-3.71,.14-4.04,.14-9.3,0-16.38-1.39-21.24-4.18-4.86-2.74-7.29-7.51-7.29-14.3,0-5.38,1.46-9.89,4.39-13.52,2.88-3.59,8.31-7.53,16.28-11.82Z"/></g><g><path d="M95.29,825.29c0,14.36-4.61,26.81-13.84,37.35-8.16,9.42-19.6,14.38-34.35,14.87-2.83,.1-10.62,.15-23.36,.15-2.39,0-5.99-.07-10.8-.22-4.81-.15-8.41-.22-10.8-.22-1.42,0-2.12-.56-2.12-1.68,0-5.37,.21-13.44,.62-24.21,.41-10.77,.62-18.83,.62-24.21s-.21-14.03-.62-25.23c-.42-11.21-.62-19.59-.62-25.16,0-1.03,.71-1.64,2.12-1.83,3.47-.39,9.16-.59,17.07-.59,15.04,0,24.78,.22,29.22,.66,11.57,1.17,20.63,4.1,27.17,8.79,6.15,4.39,11.01,10.55,14.58,18.46,3.42,7.47,5.13,15.16,5.13,23.07Zm-28.05,0c0-8.25-2.47-14.99-7.4-20.21-4.98-5.42-11.57-8.13-19.78-8.13-7.52,0-11.28,1-11.28,3,0,2.88-.05,7.21-.15,13-.1,5.79-.15,10.12-.15,13s.05,7.09,.15,12.78c.1,5.69,.15,9.97,.15,12.85,0,2.1,3.91,3.15,11.72,3.15,8.45,0,15.09-2.81,19.92-8.42,4.54-5.32,6.81-12.33,6.81-21.02Z"/><path d="M176.59,841.18c0,11.13-3.41,20.17-10.22,27.1-6.81,6.93-15.76,10.4-26.84,10.4s-19.58-3.42-26.51-10.25c-6.93-6.84-10.4-15.62-10.4-26.37,0-11.33,3.32-20.52,9.96-27.58,6.64-7.05,15.62-10.58,26.95-10.58s19.97,3.46,26.81,10.36c6.84,6.91,10.25,15.88,10.25,26.92Zm-24.02,0c0-3.86-1.2-7.26-3.59-10.22-2.39-2.95-5.49-4.43-9.3-4.43s-7.03,1.51-9.52,4.54c-2.34,2.83-3.52,6.2-3.52,10.11s1.17,7.35,3.52,10.18c2.49,3.03,5.66,4.54,9.52,4.54s6.96-1.51,9.45-4.54c2.29-2.83,3.44-6.23,3.44-10.18Z"/><path d="M260.82,810.64c0,3.61-.17,9.03-.51,16.26-.34,7.23-.51,12.65-.51,16.26s.12,8.79,.37,15.82c.24,7.03,.37,12.28,.37,15.75,0,1.32-.61,2.15-1.83,2.49-1.86,.49-5.79,.73-11.79,.73-5.32,0-9.03-.15-11.13-.44-.93-.15-1.51-.73-1.76-1.76l-.44-4.39c-.25-2.25-.59-3.37-1.03-3.37,.68,0-1.78,1.66-7.4,4.98-5.62,3.32-10.72,4.98-15.31,4.98-12.94,0-20.61-5.83-23-17.5-1.07-5.42-1.61-13.28-1.61-23.58,0-11.13,.9-19.92,2.71-26.37,.54-2,1.54-3,3-3,2.25,0,5.66,.03,10.25,.07,4.59,.05,8.01,.07,10.25,.07,1.51,0,2.27,.63,2.27,1.9,0,.34-.05,.85-.15,1.54-1.03,6.64-1.54,13.38-1.54,20.21,0,8.5,.27,14.31,.81,17.43,.88,5.37,4.08,8.06,9.59,8.06,2.15,0,4.48-.95,6.99-2.86s3.82-3.88,3.92-5.93c.1-1.81,.15-14.06,.15-36.77,0-1.61,.12-2.56,.37-2.86,.29-.49,1.17-.73,2.64-.73,2.39,0,5.99,.03,10.8,.07,4.81,.05,8.41,.07,10.8,.07,1.46,0,2.32,.37,2.56,1.1,.1,.39,.15,.98,.15,1.76Z"/><path d="M352.29,841.4c0,10.25-2.93,18.82-8.79,25.71-6.25,7.32-14.4,10.99-24.46,10.99-7.32,0-13.23-2.1-17.72-6.3-.34-.29-.63-.44-.88-.44-.49,0-.94,.9-1.35,2.71-.42,1.81-.92,2.81-1.5,3-.83,.24-7.79,.37-20.87,.37-3.08,0-4.61-.56-4.61-1.68,0-.15,.05-.51,.15-1.1,.98-7.76,1.46-22.56,1.46-44.38s-.73-38.99-2.2-54.42l-.07-.81c0-.78,.76-1.22,2.27-1.32,1.07-.05,5.32-.41,12.74-1.1,5.22-.49,9.47-.73,12.74-.73,.93,0,1.39,.81,1.39,2.42,0,1.9-.12,4.42-.37,7.54-.29,3.86-.46,6.4-.51,7.62-.25,4.83-.37,11.43-.37,19.78,0,1.51,.39,2.27,1.17,2.27,.39,0,.76-.19,1.1-.59,4.39-4.69,10.16-7.03,17.29-7.03,10.69,0,19.04,3.64,25.05,10.91,5.57,6.74,8.35,15.6,8.35,26.59Zm-26.51-.81c0-4.05-1.25-7.48-3.74-10.29-2.49-2.81-5.74-4.21-9.74-4.21s-7.34,1.4-9.7,4.21c-2.37,2.81-3.55,6.29-3.55,10.44s1.15,7.76,3.44,10.4c2.44,2.78,5.76,4.17,9.96,4.17s7.45-1.44,9.89-4.32c2.29-2.68,3.44-6.15,3.44-10.4Z"/><path d="M387.89,833.12c0,13.33,.05,23.56,.15,30.69,0,1.12,.07,3.05,.22,5.79,.15,2.49,.22,4.42,.22,5.79,0,1.03-.61,1.64-1.83,1.83-2.2,.39-6.15,.59-11.87,.59s-9.59-.2-11.21-.59c-1.07-.24-1.68-.9-1.83-1.98v-3.15c0-4.35,.05-10.85,.15-19.52,.1-8.67,.15-15.15,.15-19.45,0-20.51,.02-29.86,.07-28.05-.15-10.79-.76-20.09-1.83-27.91-.1-.54-.15-.95-.15-1.25,0-1.07,.63-1.61,1.9-1.61h26.15c1.22,0,1.78,.51,1.68,1.54l-.07,1.32c-1.27,21.09-1.9,39.75-1.9,55.96Z"/><path d="M468.38,837.45c0,4.93-1.59,7.74-4.76,8.42-.54,.1-5.59,.63-15.16,1.61-5.76,.63-14.36,1.39-25.78,2.27,.68,3.17,2.76,5.59,6.23,7.25,2.83,1.37,6.05,2.05,9.67,2.05,4.35,0,8.72-1.17,13.11-3.52,1.86-1.17,3.71-2.34,5.57-3.52,1.03,.49,2.75,2.98,5.16,7.47,2.42,4.49,3.63,7.35,3.63,8.57,0,.34-.37,.9-1.1,1.68-5.96,6.4-15.21,9.59-27.76,9.59-11.62,0-21-3.39-28.12-10.18-7.32-6.88-10.99-16.09-10.99-27.61s3.27-20.43,9.81-27.61c6.74-7.42,15.67-11.13,26.81-11.13,9.38,0,17.33,3.42,23.88,10.25,6.54,6.84,9.81,14.97,9.81,24.39Zm-25.63-4.47c0-3.03-1.07-5.69-3.22-7.98-2.15-2.29-4.71-3.44-7.69-3.44s-5.62,1.29-7.62,3.88c-1.86,2.39-2.78,5.2-2.78,8.42,0,1.32,.68,1.98,2.05,1.98,3.61,0,9.23-.56,16.85-1.68,1.61-.24,2.42-.63,2.42-1.17Z"/><path d="M528.74,820.82c0,1.51-.34,3.49-1.03,5.93-.59,1.95-1.15,3.93-1.68,5.93-.2,2.44-.66,5.98-1.39,10.62-.15,.68-.73,1.03-1.76,1.03-1.86,0-4.65-.02-8.39-.07-3.74-.05-6.56-.07-8.46-.07-5.13,0-12.01,.46-20.65,1.39-.49,.05-1.81,.25-3.96,.59-1.71,.29-3.05,.44-4.03,.44-1.27,0-1.9-1.2-1.9-3.59,0-1.27,.83-4.81,2.49-10.62,1.61-5.52,2.78-9.08,3.52-10.69,.34-.78,.98-1.17,1.9-1.17,1.9,0,4.76,.1,8.57,.29,3.81,.2,6.67,.29,8.57,.29,4,0,10.62-.59,19.85-1.76,4.83-.63,7.1-.95,6.81-.95,1.03,0,1.54,.81,1.54,2.42Z"/><path d="M649.88,874.95c0,1.51-.71,2.27-2.12,2.27h-25.93c-1.42,0-2.12-.85-2.12-2.56,0-4.93,.18-12.33,.55-22.19,.37-9.86,.55-17.26,.55-22.19,0-1.42-.22-2.17-.66-2.27-.54,.29-3.81,7.84-9.81,22.63-3.52,8.69-7.03,17.36-10.55,26-.49,1.12-1.1,1.78-1.83,1.98-.25,.05-1.22,.07-2.93,.07-2.54,0-4.05-.49-4.54-1.46-2.64-5.37-6.1-13.18-10.4-23.44-4.59-10.84-8.03-18.68-10.33-23.51-.1-.24-.32-.51-.66-.81-.34,.44-.51,1.15-.51,2.12,0,4.79,.12,11.96,.37,21.53,.24,9.57,.37,16.75,.37,21.53,0,1.71-.68,2.56-2.05,2.56h-24.46c-.98,0-1.58-.16-1.79-.48-.22-.32-.33-.87-.33-1.65,0-5.32,.26-13.32,.77-23.99,.51-10.67,.77-18.66,.77-23.99,0-5.66-.25-16.28-.73-31.86-.05-4.05-.27-10.08-.66-18.09l-.07-1.25c-.05-.98,.98-1.46,3.08-1.46,2.68,0,6.71-.08,12.08-.26,5.37-.17,9.4-.26,12.08-.26,.54,0,1.29,1.03,2.27,3.08l21.39,46.95c1.51,3.17,2.78,4.76,3.81,4.76,.54,0,1.68-1.83,3.44-5.49,4.93-10.25,12.23-25.71,21.9-46.36,.83-1.9,1.73-2.86,2.71-2.86,1.42,0,3.55,.07,6.41,.22,2.86,.15,5.02,.22,6.48,.22,1.22,0,3.09-.12,5.6-.37,2.51-.24,4.38-.37,5.6-.37,1.46,0,2.2,.59,2.2,1.76,0,5.76-.21,14.37-.62,25.82-.42,11.45-.62,20.06-.62,25.82,0,5.32,.22,13.31,.66,23.95,.44,10.65,.66,18.6,.66,23.88Z"/><path d="M690.09,843.6c0,3.56,.07,8.88,.22,15.93s.22,12.34,.22,15.86c0,1.03-.61,1.64-1.83,1.83-1.66,.29-5.4,.44-11.21,.44s-9.62-.15-11.28-.44c-1.07-.19-1.73-.51-1.98-.95-.1-.19-.15-.93-.15-2.2,0-3.37,.07-8.43,.22-15.2,.15-6.76,.22-11.85,.22-15.27,0-13.87-.54-24.9-1.61-33.11-.1-.78-.15-1.29-.15-1.54,0-.98,.66-1.46,1.98-1.46s3.45,.15,6.26,.44c2.81,.29,4.92,.44,6.33,.44s3.54-.12,6.37-.37c2.83-.24,4.96-.37,6.37-.37,1.17,0,1.76,.49,1.76,1.46,0,.2-.05,.66-.15,1.39-1.07,9.52-1.61,20.56-1.61,33.11Zm1.9-54.42c0,8.5-4.79,12.74-14.36,12.74-4.1,0-7.5-1.07-10.18-3.22-2.93-2.34-4.39-5.52-4.39-9.52s1.51-6.93,4.54-9.38c2.78-2.25,6.13-3.37,10.03-3.37s7.1,1.15,9.89,3.44c2.98,2.44,4.47,5.54,4.47,9.3Z"/><path d="M771.31,837.45c0,4.93-1.59,7.74-4.76,8.42-.54,.1-5.59,.63-15.16,1.61-5.76,.63-14.36,1.39-25.78,2.27,.68,3.17,2.76,5.59,6.23,7.25,2.83,1.37,6.05,2.05,9.67,2.05,4.35,0,8.72-1.17,13.11-3.52,1.86-1.17,3.71-2.34,5.57-3.52,1.03,.49,2.75,2.98,5.16,7.47,2.42,4.49,3.63,7.35,3.63,8.57,0,.34-.37,.9-1.1,1.68-5.96,6.4-15.21,9.59-27.76,9.59-11.62,0-21-3.39-28.12-10.18-7.32-6.88-10.99-16.09-10.99-27.61s3.27-20.43,9.81-27.61c6.74-7.42,15.67-11.13,26.81-11.13,9.38,0,17.33,3.42,23.88,10.25,6.54,6.84,9.81,14.97,9.81,24.39Zm-25.63-4.47c0-3.03-1.07-5.69-3.22-7.98-2.15-2.29-4.71-3.44-7.69-3.44s-5.62,1.29-7.62,3.88c-1.86,2.39-2.78,5.2-2.78,8.42,0,1.32,.68,1.98,2.05,1.98,3.61,0,9.23-.56,16.85-1.68,1.61-.24,2.42-.63,2.42-1.17Z"/><path d="M806.03,833.12c0,13.33,.05,23.56,.15,30.69,0,1.12,.07,3.05,.22,5.79,.15,2.49,.22,4.42,.22,5.79,0,1.03-.61,1.64-1.83,1.83-2.2,.39-6.15,.59-11.87,.59s-9.59-.2-11.21-.59c-1.07-.24-1.68-.9-1.83-1.98v-3.15c0-4.35,.05-10.85,.15-19.52,.1-8.67,.15-15.15,.15-19.45,0-20.51,.02-29.86,.07-28.05-.15-10.79-.76-20.09-1.83-27.91-.1-.54-.15-.95-.15-1.25,0-1.07,.63-1.61,1.9-1.61h26.15c1.22,0,1.78,.51,1.68,1.54l-.07,1.32c-1.27,21.09-1.9,39.75-1.9,55.96Z"/></g><g><g><polygon class="h" points="233.8 264.47 318.2 118.3 486.98 118.3 571.37 264.47 486.98 410.64 318.2 410.64 233.8 264.47"/><path d="M484.38,122.8l81.79,141.67-81.79,141.67h-163.59l-81.79-141.67,81.79-141.67h163.59m5.2-9h-173.98l-86.99,150.67,86.99,150.67h173.98l86.99-150.67-86.99-150.67h0Z"/></g><g><polygon class="g" points="142.89 715.64 56.18 565.47 142.89 415.3 316.29 415.3 402.99 565.47 316.29 715.64 142.89 715.64"/><path d="M316,415.8l86.41,149.67-86.41,149.67H143.18l-86.41-149.67,86.41-149.67h172.83m.58-1H142.6l-86.99,150.67,86.99,150.67h173.98l86.99-150.67-86.99-150.67h0Z"/></g><g><polygon class="g" points="489.89 714.64 403.18 564.47 489.89 414.3 663.29 414.3 749.99 564.47 663.29 714.64 489.89 714.64"/><path d="M663,414.8l86.41,149.67-86.41,149.67h-172.83l-86.41-149.67,86.41-149.67h172.83m.58-1h-173.98l-86.99,150.67,86.99,150.67h173.98l86.99-150.67-86.99-150.67h0Z"/></g><g><circle cx="307.59" cy="215.47" r="19.5"/><path class="i" d="M307.59,196.47c10.48,0,19,8.52,19,19s-8.52,19-19,19-19-8.52-19-19,8.52-19,19-19m0-1c-11.05,0-20,8.95-20,20s8.95,20,20,20,20-8.95,20-20-8.95-20-20-20h0Z"/></g><path d="M571.92,263.97h40c1.93,0,1.93-3,0-3h-40c-1.93,0-1.93,3,0,3h0Z"/><path d="M571.71,265.53c3.45,0,6.95,.15,10.36-.2,.76-.08,1.41-.24,2.2-.23s1.6,.06,2.4,.06c1.89-.01,3.79-.16,5.66,.15,1.47,.24,2.91,.5,4.36,.74,1.8,.3,3.63,.24,5.45,.24s3.63,.2,5.39,0c1.57-.17,3.09-.4,4.69-.38,1.93,.01,1.93-2.99,0-3-1.61-.01-3.2,.13-4.78,.37s-3.43,0-5.05,0c-1.78,0-3.73,.17-5.48-.25-1.52-.36-3.09-.54-4.64-.75-1.78-.24-3.57-.15-5.36-.13-1.62,.02-3.22-.15-4.83,.11-3.36,.54-6.95,.27-10.37,.27-1.93,0-1.93,3,0,3h0Z"/><polygon class="e" points="354.71 153.69 366.39 117.39 426.92 247.11 415.24 283.41 415.23 283.38 372.87 415 359.73 386.83 402.08 255.21 354.71 153.69"/><polygon class="e" points="413.83 149.64 425.53 112.75 486 244.52 474.3 281.4 474.29 281.38 431.87 415.12 418.74 386.5 461.16 252.76 413.83 149.64"/><path class="f" d="M341.09,101.97c14-30,108.8-99.5,108.8-99.5,0,0,89.2-15.5,57.2,40.5s-68.88,70.83-68.88,70.83h-97.12v-11.83Z"/><path d="M423.81,54.58c.8-.79,1.42-1.71,2.12-2.58,.77-.95,1.61-1.84,2.33-2.82,1.39-1.9,2.86-3.7,4.43-5.45,1.65-1.85,3.58-3.55,5.43-5.2,1.95-1.75,3.97-3.47,6.17-4.9l-1.82-2.36c-4.74,4.24-9.31,8.68-14.33,12.59-1.07,.83-2.3,1.66-3.27,2.61-.52,.52-.94,1.09-1.5,1.57-.5,.43-.97,.86-1.39,1.36-.83,1-1.72,2.03-2.41,3.13-.78,1.25-1.84,2.36-2.52,3.65-.81,1.52,1.08,2.97,2.36,1.82,4.44-4,8.9-8.01,13.11-12.24,1.84-1.85,3.05-4.16,4.73-6.12,.91-1.06,1.74-2.16,2.74-3.14,.45-.44,.91-.86,1.37-1.27,.44-.4,1.21-1.3,1.76-1.5,1.79-.67,1.02-3.57-.8-2.89-1.25,.46-2.27,1.53-3.24,2.41-1.09,.99-2.09,2-3.01,3.15-.86,1.07-1.8,2.07-2.57,3.22s-1.58,2.41-2.54,3.45c-2.03,2.19-4.2,4.18-6.45,6.13-2.48,2.14-4.79,4.5-7.23,6.69l2.36,1.82c.68-1.29,1.74-2.42,2.52-3.65,.61-.95,1.42-1.93,2.16-2.79,.44-.5,.97-.9,1.46-1.35,.54-.49,.94-1.11,1.49-1.58,1.08-.91,2.25-1.77,3.36-2.64,4.87-3.84,9.33-8.17,13.95-12.3,1.26-1.13-.39-3.29-1.82-2.36-4.33,2.82-8.33,6.51-11.89,10.23-1.61,1.69-3.09,3.53-4.5,5.39-.8,1.05-1.62,2.05-2.46,3.07-.75,.91-1.39,1.9-2.24,2.73-1.38,1.35,.74,3.47,2.12,2.12h0Z"/><path d="M452.61,27.39c.92-.44,1.89-.72,2.82-1.15,.98-.45,1.91-1,2.88-1.46,1.81-.84,3.65-1.91,5.57-2.45,2.16-.62,4.38-1.34,6.62-1.58s4.59-.03,6.88-.06,4.47-.14,6.7,.16c2.09,.28,4.27,.95,6.19,1.79,2.11,.91,4.15,1.89,6.19,2.93,.82,.42,1.65,.83,2.47,1.25,.52,.27,1.08,.47,1.61,.72,.25,.11,1.01,.71,.61,.16l-.15-1.16-.04,.19,.69-.9c.43-.26,.38,0-.23-.31-.48-.24-.94-.56-1.41-.82-.91-.49-1.81-.96-2.75-1.37-2.06-.91-4.09-1.81-6.25-2.47s-4.26-.81-6.41-1.08c-2.33-.3-4.44-.28-6.77-.05s-4.51,.46-6.76,.86-4.36,1.01-6.55,1.53c-4.34,1.03-8.63,1.98-12.85,3.47l1.16,2.74c3.22-2.23,7.14-3.62,10.9-4.61,.97-.26,1.91-.63,2.89-.85s1.95-.27,2.91-.46c1.83-.37,3.88-.52,5.76-.45,2.06,.07,4.09,.22,6.13,.59s3.79,1.12,5.73,1.44c.92,.15,1.74,.28,2.65,.57s1.85,.39,2.69,.78,1.68,.7,2.48,1.11c.53,.27,1.37,.71,1.75,1.16l.3-2.36c-.63,.3-1.68-.14-2.29-.32-.81-.24-1.61-.51-2.43-.72-1.74-.44-3.47-.69-5.23-.97-3.63-.56-7.27-1.15-10.9-1.74s-7.27-.78-10.95-.73c-1.87,.03-3.74-.02-5.61,.11-1.5,.1-3.58,.02-4.88,.85-1.12,.72-.87,2.32,.36,2.74,1.52,.53,3.44-.29,4.93-.65,1.93-.47,3.85-.68,5.8-1.01,4.22-.72,8.54-.43,12.81-.44,2.18,0,4.29,.02,6.45,.33,1.9,.27,3.85,.33,5.74,.62s3.99,.91,5.69,1.81c.9,.48,1.78,.99,2.66,1.51,.62,.37,1.61,.69,2.11,1.2,1.36,1.37,3.48-.75,2.12-2.12-.55-.55-1.29-.83-1.96-1.22-.89-.51-1.75-1.05-2.65-1.54-1.8-.99-3.58-1.6-5.56-2.14s-4.02-.55-6.07-.82c-2.19-.29-4.33-.63-6.54-.63s-4.62,0-6.93,0c-2.08,0-4.16-.11-6.23,.16s-4.14,.52-6.16,.91c-1.09,.21-2.16,.51-3.24,.76-.64,.15-1.54,.59-2.17,.37l.36,2.74c.56-.36,1.55-.28,2.2-.35,.93-.09,1.86-.15,2.8-.17,1.87-.05,3.74-.04,5.61-.06,3.81-.05,7.49,.56,11.24,1.11,3.52,.52,7.05,.98,10.55,1.61,1.73,.31,3.41,.77,5.09,1.29s3.2,.83,4.8,.08c.94-.44,.87-1.68,.3-2.36-1.1-1.3-3.03-1.84-4.5-2.55-1.7-.82-3.75-1.48-5.62-1.77-2.06-.31-4.01-1.03-6.06-1.43-2.29-.44-4.56-.61-6.87-.75-4.28-.25-8.52,.71-12.62,1.79-2.15,.57-4.19,1.3-6.26,2.1-1.89,.73-3.9,1.71-5.56,2.87-1.3,.9-.55,3.35,1.16,2.74,3.56-1.26,7.2-2.27,10.89-3.1s7.11-1.72,10.74-2.27c1.83-.27,3.7-.42,5.54-.58,1.96-.17,3.88,.12,5.81,.36,1.78,.21,3.5,.47,5.2,1.02,1.85,.6,3.6,1.37,5.38,2.15,1.45,.64,7.14,4.86,7.85,1.28,.33-1.64-1.46-2.23-2.64-2.76-1.67-.75-3.24-1.7-4.89-2.51-3.39-1.65-6.93-3.21-10.63-3.99s-7.64-.37-11.43-.44c-4.2-.07-8.44,.66-12.39,2.15-1.88,.71-3.75,1.71-5.56,2.59-.94,.45-1.83,1.05-2.82,1.4-.85,.3-1.64,.62-2.45,1-1.74,.83-.22,3.42,1.51,2.59h0Z"/></g></g></g></g></svg>