<?xml version="1.0" encoding="UTF-8"?><svg xmlns="http://www.w3.org/2000/svg" viewBox="0 0 143.03 99.09"><defs><style>.d{fill:#d9e021;}.e{fill:#603813;}.f{fill-rule:evenodd;}</style></defs><g id="a"/><g id="b"><g id="c"><g><g><path class="e" d="M0,50.89H8.52v1.66H1.86v5.12H7.96v1.66H1.86v5.57h6.78v1.66H0v-15.66Zm5.48-3.8h2.55v.47l-3.65,2.17h-1.54l2.64-2.64Z"/><path class="e" d="M21.25,66.55H11.99v-15.66h1.86v14h7.4v1.66Z"/><path class="e" d="M23.55,50.89h8.52v1.66h-6.67v5.12h6.11v1.66h-6.11v5.57h6.78v1.66h-8.63v-15.66Z"/><path class="e" d="M39.61,61.65l.54,2.37h.02l.58-2.41,3.78-10.71h1.86l-5.93,15.9h-.83l-6.04-15.9h2.04l3.98,10.76Z"/><path class="e" d="M54.67,62.21h-5.74l-1.56,4.34h-1.86l5.93-15.9h.85l5.95,15.9h-1.97l-1.6-4.34Zm-5.14-1.61h4.58l-1.74-4.76-.56-2.37h-.02l-.56,2.41-1.71,4.72Z"/><path class="e" d="M65.04,58.74h5.26v6.89c-.24,.18-.53,.34-.86,.49-.34,.15-.69,.28-1.07,.38-.38,.1-.78,.18-1.19,.24-.41,.05-.81,.08-1.2,.08-1,0-1.92-.16-2.75-.48-.84-.32-1.56-.81-2.17-1.48-.61-.66-1.09-1.51-1.43-2.53-.34-1.02-.51-2.22-.51-3.61s.21-2.68,.63-3.71c.42-1.03,.96-1.87,1.63-2.52,.67-.65,1.42-1.12,2.26-1.42,.83-.3,1.67-.45,2.5-.45,.89,0,1.63,.05,2.21,.15,.58,.1,1.07,.23,1.48,.39l-.47,1.65c-.72-.36-1.74-.54-3.06-.54-.63,0-1.25,.11-1.87,.33-.62,.22-1.17,.58-1.67,1.08-.49,.51-.89,1.17-1.21,1.99-.31,.82-.47,1.84-.47,3.04,0,1.1,.13,2.06,.38,2.86,.25,.81,.61,1.47,1.06,2,.45,.53,1,.92,1.64,1.18,.64,.26,1.34,.39,2.1,.39,.95,0,1.76-.19,2.43-.56v-4.36l-3.65-.45v-1.05Z"/><path class="e" d="M73.45,50.89h8.52v1.66h-6.67v5.12h6.11v1.66h-6.11v5.57h6.78v1.66h-8.63v-15.66Z"/></g><g><path class="d" d="M.04,96.83l2.82-.08c.08,0,.2-.04,.2-.2v-22.06l-3.02-.08c0-.64,0-1.29,.04-1.85,1.73-.04,5.03-.08,7.09-.08,3.42,0,5.76,.2,7.65,1.09,1.85,.89,3.18,2.78,3.18,4.87,0,2.94-2.17,5.11-4.79,6.08v.24c3.62,.44,6.44,3.14,6.44,6.36,0,4.51-3.95,7.61-10.02,7.61-.97,0-4.15-.04-4.91-.04H0c0-.6,0-1.25,.04-1.85Zm6.12-1.45c0,1.21,.81,1.49,3.42,1.49,3.22,0,6.72-1.49,6.72-5.44,0-2.46-1.89-5.44-7.69-5.44-1.37,0-2.13,0-2.42,.08l-.04,9.3Zm.04-11.31c.24,.04,.93,.08,1.93,.08,3.58,0,6.68-1.97,6.68-5.03,0-2.74-1.97-4.79-6.24-4.79-1.25,0-1.97,.08-2.34,.12l-.04,9.62Z"/><path class="d" d="M26.81,95.71c-2.21-2.25-3.54-5.6-3.54-9.86,0-5.19,2.54-9.34,5.6-11.47,2.38-1.61,4.83-2.25,7.61-2.25,2.46,0,4.75,.6,6.72,2.01,2.94,2.05,4.95,6.04,4.95,10.67,0,4.19-1.37,8.25-4.23,11.03-2.09,2.05-4.75,3.26-8.74,3.26-3.54,0-6.36-1.33-8.37-3.38Zm14.94-1.13c1.57-1.81,2.94-4.47,2.94-8.94,0-3.7-.93-6.88-2.9-9.02-1.53-1.73-3.42-2.5-5.84-2.5-2.21,0-4.15,.72-5.68,2.09-1.89,1.69-3.54,4.83-3.54,9.34,0,3.99,.81,6.76,2.94,9.02,1.61,1.73,3.78,2.5,6.08,2.5,2.42,0,4.55-.85,6-2.5Z"/><path class="d" d="M51.89,74.41c0-.6,0-1.25,.04-1.85,2.25-.04,5.07-.08,7.77-.08,2.29,0,3.58,.08,5.52,.64,2.7,.72,4.91,3.22,4.91,6.04,0,3.5-2.34,6.04-5.48,7.25v.2c1.93,.84,2.94,3.18,4.99,7.09,1.37,2.58,1.73,2.98,2.21,2.98l2.46,.12c0,.6,0,1.29-.04,1.89-.72,0-1.81,0-2.66,.04-.76,0-2.05,.04-2.62,.04-1.41-1.89-3.87-7.41-5.15-9.38-.93-1.41-1.77-1.89-3.74-1.89-1.61,0-2.17,.04-2.33,.08v9.1l3.38,.16c0,.56,0,1.25-.04,1.85h-4.87c-1.53,0-3.06,0-4.39,.04,0-.64,.04-1.29,.04-1.89l2.58-.12c.12,0,.16-.08,.16-.16l.04-22.02-2.78-.12Zm5.92,11.15c.2,.08,.97,.08,2.13,.08,5.11,0,6.88-3.22,6.88-5.64,0-3.78-2.7-5.68-6.64-5.68-1.33,0-2.05,.08-2.3,.2l-.08,11.03Z"/><path class="d" d="M79.1,96.71s.12-.04,.12-.12v-22.1l-2.98-.12c0-.6,.04-1.25,.08-1.85h13.53c1.69-.04,2.62-.04,3.5-.04,.16,2.01,.28,4.07,.36,6.12-.64,.08-1.37,.2-2.13,.24l-.64-3.5c-.08-.36-.28-.6-.92-.68-1.05-.12-3.75-.2-6.36-.2h-1.21l-.04,9.9c2.25,0,4.15,0,6.32-.04,.68-.04,.89-.28,.92-.81l.2-1.93h2.05c-.04,1.25-.04,2.54-.08,3.87v3.7c-.64,.04-1.37,.08-2.05,.08l-.16-2.13c-.04-.56-.28-.76-.97-.76-1.81-.04-3.87-.04-6.24-.04l-.04,9.66c0,.68,.12,.81,2.25,.81,3.26,0,5.56-.12,6.24-.28,.36-.08,.56-.36,.72-.8l1.29-3.66c.72,.12,1.49,.28,2.09,.4-.44,2.09-.92,4.23-1.41,6.32-1.85,0-7.09-.04-12.52-.04-1.69,0-3.3,.04-4.75,.04v-1.89l2.82-.12Zm12-30.08c-2.05,1.13-4.75,2.7-6.76,3.82-.32-.44-.68-.97-.92-1.37,1.85-1.37,4.31-3.18,6.24-4.63,.44,.56,1.05,1.45,1.45,2.17Z"/><path class="d" d="M99.47,96.71c.08,0,.16-.04,.2-.16,2.82-7.21,6.56-17.19,9.34-24.36,.44-.04,1.33-.08,2.17-.08,2.7,7.25,6.2,17.31,8.82,24.6l2.46,.12c0,.56,0,1.25-.04,1.85h-3.78c-1.85,0-3.7,.04-5.31,.04,0-.64,.04-1.29,.04-1.89l3.14-.12c.08,0,.12-.08,.08-.2-.64-1.81-1.41-4.07-2.05-5.8-.04-.16-.12-.2-.28-.2l-9.62,.04c-.64,1.93-1.49,4.31-2.14,6.16l3.62,.12c0,.56,0,1.25-.04,1.85h-5.36c-1.17,0-2.45,.04-3.54,.04,0-.64,.04-1.29,.04-1.89l2.25-.12Zm10.15-20.05c-1.37,3.66-2.94,8.13-4.27,11.68-.04,.16-.04,.24,.08,.24l8.46,.04c-1.25-3.7-2.82-8.25-4.11-11.96h-.16Z"/><path class="d" d="M124.47,74.41c0-.64,.04-1.29,.08-1.89h9.82c0,.6,0,1.29-.04,1.89l-3.54,.08c-.08,0-.08,.04-.08,.16l-.12,21.3c0,.72,.04,.85,1.73,.85,4.47,0,5.8-.12,6.44-.24,.36-.08,.56-.36,.72-.85l1.45-4.23c.72,.12,1.49,.28,2.09,.48-.4,1.97-1.05,4.63-1.57,6.76-1.89,0-6.8-.04-12.24-.04-1.69,0-3.3,.04-4.75,.04,0-.6,.04-1.29,.04-1.89l2.78-.12c.08,0,.12-.04,.12-.16l.04-22.06-2.98-.08Z"/></g><path class="f" d="M105.57,0h.63c.1,1.84,.32,5.13,1.6,5.88,.16,.06,.31,.11,.48,.16,.05-.16,.1-.32,.16-.47,.37-1.13-.21-2.13,.32-3.18,.16-.05,.32-.11,.48-.16,.73,1.16-.18,1.63,.16,3.18,.31,1.44,1.39,2.41,2.23,3.34,.26-.05,.53-.1,.8-.16,.26-.79,.53-1.59,.8-2.38h.48c.05,.05,.11,.1,.16,.16-.12,3.57-2.48,5.19-2.71,9.07,.64-.43,1.27-.85,1.91-1.28,.21,.05,.43,.11,.64,.16v.16c-.49,1.88-1.44,2.27-2.87,3.19-2.7,14.04,3.36,19.84,12.41,23.38,2.38,.53,4.77,1.06,7.16,1.59,.84,.63,1.7,1.28,2.54,1.91,1.91,1.09,5.36-.19,6.21-1.59,.16-.85,.32-1.7,.48-2.54,.05,.11,.11,.21,.15,.32,.74,.6,1.22,1.42,1.28,2.7,.13,3.3-3.38,2.17-5.41,3.66,.15,1.07,.32,2.12,.48,3.18-.3,2.01-1.94,4.15-1.11,7.16,.94,3.39,3.75,4.95,5.09,7.64,.16,2.7,.32,5.4,.48,8.11,.66,2.38,2.91,2.87,2.39,5.88-.21,.06-.42,.11-.63,.17-1.13-1.5-3.37-2.75-3.98-4.62-1.49-4.55,.08-6.37-2.7-10.02-2.4-3.15-7.18-4.08-9.54-7.16-1.51-1.97-1.54-4.49-3.98-5.57-5.73-2.53-13.18-3.06-18.93-5.41-3.34-1.75-6.68-3.5-10.02-5.25,.16,4.01,.68,6.26,2.71,8.27-.06,1.01-.24,1.03-.64,1.59h-.16c-1.64-.65-4.14-2.88-4.45-4.77,.1-1.32,.21-2.65,.31-3.98-.35-1.5-2.58-2.38-1.91-4.3,1.75-3.57,8.29,.66,10.34,1.11,.16-.26,.32-.53,.48-.79-.61-4.59,6.5-10.88,2.7-16.71-3.59-.93-4.6-1.69-5.88-4.93,.05-.06,.11-.11,.16-.17,4.91,.03,7.1-1.3,11.77-1.11,.58-.75,1.17-1.49,1.75-2.23,1.4-6.1-10.62-5.54-7.47-10.97,.11,.05,.21,.11,.31,.16,.25,1.59,1.16,2.58,2.23,3.34,.05-.21,.1-.42,.16-.64-.43-1.45-.37-3.88,0-5.09Z"/></g></g></g></svg>