<?xml version="1.0" encoding="UTF-8"?><svg xmlns="http://www.w3.org/2000/svg" viewBox="0 0 743.88 1090.03"><defs><style>.d{fill:#c1272d;}.e{fill:#c69c6d;}</style></defs><g id="a"/><g id="b"><g id="c"><g><g><path class="d" d="M741.85,306.97c-1.9-.68-3.03,4.44-3.61,5.5-1.18,2.15-3.01,4.35-4.51,6.34-3.37,4.47-7.81,8.59-11.95,12.36-3.63,3.3-5.66,7.88-9.36,11.13-1.92,1.68-3.18,1.8-5.54,2.3-3.49,.74-5.66,2.91-7.87,5.65-2.08,2.58-3.96,5.34-5.92,8.01-1.41,1.92-1.56,3.66-2.35,5.79-2.27,6.07-6.89,12.97-12.62,16.4-3.73,2.23-6.91,1.13-10.58-.08-2.86-.94-6.72-3.01-9.84-1.73-3.23,1.33-6.02,3.84-9.28,5.25-3.75,1.62-7.34,2.13-11.31,2.31-4.66,.22-8.18,1.85-11.25,5.6-2.45,2.99-7.71,7.17-11.51,7.71-2.03,.29-3.42-.39-5.5,.55-2.09,.94-3.45,2.42-5.07,4.04-3.72,3.73-6.79,4.52-11.81,5.06-3.31,.35-7,.1-10.26,.96-2.78,.73-5.12,2.81-7.2,4.74-3.16,2.92-5.32,6.78-8.25,9.94-1.96,2.11-4.13,3.91-5.91,6.19-1.78,2.27-2.85,4.97-4.76,7.16-1.52,1.75-3.43,2.77-5.42,3.88-2.41,1.35-4.26,1-6.78,1.49-5.35,1.04-10.46,6.98-14.52,10.34-2.45,2.03-4.81,4.31-7.45,6.09-2.01,1.35-3.94,2.38-5.86,3.88-2.5,1.97-5.35,3.35-7.85,5.34-2.94,2.34-5.78,4.83-8.67,7.23-4.64,3.85-9.93,9.25-15.67,11.18-2.86,.96-6.09,.15-9.01,.04-3.04-.11-6.48,.36-8.84-1.53-2.78-2.21-4.21-7.83-5.03-11.15-.57-2.28-.8-4.61-.53-7.01,.44-3.96,.99-7.95,1.57-11.9,.39-2.66,1.47-4.51,2.68-6.92,2.8-5.6,5.02-11.52,8.6-16.77,1.62-2.37,3.73-4.29,5.36-6.65,1.28-1.85,2.5-3.66,3.89-5.43,3.66-4.67,7.39-9.26,10.49-14.29,2.15-3.48,5.55-6.8,8.2-10.01,2.45-2.97,3.74-6.17,5.51-9.51,2.5-4.72,6.43-9.38,7.25-14.72,.47-3.07-2.18-6.65-1.07-9.65,.54-1.46,2.09-3.3,2.81-4.79,1.02-2.1,2.36-3.9,3.72-5.77,1.01-1.39,2.72-2.81,3.41-4.37,.94-2.13,.64-5.13,1.08-7.37,.53-2.74,1.25-5.58,2.27-8.21,.88-2.29,2.13-4.45,3.11-6.71,1.37-3.17,2.23-6.68,3.96-9.7,1.76-3.06,4.49-5.58,6.29-8.68,3.7-6.39,4.4-13.8,7.42-20.39,1.63-3.56,3.4-7.08,5.19-10.54,1.53-2.98,3.25-6.21,4.54-9.25,1.28-3.03,3.24-5.56,4.72-8.57,.98-2,2.51-4.29,2.85-6.46,.34-2.14-.57-3.55-1.27-5.4-1.48-3.93-1.58-8.62-1.13-12.88-1.87,0-4.85,4.61-6.23,6.16-1.93,2.18-4.28,3.21-6.58,5.17-3.58,3.04-7.07,6.27-11.16,8.52-1.78,.98-3.1,2.1-5.11,1.7-1.39-.28-2.88-1.39-4.17-2.02-1.77-.87-3.05-2.27-5.25-2.11-1.18,.08-2.28,.75-3.4,1.05-2.06,.56-4.75,.81-6.83,.62-3.74-.34-6.38-2.48-10.25-1.6-2.76,.62-4.29,1.68-6.44,3.48-2.58,2.18-4.07,3.04-7.33,3.91-2.61,.69-5.67,2.12-7.34-.38-2.36-3.53-2.04-9.61-2.43-13.73-1.1-11.7-3.89-23.09-5.02-34.8-.84-8.71,1.43-17.89-.25-26.41-2.37-1.38-7.17,2.61-9.83,3.2-2.85,.64-3.14-.84-5.56-1.8-2.04-.81-2.8-.27-2.59-3.08,.23-3.12,.93-5.54,.53-8.58-.24-1.81-.88-3.52-1.17-5.31-1.2-7.64,.46-15.92-2.66-23.1-1.04-2.39-2.26-4.71-3.64-6.91-1.14-1.82-3.15-3.86-3.68-5.98-.65-2.6,1.3-5.3,2-7.82,2.19-7.79-.35-14.19-4.03-20.6-1.72-3-3.75-6.31-4.87-9.6-.76-2.24-.98-5.11-1.43-7.48-.81-4.22-1.03-8.27-2.24-12.39-.6-2.04-1.12-5.02-.74-7.2,.3-1.72,1.51-2.94,2.12-4.56,.75-1.96,1.23-4.37,1.02-6.36-.49-4.6-.21-9.4-.84-13.97-.55-4.01-.44-8.05-.93-12.12-.5-4.14,1.24-6.89,3.5-10.5,.72-1.15,1.97-2.39,2.28-3.6,.4-1.57-.09-6.69-.38-7.87-1.55-6.48-7.15-9.11-12.98-4.63-2.01,1.54-4.52,3.44-6.12,5.4-2.11,2.59-3.41,5.65-5.31,8.33-1.35,1.91-3.05,3.06-4.17,5.26-.86,1.68-1.39,3.48-2.28,5.14-1.96,3.68-2.83,7.29-3.83,11.26-.55,2.2-1.56,4.28-2.23,6.45-.57,1.83-.71,3.77-1.45,5.54-1.51,3.64-3.3,7.14-4.71,10.84-.94,2.48-2.28,4.65-3.04,7.19-1.08,3.61-3.72,7.33-5.46,10.75-2.03,3.99-3.14,8.45-5.36,12.39-1.55,2.74-3.09,5.44-4.58,8.23-1.15,2.14-2.81,3.91-3.96,6.04-.93,1.72-1.59,3.56-2.38,5.33-1.31,2.93-3.06,5.57-4.75,8.33-2.95,4.81-5.09,9.9-7.88,14.77-1.32,2.3-2.96,4.56-3.74,7.09-1.04,3.36,.29,6.23,.8,9.48,.8,5.05-1.63,9.85-4.06,14.49-1.27,2.43-3.04,5.91-5.64,7.34-2.2,1.22-3.51-.05-5.66-.14-2.95-.12-5.32,2.65-7.48,4.5-2.51,2.16-4.42,5.09-5.79,8.08-1.21,2.65-2.49,5.09-3.82,7.7-1.98,3.87-2.67,7.88-3.83,11.95-.71,2.48-1.48,4.82-3.07,6.91-.59,.77-1.19,1.15-1.69,2.1-1.64,3.14-2.2,6.58-3.92,9.71-2.47,4.47-4.51,9.32-6.14,14.08-1.18,3.42-2.8,9.8-6.21,11.89-3.35,2.05-5.84,1.48-9.45,1.8-4.31,.38-8.39,.41-12.43-1.08-4.75-1.75-9.16-3.95-13.78-5.96-3.48-1.51-7.63-1.55-11.22-3-4.09-1.65-6.64-5.41-10.9-6.82-1.33,1.2-.43,3.57-.72,5.21-.26,1.48-.5,2.67-.6,4.14-.35,5.24-1.45,10.43-1.6,15.66-.08,2.63-.8,5.48-.66,8.08,.11,2.1,.49,3.6,.4,5.74-.14,3.24,1.27,6.63,1.8,9.78,.51,2.99,1.71,5.43,2.94,8.13,2.49,5.45-.65,11.27,.87,16.9,1.38,5.16,2.99,9.39,2.75,14.95-.23,5.2,.76,9.11,2.25,13.87,1.06,3.36,.44,4.66-.84,8.03-1.09,2.86-.33,4.51,.37,7.1,.71,2.66,.6,4.94,.62,7.67,.03,3.08,1.55,5.97,3.16,8.37,4.94,7.37,11.62,13.63,17.1,20.61,4.66,5.93,8.37,12.89,12.47,19.23,1.81,2.8,3.41,5.55,4.89,8.56,1.29,2.61,1.36,4.77,1.61,7.72,.25,2.88-.22,5.36-.54,8.27-.36,3.32-.19,6.62-.62,9.95-.57,4.43-1.83,8.75-2.95,13.1-1.21,4.74,.07,9.52-.19,14.3-.21,3.8,.2,9.08-3.56,11.47-2.16,1.37-3.96,2.38-6.36,1.98-5.46-.93-10.32-2.7-15.5-4.32-4.59-1.44-9.68-2.82-13.43-5.77-7.04-5.55-13.91-10.92-19.27-18.15-3.14-4.24-8.64-9.52-8.48-15.37,.05-1.77-.1-3.7-.82-5.31-1.8-4.07-5.99-7.44-9.49-9.92-3.78-2.69-7.24-5.69-11.17-8.24-3.37-2.19-6.74-4.81-10.38-6.54-1.2-.57-2.89-1.75-4.29-.87-.03,2.31-1.04,3.75-2.51,5.59-1.95,2.45-3.02,3.12-5.98,2.68-7.11-1.06-10.69-5.23-15.43-10.13-3.1-3.2-6.55-5.87-9.8-8.93-1.17-1.1-2.05-2.45-3.1-3.67-1.85-2.16-4.2-3.62-6.35-5.47-3.92-3.35-7.42-7.19-11.83-9.97-1.92-1.21-3.68-2.48-6.08-1.53-4.25,1.69-7.04,4.91-11.68,2.94-1.88-.8-3.42-2.28-5.22-3.21-2.11-1.1-4.33-1.85-6.37-3.09-1.79-1.09-3.25-1.13-5.13-1.88-3-1.19-5.84-3.67-8.68-5.18-8.65-4.61-16.66-9.31-22.89-16.81-1.53-1.84-3.21-3.59-4.62-5.52-1.08-1.47-1.52-3.21-2.36-4.82-1.01-1.93-2.07-3.17-4.39-2.08-1.5,.71-2.75,2.39-4.58,2.2-1.92-.2-2.43-2.03-3.2-3.57-.8-1.59-1.73-2.83-2.87-4.17-1.77-2.09-3.5-4.22-5.25-6.33-3.46-4.17-6.94-8.31-10.37-12.5-1.77-2.17-3.95-3.61-5.85-5.62-1.9-2.02-4.57-2.68-6.97-4.14-2.99-1.82-9.96-5.1-10.27,1.37-.18,3.76,1.99,7.93,3.36,11.23,2.18,5.27,4.05,10.63,6.81,15.63,1.85,3.34,3.04,7.01,4.97,10.33,2.28,3.91,5.49,6.46,6.58,11.09,.9,3.82,1.18,7.63,1.37,11.6,.16,3.38,.43,6.68,1.25,9.91,.32,1.27,.8,2.5,.97,3.81,.28,2.17-.41,4.31,.18,6.44,1.08,3.9,2.3,7.65,3.18,11.65,1.4,6.36,1.26,12.86,4.33,18.49,.9,1.65,2.47,3.96,2.33,6-.11,1.62-1.4,2.62-2.08,4.06-1.68,3.51-.06,6.01,1.84,8.57,1.69,2.27,2.86,5.29,3.91,7.98,2.32,5.96,5.51,10.47,9.5,15.36,2.38,2.92,7.59,8.76,3.58,12.23-2.24,1.94-4.07,3.77-5.98,6.04-2.45,2.9-5.15,6.41-4.23,10.18,1.03,4.25,4.06,8.67,6.84,11.92,1.5,1.75,2.34,3.73,3.59,5.64,1.26,1.92,2.88,3.39,3.67,5.61,1.28,3.58,2.56,7,4.26,10.42,1.84,3.71,4.89,6.4,8.43,8.55,4.72,2.88,10.5,4.41,13.65,9.23-1.5,1.29-3.4,1.3-4.99,2.53-.73,.56-1.42,1.21-2.13,1.79-2.42,1.99-6.23,4.92-7.16,7.97-.7,2.27,1.38,5.02-.18,7.14-.34,.46-2.1,1.32-2.3,1.44-3.01,1.66-6.02,2.24-7.87,5.29-1.86,3.06-1.26,6.02,1.29,8.11,2.41,1.97,4.91,1.03,7.83,1.11,5.77,.16,10.34,3.47,14.77,6.49,4.33,2.95,8.93,5.22,14.01,6.76,2.54,.77,4.96,.4,7.6,.51,5.38,.23,7.59,3.45,10.62,7.11,1.84,2.22,3.56,5.19,6.23,6.46,1.66,.8,3.33,1.49,4.97,2.38,3.61,1.96,7.42,3.6,11.18,5.24,3.08,1.34,6.39,2.51,9.23,4.26,1.93,1.19,3.57,2.75,5.51,3.88,4.4,2.56,8.94,4.66,13.84,6.3,3.34,1.12,6.39,1.4,9.81,2.01,2.34,.42,4.11,2.26,5.89,3.6,2.01,1.52,3.06,2.66,2.96,5.28-.08,2.19-.9,5.03-2.61,6.66-1.83,1.74-4.51,2.51-6.53,4.22-1.43,1.21-3.59,2.45-4.8,3.92-2.75,3.36-5.27,6.62-7.33,10.56-2.6,5-6.01,9.36-9.04,14.05-2.46,3.82-6.57,6.53-10.05,9.43-1.59,1.33-3.16,3.05-5.02,3.98-1.18,.58-2.56,.75-3.75,1.32-1.61,.76-3.19,2.09-4.91,2.57-5.52,1.55-11.43-1.87-16.88,1.06-3.41,1.84-6.5,4.01-9.87,5.95-.75,.43-1.43,.6-2.18,.96-1.41,.67-2.21,1.85-3.48,2.7-1.68,1.13-6.88,2.76-6.07,5.38,2.19,.18,4.07,.34,6.06,1.11,.74,.55,1.58,.87,2.53,.98,1.09-.04,2.19-.13,3.28-.25,3.54,.57,7.03,1.56,10.72,1.9,3.5,.32,7.66,.76,11.18,.3,4.1-.54,7.46-4.5,11.53-3.39,2.93,.8,5.75,3.28,7.98,5.1,2.55,2.09,5.19,3.86,7.98,5.64,1.94,1.24,3.65,2.85,6.01,3.35,3.47,.73,7.27,1.08,10.87,1.25,3.75,.18,7.39,1.18,11.2,.61,4.43-.66,9.77-1.67,14.19-1.03,2.56,.37,2.12,1.12,2.96,3.46,.7,1.94,1.56,4.68,2.93,6.21,2.03,2.26,7.55,2.58,10.51,2.22,2.57-.31,3.91-1.7,6.11-2.73,1.74-.81,3.82-.93,5.62-1.5,4.16-1.31,7.92-4.32,12.31-4.86,4.22-.52,8.97-.25,13.05-2.12,2.02-.93,3.82-2.76,5.84-3.85,1.13-.61,2.39-1.12,3.48-1.77,1.8-1.07,5.45-5.46,7.52-4.91,.23,1.38-1.09,2.76-.96,4.33,.11,1.24,.81,2.55,1.31,3.63,1.4,3.04,4.08,5.63,6.25,8.24,1.69,2.04,3.31,4.14,5.13,6.07,1.26,1.33,4.7,6.21,6.92,5.41,.84-.3,2.44-3.23,3.03-4.07,1.07-1.52,1.78-3.13,2.7-4.72,4.03-6.94,9.27-14.07,14.71-20.06,2.78-3.06,6.08-5.61,9.28-8.24,3.14-2.58,7.28-3.49,10.24-6.19,1.3-1.19,2.07-2.78,3.32-3.98,.82-.79,1.64-1.23,2.33-2.14,1.52-2.01,2.55-4.38,4.26-6.33,2.47-2.82,4.15-5.89,6.43-8.78,1.93-2.44,3.7-4.71,5.77-7.02,1.14-1.27,1.33-2.72,2.29-4.06,.99-1.38,2.32-2.45,3.28-3.9,1.53-2.3,2.8-4.36,4.53-6.52,1.59-1.99,3.49-3.36,5.42-5.04,2.74-2.37,4.11-2.05,7.15-.84,1.58,.63,3.27,.41,4.84,.82,1.63,.43,1.4,.85,1.81,2.31,.24,.86,.64,1.73,.85,2.57,.3,1.16,.04,2.42,.25,3.64,.9,5.34,1.01,11.34,4.09,15.86,2.72,3.99,6.42,8.78,10.11,11.82,7.14,5.89,12.8,13.7,20.18,19.23,1.83,1.37,3.17,3.5,4.62,5.25,1.01,1.22,2.5,2.48,3.26,3.86,1.23,2.23,2.18,4.15,3.86,6.16,1.34,1.61,2.67,3.23,4.03,4.83,1.24,1.45,1.76,2.91,2.65,4.53,.8,1.46,2.14,2.5,3.12,3.83,.83,1.12,1.12,2.3,1.77,3.51,.74,1.36,1.99,2.34,2.91,3.57,1.49,2,2.26,4.24,3.9,6.19,1.09,1.29,2.16,2.6,3.24,3.9,6.2,7.48,12.4,14.96,18.61,22.43,2.31,2.79,5.17,5.53,6.94,8.69,2.99,5.33,6.38,10.45,9.45,15.76,1.24,2.13,2.7,4.08,3.97,6.18,.99,1.63,1.7,3.46,3.09,4.81l-41.89-79.16c-2.12,1-4.88,.76-6.51-1.76-6.66-10.25-12.26-21.6-21.72-29.64-2.38-2.03-1.93-4.73-.28-6.5-7.33-8.3-14.89-16.36-21.31-25.45-2.92-4.13,1.78-8.09,5.73-7.1,1.27-.13,2.61,.23,3.81,1.32,7.99,7.23,13.78,16.55,21.44,24.14,3.46,3.43,6.28,7.11,8.7,11.33,1.08,1.89,2.1,3.78,3.22,5.61,3.8,3.61,7.48,7.35,11.29,10.96,3.82,3.61,7.44,7.46,13.34,6.56,2.33-.22,4.58-.87,6.75-1.95,1.56-1.21,2.82-2.64,3.78-4.3,.47-1.34,1.44-2.02,2.9-2.04,1.51,.35,3.02,.69,4.53,1.02,2.41,.59,4.33,1.14,6.32,2.52,4.23,2.94,7.33,5.87,12.85,3.52,3.54-1.5,5.38-2.18,9.13-1.23,4.86,1.23,9.87,1.97,14.68,3.36,3.03,.88,6.52,3.12,9.63,3.39,2.47,.21,4.03-2.03,6.06-3.11,3.78-2.01,8.31-.61,12.13-.35,4.69,.31,10.12-.29,14.28,1.76-.35,1.62,.73,3.28,1.41,4.56,1.87,.27,4.43-3.15,5.89-4.35,1.89-1.56,3.89-2.85,5.97-4.11,3.79-2.3,8.66-5.59,12.95-6.47,4.61-.95,9.54,.88,14.13,1.05,3.2,.11,6.43-.69,9.46,.25,1.9,.59,3.4,1.87,5.25,2.58,3.18,1.23,6.86,2.02,10.36,1.34,2.36-.46,4.67-1.27,7.07-1.48,1.81-.16,3.46,.13,5.24,.1,1.8-.03,3.12-.07,4.43-1.56,.56-.64,2.22-3.27,2.17-3.88-.13-1.55-3.88-2.61-5.11-3.3-5.42-3.07-10.51-6.86-15.51-10.5-5.4-3.94-10.71-6.83-14.69-12.31-4.17-5.75-7.61-11.81-12.08-17.37-1.56-1.94-2.4-4.23-3.9-6.21-2.76-3.66-5.8-5.96-9.53-8.56-2.79-1.95-5.37-3.55-6.96-6.68-2.31-4.56-4.79-12.09-4.54-17.33,.37-7.84,3.62-17.54,10.7-22.49,6.03-4.23,11.9-4.22,18.79-5.4,8.21-1.41,16.87-7.95,23.41-13.02,3.65-2.82,6.08-6.13,9.42-9.13,3.97-3.56,8.4-6.63,12.38-10.17,2.17-1.93,4.25-4.35,6.17-6.52,2.12-2.4,4.6-4.3,6.74-6.66,3.87-4.27,7.88-8.36,11.82-12.61,4.04-4.36,8.74-7.8,10.67-13.65,1.44-4.36-2.41-11.65-6.43-13.15-1.62-.6-3.38-.37-4.72-1.54-.9-.79-1.24-1.82-1.83-2.84-2.04-3.52-7.65-8.92-3.97-13.3,1.33-1.59,3.61-2.89,5.12-4.42,1.55-1.56,3.01-3.28,4.53-4.86,4.55-4.75,9.46-9.27,13.64-14.35,2.27-2.77,4.37-5.58,7.04-8,1.31-1.19,3.43-2.78,4.15-4.58,.71-1.79,.33-3.95,.41-5.78,.14-3.19,1.08-7.18-.43-10.11-1.47-2.87-4.46-2.06-7.2-2.42,.55-2.24,3.3-3.44,4.76-5.12,1.95-2.24,3.94-5.53,4.79-8.27,.58-1.87,.44-3.9,.97-5.78,.46-1.67,1.17-2.39,1.98-3.78,1.31-2.27,2.79-5.11,3.82-7.5,1.04-2.42,1.91-4.87,2.97-7.28,1.07-2.43,3.39-5.64,2.32-8.27-.9-2.19-3.87-1.87-3.48-4.46,.55-3.72,5.23-7.74,7.25-11.03,2.03-3.31,3.85-6.86,5.73-10.24,1.29-2.31,2.49-5.33,1.4-7.7-.56-1.23-2.58-1.71-2.91-2.95-.35-1.33,1.1-3.1,1.62-4.26,1.45-3.24,3.19-6.03,5.08-9.09,3.53-5.72,6.4-12.36,8.97-18.48,2.48-5.89,2.01-12.77-.38-18.21Z"/><path class="d" d="M395.84,656.64c-1.87-.59-3.46-.57-3.25,2.23,.05,.7,.26,1.44,.53,2.18-.21-1.9,1.02-3.55,2.72-4.41Z"/><path class="d" d="M415.31,688.71c-7.19-8.15-14.6-16.07-20.94-24.95,.42,.79,.84,1.55,1.17,2.22,.67,1.35,1,2.97,1.71,4.25,1.22,2.2,3.55,4.21,5.16,6.15,.96,1.15,1.85,2.6,2.93,3.61,1.25,1.16,2.67,1.82,3.83,3.08,2.02,2.19,3.7,4.47,5.29,6.85,.22-.43,.51-.84,.85-1.2Z"/><path class="d" d="M419.99,699.46c.74,1.45,1.54,2.85,2.59,4.08,1.87,2.2,3.69,4.45,5.53,6.67l.27,.33c-2.54-3.91-5.25-7.68-8.39-11.08Z"/><path class="d" d="M443.08,726.89c.35,.39,.69,.78,1.03,1.19,.52,.63,1.05,1.26,1.57,1.89l-1.82-3.39c-.25,.12-.51,.22-.78,.31Z"/><path class="d" d="M496.93,809.96c-2.06-6.03-5.56-11.42-8.48-16.96-1.21-2.3-2.47-4.64-3.49-7.03-.97-2.29-1.24-4.79-2.39-7.05-2.22-4.38-4.64-8.73-7.83-12.47-1.6-1.88-2.26-3.98-3.68-5.94-1.32-1.82-2.94-3.47-4.38-5.2l-8.09-9.75c-4.31-5.19-8.61-10.38-12.92-15.57l41.62,77.4c-1.25,3.91,11.87,9.15,9.63,2.59Z"/></g><g><path d="M114.7,871.88h-33.9v6.15h39.45l-7.2,27.9h-32.25v6.6h38.85l-7.95,33.75H47.2v-75.3h-7.5l7.5-32.7h44.7l1.35-4.2h30l-8.55,37.8Z"/><path d="M176.5,899.69l-3-.45c-1.9-.3-4.1,.23-6.6,1.58-2.5,1.35-4.3,4.43-5.4,9.24l-.3,2.1v34.11h-30.45v-49.2h-7.5l7.5-29.7h30.45v7.65c3.3-4,8.4-6.85,15.3-8.55,2.5-.5,4.75-.75,6.75-.75h2.4l-9.15,33.96Z"/><path d="M269.05,946.28h-31.35v-11.1l-6.75,11.1h-3.75c-9,0-16.6-1.7-22.8-5.09-4.1-2.29-7.8-5.39-11.1-9.28-5.9-7.39-8.85-15.57-8.85-24.55,0-2.29,.25-5.04,.75-8.23,1.2-6.69,3.12-12.15,5.78-16.39,2.65-4.24,6.47-7.91,11.47-11.01,2.6-1.7,5.15-2.99,7.65-3.89,2.5-.9,4.52-1.4,6.08-1.5,1.55-.1,2.82-.2,3.83-.3,1-.1,2-.15,3-.15,6.8,0,12.65,1.7,17.55,5.1l1.2-3.6h27.3v48.45h7.65l-7.65,30.45Zm-31.35-42.99c0-1.61-.67-3.2-2.02-4.76-1.35-1.56-2.83-2.49-4.42-2.79-1.6-.3-2.7-.46-3.3-.46-1.9,0-3.8,.55-5.7,1.65l-2.25,1.95c-1.9,2-2.85,4.3-2.85,6.9,0,3.9,1.75,6.75,5.25,8.55,1.9,1,6.1,1.5,12.6,1.5h2.7v-12.54Z"/><path d="M360.4,931.28c-5.5,7.7-12.65,12.5-21.45,14.4-3.2,.8-6.4,1.2-9.6,1.2-6.1,0-11.3-2-15.6-6l-4.35,5.4h-27.3v-81.94h-7.5l7.53-30.26h31.47v47.55l7.78-15h5.38c4.99,0,8.98,.38,11.97,1.12,2.99,.75,6.18,2.08,9.57,3.98,5.98,3.4,10.69,7.93,14.13,13.58,3.44,5.65,5.16,12.18,5.16,19.57,0,5.9-.48,10.78-1.42,14.62-.95,3.85-2.88,7.78-5.78,11.78Zm-30.68-33.45c-1.72-.9-4.26-1.35-7.6-1.35h-5.78l-2.74,.46v2.74c0,4.46,.42,8.01,1.27,10.65,.85,2.64,2.22,4.64,4.12,6.01,1.9,1.37,4,2.05,6.3,2.05,3.3,0,5.9-1.27,7.8-3.82,1.9-2.55,2.85-5.07,2.85-7.58,0-4-2.08-7.05-6.23-9.15Z"/><path d="M407.5,946.28h-31.35v-81.94h-7.5l9.75-30.26h29.1v81.94h7.65l-7.65,30.26Z"/><path d="M452.05,946.28h-31.5v-49.26h-7.5l7.65-29.49h31.35v48.51h7.5l-7.5,30.24Zm.3-85.35h-31.35l6.9-26.85h31.65l-7.2,26.85Z"/><path d="M495.25,913.28c1.3,2.5,3.1,4.38,5.4,5.62,2.3,1.25,5.65,2.13,10.05,2.62,.5,.1,1,.15,1.5,.15h1.8c4.5,0,11.2-.95,20.1-2.85l4.05-1.05-7.2,27.6-6,.9c-4.8,.6-9.35,.9-13.65,.9-15.8,0-28.2-3.77-37.2-11.33-9-7.55-13.5-17.33-13.5-29.33,0-1.6,.05-2.87,.15-3.83,.1-.95,.3-2.47,.6-4.58,.9-4.9,2.35-9.15,4.35-12.75,6.2-11.4,16.05-17.8,29.55-19.2,.8,0,1.77-.05,2.92-.15,1.15-.1,2.27-.15,3.38-.15,4.9,0,9.15,.65,12.75,1.95,8.3,2.8,14.9,7.45,19.8,13.95,5.4,7.3,8.1,16.15,8.1,26.55l.15,4.95h-47.1Zm-.9-53.4l-18.75-25.8h30.45l11.1,25.8h-22.8Zm4.65,28.35c-2.4,.4-4.35,1.48-5.85,3.22-1.5,1.75-2.25,3.83-2.25,6.23h19.65c0-2.7-.93-4.97-2.77-6.83-1.85-1.85-4.12-2.78-6.83-2.78-.9,0-1.55,.05-1.95,.15Z"/><path d="M596.2,899.69l-3-.45c-1.9-.3-4.1,.23-6.6,1.58-2.5,1.35-4.3,4.43-5.4,9.24l-.3,2.1v34.11h-30.45v-49.2h-7.5l7.5-29.7h30.45v7.65c3.3-4,8.4-6.85,15.3-8.55,2.5-.5,4.75-.75,6.75-.75h2.4l-9.15,33.96Z"/><path d="M638.79,913.28c1.3,2.5,3.1,4.38,5.4,5.62,2.3,1.25,5.65,2.13,10.05,2.62,.5,.1,1,.15,1.5,.15h1.8c4.5,0,11.2-.95,20.1-2.85l4.05-1.05-7.2,27.6-6,.9c-4.8,.6-9.35,.9-13.65,.9-15.8,0-28.2-3.77-37.2-11.33-9-7.55-13.5-17.33-13.5-29.33,0-1.6,.05-2.87,.15-3.83,.1-.95,.3-2.47,.6-4.58,.9-4.9,2.35-9.15,4.35-12.75,6.2-11.4,16.05-17.8,29.55-19.2,.8,0,1.77-.05,2.92-.15,1.15-.1,2.27-.15,3.38-.15,4.9,0,9.15,.65,12.75,1.95,8.3,2.8,14.9,7.45,19.8,13.95,5.4,7.3,8.1,16.15,8.1,26.55l.15,4.95h-47.1Zm3.75-25.05c-2.4,.4-4.35,1.48-5.85,3.22-1.5,1.75-2.25,3.83-2.25,6.23h19.65c0-2.7-.93-4.97-2.77-6.83-1.85-1.85-4.12-2.78-6.83-2.78-.9,0-1.55,.05-1.95,.15Z"/></g><g><path class="e" d="M95.9,1031.68c-3.3,4.2-7.8,8.05-13.5,11.55-5,3.1-9.55,4.65-13.65,4.65l.15,38.85c0,1-.7,1.5-2.1,1.5-.9,0-1.65-.15-2.25-.45-.6-.2-2.43-.8-5.47-1.8-3.05-1-4.58-2.9-4.58-5.7l-.3-88.35v-2.25c0-1.4,.12-2.52,.38-3.38,.25-.85,.9-1.62,1.95-2.33,1.05-.7,2.07-1.05,3.07-1.05h8.25c5.5,0,10.3,.95,14.4,2.85,3.4,1.6,7.75,4.55,13.05,8.85,2.6,2.1,4.55,4.73,5.85,7.88,1.3,3.15,1.95,6.38,1.95,9.68,0,7.4-2.4,13.9-7.2,19.5Zm-27.45-41.55l-.3,46.05c5.7-1.3,10.17-4.22,13.42-8.78,3.25-4.55,4.88-9.92,4.88-16.12,0-7.2-1.65-12.35-4.95-15.45-2.4-2.3-6.75-4.2-13.05-5.7Z"/><path class="e" d="M149.6,1037.68l.9,18-21.3,3.45c-1.8,.4-3,.85-3.6,1.35-1.3,1-1.95,2.4-1.95,4.2l.3,6.9c0,1.5,.47,2.88,1.42,4.12,.95,1.25,2.07,1.83,3.38,1.73,2.8-.4,6.3-2.6,10.5-6.6,4.2-4,6.1-6.45,5.7-7.35,.4-.2,1.05-.3,1.95-.3,1.7,0,2.95,.55,3.75,1.65,.8,1.1,1.2,2.25,1.2,3.45,0,.5-.15,1.15-.45,1.95-.6,2.3-1.45,4.3-2.55,6-.5,.8-1.9,2.55-4.2,5.25-1.9,2.2-3.83,3.8-5.78,4.8s-4.27,1.5-6.97,1.5c-1.8,0-3.28-.18-4.42-.53-1.15-.35-2.33-1.02-3.53-2.02l-7.8-7.05c-.3-.2-.6-.65-.9-1.35-.3-.7-.55-1.25-.75-1.65-.7-1.8-1.05-3.7-1.05-5.7v-11.7c0-7.6,1.67-15.45,5.03-23.55,3.35-8.1,6.92-12.15,10.72-12.15,.6,0,1.05,.05,1.35,.15,1.9,.6,4.32,1.05,7.28,1.35,2.95,.3,5.25,1.35,6.9,3.15,1.65,1.8,2.87,3.52,3.67,5.17,.8,1.65,1.2,3.58,1.2,5.78Zm-10.95-.15c0-1.7-.33-3.2-.98-4.5-.65-1.3-1.68-2.15-3.07-2.55-1.5-.3-2.9,1.3-4.2,4.8-.9,2.5-1.5,4.25-1.8,5.25-.8,2.1-1.4,3.9-1.8,5.4-.4,1.5-.6,3.1-.6,4.8l12.45-2.85v-10.35Z"/><path class="e" d="M165.35,1026.28l1.35-1.65h3.45c.8,0,1.73,.48,2.78,1.43,1.05,.95,1.88,1.53,2.47,1.72,1.4,.4,2.55-.67,3.45-3.22,.9-2.55,1.97-4,3.22-4.35,1.25-.35,2.12-.52,2.62-.52,1.9,0,3.57,.67,5.03,2.02,1.45,1.35,2.17,2.98,2.17,4.88l-.15,5.85c0,2.9-.35,5.53-1.05,7.88-.7,2.35-1.8,3.52-3.3,3.52-2.3,0-3.85-2.25-4.65-6.75-.4-2.2-1.1-3.3-2.1-3.3-.9,0-1.63,.75-2.17,2.25-.55,1.5-.83,4.5-.83,9v42.75c-1.1,.5-2.35,.75-3.75,.75-.9,0-2-.15-3.3-.45-1.3-.3-2.55-1.03-3.75-2.17s-1.8-2.62-1.8-4.42l.3-55.2Z"/><path class="e" d="M237.5,1037.68l.9,18-21.3,3.45c-1.8,.4-3,.85-3.6,1.35-1.3,1-1.95,2.4-1.95,4.2l.3,6.9c0,1.5,.47,2.88,1.42,4.12,.95,1.25,2.07,1.83,3.38,1.73,2.8-.4,6.3-2.6,10.5-6.6,4.2-4,6.1-6.45,5.7-7.35,.4-.2,1.05-.3,1.95-.3,1.7,0,2.95,.55,3.75,1.65,.8,1.1,1.2,2.25,1.2,3.45,0,.5-.15,1.15-.45,1.95-.6,2.3-1.45,4.3-2.55,6-.5,.8-1.9,2.55-4.2,5.25-1.9,2.2-3.83,3.8-5.78,4.8s-4.27,1.5-6.97,1.5c-1.8,0-3.28-.18-4.42-.53-1.15-.35-2.33-1.02-3.53-2.02l-7.8-7.05c-.3-.2-.6-.65-.9-1.35-.3-.7-.55-1.25-.75-1.65-.7-1.8-1.05-3.7-1.05-5.7v-11.7c0-7.6,1.67-15.45,5.03-23.55,3.35-8.1,6.92-12.15,10.72-12.15,.6,0,1.05,.05,1.35,.15,1.9,.6,4.32,1.05,7.28,1.35,2.95,.3,5.25,1.35,6.9,3.15,1.65,1.8,2.87,3.52,3.67,5.17,.8,1.65,1.2,3.58,1.2,5.78Zm-10.95-.15c0-1.7-.33-3.2-.98-4.5-.65-1.3-1.68-2.15-3.07-2.55-1.5-.3-2.9,1.3-4.2,4.8-.9,2.5-1.5,4.25-1.8,5.25-.8,2.1-1.4,3.9-1.8,5.4-.4,1.5-.6,3.1-.6,4.8l12.45-2.85v-10.35Z"/><path class="e" d="M252.95,1080.73v-54.9c0-2.4,1.4-3.6,4.2-3.6,3.4,0,5.82,.43,7.27,1.27,1.45,.85,2.17,2.03,2.17,3.53l-1.35,59.25c0,1.2-.9,1.8-2.7,1.8-1,0-1.88-.1-2.62-.3-.75-.2-1.33-.35-1.72-.45-3.5-1.1-5.25-3.3-5.25-6.6Zm.6-72.45v-9.75c0-1.9,.57-3.57,1.73-5.03,1.15-1.45,2.62-2.17,4.42-2.17,1.7,0,3.25,.65,4.65,1.95,1.4,1.3,2.1,2.85,2.1,4.65v13.5c0,1.4-.65,2.43-1.95,3.07-1.3,.65-2.85,.98-4.65,.98s-3.3-.7-4.5-2.1c-1.2-1.4-1.8-3.1-1.8-5.1Z"/><path class="e" d="M284.75,1026.28l1.35-1.65h3.45c.8,0,1.73,.48,2.78,1.43,1.05,.95,1.88,1.53,2.47,1.72,1.4,.4,2.55-.67,3.45-3.22,.9-2.55,1.97-4,3.22-4.35,1.25-.35,2.12-.52,2.62-.52,1.9,0,3.57,.67,5.03,2.02,1.45,1.35,2.17,2.98,2.17,4.88l-.15,5.85c0,2.9-.35,5.53-1.05,7.88-.7,2.35-1.8,3.52-3.3,3.52-2.3,0-3.85-2.25-4.65-6.75-.4-2.2-1.1-3.3-2.1-3.3-.9,0-1.63,.75-2.17,2.25-.55,1.5-.83,4.5-.83,9v42.75c-1.1,.5-2.35,.75-3.75,.75-.9,0-2-.15-3.3-.45-1.3-.3-2.55-1.03-3.75-2.17s-1.8-2.62-1.8-4.42l.3-55.2Z"/><path class="e" d="M342.5,1032.58c-1.4-.6-3.9,2.15-7.5,8.25-1.7,2.9-3.35,5.9-4.95,9l-2.7,5.1c-.2,.4-.8,.6-1.8,.6l-.9-.6-4.05-3.45-.9-1.05c-.1-.5-.05-1.05,.15-1.65,0-.4,.05-.8,.15-1.2,.4-.8,.65-1.45,.75-1.95,1.4-3.5,3.7-8.15,6.9-13.95,1.6-2.8,3.2-5.6,4.8-8.4,1-2.4,2.9-3.6,5.7-3.6,1.3,0,2.55,.3,3.75,.9l6.3,3.75c.3,.1,1.07,.4,2.33,.9,1.25,.5,2.12,1.05,2.62,1.65,1.4,1.5,2.37,3.3,2.92,5.4,.55,2.1,.83,4.6,.83,7.5,0,1.8-.2,5.17-.6,10.12-.4,4.95-.6,8.23-.6,9.83l-.15,28.8c-1.2,1-2.3,1.5-3.3,1.5s-1.95-.33-2.85-.97c-.9-.65-1.65-1.18-2.25-1.58-.1-.1-.45-.45-1.05-1.05-.6-.6-1.15-.95-1.65-1.05-.8-.1-2.62,.33-5.48,1.28-2.85,.95-5.02,1.42-6.52,1.42s-2.8-.35-3.9-1.05c-2.8-1.8-4.85-3.55-6.15-5.25-1.7-2.2-2.55-4.75-2.55-7.65,0-3.6,1.15-6.7,3.45-9.3,1.8-2.1,4.67-4.22,8.62-6.38,3.95-2.15,8.12-3.22,12.53-3.22v-18.6c0-1-.13-1.85-.38-2.55-.25-.7-.78-1.2-1.58-1.5Zm-13.65,42.9c.4,.5,.75,.85,1.05,1.05,1,.7,2.1,1.05,3.3,1.05,1.4,0,2.57-.08,3.52-.22,.95-.15,1.95-.47,3-.98,1.05-.5,1.77-.8,2.18-.9,1.4-.5,2.1-1.25,2.1-2.25l.15-5.55c0-.9-.25-1.5-.75-1.8-.3-.2-.8-.3-1.5-.3-1.2,0-2.85,.55-4.95,1.65-.9,.5-2.05,1.15-3.45,1.95-2.1,1.5-3.4,2.55-3.9,3.15-.5,.6-.75,1.65-.75,3.15Z"/><path class="e" d="M475.25,1068.43l9.75,14.25c.3,.6,.45,1.2,.45,1.8,0,1.7-.8,3.15-2.4,4.35-.8,.7-1.85,1.05-3.15,1.05-1.6,0-3.25-.6-4.95-1.8l-13.05-10.8-19.8,9.15c-4.5,2.1-9.1,3.15-13.8,3.15-3.7,0-6.98-.67-9.83-2.02-2.85-1.35-5.35-3.6-7.5-6.75-2.15-3.15-3.22-6.77-3.22-10.88,0-6,2.35-11.9,7.05-17.7l12.45-15.45-6-7.8c-1.8-2.4-3.08-4.75-3.83-7.05-.75-2.3-1.12-4.9-1.12-7.8v-4.5c.3-1.5,.5-2.6,.6-3.3,.8-5,3.35-10.7,7.65-17.1,5.2-7.6,10.4-11.4,15.6-11.4,1.7,0,3.3,.4,4.8,1.2l7.65,4.05c5.7,2.9,9.95,5.9,12.75,9,3.5,3.9,5.25,8.45,5.25,13.65,0,4.2-.48,7.83-1.42,10.88-.95,3.05-2.73,6.03-5.33,8.92l-12.6,13.65,14.1,17.7,13.2-3.75c1.4-.4,2.45-.65,3.15-.75,1.6-.4,2.65-.6,3.15-.6,1.3,0,1.9,.55,1.8,1.65-.3,2.7-1,4.8-2.1,6.3-.4,.5-1.85,1.9-4.35,4.2l-4.95,4.5Zm-37.35-19.35l-6.45,7.35c-4.5,5-6.75,10.25-6.75,15.75,0,1.9,.35,3.2,1.05,3.9,.7,.7,1.6,1.05,2.7,1.05,1.2,0,2.5-.3,3.9-.9,.5-.2,1.8-.9,3.9-2.1l14.55-8.25-12.9-16.8Zm13.8-33.45c2.6-2.6,3.9-5.75,3.9-9.45,0-2.7-.78-5.18-2.33-7.43-1.55-2.25-3.93-3.97-7.12-5.17-.9-.3-1.75-.45-2.55-.45-2.8,0-5.15,1.45-7.05,4.35-1.9,2.9-2.85,6.25-2.85,10.05,0,4.7,.45,8.55,1.35,11.55,.9,3,2.85,5.6,5.85,7.8l10.8-11.25Z"/><path class="e" d="M573.79,980.53c.8-.4,1.85-.35,3.15,.15,2.1,1,4.2,2,6.3,3,2.4,.5,4.32,1.2,5.77,2.1,1.45,.9,2.55,2.23,3.3,3.97,.75,1.75,1.45,3.35,2.1,4.8,.65,1.45,1.47,4.98,2.47,10.57,.3,1.5,.45,2.85,.45,4.05,0,3.3-.83,5.83-2.47,7.57-1.65,1.75-3.78,2.62-6.38,2.62-.8,0-1.4-.05-1.8-.15-2-.4-3.55-1.25-4.65-2.55-1.1-1.3-2.05-3.1-2.85-5.4-.3-.7-.5-1.5-.6-2.4-.1-.9-.15-1.4-.15-1.5,0-1.7,.05-3.45,.15-5.25-.3-1.8-.95-2.7-1.95-2.7-2.3,0-5.7,4.18-10.2,12.52-4.5,8.35-7.3,15.48-8.4,21.38-.6,3.2-1.1,6.53-1.5,9.98-.4,3.45-.6,6.78-.6,9.97,0,6.7,.9,11.75,2.7,15.15,2.2,4.3,5.85,6.45,10.95,6.45,2.2,0,5.4-1.8,9.6-5.4,4.2-3.6,7.27-6.98,9.22-10.12,1.95-3.15,3.3-5.45,4.05-6.9,.75-1.45,1.47-3.32,2.17-5.62l5.7,4.65c0,4.3-.28,7.72-.83,10.27-.55,2.55-1.78,5.53-3.67,8.93-2.8,5.2-5.45,9-7.95,11.4-3.4,3.2-7.45,5-12.15,5.4-.5,.1-1.25,.15-2.25,.15-4.1,0-8.05-1.3-11.85-3.9-2.5-1.8-5.85-4.9-10.05-9.3-3.7-3.9-6.33-7.95-7.88-12.15-1.55-4.2-2.33-8.85-2.33-13.95,0-4.6,.6-9.55,1.8-14.85,.9-4.1,2.4-9.4,4.5-15.9,2.7-8.2,6.45-15.67,11.25-22.42,4.8-6.75,9.75-11.62,14.85-14.62Z"/><path class="e" d="M614.29,1080.73v-54.9c0-2.4,1.4-3.6,4.2-3.6,3.4,0,5.82,.43,7.27,1.27,1.45,.85,2.17,2.03,2.17,3.53l-1.35,59.25c0,1.2-.9,1.8-2.7,1.8-1,0-1.88-.1-2.62-.3-.75-.2-1.33-.35-1.72-.45-3.5-1.1-5.25-3.3-5.25-6.6Zm.6-72.45v-9.75c0-1.9,.57-3.57,1.73-5.03,1.15-1.45,2.62-2.17,4.42-2.17,1.7,0,3.25,.65,4.65,1.95,1.4,1.3,2.1,2.85,2.1,4.65v13.5c0,1.4-.65,2.43-1.95,3.07-1.3,.65-2.85,.98-4.65,.98s-3.3-.7-4.5-2.1c-1.2-1.4-1.8-3.1-1.8-5.1Z"/><path class="e" d="M679.24,1037.68l.9,18-21.3,3.45c-1.8,.4-3,.85-3.6,1.35-1.3,1-1.95,2.4-1.95,4.2l.3,6.9c0,1.5,.47,2.88,1.42,4.12,.95,1.25,2.07,1.83,3.38,1.73,2.8-.4,6.3-2.6,10.5-6.6,4.2-4,6.1-6.45,5.7-7.35,.4-.2,1.05-.3,1.95-.3,1.7,0,2.95,.55,3.75,1.65,.8,1.1,1.2,2.25,1.2,3.45,0,.5-.15,1.15-.45,1.95-.6,2.3-1.45,4.3-2.55,6-.5,.8-1.9,2.55-4.2,5.25-1.9,2.2-3.83,3.8-5.78,4.8s-4.27,1.5-6.97,1.5c-1.8,0-3.28-.18-4.42-.53-1.15-.35-2.33-1.02-3.53-2.02l-7.8-7.05c-.3-.2-.6-.65-.9-1.35-.3-.7-.55-1.25-.75-1.65-.7-1.8-1.05-3.7-1.05-5.7v-11.7c0-7.6,1.67-15.45,5.03-23.55,3.35-8.1,6.92-12.15,10.72-12.15,.6,0,1.05,.05,1.35,.15,1.9,.6,4.32,1.05,7.28,1.35,2.95,.3,5.25,1.35,6.9,3.15,1.65,1.8,2.87,3.52,3.67,5.17,.8,1.65,1.2,3.58,1.2,5.78Zm-10.95-.15c0-1.7-.33-3.2-.98-4.5-.65-1.3-1.68-2.15-3.07-2.55-1.5-.3-2.9,1.3-4.2,4.8-.9,2.5-1.5,4.25-1.8,5.25-.8,2.1-1.4,3.9-1.8,5.4-.4,1.5-.6,3.1-.6,4.8l12.45-2.85v-10.35Z"/><path class="e" d="M707.14,1065.13c1.8,1.6,3.22,3.2,4.27,4.8,1.05,1.6,1.58,3.35,1.58,5.25,0,.8-.28,1.88-.83,3.22-.55,1.35-1.83,2.38-3.83,3.08-3,1.1-4.75,1.85-5.25,2.25-.2,.1-.6,.55-1.2,1.35-.6,.8-1.2,1.15-1.8,1.05-2.3-.2-4.35-1.22-6.15-3.07-1.8-1.85-2.6-3.98-2.4-6.38,0-1.7,.6-3.5,1.8-5.4,2.2-2.9,4.1-5.5,5.7-7.8,.2-.4,.67-.4,1.42,0,.75,.4,1.62,.8,2.62,1.2,1.1-.1,1.85-.15,2.25-.15,.7,0,1.3,.2,1.8,.6Z"/></g></g></g></g></svg>