<?xml version="1.0" encoding="UTF-8"?><svg xmlns="http://www.w3.org/2000/svg" viewBox="0 0 143.49 61.27"><defs><style>.e{fill:#f99f28;}.f{isolation:isolate;opacity:.93;}</style></defs><g id="a"/><g id="b"><g id="c"><g><g id="d"><polygon class="e" points="82.51 55.7 83.21 53.96 77.55 48.72 79.05 47.92 78.39 44.08 81.81 44.45 82.84 43 85.51 46.37 84.01 39.06 86.26 39.81 88.41 35.88 90.43 39.72 92.82 39.06 91.27 46.33 93.94 43.05 94.88 44.45 98.25 44.12 97.74 47.83 99.28 48.81 93.62 54.01 94.22 55.84 89.16 54.99 89.31 61.27 87.38 61.27 87.67 54.95 82.51 55.7"/></g><g><path class="e" d="M.71,11.09c0-.06,.04-.12,.12-.18,.08-.06,.18-.12,.29-.18,.11-.06,.23-.11,.35-.14,.12-.03,.22-.03,.3-.02,.08,.02,.18,.08,.3,.17,.12,.09,.24,.19,.35,.29,.11,.1,.21,.21,.29,.32,.08,.11,.12,.2,.12,.26V28.31c.24-.3,.65-.51,1.22-.62,.57-.11,1.25-.19,2.03-.23,.78-.04,1.64-.06,2.57-.08,.93,0,1.88-.06,2.84-.15,.96-.09,1.91-.25,2.84-.48,.93-.23,1.79-.58,2.57-1.04,.74-.44,1.25-.67,1.52-.68,.27-.01,.37,.12,.29,.38-.08,.26-.32,.6-.72,1.02-.4,.42-.9,.84-1.49,1.26-.59,.42-1.26,.79-2,1.11-.74,.32-1.5,.5-2.29,.54-.2,.02-.5,.03-.9,.03s-.86,0-1.38,.01c-.52,.01-1.06,.01-1.62,0-.56,0-1.1-.01-1.62-.01h-1.38c-.4,0-.7,0-.9-.03-.24,.18-.49,.49-.74,.92-.25,.43-.52,.85-.81,1.25-.29,.4-.61,.72-.95,.96-.34,.24-.73,.25-1.17,.03V11.09Z"/><path class="e" d="M21.08,10.58c-.1-.28-.2-.76-.29-1.44-.09-.68-.16-1.44-.21-2.29-.05-.84-.06-1.71-.02-2.59,.04-.88,.15-1.66,.33-2.35,.18-.68,.46-1.2,.83-1.56,.37-.36,.86-.44,1.46-.24,0,.12,0,.33,.02,.63,0,.3,.02,.62,.02,.95s0,.65-.02,.95c-.01,.3-.02,.51-.02,.63-.04,.34-.09,.76-.15,1.25-.06,.49-.13,1-.21,1.54-.08,.53-.16,1.06-.23,1.59-.07,.53-.14,1.01-.21,1.44-.07,.43-.13,.78-.17,1.05-.04,.27-.07,.42-.09,.44l-.54,.51-.51-.51Z"/><path class="e" d="M27.13,32.52c-.78-.58-1.3-1.27-1.55-2.08-.25-.8-.44-1.68-.56-2.62,.04-.28,.09-.72,.15-1.32,.06-.6,.13-1.28,.21-2.03,.08-.75,.16-1.55,.23-2.39,.07-.84,.14-1.64,.21-2.39,.07-.75,.12-1.43,.17-2.03,.04-.6,.07-1.04,.09-1.32,.02-.16,.03-.44,.03-.84v-2.5c0-.4-.01-.68-.03-.84l.54-.54,9.39-3.13h1.05c.1,.28,.12,.58,.05,.9-.07,.32-.27,.54-.59,.66l-7.82,3.16-.51,.51s-.05,.23-.09,.63c-.04,.4-.09,.88-.15,1.43-.06,.55-.12,1.12-.18,1.7-.06,.58-.1,1.06-.12,1.44,0,.1,0,.28-.02,.53-.01,.25-.02,.51-.02,.78s0,.53,.02,.78c0,.25,.02,.43,.02,.53l8.88-4.69c.14-.08,.25-.06,.32,.06,.07,.12,.11,.28,.11,.48s-.04,.4-.11,.6c-.07,.2-.18,.34-.32,.42-.34,.22-.76,.47-1.25,.75-.49,.28-1,.58-1.54,.89-.53,.31-1.06,.62-1.59,.92-.53,.3-1.01,.57-1.43,.81-.42,.24-.77,.44-1.04,.59-.27,.15-.42,.23-.44,.23h-2.11v6.77c0,.92,.21,1.52,.62,1.78,.41,.26,.93,.32,1.56,.17,.63-.15,1.32-.45,2.06-.89,.74-.44,1.44-.91,2.09-1.42,.65-.5,1.21-.97,1.68-1.4,.47-.43,.76-.71,.86-.83,.08-.5,.19-.91,.33-1.23,.12-.28,.28-.48,.48-.6,.2-.12,.45-.03,.75,.27,.12,.62,.02,1.29-.29,2.02-.31,.72-.76,1.43-1.34,2.11-.58,.68-1.27,1.31-2.06,1.88-.79,.57-1.59,1.02-2.41,1.35-.81,.33-1.6,.51-2.36,.54-.76,.03-1.42-.16-1.99-.59Zm2.83-25.13c-.14-.24-.27-.46-.39-.65-.12-.19-.12-.41,0-.66,.12-.25,.42-.56,.89-.92,.47-.36,1.23-.83,2.27-1.41,.38-.1,.63-.08,.75,.06,.12,.14,.14,.34,.05,.6-.09,.26-.26,.56-.5,.9-.24,.34-.53,.66-.87,.96-.34,.3-.7,.56-1.08,.77-.38,.21-.75,.33-1.11,.35Z"/><path class="e" d="M44.58,32.52c-.02-.36-.04-.91-.08-1.64-.03-.73-.06-1.56-.09-2.5-.03-.93-.07-1.91-.11-2.93-.04-1.02-.08-2-.1-2.92-.03-.92-.06-1.75-.08-2.48-.02-.73-.03-1.28-.03-1.64,0-.12,0-.33-.02-.62-.01-.29-.02-.6-.02-.93s0-.65,.02-.95c0-.3,.02-.51,.02-.63-.24,.12-.53,.33-.86,.63-.33,.3-.69,.63-1.07,.98-.38,.35-.77,.67-1.16,.96-.39,.29-.76,.48-1.1,.56-.46-.28-.67-.63-.63-1.04,.04-.41,.27-.85,.68-1.32,.41-.47,.96-.96,1.65-1.46,.69-.5,1.45-.98,2.29-1.44,.83-.46,1.69-.88,2.57-1.26,.88-.38,1.72-.7,2.51-.95,.79-.25,1.49-.41,2.11-.48,.61-.07,1.07-.02,1.37,.14,.56,.58,.83,1.3,.81,2.17-.02,.86-.21,1.79-.57,2.77-.36,.98-.83,2.01-1.41,3.07-.58,1.06-1.14,2.09-1.69,3.08-.54,.99-1,1.93-1.38,2.8-.38,.87-.56,1.62-.54,2.24,.02,.62,.31,1.08,.87,1.38,.56,.3,1.51,.37,2.86,.21,.68-.16,1.39-.42,2.14-.77,.74-.35,1.46-.74,2.17-1.17,.7-.43,1.36-.89,1.97-1.37,.61-.48,1.13-.93,1.55-1.35,.7,.18,1.09,.44,1.17,.78,.08,.34-.06,.72-.41,1.14-.35,.42-.88,.86-1.58,1.32-.7,.46-1.49,.91-2.38,1.34-.88,.43-1.8,.82-2.75,1.16-.95,.34-1.87,.6-2.74,.78-.87,.18-1.66,.26-2.35,.24-.69-.02-1.2-.19-1.52-.51,0,.12-.01,.33-.03,.63-.02,.3-.06,.62-.12,.95-.06,.33-.16,.64-.3,.93-.14,.29-.34,.5-.6,.62-.22,.1-.43,.08-.62-.06-.19-.14-.34-.29-.44-.45Zm1.6-6.62l5.54-12.37c-.14-.46-.38-.79-.71-.98-.33-.19-.71-.28-1.13-.27-.42,.01-.85,.11-1.29,.29-.44,.18-.85,.4-1.22,.65-.37,.25-.68,.52-.92,.81-.24,.29-.36,.56-.36,.8l.09,11.07Z"/><path class="e" d="M78.35,27.28c-.02-.1-.1-.28-.22-.54-.13-.26-.24-.43-.32-.51-.22-.08-.63-.22-1.22-.41-.59-.19-1.22-.4-1.88-.63-.66-.23-1.29-.45-1.88-.65-.59-.2-1.01-.34-1.25-.42-.06-.02-.19-.09-.39-.2-.2-.11-.42-.23-.66-.36-.24-.13-.46-.25-.66-.35-.2-.1-.33-.15-.39-.15-.38,0-.74,.23-1.08,.69-.34,.46-.68,1.03-1.02,1.72-.34,.68-.7,1.41-1.08,2.18-.38,.77-.8,1.47-1.26,2.09-.46,.62-.97,1.11-1.52,1.46-.55,.35-1.17,.44-1.85,.26v-1.05c.14-.18,.37-.46,.68-.84,.31-.38,.65-.81,1.02-1.29,.37-.48,.77-.99,1.19-1.52s.82-1.04,1.19-1.52c.37-.48,.7-.91,.99-1.29,.29-.38,.51-.67,.65-.87,.26-.34,.31-.82,.14-1.43-.17-.61-.42-1.27-.75-1.97-.33-.7-.69-1.4-1.07-2.11-.38-.7-.65-1.3-.81-1.81-.16-.5-.15-.86,.03-1.08,.18-.22,.67-.2,1.47,.06,.28,.84,.67,1.7,1.17,2.59,.5,.88,1.14,1.59,1.93,2.11,.64-.42,1.25-.99,1.82-1.72,.57-.72,1.1-1.53,1.6-2.44,.49-.9,.94-1.86,1.35-2.87,.41-1.01,.78-2.02,1.11-3.01,.33-.99,.62-1.93,.86-2.81,.24-.88,.44-1.64,.6-2.29,.16-.28,.38-.5,.68-.66,.29-.16,.58-.29,.86-.39,.14,.18,.23,.62,.27,1.32,.04,.7,.06,1.56,.06,2.57s-.02,2.14-.05,3.37c-.03,1.23-.05,2.48-.06,3.73s0,2.48,.02,3.67c.02,1.19,.07,2.25,.16,3.16,.09,.91,.23,1.65,.41,2.21,.18,.56,.43,.84,.75,.84h3.16v1.87h-2.62c-.36,0-.5,.23-.42,.68,.08,.45,.27,1.03,.56,1.73,.29,.7,.63,1.48,1.02,2.33,.39,.85,.72,1.67,.99,2.45,.27,.78,.43,1.49,.46,2.14,.04,.64-.14,1.09-.54,1.35-.08,.04-.26,.06-.53,.06s-.45-.02-.53-.06c-.1-.36-.3-.98-.6-1.87-.3-.88-.62-1.83-.95-2.83-.33-1-.65-1.95-.95-2.83-.3-.88-.51-1.5-.63-1.87Zm-5.2-4.72c.12,.06,.35,.17,.68,.32,.33,.15,.69,.31,1.08,.48,.39,.17,.77,.33,1.13,.47,.36,.14,.62,.24,.78,.3,.04,.02,.12,.03,.24,.03s.2,0,.24-.03c.08-.82,.08-1.86,0-3.1-.08-1.24-.19-2.52-.32-3.82-.13-1.3-.27-2.55-.41-3.75-.14-1.19-.24-2.15-.3-2.87l-5.75,10.44c.08,.06,.25,.17,.5,.32,.25,.15,.51,.31,.78,.48,.27,.17,.53,.33,.78,.47,.25,.14,.44,.23,.56,.27Z"/><path class="e" d="M91.08,32.52c-.04-.12-.06-.31-.06-.57s.02-.42,.06-.48c.02-.02,.07-.06,.16-.11,.09-.05,.19-.11,.3-.17,.11-.06,.22-.12,.33-.17,.11-.05,.2-.08,.26-.1,.88-.24,1.76-.5,2.63-.78,.87-.28,1.73-.6,2.57-.96,.84-.36,1.65-.78,2.44-1.25,.78-.47,1.53-1.03,2.26-1.67,1.73-1.56,2.96-2.91,3.72-4.05,.75-1.13,1.15-2.09,1.19-2.87,.04-.78-.21-1.41-.74-1.88-.53-.47-1.2-.82-2.02-1.05-.81-.23-1.71-.36-2.68-.38-.97-.02-1.88,.03-2.71,.15-.83,.12-1.54,.29-2.11,.51-.57,.22-.87,.45-.89,.69l-1.05,10.44c-.02,.18-.12,.32-.29,.41-.17,.09-.35,.14-.54,.14s-.36-.04-.51-.14c-.15-.09-.23-.23-.23-.41v-8.4h-2.11s-.03-.12-.03-.26,0-.22,.03-.26c.08-.1,.21-.28,.41-.53,.19-.25,.39-.52,.62-.8,.22-.28,.43-.54,.63-.78,.2-.24,.35-.4,.45-.48,.02-.26,.05-.71,.11-1.35,.05-.64,.1-1.32,.15-2.05,.05-.72,.1-1.41,.15-2.06,.05-.65,.09-1.1,.11-1.34,.04-.54-.02-.93-.17-1.16-.15-.23-.36-.35-.62-.36-.26,0-.55,.06-.87,.21-.32,.15-.64,.34-.96,.56-.32,.22-.62,.45-.9,.69-.28,.24-.5,.43-.66,.57-.16,.16-.44,.44-.84,.83-.4,.39-.82,.81-1.26,1.26-.44,.45-.86,.87-1.26,1.26-.4,.39-.67,.67-.81,.83h-1.56c-.18-.56-.07-1.16,.35-1.79,.41-.63,1.03-1.28,1.85-1.94,.82-.66,1.8-1.32,2.94-1.99,1.13-.66,2.33-1.29,3.6-1.88,1.26-.59,2.53-1.14,3.81-1.64,1.27-.5,2.47-.93,3.58-1.28,1.11-.35,2.09-.62,2.93-.8,.84-.18,1.45-.24,1.84-.18,.36,.08,.59,.28,.69,.6,.1,.32,.12,.68,.06,1.07-.06,.39-.17,.78-.32,1.16-.15,.38-.3,.66-.44,.84-.62,.88-1.2,1.68-1.72,2.39-.52,.71-1.06,1.38-1.61,2.02-.55,.63-1.14,1.26-1.78,1.9-.63,.63-1.36,1.32-2.18,2.06,.68,.12,1.34,.14,1.97,.06,.63-.08,1.25-.16,1.87-.26,.61-.09,1.24-.14,1.9-.15,.65,0,1.35,.11,2.09,.35,.44,.14,.83,.29,1.17,.45s.64,.35,.89,.57c.25,.22,.46,.5,.63,.83,.17,.33,.32,.75,.44,1.25,.26,1.2,.16,2.38-.3,3.52-.46,1.14-1.16,2.23-2.09,3.25-.93,1.02-2.02,1.98-3.27,2.87-1.24,.89-2.51,1.7-3.79,2.42-1.28,.72-2.52,1.34-3.72,1.87-1.19,.52-2.2,.93-3.02,1.23-.22,.1-.43,.08-.63-.04-.2-.13-.34-.29-.42-.47Zm4.72-18.3c.14-.12,.35-.32,.62-.59,.27-.27,.58-.58,.93-.92,.35-.34,.72-.7,1.1-1.07,.38-.37,.74-.73,1.07-1.08,.33-.35,.63-.67,.9-.95,.27-.28,.47-.49,.59-.63,.2-.2,.45-.5,.74-.89,.29-.39,.58-.78,.86-1.17,.28-.39,.52-.74,.72-1.04,.2-.3,.3-.48,.3-.54v-1.56c-.6-.1-1.31-.05-2.12,.15-.81,.2-1.62,.46-2.42,.77-.8,.31-1.55,.63-2.24,.96-.69,.33-1.22,.58-1.58,.74l.54,1.02v6.8Z"/><path class="e" d="M109.89,11.09c0-.06,.04-.12,.12-.18,.08-.06,.18-.12,.29-.18,.11-.06,.22-.11,.35-.14,.12-.03,.22-.03,.3-.02,.08,.02,.18,.08,.3,.17,.12,.09,.24,.19,.35,.29,.11,.1,.21,.21,.29,.32,.08,.11,.12,.2,.12,.26V28.31c.24-.3,.65-.51,1.22-.62,.57-.11,1.25-.19,2.03-.23,.78-.04,1.64-.06,2.57-.08,.93,0,1.88-.06,2.84-.15,.96-.09,1.91-.25,2.84-.48,.93-.23,1.79-.58,2.57-1.04,.74-.44,1.25-.67,1.52-.68,.27-.01,.37,.12,.29,.38-.08,.26-.32,.6-.72,1.02-.4,.42-.9,.84-1.49,1.26-.59,.42-1.26,.79-2,1.11-.74,.32-1.51,.5-2.29,.54-.2,.02-.5,.03-.9,.03s-.86,0-1.38,.01c-.52,.01-1.06,.01-1.62,0-.56,0-1.11-.01-1.63-.01h-1.38c-.4,0-.7,0-.9-.03-.24,.18-.49,.49-.74,.92-.25,.43-.52,.85-.81,1.25-.29,.4-.61,.72-.95,.96-.34,.24-.73,.25-1.17,.03V11.09Z"/><path class="e" d="M131.58,32.52c-.78-.58-1.3-1.27-1.55-2.08-.25-.8-.44-1.68-.56-2.62,.04-.28,.09-.72,.15-1.32,.06-.6,.13-1.28,.21-2.03,.08-.75,.15-1.55,.22-2.39,.07-.84,.14-1.64,.21-2.39,.07-.75,.12-1.43,.17-2.03,.04-.6,.07-1.04,.09-1.32,.02-.16,.03-.44,.03-.84v-2.5c0-.4,0-.68-.03-.84l.54-.54,9.39-3.13h1.05c.1,.28,.12,.58,.04,.9-.07,.32-.27,.54-.59,.66l-7.83,3.16-.51,.51s-.05,.23-.09,.63c-.04,.4-.09,.88-.15,1.43-.06,.55-.12,1.12-.18,1.7-.06,.58-.1,1.06-.12,1.44,0,.1,0,.28-.02,.53,0,.25-.01,.51-.01,.78s0,.53,.01,.78c.01,.25,.02,.43,.02,.53l8.88-4.69c.14-.08,.24-.06,.31,.06,.07,.12,.11,.28,.11,.48s-.04,.4-.11,.6c-.07,.2-.18,.34-.31,.42-.34,.22-.76,.47-1.25,.75-.49,.28-1,.58-1.54,.89-.53,.31-1.06,.62-1.59,.92-.53,.3-1.01,.57-1.43,.81-.42,.24-.77,.44-1.04,.59-.27,.15-.42,.23-.44,.23h-2.11v6.77c0,.92,.2,1.52,.62,1.78,.41,.26,.93,.32,1.56,.17,.63-.15,1.32-.45,2.06-.89,.74-.44,1.44-.91,2.09-1.42,.65-.5,1.21-.97,1.68-1.4,.47-.43,.76-.71,.86-.83,.08-.5,.19-.91,.33-1.23,.12-.28,.28-.48,.48-.6,.2-.12,.45-.03,.75,.27,.12,.62,.03,1.29-.29,2.02-.31,.72-.76,1.43-1.34,2.11-.58,.68-1.27,1.31-2.06,1.88-.79,.57-1.59,1.02-2.41,1.35-.81,.33-1.6,.51-2.36,.54s-1.42-.16-1.99-.59Z"/></g><g class="f"><path d="M0,35.84c1.94-.29,4.26-.51,6.79-.51,4.59,0,7.85,1.06,10.02,3.08,2.2,2.02,3.49,4.88,3.49,8.88s-1.25,7.34-3.56,9.61c-2.31,2.31-6.13,3.56-10.94,3.56-2.28,0-4.18-.11-5.8-.29v-24.33Zm3.19,21.87c.81,.15,1.98,.18,3.23,.18,6.83,0,10.53-3.82,10.53-10.5,.04-5.83-3.27-9.54-10.02-9.54-1.65,0-2.9,.15-3.74,.33v19.52Z"/><path d="M27.63,35.51v14.64c0,5.54,2.46,7.89,5.76,7.89,3.67,0,6.02-2.42,6.02-7.89v-14.64h3.23v14.42c0,7.6-4,10.71-9.36,10.71-5.06,0-8.88-2.9-8.88-10.57v-14.57h3.23Z"/><path d="M55.97,60.24v-24.73h3.49l7.93,12.51c1.83,2.9,3.27,5.5,4.44,8.04l.07-.04c-.29-3.3-.37-6.31-.37-10.17v-10.35h3.01v24.73h-3.23l-7.85-12.55c-1.73-2.75-3.38-5.58-4.62-8.26l-.11,.04c.18,3.12,.26,6.09,.26,10.2v10.57h-3.01Z"/><path d="M103.45,35.84c1.61-.33,3.93-.51,6.13-.51,3.41,0,5.62,.62,7.16,2.02,1.25,1.1,1.95,2.79,1.95,4.7,0,3.27-2.06,5.43-4.66,6.31v.11c1.91,.66,3.05,2.42,3.63,4.99,.81,3.45,1.39,5.83,1.91,6.79h-3.3c-.4-.7-.95-2.83-1.65-5.91-.73-3.41-2.06-4.7-4.95-4.81h-3.01v10.72h-3.19v-24.4Zm3.19,11.27h3.27c3.41,0,5.58-1.87,5.58-4.7,0-3.19-2.31-4.59-5.69-4.62-1.54,0-2.64,.15-3.16,.29v9.03Z"/><path d="M123.2,35.84c1.95-.29,4.26-.51,6.79-.51,4.59,0,7.85,1.06,10.02,3.08,2.2,2.02,3.49,4.88,3.49,8.88s-1.25,7.34-3.56,9.61c-2.31,2.31-6.13,3.56-10.94,3.56-2.28,0-4.18-.11-5.8-.29v-24.33Zm3.19,21.87c.81,.15,1.98,.18,3.23,.18,6.83,0,10.53-3.82,10.53-10.5,.04-5.83-3.27-9.54-10.02-9.54-1.65,0-2.9,.15-3.74,.33v19.52Z"/></g></g></g></g></svg>