<?xml version="1.0" encoding="UTF-8"?><svg xmlns="http://www.w3.org/2000/svg" viewBox="0 0 479.92 343.2"><defs><style>.d{fill:#009245;}.e{font-family:BodoniMT, Bodoni MT;font-size:85.15px;}.f{font-family:BrushScriptMT, Brush Script MT;font-size:106.44px;}.g{fill:#f13124;}.h{fill:#f15a24;}.i{fill:#39b54a;}.j{letter-spacing:.03em;}.k{fill:none;}.l{letter-spacing:-.08em;}.m{opacity:.56;}</style></defs><g id="a"/><g id="b"><g id="c"><g><g class="m"><path class="i" d="M296.4,105.03c-6.04,5.16-8.6,1.2-3.25-5.02,0,0,35.28-38.67,40.13-43.09,4.85-4.42,36.85-42.65,36.85-42.65,0,0,25.45-36.1,19.21,6.53-5.11,34.88-36.16,81.31-47.28,97.04-2.18,3.08-5.48,5.55-7.54,5.64h0c-2.01,.09-2.17-2.11-.37-5.09,10.75-17.86,44.98-76.09,44.77-93.16-.04-3.02-4.58-1.42-8.23,2.9-12.92,15.29-44.25,51.23-74.28,76.91Z"/><path class="d" d="M343.98,148.99c-1.68,6.47,4.03,8.04,7.25,1.99l44.34-83.54s19.92-32.79-20.77-18.96c-33.29,11.32-62.68,48.4-72.27,61.51-1.88,2.57-2.42,6.04-1.25,7.93h0c1.14,1.84,3.54,1.57,5.55-.64,12.04-13.18,51.8-55.4,69.76-58.49,3.18-.55,4.31,3.89,2.04,8.03-8.03,14.66-26.29,49.99-34.64,82.16Z"/><path class="i" d="M374.41,129.12l31.26,63.7c1.05,2.13-1.57,4.17-3.38,2.64l-9.6-8.14c-1.63-1.38-4.07,.15-3.54,2.22l18.33,71.32c.63,2.45-2.7,3.84-4,1.67l-25.92-43.36c-1.14-1.91-4.07-1.1-4.07,1.13l.08,56.9c0,2.73-3.98,3.01-4.36,.3l-3.1-22.29c-.29-2.1-3.09-2.61-4.1-.74-10.15,18.94-41,76.65-38.29,73.1,2.67-3.48,10.72-60.67,13.5-80.9,.29-2.14-2.35-3.35-3.8-1.75l-47.55,52.75c-1.83,2.03-4.98-.45-3.43-2.7l36.94-53.97c1.28-1.86-.75-4.21-2.77-3.2-18.07,8.99-62.51,31.1-64.08,31.98-1.42,.8,33.06-25.42,52.41-40.12,2.03-1.54,.23-4.71-2.14-3.78l-113.27,44.8c-2.48,.98-4.23-2.49-1.96-3.9l39.28-24.35c2.37-1.47,.36-5.06-2.13-3.82-21.81,10.81-41.03,19.44-33.77,12.35,4.49-4.38,11.46-11.01,19.03-18.15,2.03-1.92-.67-5.05-2.86-3.31l-13.48,10.7c-2.15,1.7-4.84-1.28-2.93-3.24l46.86-48.07c1.81-1.86-.55-4.77-2.74-3.38l-38.45,24.46c-2.31,1.47-4.68-1.77-2.58-3.52l59.41-49.94c2.01-1.69-.11-4.84-2.43-3.61l-13.98,7.38c-2.33,1.23-4.45-1.95-2.42-3.63l33.62-27.72c1.93-1.59,.12-4.66-2.2-3.73-15.39,6.21-38.62,15.63-37.28,15.28,1.64-.43,54.1-22.43,72.31-30.08,1.95-.82,1.71-3.65-.35-4.14-11.6-2.78-34.52-8.33-33.13-8.44,1.49-.12,41.27,4.37,56.53,6.1,2.01,.23,3.23-2.16,1.86-3.65-6.4-6.95-17.04-18.94-5.6-9.77,12.47,9.98,34.73,13.98,46.7,25.8,1.48,1.46,2.31,2.72,3.03,4.04,1.58,2.9,3.11,5.81,4.57,8.77Z"/><path class="d" d="M381.34,127.25l12.57,19.76c.49,1.15,12.43,26.28,11.26,25.63l-23.69-18.41c-1.05-.58-3.15,.8-3.04,2.01,0,0,1.53,28.08,3.68,41.5,2.15,13.43-2.64,2.88-3.32,1.75l-13.61-22.64c-.6-1-2.97,.02-3.29,1.42l-8.24,35.65c-.4,1.71-.34,11.35-3.4,.95-3.05-10.4-1.75-16.28-1.75-16.28,.08-1.26,.62,1.75-.42,3.1-10.56,13.65-42.71,55.22-40.1,52.52,2.56-2.65,17.1-39.91,22.18-53.08,.54-1.39-1.32-1.69-2.67-.43l-44.26,41.39c-1.7,1.59-3.76,.59-2.25-1.09l36.28-40.3c1.25-1.39,.04-2.51-1.67-1.52-15.2,8.79-52.6,30.43-53.94,31.26-1.21,.75,29.12-21.72,46.15-34.32,1.78-1.32,.87-2.99-1.09-1.99l-93.63,47.9c-2.05,1.05-2.89-.82-.94-2.1l33.76-22.14c2.03-1.33,1.02-3.23-1.08-2.02-18.35,10.59-34.38,19.36-27.77,13.65,4.09-3.53,10.42-8.91,17.28-14.71,1.84-1.56,.22-3.05-1.72-1.58l-11.93,9.06c-1.9,1.44-3.54,.04-1.78-1.52l43.04-38.33c1.67-1.48,.27-2.9-1.62-1.64l-33.13,22.06c-1.99,1.32-3.34-.29-1.47-1.76l52.96-41.7c1.79-1.41,.62-3.01-1.34-1.84l-11.82,7.07c-1.97,1.18-3.14-.44-1.33-1.85l29.89-23.25c1.72-1.34,.77-2.94-1.15-1.95-12.74,6.59-31.97,16.55-30.9,16.1,1.33-.56,44.87-23.53,59.99-31.51,1.62-.85,1.85-2.59,.34-2.54-8.51,.29-25.32,.81-24.24,.51,1.17-.33,31.09-4.48,42.57-6.07,1.52-.21,2.8-1.92,1.96-2.61-3.9-3.24-10.34-8.89-2.88-5.15,8.13,4.08,24.66,2.69,32.14,8,.92,.66,1.38,1.3,1.74,2,.79,1.54,6.97,9.4,7.65,11Z"/><g><path class="g" d="M291.67,83.32c12.04-.32,55.06,31.65,7.39,51-47.67,19.35-170.32,77.83-188.48,102.95-18.87,26.11-96.23,61.31-96.23,61.31,0,0,16.35-7.97,54.18-47.02s40.34-46.38,60.44-58.46c22.94-13.79,60.61-39.18,120.9-81.1,24.69-17.17,29.75-28.36,41.79-28.68Z"/><path class="g" d="M256.49,109.56l13.58,21.34"/><path class="g" d="M226.04,131.66l3.7,5.82"/><path class="g" d="M280.94,89.45l24.27,38.15"/><path class="g" d="M182.89,160.93l6.17,9.7"/><path class="g" d="M116,207.12l8.64,13.58"/><path class="g" d="M131.99,195.13l2.06,3.23"/><path class="g" d="M269.65,100.27l13.17,20.69"/><path class="g" d="M268.24,146.59l-10.29-16.16"/><path class="g" d="M228.5,165.51l-7.82-12.29"/><path class="g" d="M184.89,186.91l-9.87-15.52"/><path class="g" d="M168.55,195.49l-4.11-6.47"/><path class="g" d="M110.3,235.28l-4.94-7.76"/><path class="g" d="M91.61,254.44l-5.35-8.41"/><path class="g" d="M297.91,91.38l6.58,10.35"/><path class="g" d="M290.22,119.28l5.49,8.62"/><path class="g" d="M248.86,131.36l6.45,10.13"/><path class="g" d="M207.11,158.54l4.53,7.11"/><path class="g" d="M217.32,158.4l2.19,3.45"/><path class="g" d="M148.47,190.1l6.86,10.78"/><path class="g" d="M93.76,233.08l5.76,9.05"/><path class="g" d="M72.46,261.47l2.06,3.23"/><path class="g" d="M57.1,270.64l.96,1.51"/></g><g><path class="h" d="M312.44,71.04c11.66-3.02,60.77,18.44,18.68,48.03-42.09,29.58-148.43,114.16-160.47,142.73s-79.96,81.4-79.96,81.4c0,0,14.14-11.44,42.21-58.01,28.58-47.41,28.87-54.27,45.73-70.56,19.24-18.6,50.24-51.81,99.55-106.23,20.19-22.28,22.61-34.33,34.26-37.35Z"/><path class="k" d="M284.06,104.53l18.03,17.73"/><path class="k" d="M259.37,132.91l4.92,4.84"/><path class="k" d="M303.36,79.44l32.24,31.71"/><path class="k" d="M223.92,171.14l8.2,8.06"/><path class="k" d="M169.14,231.21l11.47,11.29"/><path class="k" d="M182.02,215.93l2.73,2.69"/><path class="k" d="M294.8,92.52l17.48,17.2"/><path class="k" d="M303.85,137.96l-13.66-13.43"/><path class="k" d="M269.4,165.35l-10.38-10.21"/><path class="k" d="M231.72,196.01l-13.11-12.9"/><path class="k" d="M217.72,208.05l-5.46-5.37"/><path class="k" d="M169.92,259.93l-6.56-6.45"/><path class="k" d="M156.02,282.8l-7.1-6.99"/><path class="k" d="M320.33,77.49l8.74,8.6"/><path class="k" d="M319.12,106.4l7.29,7.17"/><path class="k" d="M281.55,127.49l8.56,8.42"/><path class="k" d="M246.98,163.37l6.01,5.91"/><path class="k" d="M256.89,160.93l2.91,2.87"/><path class="k" d="M196.94,207.32l9.11,8.96"/><path class="k" d="M153.32,261.51l7.65,7.52"/><path class="k" d="M138.96,293.96l2.73,2.69"/><path class="k" d="M126.05,306.36l1.27,1.25"/></g></g><text transform="translate(4.68 115.38)"><tspan class="e"><tspan class="l" x="0" y="0">F</tspan><tspan x="47.94" y="0">e</tspan><tspan class="j" x="84.28" y="0">r</tspan><tspan x="118.5" y="0">me </tspan></tspan><tspan class="f"><tspan x="0" y="83.02">Maraîchérie</tspan></tspan></text></g></g></g></svg>