<?xml version="1.0" encoding="UTF-8"?><svg xmlns="http://www.w3.org/2000/svg" viewBox="0 0 145.5 145.5"><defs><style>.d{opacity:.1;}.e{fill:#fff;}.f{fill:#a95000;}.g{fill:none;stroke:#000;stroke-miterlimit:10;}</style></defs><g id="a"/><g id="b"><g id="c"><g><g><g class="d"><rect x=".5" y=".5" width="144.5" height="9.25"/><rect x=".5" y="19" width="144.5" height="9.25"/><rect x=".5" y="37.5" width="144.5" height="9.25"/><rect x=".5" y="56" width="144.5" height="9.25"/><rect x=".5" y="74.5" width="144.5" height="9.25"/><rect x=".5" y="93" width="144.5" height="9.25"/></g><rect class="g" x=".5" y=".5" width="144.5" height="144.5"/></g><g><g><path class="f" d="M23.29,8.33C12.59,8.33,3.91,16.89,3.67,27.53V116.44H42.92V27.53c-.24-10.64-8.93-19.2-19.63-19.2Z"/><g><rect class="e" x="48" y="79.01" width="91" height="37.43"/><polygon class="f" points="89.47 41.58 44.08 73.16 44.08 116.44 52.56 116.44 52.56 87.31 133.35 87.31 133.35 116.44 141.83 116.44 141.83 73.16 89.47 41.58"/><g><path class="f" d="M66.23,94.37h-10.5v6.66h9.12v1.46h-9.12v9.13h-1.86v-18.68h12.36v1.43Z"/><path class="f" d="M80.33,111.62h-12.5v-18.68h12.36v1.43h-10.5v6.56h9.14v1.47h-9.14v7.78h10.64v1.44Z"/><path class="f" d="M96.01,97.9c0,1.28-.33,2.31-.99,3.11-.66,.79-1.67,1.38-3.04,1.74l4.34,8.87h-1.99l-4.24-8.59h-5.83v8.59h-1.85v-18.68h6.75c2.42,0,4.17,.4,5.24,1.21,1.07,.8,1.61,2.06,1.61,3.76Zm-11.75-3.58v7.27h4.48c.61,0,1.15-.02,1.61-.06,.46-.04,.94-.14,1.44-.29,.5-.15,.91-.36,1.22-.61,.32-.26,.58-.61,.79-1.07,.2-.46,.31-.99,.31-1.62s-.1-1.2-.29-1.65c-.2-.46-.44-.81-.74-1.06-.29-.25-.68-.45-1.16-.59-.48-.14-.93-.23-1.34-.26-.42-.03-.93-.05-1.53-.05h-4.79Z"/><path class="f" d="M98.81,111.62v-18.67h2.69l5.96,13.5,6.12-13.49h2.44v18.65h-1.71v-16.27l-6.06,13.08h-1.72l-5.94-13.15v16.34h-1.78Z"/><path class="f" d="M132.3,111.62h-12.5v-18.68h12.36v1.43h-10.5v6.56h9.13v1.47h-9.13v7.78h10.64v1.44Z"/></g></g></g><g><path d="M20.23,131.7c-.14-2.59-.3-5.71-.28-8.03h-.08c-.63,2.18-1.41,4.5-2.34,7.06l-3.28,9.02h-1.82l-3.01-8.85c-.88-2.62-1.63-5.02-2.15-7.23h-.06c-.06,2.32-.19,5.43-.36,8.22l-.5,7.97h-2.29l1.3-18.59h3.06l3.17,8.99c.77,2.29,1.41,4.33,1.88,6.26h.08c.47-1.88,1.13-3.92,1.96-6.26l3.31-8.99h3.06l1.16,18.59h-2.34l-.47-8.16Z"/><path d="M29.68,122.77c.03,.83-.58,1.49-1.54,1.49-.85,0-1.46-.66-1.46-1.49s.63-1.52,1.52-1.52,1.49,.66,1.49,1.52Zm-2.7,17.1v-13.35h2.43v13.35h-2.43Z"/><path d="M33.43,130.68c0-1.57-.03-2.92-.11-4.16h2.12l.08,2.62h.11c.61-1.79,2.07-2.92,3.69-2.92,.28,0,.47,.03,.69,.08v2.29c-.25-.05-.5-.08-.83-.08-1.71,0-2.92,1.3-3.25,3.12-.06,.33-.11,.72-.11,1.13v7.12h-2.4v-9.18Z"/><path d="M49.7,139.87l-.19-1.68h-.08c-.75,1.05-2.18,1.99-4.08,1.99-2.7,0-4.08-1.9-4.08-3.83,0-3.23,2.87-4.99,8.02-4.96v-.28c0-1.1-.3-3.09-3.03-3.09-1.24,0-2.54,.39-3.47,.99l-.55-1.6c1.1-.72,2.7-1.19,4.38-1.19,4.08,0,5.08,2.78,5.08,5.46v4.99c0,1.16,.05,2.29,.22,3.2h-2.21Zm-.36-6.81c-2.65-.05-5.65,.41-5.65,3.01,0,1.57,1.05,2.32,2.29,2.32,1.74,0,2.84-1.1,3.23-2.23,.08-.25,.14-.52,.14-.77v-2.32Z"/><path d="M55.49,139.87c.06-.91,.11-2.26,.11-3.45v-16.13h2.4v8.38h.06c.85-1.49,2.4-2.45,4.55-2.45,3.31,0,5.65,2.76,5.62,6.81,0,4.77-3.01,7.14-5.98,7.14-1.93,0-3.48-.75-4.47-2.51h-.08l-.11,2.21h-2.09Zm2.51-5.35c0,.3,.06,.61,.11,.88,.47,1.68,1.88,2.84,3.64,2.84,2.54,0,4.05-2.07,4.05-5.13,0-2.67-1.38-4.96-3.97-4.96-1.65,0-3.2,1.13-3.69,2.98-.06,.28-.14,.61-.14,.99v2.4Z"/><path d="M72.64,133.63c.06,3.28,2.15,4.63,4.58,4.63,1.74,0,2.79-.3,3.7-.69l.41,1.74c-.86,.39-2.32,.83-4.44,.83-4.11,0-6.56-2.7-6.56-6.73s2.37-7.2,6.26-7.2c4.36,0,5.51,3.83,5.51,6.29,0,.5-.05,.88-.08,1.13h-9.38Zm7.11-1.74c.03-1.54-.63-3.94-3.36-3.94-2.45,0-3.53,2.26-3.72,3.94h7.09Z"/><path d="M85.1,120.29h2.43v19.58h-2.43v-19.58Z"/><path d="M91.61,120.29h2.43v19.58h-2.43v-19.58Z"/><path d="M110.19,133.08c0,4.94-3.42,7.09-6.65,7.09-3.61,0-6.4-2.65-6.4-6.87,0-4.47,2.92-7.09,6.62-7.09s6.42,2.78,6.42,6.87Zm-10.59,.14c0,2.92,1.68,5.13,4.05,5.13s4.05-2.18,4.05-5.18c0-2.26-1.13-5.13-4-5.13s-4.11,2.65-4.11,5.18Z"/><path d="M115.95,122.77c.03,.83-.58,1.49-1.54,1.49-.85,0-1.46-.66-1.46-1.49s.63-1.52,1.52-1.52,1.49,.66,1.49,1.52Zm-2.7,17.1v-13.35h2.43v13.35h-2.43Z"/><path d="M119.37,137.38c.72,.47,1.99,.97,3.2,.97,1.76,0,2.59-.88,2.59-1.98,0-1.16-.69-1.79-2.48-2.46-2.4-.86-3.53-2.18-3.53-3.78,0-2.15,1.74-3.92,4.6-3.92,1.35,0,2.54,.38,3.28,.83l-.61,1.76c-.52-.33-1.49-.77-2.73-.77-1.43,0-2.23,.83-2.23,1.82,0,1.1,.8,1.6,2.54,2.26,2.32,.88,3.5,2.04,3.5,4.03,0,2.35-1.82,4-4.99,4-1.46,0-2.81-.36-3.75-.91l.61-1.85Z"/><path d="M131.97,133.63c.06,3.28,2.15,4.63,4.58,4.63,1.74,0,2.79-.3,3.7-.69l.42,1.74c-.85,.39-2.32,.83-4.44,.83-4.11,0-6.56-2.7-6.56-6.73s2.37-7.2,6.26-7.2c4.36,0,5.52,3.83,5.52,6.29,0,.5-.06,.88-.08,1.13h-9.37Zm7.12-1.74c.03-1.54-.64-3.94-3.37-3.94-2.45,0-3.53,2.26-3.72,3.94h7.09Z"/></g></g></g></g></g></svg>