<?xml version="1.0" encoding="UTF-8"?><svg xmlns="http://www.w3.org/2000/svg" viewBox="0 0 606.19 670.92"><defs><style>.d{fill:#8cc63f;}.e{fill:#a67c52;}.f{fill:#c69c6d;}.g{fill:#f7931e;}.h{fill:#d9e021;}.i{fill:#754c24;}.j{fill:#fbb03b;}</style></defs><g id="a"/><g id="b"><g id="c"><path class="j" d="M233.36,77.2c-87.27-3.08-175.96,60.1-191.23,151.84-15.27,91.74,292.65,279.34,341.87,241.1,49.23-38.24-63.37-389.85-150.64-392.93Z"/><ellipse class="g" cx="146.75" cy="165.12" rx="107.05" ry="46.75" transform="translate(-70.44 124.74) rotate(-37.84)"/><path class="d" d="M123.98,184.65c13.15,1.72,30.93-1.07,43.73-5.76,57.65-21.13,74.26-102.77,59.31-113.66-12.37-9.01-57.54,22.19-89.01,54.79C120.61,65.98,77.4-2.66,43.81,.08,19.06,2.1-.21,42.83,0,74.55c.45,65.81,84.86,110.76,123.97,110.1Z"/><g><path class="g" d="M248.64,434.24c-.6,5.33,.32,9.82,2.94,13.19,8.17,10.51,30.91,7.7,58.73-5.21-23.19,4.89-45.26,2.3-61.67-7.99Z"/><path class="g" d="M381.56,330.99c5.91,18.45,2.96,40.47-7.51,61.73,19.38-23.77,27.74-45.11,19.57-55.62-2.62-3.37-6.75-5.37-12.06-6.11Z"/></g><g><path class="g" d="M143.52,365.72c-.6,5.33,.32,9.82,2.94,13.19,8.17,10.51,30.91,7.7,58.73-5.21-23.19,4.89-45.26,2.3-61.67-7.99Z"/><path class="g" d="M341.19,212.17c5.91,18.45,2.96,40.47-7.51,61.73,19.38-23.77,27.74-45.11,19.57-55.62-2.62-3.37-6.75-5.37-12.06-6.11Z"/></g><path class="h" d="M116.12,176.77c-5.62-1.32-11.77-5.6-15.44-9.98-16.51-19.74,.16-62.16,9.09-65,7.38-2.35,16.17,20.24,19.21,41.26,22.12-23.41,58.46-49.68,70.8-42.83,9.09,5.05,5.06,28.01-4.03,43.4-18.85,31.92-64.55,39.9-79.63,33.16Z"/><path class="f" d="M300.34,192.51c75.55-61.06,70.68-112.94,166.36-97.02,107.93,17.95,122.15,179.57,67.3,258.8-54.85,79.22-191.67,110.82-265.92,28.09-76.36-85.07-35.99-134.7,32.26-189.87Z"/><path class="e" d="M292.02,394.64c-73.52-98.82-46.65-159.66,20.19-198.73,79.75-46.63,79.96-88.51,169.14-74.74,35.5,5.48,59.85,28.02,74.21,58.19-13.85-42.4-42.82-76.21-88.87-83.87-95.69-15.92-90.82,35.96-166.36,97.02-68.25,55.17-108.62,104.79-32.26,189.87,16.1,17.93,35.13,30.48,55.64,38.35-11.48-6.7-23.12-14.57-31.69-26.09Z"/><g><path class="i" d="M206.83,546.28v20.02h-7.38v19.47h-22.2v-46.32c0-8.71,2.69-15.92,8.07-21.63,5.38-5.71,12.15-8.56,20.32-8.56,9,0,16.53,3.88,22.59,11.65l-18.21,13.29c-1.02-2.84-2.83-4.27-5.41-4.27-3.43,0-5.14,2.37-5.14,7.11v9.24h7.38Z"/><path class="i" d="M284.76,561.81h-31.01c-.47-1.57-.71-3.01-.71-4.32,0-1.82,.33-3.61,.98-5.36h10.39c-.73-4.05-3.01-6.07-6.84-6.07-2.55,0-4.63,1.08-6.23,3.25-1.6,2.17-2.41,4.95-2.41,8.34s.77,6.4,2.32,8.59c1.55,2.19,3.58,3.28,6.1,3.28,2.04,0,4.01-1.02,5.91-3.06l11.65,14c-5.43,4.27-11.47,6.4-18.1,6.4-8.09,0-14.89-2.72-20.4-8.15-5.51-5.43-8.26-12.16-8.26-20.18s2.78-14.73,8.34-20.23c5.56-5.5,12.39-8.26,20.48-8.26s14.56,2.69,19.93,8.07c5.38,5.38,8.07,12,8.07,19.88,0,.8-.07,2.08-.22,3.83Z"/><path class="i" d="M323.15,530.7v21.88c-1.42-.8-2.72-1.2-3.88-1.2-3.72,0-5.58,2.84-5.58,8.53v25.87h-20.45v-29.8c0-7.88,2.15-14.15,6.45-18.84,4.3-4.68,10.04-7.03,17.23-7.03,1.6,0,3.68,.2,6.23,.6Z"/><path class="i" d="M403.98,585.77h-20.45v-29.42c0-2.26-.24-3.83-.71-4.7-.47-.88-1.33-1.31-2.57-1.31-2.3,0-3.45,2.02-3.45,6.07v29.37h-20.45v-29.42c0-2.26-.25-3.83-.74-4.7s-1.36-1.31-2.6-1.31c-2.26,0-3.39,2.02-3.39,6.07v29.37h-20.45v-33.58c0-6.12,2.06-11.33,6.18-15.61,4.12-4.28,9.11-6.43,14.98-6.43s11.48,2.55,16.3,7.66c5.36-5.1,10.72-7.66,16.08-7.66,6.82,0,12.29,2.48,16.41,7.44,3.24,3.87,4.87,9.5,4.87,16.9v31.28Z"/><path class="i" d="M469.55,561.81h-31.01c-.47-1.57-.71-3.01-.71-4.32,0-1.82,.33-3.61,.98-5.36h10.39c-.73-4.05-3.01-6.07-6.84-6.07-2.55,0-4.63,1.08-6.23,3.25-1.6,2.17-2.41,4.95-2.41,8.34s.77,6.4,2.32,8.59c1.55,2.19,3.58,3.28,6.1,3.28,2.04,0,4.01-1.02,5.91-3.06l11.65,14c-5.43,4.27-11.47,6.4-18.1,6.4-8.09,0-14.89-2.72-20.4-8.15-5.51-5.43-8.26-12.16-8.26-20.18s2.78-14.73,8.34-20.23c5.56-5.5,12.39-8.26,20.48-8.26s14.56,2.69,19.93,8.07c5.38,5.38,8.07,12,8.07,19.88,0,.8-.07,2.08-.22,3.83Z"/><path class="i" d="M40.83,669.77v-53.81c0-6.67,2.02-12.12,6.07-16.35,4.05-4.23,9.3-6.34,15.75-6.34,7.66,0,13.54,3.52,17.66,10.55,2.52-3.79,5.21-6.5,8.09-8.12,2.88-1.62,6.43-2.43,10.66-2.43,6.71,0,11.85,2.12,15.42,6.34,3.57,4.23,5.36,10.32,5.36,18.27v51.9h-22.2v-48.56c0-2.41-.19-4-.57-4.79-.38-.78-1.16-1.18-2.32-1.18-2.19,0-3.28,1.86-3.28,5.58v48.95h-22.2v-48.56c0-2.37-.2-3.96-.6-4.76-.4-.8-1.19-1.2-2.35-1.2-2.19,0-3.28,1.99-3.28,5.96v48.56h-22.2Z"/><path class="i" d="M162.07,649.31v21.16c-1.68,.29-3.21,.44-4.59,.44-8.2,0-15.04-2.7-20.51-8.09-5.47-5.4-8.2-12.16-8.2-20.29s2.76-14.62,8.29-20.12c5.52-5.5,12.24-8.26,20.15-8.26,8.82,0,15.78,2.58,20.86,7.74,5.09,5.16,7.63,12.21,7.63,21.14v26.74h-20.45v-25.27c0-2.88-.7-5.18-2.11-6.89-1.4-1.71-3.29-2.57-5.66-2.57-2.15,0-4.01,.78-5.58,2.35s-2.35,3.43-2.35,5.58c0,2.26,.71,4.12,2.13,5.58,1.42,1.46,3.23,2.19,5.41,2.19,1.79,0,3.45-.47,4.98-1.42Z"/><path class="i" d="M227.53,614.7v21.88c-1.42-.8-2.72-1.2-3.88-1.2-3.72,0-5.58,2.84-5.58,8.53v25.87h-20.45v-29.8c0-7.88,2.15-14.15,6.45-18.84,4.3-4.68,10.04-7.03,17.23-7.03,1.6,0,3.68,.2,6.23,.6Z"/><path class="i" d="M263.84,649.31v21.16c-1.68,.29-3.21,.44-4.59,.44-8.2,0-15.04-2.7-20.51-8.09-5.47-5.4-8.2-12.16-8.2-20.29s2.76-14.62,8.29-20.12c5.52-5.5,12.24-8.26,20.15-8.26,8.82,0,15.78,2.58,20.86,7.74,5.09,5.16,7.63,12.21,7.63,21.14v26.74h-20.45v-25.27c0-2.88-.7-5.18-2.11-6.89-1.4-1.71-3.29-2.57-5.66-2.57-2.15,0-4.01,.78-5.58,2.35s-2.35,3.43-2.35,5.58c0,2.26,.71,4.12,2.13,5.58,1.42,1.46,3.23,2.19,5.41,2.19,1.79,0,3.45-.47,4.98-1.42Z"/><path class="i" d="M309.23,595.34l15.26,14.66h-12.8l-2.46-2.68-2.79,2.68h-11.7l14.49-14.66Zm10.55,19.91v54.52h-20.45v-54.52h20.45Z"/><path class="i" d="M365.29,644.67l20.29-.77c-.58,7.88-3.52,14.35-8.8,19.41-5.29,5.07-11.72,7.6-19.3,7.6-8.02,0-14.79-2.79-20.32-8.37s-8.29-12.41-8.29-20.51,2.79-14.27,8.37-19.74,12.27-8.2,20.07-8.2c6.82,0,12.83,2.15,18.05,6.45,5.21,4.3,8.46,9.79,9.73,16.46l-20.73,.77c-1.79-2.33-4.05-3.5-6.78-3.5-2.33,0-4.25,.77-5.74,2.3-1.5,1.53-2.24,3.46-2.24,5.8s.79,4.36,2.38,5.96c1.59,1.6,3.56,2.41,5.93,2.41,3.46,0,5.92-2.02,7.38-6.07Z"/><path class="i" d="M414.94,595.12v22.8c3.46-2.52,6.93-3.77,10.39-3.77,5.25,0,9.42,1.9,12.5,5.69,3.08,3.79,4.62,8.91,4.62,15.37v34.56h-20.45v-28.82c0-2.33-.25-3.9-.74-4.7-.49-.8-1.45-1.2-2.87-1.2-2.3,0-3.45,1.7-3.45,5.09v29.64h-20.45v-74.65h20.45Z"/><path class="i" d="M507.97,645.81h-31.01c-.47-1.57-.71-3.01-.71-4.32,0-1.82,.33-3.61,.98-5.36h10.39c-.73-4.05-3.01-6.07-6.84-6.07-2.55,0-4.63,1.08-6.23,3.25-1.6,2.17-2.41,4.95-2.41,8.34s.77,6.4,2.32,8.59c1.55,2.19,3.58,3.28,6.1,3.28,2.04,0,4.01-1.02,5.91-3.06l11.65,14c-5.43,4.27-11.47,6.4-18.1,6.4-8.09,0-14.89-2.72-20.4-8.15-5.51-5.43-8.26-12.16-8.26-20.18s2.78-14.73,8.34-20.23c5.56-5.5,12.39-8.26,20.48-8.26s14.56,2.69,19.93,8.07c5.38,5.38,8.07,12,8.07,19.88,0,.8-.07,2.08-.22,3.83Zm-31.55-48.73l11.54,12.69h-11.54l-12.96-12.69h12.96Z"/><path class="i" d="M546.36,614.7v21.88c-1.42-.8-2.72-1.2-3.88-1.2-3.72,0-5.58,2.84-5.58,8.53v25.87h-20.45v-29.8c0-7.88,2.15-14.15,6.45-18.84,4.3-4.68,10.04-7.03,17.23-7.03,1.6,0,3.68,.2,6.23,.6Z"/><path class="i" d="M605.97,645.81h-31.01c-.47-1.57-.71-3.01-.71-4.32,0-1.82,.33-3.61,.98-5.36h10.39c-.73-4.05-3.01-6.07-6.84-6.07-2.55,0-4.63,1.08-6.23,3.25-1.6,2.17-2.41,4.95-2.41,8.34s.77,6.4,2.32,8.59c1.55,2.19,3.58,3.28,6.1,3.28,2.04,0,4.01-1.02,5.91-3.06l11.65,14c-5.43,4.27-11.47,6.4-18.1,6.4-8.09,0-14.89-2.72-20.4-8.15-5.51-5.43-8.26-12.16-8.26-20.18s2.78-14.73,8.34-20.23c5.56-5.5,12.39-8.26,20.48-8.26s14.56,2.69,19.93,8.07c5.38,5.38,8.07,12,8.07,19.88,0,.8-.07,2.08-.22,3.83Z"/></g></g></g></svg>