<?xml version="1.0" encoding="UTF-8"?><svg xmlns="http://www.w3.org/2000/svg" width="453.17" height="136.48" viewBox="0 0 453.17 136.48"><defs><style>.d{fill:#6ba352;stroke-width:9px;}.d,.e{stroke:#000;stroke-miterlimit:10;}.e{fill:#d84a4a;stroke-width:3px;}</style></defs><g id="a"/><g id="b"><g id="c"><path class="d" d="M117.76,31.67S107.55,6,74.98,4.62C42.41,3.24,28.34,14,23.09,30.01c-5.24,16.01-16.56,37.25,31.19,58.78s86.39-39.46,63.48-57.13Z"/><path class="e" d="M104.01,66.98s-1.62-41-37.62-38.3-30.61,36.44-30.44,41.23,11.72,34.14,22.52,32.28,53.86-18.68,51.66-24.67-6.13-10.54-6.13-10.54Z"/><path class="d" d="M56.28,130.85s11.08-38.77,29.27-48.26c11.08-7.38,35.6-21.1,32.18-49.32,0,0,3.69-6.33,7.91-1.32,22.95,22.15,9.6,111.03-69.36,98.9Z"/><path class="d" d="M21.47,37.49s-.53-17.93-10.29-2.64S-6.48,122.41,54.7,130.85c5.07-10.26,14.86-33.76,14.86-33.76,0,0-4.31-16.62-27.26-23.74-23.74-9.49-20.57-40.88-20.84-35.87Z"/><path d="M106.77,71.1c4.08-9.08,.21-20.31-4.97-28.2-4.76-7.25-11.58-13.29-19.57-16.75-9.61-4.16-20.65-5.08-30.35-.66-4.36,1.99-8.13,5.3-10.78,9.28-2.99,4.48-4.9,11.09-1.78,15.99s9.05,6.44,14.23,7.87c2.26,.63,4.5,1.26,6.69,2.09,1.09,.41-.55-.29,.08,.04,.26,.14,.54,.25,.81,.38,.53,.27,1.04,.55,1.54,.87,.2,.13,.39,.26,.59,.39,.78,.5-.53-.53,.22,.16,.45,.41,.88,.8,1.3,1.25,1.61,1.72,4.76,1.75,6.36,0,1.69-1.84,1.72-4.53,0-6.36-2.94-3.14-6.87-4.96-10.91-6.25-1.83-.58-3.7-1.07-5.55-1.59-.9-.25-1.79-.52-2.67-.81-.47-.15-.93-.32-1.4-.49-.17-.06-.34-.14-.52-.2-.52-.17,.67,.32-.11-.04-.86-.4-1.66-.85-2.45-1.37-.53-.34,.43,.49,.04,0-.11-.13-.27-.26-.4-.38-.58-.55-.09-.11,.01,.06,0,0-.52-.93-.31-.48,.21,.48-.06-.34-.11-.44-.26-.57-.04,.6-.02-.03,.01-.49-.02-.98,.03-1.47-.02,.22-.17,.77,.04-.06,.07-.28,.13-.55,.21-.83,.15-.51,.33-1.02,.53-1.51-.38,.95,.24-.44,.34-.63,.21-.39,.43-.77,.66-1.14s.48-.73,.73-1.09c.49-.69,.09-.11-.02,.02,.2-.24,.4-.48,.61-.72,.63-.7,1.31-1.37,2.02-1.98,.19-.16,.39-.32,.58-.48-.13,.11-.7,.5,0,.01,.41-.29,.83-.58,1.26-.85,.8-.5,1.64-.95,2.5-1.35,.11-.05,.84-.35,.36-.16s.22-.08,.26-.09c.63-.22,1.26-.44,1.9-.62,1.07-.31,2.15-.53,3.25-.72,.14-.02,.88-.08,.13-.02,.3-.03,.59-.06,.89-.09,.59-.05,1.19-.08,1.78-.1,1.12-.03,2.24,0,3.35,.09,.52,.04,1.04,.09,1.56,.15-.75-.08,0,0,.13,.02,.35,.06,.7,.12,1.06,.18,1.82,.34,3.61,.82,5.36,1.43,.45,.16,.9,.32,1.34,.5,.17,.07,.33,.13,.5,.2,.61,.24-.68-.32-.09-.03,.86,.41,1.73,.8,2.57,1.25,1.63,.87,3.21,1.85,4.7,2.93,.17,.13,1.34,1.05,.52,.38,.32,.27,.65,.52,.97,.79,.73,.62,1.44,1.26,2.13,1.92,1.34,1.29,2.54,2.68,3.73,4.11-.67-.81,.34,.47,.48,.66,.31,.44,.62,.88,.91,1.33,.56,.85,1.08,1.72,1.57,2.6s.95,1.79,1.37,2.71c.1,.22,.19,.44,.29,.65-.25-.56-.15-.37,.02,.08,.2,.5,.38,1,.56,1.51,.69,2,1.18,4.04,1.54,6.12-.13-.77,0-.04,0,.11,.03,.36,.07,.73,.08,1.09,.03,.65,.04,1.3,0,1.96-.01,.22-.04,.43-.05,.65-.04,.49,.15-.52-.07,.29-.07,.28-.13,.56-.21,.83-.05,.17-.5,1.29-.15,.53-.96,2.14-.69,4.94,1.61,6.16,1.97,1.04,5.13,.68,6.16-1.61h0Z"/><path d="M86.75,40.44c-.09,.25-.18,.5-.28,.74,.2-.47,.19-.47-.02,0-.25,.46-.47,.93-.74,1.39s-.55,.89-.84,1.32c-.15,.22-.3,.43-.46,.64,.31-.39,.3-.38-.03,.02-1.31,1.52-2.7,2.92-4.25,4.19-.21,.17-.41,.34-.62,.5,.38-.29,.37-.29-.04,.03-.43,.31-.86,.63-1.29,.93-.97,.67-1.96,1.31-2.96,1.94-1.97,1.23-3.97,2.4-5.95,3.62-7.56,4.68-15.5,11.17-16.87,20.55-.34,2.32,.57,4.95,3.14,5.54,2.13,.49,5.17-.65,5.54-3.14,.15-1.02,.37-2.01,.7-2.99,.08-.24,.17-.48,.26-.72-.21,.48-.21,.49,0,.02,.23-.46,.45-.92,.7-1.37s.52-.89,.81-1.31c.1-.15,1.06-1.45,.44-.66,.56-.72,1.17-1.4,1.81-2.05,.73-.75,1.49-1.46,2.29-2.13,.1-.09,1.27-1.01,.7-.58,.48-.36,.96-.71,1.45-1.05,1.9-1.33,3.88-2.53,5.87-3.73,8.01-4.83,15.98-10.12,19.31-19.3,.8-2.22-.9-5.03-3.14-5.54-2.54-.58-4.67,.77-5.54,3.14h0Z"/><path d="M44.23,30.59c-2.86,2.45-4.88,5.73-6.77,8.94-2.02,3.42-3.98,6.93-5,10.8-1.98,7.5-.94,15.56,2.74,22.36,1.12,2.07,4.16,2.9,6.16,1.61,2.1-1.36,2.81-3.94,1.61-6.16-.2-.37-.39-.73-.57-1.1-.03-.06-.57-1.29-.22-.44-.29-.7-.54-1.42-.76-2.15s-.41-1.46-.57-2.21c-.09-.41-.15-.82-.23-1.22-.15-.85,0,.28-.03-.24-.07-1.6-.19-3.16-.06-4.76,0-.11,.12-1.22,.05-.64s.08-.52,.1-.63c.15-.82,.33-1.63,.56-2.42,.21-.73,.45-1.45,.72-2.16,.11-.27,.1-.26-.02,.03l.19-.42c.2-.42,.39-.84,.6-1.25,.76-1.52,1.63-2.98,2.49-4.44,.79-1.34,1.58-2.67,2.46-3.95,.1-.14,.76-1.05,.3-.45,.26-.33,.53-.65,.81-.97,.56-.63,1.16-1.21,1.8-1.76,1.79-1.54,1.7-4.81,0-6.36-1.91-1.75-4.45-1.64-6.36,0h0Z"/><g><path d="M186.01,35.1l-.6,8.26h9.59c.3,.6,.39,1.46,.39,2.11,0,1.93-1.16,2.97-3.1,2.97h-7.27l-.82,11.4c-.26,.21-1.33,.64-2.58,.64-2.24,0-3.35-.99-3.18-2.88l2.02-27.56h16.73c.3,.64,.39,1.5,.39,2.11,0,1.94-1.2,2.97-3.14,2.97h-8.43Z"/><path d="M198.53,50.1c0-8,4.69-13.59,11.57-13.59,5.5,0,7.87,3.1,7.87,6.84,0,5.46-4.95,7.95-10.58,7.95-.99,0-1.89-.13-2.84-.26-.04,2.67,1.16,5.2,4.82,5.2,2.15,0,3.7-.77,5.38-2.54,.9,.3,1.72,1.08,1.72,2.32,0,2.79-3.83,4.82-8.17,4.82-5.81,0-9.76-3.7-9.76-10.75Zm6.15-2.41c.95,.13,1.63,.26,2.45,.26,3.53,0,5.46-1.68,5.46-3.91,0-1.72-1.08-2.84-2.84-2.84-2.75,0-4.95,2.75-5.07,6.49Z"/><path d="M238.34,39.87c0,1.93-1.38,3.35-3.18,3.7-.26-1.29-.99-2.11-2.54-2.11-2.19,0-4,1.72-4.64,6.41l-.9,11.95c-.52,.34-1.55,.64-2.62,.64-1.98,0-3.23-.95-3.1-2.88l1.46-20.04c.52-.34,1.76-.64,2.75-.64,1.81,0,3.18,.9,3.05,2.79l-.09,.95h.17c1.29-2.75,3.14-4.17,5.63-4.17s4,1.33,4,3.4Z"/><path d="M275.07,44.77l-1.2,15.05c-.39,.34-1.25,.64-2.49,.64-2.32,0-3.44-1.08-3.23-3.53l.86-11.01c.26-2.97-.86-4.69-3.1-4.69-2.88,0-4.56,2.67-4.99,6.84l-.95,11.74c-.39,.34-1.25,.64-2.45,.64-2.36,0-3.48-1.08-3.27-3.53l.9-11.31c.21-2.88-.82-4.39-3.18-4.39-3.01,0-4.64,2.92-4.99,7.01l-1.03,11.57c-.39,.39-1.16,.64-2.24,.64-2.36,0-3.57-1.08-3.35-3.74l1.42-19.18c.69-.39,1.51-.64,2.54-.64,2.15,0,3.1,.73,3.1,2.79l-.09,.9h.17c1.42-2.45,3.87-4.13,7.14-4.13,2.88,0,5.55,1.38,6.36,4.82h.09c1.33-2.88,4.13-4.82,7.52-4.82,3.91,0,6.92,2.36,6.45,8.3Z"/><path d="M279.11,50.1c0-8,4.69-13.59,11.57-13.59,5.5,0,7.87,3.1,7.87,6.84,0,5.46-4.95,7.95-10.58,7.95-.99,0-1.89-.13-2.84-.26-.04,2.67,1.16,5.2,4.82,5.2,2.15,0,3.7-.77,5.38-2.54,.9,.3,1.72,1.08,1.72,2.32,0,2.79-3.83,4.82-8.17,4.82-5.81,0-9.76-3.7-9.76-10.75Zm6.15-2.41c.95,.13,1.63,.26,2.45,.26,3.53,0,5.46-1.68,5.46-3.91,0-1.72-1.08-2.84-2.84-2.84-2.75,0-4.95,2.75-5.07,6.49Z"/></g><g><path d="M188.15,120.96c0,4.22-2.57,6.59-6.9,6.59h-28.22c-5.36,0-8.03-2.27-7.62-6.9l4.63-64.48c.52-.41,3.4-1.54,6.49-1.54,5.15,0,7.83,2.16,7.42,7.52l-3.91,53.25h26.99c.72,1.44,1.13,3.71,1.13,5.56Z"/><path d="M193.71,114.57c-.1-11.95,10.61-19.88,33.27-21.11l.31-3.81c.41-5.77-2.58-8.86-8.65-8.86s-10.2,3.19-10.71,9.89c-1.24,.31-2.37,.52-3.5,.52-4.33,0-7.21-2.47-7.21-7,0-7.52,8.55-14.11,22.66-14.11,16.07,0,22.04,8.24,21.11,20.39l-2.78,35.95c-1.34,.93-3.71,1.54-5.97,1.54-4.63,0-7.52-2.06-7.42-6.8l.1-2.47h-.41c-2.47,4.94-8.03,9.89-16.58,9.89-9.48,0-14.21-5.97-14.21-14.01Zm32.34-11.33l.1-1.65c-10.4,.1-18.85,3.4-18.75,10.4,0,3.71,2.37,5.67,6.08,5.67,7.42,0,11.84-8.03,12.57-14.42Z"/><path d="M293.21,78.21c0,4.64-3.3,8.03-7.62,8.86-.62-3.09-2.37-5.05-6.08-5.05-5.25,0-9.58,4.12-11.12,15.35l-2.16,28.63c-1.24,.82-3.71,1.54-6.28,1.54-4.74,0-7.72-2.27-7.42-6.9l3.5-48c1.24-.82,4.22-1.54,6.59-1.54,4.33,0,7.62,2.16,7.31,6.7l-.21,2.27h.41c3.09-6.59,7.52-9.99,13.49-9.99s9.58,3.19,9.58,8.14Z"/><path d="M348.73,96.03c0,19.16-10.71,32.13-29.25,32.24-14.52,.1-24.51-7.93-24.51-25.85,0-19.36,11.33-32.34,29.77-32.34,14.83,0,24,8.45,24,25.96Zm-39.65,5.77c0,10.71,4.84,15.14,11.33,15.14,8.75,0,14.11-7.62,14.11-20.19,0-10.4-4.33-15.35-10.92-15.35-8.75,0-14.52,7.83-14.52,20.39Z"/><path d="M371.18,86.45c0,9.89,26.47,7,26.47,24.51,0,10.81-9.06,17.3-23.79,17.3-12.77,0-19.47-4.94-19.47-10.51,0-2.88,1.85-5.46,5.05-6.69,2.78,4.12,7.62,6.49,14.73,6.49,6.39,0,9.27-1.96,9.27-5.46,0-10.3-25.23-5.97-25.23-23.69,0-10.81,9.06-18.13,22.76-18.13,12.36,0,18.95,5.46,18.95,12.88,0,4.53-2.68,7.31-7.11,7.31-1.85,0-3.09-.41-4.12-.93,.21-.82,.41-1.65,.41-2.58,0-3.81-2.58-6.39-8.86-6.39-5.77,0-9.06,2.37-9.06,5.87Z"/><path d="M406.61,102.73c0-19.16,11.23-32.55,27.71-32.55,13.18,0,18.85,7.42,18.85,16.38,0,13.08-11.84,19.05-25.34,19.05-2.37,0-4.53-.31-6.8-.62-.1,6.39,2.78,12.46,11.54,12.46,5.15,0,8.86-1.85,12.87-6.08,2.16,.72,4.12,2.58,4.12,5.56,0,6.69-9.17,11.54-19.57,11.54-13.9,0-23.38-8.86-23.38-25.75Zm14.73-5.77c2.27,.31,3.91,.62,5.87,.62,8.45,0,13.08-4.02,13.08-9.37,0-4.12-2.57-6.8-6.8-6.8-6.59,0-11.84,6.59-12.15,15.55Z"/></g></g></g></svg>