<svg xmlns="http://www.w3.org/2000/svg" viewBox="0 0 270.2 174"><defs><style>.cls-1{fill:#006837;}.cls-2{fill:#009245;}.cls-3{fill:#39b54a;}.cls-4,.cls-5,.cls-6{fill:none;stroke-miterlimit:10;}.cls-4,.cls-6{stroke:#009245;}.cls-5{stroke:#006837;stroke-width:0.5px;}.cls-6{stroke-width:0.25px;}.cls-7{fill:#fff;}</style></defs><g id="Calque_2" data-name="Calque 2"><g id="Ferme_maraîchère" data-name="Ferme maraîchère"><path class="cls-1" d="M121-1.85h54.88a0,0,0,0,1,0,0v270.2a0,0,0,0,1,0,0H119.56a25.21,25.21,0,0,1-25.21-25.21V24.77A26.62,26.62,0,0,1,121-1.85Z" transform="translate(1.85 268.35) rotate(-90)"/><rect class="cls-2" x="104.35" y="-73.35" width="61.5" height="270.2" transform="translate(73.35 196.85) rotate(-90)"/><path class="cls-3" d="M119.1-119.1h11.53A20.47,20.47,0,0,1,151.1-98.63V130.63a20.47,20.47,0,0,1-20.47,20.47H119.1a0,0,0,0,1,0,0V-119.1A0,0,0,0,1,119.1-119.1Z" transform="translate(119.1 151.1) rotate(-90)"/><line class="cls-4" x1="5.86" y1="164.5" x2="264.34" y2="164.5"/><line class="cls-4" x1="5.86" y1="154.93" x2="264.34" y2="154.93"/><line class="cls-4" x1="5.86" y1="145.36" x2="264.34" y2="145.36"/><line class="cls-4" x1="5.86" y1="135.79" x2="264.34" y2="135.79"/><line class="cls-4" x1="5.86" y1="126.21" x2="264.34" y2="126.21"/><line class="cls-4" x1="5.86" y1="116.64" x2="264.34" y2="116.64"/><line class="cls-4" x1="5.86" y1="107.07" x2="264.34" y2="107.07"/><line class="cls-4" x1="5.86" y1="97.5" x2="264.34" y2="97.5"/><line class="cls-5" x1="5.86" y1="86.38" x2="264.34" y2="86.38"/><line class="cls-5" x1="5.86" y1="76.81" x2="264.34" y2="76.81"/><line class="cls-5" x1="5.86" y1="67.24" x2="264.34" y2="67.24"/><line class="cls-5" x1="5.86" y1="57.67" x2="264.34" y2="57.67"/><line class="cls-5" x1="5.86" y1="48.1" x2="264.34" y2="48.1"/><line class="cls-5" x1="5.86" y1="38.52" x2="264.34" y2="38.52"/><line class="cls-6" x1="5.86" y1="26.05" x2="264.34" y2="26.05"/><line class="cls-6" x1="5.86" y1="16.48" x2="264.34" y2="16.48"/><line class="cls-6" x1="5.86" y1="6.91" x2="264.34" y2="6.91"/><path d="M84.39,23.75h0a26.52,26.52,0,0,1,26.52,26.52v100a0,0,0,0,1,0,0h-53a0,0,0,0,1,0,0v-100A26.52,26.52,0,0,1,84.39,23.75Z"/><rect x="110.91" y="82.88" width="101.42" height="67.37"/><polygon points="161.56 60.3 110.8 82.52 212.33 82.52 161.56 60.3"/><path class="cls-7" d="M26.27,78.06a10.67,10.67,0,0,0-1.06-2.52c-.64-1.15-1.15-1.42-3.06-1.42H18.52c-1,0-1.09.1-1.09,1.08v7.86h4.21c2.45,0,2.62-.41,3.13-2.79h1v7.1H24.74c-.44-2.38-.68-2.92-3.1-2.92H17.43v6.09c0,2.95.34,3.09,3.43,3.36v.95H11.41V93.9c2.75-.2,3.06-.44,3.06-3.36V77.07c0-2.95-.34-3.09-3.06-3.36v-.95H22.19c3.06,0,4.21,0,4.79-.07,0,1.22.17,3.6.34,5.23Z"/><path class="cls-7" d="M41.77,92c-2.17,2.72-4.55,3.3-5.64,3.3-4.15,0-6.66-3.4-6.66-7.31a8.75,8.75,0,0,1,2.2-6,7,7,0,0,1,5.07-2.48,5.3,5.3,0,0,1,5.2,5.27c0,.68-.13,1-.68,1.12s-5,.44-9.08.58c-.1,4.56,2.69,6.43,5.1,6.43a5.75,5.75,0,0,0,3.95-1.74ZM35.92,80.81c-1.56,0-3.09,1.46-3.57,4.22,1.91,0,3.81,0,5.82-.1.61,0,.81-.17.81-.68A3.15,3.15,0,0,0,35.92,80.81Z"/><path class="cls-7" d="M51.8,94.85H44V93.9c2.14-.2,2.35-.37,2.35-2.58V84.25c0-2.25-.14-2.35-2.11-2.59v-.85A18.72,18.72,0,0,0,49,79.42v3.74c1.19-1.77,2.62-3.64,4.32-3.64a1.75,1.75,0,0,1,2,1.63A2.28,2.28,0,0,1,54.15,83a.68.68,0,0,1-.89-.06,2.11,2.11,0,0,0-1.53-.86c-.71,0-2,1.06-2.72,2.79v6.39c0,2.25.17,2.42,2.79,2.62Z"/><path class="cls-7" d="M75.29,94.85V93.9c2-.2,2.25-.34,2.25-2.72V85.51c0-2.42-.82-4-2.93-4a6.17,6.17,0,0,0-3.77,1.77c0,.41.1.81.1,1.46v6.6c0,2.14.31,2.31,2.18,2.51v.95H65.84V93.9c2.11-.2,2.42-.34,2.42-2.58V85.47c0-2.51-.78-3.91-2.86-3.91a6.53,6.53,0,0,0-3.74,1.77v8c0,2.24.24,2.38,2.18,2.58v.95H56.53V93.9c2.24-.2,2.45-.34,2.45-2.58v-7c0-2.18-.14-2.31-2-2.65v-.85a18.38,18.38,0,0,0,4.72-1.36v2.75a24.09,24.09,0,0,1,2.52-1.76,4.58,4.58,0,0,1,2.68-.89,4,4,0,0,1,3.71,2.79c1-.75,1.84-1.33,2.68-1.9a5.14,5.14,0,0,1,2.69-.89c2.65,0,4.28,1.91,4.28,5.24v6.56c0,2.28.21,2.38,2.15,2.58v.95Z"/><path class="cls-7" d="M96.75,92c-2.18,2.72-4.56,3.3-5.64,3.3-4.15,0-6.67-3.4-6.67-7.31a8.76,8.76,0,0,1,2.21-6,7,7,0,0,1,5.07-2.48,5.3,5.3,0,0,1,5.2,5.27c0,.68-.14,1-.68,1.12s-5,.44-9.08.58c-.1,4.56,2.69,6.43,5.1,6.43a5.71,5.71,0,0,0,3.94-1.74ZM90.9,80.81c-1.56,0-3.09,1.46-3.57,4.22,1.91,0,3.81,0,5.82-.1.61,0,.81-.17.81-.68A3.16,3.16,0,0,0,90.9,80.81Z"/><path class="cls-7" d="M125.55,94.85V93.9c2-.2,2.24-.34,2.24-2.72V85.51c0-2.42-.82-4-2.92-4a6.17,6.17,0,0,0-3.78,1.77,12.5,12.5,0,0,1,.1,1.46v6.6c0,2.14.31,2.31,2.18,2.51v.95h-7.28V93.9c2.11-.2,2.42-.34,2.42-2.58V85.47c0-2.51-.78-3.91-2.86-3.91a6.53,6.53,0,0,0-3.74,1.77v8c0,2.24.24,2.38,2.18,2.58v.95h-7.31V93.9c2.24-.2,2.45-.34,2.45-2.58v-7c0-2.18-.14-2.31-2-2.65v-.85a18.27,18.27,0,0,0,4.72-1.36v2.75a24.09,24.09,0,0,1,2.52-1.76,4.58,4.58,0,0,1,2.68-.89,4,4,0,0,1,3.71,2.79c1-.75,1.84-1.33,2.69-1.9a5.1,5.1,0,0,1,2.68-.89c2.65,0,4.29,1.91,4.29,5.24v6.56c0,2.28.2,2.38,2.14,2.58v.95Z"/><path class="cls-7" d="M145.57,95.26a2.51,2.51,0,0,1-1.6-.64,3.25,3.25,0,0,1-.81-1.53c-1.36.91-3,2.17-4.08,2.17a4.16,4.16,0,0,1-4.15-4.18c0-1.67.92-2.75,2.79-3.4a26.78,26.78,0,0,0,5.37-2.21v-.68c0-2.41-1.22-3.81-3-3.81a2,2,0,0,0-1.6.79,7.38,7.38,0,0,0-.92,2.21.94.94,0,0,1-1,.78,1.64,1.64,0,0,1-1.5-1.5c0-.47.44-.88,1.12-1.36a14.43,14.43,0,0,1,4.9-2.38,4.48,4.48,0,0,1,4.59,4.86v6.56c0,1.57.58,2,1.19,2a2.71,2.71,0,0,0,1.22-.37l.34,1Zm-2.48-8.6c-.75.37-2.38,1.09-3.16,1.43-1.29.58-2.08,1.22-2.08,2.48a2.48,2.48,0,0,0,2.45,2.62A4.51,4.51,0,0,0,143.09,92Z"/><path class="cls-7" d="M157.71,94.85h-7.82V93.9c2.14-.2,2.35-.37,2.35-2.58V84.25c0-2.25-.14-2.35-2.11-2.59v-.85a19,19,0,0,0,4.79-1.39v3.74c1.19-1.77,2.62-3.64,4.32-3.64a1.75,1.75,0,0,1,2,1.63A2.28,2.28,0,0,1,160.06,83a.68.68,0,0,1-.89-.06,2.13,2.13,0,0,0-1.53-.86c-.71,0-2,1.06-2.72,2.79v6.39c0,2.25.17,2.42,2.79,2.62Z"/><path class="cls-7" d="M173.45,95.26a2.51,2.51,0,0,1-1.6-.64,3.25,3.25,0,0,1-.81-1.53c-1.36.91-3,2.17-4.08,2.17a4.16,4.16,0,0,1-4.15-4.18c0-1.67.92-2.75,2.79-3.4A26.78,26.78,0,0,0,171,85.47v-.68c0-2.41-1.22-3.81-3-3.81a2,2,0,0,0-1.6.79,7.38,7.38,0,0,0-.92,2.21.94.94,0,0,1-1,.78,1.64,1.64,0,0,1-1.5-1.5c0-.47.44-.88,1.12-1.36a14.43,14.43,0,0,1,4.9-2.38,4.48,4.48,0,0,1,4.59,4.86v6.56c0,1.57.58,2,1.19,2a2.71,2.71,0,0,0,1.22-.37l.34,1ZM171,86.66c-.75.37-2.38,1.09-3.16,1.43-1.29.58-2.08,1.22-2.08,2.48a2.48,2.48,0,0,0,2.45,2.62A4.51,4.51,0,0,0,171,92Z"/><path class="cls-7" d="M184.77,77.38c-.1-.07-3.43-3.4-3.53-3.47l-3.54,3.47-.85-.71,4-5.72h.88l3.91,5.78ZM177.7,94.85V93.9c2.18-.2,2.42-.37,2.42-2.68v-7c0-2.11-.11-2.24-2.18-2.58v-.82a21.28,21.28,0,0,0,4.86-1.36V91.22c0,2.31.24,2.48,2.45,2.68v.95Z"/><path class="cls-7" d="M199.7,91.79c-1.5,2-3.77,3.47-5.81,3.47A6.86,6.86,0,0,1,187,88.12a8.06,8.06,0,0,1,3.43-6.66,9,9,0,0,1,5.17-1.94,5.05,5.05,0,0,1,3.16.92,1.06,1.06,0,0,1,.54,1A1.71,1.71,0,0,1,198.1,83c-.17,0-.31-.07-.65-.34A5,5,0,0,0,194,81.19c-2.24,0-4.21,1.9-4.21,5.44,0,4.72,3.19,6.29,5.16,6.29a5.47,5.47,0,0,0,4.15-1.87Z"/><path class="cls-7" d="M210.75,94.85V93.9c2-.2,2.24-.37,2.24-2.62V85.71c0-2.82-1.08-4.25-3.36-4.22A4.89,4.89,0,0,0,206,83.26v8c0,2.21.28,2.42,2.32,2.62v.95h-7.42V93.9c2-.17,2.42-.34,2.42-2.62V74.9c0-1.8-.1-2.25-2.38-2.45v-.88A20.78,20.78,0,0,0,206,70.41V82A7.72,7.72,0,0,1,211,79.52c2.79,0,4.73,1.74,4.73,5.81v6c0,2.24.27,2.41,2.24,2.58v.95Z"/><path class="cls-7" d="M232.2,92c-2.17,2.72-4.55,3.3-5.64,3.3-4.15,0-6.66-3.4-6.66-7.31a8.71,8.71,0,0,1,2.21-6,7,7,0,0,1,5.06-2.48,5.3,5.3,0,0,1,5.2,5.27c0,.68-.13,1-.68,1.12s-5,.44-9.07.58c-.11,4.56,2.68,6.43,5.1,6.43a5.74,5.74,0,0,0,3.94-1.74ZM227,77.21l-5.92-5.51.07-.3a10.12,10.12,0,0,1,3-.51l3.67,5.78Zm-.68,3.6c-1.57,0-3.1,1.46-3.57,4.22,1.9,0,3.8,0,5.81-.1.61,0,.81-.17.81-.68A3.15,3.15,0,0,0,226.36,80.81Z"/><path class="cls-7" d="M242.23,94.85h-7.82V93.9c2.15-.2,2.35-.37,2.35-2.58V84.25c0-2.25-.14-2.35-2.11-2.59v-.85a18.91,18.91,0,0,0,4.8-1.39v3.74c1.19-1.77,2.61-3.64,4.31-3.64a1.75,1.75,0,0,1,2,1.63A2.28,2.28,0,0,1,244.58,83a.67.67,0,0,1-.88-.06,2.15,2.15,0,0,0-1.54-.86c-.71,0-2,1.06-2.71,2.79v6.39c0,2.25.17,2.42,2.78,2.62Z"/><path class="cls-7" d="M259.23,92c-2.17,2.72-4.55,3.3-5.64,3.3-4.15,0-6.66-3.4-6.66-7.31a8.71,8.71,0,0,1,2.21-6,7,7,0,0,1,5.06-2.48,5.3,5.3,0,0,1,5.2,5.27c0,.68-.13,1-.68,1.12s-5,.44-9.07.58c-.11,4.56,2.68,6.43,5.1,6.43a5.74,5.74,0,0,0,3.94-1.74Zm-5.84-11.15c-1.57,0-3.1,1.46-3.57,4.22,1.9,0,3.8,0,5.81-.1.61,0,.82-.17.82-.68A3.17,3.17,0,0,0,253.39,80.81Z"/><path class="cls-7" d="M95.14,147.16v-1.33c2.73-.29,2.91-.54,2.91-3.78l0-14c-2.59,6.2-5.44,13-8,19.15H88.8c-2.34-5.86-4.89-12.56-7.48-18.86-.47,11.3-.47,13.54-.47,14.83,0,2,.75,2.45,3.45,2.7v1.33H75.38v-1.33c2.05-.18,3-.58,3.27-2.73.15-1.08.29-3.14,1.12-15,.11-1.73-.14-2.7-3.24-3v-1.33H84.3l7,15.87,7-15.87h7.6v1.33c-2.88.29-3.2.57-3.13,3.45l.29,13.5c0,3.24.18,3.38,3.09,3.78v1.33Z"/><path class="cls-7" d="M107.63,147.16v-1.22c2-.25,2.16-.4,2.16-2.95v-7c0-2.41-.18-2.56-1.87-2.77V132a38.79,38.79,0,0,0,6.52-1.3V143c0,2.44.14,2.7,2.23,2.95v1.22Zm4.21-18.64a2.62,2.62,0,0,1-2.59-2.56,2.58,2.58,0,0,1,2.63-2.55,2.53,2.53,0,0,1,2.59,2.55A2.58,2.58,0,0,1,111.84,128.52Z"/><path class="cls-7" d="M127.83,147.16h-9.5v-1.22c1.9-.22,2.08-.4,2.08-2.56V135.5c0-1.8-.14-2-1.83-2.34V132a35,35,0,0,0,6.48-1.36v3.88c1.62-2.48,2.91-3.81,4.39-3.81a2.19,2.19,0,0,1,2.34,2.16A3.5,3.5,0,0,1,130,136a1,1,0,0,1-1.11-.18c-.62-.51-1.08-1.08-1.7-1.08s-1.44.47-2.08,1.83v6.84c0,2.16.25,2.27,2.77,2.56Z"/><path class="cls-7" d="M145,147.59a3.33,3.33,0,0,1-2.23-.75,3.6,3.6,0,0,1-.94-1.33c-1.37.9-3.13,2.08-3.81,2.08a4.73,4.73,0,0,1-4.9-4.64c0-1.91.87-2.77,2.77-3.53,2.13-.79,5-1.65,5.8-2.37v-1.59c0-1.87-.69-2.91-2.23-2.91a1.76,1.76,0,0,0-1.44.72,6.66,6.66,0,0,0-.87,2.37,1.42,1.42,0,0,1-1.55,1.23,2.21,2.21,0,0,1-2.12-1.87c0-.65.43-1.12,1.26-1.7a17.63,17.63,0,0,1,5.76-2.55,6.34,6.34,0,0,1,3.71,1,4.87,4.87,0,0,1,2,4.43v6.23c0,1.73.57,2.16,1.15,2.16a2.74,2.74,0,0,0,1.12-.29l.39,1.22Zm-3.31-9.07-2,1.12a2.61,2.61,0,0,0-1.76,2.45,2.45,2.45,0,0,0,2.19,2.73,2,2,0,0,0,1.59-.57Z"/><path class="cls-7" d="M157.31,131.43a6.3,6.3,0,0,1,2.56-.68,7.32,7.32,0,0,1,7.3,7.59,9.33,9.33,0,0,1-9.46,9.25,17.16,17.16,0,0,1-6.41-1.29c0-.87,0-1.87,0-2.77V126.86c0-2-.22-2.34-2.24-2.48v-1.23a48.34,48.34,0,0,0,6.88-1.22V132ZM156,143.2a3.52,3.52,0,0,0,.22,1.23,3,3,0,0,0,2.55,1.65c1.91,0,3.31-2.12,3.31-6.55,0-4.61-2.26-6.41-4.42-6.41a5.16,5.16,0,0,0-1.66.26Z"/><path class="cls-7" d="M183.91,143.64a8.22,8.22,0,0,1-6.58,4c-4.83,0-7.56-3.56-7.56-7.84a9.48,9.48,0,0,1,2.7-6.48,8,8,0,0,1,5.61-2.52,5.9,5.9,0,0,1,5.94,5.87c0,.61,0,1.22-.47,1.33-.68.18-5.75.43-9.25.57.15,3.82,2.27,5.76,4.86,5.76a6.2,6.2,0,0,0,4.11-1.62Zm-6.55-11.42c-1.44,0-2.66,1.7-2.88,4.54l4.36-.11c.5,0,.72-.11.72-.72C179.6,134.13,178.77,132.22,177.36,132.22Z"/><path class="cls-7" d="M185.79,147.16v-1.22c2.05-.33,2.12-.51,2.12-2.77V126.79c0-1.87-.21-2.09-2.09-2.48v-1.16a37,37,0,0,0,6.74-1.22v21.24c0,2.37.1,2.52,2.15,2.77v1.22Z"/></g></g></svg>