<?xml version="1.0" encoding="UTF-8"?><svg xmlns="http://www.w3.org/2000/svg" viewBox="0 0 53.72 150.76"><defs><style>.d{fill:#f7f5f5;}.e{fill:#e6e6e6;}.f{fill:#fff;}.g{fill:#b3b3b3;}.h{fill:#29abe2;}.i{fill:none;stroke:#999;stroke-miterlimit:10;stroke-width:1.2px;}</style></defs><g id="a"/><g id="b"><g id="c"><g><g><path class="d" d="M44.69,34.05c-4.92-10.82-3.94-16.24-3.94-16.24v-4.53H12.96v4.53s.98,5.41-3.94,16.24C4.1,44.87,.17,53.23,.17,76.61v60.1c0,7.43,6.02,13.46,13.46,13.46h26.47c7.43,0,13.46-6.02,13.46-13.46v-60.1c0-23.37-3.93-31.74-8.86-42.56Z"/><path class="e" d="M3.03,94.28c0-13.16,10.67-23.82,23.82-23.82s23.82,10.67,23.82,23.82-10.67,23.82-23.82,23.82S3.03,107.44,3.03,94.28Z"/><g><path class="h" d="M4.43,67.05l4.3-3.08,.6,.83-3.37,2.41,1.93,2.7,3.14-2.25,.6,.84-3.14,2.25,2.53,3.53-.94,.67-5.66-7.9Z"/><path class="h" d="M12.15,62.2l4.96-1.85,.36,.96-3.88,1.45,1.11,2.98,3.55-1.33,.36,.96-3.55,1.33,1.21,3.24,3.94-1.47,.36,.96-5.02,1.88-3.41-9.1Z"/><path class="h" d="M21.25,59.5c.35-.09,.75-.17,1.2-.24,.45-.07,.87-.12,1.25-.15,.42-.03,.83-.02,1.22,.05,.39,.06,.74,.19,1.04,.38s.56,.45,.76,.78,.32,.74,.36,1.23c.06,.76-.1,1.39-.48,1.89s-.88,.86-1.51,1.06l.7,.46,2.7,3.65-1.34,.1-2.99-3.98-1.37-.11,.33,4.39-1.15,.09-.72-9.6Zm2.55,.6c-.12,0-.25,.02-.37,.03-.13,0-.25,.02-.37,.04-.12,.02-.23,.04-.34,.05-.11,.02-.19,.04-.25,.06l.27,3.57,1.08-.08c.64-.05,1.15-.24,1.54-.59,.39-.34,.56-.85,.51-1.51-.04-.5-.24-.9-.6-1.19-.37-.3-.85-.42-1.46-.38Z"/><path class="h" d="M38.42,64.26l.52-1.37-.07-.02-.86,1.15-3.6,3.56-.33-.09-1.41-4.96-.13-1.41-.07-.02-.2,1.44-1.74,6.31-1.04-.29,2.58-9.37,.83,.23,1.61,5.6,.15,1.17h.03l.71-.95,4.11-3.99,.87,.24-2.58,9.37-1.11-.31,1.73-6.29Z"/><path class="h" d="M44.62,63.78l4.37,2.99-.58,.85-3.42-2.34-1.8,2.62,3.13,2.14-.58,.85-3.13-2.14-1.95,2.85,3.47,2.38-.58,.85-4.42-3.03,5.49-8.02Z"/></g><g><path class="h" d="M9.27,129.97l.13-1.37h-.06l-.5,1.25-2.38,4.13h-.33l-2.52-4.14-.47-1.24h-.06l.18,1.36v6.15h-1.02v-9.14h.81l2.86,4.67,.43,1.02h.03l.41-1.04,2.73-4.65h.85v9.14h-1.09v-6.14Z"/><path class="h" d="M12.82,126.96h1.08v9.14h-1.08v-9.14Z"/><path class="h" d="M16.37,127.05c.33-.06,.71-.11,1.14-.14,.43-.03,.82-.05,1.18-.05,.4,0,.78,.04,1.14,.13,.36,.09,.68,.23,.95,.43,.27,.2,.49,.46,.66,.78,.16,.32,.25,.71,.25,1.17,0,.71-.19,1.29-.59,1.74-.39,.44-.89,.74-1.49,.89l.63,.48,2.27,3.62h-1.27l-2.52-3.94-1.28-.2v4.14h-1.09v-9.05Zm2.35,.74h-.35c-.12,0-.24,0-.35,.01-.11,0-.22,.02-.32,.03-.1,0-.18,.02-.24,.04v3.37h1.02c.6,0,1.1-.15,1.49-.44,.39-.3,.59-.76,.59-1.38,0-.47-.16-.86-.48-1.16-.32-.3-.77-.46-1.35-.46Z"/><path class="h" d="M28.14,133.57h-3.35l-.91,2.53h-1.09l3.46-9.29h.5l3.48,9.29h-1.15l-.94-2.53Zm-3-.94h2.68l-1.01-2.78-.32-1.38h-.02l-.32,1.41-1,2.76Z"/><path class="h" d="M36.95,129.05c0,.22-.03,.44-.1,.67-.07,.23-.17,.44-.31,.63-.14,.2-.32,.37-.54,.52-.22,.15-.47,.26-.77,.34v.05c.26,.04,.51,.12,.75,.22,.24,.1,.45,.25,.63,.43,.18,.18,.33,.41,.44,.67,.11,.26,.17,.57,.17,.93,0,.47-.1,.88-.29,1.22-.2,.34-.45,.62-.77,.84-.32,.22-.68,.38-1.09,.48-.41,.11-.83,.16-1.25,.16h-.52c-.2,0-.41,0-.63-.02-.22-.01-.43-.03-.65-.05-.22-.02-.41-.05-.57-.1v-9c.32-.05,.7-.1,1.12-.13,.43-.03,.89-.05,1.4-.05,.34,0,.69,.03,1.04,.08,.35,.06,.67,.17,.96,.33,.29,.16,.53,.38,.71,.67,.19,.29,.28,.66,.28,1.11Zm-3.75,1.93c.15,0,.33,0,.54-.01,.21,0,.38-.02,.52-.04,.21-.07,.41-.15,.59-.25,.18-.1,.35-.22,.49-.35,.14-.13,.25-.29,.34-.47,.08-.18,.12-.37,.12-.58,0-.29-.06-.53-.16-.71-.11-.19-.26-.34-.44-.45-.18-.11-.39-.19-.63-.24-.23-.05-.47-.07-.72-.07-.29,0-.55,0-.79,.02-.24,.01-.42,.03-.54,.06v3.11h.68Zm.72,4.29c.28,0,.55-.03,.81-.1,.26-.07,.49-.17,.69-.31,.2-.14,.36-.32,.48-.53,.11-.21,.17-.46,.17-.74,0-.36-.07-.64-.21-.86-.14-.22-.33-.39-.56-.51-.23-.12-.49-.2-.78-.25-.29-.04-.58-.07-.86-.07h-1.13v3.28c.06,.02,.15,.03,.26,.04,.11,0,.24,.02,.37,.03,.13,0,.26,.02,.41,.02,.14,0,.26,0,.36,0Z"/><path class="h" d="M39.07,126.96h4.97v.96h-3.89v2.99h3.57v.97h-3.57v3.25h3.96v.97h-5.04v-9.14Z"/><path class="h" d="M51.48,136.1h-5.41v-9.14h1.08v8.17h4.32v.97Z"/></g><g><path class="f" d="M6.13,97.82c-.18,0-.34-.06-.46-.19s-.19-.28-.19-.46v-7.02c0-.18,.06-.34,.19-.46,.13-.13,.28-.19,.46-.19s.34,.06,.47,.19c.13,.13,.2,.28,.2,.46v6.36h3.23c.17,0,.33,.07,.46,.2s.2,.29,.2,.46-.07,.33-.2,.46-.28,.2-.46,.2h-3.89Z"/><path class="f" d="M12.23,96.95c-.54-.58-.82-1.28-.82-2.1s.27-1.52,.82-2.11,1.22-.88,2.02-.88c.56,0,1.09,.17,1.58,.52,.04-.15,.11-.28,.23-.38,.11-.1,.25-.15,.41-.15s.31,.06,.43,.19c.12,.13,.18,.28,.18,.45v4.68c0,.17-.06,.32-.18,.45-.12,.12-.27,.18-.43,.18s-.3-.05-.41-.14c-.11-.1-.19-.22-.23-.37-.48,.34-1.01,.51-1.58,.51-.8,0-1.47-.29-2.02-.87Zm.46-2.1c0,.48,.14,.88,.43,1.21,.29,.33,.66,.49,1.12,.49s.83-.16,1.13-.49c.3-.33,.45-.73,.45-1.2s-.15-.88-.45-1.21c-.3-.33-.68-.5-1.12-.5s-.82,.16-1.11,.49c-.29,.33-.44,.73-.44,1.21Z"/><path class="f" d="M20.71,90.13v.25c0,.18-.06,.34-.18,.46-.12,.13-.27,.19-.45,.19s-.33-.06-.46-.19c-.13-.13-.19-.28-.19-.46v-.25c0-.17,.06-.33,.19-.45,.13-.13,.28-.19,.46-.19s.33,.06,.45,.18c.12,.12,.18,.28,.18,.46Zm-1.1,1.93c.12-.12,.28-.18,.46-.18s.33,.06,.46,.18c.12,.12,.18,.28,.18,.47v4.64c0,.18-.06,.33-.18,.46-.12,.12-.27,.18-.45,.18s-.33-.06-.46-.19c-.13-.13-.19-.28-.19-.45v-4.64c0-.19,.06-.35,.18-.47Z"/><path class="f" d="M24.77,91.87c.18,0,.34,.06,.47,.19s.2,.28,.2,.46-.07,.33-.2,.46-.29,.2-.47,.2h-.3v3.32c.18,0,.34,.07,.46,.2s.19,.29,.19,.47-.06,.34-.19,.46-.28,.19-.46,.19c-.37,0-.68-.13-.93-.39s-.39-.57-.39-.93v-3.32h-.35c-.18,0-.34-.06-.46-.19s-.19-.28-.19-.46,.06-.34,.19-.46,.28-.19,.46-.19h.35v-1.73c0-.18,.07-.34,.2-.46,.13-.13,.29-.19,.47-.19s.34,.06,.46,.19c.13,.13,.19,.28,.19,.46v1.73h.3Z"/><path class="f" d="M28.82,90.13v.25c0,.18-.06,.34-.18,.46s-.27,.19-.45,.19-.33-.06-.46-.19-.19-.28-.19-.46v-.25c0-.17,.06-.33,.19-.45,.13-.13,.28-.19,.46-.19s.33,.06,.45,.18,.18,.28,.18,.46Zm-1.1,1.93c.12-.12,.28-.18,.46-.18s.33,.06,.46,.18c.12,.12,.18,.28,.18,.47v4.64c0,.18-.06,.33-.18,.46s-.27,.18-.45,.18-.33-.06-.46-.19-.19-.28-.19-.45v-4.64c0-.19,.06-.35,.18-.47Z"/><path class="f" d="M36.22,94.69c0,.17-.06,.32-.17,.42s-.27,.16-.46,.16h-3.79c.07,.34,.21,.6,.4,.79,.25,.29,.62,.47,1.11,.53s.91-.04,1.27-.29c.12-.13,.28-.19,.48-.19s.34,.05,.42,.15c.22,.25,.22,.5,0,.77-.57,.52-1.27,.78-2.1,.78-.83,0-1.52-.3-2.08-.88-.56-.58-.84-1.28-.85-2.09,0-.82,.29-1.52,.85-2.1,.56-.58,1.24-.88,2.03-.88s1.46,.26,2.01,.78c.54,.52,.84,1.18,.89,1.98v.06Zm-2.87-1.69c-.46,.02-.83,.17-1.11,.43-.28,.26-.45,.54-.5,.83h3.37c-.07-.28-.26-.55-.58-.81-.31-.26-.71-.41-1.18-.45Zm1.38-2.21c0,.17-.14,.25-.43,.25s-.55-.11-.77-.32l-.81-.76c-.13-.12-.2-.24-.2-.35s.09-.22,.28-.32c.19-.1,.39-.15,.61-.15s.4,.12,.54,.34l.68,1.05c.07,.1,.11,.19,.11,.26Z"/><path class="f" d="M39.4,92.58c.18-.21,.43-.39,.75-.52s.61-.19,.87-.19c.26,0,.45,.07,.58,.18s.18,.26,.18,.43-.06,.32-.18,.45-.27,.19-.45,.19c-.74,0-1.32,.6-1.75,1.8v2.26c0,.17-.06,.32-.19,.45s-.28,.18-.46,.18-.33-.06-.45-.18c-.12-.12-.18-.27-.18-.45v-4.69c0-.17,.06-.32,.18-.44,.12-.12,.27-.18,.45-.18s.33,.06,.46,.18,.19,.27,.19,.44v.08Z"/><path class="f" d="M48.7,94.69c0,.17-.06,.32-.17,.42s-.27,.16-.46,.16h-3.79c.07,.34,.21,.6,.4,.79,.25,.29,.62,.47,1.11,.53s.91-.04,1.27-.29c.12-.13,.28-.19,.48-.19s.34,.05,.42,.15c.22,.25,.22,.5,0,.77-.57,.52-1.27,.78-2.1,.78-.83,0-1.52-.3-2.08-.88-.56-.58-.84-1.28-.85-2.09,0-.82,.29-1.52,.85-2.1,.56-.58,1.24-.88,2.03-.88s1.46,.26,2.01,.78c.54,.52,.84,1.18,.89,1.98v.06Zm-2.87-1.69c-.46,.02-.83,.17-1.11,.43-.28,.26-.45,.54-.5,.83h3.37c-.07-.28-.26-.55-.58-.81-.31-.26-.71-.41-1.18-.45Z"/></g></g><path class="i" d="M44.4,35.93c-4.84-10.65-3.87-15.97-3.87-15.97V.6H13.19V19.96s.97,5.32-3.87,15.97C4.47,46.58,.6,54.81,.6,77.8v59.12c0,7.31,5.93,13.24,13.24,13.24h26.04c7.31,0,13.24-5.93,13.24-13.24v-59.12c0-22.99-3.87-31.22-8.71-41.87Z"/><path class="g" d="M45.14,4.35c0,2.38-1.93,4.3-4.31,4.3H12.89c-2.38,0-4.31-1.93-4.31-4.3h0C8.58,1.97,10.51,.04,12.89,.04h27.94c2.38,0,4.31,1.93,4.31,4.31h0Z"/></g></g></g></svg>