<?xml version="1.0" encoding="UTF-8"?><svg xmlns="http://www.w3.org/2000/svg" viewBox="0 0 174.39 43.47"><defs><style>.d{fill:#f2f2f2;}.e{fill:red;}</style></defs><g id="a"/><g id="b"><g id="c"><g><g><path d="M62.23,1.58h-11.64v7.38h10.11v1.61h-10.11v10.13h-2.07V0h13.71V1.58Z"/><path d="M69.43,5.94c.98,0,1.85,.17,2.6,.52,.75,.34,1.35,.83,1.8,1.44,.45,.62,.79,1.33,1.02,2.14,.23,.81,.34,1.71,.34,2.69,0,.32-.01,.6-.04,.85h-9.89c0,.82,.08,1.59,.24,2.29,.16,.7,.4,1.34,.73,1.9,.33,.56,.77,1,1.33,1.33,.56,.32,1.21,.48,1.95,.48,.95,0,1.73-.22,2.35-.66,.61-.44,1.05-1.05,1.3-1.85l1.56,.34c-.22,.8-.6,1.48-1.15,2.04-.55,.56-1.16,.97-1.84,1.22-.68,.25-1.4,.38-2.16,.38h-.06c-1.07,0-2.01-.21-2.84-.62-.83-.41-1.49-.98-1.98-1.69-.49-.71-.87-1.51-1.11-2.41-.25-.89-.37-1.85-.37-2.86,0-2.25,.55-4.07,1.65-5.45,1.1-1.38,2.62-2.07,4.58-2.07Zm3.82,6.32c-.01-1.55-.33-2.74-.96-3.59-.63-.85-1.61-1.27-2.91-1.27-.63,0-1.2,.13-1.7,.38-.5,.25-.91,.61-1.24,1.06-.33,.45-.58,.97-.77,1.54-.19,.58-.31,1.2-.37,1.88h7.95Z"/><path d="M80.11,6.24v2.72c.26-.65,.65-1.19,1.15-1.62,.5-.43,1.01-.72,1.53-.88,.52-.16,1.07-.23,1.65-.23v1.82c-.78,0-1.46,.14-2.03,.42-.57,.28-1.01,.67-1.33,1.17-.32,.5-.55,1.04-.69,1.63-.15,.58-.22,1.22-.22,1.91v7.53h-2.01V6.24h1.95Z"/><path d="M88.48,12.46v8.25h-2.01V6.24h1.94l.06,2.29c.53-.9,1.2-1.56,2.01-1.97,.81-.41,1.68-.61,2.6-.61,1.08,0,1.95,.26,2.63,.79,.68,.53,1.15,1.26,1.41,2.21,.48-1.01,1.16-1.76,2.04-2.26,.88-.49,1.83-.74,2.84-.74,.77,0,1.44,.14,2,.41,.56,.27,1,.62,1.32,1.03,.32,.41,.57,.93,.75,1.55,.18,.62,.3,1.21,.35,1.76,.05,.55,.08,1.18,.08,1.87v8.15h-2.01V12.12c0-.73-.05-1.36-.14-1.91-.09-.55-.24-1.04-.45-1.47-.21-.43-.51-.76-.88-.99-.38-.23-.83-.34-1.37-.34-.8,0-1.53,.25-2.18,.74-.65,.49-1.15,1.11-1.49,1.86-.34,.75-.51,1.53-.51,2.34v8.36h-2.01V12.12c0-1.52-.21-2.68-.64-3.49-.42-.81-1.15-1.22-2.18-1.22-.82,0-1.55,.25-2.21,.76-.65,.51-1.14,1.14-1.47,1.9-.33,.76-.5,1.56-.5,2.4Z"/><path d="M115.74,5.94c.98,0,1.85,.17,2.6,.52,.75,.34,1.35,.83,1.8,1.44,.45,.62,.79,1.33,1.02,2.14,.23,.81,.34,1.71,.34,2.69,0,.32-.01,.6-.04,.85h-9.89c0,.82,.08,1.59,.24,2.29,.16,.7,.4,1.34,.73,1.9,.33,.56,.77,1,1.33,1.33,.56,.32,1.21,.48,1.95,.48,.95,0,1.73-.22,2.35-.66,.61-.44,1.05-1.05,1.3-1.85l1.56,.34c-.22,.8-.6,1.48-1.15,2.04-.55,.56-1.16,.97-1.84,1.22-.68,.25-1.4,.38-2.17,.38h-.06c-1.07,0-2.01-.21-2.84-.62-.83-.41-1.49-.98-1.98-1.69-.5-.71-.86-1.51-1.11-2.41-.24-.89-.37-1.85-.37-2.86,0-2.25,.55-4.07,1.65-5.45,1.1-1.38,2.62-2.07,4.58-2.07Zm3.82,6.32c0-1.55-.33-2.74-.96-3.59-.63-.85-1.6-1.27-2.91-1.27-.63,0-1.2,.13-1.7,.38-.5,.25-.91,.61-1.24,1.06-.33,.45-.58,.97-.77,1.54-.19,.58-.31,1.2-.37,1.88h7.95Z"/></g><g><path d="M54.79,24.4c1.23,0,2.27,.2,3.12,.61,.85,.41,1.58,1.08,2.18,2l-1.12,.83c-.41-.72-.96-1.27-1.66-1.65-.69-.38-1.46-.57-2.3-.57-1.09,0-1.98,.2-2.67,.6-.69,.4-1.03,1.02-1.03,1.85,0,.33,.07,.62,.22,.89,.15,.27,.32,.49,.53,.67,.2,.17,.48,.34,.82,.51,.34,.17,.65,.3,.93,.39,.27,.09,.62,.2,1.03,.33,.41,.13,.73,.24,.95,.32,.47,.18,.85,.33,1.15,.45,.3,.12,.63,.27,.99,.45,.36,.18,.65,.35,.87,.5,.22,.16,.45,.34,.68,.57,.23,.22,.4,.45,.53,.7,.12,.24,.22,.52,.3,.84,.08,.32,.12,.66,.12,1.02,0,1.37-.51,2.44-1.54,3.2-1.02,.77-2.4,1.15-4.12,1.15-.49,0-.98-.04-1.46-.12-.48-.08-.97-.23-1.47-.43-.5-.2-.94-.45-1.34-.76-.4-.31-.74-.7-1.05-1.19-.3-.49-.51-1.04-.62-1.64l1.28-.55c.31,1.15,.86,1.99,1.64,2.55,.78,.56,1.82,.83,3.11,.83,.4,0,.77-.03,1.13-.09,.36-.06,.72-.16,1.07-.31,.35-.15,.65-.33,.91-.55,.26-.22,.46-.5,.62-.85s.23-.75,.23-1.19c0-.29-.04-.54-.11-.78-.08-.24-.16-.44-.24-.61-.08-.17-.25-.35-.5-.53-.25-.18-.45-.32-.59-.42-.15-.1-.43-.24-.84-.4-.42-.17-.73-.29-.93-.36-.2-.07-.59-.21-1.15-.4-.09-.04-.16-.06-.21-.07-1.24-.43-2.1-.78-2.58-1.05-1.12-.62-1.75-1.43-1.91-2.44-.02-.17-.03-.34-.03-.52,0-.63,.14-1.2,.43-1.7,.28-.5,.67-.9,1.15-1.2,.48-.3,1.02-.53,1.61-.68s1.22-.23,1.88-.23Z"/><path d="M68.87,38.62c-1.19,.97-2.45,1.46-3.8,1.46-.89,0-1.63-.24-2.22-.73-.59-.49-.89-1.18-.89-2.07,0-.37,.06-.71,.17-1.01,.11-.3,.25-.56,.4-.77,.15-.21,.39-.41,.72-.58,.33-.18,.61-.32,.86-.42,.25-.1,.62-.2,1.11-.31,.49-.11,.89-.19,1.19-.24,.3-.05,.75-.12,1.35-.21l1.03-.16v-.44c0-1.16-.19-1.96-.57-2.39-.38-.43-1.03-.65-1.95-.65-.6,0-1.16,.11-1.68,.34-.52,.23-.96,.56-1.31,.99,0,0-.3-.29-.89-.84,.85-1.08,2.17-1.62,3.96-1.62,2.61,0,3.92,1.29,3.92,3.86v7.01h-1.22l-.18-1.21Zm-.08-4.05l-1.02,.16c-.55,.08-1,.16-1.34,.22-.35,.07-.71,.15-1.08,.24-.38,.09-.67,.2-.89,.3-.22,.11-.41,.24-.6,.39-.18,.15-.31,.32-.39,.51-.08,.2-.11,.42-.11,.68,0,1.33,.66,2,1.98,2,1.1,0,2.26-.51,3.46-1.52v-2.98Z"/><path d="M73.03,26.89v-1.86h1.47v1.86h-1.47Zm.02,12.93v-10.65h1.48v10.65h-1.48Z"/><path d="M77.22,39.83v-10.65h1.44v2.01c.13-.38,.34-.72,.61-1.01,.28-.3,.59-.53,.94-.7,.35-.17,.71-.3,1.08-.39,.37-.09,.73-.13,1.09-.13,.41,0,.78,.04,1.12,.12,.34,.08,.62,.19,.86,.34,.24,.15,.44,.31,.62,.49,.18,.18,.33,.39,.44,.65,.11,.26,.2,.5,.28,.73,.07,.23,.13,.51,.16,.82,.03,.31,.06,.59,.07,.82,.01,.24,.02,.51,.02,.82v6.08h-1.48v-6.28c0-.44-.02-.83-.06-1.17-.04-.33-.11-.65-.21-.94s-.24-.53-.41-.71c-.17-.18-.39-.33-.66-.43-.27-.1-.58-.16-.95-.16-.53,0-1.01,.08-1.41,.23-.41,.15-.74,.36-1,.62-.26,.26-.47,.59-.63,.98-.16,.39-.27,.8-.34,1.22-.07,.43-.1,.9-.1,1.43v5.2h-1.48Z"/><path d="M93.39,38.52l.25,.97c-.52,.33-1.13,.5-1.83,.5-.92,0-1.58-.28-2-.84-.41-.56-.62-1.46-.62-2.71v-6.24h-1.59v-1.03h1.69v-3.4l1.39-.39v3.79h2.33v1.03h-2.33v6.9c0,1.18,.48,1.77,1.44,1.77,.32,0,.75-.12,1.28-.35Z"/><path d="M94.95,35.66v-1.16h5.21v1.16h-5.21Z"/><path d="M101.67,36.35l1.35-.36c.21,.96,.53,1.68,.95,2.16,.42,.48,1.03,.72,1.82,.72,.4,0,.76-.06,1.06-.17,.31-.11,.55-.29,.75-.51,.19-.23,.34-.47,.46-.72,.12-.25,.2-.58,.26-.97,.06-.39,.09-.75,.11-1.08,.02-.33,.03-.73,.03-1.21v-9.61h1.51v9.58c0,2.04-.32,3.54-.96,4.49-.64,.95-1.76,1.43-3.34,1.43-2.17,0-3.51-1.25-4-3.74Z"/><path d="M119.23,38.62c-1.19,.97-2.45,1.46-3.8,1.46-.89,0-1.63-.24-2.22-.73-.59-.49-.89-1.18-.89-2.07,0-.37,.06-.71,.17-1.01,.12-.3,.25-.56,.4-.77,.15-.21,.39-.41,.72-.58,.33-.18,.61-.32,.86-.42,.25-.1,.62-.2,1.11-.31,.49-.11,.89-.19,1.19-.24,.3-.05,.75-.12,1.35-.21l1.03-.16v-.44c0-1.16-.19-1.96-.57-2.39-.38-.43-1.03-.65-1.95-.65-.6,0-1.16,.11-1.68,.34s-.96,.56-1.31,.99c0,0-.3-.29-.88-.84,.85-1.08,2.17-1.62,3.96-1.62,2.61,0,3.91,1.29,3.91,3.86v7.01h-1.22l-.18-1.21Zm-.08-4.05l-1.02,.16c-.55,.08-1,.16-1.34,.22-.35,.07-.71,.15-1.08,.24-.37,.09-.67,.2-.88,.3-.21,.11-.41,.24-.6,.39-.18,.15-.31,.32-.39,.51-.08,.2-.11,.42-.11,.68,0,1.33,.66,2,1.98,2,1.1,0,2.26-.51,3.46-1.52v-2.98Z"/><path d="M122.95,34.53c0-1.09,.17-2.05,.51-2.87,.34-.83,.86-1.48,1.57-1.97,.71-.49,1.56-.73,2.56-.73,.43,0,.83,.05,1.21,.16,.38,.1,.75,.27,1.1,.51,.36,.24,.67,.57,.95,1.01,.27,.44,.48,.96,.62,1.56l-1.24,.33c-.22-.85-.54-1.47-.95-1.88-.41-.41-.96-.61-1.63-.61-1.07,0-1.87,.4-2.4,1.19-.53,.79-.8,1.88-.8,3.27,0,.67,.06,1.28,.18,1.81,.12,.53,.3,1,.54,1.41,.24,.41,.56,.72,.96,.94,.4,.22,.86,.33,1.39,.33,1.38,0,2.31-.81,2.79-2.45l1.13,.35c-.13,.56-.32,1.06-.6,1.48-.27,.42-.59,.76-.96,1-.37,.24-.75,.42-1.15,.54-.4,.11-.82,.17-1.25,.17-1.47,0-2.6-.5-3.37-1.51-.78-1.01-1.16-2.35-1.16-4.03Z"/><path d="M137.22,28.96c1.63,0,2.73,.63,3.29,1.9l.15-1.68h1.22v14.3h-1.49v-5.26c-.3,.6-.72,1.07-1.27,1.38-.55,.32-1.19,.48-1.92,.48-.87,0-1.62-.25-2.24-.75-.62-.5-1.07-1.17-1.36-2.01-.29-.84-.43-1.8-.43-2.88s.14-1.96,.43-2.77c.29-.81,.74-1.46,1.36-1.96,.62-.5,1.37-.75,2.25-.75Zm.22,1.08c-.86,0-1.53,.41-2.02,1.21-.49,.81-.74,1.86-.74,3.14,0,1.44,.24,2.57,.72,3.38,.48,.81,1.15,1.21,1.99,1.21,2.01,0,3.02-1.46,3.02-4.37,0-.53-.02-1.01-.07-1.43-.05-.42-.13-.83-.26-1.23-.13-.41-.3-.74-.52-1.01-.21-.27-.5-.49-.86-.65-.36-.17-.78-.25-1.27-.25Z"/><path d="M151.68,35.29v-6.11h1.48v10.65h-1.44v-2c-.28,.74-.77,1.3-1.48,1.68-.71,.38-1.46,.57-2.25,.57-.45,0-.86-.05-1.22-.16-.36-.11-.67-.25-.91-.42-.24-.17-.45-.39-.63-.66-.18-.27-.31-.53-.41-.79-.09-.26-.17-.56-.22-.91-.06-.35-.09-.66-.1-.93-.02-.27-.02-.58-.02-.93v-6.11h1.48v6.42c0,1.1,.17,1.92,.51,2.48,.34,.56,.93,.84,1.78,.84,.52,0,.99-.09,1.41-.26,.42-.17,.75-.39,.99-.65,.25-.26,.45-.56,.62-.89,.16-.34,.27-.66,.33-.96,.06-.3,.09-.59,.09-.87Z"/><path d="M160.39,28.96c.72,0,1.36,.13,1.91,.38,.55,.25,.99,.61,1.33,1.06s.58,.98,.75,1.58c.17,.6,.25,1.26,.25,1.98,0,.24-.01,.44-.03,.62h-7.28c0,.61,.06,1.17,.18,1.69,.12,.52,.3,.98,.54,1.4,.24,.42,.57,.74,.98,.98,.41,.24,.89,.35,1.43,.35,.7,0,1.28-.16,1.73-.48,.45-.32,.77-.78,.96-1.36l1.15,.25c-.16,.59-.44,1.09-.85,1.5-.4,.41-.85,.71-1.35,.89-.5,.19-1.03,.28-1.59,.28h-.04c-.78,0-1.48-.15-2.09-.46-.61-.31-1.09-.72-1.46-1.24-.37-.52-.64-1.11-.82-1.77-.18-.66-.27-1.36-.27-2.11,0-1.66,.4-3,1.21-4.01,.81-1.02,1.93-1.53,3.37-1.53Zm2.81,4.65c0-1.14-.24-2.02-.71-2.64-.47-.62-1.18-.94-2.15-.94-.46,0-.88,.09-1.25,.28-.37,.19-.67,.45-.91,.78-.24,.33-.43,.71-.57,1.14-.14,.42-.23,.88-.27,1.39h5.85Z"/><path d="M174.3,31.02c-.67,.38-1.01,.58-1.01,.58-.24-.54-.57-.93-.99-1.17-.42-.24-.98-.36-1.67-.36-.86,0-1.51,.16-1.96,.47-.44,.31-.67,.77-.67,1.39,0,.24,.05,.46,.14,.64,.09,.19,.21,.34,.36,.46,.15,.12,.35,.23,.61,.33,.26,.1,.51,.18,.75,.23,.24,.06,.54,.12,.9,.19,1.21,.22,2.12,.57,2.72,1.04,.61,.47,.91,1.14,.91,2.03,0,1.05-.35,1.85-1.05,2.4-.7,.55-1.76,.83-3.17,.83-.42,0-.83-.04-1.22-.13-.39-.09-.77-.23-1.13-.42-.37-.19-.69-.46-.96-.81-.28-.35-.48-.76-.62-1.23l1.13-.46c.25,.68,.6,1.17,1.04,1.48,.44,.31,1.08,.46,1.9,.46,1.82,0,2.74-.61,2.74-1.83,0-.67-.21-1.14-.62-1.41-.42-.27-1.3-.55-2.63-.83-.4-.08-.74-.17-1.01-.26-.27-.09-.56-.21-.85-.36-.29-.15-.53-.33-.71-.52-.18-.2-.32-.45-.44-.77-.11-.31-.17-.67-.17-1.08,0-.94,.36-1.66,1.09-2.18,.72-.51,1.67-.77,2.85-.77,.94,0,1.71,.16,2.31,.47,.6,.31,1.08,.84,1.45,1.59Z"/></g><g><rect class="d" width="21.74" height="21.74"/><rect class="e" y="21.74" width="21.74" height="21.74"/><rect class="e" x="21.74" width="21.74" height="21.74"/><rect class="d" x="21.74" y="21.74" width="21.74" height="21.74"/></g></g></g></g></svg>