<?xml version="1.0" encoding="UTF-8"?><svg xmlns="http://www.w3.org/2000/svg" viewBox="0 0 139.25 135.5"><defs><style>.d{stroke:#000;stroke-miterlimit:10;}.e{fill:#fff;}</style></defs><g id="a"/><g id="b"><g id="c"><g><path d="M19.81,30.95c.9-4.91,2.29-6.22,2.63-7.31,.33-1.09,2.06-3.01,2.51-3.01,1.56-1.78,8.15-2.51,10.49-1.84,2.35,.67,4.69,.78,6.25,1.23,1.56,.44,2.78,.33,3.23,.44,.46,.11,4.92,1.22,6.14,1.45,1.23,.22,8.14,.33,8.81,.33s12.83,.43,19.91-1.39c2.72-.7,6.3-.63,8.09-.18,1.79,.45,2.68,1.12,5.36,1.56,1.67,.28,3.04-.27,3.96-.69-.93-1.31-1.29-2.89-1.29-3.1,0-.34,1.34-.67,3.35-.45,2.01,.22,3.69,1.33,4.24,1.23,.56-.11,.89-.78,1.34-1.23,.32-.33,1.12-2.1,2.56-2.22,1.56-.12,2.57-.24,3.57,.21,1.01,.45,1.34,1.23,1.68,1.79,.34,.56,1,1.11,1.56,1.45,.55,.33,.78,.89,.78,.89,0,0,.56-.11,1.79-.56,1.23-.44,5.25-1,5.92-.44,.67,.56-.78,2.79-.9,3.35-.11,.55-1.67,2.01-3.12,2.01s-2.23-.11-2.57-.33c-.34-.22,.12,2.12,.34,2.79,.22,.67,.11,1.34-.22,1.78-.34,.44-.56,2.12-.12,3.12,.45,1,1.9,2.57,2.34,3.12,.45,.56,1,.78,.67,1.79-.33,1-.33,2.56-1.79,2.9-1.45,.34-2.9,.11-3.57-.11,0,0-1.67,.64-2.56,.72-1.16,.1-2.16-.03-3.3-1.42-.01,.08-.03,.17-.05,.25-1.33,3.34-6.58,8.59-7.69,9.93-1.11,1.34-1.34,4.01-2.9,7.36-.76,1.63-2.01,1.56-2.24,2.46-.22,.89-1.56,3.68-6.02,2.23,.28,1.06-.06,6.6-.23,7.21-.17,.61-.67,2.34-.78,2.85-.11,.5-.18,2.23-.05,3.68,.22,2.45,1.67,4.3,1.89,4.85,.23,.56,.73,.89,1.12,1.34,.38,.44,.28,1.5,.06,1.62-.22,.11-.61,.28-1.06,.33-6.86,0-4.19-1.62-5.3-1.89,0,0-.45,.17-.73,.11-.27-.06-.56-.33-.56-.33-.22-.61-.28-1.96-.44-2.51,.14-.83,.85-6.69,.5-7.53-1.23-2.96-1.67-6.14-1.67-6.86s-.17-2.85-.33-3.52c-.04-.03-.14-.08-.28-.14-.59,3.06-1.39,7.29-1.06,8.84,.67,3.18-.26,3.35-.33,4.02-.34,3.18-.17,7.29,1.84,9.47,0,.33,.17,.8,.07,2.02-2.92,1.21-4.57,.61-5.12,.39-.57-.22-.68-.83-.79-1.17-.16,0-.12,1-.85,.5-.28-1.28-.39-2.84-.33-3.01,.05-.17,.39-.63,.39-.63-.05-1.56,.24-6.74-.26-8.07-.44-1.17-2.08-9.21-2.38-13.23-1.74,.72-3.68,1.64-4.72,2.06-1.82,.73-6,.89-9.71,.5-2.17-.23-4.29-1.34-4.91-1.34s-.83,1.39-2.18,2.4c-1.34,1-2.78,.89-2.84,1.17-.18,.89-2.33,2.68-2.96,2.96,0,.16-.1,1.54-.17,1.73-.26,.71-.78,.39-.95,.22-.17-.17-.56-1-.78-1.39-.22,.06-.84,.11-1.67,.06,0,.28-.12,1.84-.34,2.23-.23,.39-.31,.46-.55,.39-.58-.17-.74-1.5-.9-2.06-1.86-.28-3.63-1.45-5.1-2.77-.29,8.14,.84,12.41,.75,11.87,.11,.67,.58,1.66,.86,2.05,.28,.39,.89,.84,1,1.12,.11,.28,.18,1,.18,1,0,0-.11,.5-.44,.61,0,0-1.59,.14-3.15,.05-1.03-.05-1.11-.45-1.34-.67-.22-.22-1.26-.1-1.43-.65,.17-.56,.52-.92,.28-2.01-.27-1.19-.3-6.54-.36-11.9-.49-1.97-.8-3.3-.72-5.64-.74,.66-1.55,1.87-1.79,2.35-.22,.45-1.08,2.38-1.01,4.8,.06,1.79-.61,1.45-.61,3.01s.22,5.97,1.44,8.48c.11,.44,.9,1.78,1.23,2.17,.56,.67,1.11,1.62,1.28,1.9,.17,.28,.22,.95,.06,1.11-.16,.17-.33,.5-.95,.56-.61,.05-2.18,.05-3.63,.02-.78-.02-.95-1.14-1.34-1.31-.39-.16-1.23-.22-1.23-1.17,.11-.28,.23-.84,.34-1-.11-.5-.17-1.06-.34-1.51-.33-1.5-.67-15.96-1.33-18.63-.14-.54-.89-2.65-.28-3.51,2.24-6.33,1.28-10.84,1.44-11.67,.17-.84-1.26-7.13-.36-12.48,.28-1.67,1.2-4.84,1.28-6.18-1.42,1.06-2.1,4.57-2.53,7.3-.28,1.74-1.6,16.73-1.34,19.13,.87,7.82-1.45,11.36-1.45,11.36,0,0-.72,1.54-.72,3.47-.02-.36-.73-.71-.51-2.6-.02,.7-.22,1.67-.11,2.79,.11,1.11,.23,2.12-.44,3.68,.11-1.79-.85-3.5-.84-5.21,0-7.08,2.34-9.99,2.63-14.11,.19-2.73-.11-18.28,.78-23.19Z"/><rect class="d" x=".5" y="95.56" width="138.25" height="39.44"/><g><g><path class="e" d="M21.78,105.24c.02-.8,.04-2.06-.06-2.82-.23-1.68-1.51-.96-1.51-2.04,0-.74,.86-1.06,1.49-1.06,.51,0,4.03,.2,5.66,.2,.39,0,4.33-.2,4.6-.2,.76,0,1.57,1.61,1.57,2.94,0,.67-.31,1.35-1.06,1.35-1.35,0-.65-2.02-4.4-2.02-1.19,0-1.7-.1-1.7,2.74,0,.35,.02,.68,1.15,.68,1.51,0,.55-1.8,1.92-1.8,1.12,0,1.19,2.13,1.19,2.9,0,.92-.1,3.29-1.43,3.29-1.25,0,.04-2.21-2.06-2.21-.86,0-.74,.16-.76,2.17-.08,2.9,1.9,1.29,1.9,2.78,0,.45,.18,1.31-4.58,1.31-3.13,0-3.64-.45-3.64-1.29,0-1.1,1.06-.59,1.47-1.62,.2-.55,.25-1.94,.25-2.58v-2.72Z"/><path class="e" d="M41.76,99.53c2.62,0,3-.39,3.31-.39,1.12,0,1.59,1.92,1.59,2.78,0,.65-.25,1.41-1.02,1.41-1.55,0-.29-1.88-4.01-1.88-2.17,0-1.96,.39-1.96,2.64,0,1.14,.06,1.17,1.25,1.17,1.49,0,.37-2.17,1.76-2.17,1.14,0,1.21,2.21,1.21,2.98,0,.8-.14,3.15-1.31,3.15s0-2.06-1.98-2.06c-.82,0-.8,.74-.8,1.37,0,2.86,.2,2.72,2.25,2.72,4.01,0,2.88-2.76,4.48-2.76,.63,0,.94,.7,.94,1.25,0,1.33-1.06,3.72-1.84,3.72-.14,0-.45-.06-.86-.12-.43-.04-.98-.1-1.64-.1h-8.05c-1.29,0-1.31-.59-1.31-.84,0-1.08,1.33-.22,1.47-2.29,.23-3.56,.25-3.21,.06-6.75-.14-3-1.62-1.45-1.62-2.84,0-1.19,1.64-1,2.45-1h5.64Z"/><path class="e" d="M49.38,103.6c0-3.03-1.49-1.78-1.49-3,0-1.08,1.53-1.21,2.31-1.21,.41,0,.8,.04,1.21,.06,.39,.04,.8,.08,1.19,.08,.63,0,1.25-.04,1.9-.08,.63-.02,1.27-.06,1.9-.06,2.21,0,4.78,.98,4.78,3.58,0,1.17-.57,2.31-1.66,2.84-.18,.1-.31,.16-.31,.39,0,.29,.25,.37,.49,.47,1.37,.51,1.98,1.41,2.25,3.52,.23,1.82,1.51,.72,1.51,1.92,0,.74-.9,1.53-3.11,1.53-3.13,0-3.52-1.8-4.13-4.39-.22-.9-.55-1.78-1.62-1.78-.43,0-.59,.06-.59,1.29,0,.57,.04,1.35,.14,1.9,.16,.9,1.16,.63,1.16,1.57,0,.7-.49,1.23-3.66,1.23-.94,0-3.72,0-3.72-1.43,0-1.02,1.47-.31,1.47-2.86v-5.58Zm4.54,.86c-.04,.51-.14,.94,.51,.94,1.27,0,1.68-.7,1.68-1.92,0-.96-.23-1.94-1.37-1.94-.72,0-.7,.45-.74,1.06l-.08,1.86Z"/><path class="e" d="M69.04,107.75c-.12-.25-.33-.84-.69-.84-.61,0-.41,2.58-.41,3.23,0,2.09,1.25,1.12,1.25,2.17,0,1.12-2.09,1.16-2.86,1.16-.69,0-2.47-.06-2.47-1.08,0-1.12,1.17-.2,1.33-1.8,.16-1.64,.33-3.47,.33-6.3,0-1.17-.08-1.78-.29-2.23-.2-.41-1.31-.55-1.31-1.35,0-1.12,1.82-1.39,3.39-1.39,2.29,0,2.25,.39,2.84,1.39,.69,1.16,1.9,4.37,2.76,4.56,.61,.14,1.41-2.23,2.11-3.52,1-1.84,1.02-2.43,3.6-2.43,.86,0,2.82,.06,2.82,1.29,0,.78-.88,.94-1.08,1.61-.16,.55-.29,2.86-.29,3.74,0,.29,.12,2.45,.2,4.27,.06,1.43,1.23,1.12,1.23,2,0,1.31-2.68,1.25-3.54,1.25-.8,0-3.48,.08-3.48-1.17,0-.69,.88-.8,1.02-1.43,.08-.33,.47-3.7-.22-3.7-.61,0-1.23,1.72-1.7,2.72-.43,.9-1.14,3.13-1.76,3.05-.31-.04-.47,0-1.64-2.64l-1.14-2.54Z"/><path class="e" d="M90.15,99.53c2.62,0,3-.39,3.31-.39,1.12,0,1.59,1.92,1.59,2.78,0,.65-.25,1.41-1.02,1.41-1.55,0-.29-1.88-4.01-1.88-2.17,0-1.96,.39-1.96,2.64,0,1.14,.06,1.17,1.25,1.17,1.49,0,.37-2.17,1.76-2.17,1.14,0,1.21,2.21,1.21,2.98,0,.8-.14,3.15-1.31,3.15s0-2.06-1.98-2.06c-.82,0-.8,.74-.8,1.37,0,2.86,.2,2.72,2.25,2.72,4.01,0,2.88-2.76,4.48-2.76,.63,0,.94,.7,.94,1.25,0,1.33-1.06,3.72-1.84,3.72-.14,0-.45-.06-.86-.12-.43-.04-.98-.1-1.64-.1h-8.05c-1.29,0-1.31-.59-1.31-.84,0-1.08,1.33-.22,1.47-2.29,.24-3.56,.25-3.21,.06-6.75-.14-3-1.62-1.45-1.62-2.84,0-1.19,1.64-1,2.45-1h5.64Z"/></g><g><path class="e" d="M30.46,130.25c-.63,0-1.62,.04-1.62-.86,0-1.21,1.53-.2,1.59-2.47,.04-1.43,.04-2.68,.04-3.84s-.1-2.27-.14-3.37c-.04-1.64-1.76-.78-1.76-1.9,0-1.43,3.07-1.51,4.03-1.51,3.92,0,4.11,.67,4.11,1.33,0,1.14-1.55,.27-1.55,2.11v6.23c0,1.41,.23,2.09,1.62,2.09,3.33,0,2.19-2.72,3.45-2.72,.88,0,1.21,.94,1.21,1.68,0,1.53-1.1,3.49-2,3.49-.35,0-.63-.08-.98-.14-.37-.08-.8-.14-1.47-.14h-6.54Z"/><path class="e" d="M45.3,123.18c.61-1.35,1.41-3.07,1.41-4.62,0-1.35,.63-2.37,2.37-2.37s2.78,1.74,3.54,3.04c.33,.57,3.29,6.56,3.99,8.16,.65,1.49,1.7,.59,1.7,1.7,0,1.43-2.78,1.37-3.76,1.37-2.8,0-4.48-.02-4.48-1.23,0-.94,1.19-.59,1.19-1.27,0-.88-.49-.96-3.64-.96-1.02,0-1.62,.04-1.62,1,0,.76,1.25,.25,1.25,1.27,0,1.17-2.11,1.19-2.9,1.19-2.8,0-3.05-.53-3.05-1.16,0-.92,1.06-.65,1.62-1.35,.43-.53,.84-1.47,1.14-2.09l1.23-2.68Zm4.11,1.41c.2,0,.78,.04,.78-.25s-.57-1.31-.72-1.59c-.18-.31-.51-1.04-.94-1.04-.47,0-.8,1.17-.88,1.39-.08,.21-.41,.98-.41,1.21,0,.33,.49,.27,.71,.27h1.47Z"/><path class="e" d="M69.08,121.24c.24,.2,.86,.76,1.21,.76,.49,0,.51-.8,.51-1.13,0-.49-.02-1.33-.18-1.78-.27-.82-1.31-.53-1.31-1.59,0-1.25,2-1.19,2.82-1.19s3-.1,3,1.25c0,1.12-1.04,.7-1.37,1.6-.25,.71-.25,1.92-.25,2.66v5.07c0,.88,.12,3.56-1.19,3.56-.39,0-.72-.24-1.02-.49l-6.05-5.42c-.27-.25-.78-.72-1.19-.72-.61,0-.63,1.27-.63,1.68,0,.55,.02,1.27,.14,1.78,.29,1.25,1.33,.78,1.33,1.74,0,1.31-2.02,1.43-2.94,1.43s-2.92-.12-2.92-1.39c0-1.04,1.14-.63,1.33-1.88,.14-.84,.18-2.08,.18-2.96,0-1.41,0-2.84-.22-4.25-.31-1.96-1.72-1.19-1.72-2.37,0-1.39,2.64-1.31,3.52-1.31,1.21,0,1.43,.08,2.31,.86l4.64,4.07Z"/><path class="e" d="M77.46,119.74c.04-2.02-1.43-1.04-1.43-2.31,0-.9,1.14-1.04,1.82-1.04h6.38c5.44,0,7.22,3.37,7.22,6.89s-2.13,7.07-7.09,7.07c-.84,0-1.55-.02-2.15-.06-.61-.02-1.14-.04-1.68-.04s-1.12,.02-1.66,.04c-.55,.04-1.1,.06-1.66,.06-.67,0-1.51-.33-1.51-1.12,0-1.41,1.55,.16,1.61-2.7l.16-6.79Zm4.7,7.17c0,1,.16,1.41,1.21,1.41,2.47,0,2.9-2.53,2.9-4.48,0-4.58-1.72-5.31-3.23-5.31-.82,0-.88,.33-.88,1.08v7.3Z"/><path class="e" d="M93.7,120.6c0-3.03-1.49-1.78-1.49-3,0-1.08,1.53-1.21,2.31-1.21,.41,0,.8,.04,1.21,.06,.39,.04,.8,.08,1.19,.08,.63,0,1.25-.04,1.9-.08,.63-.02,1.27-.06,1.9-.06,2.21,0,4.78,.98,4.78,3.58,0,1.17-.57,2.31-1.66,2.84-.18,.1-.31,.16-.31,.39,0,.29,.25,.37,.49,.47,1.37,.51,1.98,1.41,2.25,3.52,.24,1.82,1.51,.72,1.51,1.92,0,.74-.9,1.53-3.11,1.53-3.13,0-3.52-1.8-4.13-4.39-.22-.9-.55-1.78-1.62-1.78-.43,0-.59,.06-.59,1.29,0,.57,.04,1.35,.14,1.9,.16,.9,1.15,.63,1.15,1.57,0,.7-.49,1.23-3.66,1.23-.94,0-3.72,0-3.72-1.43,0-1.02,1.47-.31,1.47-2.86v-5.58Zm4.54,.86c-.04,.51-.14,.94,.51,.94,1.27,0,1.68-.7,1.68-1.92,0-.96-.23-1.94-1.37-1.94-.72,0-.71,.45-.74,1.06l-.08,1.86Z"/><path class="e" d="M117.74,121.7c-.86,1.08-.92,1.66-.92,3.03,0,1.8,.1,2.58,.27,2.96,.27,.57,1.31,.45,1.31,1.37,0,1.41-3.09,1.41-4.05,1.41-3.84,0-4.35-.88-4.35-1.41,0-1.06,1.12-.67,1.47-1.47,.2-.45,.31-1.35,.31-3.25,0-1.12-.18-1.49-.86-2.37l-2.21-2.56c-.96-1.12-2.23-.8-2.23-1.76,0-.45-.14-1.33,4.42-1.33,4.07,0,4.03,.76,4.03,1.19,0,.51-.55,.71-.55,1.12s.78,1.66,1.27,1.66,1.33-1.04,1.33-1.49c0-.55-.57-.59-.57-1.33,0-1.15,2.27-1.15,3.01-1.15,2.45,0,3.09,.29,3.09,1.15,0,1.25-1.41,.53-2.39,1.59l-2.41,2.64Z"/></g></g><polygon points="139.25 97.56 138.25 97.56 138.25 1 1 1 1 97.56 0 97.56 0 0 139.25 0 139.25 97.56"/></g></g></g></svg>