<?xml version="1.0" encoding="UTF-8"?><svg xmlns="http://www.w3.org/2000/svg" viewBox="0 0 150.04 59.79"><defs><style>.d{fill:#3fa9f5;}</style></defs><g id="a"/><g id="b"><g id="c"><g><path d="M2.19,24.51c.58-3.16,1.47-4,1.69-4.7,.21-.7,1.33-1.94,1.61-1.94,1.01-1.15,5.24-1.61,6.74-1.18,1.51,.43,3.02,.5,4.02,.79,1,.29,1.79,.21,2.08,.29,.29,.07,3.16,.79,3.95,.93,.79,.14,5.24,.21,5.66,.21s8.25,.28,12.81-.9c1.75-.45,4.05-.4,5.2-.12,1.15,.29,1.73,.72,3.45,1,1.07,.18,1.95-.17,2.55-.44-.6-.84-.83-1.86-.83-1.99,0-.22,.86-.43,2.15-.29,1.29,.14,2.37,.86,2.73,.79,.36-.07,.57-.5,.86-.79,.21-.21,.72-1.35,1.65-1.43,1-.08,1.65-.15,2.29,.14,.65,.29,.86,.79,1.08,1.15,.22,.36,.64,.72,1.01,.93,.35,.21,.5,.57,.5,.57,0,0,.36-.07,1.15-.36,.79-.29,3.37-.65,3.8-.29,.43,.36-.5,1.79-.58,2.15-.07,.36-1.07,1.29-2.01,1.29s-1.44-.07-1.65-.22c-.22-.14,.07,1.36,.22,1.79,.14,.43,.07,.86-.14,1.15-.22,.29-.36,1.36-.07,2.01,.29,.65,1.22,1.65,1.51,2.01,.29,.36,.65,.5,.43,1.15-.21,.65-.21,1.65-1.15,1.86-.93,.22-1.86,.07-2.29-.07,0,0-1.07,.41-1.65,.46-.75,.07-1.39-.02-2.12-.91-.01,.05-.02,.11-.03,.16-.86,2.15-4.23,5.52-4.95,6.38-.72,.86-.86,2.58-1.86,4.73-.49,1.05-1.29,1-1.44,1.58-.14,.57-1,2.37-3.87,1.43,.18,.68-.04,4.24-.15,4.63-.11,.39-.43,1.51-.5,1.83-.07,.32-.12,1.43-.04,2.37,.14,1.58,1.07,2.76,1.22,3.12,.15,.36,.47,.57,.72,.86,.25,.28,.18,.97,.04,1.04-.14,.07-.39,.18-.68,.21-4.41,0-2.69-1.04-3.41-1.22,0,0-.29,.11-.47,.07-.18-.04-.36-.21-.36-.21-.14-.39-.18-1.26-.29-1.61,.09-.54,.54-4.3,.32-4.84-.79-1.9-1.07-3.95-1.07-4.41s-.11-1.83-.22-2.26c-.02-.02-.09-.05-.18-.09-.38,1.97-.89,4.69-.68,5.68,.43,2.04-.17,2.15-.21,2.58-.22,2.04-.11,4.69,1.18,6.09,0,.21,.11,.51,.04,1.3-1.88,.78-2.94,.39-3.3,.25-.36-.14-.44-.54-.5-.75-.11,0-.08,.64-.55,.32-.18-.82-.25-1.83-.21-1.94,.03-.11,.25-.4,.25-.4-.04-1,.15-4.33-.17-5.19-.29-.75-1.34-5.92-1.53-8.51-1.12,.46-2.36,1.05-3.03,1.32-1.17,.47-3.86,.58-6.24,.32-1.39-.15-2.76-.86-3.16-.86s-.54,.9-1.4,1.54c-.86,.65-1.79,.57-1.83,.75-.11,.57-1.5,1.72-1.9,1.9,0,.11-.06,.99-.11,1.11-.17,.46-.5,.25-.61,.14-.11-.11-.36-.65-.5-.9-.14,.04-.54,.07-1.07,.04,0,.18-.08,1.18-.22,1.43-.15,.25-.2,.3-.35,.25-.37-.11-.48-.97-.58-1.33-1.2-.18-2.33-.93-3.28-1.78-.19,5.23,.54,7.98,.48,7.63,.07,.43,.37,1.07,.55,1.32,.18,.25,.57,.54,.64,.72,.07,.18,.11,.64,.11,.64,0,0-.07,.32-.29,.39,0,0-1.02,.09-2.03,.04-.66-.04-.72-.29-.86-.43-.14-.14-.81-.06-.92-.42,.11-.36,.33-.59,.18-1.29-.17-.76-.19-4.2-.23-7.65-.32-1.27-.52-2.12-.46-3.63-.48,.42-1,1.2-1.15,1.51-.14,.29-.69,1.53-.65,3.09,.04,1.15-.39,.93-.39,1.94s.14,3.84,.93,5.45c.07,.29,.58,1.15,.79,1.4,.36,.43,.72,1.04,.82,1.22,.11,.18,.14,.61,.04,.72-.11,.11-.22,.32-.61,.36-.39,.03-1.4,.03-2.33,.01-.5-.01-.61-.73-.86-.84-.25-.11-.79-.14-.79-.75,.07-.18,.15-.54,.22-.65-.07-.32-.11-.68-.22-.97-.21-.97-.43-10.26-.85-11.98-.09-.35-.57-1.7-.18-2.26,1.44-4.07,.82-6.97,.93-7.5,.11-.54-.81-4.58-.23-8.03,.18-1.07,.77-3.11,.83-3.97-.91,.68-1.35,2.94-1.63,4.7-.18,1.12-1.03,10.76-.86,12.3,.56,5.03-.94,7.3-.94,7.3,0,0-.46,.99-.46,2.23-.01-.23-.47-.46-.33-1.67-.01,.45-.14,1.08-.07,1.79,.07,.72,.15,1.36-.29,2.37C.61,50.69,0,49.6,0,48.49c0-4.55,1.5-6.42,1.69-9.07,.12-1.75-.07-11.75,.5-14.91Z"/><g><path d="M87.29,42.83l-.31-.31c1.47-.31,2.42-1.1,2.42-1.84,0-1.56-2.88-3.01-5.52-3.01-1.53,0-2.42,.28-4.29,1.07,.92,1.01,2.33,2.24,2.33,4.08,0,2.12-.98,3.31-3.77,4.94,1.1,1.35,1.47,2.55,1.47,4.72,.74-.25,2.42-1.26,3.31-2.05l.25,.25c-1.29,1.1-2.64,1.87-3.74,2.33-.98,2.52-3.68,5.21-7.91,5.15-1.29-.03-2.09-.55-2.09-1.47,0-2.97,5.09-3.47,6.9-3.47,.86-.8,1.26-2.94,.83-5.28-.31,.06-.34,.06-.8,.06-.43,0-1.23-.37-1.23-.89,0-.49,.64-.67,.98-.67,.74,0,1.47,.67,1.47,.67,0,0,2.45-2.15,2.45-4.29,0-2.67-.8-3.44-1.23-3.68-1.23,.61-3.44,3.68-3.44,3.68-1.47,2.15-1.47,5.27-3.07,7.73-3.1,4.78-6.32,7.61-13.04,7.61-5.21,0-9.11-3.31-9.11-8.62,0-5.98,5.06-11.16,10.86-11.16,1.29,0,2.85,.49,3.8,.89,2.02-1.17,3.34-2.45,7.97-2.45,3.53,0,5,1.1,6.2,1.59,1.04-.37,2.33-1.1,4.88-1.1,3,0,5.98,1.66,5.98,3.37,0,.98-1.23,1.93-2.58,2.15Zm-14.48-5.7c-3.8,0-5.46,.89-7.67,2.39,2.94,1.81,4.39,3.96,4.39,7.05,0,.58-.06,.46-.15,1.07,.46-.74,.92-1.26,.95-2.15,.03-.83-.4-1.53-.64-2.05l.34-.09c.28,.49,.67,.95,.71,2.12,0,1.13-.71,2.18-1.66,3.13-.83,2.48-3.1,4.35-5.74,4.35v-.43c.92,.15,4.05-.64,4.97-3.44,0,0-1.35,.46-2.18,.46-2.73,0-4.42-2.02-4.42-4.81,0-3.01,2.18-4.57,2.79-5.15-.61-.34-2.33-.89-3.47-.89-5.24,0-10.52,4.97-10.52,10.86,0,4.66,3.37,8.22,8.77,8.22,2.48,0,5.46-1.5,7.64-3.8,2.45-2.58,3.37-5.83,3.8-6.93,1.56-4.11,4.88-7.18,7.7-8.28,0,0-2.3-1.63-5.61-1.63Zm-7.97,2.61c-1.44,1.38-2.79,2.64-2.79,5.03,0,2.67,1.66,4.39,4.08,4.39,1.17,0,1.87-.37,2.58-1.01,.31-.71,.46-.98,.46-1.56,0-2.15-.89-4.94-4.32-6.84Zm4.97,16.96c0,.58,.61,.92,1.29,.92,2.82,.06,4.91-3.68,5.15-3.93-2.45-.03-6.44,.58-6.44,3.01Zm6.32-9.84c-.25,0-.37,.09-.37,.28,0,.25,.37,.43,.61,.43,.34,0,.71-.12,.71-.12,0,0-.46-.58-.95-.58Z"/><path d="M83.57,57.82c-1.72,0-2.7-1.35-2.7-2.76,0-4.26,4.72-6.9,7.02-6.9,.95,0,1.75,.74,1.75,1.69,0,3.01-5.31,4.2-6.35,4.2-.34,.74-.55,1.1-.55,2.15,0,.64,.21,1.13,.83,1.13,3.07,0,7.7-5.03,8.8-6.87l.25,.21c-.92,1.53-5.61,7.15-9.05,7.15Zm3.9-9.26c-.89,0-2.3,1.66-3.86,4.75,1.72,0,4.51-2.91,4.51-4.05,0-.46-.21-.71-.64-.71Z"/><path d="M95.06,49.54c-.71,1.56-2.42,4.75-2.42,6.9,0,.37,.28,.74,.64,.74,1.66,0,4.45-3.22,6.26-6.72l.25,.21c-2.33,4.2-4.45,6.96-7.33,7.15-1.1,.06-1.84-.98-1.84-2.58,0-5.15,9.63-18.13,12.39-18.13,.49,0,.95,.55,.95,1.1-.03,1.81-2.7,7.7-8.89,11.32Zm7.15-11.78c-1.01,0-5.12,7.12-6.5,10.77,3.83-2.24,6.93-8.59,6.93-10.12,0-.34-.18-.64-.43-.64Z"/><path d="M102.24,49.54c-.71,1.56-2.42,4.75-2.42,6.9,0,.37,.28,.74,.64,.74,1.66,0,4.45-3.22,6.26-6.72l.25,.21c-2.33,4.2-4.45,6.96-7.33,7.15-1.1,.06-1.84-.98-1.84-2.58,0-5.15,9.63-18.13,12.39-18.13,.49,0,.95,.55,.95,1.1-.03,1.81-2.7,7.7-8.89,11.32Zm7.15-11.78c-1.01,0-5.12,7.12-6.5,10.77,3.83-2.24,6.93-8.59,6.93-10.12,0-.34-.18-.64-.43-.64Z"/><path d="M107.33,57.82c-1.72,0-2.7-1.35-2.7-2.76,0-4.26,4.72-6.9,7.02-6.9,.95,0,1.75,.74,1.75,1.69,0,3.01-5.31,4.2-6.35,4.2-.34,.74-.55,1.1-.55,2.15,0,.64,.21,1.13,.83,1.13,3.07,0,7.7-5.03,8.8-6.87l.25,.21c-.92,1.53-5.61,7.15-9.05,7.15Zm3.9-9.26c-.89,0-2.3,1.66-3.86,4.75,1.72,0,4.51-2.91,4.51-4.05,0-.46-.21-.71-.64-.71Z"/><path d="M122.39,53.44c-.61,1.53-3.65,4.39-7.05,4.39-.95,0-1.69-.92-1.69-1.75,0-.98,.4-2.3,.89-3.19l2.21-4.02c.21-.4,.52-.43,.67-.43,.52,0,.8,.25,1.13,.25,.25,0,.55-.67,1.07-.86l-3.65,6.99c-.37,.71-.46,1.17-.46,1.38,0,.74,.43,1.17,.98,1.17,1.29,0,2.61-1.41,3.99-4.32-.83-.95-.98-1.69-.98-2.24,0-1.66,1.32-2.88,2.24-2.88s1.75,1.2,1.75,2.36c0,1.1-.55,2.33-.86,2.76,1.13,0,3.04-.83,5.03-2.58l.25,.21c-1.1,1.07-3.22,2.67-5.52,2.76Zm-1.1-4.82c-.77,0-1.41,1.23-1.41,2.21,0,.77,.4,1.29,.86,1.84,0,0,1.29-2.18,1.29-2.67,0-.61-.12-1.38-.74-1.38Z"/><path d="M132.14,57.82c-.98,0-1.66-.8-1.81-2.58-1.59,1.81-2.12,2.58-3.77,2.58-1.26,0-1.56-1.04-1.56-1.53,0-.86,.15-1.72,1.01-3.25l2.3-4.17c.25-.43,.52-.43,.83-.43,.25,0,.61,.21,1.01,.21,.28,0,.77-.77,1.1-.86l-3.65,6.87c-.43,.8-.55,1.5-.55,1.72,0,.43,.21,.8,.8,.8,.43,0,2.36-1.9,3.59-4.08l2.39-4.26c.15-.28,.37-.4,.71-.4,.46,0,.64,.21,1.1,.21,.28,0,.71-.71,1.1-.86l-3.89,7.33c-.37,.67-.49,.95-.49,1.35,0,.37,.25,.61,.8,.61,1.38,0,4.57-2.91,7.24-6.62l.25,.21c-1.23,1.84-5.18,7.15-8.5,7.15Z"/><path d="M141,57.82c-1.72,0-2.7-1.35-2.7-2.76,0-4.26,4.72-6.9,7.02-6.9,.95,0,1.75,.74,1.75,1.69,0,3.01-5.31,4.2-6.35,4.2-.34,.74-.55,1.1-.55,2.15,0,.64,.21,1.13,.83,1.13,3.07,0,7.7-5.03,8.8-6.87l.25,.21c-.92,1.53-5.61,7.15-9.05,7.15Zm3.9-9.26c-.89,0-2.3,1.66-3.86,4.75,1.72,0,4.51-2.91,4.51-4.05,0-.46-.21-.71-.64-.71Z"/></g><g><path class="d" d="M65.96,5.91c.02-.8,.04-2.06-.06-2.82-.23-1.68-1.51-.96-1.51-2.04,0-.74,.86-1.06,1.49-1.06,.51,0,4.03,.2,5.66,.2,.39,0,4.33-.2,4.6-.2,.76,0,1.57,1.61,1.57,2.94,0,.67-.31,1.35-1.06,1.35-1.35,0-.65-2.02-4.4-2.02-1.19,0-1.7-.1-1.7,2.74,0,.35,.02,.69,1.16,.69,1.51,0,.55-1.8,1.92-1.8,1.12,0,1.19,2.13,1.19,2.9,0,.92-.1,3.29-1.43,3.29-1.25,0,.04-2.21-2.06-2.21-.86,0-.74,.16-.76,2.17-.08,2.9,1.9,1.29,1.9,2.78,0,.45,.18,1.31-4.58,1.31-3.13,0-3.64-.45-3.64-1.29,0-1.1,1.06-.59,1.47-1.62,.2-.55,.25-1.94,.25-2.58v-2.72Z"/><path class="d" d="M82.74,9.42c-.21,0-.53-.06-.53,.27,0,.98,1.27,1.8,2.19,1.8,1.47,0,2.19-.88,2.6-.88s.76,.61,.76,.98c0,1.51-2.76,2.6-4.52,2.6-3.52,0-5.34-2.54-5.34-5.07,0-3.01,2.56-5.21,5.5-5.21,3.33,0,4.8,2.56,4.8,4.03,0,1.29-.59,1.47-1.21,1.47h-4.25Zm1.7-2.47c0-.71-.43-1.25-1.15-1.25-.65,0-1.17,.67-1.17,1.29,0,.7,.67,.55,1.17,.55s1.15,.12,1.15-.59Z"/><path class="d" d="M90.01,7.99c0-1.92-1.21-.84-1.21-2.04,0-1.55,4.58-1.98,4.76-1.98,.74,0,.76,.2,.84,.86,.02,.24,0,.69,.33,.69,.47,0,.76-1.55,2.45-1.55,1.31,0,2.17,.98,2.17,2.27s-1.12,2.35-2.41,2.35-1.62-1.12-2.13-1.12c-.55,0-.45,1.31-.45,1.66,0,.59,.06,1.41,.16,2.15,.12,.86,1.61,.33,1.61,1.51,0,1.23-1.72,1.33-3.88,1.33-.9,0-3.56,.04-3.56-1.31,0-.82,.9-.82,1.12-1.51,.16-.49,.22-1.61,.22-2.15v-1.17Z"/><path class="d" d="M101.07,8.46c0-1.25-.25-1.61-.45-1.78-.25-.22-.53-.2-.53-.71,0-1.45,4.86-2,4.89-2,.49,0,.53,.43,.53,.84,0,.24-.08,.9,.33,.9,.2,0,.51-.43,1.06-.88,.55-.43,1.33-.86,2.49-.86,2.33,0,2.35,1.74,2.76,1.74,.16,0,.51-.43,1.08-.88,.59-.43,1.37-.86,2.37-.86,1.86,0,3.01,1.02,3.01,2.94v4.13c0,1.14,.72,1.23,.72,1.8,0,1.23-2.23,1.29-3,1.29-.65,0-2.92-.14-2.92-1.16,0-.72,.69-.71,.69-1.84v-1.76c0-.82,.1-2.47-1.02-2.47s-1,1.33-1,2.06v1.21c0,2.41,.7,2,.7,2.72,0,1.21-2.35,1.23-3.05,1.23-2.96,0-3.11-.55-3.09-1.1,.02-1.04,1-.21,.94-2.54v-1.12c0-.7,.1-2.47-1.02-2.47s-1,1.33-1,2.06v1.59c0,1.8,.53,1.68,.53,2.39,0,.51-.45,1.19-3.13,1.19-.76,0-3.07,.02-3.07-1.02,0-.88,1.17-.41,1.17-2.86v-1.8Z"/><path class="d" d="M124.73,9.42c-.21,0-.53-.06-.53,.27,0,.98,1.27,1.8,2.19,1.8,1.47,0,2.19-.88,2.6-.88s.76,.61,.76,.98c0,1.51-2.76,2.6-4.52,2.6-3.52,0-5.34-2.54-5.34-5.07,0-3.01,2.56-5.21,5.5-5.21,3.33,0,4.8,2.56,4.8,4.03,0,1.29-.59,1.47-1.21,1.47h-4.25Zm1.7-2.47c0-.71-.43-1.25-1.15-1.25-.65,0-1.17,.67-1.17,1.29,0,.7,.67,.55,1.17,.55s1.15,.12,1.15-.59Z"/></g><g><path class="d" d="M79.06,28.82c0,.35-.02,1,.08,1.31,.22,.71,1.1,.37,1.1,1.19,0,1.31-2.39,1.21-3.23,1.21s-3.62,.1-3.62-1.29c0-.69,.84-.43,1.08-1.16,.25-.8,.25-3.25,.25-4.21,0-.76,.04-2.23-.14-3.11-.29-1.45-1.45-.94-1.45-2.06,0-1.7,5.09-2.11,5.36-2.11,.67,0,.82,.43,.82,1.02,0,.45-.25,2.6-.25,5.4v3.8Z"/><path class="d" d="M90.67,27.64c0,3.45,1.17,1.57,1.17,2.62,0,1.12-1.53,2.33-2.96,2.33-1.55,0-1.59-1-2.08-1-.24,0-.49,.25-.92,.49-.43,.25-1.02,.51-1.92,.51-1.62,0-3.25-.86-3.25-2.8,0-1.39,1.33-3.11,4.78-3.11,.61,0,.88,.04,.88-.67,0-.65-.02-2-.92-2-1.17,0-1.29,2.11-3.04,2.11-.63,0-1.1-.45-1.1-1.08,0-1.66,3.31-2.74,5.17-2.74,1.12,0,4.17,.43,4.17,3.37v1.96Zm-5.87,1.72c0,.51,.27,1.06,.84,1.06,.74,0,.8-.8,.8-1.39,0-.43,.02-.92-.53-.92-.67,0-1.12,.63-1.12,1.25Z"/><path class="d" d="M98.1,28.7c0,2.31,1.16,1.47,1.16,2.51,0,1.33-2.49,1.33-3.37,1.33-3.37,0-3.5-.76-3.5-1.23,0-.71,.8-.74,1.04-1.35,.25-.69,.29-3.52,.08-4.25-.18-.68-1.17-.47-1.17-1.35,0-1.39,4.97-1.98,5.17-1.98,.59,0,.61,.45,.61,.86v5.46Zm-3.88-6.95c-.82,0-1.7-.37-1.7-1.33,0-1.29,2.58-1.82,3.58-1.82,.78,0,1.9,.25,1.9,1.23,0,1.53-2.66,1.92-3.78,1.92Z"/><path class="d" d="M105.81,28.09c0,1.31,.55,1.62,1.08,1.62,.61,0,.96-.45,1.31-.45,.39,0,.67,.55,.67,.9,0,1.29-2.23,2.43-4.21,2.43-1,0-3.5-.43-3.5-3.54v-4.03c0-.35,0-.49-.1-.55-.1-.06-.31-.02-.76-.02-.51,0-.76,.02-.86-.08-.14-.14-.1-.33-.1-.78,0-.27-.06-.49,.18-.65l4.46-2.84c.45-.27,.43-.22,1.02-.22,.78,0,.82-.08,.82,.82,0,.61-.04,1.21,.06,1.45,.06,.16,.2,.16,.71,.16h1.37c.84,0,.84,.06,.84,.94,0,1.12-.14,1.19-.9,1.19h-1.35c-.69,0-.72,.02-.72,.72v2.92Z"/><path class="d" d="M114.98,28.7c0,2.31,1.16,1.47,1.16,2.51,0,1.33-2.49,1.33-3.37,1.33-3.37,0-3.5-.76-3.5-1.23,0-.71,.8-.74,1.04-1.35,.25-.69,.29-3.52,.08-4.25-.18-.68-1.17-.47-1.17-1.35,0-1.39,4.97-1.98,5.17-1.98,.59,0,.61,.45,.61,.86v5.46Zm-3.88-6.95c-.82,0-1.7-.37-1.7-1.33,0-1.29,2.58-1.82,3.58-1.82,.78,0,1.9,.25,1.9,1.23,0,1.53-2.66,1.92-3.78,1.92Z"/><path class="d" d="M121.52,27.82c-.21,0-.53-.06-.53,.27,0,.98,1.27,1.8,2.19,1.8,1.47,0,2.19-.88,2.6-.88s.76,.61,.76,.98c0,1.51-2.76,2.6-4.52,2.6-3.52,0-5.34-2.54-5.34-5.07,0-3.01,2.56-5.21,5.5-5.21,3.33,0,4.8,2.56,4.8,4.03,0,1.29-.59,1.47-1.21,1.47h-4.25Zm-2.33-8.77c0-.9,1.78-1.1,2.39-1.1,.31,0,1.64,.1,1.64,.59,0,.22-.16,.27-.16,.45,0,.53,1.37,.8,1.37,1.62,0,.63-.55,.72-1.06,.72-2.66,0-4.19-1.8-4.19-2.29Zm4.03,6.3c0-.71-.43-1.25-1.15-1.25-.65,0-1.17,.67-1.17,1.29,0,.7,.67,.55,1.17,.55s1.15,.12,1.15-.59Z"/><path class="d" d="M128.79,26.39c0-1.92-1.21-.84-1.21-2.04,0-1.55,4.58-1.98,4.76-1.98,.74,0,.76,.2,.84,.86,.02,.23,0,.68,.33,.68,.47,0,.76-1.55,2.45-1.55,1.31,0,2.17,.98,2.17,2.27s-1.12,2.35-2.41,2.35-1.62-1.12-2.13-1.12c-.55,0-.45,1.31-.45,1.66,0,.59,.06,1.41,.16,2.15,.12,.86,1.61,.33,1.61,1.51,0,1.23-1.72,1.33-3.88,1.33-.9,0-3.56,.04-3.56-1.31,0-.82,.9-.82,1.12-1.51,.16-.49,.22-1.61,.22-2.15v-1.17Z"/><path class="d" d="M143.43,27.82c-.21,0-.53-.06-.53,.27,0,.98,1.27,1.8,2.19,1.8,1.47,0,2.19-.88,2.6-.88s.76,.61,.76,.98c0,1.51-2.76,2.6-4.52,2.6-3.52,0-5.34-2.54-5.34-5.07,0-3.01,2.56-5.21,5.5-5.21,3.33,0,4.8,2.56,4.8,4.03,0,1.29-.59,1.47-1.21,1.47h-4.25Zm1.7-2.47c0-.71-.43-1.25-1.15-1.25-.65,0-1.17,.67-1.17,1.29,0,.7,.67,.55,1.17,.55s1.15,.12,1.15-.59Z"/></g><path class="d" d="M38.12,32.08c-.4,1.28-1.12,1.71-1.32,1.71,0,0,.33-1.4-.68-2.12-.97-.67-2.13-.27-2.68,.54-.52,.76-.6,1.81-.6,1.81h1.76v1.3h-3.52s.09,1.82,2.01,1.65c0,0-.24,1.44-2.01,.68,0,0,.09,1.51-1.13,2.27-1.23-.77-1.13-2.27-1.13-2.27-1.77,.76-2.01-.68-2.01-.68,1.91,.18,2.01-1.65,2.01-1.65h-3.5v-1.3h1.74s-.08-1.05-.61-1.81c-.52-.81-1.72-1.21-2.67-.54-1.01,.72-.68,2.12-.68,2.12-.2,0-.92-.43-1.33-1.71-.76-2.42,1.64-4.77,4.07-3.42,1.71,.96,2.43,3.09,2.43,5.35h.91c-.02,.17,.23-1.68-.14-3.07-.27-.96-.6-1.97-1.19-3.18-.5-1.06-.68-2.83,.39-4.17,.91-1.15,1.46-1.81,1.7-2.26,.25,.45,.8,1.11,1.72,2.26,1.06,1.33,.89,3.11,.38,4.17-.59,1.21-.93,2.22-1.19,3.18-.33,1.28-.16,2.95-.16,3.07h.93c0-2.26,.71-4.39,2.42-5.35,2.42-1.35,4.83,.99,4.07,3.42"/></g></g></g></svg>