<?xml version="1.0" encoding="UTF-8"?><svg xmlns="http://www.w3.org/2000/svg" viewBox="0 0 316.28 110.83"><defs><style>.d{fill:none;stroke:#000;stroke-linecap:round;stroke-miterlimit:10;stroke-width:3px;}</style></defs><g id="a"/><g id="b"><g id="c"><g><g><path d="M60.95,1.1v3.19h-.38v-.57c0-.51-.18-.94-.53-1.31-.35-.37-.8-.55-1.33-.55h-8.02V13.6h6.42c.51-.02,.94-.21,1.29-.57s.53-.79,.53-1.29v-.57h.38v6h-.38v-.57c0-.51-.17-.94-.51-1.29-.34-.35-.77-.54-1.27-.57h-6.46v9.77c0,.66,.24,1.22,.72,1.69,.48,.47,1.05,.7,1.71,.7h.49v.38h-8.32v-.38h.49c.66,0,1.22-.23,1.69-.7,.47-.47,.72-1.03,.74-1.69V3.23c0-.61-.25-1.12-.74-1.54-.49-.42-1.06-.63-1.69-.63h-.46l-.04-.38h11.13c.78,0,1.64-.08,2.56-.23,.92-.15,1.58-.3,1.96-.46V1.1Z"/><path d="M71.24,5.66h-2.01V24.85c.02,.79,.38,1.38,1.06,1.79,.33,.18,.7,.27,1.1,.27h.49l.04,.38h-7.79v-.38h.53c.58,0,1.08-.2,1.5-.59,.42-.39,.63-.87,.63-1.42V6.84c0-.56-.21-1.03-.63-1.41s-.92-.57-1.5-.57h-.53v-.38h9.54c2.38,0,4.26,.54,5.64,1.63,1.38,1.09,2.07,2.52,2.07,4.29s-.56,3.26-1.67,4.45-2.53,1.88-4.26,2.05c.81,.35,1.79,1.34,2.93,2.96-.03,0,.41,.56,1.31,1.67,.9,1.11,1.62,1.98,2.17,2.6,.54,.62,.99,1.1,1.35,1.42,.94,.89,2.01,1.33,3.23,1.33v.38h-1.18c-2,0-3.57-.39-4.71-1.18-.86-.58-1.65-1.3-2.36-2.17-.15-.2-.79-1.1-1.92-2.68-1.13-1.58-1.73-2.43-1.81-2.53-1.37-1.7-2.65-2.55-3.84-2.55v-.38c2.96,0,4.75-.15,5.36-.46,.84-.43,1.41-.89,1.71-1.37,.63-1.01,.95-2.13,.95-3.34,0-1.54-.46-2.74-1.37-3.57-.91-.84-2.14-1.29-3.69-1.37-.68-.02-1.47-.04-2.36-.04Z"/><path d="M92.83,5.45c1.95-1,4.1-1.5,6.44-1.5s4.49,.5,6.44,1.5c1.95,1,3.5,2.41,4.65,4.24,1.15,1.82,1.73,3.89,1.73,6.19s-.58,4.37-1.73,6.19c-1.15,1.82-2.7,3.24-4.65,4.24-1.95,1-3.95,1.5-6,1.5s-3.86-.29-5.43-.87c-1.57-.58-2.93-1.39-4.08-2.43-1.15-1.04-2.06-2.31-2.74-3.8-.67-1.49-1.01-3.25-1.01-5.26s.58-3.93,1.73-5.76c1.15-1.82,2.7-3.24,4.66-4.24Zm-.7,18.2c1.91,2.01,4.29,3.02,7.12,3.02s5.22-1.01,7.14-3.02c1.92-2.01,2.89-4.6,2.89-7.77s-.96-5.76-2.89-7.77c-1.93-2.01-4.31-3.02-7.14-3.02s-5.21,1.01-7.12,3.02c-1.91,2.01-2.87,4.6-2.87,7.77s.96,5.76,2.87,7.77Z"/><path d="M146.1,26.9h.57v.38h-7.9v-.34h.57c.38,0,.72-.15,1.01-.44s.41-.64,.36-1.05l-1.98-15.66-7.18,14.14c-.71,1.55-1.15,2.84-1.33,3.88h-.38l-9.16-17.67-1.71,15.31c-.05,.38,.07,.72,.36,1.03,.29,.3,.64,.46,1.04,.46h.53v.34h-7.03v-.38h.57c.91,0,1.62-.33,2.13-.99,.25-.33,.4-.72,.46-1.18l2.96-20.79h.38l10.03,19.3,9.69-19.3h.34l3.08,20.86c.1,.63,.39,1.14,.87,1.52,.48,.38,1.05,.57,1.71,.57Z"/><path d="M172.02,26.9h.3v.38h-7.79v-.38h.3c.48,0,.85-.16,1.1-.49,.25-.33,.38-.64,.38-.93s-.05-.58-.15-.85l-2.09-5.05h-9.61l-2.09,4.94c-.13,.33-.19,.64-.19,.93s.13,.61,.38,.95c.25,.34,.63,.51,1.14,.51h.3v.38h-7.26v-.38h.3c.53,0,1.07-.18,1.62-.55,.54-.37,.99-.92,1.35-1.65,5.55-11.86,8.44-18.06,8.66-18.62,.43-1.06,.66-1.77,.68-2.13h.34l9.39,20.75c.73,1.47,1.71,2.2,2.93,2.2Zm-17.06-8.47h8.66l-4.26-10.41-4.41,10.41Z"/><path d="M176.86,24.57c-2.27-2.14-3.4-5.04-3.4-8.7s1.13-6.56,3.4-8.7c2.27-2.14,5.19-3.21,8.78-3.21s6.63,.76,9.14,2.28l.84,5.4h-.34c-.53-2.23-1.56-3.88-3.1-4.94-1.53-1.06-3.7-1.6-6.5-1.6s-5.08,.97-6.84,2.91-2.64,4.57-2.64,7.89,.89,5.95,2.66,7.88c1.77,1.94,4.22,2.91,7.35,2.91s5.82-1.1,8.08-3.31l.04-5.05c.02-.46-.12-.82-.44-1.08-.32-.27-.75-.4-1.31-.4h-.53v-.38h6.95v.38h-.53c-1.14,0-1.71,.51-1.71,1.52v4.56c-1.06,1.32-2.53,2.46-4.39,3.44-1.86,.98-4.01,1.46-6.44,1.46-3.77-.03-6.8-1.11-9.06-3.25Z"/><path d="M201.81,26.9c.61,0,1.12-.2,1.54-.59,.42-.39,.64-.87,.67-1.42V6.84c0-.56-.22-1.03-.65-1.41-.43-.38-.95-.57-1.56-.57h-.53v-.38h11.1c1.04,0,1.95-.08,2.74-.23,.79-.15,1.29-.28,1.52-.38v4.33l-.42-.04v-.57c0-.53-.18-.99-.53-1.37-.36-.38-.81-.57-1.37-.57h-7.9V15.31h6.5c.51,0,.89-.15,1.16-.46,.27-.3,.4-.68,.4-1.14v-.49h.42v5.32h-.42v-.49c0-.71-.27-1.19-.8-1.44-.2-.08-.42-.13-.65-.15h-6.61v9.65h5.97c1.17,0,2.15-.2,2.94-.61,.8-.4,1.41-.89,1.82-1.44,.42-.56,.84-1.29,1.27-2.2h.38l-2.09,5.43h-15.43v-.38h.53Z"/><path d="M228.75,5.66h-2.01V24.85c.02,.79,.38,1.38,1.06,1.79,.33,.18,.7,.27,1.1,.27h.49l.04,.38h-7.79v-.38h.53c.58,0,1.08-.2,1.5-.59,.42-.39,.63-.87,.63-1.42V6.84c0-.56-.21-1.03-.63-1.41s-.92-.57-1.5-.57h-.53v-.38h9.54c2.38,0,4.26,.54,5.64,1.63,1.38,1.09,2.07,2.52,2.07,4.29s-.56,3.26-1.67,4.45-2.53,1.88-4.26,2.05c.81,.35,1.79,1.34,2.93,2.96-.03,0,.41,.56,1.31,1.67,.9,1.11,1.62,1.98,2.17,2.6,.54,.62,.99,1.1,1.35,1.42,.94,.89,2.01,1.33,3.23,1.33v.38h-1.18c-2,0-3.57-.39-4.71-1.18-.86-.58-1.65-1.3-2.36-2.17-.15-.2-.79-1.1-1.92-2.68-1.13-1.58-1.73-2.43-1.81-2.53-1.37-1.7-2.65-2.55-3.84-2.55v-.38c2.96,0,4.75-.15,5.36-.46,.84-.43,1.41-.89,1.71-1.37,.63-1.01,.95-2.13,.95-3.34,0-1.54-.46-2.74-1.37-3.57-.91-.84-2.14-1.29-3.69-1.37-.68-.02-1.47-.04-2.36-.04Z"/><path d="M246.01,26.9c.68,0,1.28-.2,1.79-.61,.51-.41,.76-.89,.76-1.44V6.92c0-.56-.25-1.04-.76-1.44-.51-.4-1.12-.61-1.82-.61h-.49v-.38h8.59v.38h-.49c-.68,0-1.27,.19-1.77,.57s-.77,.85-.82,1.41V24.89c.02,.56,.29,1.03,.8,1.42,.51,.39,1.1,.59,1.79,.59h.49l.04,.38h-8.63v-.38h.53Z"/><path d="M258.77,26.9c.61,0,1.12-.2,1.54-.59,.42-.39,.64-.87,.67-1.42V6.84c0-.56-.22-1.03-.65-1.41-.43-.38-.95-.57-1.56-.57h-.53v-.38h11.1c1.04,0,1.95-.08,2.74-.23,.79-.15,1.29-.28,1.52-.38v4.33l-.42-.04v-.57c0-.53-.18-.99-.53-1.37-.36-.38-.81-.57-1.37-.57h-7.9V15.31h6.5c.51,0,.89-.15,1.16-.46,.27-.3,.4-.68,.4-1.14v-.49h.42v5.32h-.42v-.49c0-.71-.27-1.19-.8-1.44-.2-.08-.42-.13-.65-.15h-6.61v9.65h5.97c1.17,0,2.15-.2,2.94-.61,.8-.4,1.41-.89,1.82-1.44,.42-.56,.84-1.29,1.27-2.2h.38l-2.09,5.43h-15.43v-.38h.53Z"/></g><g><path d="M21.48,110.14H9.53l.05-.49h.59c.85,0,1.58-.29,2.18-.88s.92-1.31,.96-2.16v-27.24c0-.85-.31-1.57-.93-2.16-.62-.59-1.36-.88-2.21-.88h-.59l-.05-.49h9.75c3.36,0,5.98,.74,7.84,2.23,1.86,1.49,2.79,3.47,2.79,5.95,0,1.96-.52,3.59-1.57,4.88-1.05,1.29-2.32,2.15-3.82,2.57,2.58,.39,4.62,1.45,6.12,3.19,1.5,1.73,2.25,3.91,2.25,6.54s-1,4.78-3.01,6.44c-2.01,1.67-4.81,2.5-8.4,2.5Zm-5-1.76h4.9c2.48,0,4.41-.68,5.78-2.03,1.37-1.36,2.06-3.27,2.06-5.76,0-1.4-.24-2.64-.71-3.7-.47-1.06-1.07-1.9-1.79-2.52-1.9-1.57-4.74-2.35-8.53-2.35h-.05v-.44h.47c.28,0,.68-.03,1.2-.1,.52-.06,1.11-.18,1.76-.34,.65-.16,1.24-.42,1.76-.78,.52-.36,1.01-.78,1.47-1.27,.95-1.08,1.42-2.69,1.42-4.83s-.61-3.81-1.84-5.02c-1.23-1.21-3-1.81-5.32-1.81h-2.6v30.97Z"/><path d="M46.67,82.26h-2.6v24.74c.03,1.01,.49,1.78,1.37,2.3,.42,.23,.9,.34,1.42,.34h.64l.05,.49h-10.05v-.49h.69c.75,0,1.4-.25,1.94-.76,.54-.51,.81-1.12,.81-1.84v-23.27c0-.72-.27-1.32-.81-1.81-.54-.49-1.18-.74-1.94-.74h-.69v-.49h12.3c3.07,0,5.5,.7,7.28,2.11,1.78,1.4,2.67,3.25,2.67,5.54s-.72,4.2-2.16,5.73c-1.44,1.54-3.27,2.42-5.49,2.65,1.05,.46,2.3,1.73,3.77,3.82-.03,0,.53,.72,1.69,2.16,1.16,1.44,2.09,2.56,2.79,3.36,.7,.8,1.28,1.41,1.74,1.84,1.21,1.14,2.6,1.71,4.17,1.71v.49h-1.52c-2.58,0-4.61-.51-6.08-1.52-1.11-.75-2.12-1.68-3.04-2.79-.2-.26-1.02-1.41-2.47-3.45-1.45-2.04-2.23-3.13-2.33-3.26-1.76-2.19-3.41-3.28-4.95-3.28v-.49c3.82,0,6.12-.2,6.91-.59,1.08-.55,1.81-1.14,2.21-1.76,.82-1.31,1.23-2.74,1.23-4.31,0-1.99-.59-3.53-1.76-4.61-1.18-1.08-2.76-1.67-4.75-1.76-.88-.03-1.9-.05-3.04-.05Z"/><path d="M68.91,109.65c.88,0,1.65-.26,2.3-.78,.65-.52,.98-1.14,.98-1.86v-23.13c0-.72-.33-1.34-.98-1.86-.65-.52-1.44-.78-2.35-.78h-.64v-.49h11.07v.49h-.64c-.88,0-1.64,.25-2.28,.74-.64,.49-.99,1.09-1.05,1.81v23.27c.03,.72,.38,1.33,1.03,1.84,.65,.51,1.42,.76,2.3,.76h.64l.05,.49h-11.12v-.49h.69Z"/><path d="M116.79,95.44c0,4.54-1.41,8.13-4.24,10.76-2.83,2.63-6.66,3.94-11.49,3.94h-16.37v-.49h.64c.78,0,1.44-.26,1.96-.78,.52-.52,.8-1.14,.83-1.86v-23.13c-.03-.78-.32-1.42-.86-1.91-.54-.49-1.2-.74-1.98-.74h-.59v-.49h16.37c3.2,0,5.99,.59,8.35,1.76,2.37,1.18,4.19,2.88,5.46,5.1,1.27,2.22,1.91,4.83,1.91,7.84Zm-25.48-13.23v26.46h9.75c3.76,0,6.73-1.18,8.92-3.55,2.19-2.37,3.28-5.59,3.28-9.68s-1.1-7.31-3.28-9.68c-2.19-2.37-5.16-3.55-8.92-3.55h-9.75Z"/><path d="M126.07,106.64c-2.92-2.76-4.39-6.5-4.39-11.22s1.46-8.46,4.39-11.22c2.92-2.76,6.7-4.14,11.32-4.14s8.55,.98,11.78,2.94l1.08,6.96h-.44c-.69-2.87-2.02-5-3.99-6.37-1.98-1.37-4.77-2.06-8.38-2.06s-6.55,1.25-8.82,3.75-3.41,5.89-3.41,10.17,1.14,7.67,3.43,10.17c2.29,2.5,5.45,3.75,9.48,3.75s7.5-1.42,10.41-4.26l.05-6.52c.03-.59-.16-1.05-.56-1.4-.41-.34-.97-.51-1.69-.51h-.69v-.49h8.97v.49h-.69c-1.47,0-2.21,.65-2.21,1.96v5.88c-1.37,1.7-3.26,3.18-5.66,4.43-2.4,1.26-5.17,1.89-8.31,1.89-4.87-.03-8.76-1.43-11.69-4.19Z"/><path d="M158.24,109.65c.78,0,1.45-.25,1.98-.76,.54-.51,.82-1.12,.86-1.84v-23.27c0-.72-.28-1.32-.83-1.81-.56-.49-1.23-.74-2.01-.74h-.69v-.49h14.31c1.34,0,2.52-.1,3.53-.29,1.01-.2,1.67-.36,1.96-.49v5.59l-.54-.05v-.73c0-.69-.23-1.27-.69-1.76-.46-.49-1.05-.73-1.76-.73h-10.19v12.45h8.38c.65,0,1.15-.2,1.49-.59,.34-.39,.51-.88,.51-1.47v-.64h.54v6.86h-.54v-.64c0-.91-.34-1.53-1.03-1.86-.26-.1-.54-.16-.83-.2h-8.53v12.45h7.69c1.5,0,2.77-.26,3.8-.78,1.03-.52,1.81-1.14,2.35-1.86,.54-.72,1.09-1.67,1.64-2.84h.49l-2.7,7.01h-19.89v-.49h.69Z"/><path d="M192.98,82.26h-2.6v24.74c.03,1.01,.49,1.78,1.37,2.3,.42,.23,.9,.34,1.42,.34h.64l.05,.49h-10.05v-.49h.69c.75,0,1.4-.25,1.94-.76,.54-.51,.81-1.12,.81-1.84v-23.27c0-.72-.27-1.32-.81-1.81-.54-.49-1.18-.74-1.94-.74h-.69v-.49h12.3c3.07,0,5.5,.7,7.28,2.11,1.78,1.4,2.67,3.25,2.67,5.54s-.72,4.2-2.16,5.73c-1.44,1.54-3.27,2.42-5.49,2.65,1.05,.46,2.3,1.73,3.77,3.82-.03,0,.53,.72,1.69,2.16,1.16,1.44,2.09,2.56,2.79,3.36,.7,.8,1.28,1.41,1.74,1.84,1.21,1.14,2.6,1.71,4.17,1.71v.49h-1.52c-2.58,0-4.61-.51-6.08-1.52-1.11-.75-2.12-1.68-3.04-2.79-.2-.26-1.02-1.41-2.47-3.45-1.45-2.04-2.23-3.13-2.33-3.26-1.76-2.19-3.41-3.28-4.95-3.28v-.49c3.82,0,6.12-.2,6.91-.59,1.08-.55,1.81-1.14,2.21-1.76,.82-1.31,1.23-2.74,1.23-4.31,0-1.99-.59-3.53-1.76-4.61-1.18-1.08-2.76-1.67-4.75-1.76-.88-.03-1.9-.05-3.04-.05Z"/><path d="M226.4,82.16v24.89c.03,1.01,.52,1.76,1.47,2.25,.42,.23,.9,.34,1.42,.34h.54v.49h-10.09v-.49h.59c.78,0,1.45-.26,2.01-.78,.56-.52,.85-1.14,.88-1.86v-24.84h-8.87c-.75,0-1.35,.25-1.79,.73-.44,.49-.66,1.08-.66,1.76v.78h-.54v-5.54c.65,.26,1.58,.46,2.77,.59,1.19,.13,2.08,.2,2.67,.2h15.97c2.35,0,4.18-.26,5.49-.78v5.54h-.54v-.78c0-.69-.23-1.27-.69-1.76-.46-.49-1.05-.73-1.76-.73h-8.87Z"/><path d="M248.16,81.99c2.52-1.29,5.28-1.94,8.31-1.94s5.79,.65,8.31,1.94c2.52,1.29,4.52,3.11,6,5.46,1.49,2.35,2.23,5.01,2.23,7.99s-.74,5.64-2.23,7.99c-1.49,2.35-3.49,4.17-6,5.46-2.52,1.29-5.1,1.94-7.74,1.94s-4.98-.38-7.01-1.13c-2.03-.75-3.78-1.8-5.27-3.14-1.49-1.34-2.66-2.97-3.53-4.9-.87-1.93-1.3-4.19-1.3-6.79s.74-5.07,2.23-7.42c1.49-2.35,3.49-4.17,6-5.46Zm-.91,23.47c2.47,2.6,5.53,3.9,9.19,3.9s6.73-1.3,9.21-3.9c2.48-2.6,3.72-5.94,3.72-10.02s-1.24-7.42-3.72-10.02c-2.48-2.6-5.55-3.9-9.21-3.9s-6.72,1.3-9.19,3.9c-2.47,2.6-3.7,5.94-3.7,10.02s1.23,7.42,3.7,10.02Z"/><path d="M310.78,81.23c-.72,0-1.34,.24-1.86,.71-.52,.47-.8,1.05-.83,1.74v20.87c0,1.9,.11,3.69,.34,5.39l.1,.88h-.44l-25.48-24.16v20.43c0,.72,.26,1.32,.78,1.81,.52,.49,1.16,.73,1.91,.73h.83v.49h-9.26v-.49h.83c.75,0,1.39-.24,1.91-.73,.52-.49,.78-1.09,.78-1.81v-20.97c0-1.99-.12-3.77-.34-5.34l-.1-.78,.54,.05,25.43,23.96v-20.33c-.07-.69-.36-1.27-.88-1.74-.52-.47-1.14-.71-1.86-.71h-.83v-.49h9.26v.49h-.83Z"/></g><g><path class="d" d="M181.47,67.72l-43.1,2.58c-.99,.04-1.82-.61-1.86-1.46l-.67-15.73,48.13-2.57c.15,4.93,.31,9.87,.46,14.8,0,.18-.07,1.08-.82,1.76-.89,.81-2.01,.65-2.15,.62Z"/><path class="d" d="M183.77,49.56l-6.99-9.93c-1.31-2.24-4.5-3.27-6.86-2.23l-34.46,14.84"/></g><path d="M190.14,55.54c15.72-.33,47.29-.86,63-1.05,20.99-.35,42.37-.87,63.14,1.21-20.84,2.02-42.13,1.57-63.14,1.19-15.69-.19-47.31-.72-63-1.05-.18,0-.19-.3,0-.3h0Z"/><path d="M126.13,57.23c-15.72,.24-47.29,.57-63.01,.66-20.99,.23-42.37,.61-63.13-1.6,20.85-1.89,42.14-1.31,63.14-.8,15.69,.29,47.31,1.01,62.99,1.44,.18,0,.19,.3,0,.3h0Z"/><path d="M12.14,63.64c33.48-.07,81-.95,114,0,.06,0,.06,.1,0,.1-32.71,.85-81.13,.26-114-.1h0Z"/><path d="M192.14,61.64c33.48-.07,81-.95,114,0,.06,0,.06,.1,0,.1-32.71,.85-81.13,.26-114-.1h0Z"/></g></g></g></svg>