<?xml version="1.0" encoding="UTF-8"?><svg xmlns="http://www.w3.org/2000/svg" width="1315.13" height="853.34" viewBox="0 0 1315.13 853.34"><defs><style>.f{fill:none;}.f,.g,.h,.i{stroke:#fcee21;stroke-miterlimit:10;}.f,.h,.i{stroke-width:6px;}.g{stroke-width:4px;}.g,.i{fill:#fff;}.h{fill:#ff0;}.j{fill:#fcee21;}</style></defs><g id="a"/><g id="b"><path class="h" d="M545.1,107.22c-9.07-.03-16.42,7.35-16.35,16.42,1.06,147.07-18.64,474.53,235.67,469.88,263.57-9.85,237.31-378.29,228.91-455.36-.88-8.06-7.53-14.25-15.63-14.55l-299.79-10.79c-5.73-.21-11.2,2.57-14.26,7.41-21.23,33.64-60.46,32.1-81.57-4.12-2.66-4.57-7.4-7.55-12.67-8-7.74-.66-16.73-.87-24.31-.89Z"/><circle class="i" cx="709.78" cy="231.54" r="23.48"/><circle class="i" cx="898.59" cy="284.95" r="47.15"/><circle class="i" cx="691.88" cy="432.86" r="60.75"/></g><g id="c"><path class="h" d="M521.3,388.45c-40.54-3.44-163.3-12.51-206.24-.11-8.37,2.42-14.61,9.43-16.17,18-4.09,22.47-6.6,52.82-7.25,73.48-.22,7.02,1.43,13.97,4.81,20.13,47.13,85.99,214.71,78.47,294.78,55.48,8.26-2.37,11.35-12.45,5.81-19.02-25.79-30.56-54.22-88.06-61.19-134.28-1.11-7.38-7.1-13.05-14.54-13.68Z"/></g><g id="d"><path class="f" d="M301.49,398.51c21.52,66.13,114.82,110.86,263.13,87.37"/><ellipse class="g" cx="396.69" cy="442.28" rx="11.27" ry="26.06" transform="translate(-100.63 767.32) rotate(-81.28)"/><ellipse class="g" cx="467.14" cy="410.8" rx="9.28" ry="17.61" transform="translate(-9.75 810.25) rotate(-81.28)"/><ellipse class="g" cx="505.48" cy="454.54" rx="11.24" ry="26.87" transform="translate(-20.46 885.25) rotate(-81.28)"/></g><g id="e"><path class="j" d="M352.82,491.89c-.65-6.84-2.17-13.54-4.61-19.97-.31-.81-.98-1.2-1.85-1.05-2.12,.38-2.84,2.56-3.2,4.4-.56,2.8-1.08,5.61-1.58,8.42-.99,5.54-1.88,11.1-2.69,16.67l2.95,.4c-.51-6.26-.66-12.54-.45-18.82l-2.95,.4c.88,2.95,1.79,5.9,2.74,8.83,.7,2.16,1.29,5.65,3.88,6.37,3.13,.87,3.37-3.17,3.69-5.18l1.49-9.46c.3-1.89-2.59-2.7-2.89-.8l-1.07,6.79-.53,3.39c-.08,.48-.43,1.48-.3,1.94-.19,.37-.06,.5,.39,.39-.11-.09-.21-.2-.29-.31-.94-1.89-1.5-4-2.14-6.02-.71-2.24-1.4-4.49-2.07-6.74-.49-1.63-2.89-1.3-2.95,.4-.21,6.28-.06,12.56,.45,18.82,.13,1.55,2.69,2.19,2.95,.4,.71-4.93,1.49-9.84,2.35-14.74,.42-2.41,.86-4.82,1.32-7.22,.23-1.2,.44-2.41,.7-3.6,.14-.65,.25-1.69,1.01-1.83l-1.85-1.05c2.34,6.17,3.88,12.61,4.5,19.17,.18,1.91,3.18,1.92,3,0h0Z"/><path class="j" d="M345.31,481.57c.13-3.32-2.17-6.26-5.36-7.11s-6.12,.54-8.14,2.82c-4.3,4.88-3.1,12.25,3.39,14.42,5.16,1.73,12.89,.16,14.71-5.6,1.41-4.45-.87-9.61-4.26-12.55-4-3.49-10.52-5.27-14.62-.89-4.33,4.63-3.3,11.58,2,14.9,4.47,2.79,10.64,2.66,14.45-1.22,4.27-4.33,2.72-10.36-1.56-13.98-5.42-4.58-12.3-2.52-16.14,2.95-1.74,2.49-2.53,5.55-1.6,8.48,.99,3.12,3.78,4.77,6.71,5.74,3.07,1.02,6.55-1.18,7.38-4.19,.9-3.27-1.1-6.36-4.19-7.38-.65-.22-.65-.21,0,.03l1.55,4.09c-.21,.47-.14,.39,.18-.22-.3,.33-.3,.35-.02,.05,.2-.22,.41-.43,.64-.62-.05,.11-.13,.18-.24,.23,.12,.18-2.53-.83-1.98,.02,.23,.22,.46,.45,.67,.69-1.02-1.64-.98-3.1,.12-4.38,.3-.51,1.32-.09,.15-.21,.09,0,.79,.02,.79,.02-.86,.14-.3-.79-.18,.22,.4,3.3,1.35,2.64-3.03,4.08,.62,.2,.74,.24,.38,.1-.36-.15-.25-.08,.33,.22,.54,.35,.65,.43,.33,.23-.31-.21-.23-.1,.25,.32-.46-.93,.3,.52,.39,.71-.22-.54-.22-.47,0,.21l-.06-.4c2.78-2.61,3.26-3.62,1.43-3.03l.2-.03c-2.02,.24-1.63-.99-.29,2.51,1.31,1.12,1.57,2.02,.8,2.71,.76-.72,.48-.56-.82,.46h-3.19l-.45-.18-2.15-2.15,.26,.45-.82-3.03-.02,.51c-.13,3.24,2.85,6,6,6,3.36,0,5.87-2.75,6-6h0Z"/><path class="j" d="M340.52,485.89c7.72,0,7.73-12,0-12s-7.73,12,0,12h0Z"/><path class="j" d="M324.84,472.76c-1.57,3.79-1.78,8.25,.89,11.63,2.48,3.14,6.78,4.54,10.54,2.94,8.31-3.54,5.74-15.19,1.03-20.52-5.19-5.89-14.93-7.89-19.93-.6-4.74,6.91-3.28,18.24,5.44,20.81,2.73,.8,5.24-.59,6.78-2.76,4.02-5.65,3.36-13.98,2.18-20.43-1.03-5.64-10.7-5.82-11.57,0-.92,6.17-.32,17.31,8.63,16.67,8.31-.6,8.88-11.65,5.87-17.38-3.24-6.17-11-9.77-16.51-4.07-4.9,5.06-5.53,14.9,3.18,15.64,2.1,.18,4.12-1.28,5.18-2.97,2.9-4.62,2.23-12.62-2.24-16.09-2.38-1.84-5.44-2.23-8.24-1.15-3.54,1.36-4.3,4.12-6.42,6.84l10.03,5.84c1.15-7.99-6.16-17.43-14.84-12.42-7.43,4.3-5.28,15.72,1.67,19.27,9.71,4.96,15.39-7.23,10.24-14.77-2.63-3.85-7.55-4.77-11.18-1.67-3.57,3.06-5.29,8.7-5.91,13.15l11.79,1.6c.49-3.85,.04-7.56-1.29-11.21-1.59-4.37-8.56-6.5-10.97-1.43-1.01,2.12-1.85,4.19-2.44,6.47h11.57l-.5-2.56c-1.12-5.72-10.45-5.73-11.57,0l-.89,4.56,11.57,3.19c.39-2.79,.74-5.58,.99-8.39,.68-7.76-11.14-7.54-12,0-.31,2.72-.32,5.32-.02,8.04,.82,7.52,12.54,7.81,12,0-.21-3.04-.63-6.01-1.32-8.98-1.4-6.04-9.83-5.36-11.57,0-.58,1.8-1.11,3.58-1.58,5.41l11.79,1.6c-.18-.88-.23-1.77-.15-2.67l-11.79,1.6,.1,.52c1.47,7.57,13.03,4.37,11.57-3.19l-.1-.52c-1.32-6.8-11.67-4.99-11.79,1.6-.08,.9-.03,1.79,.15,2.67,.82,6.21,9.92,8.73,11.79,1.6,.48-1.83,1-3.61,1.58-5.41h-11.57c.45,1.96,.75,3.79,.89,5.79h12c-.3-2.72-.29-5.32,.02-8.04h-12c-.15,1.74-.32,3.47-.56,5.2-1.04,7.43,10.06,10.92,11.57,3.19l.89-4.56h-11.57l.5,2.56c1.16,5.93,10.14,5.5,11.57,0,.24-1.26,.65-2.46,1.23-3.61l-10.97-1.43c1.02,2.78,1.24,5.1,.87,8.02-.84,6.64,10.86,8.29,11.79,1.6,.2-1.44,.41-2.85,.89-4.24,.39-1.13,1.89-2.57,.31-2.27l-5.84-1.54-.04,1.05,2.76-3.59c4.22-.01,3.82,.2-1.21,.64-.72,5.05,5.84,11.21,10.03,5.84,.64-.82,2.06-1.98,2.18-2.99,.84-1.03,.22-1.48-1.87-1.33-1.74-1.32-2.48-1.26-2.25,.18l5.18-2.97-.57-.05,4.24,1.76-.39-.47,1.76,4.24c.49-.72,.02-.85-1.42-.37-1.75-.42-2.07-.15-.94,.8-.02,.63,.4,1.78,.53,1.67l4.24-1.76c2.57,2.87,3.58,3.28,3.01,1.25-.22-.9-.24-1.81-.06-2.73h-11.57c.61,3.34,1.11,8.27-.97,11.19l6.78-2.76c.68,1.01,.94,1.03,.79,.06-.03-.75,.07-1.49,.29-2.22-.78,.77,.23,.18,.88,1.1,.52,.74,1.01,1.69,1.53,2.4l.22,1.07c3.78,1.44,6.01,.8,6.7-1.91,2.95-7.13-8.66-10.24-11.57-3.19h0Z"/><path class="j" d="M305.71,466.57c.08-3.15,.2-6.31,.15-9.46-.04-2.06-1.05-6.24,.62-7.71,5.8-5.12-2.71-13.58-8.49-8.49-3.43,3.03-4.48,7.34-4.32,11.78s.15,9.24,.04,13.88c-.19,7.72,11.81,7.72,12,0h0Z"/><path class="j" d="M298.67,452.76c4.9,7.03,9.94,13.96,15.11,20.8,1.97,2.6,5.15,3.89,8.21,2.15,2.56-1.46,4.1-5.63,2.15-8.21-5.17-6.83-10.21-13.77-15.11-20.8-4.38-6.29-14.79-.3-10.36,6.06h0Z"/><path class="j" d="M324.79,468.38l-.64-2.09c-.45-1.47-1.42-2.8-2.76-3.59-.69-.44-1.43-.68-2.23-.71-.8-.18-1.6-.14-2.39,.11-1.45,.47-2.85,1.37-3.59,2.76s-1.08,3.06-.6,4.62l.64,2.09c.45,1.47,1.42,2.8,2.76,3.59,.69,.44,1.43,.68,2.23,.71,.8,.18,1.6,.14,2.39-.11,1.45-.47,2.85-1.37,3.59-2.76s1.08-3.06,.6-4.62h0Z"/><path class="j" d="M301.96,450.41c11.26,9.63,22.21,21.07,36.25,26.51,4.14,1.6,8.89-3.29,7.38-7.38-.53-1.43-1.01-2.62-1.86-3.89-4.28-6.38-14.68-.38-10.36,6.06l.65,1.02,7.38-7.38c-11.8-4.57-21.49-15.33-30.95-23.42-5.84-5-14.36,3.45-8.49,8.49h0Z"/><path class="j" d="M315.09,453.38c9.95,6.3,18.3,14.73,27.79,21.66,6.24,4.56,12.24-5.85,6.06-10.36-9.5-6.94-17.81-15.35-27.79-21.66-6.54-4.14-12.57,6.24-6.06,10.36h0Z"/><path class="j" d="M346.52,475.71c7.72,0,7.73-12,0-12s-7.73,12,0,12h0Z"/><path class="j" d="M328.3,459.73c12.26,8.09,24.58,15.88,38.35,21.15l1.6-11.79c-8.5-.82-17-1.27-25.53-1.36-4.15-.04-8.02,5.3-5.18,9.03,2.37,3.12,4.98,5.46,8.37,7.46,1.51,.89,3.1,1.91,4.7,2.61,1.7,1.11,1.75,1.04,.15-.23l.24,3,11.79-1.6c-.96-5.77-3.28-12.19-8.09-15.79-1.62-1.21-4.42-1.04-6.06,0-6.74,4.28-3.3,14.7-6.84,20.88h10.36l-2.35-5.22c-1.65-3.67-6.88-3.62-9.42-1.21-2.1,1.98-3.36,4.19-4.27,6.93-2.04,6.16,5.81,9.38,10.03,5.84,.74-.6,1.56-1.06,2.47-1.38l-8.81-6.78c-.75,1.96-1.64,3.73-1.57,5.88,.06,1.93,1.06,4.35,2.97,5.18l.4,.17,4.62-10.97c-1.25-.33-2.52-.68-3.82-.63-1.92,.06-1.63-.69-.83,.71-3.84-6.7-14.21-.66-10.36,6.06,2.91,5.08,6.95,4.17,11.82,5.44,6.32,1.65,11.06-8.18,4.62-10.97l-.4-.17,2.97,5.18c.47-.86,.85-1.75,1.14-2.69,2.09-5.44-4.6-8.68-8.81-6.78-1.86,.84-3.33,1.94-4.9,3.25l10.03,5.84c.16-.72,.55-1.26,1.18-1.63l-9.42-1.21,2.35,5.22c1.9,4.21,8.29,3.61,10.36,0,3.5-6.09,2.53-13.33,4.72-19.8l-2.76,3.59,.57-.36h-6.06c-1.14-.85,.98,2.57,1.24,3.25,.67,1.74,1.03,3.54,1.33,5.37,1.1,6.62,12.33,5.14,11.79-1.6-.37-4.58-.28-8.8-4.22-11.79-3.37-2.55-8.24-3.65-10.88-7.11l-5.18,9.03c8.53,.09,17.04,.54,25.53,1.36,7.22,.69,7.43-9.55,1.6-11.79-12.73-4.87-24.17-12.47-35.48-19.94-6.46-4.27-12.48,6.12-6.06,10.36h0Z"/><path class="j" d="M335.96,499.45c7.72,0,7.73-12,0-12s-7.73,12,0,12h0Z"/><path class="j" d="M310.78,475.58v.13c-.03,.83,.14,1.6,.52,2.31,.24,.74,.66,1.39,1.24,1.93,.54,.59,1.19,1,1.93,1.24,.72,.38,1.49,.55,2.31,.52l1.6-.21c1.02-.29,1.9-.8,2.65-1.54l.94-1.21c.54-.94,.82-1.95,.82-3.03v-.13c.03-.83-.14-1.6-.52-2.31-.24-.74-.66-1.39-1.24-1.93-.54-.59-1.19-1-1.93-1.24-.72-.38-1.49-.55-2.31-.52l-1.6,.21c-1.02,.29-1.9,.8-2.65,1.54l-.94,1.21c-.54,.94-.82,1.95-.82,3.03h0Z"/><path class="j" d="M318.98,472.4c-2.54-2.61-5.98-3.96-9.61-3.02-1.6,.41-3.08,1.17-4.3,2.3-.61,.69-1.18,1.41-1.73,2.15-.71,1.19-.55,1.12,.47-.21l4.62-.6c-1.62-.59-2.89-4-4.39-5.04-1.82-1.27-4.06-1.66-6.21-.95-5.23,1.74-5.47,7.2-5.4,11.85,.09,5.99,.87,12.05,2.26,17.87,1.26,5.25,2.64,10.91,8.56,12.44,5.58,1.44,12.52,.06,18.14-.67,5.23-.67,11.96-.75,16.56-3.58s5.37-8.81,2.24-13.05c-3.37-4.56-9.79-5.94-15.05-6.65-7.11-.95-7.49,9.64-1.6,11.79s13.45-2.99,10.35-9.77c-1.48-3.23-4.19-3.94-7.32-4.65-1.89-.43-1.59,.01-3.26-1.2-2.09-1.53-4.25-2.96-6.38-4.44-5.7-3.97-11.94,4.68-7.27,9.42,1.83,1.85,3.66,3.7,5.45,5.59,.44,.46,4.35,4.36,4.37,4.15l4.4-5.79-.55,.21,4.62,.6c-5.37-2.39-10.45-8.22-14.51-12.38-4.83-4.95-12.66,1.35-9.42,7.27,2.29,4.18,4.62,8.34,6.99,12.48l10.36-6.06c-3.41-4.7-8.28-11.35-14.64-11.48-3.94-.08-6.76,3.89-5.79,7.6,.84,3.16,1.86,6.23,3.08,9.27l10.03-5.84c-1.53-1.72-3.09-3.4-4.68-5.06-4.59-4.79-13.54,1.68-9.42,7.27,2.08,2.82,4.04,6.17,7.83,6.68,3.41,.46,6.73-1.81,7.4-5.21,1.47-7.54-10.09-10.77-11.57-3.19l-.13,.65,4.19-4.19-.69,.27,4.62,.6c.21,.76-.22,.2-1.29-1.67l-9.42,7.27c1.59,1.66,3.15,3.35,4.68,5.06,3.82,4.29,12.29-.23,10.03-5.84-1.23-3.04-2.25-6.1-3.08-9.27l-5.79,7.6c-2.19-.04-.07,.69,1.13,1.88s2.19,2.35,3.14,3.66c4.44,6.13,14.29,.79,10.36-6.06-2.37-4.13-4.7-8.29-6.99-12.48l-9.42,7.27c3.59,3.68,7.38,7.13,11.43,10.31,2.99,2.35,6.54,5.9,10.68,4.34,2.64-.99,4.24-2.95,4.4-5.79,.41-6.96-9.06-13.88-13.33-18.22l-7.27,9.42c2.63,1.83,5.22,3.92,7.97,5.55,.91,.54,1.95,1.16,2.98,1.45,.79,.14,1.58,.23,2.37,.27,1.8,.32,1.34-.51-1.36-2.5l.6-4.62-.54,.83,3.59-2.76,.24-.09-1.6,11.79c1.14,.19,2.25,.48,3.33,.86,2.2,1.69,3.22,.59,3.08-3.3-.63-.5-6.04,1.1-7,1.25-2.63,.41-5.27,.77-7.92,1.03-2.23,.22-5.58-.23-7.65,.5-2.06-.52-2.47-.1-1.23,1.26-.37-1.16-.71-2.33-1.02-3.51-.62-2.35-1.15-4.74-1.53-7.14s-.6-4.98-.7-7.49c-.05-1.22-.07-2.43-.06-3.65,.44-3.07-.41-2.61-2.56,1.39l-4.62-.6c-1.25-.84-.92-.86-.08,.4,.55,.82,1.22,1.67,1.9,2.38,1.52,1.6,3.42,3.1,5.55,3.74,1.97,.59,3.79,.47,5.61-.57,.79-.45,1.52-.98,2.05-1.73,1.88-2.66,0,.65-1.79-1.19,5.39,5.55,13.87-2.94,8.49-8.49h0Z"/><path class="j" d="M334.09,447.45l-16.9-18.83c-5.17-5.76-13.63,2.75-8.49,8.49l16.9,18.83c5.17,5.76,13.63-2.75,8.49-8.49h0Z"/><path class="j" d="M306.13,420.93c-4.96,.66-11.63,.97-11.86,7.53-.08,2.24,.6,4.29,.46,6.57-.17,2.77-.23,5.19,.28,7.95,.91,4.98,8.76,5.92,10.97,1.43,1.38-2.82,2.4-5.58,2.87-8.68l-8.81,3.59c1.99,1.44,3.8,3.1,5.47,4.9,1.56,1.68,2.76,3.96,4.45,5.47,1.56,1.39,3.75,2.23,5.84,1.54l.26-.08c1.91-.63,3.77-2.11,4.19-4.19l.05-.23c1.53-7.54-10.03-10.76-11.57-3.19l-.05,.23,4.19-4.19-.26,.08,5.84,1.54c-1.97-1.76-3.38-4.41-5.26-6.33-2.16-2.21-4.58-4.12-7.08-5.92-2.91-2.1-8.27-.06-8.81,3.59-.31,2.03-.75,3.97-1.66,5.82l10.97,1.43c-.36-1.97,.18-4.07,.24-6.05,.05-1.74-.5-3.88-.55-5.29l-.82,3.03,.33-.6-3.59,2.76c1.26-.42,2.6-.53,3.94-.71,3.21-.43,6-2.45,6-6,0-2.91-2.76-6.43-6-6h0Z"/><path class="j" d="M318.57,440.08l-.39-.78c-.38-.7-.89-1.26-1.55-1.68-.58-.53-1.26-.89-2.04-1.07-.8-.25-1.6-.29-2.39-.11-.8,.04-1.54,.27-2.23,.71l-1.21,.94c-.74,.75-1.26,1.63-1.54,2.65l-.21,1.6c0,1.08,.28,2.09,.82,3.03l.39,.78c.38,.7,.89,1.26,1.55,1.68,.58,.53,1.26,.89,2.04,1.07,.8,.25,1.6,.29,2.39,.11,.8-.04,1.54-.27,2.23-.71l1.21-.94c.74-.75,1.26-1.63,1.54-2.65l.21-1.6c0-1.08-.28-2.09-.82-3.03h0Z"/><path class="j" d="M308.93,423.13c-1-3.83-.14-7.71-.76-11.65-.51-3.2-4.51-4.98-7.38-4.19-3.41,.94-4.7,4.17-4.19,7.38,.19,1.18-.29,3.43-.24,4.96,.08,2.25,.43,4.51,1,6.69,1.94,7.47,13.52,4.3,11.57-3.19h0Z"/><path class="j" d="M352.9,483.02c6.85,.72,17.9,3.16,22.34-3.64l-3.59,2.76,1.15-.18-4.62-.6c19.13,11.06,42.59,10.33,63.02,18.36l-4.19-7.38-.31,.83,2.76-3.59c-2.38,1.81-12.55-.48-16.28-1.16-5.79-1.05-11.53-2.39-17.33-3.44-12.48-2.26-25.11-3.57-37.72-4.87-7.67-.79-7.62,11.21,0,12,15.32,1.58,30.44,3.53,45.53,6.64,6.79,1.4,13.67,2.72,20.61,3.03,5.99,.26,11.9,.11,14.3-6.25,1.23-3.26-1.41-6.29-4.19-7.38-14.52-5.71-30-7.52-45.08-11.16-3.67-.89-7.64-1.7-11.01-3.46-3.1-1.62-4.95-3.75-8.69-3.14-1.56,.26-2.57,.68-3.8,1.73-1.81,2-1.07,1.84,2.21-.48l-1.89,.04c-4.06-.87-9.06-.22-13.23-.66-7.67-.8-7.62,11.2,0,12h0Z"/><path class="j" d="M556.02,489.84c-3.57,8.01-9.12,14.25-16.81,18.48l8.81,3.59c.64,1.97-.07,1.5,1.56,.69,.88-.44,1.75-1.31,2.54-1.91,1.87-1.43,3.75-2.84,5.33-4.61,3.1-3.47,4.77-7.32,4.99-11.96,.16-3.24-2.87-6-6-6-10.05,0-19.83,2.79-29.8,3.77-10.31,1.02-20.69,1.16-31.04,1.4-10.32,.24-20.63,.48-30.95,.72s-19.55,.55-28.94-2.79v11.57c3.62-1.11,7.4-.3,11.1,.08,4.14,.43,8.29,.76,12.44,1,8.31,.48,16.63,.57,24.95,.34,7.71-.21,7.74-12.21,0-12-8.96,.25-17.92,.12-26.87-.46-8-.52-16.99-2.95-24.81-.54-5.87,1.81-5.51,9.61,0,11.57,9.42,3.35,19.4,3.49,29.28,3.28,10.62-.23,21.24-.49,31.86-.74,10.35-.24,20.72-.36,31.04-1.26s21.09-3.94,31.73-3.95l-6-6c-.43,9.01-17.58,9.88-13.98,20.98,1.21,3.73,5.31,5.52,8.81,3.59,9.32-5.13,16.78-13.05,21.12-22.79,3.11-6.99-7.22-13.11-10.36-6.06h0Z"/><path class="j" d="M490.46,503.82h10.57c3.24,0,6-2.76,6-6s-2.75-6-6-6h-10.57c-3.24,0-6,2.76-6,6s2.75,6,6,6h0Z"/><path class="j" d="M549.37,496.63c-34.1,3.59-68.13,5.76-102.33,2.33-34.15-3.42-67.98-9.94-102.37-10.7-7.73-.17-7.72,11.83,0,12,34.39,.76,68.22,7.28,102.37,10.7,34.2,3.43,68.23,1.26,102.33-2.33,7.6-.8,7.68-12.81,0-12h0Z"/><path class="j" d="M300.74,508.29c6.27,8.74,13.95,15.84,22.48,22.34,8.46,6.45,17,14.6,28.38,12.11,9.61-2.1,17.16-8.71,24.9-14.32,8.56-6.21,18.7-11.48,20.99-22.78,1.53-7.54-10.03-10.76-11.57-3.19-1.71,8.41-11.11,12.34-17.39,17.02-5.69,4.24-11.59,9.49-18.61,11.33-4.88,1.28-7.17-.81-11-3.51-3.25-2.29-6.5-4.58-9.65-7.01-6.75-5.22-13.18-11.07-18.17-18.03-4.46-6.22-14.87-.24-10.36,6.06h0Z"/><path class="j" d="M381.71,502.14c-10.24,7.98-24.19,10.04-32.98,20.14-4.92,5.65-11.59-2.23-14.9-6.14-5.05-5.96-10.57-10.22-18-12.8-6.98-2.42-9.58,7.19-4.62,10.97,5.66,4.32,11.62,8.19,17.94,11.48,5.9,3.08,12.61,6.84,19.42,6.75,3.8-.05,6.94-3.8,5.79-7.6-1.77-5.82-7.22-8.89-11.97-12.19-5.49-3.82-11.19-7.3-17.04-10.53v10.36l.66-.47-4.62,.6c2.77,.65,5.65,2.9,8.09,4.3,3.05,1.74,6.08,3.5,9.23,5.06,6.05,2.99,12.12,4.99,18.85,5.67,3.7,.38,7.05-4.16,5.79-7.6-2.16-5.85-7.16-8.35-12.48-11-6.12-3.04-12.49-5.56-18.84-8.07-7.19-2.85-10.28,8.74-3.19,11.57,10.01,4,20.05,7.88,30.68,9.89,6.4,1.21,10.84-7.41,4.62-10.97-9.52-5.45-20.94-5.81-30.34-11.34l-3.03,11.18c12.61,.85,23.51,8.55,36.37,8.75,6.15,.09,7.9-8.07,3.03-11.18-7.88-5.03-16.67-8.23-25.45-11.3l-3.19,11.57c11.11,2.81,22.3,5.43,33.83,5.28,6.16-.08,7.89-7.95,3.03-11.18-4.23-2.81-9.4-3.53-14.31-4.36-5.61-.95-11.27-1.61-16.95-2.02-7.73-.56-7.62,11.34,0,12,11.65,1.01,23.87,3.21,35.56,2.41,6.55-.45,8.39-9.89,1.6-11.79-8.45-2.35-17-3.9-25.71-4.84-7.67-.83-7.61,11.18,0,12,7.64,.82,15.13,2.35,22.52,4.41l1.6-11.79c-11.69,.8-23.91-1.41-35.56-2.41v12c4.61,.33,9.2,.82,13.76,1.59,3.8,.64,8.18,.98,11.44,3.15l3.03-11.18c-10.49,.14-20.53-2.29-30.64-4.85-7.56-1.91-10.42,9.04-3.19,11.57,7.85,2.75,15.53,5.59,22.58,10.09l3.03-11.18c-12.6-.19-23.73-7.89-36.37-8.75-6.11-.41-7.93,8.3-3.03,11.18,9.48,5.57,20.88,5.92,30.34,11.34l4.62-10.97c-10.63-2.01-20.67-5.9-30.68-9.89l-3.19,11.57c4.27,1.69,8.55,3.38,12.72,5.3,1.91,.88,3.8,1.8,5.66,2.79,.79,.42,4.24,1.72,4.56,2.6l5.79-7.6c-7.23-.74-13.7-4.35-19.9-7.88-4.79-2.72-12.79-9.58-18.36-5.65-3.52,2.48-4.22,8.03,0,10.36s8.44,4.83,12.51,7.48c2.04,1.33,4.04,2.69,6.03,4.1,1.22,.87,4.49,2.44,4.96,3.97l5.79-7.6c-5.5,.08-11.8-4.18-16.49-6.8-5.18-2.9-10.09-6.2-14.81-9.79l-4.62,10.97c8.67,3.01,12.31,10.87,19.11,16.31,5.64,4.52,15.1,7.17,21.73,3.1,2.87-1.77,4.65-4.9,7.31-6.98,2.86-2.23,6.2-3.89,9.45-5.48,6.97-3.4,13.79-6.45,19.95-11.25s-2.46-13.18-8.49-8.49h0Z"/><path class="j" d="M559.03,501.63c8.62,17.18,16.93,33.91,29.58,48.58,2.74,3.17,7.35,1.68,9.42-1.21,5.04-7.04-3.18-13.92-7.52-18.61l-8.49,8.49c1.34,1.44,4.54,4.28,3.3,6.34s-6.74,2.23-8.91,2.57c-7.12,1.11-14.27,1.97-21.44,2.63-14.13,1.3-28.32,1.72-42.5,1.28l1.6,11.79c7.24-1.67,14.64-1.79,22.02-2.35s14.31-1.33,21.43-2.3c7.21-.98,14.42-2.12,21.54-3.6,5.69-1.18,10.86-3.84,11.03-10.33,.05-1.97-1.15-4.3-2.97-5.18-4.99-2.42-10.05-3.66-15.61-3.41l5.79,7.6c1.82-8.47-1.49-15.73-5.05-23.27-3.72-7.85-7.94-15.44-12.47-22.85l-9.42,7.27c10.69,11.01,24.17,25.31,17.34,41.87l10.03-2.65c-2.59-2.56-3.31-7.97-4.42-11.35-1.2-3.67-2.44-7.3-3.95-10.86-3.42-8.03-8.58-14.35-14.63-20.57-4.85-4.99-12.58,1.35-9.42,7.27,3.44,6.45,6.88,12.9,10.04,19.49,2.83,5.89,7.08,12.91,6.63,19.64l11.79-1.6c-4.56-13.69-10.84-26.66-18.91-38.63-3.52-5.22-10.48-2.82-11.18,3.03-.77,6.44,2.64,13.59,4.66,19.58,2.3,6.82,4.79,13.57,7.43,20.26,2.77,7.01,14,4.31,11.57-3.19-4.24-13.09-10.04-25.56-17.43-37.16-3.6-5.65-12.76-2.11-10.97,4.62,3.01,11.27,5.45,22.66,7.33,34.17l11.57-3.19c-3.23-11.14-7.46-21.93-12.57-32.34-2.97-6.06-13.17-1.82-10.97,4.62,3.14,9.2,5.39,18.64,6.45,28.31l11.79-1.6c-3.09-10.31-6.33-20.53-10.97-30.27-2.51-5.26-11.72-2.83-11.18,3.03,.97,10.46,1.84,20.9,1.2,31.41l11.79-1.6c-2.18-9.6-5.12-18.95-8.82-28.08-2.41-5.93-11.73-5.66-11.79,1.6-.07,7.88-.25,15.57-2.76,23.11l11.79,1.6c-.65-8.09,2.56-15.19,7.69-21.32,3.72-4.44,12.91-10.97,6.7-17.36-2.49-2.56-6.36-2.38-9.64-2.45-4.36-.1-8.72,0-13.07,.33-8.62,.64-17.15,2.06-25.53,4.17-6.38,1.61-5.26,12.56,1.6,11.79,9.87-1.11,19.76-2.02,29.67-2.73,7.66-.54,7.72-12.55,0-12-6.75,.48-13.3,1.66-19.74,3.75-3.38,1.1-5.95,5.49-3.59,8.81,3.48,4.9,8.23,4.97,13.8,5.29,3.19,.19,6.38,.39,9.56,.62,2.42,.17,8.62-.46,10.54,.98l-2.76-3.59c.16-1.68,.1-1.86-.16-.54-.21,.87-.43,1.73-.67,2.59-.46,1.73-.97,3.45-1.38,5.2-.72,3.04-1.31,6.25-1.26,9.39,.02,1.14-.15,3.11,.39,4.18-.11,2.13,.53,2.31,1.91,.54,2.14-1.07,2.1-1.5-.11-1.31-2.96-.66-6.91,1.26-9.46,2.54-6.21,3.12-1.81,12.59,4.62,10.97l6.15-1.55-3.19-11.57c-5,1.51-14.49,2.4-15.37,8.92-.39,2.91,1,5.18,3.12,6.99,1.36,1.16,5.83,3.15,6.36,4.99l1.54-5.84c1.71-.66,1.45-.7-.78-.11-.94,.18-1.88,.36-2.82,.52-1.88,.34-3.76,.65-5.65,.95-4.19,.65-8.4,1.15-12.63,1.53-7.91,.71-15.92,1.5-23.54-1.23l-1.6,11.79c13.1-1.6,26.15-3.54,39.14-5.88,7.03-1.26,4.76-11.32-1.6-11.79-10.39-.76-20.63,.69-30.89,2.17l3.19,11.57,10.86-2.35c6.49-1.4,5.18-12.65-1.6-11.79l-8.07,1.03,1.6,11.79,6.31-1.48-3.19-11.57c-2.4,.77-4.76,1.34-7.24,1.73l3.19,11.57c7.79-2.3,15.67-4.19,23.65-5.68,6.58-1.23,5.16-12.37-1.6-11.79l-7.22,.62,3.03,11.18c1.45-.84,2.9-1.64,4.45-2.27,7.1-2.88,4.53-12.98-3.19-11.57l-7.8,1.42,4.62,10.97c3.48-1.99,6.92-3.35,10.8-4.32,2.4-.6,4.59-3.23,4.4-5.79-.41-5.76-.72-11.53-.66-17.31,.03-2.56,.13-5.12,.31-7.68,.12-1.65,.28-3.29,.49-4.93,.13-.96,1.29-3.85-.5-2.49l-8.81-3.59c2.82,11.03,3.41,22.4,1.49,33.64l11.79,1.6c-.18-9.71-.57-19.54-4.08-28.7-2.41-6.27-11.31-5.39-11.79,1.6l-1.75,25.91,11.79-1.6-6.74-28.55c-1.52-6.43-12.56-5.23-11.79,1.6,1.16,10.19,1.28,20.37,.35,30.59h12l-2.85-25.29c-.85-7.5-12.49-7.84-12,0,.51,8.2,.38,16.45-.72,24.6h11.57l-4.94-33.01c-1-6.72-12.02-5.08-11.79,1.6,.38,11.01,.04,21.98-1.02,32.95l11.79-1.6c-2.62-10.81-3.14-21.84-3.58-32.92h-12l2.54,34.9,11.79-1.6c-2.25-12.03-5.07-23.93-8.48-35.68-1.84-6.33-12.09-5.35-11.79,1.6l1.71,38.42,11.79-1.6-6.02-39.98c-1.15-7.62-12.7-4.37-11.57,3.19,1.93,13.01,3.49,26.06,4.71,39.15,.71,7.62,12.72,7.7,12,0-1.32-14.16-3.05-28.27-5.14-42.34l-11.57,3.19,6.02,39.98c1.01,6.69,12.08,5.1,11.79-1.6l-1.71-38.42-11.79,1.6c3.41,11.76,6.23,23.65,8.48,35.68,1.23,6.6,12.28,5.15,11.79-1.6l-2.54-34.9c-.55-7.62-12.32-7.78-12,0,.49,12.13,1.14,24.27,4.01,36.11,1.69,6.99,11.17,4.78,11.79-1.6,1.06-10.96,1.4-21.94,1.02-32.95l-11.79,1.6,4.94,33.01c.85,5.69,10.8,5.77,11.57,0,1.25-9.27,1.73-18.44,1.15-27.79h-12l2.85,25.29c.86,7.63,11.29,7.79,12,0,.93-10.21,.81-20.4-.35-30.59l-11.79,1.6,6.74,28.55c1.62,6.88,11.35,4.89,11.79-1.6l1.75-25.91-11.79,1.6c3.17,8.26,3.49,16.76,3.65,25.51,.12,6.48,10.61,8.5,11.79,1.6,2.29-13.43,1.88-26.8-1.49-40.02-.87-3.41-5.7-5.94-8.81-3.59-5.74,4.33-5.56,12.06-6,18.74-.52,8.01-.16,16.03,.41,24.03l4.4-5.79c-4.81,1.2-9.37,3.07-13.67,5.53-6.2,3.55-1.81,12.14,4.62,10.97l7.8-1.42-3.19-11.57c-2.53,1.03-4.96,2.12-7.32,3.48-4.89,2.82-3.09,11.71,3.03,11.18l7.22-.62-1.6-11.79c-7.98,1.49-15.86,3.39-23.65,5.68-7.57,2.23-4.28,12.75,3.19,11.57,2.49-.39,4.85-.96,7.24-1.73,7.34-2.37,4.36-13.34-3.19-11.57l-6.31,1.48c-6.43,1.5-5.21,12.66,1.6,11.79l8.07-1.03-1.6-11.79-10.86,2.35c-7.71,1.67-4.25,12.64,3.19,11.57,9.21-1.33,18.38-2.42,27.7-1.74l-1.6-11.79c-11.93,2.15-23.91,3.98-35.95,5.45-6.62,.81-8.27,9.39-1.6,11.79,13.75,4.93,30.41,1.69,44.43-.6,5.41-.88,15.06-1.38,14.31-9.18-.27-2.78-2.12-5.17-4.09-7.02-1.03-.98-2.19-1.82-3.34-2.66-.56-.41-1.13-.81-1.7-1.2-1.41-1.21-1.53-1.05-.35,.49l-1.54,5.84c-1.86,.73-1.76,.75,.3,.07l2.44-.74,5.68-1.72c7.38-2.23,4.32-13.46-3.19-11.57l-6.15,1.55,4.62,10.97c3.48-1.75,7.23,.28,10.58-2.02,2.31-1.59,3.63-4.23,3.72-7.03,.12-3.74-1.41-6.91-.81-10.78s2.09-7.5,2.82-11.32c1.59-8.35-5.02-10.05-11.76-10.6-3.82-.31-7.64-.59-11.47-.84-1.91-.13-3.83-.25-5.74-.36-1.28-.07-2.55-.15-3.83-.21-1.09-.27-.96,.02,.39,.86l-3.59,8.81c5.42-1.76,10.87-2.92,16.55-3.32v-12c-9.91,.7-19.8,1.61-29.67,2.73l1.6,11.79c6.74-1.7,13.55-2.98,20.48-3.59,3.1-.27,6.21-.44,9.33-.5,1.87-.03,3.74-.03,5.61,.01l1.87,.06c2.32,.19,2.49,.13,.5-.18l-2.76-3.59,.26,.97,.6-4.62c-1.12,2.58-4.71,5.11-6.54,7.33-2.24,2.72-4.38,5.57-6.05,8.68-3.38,6.32-5.2,13.31-4.63,20.49,.53,6.7,9.58,8.21,11.79,1.6,2.83-8.5,3.12-17.41,3.19-26.3l-11.79,1.6c3.7,9.13,6.64,18.48,8.82,28.08,1.56,6.88,11.39,4.9,11.79-1.6,.64-10.51-.23-20.95-1.2-31.41l-11.18,3.03c4.19,8.78,6.98,18.1,9.76,27.4,1.85,6.19,12.55,5.39,11.79-1.6-1.18-10.76-3.38-21.25-6.88-31.5l-10.97,4.62c4.66,9.5,8.41,19.32,11.36,29.47,2.2,7.57,12.79,4.29,11.57-3.19-1.88-11.51-4.32-22.9-7.33-34.17l-10.97,4.62c6.85,10.75,12.3,22.16,16.23,34.29l11.57-3.19c-2.42-6.11-4.71-12.27-6.83-18.48-1.83-5.34-5.52-12.47-4.83-18.17l-11.18,3.03c7.5,11.12,13.46,23.03,17.7,35.76,2.17,6.51,11.33,5.2,11.79-1.6,.53-7.89-3.49-15.43-6.71-22.4-3.58-7.74-7.59-15.27-11.6-22.79l-9.42,7.27c6.3,6.48,10.89,12.82,13.91,21.38,2.45,6.94,3.69,16.08,9.09,21.4,3.51,3.46,8.36,1.4,10.03-2.65,8.55-20.71-6.88-39.59-20.43-53.54-4.71-4.86-13.01,1.41-9.42,7.27,3.59,5.87,7,11.86,10.1,18.01,2.69,5.34,7.54,12.66,6.21,18.86-.78,3.63,1.69,7.78,5.79,7.6,3.4-.15,6.46,.28,9.56,1.78l-2.97-5.18c.05-2.02,1.62-2.07-1.29-1.43-1.54,.34-3.11,.62-4.66,.91-2.8,.53-5.61,1.02-8.42,1.48-6.03,.98-12.09,1.79-18.17,2.42-11.53,1.2-23.34,1.01-34.67,3.62-6.76,1.56-5.02,11.58,1.6,11.79,19.9,.62,39.76-.55,59.48-3.23,7.89-1.07,18.33-1.25,23.36-8.54,5.28-7.66,.71-15.59-4.8-21.53-5.27-5.67-13.73,2.82-8.49,8.49l3.39,3.66,1.35,1.46c.82,1.26,1.12,.91,.9-1.05l9.42-1.21c-11.93-13.83-19.58-29.96-27.71-46.15-3.46-6.9-13.82-.83-10.36,6.06h0Z"/><path class="j" d="M486.61,564.22c7.05-9.04,6.2-20.8,5.16-31.66-.61-6.34-1.63-12.67-3.88-18.65-2.21-5.9-5.18-8.23-11.47-8.84-27.67-2.72-55.47-4.47-83.19-6.71-7.7-.62-7.66,11.38,0,12,22.18,1.79,44.37,3.58,66.55,5.37,5.22,.42,10.44,.79,15.66,1.26l1.96,.16c-1.13-.38-1.39-.12-.78,.78,.33,1.11,.75,2.2,1.07,3.32,.64,2.24,1.14,4.52,1.52,6.82,.81,4.96,1.04,10.03,1.14,15.04,.09,4.04,.44,9.23-2.21,12.63-4.69,6.02,3.74,14.57,8.49,8.49h0Z"/><path class="j" d="M344.88,544.14c4.37,3.66,9.39,1.97,11.89-2.75,.1-.18,.89-1.53,.36-.65,.52-.46,.55-.52,.09-.17,.32-.22,.65-.43,.99-.63,1.52-.88,1.28-.68,2.94-1.28,3.05-1.09,5.1-4.09,4.19-7.38-.81-2.95-4.32-5.29-7.38-4.19-2.33,.83-4.74,1.7-6.79,3.11-1.04,.72-2.06,1.51-2.9,2.47-.52,.59-1.17,1.43-1.59,2.14l-.27,.51c-.68,1.26-.06,.96,1.86-.88h3.19l-.42-.07,2.65,1.54-.32-.27c-2.48-2.08-6.05-2.43-8.49,0-2.14,2.14-2.5,6.4,0,8.49h0Z"/><path class="j" d="M393.94,502.7l-2.55,1.24c-7.05,3.42-.88,13.36,6.06,10.36,1.96-.85,3.9-1.73,5.83-2.66,5.16-2.48,2.87-11.94-3.03-11.18-4.75,.61-8.93,1.75-13.32,3.66-5.73,2.5-2.47,11.11,3.03,11.18,5.54,.07,10.98-.41,16.45-1.25l-3.19-11.57-19.95,4.24c-5.79,1.23-5.65,10.25,0,11.57,4.99,1.16,9.94-.07,14.91-.84l17.61-2.72c6.66-1.03,5.12-12.18-1.6-11.79-8.74,.52-17.42,1.54-26.06,3.01-6.62,1.13-5.14,12.31,1.6,11.79,10.91-.84,21.8-1.88,32.69-2.94l-1.6-11.79c-12.25,1.81-24.43,4.06-36.52,6.73-2.4,.53-4.59,3.28-4.4,5.79,.76,10.28,13.51,6.17,20.08,5.33l30.2-3.85c7.46-.95,7.82-12.66,0-12-16.29,1.38-32.58,2.85-48.69,5.66-6.94,1.21-4.85,11.48,1.6,11.79,15.86,.75,31.44-2.69,47.22-3.5v-12c-16.17,1.38-33.26,1.44-49.1,5.09-6.45,1.48-5.21,12.6,1.6,11.79l38.96-4.66c7.57-.91,7.66-12.92,0-12l-38.96,4.66,1.6,11.79c7.49-1.73,15.29-2,22.94-2.67,7.66-.67,15.31-1.33,22.97-1.99s7.79-12.4,0-12c-15.78,.81-31.37,4.25-47.22,3.5l1.6,11.79c15.06-2.62,30.28-3.94,45.5-5.23v-12l-22.41,2.85-10.72,1.37-5.85,.74-1.95,.25c-2.5,.08-2.6,.3-.29,.66l2.97,5.18-.04-.53-4.4,5.79c12.1-2.67,24.27-4.92,36.52-6.73,6.63-.98,5.14-12.44-1.6-11.79-10.89,1.05-21.78,2.09-32.69,2.94l1.6,11.79c7.58-1.29,15.19-2.13,22.87-2.58l-1.6-11.79-13.7,2.12c-3.8,.59-8.69,2.32-12.45,1.45v11.57l19.95-4.24c7.68-1.63,4.27-12.72-3.19-11.57-4.4,.68-8.81,.88-13.26,.82l3.03,11.18c2.29-1,4.78-1.7,7.26-2.02l-3.03-11.18c-1.93,.92-3.87,1.81-5.83,2.66l6.06,10.36,2.55-1.24c6.95-3.37,.87-13.72-6.06-10.36h0Z"/><path class="j" d="M422.72,517.54c10.55,3.8,21.83,4.56,32.95,5.02,11.72,.48,23.45,.43,35.17,.38,7.8-.03,7.64-11.47,0-12-18.44-1.29-37.12-3.5-55.62-2.91-7.86,.25-7.56,11.22,0,12,17.69,1.83,35.24,4.58,52.65,8.19l1.6-11.79-19.94-.68c-7.72-.26-7.71,11.74,0,12l19.94,.68c6.66,.23,8.29-10.4,1.6-11.79-18.46-3.83-37.09-6.68-55.84-8.62v12c18.49-.6,37.18,1.62,55.62,2.91v-12c-11.09,.05-22.19,.1-33.27-.31-10.75-.39-21.45-.98-31.66-4.66-7.28-2.62-10.41,8.97-3.19,11.57h0Z"/><path class="j" d="M474.2,526.79c-.82,8.85-1.36,17.72-1.62,26.61-.23,7.82,11.34,7.58,12,0l.52-5.98h-12c.14,2.69,.16,5.36-.03,8.05-.05,.73,.14,3.67-.53,4.19,1.73-1.34-1.93-1.44-2.6-1.49l-17.66-1.2v12c5.3-.44,11.25-.24,16.44-1.45,5.05-1.17,6.07-5.13,7.06-9.72,2.3-10.65,5.41-21.56,4.63-32.54-.55-7.64-12.47-7.74-12,0,.32,5.21-.11,10.27-1.18,15.38-.68,3.25-1.02,9.2-3.07,11.75-1.72,2.15-7.69,.64-10.27,.43l-14.77-1.22v12c5.93,.37,11.09-1.87,16.74-3.24s13.52,1.68,17.66-2.66c3.88-4.07,1.41-10,.66-14.8-1-6.41-1.26-12.91-1.12-19.39h-12c.2,5.14,.41,10.3,.1,15.44-.04,.71-.84,7.98-1.03,7.93,2.83-1.17,2.99-1.71,.49-1.63-.84-.13-1.69-.23-2.53-.31-9.54-1.03-19.28-.45-28.86-.36v12l31.69-1.28c3.84-.15,6.89-3.72,5.79-7.6-2.55-8.95-1.86-18.09-1.13-27.25h-12c.04,5.88-.3,11.74-1.38,17.53-.06,.33-.9,3.69-.78,3.77l2.12-1.13c-.92,.05-1.84,.07-2.76,.06-2.76,0-5.52-.15-8.27-.36-11.21-.83-22.41-1.89-33.61-2.83v12c6.96,.57,13.92,.69,20.9,.52,6.44-.16,13.47,.11,19.82-1.01,6.18-1.1,6.53-5.93,6.48-11.24l-.17-20.89-11.79,1.6c.53,3.12,.88,6.25,1.01,9.41,.08,2.04,.89,7.37-.17,9.23,.21-.37,1.01-.41-.16-.05-1.1,.33-2.75,.08-3.9,.07-2.99-.02-5.97-.18-8.95-.34-5.85-.32-11.71-.65-17.56-.97-5.24-.29-11.59,.26-16.42-2.14l-3.03,11.18c14.04,.14,28.09,.39,42.13,.41,6.13,0,11.34-1.65,12.26-8.49,.86-6.44-.36-13.79-.91-20.23l-11.79,1.6c.56,2.75,.77,5.53,.49,8.34-.06,.63-.04,2.6-.44,3.09-.5,.61-2.35,.3-3.38,.29-5.83-.11-11.65-.26-17.48-.39-10.9-.25-22.73,.76-33.47-1.19l-1.6,11.79c14.09,.13,28.17-.43,42.2-1.77,3.19-.31,6.37-.65,9.55-1.03s7.06-.37,9.44-2.75c3.98-3.98,2.06-12.32,1.5-17.19h-12c.4,3.4-9.26,2.68-11.65,2.84-5.13,.36-10.26,.8-15.4,1.11-10.31,.62-20.65,.73-30.8-1.39l-1.6,11.79c24.55-1.52,49.08-3.41,73.58-5.69,7.75-.72,7.67-11.18,0-12-11.31-1.21-22.65-1.09-34.01-.88l1.6,11.79c4.66-1.75,9.41-3.02,14.37-3.53,7.6-.77,7.71-12.74,0-12s-15.45,1.92-23.06,3.61l3.19,11.57,19-4.82c5.21-1.32,11.87-1.67,14.89-6.65,1.13-1.85,1.04-4.2,0-6.06-2.92-5.25-11.07-6.25-16.47-7.23v11.57l3.09-.96c7.36-2.27,4.22-13.86-3.19-11.57l-3.09,.96c-5.25,1.62-6.15,10.45,0,11.57,1.93,.35,3.84,.74,5.74,1.25,1.08,.29,4.5,2.16,3.56,.46v-6.06l-.6,.98,3.59-2.76c-4.54,1.87-9.75,2.66-14.51,3.87l-15.2,3.85c-7.51,1.9-4.33,13.24,3.19,11.57,6.57-1.46,13.17-2.54,19.87-3.18v-12c-6.06,.62-11.85,1.81-17.56,3.95-6,2.25-5.6,11.92,1.6,11.79,11.36-.2,22.7-.33,34.01,.88v-12c-24.5,2.27-49.02,4.17-73.58,5.69-6.39,.4-8.58,10.32-1.6,11.79,14.46,3.03,28.99,2.24,43.62,1.14,9.89-.74,31.25,.4,29.42-15.27-.89-7.58-12.89-7.67-12,0,.25,2.2,.47,4.39,.58,6.6,.05,.95,.09,1.89,.1,2.84-.15,2.36-.02,2.52,.4,.48l3.59-2.76c-4.02,1.48-8.9,1.4-13.15,1.81-4.78,.46-9.57,.83-14.36,1.11-9.27,.55-18.55,.75-27.84,.66-6.58-.06-8.4,10.55-1.6,11.79,7.59,1.38,15.38,1.14,23.07,1.31l25.25,.57c6.63,.15,15.15,1.62,19.2-5.1,3.67-6.09,2.87-15.07,1.52-21.68-1.33-6.55-12.36-5.18-11.79,1.6,.29,3.43,.53,6.86,.7,10.3,.14,2.9,.96,6.95-.1,9.67l2.76-3.59c-1.88,1.42-8,.28-10.36,.26l-11.49-.11-22.98-.22c-5.72-.06-8.47,8.47-3.03,11.18,7.04,3.5,14.78,3.35,22.47,3.78,8.82,.49,17.67,1.25,26.51,1.31,6.61,.05,13.65-1.13,15.58-8.54,2.04-7.86,.55-17.46-.79-25.31-1.15-6.76-11.84-5.04-11.79,1.6l.11,13.3,.05,5.7,.03,3.8c-.14,2.48,.01,2.53,.45,.16l3.59-2.76c-2.72,.75-6.02,.43-8.84,.57-3.49,.17-6.98,.32-10.47,.4-6.66,.14-13.31,0-19.95-.54-7.7-.63-7.65,11.35,0,12,14.34,1.21,29.32,3.83,43.71,3.16,6.43-.3,9.49-3.44,10.78-9.59,1.56-7.43,2.23-15.03,2.17-22.61-.06-7.82-11.4-7.61-12,0-.81,10.24-1.28,20.46,1.56,30.44l5.79-7.6-31.69,1.28c-7.68,.31-7.76,12.07,0,12,6.16-.06,12.32-.18,18.47-.14,3.15,.02,6.31,.1,9.45,.4,3.02,.29,5.97,1.06,8.91,0,5.52-2,6.06-8.05,6.66-13.09,.81-6.72,.6-13.47,.34-20.22-.29-7.7-11.83-7.75-12,0-.12,5.19,.05,10.37,.61,15.54,.47,4.34,2.45,9.8,1.93,14.01l1.76-4.24-.65,.79,4.24-1.76c-5.19,.61-10.19-.47-15.43,.73-4.87,1.12-9.31,3.33-14.4,3.01-7.75-.48-7.62,11.37,0,12,6.46,.54,12.92,1.1,19.39,1.61,5.53,.43,10.86-.06,14.56-4.66,3.25-4.03,4.21-9.94,5.32-14.85,1.52-6.72,2.43-13.54,2.01-20.44h-12c.56,7.78-1.13,15.16-2.76,22.72l-1.23,5.69-.61,2.84c1.8-.58,1.98-.76,.54-.54-3.31-.69-8.69,.72-12.06,1-7.67,.64-7.76,11.47,0,12l14.88,1.01c3.85,.26,8,1.04,11.63-.59,7.58-3.39,6.65-15.19,6.31-21.97-.4-7.79-11.33-7.64-12,0l-.52,5.98h12c.26-8.89,.8-17.75,1.62-26.61,.71-7.69-11.3-7.64-12,0h0Z"/><path class="j" d="M375.34,522.45c-6.16,2.7-12.57,4.64-19.12,6.11s-8.16,5.19-8.48,11.68c-.35,6.8,3.6,9.34,9.8,10.9,6.34,1.59,12.52,2.58,18.7,4.85,12.9,4.72,26.38,6.37,39.91,8.42,14.23,2.16,28.5,4.03,42.86,5.1v-12c-3.42-.06-7.06,.44-10.23-.96-3.62-1.59-6.97-3.54-10.73-4.87-7.62-2.69-15.64-3.94-23.43-6.02-17.15-4.57-33.82-9.96-51.33-13.19v11.57c3-.95,5.96-1.65,9.09-1.93,7.74-.71,7.69-11.21,0-12-3.49-.36-6.9-.38-10.4-.09-7.57,.65-7.84,12.12,0,12l11.28-.17c7.71-.12,7.74-12.12,0-12l-11.28,.17v12c3.5-.3,6.91-.27,10.4,.09v-12c-4.21,.38-8.24,1.09-12.28,2.36-5.23,1.65-6.17,10.43,0,11.57,18.08,3.34,35.25,9.11,53.01,13.63,7.79,1.98,15.87,3.2,23.37,6.18,3.64,1.44,6.92,3.97,10.72,4.98,3.76,1,7.98,.62,11.82,.69,7.8,.13,7.62-11.43,0-12-18.23-1.36-36.29-4.08-54.34-6.97-8.41-1.35-16.41-2.9-24.43-5.82-3.81-1.39-7.59-2.74-11.57-3.57-3.82-.8-8.73-.8-11.92-3.19l2.97,5.18c-.2-2-.05-4.18,.53-6.12l-2.76,3.59c1.22-.81,4-.91,5.44-1.27,2.04-.51,4.07-1.09,6.08-1.73,4.23-1.34,8.33-3,12.39-4.78,7.06-3.09,.96-13.44-6.06-10.36h0Z"/><g><path d="M289.27,606.36h40.28v4.75h-35.15v25.08h32.97v4.75h-32.97v31.92h-5.13v-66.5Z"/><path d="M338.67,638.28c0-7.98-.09-11.4-.09-12.92h4.65c.1,1.52,.19,4.56,.19,10.64,2.76-7.12,8.84-11.4,16.53-11.78v5.13c-9.88,.67-16.53,7.5-16.53,18.81v24.7h-4.75v-34.58Z"/><path d="M407.16,649.02c0,13.21-7.32,24.99-21.47,24.99-12.83,0-20.8-10.54-20.8-24.89,0-13.59,7.5-24.89,21.28-24.89,12.63,0,21,9.88,21,24.79Zm-37.24,.1c0,11.3,6.08,20.42,16.15,20.42s16.06-8.46,16.06-20.42c0-11.21-5.7-20.43-16.25-20.43s-15.96,9.03-15.96,20.43Z"/><path d="M418.94,637.62c0-4.08,0-8.55-.09-12.26h4.66c.09,1.62,.29,5.7,.19,8.46,2-4.75,6.37-9.59,14.25-9.59,6.65,0,11.88,3.33,13.77,9.41,2.38-4.94,7.12-9.41,15.49-9.41,7.32,0,14.92,4.18,14.92,17.38v31.26h-4.75v-30.69c0-6.37-2.28-13.3-11.12-13.3s-13.39,7.41-13.39,16.62v27.36h-4.66v-30.59c0-6.93-2.09-13.39-10.83-13.39-9.21,0-13.68,8.17-13.68,17.86v26.12h-4.75v-35.25Z"/><path d="M529.71,663.84c0,4.18,.38,7.5,.67,9.03h-4.56c-.38-1.14-.67-3.23-.85-7.32-1.62,3.52-5.79,8.46-15.58,8.46-11.02,0-15.77-7.12-15.77-14.25,0-10.45,8.08-15.2,22.33-15.2h9.03v-4.84c0-4.75-1.42-11.12-12.26-11.12-9.59,0-11.02,5.04-12.06,8.93h-4.75c.57-5.22,3.8-13.3,16.91-13.3,10.83,0,16.91,4.56,16.91,15.01v24.61Zm-4.66-15.2h-9.31c-10.54,0-17.1,2.75-17.1,10.93,0,5.98,4.27,10.07,10.92,10.07,13.58,0,15.49-9.02,15.49-19.29v-1.71Z"/><path d="M581.67,669.63c0,15.2-6.75,23.18-20.52,23.18-12.35,0-17.48-6.93-18.62-14.16h4.84c1.71,6.56,7.12,9.69,13.97,9.69,12.35,0,15.77-7.98,15.77-20.04v-4.94c-2.56,6.17-7.22,9.5-15.87,9.5-11.12,0-19.67-9.03-19.67-23.75,0-15.96,9.12-24.89,20.33-24.89,9.69,0,13.87,4.56,15.2,8.36,.1-2.75,.19-6.08,.29-7.22h4.46c0,1.71-.19,9.22-.19,13.78v30.5Zm-35.06-20.71c0,11.31,5.99,19.48,15.11,19.48,11.88,0,15.49-7.89,15.49-20.24s-3.8-19.48-15.2-19.48-15.39,9.41-15.39,20.24Z"/><path d="M598.3,649.68c.1,12.26,6.27,19.86,15.39,19.86s11.97-5.04,13.68-8.93h4.85c-2,6.27-7.03,13.39-18.72,13.39-14.44,0-20.04-12.44-20.04-24.51,0-13.58,6.75-25.27,20.62-25.27,14.63,0,19.29,12.63,19.29,21.57,0,1.33,0,2.66-.09,3.89h-34.96Zm30.12-4.18c-.1-9.41-5.23-16.82-14.54-16.82-9.79,0-14.25,6.84-15.3,16.82h29.83Z"/></g><g><path d="M651.16,684.49h23.18c12.73,0,19.57,6.75,19.57,16.34,0,7.88-4.75,13.01-10.26,14.54,4.75,1.33,12.63,5.98,12.63,16.43,0,13.3-9.97,19.19-21.56,19.19h-23.56v-66.5Zm21.47,28.6c11.5,0,15.87-4.28,15.87-11.97,0-6.55-4.56-11.88-13.87-11.88h-18.43v23.85h16.43Zm-16.43,33.16h18.71c8.74,0,16.05-4.37,16.05-14.16,0-8.46-5.41-14.25-18.81-14.25h-15.96v28.41Z"/><path d="M709.2,750.99v-70.02h4.75v70.02h-4.75Z"/><path d="M761.45,741.96c0,4.18,.38,7.51,.67,9.03h-4.56c-.38-1.14-.67-3.23-.86-7.32-1.62,3.52-5.79,8.46-15.58,8.46-11.02,0-15.77-7.12-15.77-14.25,0-10.45,8.08-15.2,22.33-15.2h9.03v-4.84c0-4.75-1.43-11.12-12.26-11.12-9.59,0-11.02,5.04-12.06,8.93h-4.75c.57-5.22,3.8-13.3,16.91-13.3,10.83,0,16.91,4.56,16.91,15.01v24.61Zm-4.65-15.2h-9.31c-10.54,0-17.1,2.75-17.1,10.93,0,5.98,4.27,10.07,10.92,10.07,13.59,0,15.49-9.02,15.49-19.29v-1.71Z"/><path d="M777.13,680.97h4.75v9.21h-4.75v-9.21Zm0,22.51h4.75v47.5h-4.75v-47.5Z"/><path d="M797.46,715.46c0-4.18,0-8.17-.1-11.97h4.66c.19,1.52,.29,7.7,.19,9.03,2.09-4.84,5.98-10.17,15.77-10.17,8.46,0,15.96,4.75,15.96,17.86v30.78h-4.75v-30.02c0-8.46-3.52-13.96-11.78-13.96-11.3,0-15.2,9.41-15.2,19.76v24.23h-4.75v-35.53Z"/><path d="M847.33,703.49c7.69,21.76,13.01,36.58,14.82,42.66h.09c1.04-3.52,6.37-17.67,15.58-42.66h5.04l-17.96,47.5h-5.7l-16.91-47.5h5.04Z"/><path d="M892.45,680.97h4.75v9.21h-4.75v-9.21Zm0,22.51h4.75v47.5h-4.75v-47.5Z"/><path d="M912.78,750.99v-70.02h4.75v70.02h-4.75Z"/><path d="M933.11,750.99v-70.02h4.75v70.02h-4.75Z"/><path d="M954.49,727.81c.09,12.26,6.27,19.86,15.39,19.86s11.97-5.04,13.68-8.93h4.84c-2,6.27-7.03,13.39-18.72,13.39-14.44,0-20.04-12.44-20.04-24.51,0-13.58,6.75-25.27,20.62-25.27,14.63,0,19.29,12.63,19.29,21.57,0,1.33,0,2.66-.09,3.89h-34.96Zm30.12-4.18c-.1-9.41-5.22-16.82-14.54-16.82-9.79,0-14.25,6.84-15.29,16.82h29.83Z"/></g></g></svg>