<?xml version="1.0" encoding="UTF-8"?><svg xmlns="http://www.w3.org/2000/svg" viewBox="0 0 293.23 233.75"><defs><style>.d{fill:#b47f00;}.e{fill:#e9b800;}.f{fill:#220017;}.f,.g{font-family:AcademyEngravedLetPlain, Academy Engraved LET;font-size:60.05px;letter-spacing:-.02em;}.g{fill:#2a1700;}</style></defs><g id="a"/><g id="b"><g id="c"><g><g><path class="e" d="M64.16,233.75H0C3.86,168.41,13.72,90.56,0,61.82c15.28-6.88,36.52-7.05,64.16,0,9.09,8.59,1.79,105.01,0,171.93Z"/><path class="d" d="M68.07,228.81H7.4c3.65-61.78,12.97-135.38,0-162.55,14.44-6.5,34.53-6.66,60.66,0,8.59,8.12,1.69,99.28,0,162.55Z"/><path class="e" d="M113.68,230.46H39.49c4.46-75.55,15.86-165.56,0-198.79,17.66-7.95,42.22-8.15,74.19,0,10.51,9.94,2.07,121.42,0,198.79Z"/><path class="d" d="M117.5,226.35H46.07c4.29-72.74,15.27-159.41,0-191.4,17.01-7.66,40.65-7.84,71.43,0,10.12,9.57,2,116.9,0,191.4Z"/><path class="e" d="M229.07,232.1h64.16c-3.86-65.34-13.72-143.19,0-171.93-15.28-6.88-36.52-7.05-64.16,0-9.09,8.59-1.79,105.01,0,171.93Z"/><path class="d" d="M227.18,227.17h60.64c-3.64-61.75-12.96-135.31,0-162.47-14.44-6.5-34.51-6.66-60.64,0-8.59,8.12-1.69,99.23,0,162.47Z"/><path class="e" d="M170.51,228.81h74.19c-4.46-75.55-15.86-165.56,0-198.79-17.66-7.95-42.22-8.15-74.19,0-10.51,9.94-2.07,121.42,0,198.79Z"/><path class="d" d="M168.73,226.35h72.2c-4.34-73.52-15.44-161.12,0-193.46-17.19-7.74-41.09-7.93-72.2,0-10.22,9.67-2.02,118.16,0,193.46Z"/><path class="e" d="M184.49,226.92H102.25c7.5-84.82,10.14-186.36,0-220.35,29.07-8.65,55.84-8.87,82.24,0-7.39,32.42-7.27,145.34,0,220.35Z"/><path class="d" d="M180.87,216.93H105.87c6.84-77.36,9.24-169.96,0-200.95,26.51-7.89,50.92-8.09,75,0-6.74,29.57-6.63,132.55,0,200.95Z"/></g><text class="g" transform="translate(71.47 106.58)"><tspan x="0" y="0">Hôtels</tspan><tspan x="-33.02" y="49.36">Monclair</tspan></text><text class="f" transform="translate(72.29 106.58)"><tspan x="0" y="0">Hôtels</tspan><tspan x="-33.02" y="49.36">Monclair</tspan></text></g></g></g></svg>