<svg xmlns="http://www.w3.org/2000/svg" viewBox="0 0 288.88 192.58"><defs><style>.cls-1{fill:#e7f3fc;stroke:#fff;}.cls-1,.cls-3{stroke-miterlimit:10;}.cls-2{fill:#3f5fac;}.cls-3{fill:none;stroke:#4b63ae;stroke-width:3px;}</style></defs><g id="Calque_2" data-name="Calque 2"><g id="Calque_1-2" data-name="Calque 1"><path class="cls-1" d="M241,139.38c-34.77,43.24-91.13,40.24-105.91,3.79C121.3,109.24,117.34,12.26,154.36,39c43.86,31.65,90-8.92,105.91-3.78C280.19,41.62,269.57,103.8,241,139.38Z"/><path class="cls-1" d="M219.79,42.29c-13.83,5.4-28.56.79-32.9-10.3s3.37-24.47,17.2-29.88,22.78,4,32.9,10.3C254.7,23.42,233.63,36.88,219.79,42.29Z"/><path class="cls-1" d="M107.28,152.14c-11.25,9.7-28.09,25.48-34.45,1.23-3-11.52-5-24.19,6.28-33.89s26.67-10.25,34.45-1.23S118.53,142.44,107.28,152.14Z"/><ellipse class="cls-1" cx="107.07" cy="179.15" rx="14.5" ry="11.63" transform="translate(-91.01 113.4) rotate(-40.77)"/><ellipse class="cls-1" cx="163.6" cy="13.84" rx="14.96" ry="12" transform="translate(30.67 110.2) rotate(-40.77)"/><ellipse class="cls-1" cx="274.6" cy="116.11" rx="14.96" ry="12" transform="translate(-9.18 207.51) rotate(-40.77)"/><path class="cls-2" d="M89.6,50.37V72.25h12.34a3.26,3.26,0,0,1,2.27.72,2.32,2.32,0,0,1,.79,1.8,2.29,2.29,0,0,1-.78,1.8,3.39,3.39,0,0,1-2.28.68H87.24a3.89,3.89,0,0,1-2.86-.88,4,4,0,0,1-.87-2.85V50.37a4,4,0,0,1,.83-2.77,2.77,2.77,0,0,1,2.18-.92,2.9,2.9,0,0,1,2.23.91A4,4,0,0,1,89.6,50.37Z"/><path class="cls-2" d="M122.76,74.61A17.4,17.4,0,0,1,118.83,77a11.06,11.06,0,0,1-4.25.79,8.17,8.17,0,0,1-3.79-.85,6.31,6.31,0,0,1-2.51-2.31,6,6,0,0,1-.88-3.16,5.62,5.62,0,0,1,1.46-3.92,7.27,7.27,0,0,1,4-2.17c.36-.08,1.24-.27,2.65-.55s2.61-.55,3.62-.79,2.09-.53,3.27-.88a5.92,5.92,0,0,0-.89-3.25c-.53-.69-1.62-1-3.27-1a6.92,6.92,0,0,0-3.21.59,5.25,5.25,0,0,0-1.85,1.79c-.51.79-.87,1.31-1.08,1.57a1.82,1.82,0,0,1-1.37.38,2.41,2.41,0,0,1-1.63-.61A2,2,0,0,1,108.4,61a4.73,4.73,0,0,1,1-2.87,7.54,7.54,0,0,1,3.26-2.3,14.76,14.76,0,0,1,5.52-.9,15.63,15.63,0,0,1,5.8.87,5.42,5.42,0,0,1,3,2.76,12.11,12.11,0,0,1,.87,5c0,1.31,0,2.42,0,3.34s0,1.93,0,3a11.27,11.27,0,0,0,.52,3.3,10.16,10.16,0,0,1,.52,2.2,2.07,2.07,0,0,1-.81,1.57,2.72,2.72,0,0,1-1.83.71,2.48,2.48,0,0,1-1.71-.81A12.28,12.28,0,0,1,122.76,74.61Zm-.37-8.1a27.41,27.41,0,0,1-3.58.95c-1.56.34-2.65.58-3.25.74a4.45,4.45,0,0,0-1.72.92A2.36,2.36,0,0,0,113,71a2.83,2.83,0,0,0,1,2.16,3.55,3.55,0,0,0,2.52.9,6.65,6.65,0,0,0,3.07-.73,4.86,4.86,0,0,0,2.06-1.88,8.51,8.51,0,0,0,.76-4.18Z"/><path class="cls-2" d="M136.4,52.4a2.94,2.94,0,0,1-2-.72,2.79,2.79,0,0,1,0-4,2.88,2.88,0,0,1,2-.77,3,3,0,0,1,1.93.7,2.48,2.48,0,0,1,.84,2,2.59,2.59,0,0,1-.82,2A2.83,2.83,0,0,1,136.4,52.4Zm2.77,5.78V74.36a3.66,3.66,0,0,1-.8,2.55,2.67,2.67,0,0,1-2,.86,2.53,2.53,0,0,1-2-.89,3.65,3.65,0,0,1-.77-2.52v-16a3.58,3.58,0,0,1,.77-2.51,2.58,2.58,0,0,1,2-.84,2.69,2.69,0,0,1,2,.84A3.27,3.27,0,0,1,139.17,58.18Z"/><path class="cls-2" d="M145.26,55.49h.61V52.13c0-.9,0-1.61.07-2.12a3.15,3.15,0,0,1,.4-1.32,2.52,2.52,0,0,1,.95-.94,2.67,2.67,0,0,1,1.37-.36,2.8,2.8,0,0,1,1.93.8,2.45,2.45,0,0,1,.73,1.31,12.08,12.08,0,0,1,.15,2.18v3.81h2.05a2.63,2.63,0,0,1,1.82.57A1.87,1.87,0,0,1,156,57.5a1.6,1.6,0,0,1-.89,1.58,5.79,5.79,0,0,1-2.55.45h-1.05v10.3a17.16,17.16,0,0,0,.09,2,2.06,2.06,0,0,0,.5,1.15,1.68,1.68,0,0,0,1.3.44,6.71,6.71,0,0,0,1.33-.18,7.41,7.41,0,0,1,1.31-.17,1.69,1.69,0,0,1,1.22.54,1.86,1.86,0,0,1,.55,1.35,2.26,2.26,0,0,1-1.48,2.07,10,10,0,0,1-4.25.72,7.27,7.27,0,0,1-4-.89,4,4,0,0,1-1.78-2.44,16.48,16.48,0,0,1-.42-4.16V59.53h-.74a2.67,2.67,0,0,1-1.84-.57,1.86,1.86,0,0,1-.64-1.46,1.79,1.79,0,0,1,.67-1.44A2.9,2.9,0,0,1,145.26,55.49Z"/><path class="cls-2" d="M6.09,100.77v21.88H18.44a3.23,3.23,0,0,1,2.26.72,2.32,2.32,0,0,1,.79,1.8,2.29,2.29,0,0,1-.78,1.8,3.33,3.33,0,0,1-2.27.68H3.73a3.9,3.9,0,0,1-2.86-.88A4,4,0,0,1,0,123.92V100.77A4,4,0,0,1,.83,98,2.77,2.77,0,0,1,3,97.08,2.9,2.9,0,0,1,5.24,98,3.94,3.94,0,0,1,6.09,100.77Z"/><path class="cls-2" d="M39.25,125a17.4,17.4,0,0,1-3.93,2.37,11.06,11.06,0,0,1-4.25.79,8.1,8.1,0,0,1-3.78-.85A6.27,6.27,0,0,1,24.77,125a6.07,6.07,0,0,1-.88-3.16,5.67,5.67,0,0,1,1.46-3.92,7.27,7.27,0,0,1,4-2.17c.35-.08,1.23-.27,2.64-.55s2.62-.55,3.62-.79,2.1-.53,3.27-.88a5.84,5.84,0,0,0-.89-3.25c-.53-.69-1.62-1-3.27-1a6.92,6.92,0,0,0-3.21.59,5.25,5.25,0,0,0-1.85,1.79c-.51.79-.87,1.31-1.08,1.57a1.81,1.81,0,0,1-1.37.38,2.41,2.41,0,0,1-1.63-.61,2,2,0,0,1-.68-1.55,4.78,4.78,0,0,1,1-2.87,7.6,7.6,0,0,1,3.26-2.3,14.76,14.76,0,0,1,5.52-.9,15.59,15.59,0,0,1,5.8.87,5.39,5.39,0,0,1,3,2.76,12.11,12.11,0,0,1,.87,5c0,1.31,0,2.42,0,3.34s0,1.93,0,3a11.27,11.27,0,0,0,.52,3.3,10.16,10.16,0,0,1,.52,2.2,2.07,2.07,0,0,1-.81,1.57,2.72,2.72,0,0,1-1.83.71,2.46,2.46,0,0,1-1.7-.81A12.27,12.27,0,0,1,39.25,125Zm-.37-8.1a27.41,27.41,0,0,1-3.58,1c-1.56.34-2.64.58-3.25.74a4.45,4.45,0,0,0-1.72.92,2.36,2.36,0,0,0-.82,1.92,2.83,2.83,0,0,0,1,2.16,3.58,3.58,0,0,0,2.53.9,6.61,6.61,0,0,0,3.06-.73,4.8,4.8,0,0,0,2.06-1.88,8.51,8.51,0,0,0,.76-4.18Z"/><path class="cls-2" d="M64.6,125v-.72a12.17,12.17,0,0,1-2.11,2.13,7.75,7.75,0,0,1-2.42,1.29,9.88,9.88,0,0,1-3,.42,7.78,7.78,0,0,1-3.64-.85A6.18,6.18,0,0,1,50.94,125a10.24,10.24,0,0,1-1-5.13V108.75a3.67,3.67,0,0,1,.75-2.52,2.62,2.62,0,0,1,2-.83,2.65,2.65,0,0,1,2.05.84,3.58,3.58,0,0,1,.78,2.51v9a13.73,13.73,0,0,0,.33,3.27A3.93,3.93,0,0,0,57,123.05a3.38,3.38,0,0,0,2.31.75A4.68,4.68,0,0,0,62,123a4.83,4.83,0,0,0,1.83-2.2,17.82,17.82,0,0,0,.47-5.21v-6.8a3.58,3.58,0,0,1,.78-2.51,2.65,2.65,0,0,1,2-.84,2.6,2.6,0,0,1,2,.83,3.62,3.62,0,0,1,.76,2.52V125a3.46,3.46,0,0,1-.73,2.4,2.42,2.42,0,0,1-1.87.8,2.46,2.46,0,0,1-1.9-.83A3.36,3.36,0,0,1,64.6,125Z"/><path class="cls-2" d="M81,120.09v4.67a3.64,3.64,0,0,1-.8,2.56,2.7,2.7,0,0,1-2,.85,2.55,2.55,0,0,1-2-.87,3.66,3.66,0,0,1-.78-2.54V109.18q0-3.78,2.72-3.78a2.29,2.29,0,0,1,2,.88,4.88,4.88,0,0,1,.68,2.61,9.93,9.93,0,0,1,2.06-2.61,4.32,4.32,0,0,1,2.82-.88,7.32,7.32,0,0,1,3.43.88,2.65,2.65,0,0,1,1.66,2.34,2.21,2.21,0,0,1-.71,1.69,2.17,2.17,0,0,1-1.53.67,7.23,7.23,0,0,1-1.48-.38,7,7,0,0,0-2.09-.38,3.05,3.05,0,0,0-2,.65,4.16,4.16,0,0,0-1.21,1.92,13.69,13.69,0,0,0-.59,3C81,117,81,118.4,81,120.09Z"/><path class="cls-2" d="M108.4,118.16h-11a7.49,7.49,0,0,0,.77,3.36,5.34,5.34,0,0,0,2,2.2,5.28,5.28,0,0,0,2.74.73,6.55,6.55,0,0,0,1.83-.23,5.71,5.71,0,0,0,1.61-.74,11.27,11.27,0,0,0,1.44-1.08c.44-.38,1-.9,1.7-1.56a1.88,1.88,0,0,1,1.23-.36,2,2,0,0,1,1.4.47,1.7,1.7,0,0,1,.53,1.33,3.65,3.65,0,0,1-.59,1.77,7,7,0,0,1-1.8,2,10,10,0,0,1-3,1.55,13,13,0,0,1-4.18.62c-3.59,0-6.39-1-8.38-3.08a11.44,11.44,0,0,1-3-8.35,14,14,0,0,1,.74-4.6,10.1,10.1,0,0,1,2.15-3.64,9.44,9.44,0,0,1,3.49-2.33,12.5,12.5,0,0,1,4.59-.81,10.81,10.81,0,0,1,5.63,1.39,9.07,9.07,0,0,1,3.52,3.57A9.45,9.45,0,0,1,113,114.8c0,1.4-.4,2.32-1.21,2.73A7.51,7.51,0,0,1,108.4,118.16Zm-11-3.18H107.6a6.82,6.82,0,0,0-1.54-4.3,4.65,4.65,0,0,0-3.54-1.42,4.5,4.5,0,0,0-3.44,1.44A7.24,7.24,0,0,0,97.45,115Z"/><path class="cls-2" d="M122.82,108.5v.68a9.73,9.73,0,0,1,3.23-2.86,8.58,8.58,0,0,1,4-.92,8,8,0,0,1,4,1,6.1,6.1,0,0,1,2.6,2.72,6.58,6.58,0,0,1,.72,2.22,22.59,22.59,0,0,1,.17,3v10.42a3.71,3.71,0,0,1-.77,2.54,2.75,2.75,0,0,1-4,0,3.66,3.66,0,0,1-.78-2.52v-9.33a9.33,9.33,0,0,0-.77-4.23,3.13,3.13,0,0,0-3.07-1.47,4.59,4.59,0,0,0-2.73.89,5.12,5.12,0,0,0-1.8,2.45,17.78,17.78,0,0,0-.41,4.68v7a3.63,3.63,0,0,1-.79,2.56,2.69,2.69,0,0,1-2,.85,2.53,2.53,0,0,1-2-.89,3.66,3.66,0,0,1-.78-2.52V108.58a3.52,3.52,0,0,1,.7-2.39,2.43,2.43,0,0,1,1.91-.79,2.62,2.62,0,0,1,1.33.35,2.44,2.44,0,0,1,.95,1A3.65,3.65,0,0,1,122.82,108.5Z"/><path class="cls-2" d="M143.41,105.9H144v-3.37c0-.9,0-1.61.07-2.12a3.15,3.15,0,0,1,.4-1.32,2.49,2.49,0,0,1,.94-.94,2.68,2.68,0,0,1,1.38-.36,2.76,2.76,0,0,1,1.92.8,2.33,2.33,0,0,1,.73,1.31,12.08,12.08,0,0,1,.15,2.18v3.82h2.06a2.6,2.6,0,0,1,1.81.56,1.86,1.86,0,0,1,.63,1.45,1.6,1.6,0,0,1-.9,1.57,5.75,5.75,0,0,1-2.55.46h-1v10.29a16.75,16.75,0,0,0,.1,2,2,2,0,0,0,.49,1.15,1.7,1.7,0,0,0,1.3.44,7.37,7.37,0,0,0,1.33-.17,6.81,6.81,0,0,1,1.32-.18,1.71,1.71,0,0,1,1.22.54,1.85,1.85,0,0,1,.54,1.35,2.25,2.25,0,0,1-1.48,2.07,9.93,9.93,0,0,1-4.24.72,7.31,7.31,0,0,1-4-.89,4.07,4.07,0,0,1-1.77-2.44,16.53,16.53,0,0,1-.42-4.16V109.94h-.74a2.7,2.7,0,0,1-1.85-.58,1.88,1.88,0,0,1-.63-1.45,1.83,1.83,0,0,1,.66-1.45A2.92,2.92,0,0,1,143.41,105.9Z"/><path class="cls-2" d="M160.8,102.8a3,3,0,0,1-2-.72,2.54,2.54,0,0,1-.83-2,2.52,2.52,0,0,1,.85-2,2.88,2.88,0,0,1,2-.77,3,3,0,0,1,1.93.7,2.49,2.49,0,0,1,.84,2,2.54,2.54,0,0,1-.82,2A2.83,2.83,0,0,1,160.8,102.8Zm2.77,5.78v16.18a3.62,3.62,0,0,1-.8,2.54,2.63,2.63,0,0,1-2,.87,2.53,2.53,0,0,1-2-.89,3.7,3.7,0,0,1-.77-2.52v-16a3.62,3.62,0,0,1,.77-2.51,2.58,2.58,0,0,1,2-.84,2.68,2.68,0,0,1,2,.84A3.27,3.27,0,0,1,163.57,108.58Z"/><path class="cls-2" d="M184.69,125v-.56a14.33,14.33,0,0,1-2.22,2.11,8.42,8.42,0,0,1-2.38,1.23,9,9,0,0,1-2.8.42,8.33,8.33,0,0,1-3.72-.85,8.85,8.85,0,0,1-3-2.43,11.26,11.26,0,0,1-1.89-3.72,15.85,15.85,0,0,1-.65-4.61c0-3.5.86-6.23,2.56-8.18a8.52,8.52,0,0,1,6.75-2.94,9.07,9.07,0,0,1,4.08.83,11.42,11.42,0,0,1,3.24,2.56v-8.27a4.16,4.16,0,0,1,.69-2.6,2.33,2.33,0,0,1,2-.88,2.43,2.43,0,0,1,2,.81,3.64,3.64,0,0,1,.68,2.39V125a3.46,3.46,0,0,1-.73,2.4,2.51,2.51,0,0,1-1.91.8,2.46,2.46,0,0,1-1.9-.83A3.44,3.44,0,0,1,184.69,125Zm-11-8.23a9.6,9.6,0,0,0,.71,3.88,5.38,5.38,0,0,0,1.94,2.41,4.77,4.77,0,0,0,2.68.81,5,5,0,0,0,2.7-.77,5.33,5.33,0,0,0,1.95-2.36,9.61,9.61,0,0,0,.73-4,9.33,9.33,0,0,0-.73-3.84,5.83,5.83,0,0,0-2-2.46,4.69,4.69,0,0,0-2.72-.85,4.61,4.61,0,0,0-2.75.87,5.57,5.57,0,0,0-1.87,2.5A9.85,9.85,0,0,0,173.68,116.74Z"/><path class="cls-2" d="M211.23,118.16H200.28a7.36,7.36,0,0,0,.77,3.36,5.34,5.34,0,0,0,2,2.2,5.25,5.25,0,0,0,2.74.73,6.55,6.55,0,0,0,1.83-.23,5.84,5.84,0,0,0,1.61-.74,11.27,11.27,0,0,0,1.44-1.08c.43-.38,1-.9,1.7-1.56a1.88,1.88,0,0,1,1.23-.36A2,2,0,0,1,215,121a1.67,1.67,0,0,1,.54,1.33,3.57,3.57,0,0,1-.6,1.77,6.85,6.85,0,0,1-1.79,2,10.07,10.07,0,0,1-3,1.55,13,13,0,0,1-4.17.62c-3.6,0-6.39-1-8.39-3.08a11.48,11.48,0,0,1-3-8.35,13.7,13.7,0,0,1,.74-4.6,10.1,10.1,0,0,1,2.15-3.64,9.28,9.28,0,0,1,3.49-2.33,12.5,12.5,0,0,1,4.59-.81,10.83,10.83,0,0,1,5.63,1.39,9.14,9.14,0,0,1,3.52,3.57,9.44,9.44,0,0,1,1.16,4.48c0,1.4-.4,2.32-1.21,2.73A7.46,7.46,0,0,1,211.23,118.16ZM200.28,115h10.15a6.82,6.82,0,0,0-1.55-4.3,4.62,4.62,0,0,0-3.54-1.42,4.48,4.48,0,0,0-3.43,1.44A7.18,7.18,0,0,0,200.28,115Z"/><path class="cls-2" d="M238.59,120.84a6.52,6.52,0,0,1-4.46,6.48,15.12,15.12,0,0,1-5.37.85,12.93,12.93,0,0,1-5.16-.93,7.45,7.45,0,0,1-3.18-2.3,4.63,4.63,0,0,1-1-2.78,2.15,2.15,0,0,1,.66-1.58,2.25,2.25,0,0,1,1.66-.66,2,2,0,0,1,1.35.43,4.71,4.71,0,0,1,.91,1.21A6.08,6.08,0,0,0,226,123.8a6.23,6.23,0,0,0,3.27.74,4.73,4.73,0,0,0,2.76-.75,2.12,2.12,0,0,0,1.07-1.71,2.34,2.34,0,0,0-1.11-2.16,14,14,0,0,0-3.69-1.29,30.42,30.42,0,0,1-4.7-1.51,7.65,7.65,0,0,1-2.9-2.08,4.74,4.74,0,0,1-1.09-3.18,5.61,5.61,0,0,1,1-3.18,6.9,6.9,0,0,1,3-2.38,11.23,11.23,0,0,1,4.72-.9,15.62,15.62,0,0,1,3.91.45,10.06,10.06,0,0,1,2.89,1.21,6.13,6.13,0,0,1,1.77,1.69,3.28,3.28,0,0,1,.6,1.8,2.09,2.09,0,0,1-.64,1.58,2.59,2.59,0,0,1-1.84.61,2.27,2.27,0,0,1-1.47-.49,10.19,10.19,0,0,1-1.38-1.47,5,5,0,0,0-1.5-1.32,4.79,4.79,0,0,0-2.34-.49,4.58,4.58,0,0,0-2.52.65,1.87,1.87,0,0,0-1,1.61,1.72,1.72,0,0,0,.73,1.44,6.25,6.25,0,0,0,2,.94q1.26.36,3.45.9a18,18,0,0,1,4.25,1.52,7,7,0,0,1,2.51,2.08A4.65,4.65,0,0,1,238.59,120.84Z"/><line class="cls-3" x1="69.37" y1="139.02" x2="163.6" y2="139.02"/></g></g></svg>