<svg xmlns="http://www.w3.org/2000/svg" viewBox="0 0 254.1 166.39"><defs><style>.cls-1{font-size:72px;font-family:AmaticSC-Regular, Amatic SC;}.cls-1,.cls-2{fill:#1d1d1b;}.cls-3,.cls-4{fill:#fff;}.cls-4{stroke:#fff;stroke-miterlimit:10;}</style></defs><g id="Calque_2" data-name="Calque 2"><g id="Calque_1-2" data-name="Calque 1"><text class="cls-1" transform="translate(0 63.14)">Le Lait <tspan x="0" y="86.4">BÉLANGER</tspan></text><path class="cls-2" d="M191.14,9s-8.06,122.19,0,131.59c.67.67,6.38,10.07,6.38,10.07h48.67l4-10.75s8.72-77.87,0-130.91C250.22,10.39,206.58,9,191.14,9Z"/><path class="cls-3" d="M193.61,85.09q.18,13.26,1,26.5.42,6.55,1,13.1c.36,4.11.7,8.35,2.27,12.21a6.46,6.46,0,0,0,3.81,4.08c2,.66,4.42.34,6.47.34l13.24,0,13.49,0c4,0,7.94-.06,10.5-3.55a11.64,11.64,0,0,0,1.88-4.64,13.29,13.29,0,0,0,.38-5.39c-.92-4-7.05-4.71-10.4-4.45a18,18,0,0,0-5.8,1.48,8.61,8.61,0,0,0-1,.4c-.3.19-.22,0,.13.28s.05.37.18,0c0,0,.11-.54.17-.72a25.58,25.58,0,0,1,2.65-4.4,14.78,14.78,0,0,0,2.13-4.76c.7-3.46-.24-7.44-3.69-9.06s-7.47-.07-10.45,2.06a19.8,19.8,0,0,1-4.48,2.83,9.86,9.86,0,0,1-5.44.07A34.93,34.93,0,0,1,206.2,110a5,5,0,0,1-3-3,82.4,82.4,0,0,1-3.44-11.85c-.48-2-1-4-1.33-6.09a11.06,11.06,0,0,1,0-1.59c0-.15,0-.22.09-.51,0-.14.09-.27.12-.41-.06.29,0-.28,0-.09,0-.1.23,0-.07,0s0,0,0,0c-.1.24-.33-.51-.06.08a3.52,3.52,0,0,1,.26.44,12.82,12.82,0,0,1,.74,4.57l1.08,13,.55,6.62c.26,3.16,5,3.26,5,0A61.62,61.62,0,0,0,202,88.71a2.61,2.61,0,0,0-2.41-1.84,2.53,2.53,0,0,0-2.42,1.84,55.73,55.73,0,0,0-.81,11.46,13,13,0,0,0,1,5.41,6.63,6.63,0,0,0,3.58,3.09c3,1.2,6.58.8,9.73.81l5.7,0c.67,0,1.66,0,2.11,0,.23,0,.42.15.52.13s.17.09,0,0c-.24-1-.37-1.23-.4-.65l1.24-2.15c-2.73,1.22-6.29-.15-9.05-.84-3.67-.92-7.3-1.4-10.83.27-1.91.9-1.44,4.15.6,4.57a43.82,43.82,0,0,0,12.67.76,44.57,44.57,0,0,0,6.39-1.05c2-.48,3.94-1.16,5.95-1.58,2.39-.51,6.17-.54,7.41,2.1.73,1.55-.37,3.68-.47,5.3a6.47,6.47,0,0,0,1.58,4.81,4.89,4.89,0,0,0,3.17,1.46,10.56,10.56,0,0,1,2.7.13,3.25,3.25,0,0,1,2.14,3l3.77-2.16A17.3,17.3,0,0,0,229,123.1l3.76,2.16a1.69,1.69,0,0,1,.82-1.68l-4.27-1.76a4.12,4.12,0,0,1-1.47,2.63c-2.38,2.18,1.16,5.71,3.53,3.54a9.34,9.34,0,0,0,2.94-6.17,2.47,2.47,0,0,0-1.53-2.29,2.61,2.61,0,0,0-2.74.52,6.22,6.22,0,0,0-2.28,5.21,2.53,2.53,0,0,0,3.76,2.16,12.17,12.17,0,0,1,11.77.52,2.51,2.51,0,0,0,3.76-2.15,8.29,8.29,0,0,0-7.33-8.11,11.27,11.27,0,0,1-2.21,0c.18.13-.08-.66-.07-1,.08-2.17,1-4.08.5-6.31-.87-3.81-4.73-6.16-8.39-6.6-4.42-.53-8.64,1.46-12.9,2.31a37.48,37.48,0,0,1-14.81-.07l.59,4.57c2.76-1.3,6.35.1,9.18.8a25.64,25.64,0,0,0,5.5.88c1.72,0,4.41-.2,5.7-1.5,1.82-1.82.27-4.63-1.63-5.56s-4.44-.71-6.63-.72l-7.69,0c-1.45,0-3.4.15-4.64-.66a2.06,2.06,0,0,1-.8-1.62,29.93,29.93,0,0,1-.16-3.9A48.43,48.43,0,0,1,202,90h-4.83a57.68,57.68,0,0,1,4,21h5l-1.08-13-.55-6.62a23.87,23.87,0,0,0-.75-5.46,7,7,0,0,0-2.84-4,4.87,4.87,0,0,0-4.83,0c-2.89,1.71-3,5.65-2.44,8.56a125.72,125.72,0,0,0,3,12.25c1.09,3.74,2,8.1,5.36,10.5a17.41,17.41,0,0,0,5.22,2.18,30.06,30.06,0,0,0,6.15,1.3,12.49,12.49,0,0,0,5.77-.85,25.36,25.36,0,0,0,4.91-3c1.46-1,5.51-3.67,6.64-.94s-1.65,6-3.06,8.32c-1.71,2.75-3.36,7.42.4,9.4,2.09,1.1,4,.18,5.94-.6a12.05,12.05,0,0,1,5-.83,11.07,11.07,0,0,1,2.49.41c.38.11.76.28,1.15.37.12,0,.21.15.33.16-.2,0,0-.69-.14-.21a11.66,11.66,0,0,0-.22,2.1,16,16,0,0,1-.58,2.46,3.61,3.61,0,0,1-2.26,2.47c-1.75.56-3.8.3-5.6.3l-26.72,0c-1.07,0-2.14,0-3.21,0-.69,0-1,.05-1.37-.54a15.16,15.16,0,0,1-1.53-5.13A118.48,118.48,0,0,1,200.07,118q-1-13.09-1.33-26.24c-.05-2.23-.1-4.46-.13-6.69,0-3.21-5-3.22-5,0Z"/><path class="cls-3" d="M196.89,108l1.43,13.18.69,6.34c.22,2,.26,4.08,1.18,5.88a6.17,6.17,0,0,0,4.54,3.05,43.11,43.11,0,0,0,6.61.72c4.34.17,8.69,0,13,0l6.73,0a54.11,54.11,0,0,0,5.84-.09c3.33-.36,7.62-2.41,6.74-6.53-1.08-5.06-7.08-2.38-10.32-1.73a51.66,51.66,0,0,1-12.47.91,30.44,30.44,0,0,1-6.6-.77,5.85,5.85,0,0,1-2.11-1.38,12.26,12.26,0,0,0-3.19-1.71c-3.11-1.31-4.29-4.94-5.29-7.89-.73-2.15-4.31-2.59-4.82,0a21.46,21.46,0,0,0,1,12.08,2.5,2.5,0,0,0,4.91-.66,61.76,61.76,0,0,0-1.9-16.3c-.81-3.14-5.46-1.8-4.83,1.33a57.74,57.74,0,0,0,7.9,19.47,2.52,2.52,0,0,0,4.66-1.26,41.75,41.75,0,0,0-2-15.73c-.85-2.56-5.05-2.28-4.91.66.22,5,.59,10.05,3.22,14.39a2.52,2.52,0,0,0,4.66-1.26,30.06,30.06,0,0,0-3.78-15,2.53,2.53,0,0,0-4.57.59,13.32,13.32,0,0,0-.4,6,2.45,2.45,0,0,0,2.74,1.79,2.5,2.5,0,0,0,2.17-2.45A24.11,24.11,0,0,0,206,113.2c-.9-2.24-4-2.49-4.82,0a14.64,14.64,0,0,0-.21,8.27c.52,2,3.6,2.55,4.57.6l4.1-8.25-4.57-.6q3.63,9.36,7.08,18.79a2.59,2.59,0,0,0,2.41,1.84A2.51,2.51,0,0,0,217,132a41.1,41.1,0,0,0,.54-10.62,2.56,2.56,0,0,0-2.5-2.5,2.53,2.53,0,0,0-2.5,2.5,11.12,11.12,0,0,0,.75,4.11,2.56,2.56,0,0,0,3.07,1.74,2.53,2.53,0,0,0,1.75-3.07q-1.25-4.9-2.93-9.67c-1-2.78-4.55-2.08-4.91.67A18.48,18.48,0,0,0,212,125.39c1.11,2.42,4.54,1,4.66-1.26l.63-11.73-4.91.67,5,17.65c.65,2.28,4.27,2.48,4.82,0l2.09-9.49h-4.82q1.14,6.92,2.93,13.7c.72,2.76,4.86,2.15,4.91-.66a72.45,72.45,0,0,0-2-18c-.62-2.58-4-2.16-4.82,0a20.52,20.52,0,0,0-1.13,9.85,2.58,2.58,0,0,0,2.5,2.5,2.53,2.53,0,0,0,2.5-2.5l0-13.09-4.91.66a155.35,155.35,0,0,0,4.79,15.08,2.59,2.59,0,0,0,2.41,1.84,2.52,2.52,0,0,0,2.41-1.84,34.58,34.58,0,0,0,.43-10.5c-.37-3.07-.86-6.78-3-9.16s-6.14-2.68-8.08,0c-1,1.38-1.07,3-1.24,4.69l-.54,5.3c-.29,2.79,4.34,3.41,4.91.66A56.24,56.24,0,0,1,224.5,109h-4.32a76.88,76.88,0,0,1,5.32,14.73c.51,2,3.59,2.53,4.57.6a15.8,15.8,0,0,0,1.48-9.84c-.45-2.83-4.92-2.09-4.91.67l0,5.17c0,3.22,5,3.23,5,0,0-4.29.38-8.67-.42-12.9a2.53,2.53,0,0,0-3.08-1.75,4.76,4.76,0,0,0-3.51,5,2.57,2.57,0,0,0,2.5,2.5,2.52,2.52,0,0,0,2.5-2.5c-.07-.59,0-.2-.16-.15l-3.07-1.74a26.78,26.78,0,0,1,.23,5.73c-.05,2,0,3.9,0,5.84h5l0-5.17-4.91.66a9.89,9.89,0,0,1-1,6l4.57.6a83,83,0,0,0-5.82-15.93c-.77-1.57-3.6-1.69-4.32,0a63,63,0,0,0-3.45,12l4.91.67c.23-2.23.59-4.5.72-6.73,0-.9.29-.14-.06-.2s.27.13.24.07c.1.17.46.42.58.62a4.42,4.42,0,0,1,.43,1,27.78,27.78,0,0,1,.73,13.58h4.82a155.35,155.35,0,0,1-4.79-15.08c-.71-2.73-4.9-2.16-4.91.67l0,13.09h5a17.29,17.29,0,0,1,.95-8.52H220.5a67.05,67.05,0,0,1,1.8,16.64l4.91-.67q-1.77-6.78-2.93-13.7c-.41-2.45-4.31-2.32-4.82,0l-2.09,9.49h4.82l-5-17.65c-.79-2.78-4.76-2.12-4.91.66l-.63,11.73,4.66-1.26a13.93,13.93,0,0,1-1-7.7l-4.91.66q1.69,4.77,2.93,9.67l4.82-1.33a7.24,7.24,0,0,1-.57-2.78h-5a36.14,36.14,0,0,1-.36,9.29H217q-3.45-9.42-7.08-18.79c-.7-1.82-3.52-2.7-4.57-.6l-4.1,8.25,4.57.6a9.67,9.67,0,0,1,.21-5.61h-4.82a20.19,20.19,0,0,1,1.5,7.19l4.91-.67a7.68,7.68,0,0,1,.4-3.39l-4.57.6a24.79,24.79,0,0,1,3.1,12.44l4.66-1.27c-2.16-3.57-2.36-7.79-2.54-11.86l-4.91.67a37.82,37.82,0,0,1,1.85,14.4l4.66-1.26a53.57,53.57,0,0,1-7.39-18.28L198,114.43a55.54,55.54,0,0,1,1.73,15l4.91-.67a16.78,16.78,0,0,1-1-9.42h-4.82c1,3,2.17,6,4.31,8.45a10.23,10.23,0,0,0,3.26,2.43,13.07,13.07,0,0,1,2.38,1.08c.76.55,1.4,1.26,2.22,1.74a14,14,0,0,0,5.37,1.34,56.31,56.31,0,0,0,5.64.42,58,58,0,0,0,11.47-.91c1.86-.33,3.68-.8,5.51-1.28a4.86,4.86,0,0,1,.69-.16l-.93-.86c0-.46,0-.48-.07-.07-.15,0,.66-.58-.13.06.25-.2-.63.29-.44.22a9,9,0,0,1-3.31.4h-6.49l-12,0c-3.55,0-7.59.3-11-.76-.58-.18-.74-.26-.91-.84a15.31,15.31,0,0,1-.37-2.62l-.69-6.34L201.89,108a2.58,2.58,0,0,0-2.5-2.5,2.51,2.51,0,0,0-2.5,2.5Z"/><path class="cls-3" d="M199.59,102.19A215.26,215.26,0,0,1,218,116.8a2.55,2.55,0,0,0,3.54,0,2.52,2.52,0,0,0,0-3.53,228.3,228.3,0,0,0-19.4-15.4,2.52,2.52,0,0,0-3.42.9,2.56,2.56,0,0,0,.9,3.42Z"/><path class="cls-3" d="M199.36,98.58A33.2,33.2,0,0,0,219,113.8a2.5,2.5,0,1,0,1.33-4.82,28.08,28.08,0,0,1-16.67-12.92,2.5,2.5,0,1,0-4.31,2.52Z"/><path class="cls-4" d="M197.7,28.52s13.6-4.92,18.3,5.89C215.48,34.79,204.49,44.57,197.7,28.52Z"/><path class="cls-4" d="M216,34.41a65.83,65.83,0,0,1,7.83,3.3l-3.92,4.38Z"/><path class="cls-4" d="M227.66,37.71s9.42,12.74,19.79,15.34c0-.53,0,15.65,0,15.65S214.33,64,211.87,76l-6.52,21.32s-7.64-.78-10.56-12.08c0-1.41-6.78-46.51,25.05-50.83"/><path class="cls-3" d="M202.07,78.55,202,89.12a65.32,65.32,0,0,0,.48,10.37c.9,5.9,4.09,11.35,9.78,13.65a2.53,2.53,0,0,0,3.08-1.75,2.57,2.57,0,0,0-1.75-3.08c-4.36-1.76-6-7.1-6.43-11.35-.54-6.08-.13-12.31-.1-18.41,0-3.22-5-3.22-5,0Z"/><path class="cls-3" d="M210.76,34.8A57.76,57.76,0,0,1,227.2,45a2.56,2.56,0,0,0,3.53,0,2.53,2.53,0,0,0,0-3.54A64.09,64.09,0,0,0,212.09,30,2.52,2.52,0,0,0,209,31.72a2.57,2.57,0,0,0,1.74,3.08Z"/></g></g></svg>