<?xml version="1.0" encoding="UTF-8"?><svg xmlns="http://www.w3.org/2000/svg" viewBox="0 0 137.86 128.95"><defs><style>.d{fill:#c7b299;}</style></defs><g id="a"/><g id="b"><g id="c"><g><path class="d" d="M11.72,81.2l.99,.39-.49,.5s.86,1.23,1.91,1.4c1.04,.18,1.42,.1,1.42,.1l-.88,.72c.89,.38,3.21,.81,5.32,.56,3.31-.42,3.5-2.34,3.38-1.58-.37,2.29,.48,3.74,3.22,3.74,2.04,0,13.48-.56,15.13-.2,1.64,.35,2.07-1.11,3.9-.94,1.83,.16,5.14,.35,6.72-.05,2.46-.62,1.09-2.38,.67-2.72-.41-.34-.83-.61-.95-1.15-.16-.56-5.82-.4-6.42-.8-.61-.41-2.94-.04-5.89-1.61,1.71-1.57,2.86-2.31,4.57-2.31,.89,0,4.48-.57,8.22-1.31,.25,.16,.62,.33,.68,.47,.07,.19,.1-.57,.17-.38,.17,.42,.32,.84,.5,1.12,.07,.12,.14-.4,.21-.28,2,3.18,4.32,5.79,4.9,8.18,.76,3.04,5.9,2.16,7.32,2.09,1.43-.07,2.1,.2,3.05,.2s1.42-.06,1.23-1.15c0-.05-.02-.09-.03-.14,2.01,.74,1.25,.66,2.57,.6,1.43-.07,2.71,.21,3.67,.21s1.44-.07,1.24-1.16c-.21-1.08-.61-2.21-2.26-2.04-.96-.42-.44-.4-2.1-.31-.47,.03-.63,.07-1.49,.04-1.5-.06-3.8-2.06-4.25-6.2-.41-3.74-.07-5.16,.25-6.49,.14-.63,1.52-2.81,1.52-2.81,0,0,0-.11,.14-.52,.14-.41,1.02-2.38,1.02-2.38,0,0-.21,.82,.13,.28,.33-.54,.67-1.95,.67-1.95l.23,.27c.23-.62,.63-2.33,.63-2.33l.21,.27c.13-.71,.37-.97,.26-1.94,.04-.99-.1,.15-.1-1.01,0-.8,.11-1.41,.49-1.76,1.75-.33,3.68-1.01,4.97-1.61,1.02-.47,1.4-1.89,1.4-1.89,.46-.07,1.06-1.15,1.06-1.94s-.42-.68-.42-.68c0,0-.21,.2-.21-.79,0-.79-1.66-2.79-3.65-5.49-.49-.64-.58-1.07-1.13-1.71-1.21-1.36-2.89-2.41-4.78-2.95-.46-2.12,.76-5.93,.76-9.44,0-3,.92-11.86-.48-14.98-1.5-3.33-1.48-8.24-3.38-9.03-2.43-1-4.46,5.54-4.54,9.2-.1,3.65,1.24,12.76,1.79,15.46,.54,2.7,1.74,7.98,1.54,7.22-.19-.77-2.34-4.5-3.19-6.73-.86-2.24-1.39-7.69-4.52-16.11-1.72-4.56-4.95-8.38-6.07-8.44-3.37-.19-2.5,3.21-3.37,8.84-.61,4.03,1.64,10.39,3.36,14.32,3.49,8.12,6.98,8.28,8.6,11.97-1.44,1.48-1.98,3.54-1.78,5.66-.61,.37-1.33,.71-2.33,.94-.71,.4-3.92,.05-6.74-1.01-2.96-1.15-11.91-2.42-18.39-.47-4.27,1.31-10,4.15-13.17,8.43-3.16,4.3-7.65,11.88-2.68,20.79-.2,2.08-1.97,.13-3.92,3.36l1.23-.27c-.22,.85-1.63,1.76-1.63,1.76Zm49.72-6.83c2.17,2.69,2.91,9.67,4.54,9.19,.02,.07,.06,.13,.08,.2-.17,.07-.4,.13-.7,.11-.62-.03-4.7-3.15-3.92-9.51Z"/><g><path d="M16.05,34.74H0V8.43H2.62v24.28h13.43v2.03Z"/><path d="M21.23,34.74h-2.62V8.43h2.62v26.31Z"/><path d="M44.28,34.74H26.67V8.43h17.42v2.01h-14.79v9.24h12.87v2.07h-12.87v10.96h14.99v2.03ZM30.7,0h3.5l3.69,5.74h-1.69L30.7,0Z"/></g><g><path d="M95.21,14.97c0,1.8-.46,3.26-1.39,4.38-.93,1.12-2.36,1.94-4.29,2.45l6.11,12.49h-2.8l-5.96-12.1h-8.21v12.1h-2.61V7.98h9.51c3.42,0,5.88,.57,7.39,1.7,1.51,1.13,2.27,2.9,2.27,5.29Zm-16.55-5.05v10.24h6.31c.86,0,1.62-.03,2.27-.09,.66-.06,1.33-.2,2.03-.41,.7-.22,1.27-.5,1.73-.86,.45-.36,.82-.86,1.11-1.5,.29-.64,.43-1.4,.43-2.29s-.13-1.69-.41-2.33c-.28-.64-.62-1.14-1.03-1.49-.41-.35-.96-.63-1.63-.83-.68-.2-1.31-.32-1.9-.37-.59-.05-1.31-.07-2.16-.07h-6.74Z"/><path d="M116.78,34.29h-17.61V7.98h17.42v2.01h-14.79v9.24h12.87v2.07h-12.87v10.96h14.99v2.03Z"/><path d="M128.15,7.66c2.12,0,3.92,.35,5.38,1.06,1.47,.71,2.72,1.86,3.76,3.45l-1.94,1.44c-.71-1.25-1.66-2.2-2.86-2.85-1.2-.65-2.52-.98-3.97-.98-1.88,0-3.42,.35-4.6,1.04-1.19,.7-1.78,1.76-1.78,3.2,0,.56,.12,1.08,.38,1.55,.25,.47,.55,.85,.91,1.15,.35,.3,.83,.59,1.42,.88,.59,.29,1.13,.51,1.6,.67,.47,.16,1.06,.35,1.77,.57,.71,.23,1.25,.41,1.64,.56,.8,.31,1.46,.57,1.98,.78s1.08,.47,1.71,.78c.62,.31,1.13,.6,1.51,.87,.38,.27,.77,.6,1.17,.98,.4,.38,.7,.78,.91,1.2,.21,.42,.38,.9,.52,1.45,.14,.54,.21,1.14,.21,1.77,0,2.36-.88,4.2-2.65,5.53-1.77,1.32-4.14,1.99-7.11,1.99-.85,0-1.69-.07-2.53-.22-.83-.14-1.68-.39-2.54-.74-.86-.35-1.62-.78-2.31-1.31-.68-.53-1.28-1.21-1.81-2.05-.52-.84-.88-1.78-1.07-2.84l2.21-.95c.54,1.98,1.48,3.44,2.83,4.4,1.35,.96,3.13,1.44,5.36,1.44,.68,0,1.34-.05,1.96-.15,.62-.1,1.24-.28,1.84-.53,.61-.25,1.13-.57,1.57-.94,.44-.38,.8-.87,1.07-1.47,.27-.6,.41-1.29,.41-2.06,0-.49-.07-.94-.2-1.35-.13-.41-.27-.76-.41-1.05-.15-.29-.43-.6-.86-.91-.43-.31-.77-.55-1.02-.73-.25-.17-.74-.4-1.46-.69-.72-.29-1.25-.49-1.61-.62-.35-.13-1.01-.36-1.99-.69-.15-.06-.27-.1-.36-.12-2.13-.74-3.62-1.35-4.46-1.82-1.93-1.07-3.03-2.47-3.29-4.2-.04-.29-.06-.59-.06-.9,0-1.09,.25-2.07,.74-2.93,.49-.86,1.15-1.55,1.99-2.08,.83-.52,1.76-.91,2.79-1.18,1.02-.26,2.11-.4,3.24-.4Z"/></g><g><path d="M81.45,44.72h11.31c2.38,0,4.43,.28,6.15,.84,1.72,.56,3.2,1.47,4.43,2.74,1.23,1.26,2.15,2.95,2.76,5.05,.61,2.1,.91,4.66,.91,7.66,0,3.98-.53,7.19-1.57,9.63-1.05,2.44-2.61,4.2-4.7,5.29s-4.8,1.64-8.13,1.64h-11.15V44.72Zm11.33,2.56h-8.06v27.73h6.8c2.32,0,4.26-.25,5.81-.75,1.55-.5,2.82-1.33,3.78-2.48,.96-1.15,1.65-2.59,2.06-4.31,.41-1.72,.62-3.87,.62-6.44,0-2.3-.17-4.27-.52-5.89-.34-1.62-.92-3.04-1.75-4.26-.82-1.22-1.95-2.12-3.4-2.71-1.44-.59-3.23-.89-5.35-.89Z"/><path d="M112.3,64.69v-19.97h3.59v19.43c0,1.41,.07,2.64,.2,3.7,.13,1.06,.4,2.08,.79,3.06,.39,.98,.91,1.78,1.55,2.41,.65,.63,1.5,1.13,2.55,1.49,1.05,.37,2.3,.55,3.74,.55s2.67-.18,3.72-.55,1.89-.86,2.52-1.49c.64-.63,1.14-1.43,1.53-2.41,.38-.98,.64-2,.77-3.06,.13-1.06,.2-2.3,.2-3.7v-19.43h3.52v19.81c0,4.68-1.01,8.12-3.03,10.31-2.02,2.19-5.15,3.29-9.38,3.29s-7.21-1.07-9.24-3.22c-2.02-2.15-3.04-5.55-3.04-10.22Z"/></g><g><path d="M0,128.31v-37.58H4.18l23.18,31.9v-31.9h3.31v37.58h-3.39L3.41,95.2v33.11H0Z"/><path d="M53.03,90.04c2.5,0,4.69,.36,6.58,1.08,1.89,.72,3.53,1.83,4.92,3.33,1.39,1.51,2.43,3.5,3.14,5.99,.71,2.49,1.07,5.44,1.07,8.84,0,6.84-1.33,11.83-3.98,14.96-2.65,3.13-6.57,4.7-11.76,4.7-2.52,0-4.71-.36-6.6-1.08-1.88-.72-3.51-1.85-4.88-3.39-1.37-1.54-2.4-3.58-3.09-6.11-.69-2.53-1.04-5.55-1.04-9.06s.36-6.38,1.06-8.87c.71-2.49,1.75-4.49,3.12-6.01,1.37-1.51,3-2.63,4.89-3.34,1.89-.71,4.08-1.06,6.56-1.06Zm-.02,3c-1.78,0-3.34,.25-4.68,.74-1.34,.5-2.46,1.2-3.34,2.09-.88,.9-1.6,2.03-2.14,3.4-.55,1.37-.94,2.86-1.17,4.48-.23,1.62-.35,3.46-.35,5.53,0,5.77,.89,9.98,2.67,12.64,1.78,2.66,4.79,3.99,9.03,3.99s7.28-1.32,9.06-3.95c1.78-2.63,2.67-6.85,2.67-12.65,0-2.07-.12-3.92-.35-5.54-.23-1.63-.62-3.12-1.18-4.49-.56-1.37-1.28-2.5-2.17-3.4-.89-.9-2.01-1.6-3.35-2.09-1.34-.5-2.91-.74-4.71-.74Z"/><path d="M102.82,100.72c0,2.57-.66,4.65-1.99,6.25-1.33,1.6-3.37,2.77-6.12,3.5l8.72,17.84h-4l-8.52-17.27h-11.73v17.27h-3.72v-37.58h13.58c4.88,0,8.39,.81,10.55,2.42,2.16,1.62,3.23,4.14,3.23,7.56Zm-23.64-7.21v14.63h9.01c1.23,0,2.31-.04,3.25-.13,.93-.08,1.9-.28,2.9-.59,1-.31,1.82-.72,2.46-1.23,.64-.51,1.17-1.23,1.58-2.14,.41-.92,.62-2.01,.62-3.27s-.2-2.41-.59-3.32c-.39-.92-.88-1.63-1.48-2.13-.59-.5-1.37-.9-2.33-1.18-.97-.28-1.87-.46-2.71-.53-.84-.07-1.87-.1-3.08-.1h-9.63Z"/><path d="M108.47,90.73h12.93c2.72,0,5.07,.32,7.03,.96,1.97,.64,3.66,1.69,5.07,3.13,1.41,1.45,2.46,3.37,3.16,5.77,.69,2.4,1.04,5.33,1.04,8.77,0,4.55-.6,8.22-1.8,11.01-1.2,2.79-2.99,4.81-5.38,6.06-2.39,1.25-5.49,1.88-9.3,1.88h-12.75v-37.58Zm12.96,2.93h-9.22v31.72h7.78c2.65,0,4.87-.29,6.65-.86,1.78-.57,3.22-1.52,4.33-2.84,1.1-1.32,1.89-2.96,2.36-4.93,.47-1.97,.7-4.42,.7-7.37,0-2.63-.2-4.88-.59-6.74-.39-1.86-1.06-3.48-2-4.88-.94-1.39-2.24-2.43-3.89-3.1-1.65-.68-3.69-1.01-6.12-1.01Z"/></g></g></g></g></svg>