<?xml version="1.0" encoding="UTF-8"?><svg xmlns="http://www.w3.org/2000/svg" width="253.18" height="213.08" viewBox="0 0 253.18 213.08"><defs><style>.d{stroke-width:4px;}.d,.e,.f,.g,.h{stroke:#000;stroke-miterlimit:10;}.d,.h{fill:none;}.e{fill:#3d7255;}.e,.g,.h{stroke-width:9px;}.f{stroke-width:5px;}.f,.g{fill:#f4be53;}</style></defs><g id="a"/><g id="b"><g id="c"><circle class="g" cx="87.22" cy="58.73" r="54.23"/><polygon class="e" points="10.86 133.34 79.17 65.03 107.13 37.07 134.82 66.87 170.16 13.6 245.06 133.34 10.86 133.34"/><line class="h" x1="79.17" y1="65.03" x2="147.08" y2="132.94"/><rect class="f" x="66.38" y="96.41" width="24" height="24"/><line class="d" x1="78.38" y1="96.41" x2="78.38" y2="119.23"/><line class="d" x1="66.38" y1="108.41" x2="90.38" y2="108.41"/><g><path d="M45.22,166.91v45.37h-3.79l-23.07-22.35v21.93H6.45v-45.34h3.84l22.99,22.27v-21.88h11.94Z"/><path d="M81.77,206.59h-16.75l-2.28,5.23h-13.03l20.85-45.42h5.65l20.88,45.42h-13.05l-2.25-5.23Zm-3.79-8.71l-4.59-10.63-4.62,10.63h9.21Z"/><path d="M126.72,178.09h-10.74v33.73h-11.94v-33.73h-10.77v-11.13h33.45v11.13Z"/><path d="M131.39,195.52v-28.56h12v28.53c0,3.73,3.2,6.21,6.6,6.21s6.65-2.53,6.65-6.21v-28.53h12v28.56c0,10.3-8.35,17.56-18.62,17.56s-18.62-7.26-18.62-17.56Z"/><path d="M200,211.83l-12-19.48v19.48h-11.91l-.06-44.87h17.03c9.69,0,16.62,6.54,16.62,14.58,0,5.59-3.37,10.27-7.76,12.27l12.02,18.01h-13.94Zm-12.05-25.16l4.87,.03c2.53,.03,4.84-1.75,4.84-4.51s-2.34-4.51-4.84-4.51h-4.87v8.99Z"/><path d="M230,178.04v6.26h14.25v9.94h-14.25v6.43h17.31v11.16h-29.08v-44.87h29.08v11.08h-17.31Z"/></g><g><path d="M90.36,145.47v14.17h-2.22v-5.99h-6.13v5.99h-2.21v-14.17h2.21v5.98h6.13v-5.98h2.22Z"/><path d="M92.41,152.57c0-4.04,3.29-7.35,7.32-7.35s7.33,3.3,7.33,7.35-3.3,7.29-7.34,7.29-7.31-3.29-7.31-7.29Zm12.4-.02c0-2.8-2.29-5.09-5.09-5.09s-5.07,2.29-5.07,5.09,2.28,5.06,5.07,5.06,5.09-2.28,5.09-5.06Z"/><path d="M117.27,147.67h-3.8v11.96h-2.23v-11.96h-3.8v-2.21h9.83v2.21Z"/><path d="M121.26,147.65v3.63h5.36v2.21h-5.36v3.92h6.21v2.21h-8.44v-14.17h8.44v2.19h-6.21Z"/><path d="M138.33,157.42v2.21h-8.54v-14.17h2.22v11.95h6.32Z"/><path d="M148.65,157.42v2.21h-8.54v-14.17h2.22v11.95h6.32Z"/><path d="M152.65,147.65v3.63h5.36v2.21h-5.36v3.92h6.21v2.21h-8.44v-14.17h8.44v2.19h-6.21Z"/><path d="M168.96,159.63l-3.81-5.48h-1.74v5.48h-2.22v-14.17h4.39c2.64,0,4.8,2.03,4.8,4.55,0,1.83-1.18,3.42-2.8,3.95l4.12,5.67h-2.73Zm-3.33-7.33c1.34,0,2.45-1.07,2.45-2.34s-1.13-2.29-2.45-2.29h-2.23v4.63h2.23Z"/><path d="M173.19,145.47h2.22v14.17h-2.22v-14.17Z"/><path d="M180.36,147.65v3.63h5.36v2.21h-5.36v3.92h6.21v2.21h-8.44v-14.17h8.44v2.19h-6.21Z"/></g></g></g></svg>