<?xml version="1.0" encoding="UTF-8"?><svg xmlns="http://www.w3.org/2000/svg" width="239.25" height="185.58" viewBox="0 0 239.25 185.58"><defs><style>.d,.e{stroke-width:5px;}.d,.e,.f,.g,.h{stroke:#293a5e;stroke-miterlimit:10;}.d,.g,.h{stroke-linecap:round;}.d,.h{fill:none;}.i{fill:#293a5e;}.e,.f,.g{fill:#c6b96a;}.f,.g{stroke-width:4px;}.h{stroke-width:12px;}</style></defs><g id="a"/><g id="b"><g id="c"><path class="g" d="M235.61,25.24s-18.82,7.32-12.2,27.73c0,0,19.5-7.26,12.2-27.73Z"/><path class="g" d="M221.97,21.46s-12.77,15.23-4.87,31.29c0,0,27.09,5.7,4.87-31.29Z"/><path class="g" d="M209.23,29.48s-13.36,15.14,1.89,30.24c0,0,14-15.4-1.89-30.24Z"/><path class="g" d="M229.93,47.39s-14.49,2.7-16.69,14.35c0,0,14.08,14.14,16.69-14.35Z"/><path class="g" d="M125.35,58.23s-20.04,2.54-18.56,23.94c0,0,20.68-2.31,18.56-23.94Z"/><path class="f" d="M132.79,101.25c0,15.09-11.61,18.89-26.71,18.89s-27.95-3.79-27.95-18.89,12.24-27.33,27.33-27.33,27.33,12.24,27.33,27.33Z"/><path class="e" d="M166.61,121.98l21.08-62.22s3.22-13.48,16.09-6.98c9.67,4.54,26.56,11.29,26.56,11.29,0,0,10.17,6.26,3.68,15.3-3.5,7.57-20.36,36.21-20.36,36.21l-47.04,6.4Z"/><line class="d" x1="186.82" y1="68.55" x2="210.43" y2="79.72"/><line class="d" x1="207.59" y1="96.83" x2="219.38" y2="101.96"/><line class="d" x1="178.16" y1="99.33" x2="186" y2="102.75"/><path class="g" d="M71.66,114.08s-6.51-42.02-30.89-65.56c0,0-20.62-23.07-25.81,5.74-4.21,24-.58,48.53,6.39,64.1l50.31-4.28Z"/><path class="g" d="M80.18,115.6s-10.34-25.66-7.5-44.18c-8.64,3.74-18.06,33.59-18.8,44.54l-19.72,1.68s-9.45-28.75-29.94-28.27c9.57,11.34,8.37,28.25,8.25,29.61s67.7-3.38,67.7-3.38Z"/><line class="d" x1="51.07" y1="65.2" x2="45.8" y2="67.23"/><line class="d" x1="23.66" y1="83.15" x2="28.68" y2="81.71"/><line class="d" x1="58.32" y1="94.77" x2="53.25" y2="96.55"/><line class="d" x1="37.36" y1="107.91" x2="32.33" y2="109.19"/><line class="d" x1="22.48" y1="50.29" x2="17.95" y2="51.5"/><line class="d" x1="26.32" y1="64.65" x2="21.79" y2="65.87"/><path class="g" d="M178.82,120.73l-11.67-63.4s-2.39-13.03-17.21-14.64l-4.67-26.46s3.16-.67,2.67-4c0,0,.02-4.85-4.33-4.05l-13.05,2.18s-3.54,.1-3.26,3.59c0,0-.1,4.96,3.51,4.47l5.68,26.56s-12.07,7.14-10.88,19.44l8.9,56.32h44.31Z"/><path class="g" d="M130.93,10.29l-.72-3.13s-1.06-3.63,3.41-4.23l5.19-.84s2.97-.79,3.51,2.32c0,.25,.73,3.85,.73,3.85l-12.12,2.02Z"/><path class="g" d="M169.14,68.18l-23.62,3.65s-5.82,.92-4.48,8.44l1.98,11.47s.54,5.04,7.65,3.96l23.03-2.81-4.55-24.71Z"/><line class="h" x1="7.53" y1="118.93" x2="222.63" y2="118.93"/><path class="g" d="M91.98,57.6s-.41,20.19,20.98,21.85c0,0,.73-20.8-20.98-21.85Z"/><g><path class="i" d="M58.63,134.9h4.57v1.89h-4.57v-1.89Z"/><path class="i" d="M76.96,131.35v8.74h-2.3v-3.43l-2.33,3.29h-.02l-2.34-3.29v3.43h-2.3v-8.74h.92l3.72,5.09,3.72-5.09h.92Z"/><path class="i" d="M84.01,139.07h-3.23l-.44,1.01h-2.51l4.02-8.77h1.09l4.03,8.77h-2.52l-.43-1.01Zm-.73-1.68l-.89-2.05-.89,2.05h1.78Z"/><path class="i" d="M92.46,140.08l-2.32-3.76v3.76h-2.3v-8.66h3.28c1.87,0,3.21,1.26,3.21,2.81,0,1.08-.65,1.98-1.5,2.37l2.32,3.48h-2.69Zm-2.33-4.86h.94c.49,.01,.94-.33,.94-.86s-.45-.87-.94-.87h-.94v1.73Z"/><path class="i" d="M95.6,135.76c0-2.56,2.07-4.53,4.77-4.53,1.12,.02,2.32,.5,3.2,1.31l-1.32,1.7c-.53-.48-1.24-.8-1.88-.8-1.33,0-2.44,1.02-2.44,2.34s1.16,2.33,2.4,2.33c.73,0,1.38-.34,1.93-.84l1.31,1.75c-.83,.75-1.93,1.27-3.24,1.27-2.44,0-4.73-1.8-4.73-4.52Z"/><path class="i" d="M111.71,131.43v8.66h-2.29v-3.26h-2.57v3.26h-2.3v-8.66h2.3v3.25h2.57v-3.25h2.29Z"/><path class="i" d="M115.49,133.56v1.21h2.75v1.92h-2.75v1.24h3.34v2.15h-5.61v-8.66h5.61v2.14h-3.34Zm.93-2.85h-1.44l.92-1.81h1.8l-1.28,1.81Z"/><path class="i" d="M123.46,131.43h3.27c1.78,0,3.27,1.34,3.27,3.03s-1.46,3.07-3.27,3.07h-.97v2.55h-2.3v-8.66Zm4.32,3.05c0-.53-.44-.92-1.05-.92h-.97v1.86h.97c.62,.01,1.05-.41,1.05-.94Z"/><path class="i" d="M130.91,136.94v-5.51h2.32v5.51c0,.72,.62,1.2,1.27,1.2s1.28-.49,1.28-1.2v-5.51h2.31v5.51c0,1.99-1.61,3.39-3.59,3.39s-3.59-1.4-3.59-3.39Z"/><path class="i" d="M146.1,137.44c0,1.37-1.15,2.64-2.88,2.64h-3.7v-8.66h2.85c1.57,0,2.72,1.06,2.72,2.25,0,.89-.59,1.53-.95,1.53,.92,0,1.96,.93,1.96,2.23Zm-3.8-4.02h-.56v1.36h.55c.5,0,.88-.25,.88-.69,0-.42-.37-.67-.86-.67Zm1.6,3.74c0-.5-.37-.81-1.02-.81h-1.15v1.64h1.13c.53,0,1.03-.26,1.03-.83Z"/><path class="i" d="M152.69,137.93v2.16h-5.61v-8.66h2.3v6.5h3.31Z"/><path class="i" d="M153.67,131.43h2.3v8.66h-2.3v-8.66Z"/><path class="i" d="M157.1,135.76c0-2.56,2.07-4.53,4.77-4.53,1.12,.02,2.32,.5,3.2,1.31l-1.32,1.7c-.53-.48-1.24-.8-1.88-.8-1.33,0-2.44,1.02-2.44,2.34s1.16,2.33,2.4,2.33c.73,0,1.38-.34,1.93-.84l1.31,1.75c-.83,.75-1.93,1.27-3.24,1.27-2.44,0-4.73-1.8-4.73-4.52Z"/><path class="i" d="M169.03,134.9h4.57v1.89h-4.57v-1.89Z"/></g><g><path class="i" d="M37.7,174.76v9.81H12.19v-39.36h10.45v29.54h15.06Z"/><path class="i" d="M67.36,179.99h-14.7l-2,4.59h-11.43l18.29-39.84h4.96l18.31,39.84h-11.45l-1.98-4.59Zm-3.32-7.64l-4.03-9.33-4.05,9.33h8.08Z"/><path class="i" d="M105.74,184.58l-10.52-17.09v17.09h-10.45l-.05-39.36h14.94c8.5,0,14.58,5.74,14.58,12.79,0,4.91-2.95,9.01-6.81,10.77l10.55,15.8h-12.23Zm-10.57-22.07l4.27,.02c2.22,.02,4.25-1.54,4.25-3.96s-2.05-3.96-4.25-3.96h-4.27v7.89Z"/><path class="i" d="M120.02,164.95c0-11.82,9.38-20.78,21.61-20.78s21.61,8.96,21.61,20.78-9.38,20.63-21.63,20.63-21.58-8.91-21.58-20.63Zm32.64-.07c0-6.08-4.79-10.77-11.04-10.77s-11.04,4.69-11.04,10.77,4.79,10.72,11.04,10.72,11.04-4.66,11.04-10.72Z"/><path class="i" d="M166.31,177.91l6.32-6.2c1.64,2.42,4.69,3.88,7.98,3.88,2.22,0,4.39-.81,4.39-2.42,0-2.03-4.03-3.81-7.89-5.52-4.98-2.15-9.25-5.42-9.25-11.35,0-6.81,6.47-11.67,13.94-11.67,6.01,0,10.69,2.83,12.23,6.71l-6.03,5.81c-1.17-2.08-4.2-2.98-6.08-2.98-2.15,0-3.69,1.1-3.69,2.44,0,1.81,2.78,2.39,7.03,4.17,6.15,2.59,10.23,6.35,10.23,12.16,0,7.5-6.98,12.16-14.87,12.16-6.47,0-12.35-2.86-14.33-7.2Z"/><path class="i" d="M210.62,154.94v5.49h12.5v8.72h-12.5v5.64h15.19v9.79h-25.51v-39.36h25.51v9.72h-15.19Z"/></g></g></g></svg>