<?xml version="1.0" encoding="UTF-8"?><svg xmlns="http://www.w3.org/2000/svg" viewBox="0 0 700 700"><defs><style>.d{fill:#1c1c1c;}.e{letter-spacing:.03em;}.f{font-family:CaviarDreams, Caviar Dreams;font-size:39.27px;}.g{fill:#1d1d1d;}.h{font-family:CantataOne-Regular, Cantata One;font-size:79.39px;}</style></defs><g id="a"/><g id="b"><g><g><path class="d" d="M515.94,238.91h-30.94c-10.04,0-20.07-.23-30.11-.69-6.54-.29-10.5,2.74-11.86,9.13-12.01,39.24-22.44,79.16-31.25,119.76-1.4,6.79-3,13.47-4.8,20.06-1.58,5.82-3.31,11.57-5.18,17.25-.5,1.54-1.01,3.06-1.55,4.58-1.74,5.03-3.6,10.01-5.59,14.92-.15,.15-.31,.38-.45,.69-.04,.15-.1,.28-.15,.41-.34,.94-.72,1.83-1.16,2.69,71.99-19.21,125.01-84.88,125.01-162.93,0-8.79-.67-17.42-1.98-25.86Zm-79.76,.92c-.76-1.07-2.74-1.52-5.92-1.38-15.67,.31-31.34,.76-47,1.38-12.61,.29-25.24,.67-37.86,1.13-2.59,.16-4.78,.8-6.61,1.95-1.83,1.14-3.5,2.55-5.02,4.21-5.78,5.63-11.56,11.19-17.34,16.66-14,13.68-27.99,27.37-41.97,41.05-8.53,8.53-17.12,17.04-25.78,25.56-4.21,4.21-8.43,8.41-12.65,12.61-1.73,1.71-3.44,3.42-5.16,5.12-2.47,2.47-4.96,4.93-7.45,7.37-1.74,1.73-3.48,3.45-5.22,5.16-.56,.56-1.13,1.11-1.68,1.67-.45,.61-.99,1.29-1.59,2.05-.31,.39-.61,.76-.94,1.1,30.74,41.24,79.89,67.95,135.29,67.95,10.3,0,20.38-.92,30.17-2.69-.09-.2-.19-.42-.28-.66-.32-.73-.56-1.4-.73-2.02-.53-1.8-.47-3.06,.16-3.8,.83-.98,2.93-1.48,6.28-1.48,1.05-.15,1.86-.53,2.38-1.14,.54-.6,.95-1.36,1.26-2.28,.15-.31,.23-.6,.23-.91,.94-2.17,1.83-4.34,2.68-6.55,.64-1.59,1.24-3.19,1.8-4.8,1.95-5.28,3.64-10.66,5.15-16.17,.72-2.59,1.39-5.21,2-7.84,3.04-12.32,6.09-24.71,9.13-37.19,7.45-33.76,16.19-67.06,26.23-99.91,1.05-3.04,1.21-5.11,.45-6.16Zm-112.46,2.74c-.76-.31-1.45-.47-2.06-.47-3.19,.16-6.38,.31-9.57,.47-18.87,.76-37.57,1.78-56.12,3.07-14.91,1.04-29.68,2.69-44.39,4.96-1.74,.26-3.5,.54-5.24,.83-1.86,.29-3.73,.61-5.59,.94-2.37,.35-4.73,.76-7.04,1.23-1.77,.35-3.51,.76-5.25,1.2-2.59,.63-5.15,1.36-7.67,2.19-.13,2.57-.19,5.18-.19,7.78,0,35.17,10.77,67.82,29.19,94.86h.01s.04-.03,.07-.04c.76-.61,1.45-1.14,2.05-1.59,.86-.89,1.73-1.8,2.6-2.69,1.67-1.74,3.35-3.48,5.05-5.21,2.49-2.59,5-5.18,7.52-7.75,1.67-1.73,3.34-3.44,5.02-5.15,29.08-29.79,58.64-59.13,88.63-88.01,.45-.31,.83-.61,1.14-.92,.76-.6,1.45-1.29,2.05-2.05,.61-.76,.92-1.83,.92-3.19-.45-.15-.83-.31-1.14-.45Zm140.87-60.27c-.45,1.26-.89,2.5-1.33,3.76h0c-3.76,10.72-7.39,21.51-10.88,32.33-.31,.91-.6,1.74-.91,2.5-1.38,2.74-1.97,5.78-1.83,9.13,.91,1.21,1.86,1.95,2.85,2.17,.98,.23,2.02,.26,3.07,.12h1.38c9.22,.13,18.39,.26,27.5,.38,.98,.01,1.95,.03,2.91,.04-4.15-18.07-11.97-35.29-22.76-50.43Zm-1.01-28.54c-.59-.61-1.18-1.21-1.78-1.81-.51-.51-1.01-1.01-1.52-1.51-3.75-3.66-7.67-7.12-11.76-10.39-.86,.79-1.73,1.58-2.6,2.38-3.41,3.12-6.89,6.35-10.47,9.67-.86,.79-1.73,1.59-2.6,2.41-6.13,5.69-12.51,11.67-19.12,17.91-15.89,14.98-29.87,28.32-41.97,40.03-12.08,11.72-18.81,18.71-20.19,20.99,.61,.61,1.29,.91,2.06,.91h2.05c.45,0,.83-.07,1.14-.22,6.83-.16,13.68-.31,20.53-.47,17.79-.75,35.59-1.21,53.38-1.36,6.85,.31,11.09-2.88,12.77-9.58,4.56-14.7,9.38-29.29,14.45-43.76,.44-1.23,.86-2.46,1.3-3.69,1.81-5.12,3.66-10.23,5.53-15.3h0c.44-1.2,.89-2.38,1.33-3.55h0c-.83-.91-1.67-1.78-2.52-2.66Zm-139.86,88.82c-.76-.31-1.45-.47-2.06-.47-3.19,.16-6.38,.31-9.57,.47-18.87,.76-37.57,1.78-56.12,3.07-14.91,1.04-29.68,2.69-44.39,4.96-1.74,.26-3.5,.54-5.24,.83-.2,1.93-.37,3.86-.48,5.79-1.68,27.43,4.45,55.01,17.6,78.85,1.16,2.12,2.37,4.21,3.64,6.26,1.67-1.73,3.34-3.44,5.02-5.15,29.08-29.79,58.64-59.13,88.63-88.01,.45-.31,.83-.61,1.14-.92,.76-.6,1.45-1.29,2.05-2.05,.61-.76,.92-1.83,.92-3.19-.45-.15-.83-.31-1.14-.45Zm115.56-105.07c-.78-.57-1.57-1.11-2.36-1.64-.89-.61-1.8-1.21-2.71-1.8-.51-.34-1.02-.67-1.54-.97-.59-.39-1.18-.78-1.77-1.11-.34-.22-.67-.42-1.01-.61-.82-.5-1.64-.98-2.47-1.46-1.05-.61-2.14-1.23-3.22-1.81-1.08-.6-2.17-1.18-3.26-1.74-1.1-.57-2.19-1.13-3.29-1.65-.04-.03-.09-.06-.13-.07-1.07-.51-2.14-1.01-3.2-1.51-7.83-3.6-15.96-6.55-24.29-8.79-1.21-.34-2.43-.66-3.66-.95-19.57-4.78-40.19-5.81-60.2-2.82-20.03,2.94-39.47,9.85-56.91,20.26-17.44,10.39-32.87,24.26-45.09,40.6-12.22,16.33-21.18,35.1-26.16,54.93-.38,1.54-.75,3.09-1.1,4.62-.25,1.16-.48,2.33-.7,3.5-.16,.72-.29,1.43-.41,2.15-.15,.76-.28,1.54-.39,2.3-.31,1.83-.57,3.66-.8,5.49-.12,.88-.22,1.74-.31,2.62,4.24-.89,8.54-1.64,12.89-2.25,.97-.13,1.95-.26,2.93-.38,.76-.1,1.51-.2,2.27-.29,37.28-4.84,75.06-7.62,113.38-8.37,6.85-.15,12.55-2.52,17.12-7.08,27.9-26.25,55.86-52.4,83.84-78.49,.88-.82,1.76-1.64,2.63-2.47,3.51-3.25,7.01-6.51,10.52-9.77-.19-.15-.4-.29-.6-.41Zm-3.1,102.33c-.76-1.07-2.74-1.52-5.92-1.38-15.67,.31-31.34,.76-47,1.38-12.61,.29-25.24,.67-37.86,1.13-2.59,.16-4.78,.8-6.61,1.95-1.83,1.14-3.5,2.55-5.02,4.21-5.78,5.63-11.56,11.19-17.34,16.66-14,13.68-27.99,27.37-41.97,41.05-8.53,8.53-17.12,17.04-25.78,25.56-4.21,4.21-8.43,8.41-12.65,12.61l1.73,2.36,1.27,1.76,1.36,1.68,2.72,3.38,2.88,3.23,1.42,1.62c.5,.53,1.01,1.02,1.52,1.55l3.01,3.09c4.17,3.94,8.41,7.81,13.03,11.21,9.07,6.98,19.05,12.64,29.49,17.09,1.29,.6,2.62,1.08,3.96,1.58l3.98,1.51,4.05,1.3,2.02,.66c.69,.2,1.38,.38,2.06,.57l4.11,1.11c1.38,.35,2.76,.6,4.15,.92,2.77,.67,5.59,1.05,8.4,1.54,11.24,1.74,22.84,1.87,34.31,.79,1.43-.07,2.85-.31,4.29-.51l4.29-.59,4.24-.8,2.14-.4,2.11-.51,4.21-1.01c1.4-.38,2.78-.82,4.18-1.23,2.81-.73,5.52-1.81,8.28-2.74,1.04-.41,2.08-.82,3.12-1.23,.72-2.59,1.39-5.21,2-7.84,3.04-12.32,6.09-24.71,9.13-37.19,7.45-33.76,16.19-67.06,26.23-99.91,1.05-3.04,1.21-5.11,.45-6.16Zm35.48-77.1c-.45,1.21-.89,2.41-1.33,3.63-1.95,5.3-3.86,10.61-5.73,15.93-.45,1.26-.89,2.5-1.33,3.76h0c-3.76,10.72-7.39,21.51-10.88,32.33-.31,.91-.6,1.74-.91,2.5-1.38,2.74-1.97,5.78-1.83,9.13,.91,1.21,1.86,1.95,2.85,2.17,.98,.23,2.02,.26,3.07,.12h1.38c9.22,.13,18.39,.26,27.5,.38,.98,.01,1.95,.03,2.91,.04,.59,.01,1.17,.01,1.76,.03,4.46,0,8.91,.01,13.37,.06,.95,0,1.9,.01,2.85,.03-5.18-25.66-16.9-49.96-33.68-70.1Zm-8.08-8.98c-.59-.61-1.18-1.21-1.78-1.81-.51-.51-1.01-1.01-1.52-1.51-3.75-3.66-7.67-7.12-11.76-10.39-.86,.79-1.73,1.58-2.6,2.38-3.41,3.12-6.89,6.35-10.47,9.67-.86,.79-1.73,1.59-2.6,2.41-6.13,5.69-12.51,11.67-19.12,17.91-15.89,14.98-29.87,28.32-41.97,40.03-12.08,11.72-18.81,18.71-20.19,20.99,.61,.61,1.29,.91,2.06,.91h2.05c.45,0,.83-.07,1.14-.22,6.83-.16,13.68-.31,20.53-.47,17.79-.75,35.59-1.21,53.38-1.36,6.85,.31,11.09-2.88,12.77-9.58,4.56-14.7,9.38-29.29,14.45-43.76,.44-1.23,.86-2.46,1.3-3.69,1.81-5.12,3.66-10.23,5.53-15.3h0c.44-1.2,.89-2.38,1.33-3.55h0c-.83-.91-1.67-1.78-2.52-2.66Zm-139.86,88.82c-.76-.31-1.45-.47-2.06-.47-3.19,.16-6.38,.31-9.57,.47-18.87,.76-37.57,1.78-56.12,3.07-14.91,1.04-29.68,2.69-44.39,4.96-1.74,.26-3.5,.54-5.24,.83-.2,1.93-.37,3.86-.48,5.79-1.68,27.43,4.45,55.01,17.6,78.85,1.16,2.12,2.37,4.21,3.64,6.26,1.67-1.73,3.34-3.44,5.02-5.15,29.08-29.79,58.64-59.13,88.63-88.01,.45-.31,.83-.61,1.14-.92,.76-.6,1.45-1.29,2.05-2.05,.61-.76,.92-1.83,.92-3.19-.45-.15-.83-.31-1.14-.45Zm115.56-105.07c-.78-.57-1.57-1.11-2.36-1.64-.89-.61-1.8-1.21-2.71-1.8-.51-.34-1.02-.67-1.54-.97-.59-.39-1.18-.78-1.77-1.11-.34-.22-.67-.42-1.01-.61-.82-.5-1.64-.98-2.47-1.46-1.05-.61-2.14-1.23-3.22-1.81-1.08-.6-2.17-1.18-3.26-1.74-1.1-.57-2.19-1.13-3.29-1.65-.04-.03-.09-.06-.13-.07-1.07-.51-2.14-1.01-3.2-1.51-7.83-3.6-15.96-6.55-24.29-8.79-1.21-.34-2.43-.66-3.66-.95-19.57-4.78-40.19-5.81-60.2-2.82-20.03,2.94-39.47,9.85-56.91,20.26-17.44,10.39-32.87,24.26-45.09,40.6-12.22,16.33-21.18,35.1-26.16,54.93-.38,1.54-.75,3.09-1.1,4.62-.25,1.16-.48,2.33-.7,3.5-.16,.72-.29,1.43-.41,2.15-.15,.76-.28,1.54-.39,2.3-.31,1.83-.57,3.66-.8,5.49-.12,.88-.22,1.74-.31,2.62,4.24-.89,8.54-1.64,12.89-2.25,.97-.13,1.95-.26,2.93-.38,.76-.1,1.51-.2,2.27-.29,37.28-4.84,75.06-7.62,113.38-8.37,6.85-.15,12.55-2.52,17.12-7.08,27.9-26.25,55.86-52.4,83.84-78.49,.88-.82,1.76-1.64,2.63-2.47,3.51-3.25,7.01-6.51,10.52-9.77-.19-.15-.4-.29-.6-.41Zm-3.1,102.33c-.76-1.07-2.74-1.52-5.92-1.38-15.67,.31-31.34,.76-47,1.38-12.61,.29-25.24,.67-37.86,1.13-2.59,.16-4.78,.8-6.61,1.95-1.83,1.14-3.5,2.55-5.02,4.21-5.78,5.63-11.56,11.19-17.34,16.66-14,13.68-27.99,27.37-41.97,41.05-8.53,8.53-17.12,17.04-25.78,25.56-4.21,4.21-8.43,8.41-12.65,12.61l1.73,2.36,1.27,1.76,1.36,1.68,2.72,3.38,2.88,3.23,1.42,1.62c.5,.53,1.01,1.02,1.52,1.55l3.01,3.09c4.17,3.94,8.41,7.81,13.03,11.21,9.07,6.98,19.05,12.64,29.49,17.09,1.29,.6,2.62,1.08,3.96,1.58l3.98,1.51,4.05,1.3,2.02,.66c.69,.2,1.38,.38,2.06,.57l4.11,1.11c1.38,.35,2.76,.6,4.15,.92,2.77,.67,5.59,1.05,8.4,1.54,11.24,1.74,22.84,1.87,34.31,.79,1.43-.07,2.85-.31,4.29-.51l4.29-.59,4.24-.8,2.14-.4,2.11-.51,4.21-1.01c1.4-.38,2.78-.82,4.18-1.23,2.81-.73,5.52-1.81,8.28-2.74,1.04-.41,2.08-.82,3.12-1.23,.72-2.59,1.39-5.21,2-7.84,3.04-12.32,6.09-24.71,9.13-37.19,7.45-33.76,16.19-67.06,26.23-99.91,1.05-3.04,1.21-5.11,.45-6.16Zm-86.91-143.72c-88.23,0-160.65,67.76-168.01,154.09,2.59-.73,5.21-1.42,7.84-2.03,1.73-.41,3.45-.79,5.21-1.16,4.24-.89,8.54-1.64,12.89-2.25,.97-.13,1.95-.26,2.93-.38,.76-.1,1.51-.2,2.27-.29,37.28-4.84,75.06-7.62,113.38-8.37,6.85-.15,12.55-2.52,17.12-7.08,27.9-26.25,55.86-52.4,83.84-78.49,.88-.82,1.76-1.64,2.63-2.47,3.51-3.25,7.01-6.51,10.52-9.77,.88-.82,1.74-1.62,2.62-2.43,2.3-2.15,4.61-4.3,6.91-6.42-28.02-20.72-62.64-32.95-100.14-32.95Zm126.11,56.67c-1.26,3.31-2.49,6.63-3.72,9.95-.45,1.21-.89,2.41-1.33,3.63-1.95,5.3-3.86,10.61-5.73,15.93-.45,1.26-.89,2.5-1.33,3.76h0c-3.76,10.72-7.39,21.51-10.88,32.33-.31,.91-.6,1.74-.91,2.5-1.38,2.74-1.97,5.78-1.83,9.13,.91,1.21,1.86,1.95,2.85,2.17,.98,.23,2.02,.26,3.07,.12h1.38c9.22,.13,18.39,.26,27.5,.38,.98,.01,1.95,.03,2.91,.04,.59,.01,1.17,.01,1.76,.03,4.46,0,8.91,.01,13.37,.06,.95,0,1.9,.01,2.85,.03,3.19,.01,6.38,.06,9.57,.12-5.79-30.41-19.76-57.93-39.53-80.17Zm-19.94-19.05c-2.25,2.05-4.56,4.15-6.92,6.31-.86,.79-1.73,1.58-2.6,2.38-3.41,3.12-6.89,6.35-10.47,9.67-.86,.79-1.73,1.59-2.6,2.41-6.13,5.69-12.51,11.67-19.12,17.91-15.89,14.98-29.87,28.32-41.97,40.03-12.08,11.72-18.81,18.71-20.19,20.99,.61,.61,1.29,.91,2.06,.91h2.05c.45,0,.83-.07,1.14-.22,6.83-.16,13.68-.31,20.53-.47,17.79-.75,35.59-1.21,53.38-1.36,6.85,.31,11.09-2.88,12.77-9.58,4.56-14.7,9.38-29.29,14.45-43.76,.44-1.23,.86-2.46,1.3-3.69,1.81-5.12,3.66-10.23,5.53-15.3h0c.44-1.2,.89-2.38,1.33-3.55h0c1.2-3.23,2.41-6.45,3.64-9.66-4.51-4.61-9.29-8.97-14.31-13.02Zm-19.25,106.09c-.76-1.07-2.74-1.52-5.92-1.38-15.67,.31-31.34,.76-47,1.38-12.61,.29-25.24,.67-37.86,1.13-2.59,.16-4.78,.8-6.61,1.95-1.83,1.14-3.5,2.55-5.02,4.21-5.78,5.63-11.56,11.19-17.34,16.66-14,13.68-27.99,27.37-41.97,41.05-8.53,8.53-17.12,17.04-25.78,25.56-4.21,4.21-8.43,8.41-12.65,12.61l1.73,2.36,1.27,1.76,1.36,1.68,2.72,3.38,2.88,3.23,1.42,1.62c.5,.53,1.01,1.02,1.52,1.55l3.01,3.09c4.17,3.94,8.41,7.81,13.03,11.21,9.07,6.98,19.05,12.64,29.49,17.09,1.29,.6,2.62,1.08,3.96,1.58l3.98,1.51,4.05,1.3,2.02,.66c.69,.2,1.38,.38,2.06,.57l4.11,1.11c1.38,.35,2.76,.6,4.15,.92,2.77,.67,5.59,1.05,8.4,1.54,11.24,1.74,22.84,1.87,34.31,.79,1.43-.07,2.85-.31,4.29-.51l4.29-.59,4.24-.8,2.14-.4,2.11-.51,4.21-1.01c1.4-.38,2.78-.82,4.18-1.23,2.81-.73,5.52-1.81,8.28-2.74,1.04-.41,2.08-.82,3.12-1.23,.72-2.59,1.39-5.21,2-7.84,3.04-12.32,6.09-24.71,9.13-37.19,7.45-33.76,16.19-67.06,26.23-99.91,1.05-3.04,1.21-5.11,.45-6.16Zm35.48-77.1c-.45,1.21-.89,2.41-1.33,3.63-1.95,5.3-3.86,10.61-5.73,15.93-.45,1.26-.89,2.5-1.33,3.76h0c-3.76,10.72-7.39,21.51-10.88,32.33-.31,.91-.6,1.74-.91,2.5-1.38,2.74-1.97,5.78-1.83,9.13,.91,1.21,1.86,1.95,2.85,2.17,.98,.23,2.02,.26,3.07,.12h1.38c9.22,.13,18.39,.26,27.5,.38,.98,.01,1.95,.03,2.91,.04,.59,.01,1.17,.01,1.76,.03,4.46,0,8.91,.01,13.37,.06,.95,0,1.9,.01,2.85,.03-5.18-25.66-16.9-49.96-33.68-70.1Zm-8.08-8.98c-.59-.61-1.18-1.21-1.78-1.81-.51-.51-1.01-1.01-1.52-1.51-3.75-3.66-7.67-7.12-11.76-10.39-.86,.79-1.73,1.58-2.6,2.38-3.41,3.12-6.89,6.35-10.47,9.67-.86,.79-1.73,1.59-2.6,2.41-6.13,5.69-12.51,11.67-19.12,17.91-15.89,14.98-29.87,28.32-41.97,40.03-12.08,11.72-18.81,18.71-20.19,20.99,.61,.61,1.29,.91,2.06,.91h2.05c.45,0,.83-.07,1.14-.22,6.83-.16,13.68-.31,20.53-.47,17.79-.75,35.59-1.21,53.38-1.36,6.85,.31,11.09-2.88,12.77-9.58,4.56-14.7,9.38-29.29,14.45-43.76,.44-1.23,.86-2.46,1.3-3.69,1.81-5.12,3.66-10.23,5.53-15.3h0c.44-1.2,.89-2.38,1.33-3.55h0c-.83-.91-1.67-1.78-2.52-2.66Zm-139.86,88.82c-.76-.31-1.45-.47-2.06-.47-3.19,.16-6.38,.31-9.57,.47-18.87,.76-37.57,1.78-56.12,3.07-14.91,1.04-29.68,2.69-44.39,4.96-1.74,.26-3.5,.54-5.24,.83-.2,1.93-.37,3.86-.48,5.79-1.68,27.43,4.45,55.01,17.6,78.85,1.16,2.12,2.37,4.21,3.64,6.26,1.67-1.73,3.34-3.44,5.02-5.15,29.08-29.79,58.64-59.13,88.63-88.01,.45-.31,.83-.61,1.14-.92,.76-.6,1.45-1.29,2.05-2.05,.61-.76,.92-1.83,.92-3.19-.45-.15-.83-.31-1.14-.45Zm115.56-105.07c-.78-.57-1.57-1.11-2.36-1.64-.89-.61-1.8-1.21-2.71-1.8-.51-.34-1.02-.67-1.54-.97-.59-.39-1.18-.78-1.77-1.11-.34-.22-.67-.42-1.01-.61-.82-.5-1.64-.98-2.47-1.46-1.05-.61-2.14-1.23-3.22-1.81-1.08-.6-2.17-1.18-3.26-1.74-1.1-.57-2.19-1.13-3.29-1.65-.04-.03-.09-.06-.13-.07-1.07-.51-2.14-1.01-3.2-1.51-7.83-3.6-15.96-6.55-24.29-8.79-1.21-.34-2.43-.66-3.66-.95-19.57-4.78-40.19-5.81-60.2-2.82-20.03,2.94-39.47,9.85-56.91,20.26-17.44,10.39-32.87,24.26-45.09,40.6-12.22,16.33-21.18,35.1-26.16,54.93-.38,1.54-.75,3.09-1.1,4.62-.25,1.16-.48,2.33-.7,3.5-.16,.72-.29,1.43-.41,2.15-.15,.76-.28,1.54-.39,2.3-.31,1.83-.57,3.66-.8,5.49-.12,.88-.22,1.74-.31,2.62,4.24-.89,8.54-1.64,12.89-2.25,.97-.13,1.95-.26,2.93-.38,.76-.1,1.51-.2,2.27-.29,37.28-4.84,75.06-7.62,113.38-8.37,6.85-.15,12.55-2.52,17.12-7.08,27.9-26.25,55.86-52.4,83.84-78.49,.88-.82,1.76-1.64,2.63-2.47,3.51-3.25,7.01-6.51,10.52-9.77-.19-.15-.4-.29-.6-.41Zm-3.1,102.33c-.76-1.07-2.74-1.52-5.92-1.38-15.67,.31-31.34,.76-47,1.38-12.61,.29-25.24,.67-37.86,1.13-2.59,.16-4.78,.8-6.61,1.95-1.83,1.14-3.5,2.55-5.02,4.21-5.78,5.63-11.56,11.19-17.34,16.66-14,13.68-27.99,27.37-41.97,41.05-8.53,8.53-17.12,17.04-25.78,25.56-4.21,4.21-8.43,8.41-12.65,12.61l1.73,2.36,1.27,1.76,1.36,1.68,2.72,3.38,2.88,3.23,1.42,1.62c.5,.53,1.01,1.02,1.52,1.55l3.01,3.09c4.17,3.94,8.41,7.81,13.03,11.21,9.07,6.98,19.05,12.64,29.49,17.09,1.29,.6,2.62,1.08,3.96,1.58l3.98,1.51,4.05,1.3,2.02,.66c.69,.2,1.38,.38,2.06,.57l4.11,1.11c1.38,.35,2.76,.6,4.15,.92,2.77,.67,5.59,1.05,8.4,1.54,11.24,1.74,22.84,1.87,34.31,.79,1.43-.07,2.85-.31,4.29-.51l4.29-.59,4.24-.8,2.14-.4,2.11-.51,4.21-1.01c1.4-.38,2.78-.82,4.18-1.23,2.81-.73,5.52-1.81,8.28-2.74,1.04-.41,2.08-.82,3.12-1.23,.72-2.59,1.39-5.21,2-7.84,3.04-12.32,6.09-24.71,9.13-37.19,7.45-33.76,16.19-67.06,26.23-99.91,1.05-3.04,1.21-5.11,.45-6.16Zm28.41-57.54c-.45,1.26-.89,2.5-1.33,3.76h0c-3.76,10.72-7.39,21.51-10.88,32.33-.31,.91-.6,1.74-.91,2.5-1.38,2.74-1.97,5.78-1.83,9.13,.91,1.21,1.86,1.95,2.85,2.17,.98,.23,2.02,.26,3.07,.12h1.38c9.22,.13,18.39,.26,27.5,.38,.98,.01,1.95,.03,2.91,.04-4.15-18.07-11.97-35.29-22.76-50.43Zm-1.01-28.54c-.59-.61-1.18-1.21-1.78-1.81-.51-.51-1.01-1.01-1.52-1.51-3.75-3.66-7.67-7.12-11.76-10.39-.86,.79-1.73,1.58-2.6,2.38-3.41,3.12-6.89,6.35-10.47,9.67-.86,.79-1.73,1.59-2.6,2.41-6.13,5.69-12.51,11.67-19.12,17.91-15.89,14.98-29.87,28.32-41.97,40.03-12.08,11.72-18.81,18.71-20.19,20.99,.61,.61,1.29,.91,2.06,.91h2.05c.45,0,.83-.07,1.14-.22,6.83-.16,13.68-.31,20.53-.47,17.79-.75,35.59-1.21,53.38-1.36,6.85,.31,11.09-2.88,12.77-9.58,4.56-14.7,9.38-29.29,14.45-43.76,.44-1.23,.86-2.46,1.3-3.69,1.81-5.12,3.66-10.23,5.53-15.3h0c.44-1.2,.89-2.38,1.33-3.55h0c-.83-.91-1.67-1.78-2.52-2.66Zm-139.86,88.82c-.76-.31-1.45-.47-2.06-.47-3.19,.16-6.38,.31-9.57,.47-18.87,.76-37.57,1.78-56.12,3.07-14.91,1.04-29.68,2.69-44.39,4.96-1.74,.26-3.5,.54-5.24,.83-.2,1.93-.37,3.86-.48,5.79-1.68,27.43,4.45,55.01,17.6,78.85,1.16,2.12,2.37,4.21,3.64,6.26,1.67-1.73,3.34-3.44,5.02-5.15,29.08-29.79,58.64-59.13,88.63-88.01,.45-.31,.83-.61,1.14-.92,.76-.6,1.45-1.29,2.05-2.05,.61-.76,.92-1.83,.92-3.19-.45-.15-.83-.31-1.14-.45Zm115.56-105.07c-.78-.57-1.57-1.11-2.36-1.64-.89-.61-1.8-1.21-2.71-1.8-.51-.34-1.02-.67-1.54-.97-.59-.39-1.18-.78-1.77-1.11-.34-.22-.67-.42-1.01-.61-.82-.5-1.64-.98-2.47-1.46-1.05-.61-2.14-1.23-3.22-1.81-1.08-.6-2.17-1.18-3.26-1.74-1.1-.57-2.19-1.13-3.29-1.65-.04-.03-.09-.06-.13-.07-1.07-.51-2.14-1.01-3.2-1.51-7.83-3.6-15.96-6.55-24.29-8.79-1.21-.34-2.43-.66-3.66-.95-19.57-4.78-40.19-5.81-60.2-2.82-20.03,2.94-39.47,9.85-56.91,20.26-17.44,10.39-32.87,24.26-45.09,40.6-12.22,16.33-21.18,35.1-26.16,54.93-.38,1.54-.75,3.09-1.1,4.62-.25,1.16-.48,2.33-.7,3.5-.16,.72-.29,1.43-.41,2.15-.15,.76-.28,1.54-.39,2.3-.31,1.83-.57,3.66-.8,5.49-.12,.88-.22,1.74-.31,2.62,4.24-.89,8.54-1.64,12.89-2.25,.97-.13,1.95-.26,2.93-.38,.76-.1,1.51-.2,2.27-.29,37.28-4.84,75.06-7.62,113.38-8.37,6.85-.15,12.55-2.52,17.12-7.08,27.9-26.25,55.86-52.4,83.84-78.49,.88-.82,1.76-1.64,2.63-2.47,3.51-3.25,7.01-6.51,10.52-9.77-.19-.15-.4-.29-.6-.41Z"/><g><path class="g" d="M546.98,275.81c-.22-4.8-.63-8.53-1.04-11.03-.95-4.33-1.89-4.17-2.79-.18-.48,2.24-1.01,5.65-1.54,9.98-.76,4.34-1.43,9.67-2.69,15.8-2.4,12.27-6.35,27.96-13.91,45.21-3.77,8.6-8.34,17.63-14.03,26.68-1.23,1.96-2.52,3.91-3.86,5.87,1.73-2.72,3.36-5.5,4.94-8.3-13.9,23.04-32.39,42.72-55.48,59.04-.85,.6-1.68,1.21-2.53,1.8l-2.6,1.68c-1.74,1.11-3.47,2.27-5.22,3.35-3.58,2.05-7.08,4.21-10.75,6.04-7.23,3.88-14.78,7.05-22.35,9.95-3.85,1.3-7.64,2.74-11.54,3.79-1.95,.56-3.88,1.16-5.82,1.67l-5.87,1.4-2.94,.67-2.97,.56-5.91,1.11-5.94,.8c-1.99,.28-3.96,.56-5.95,.69-15.87,1.48-31.8,1.18-47.43-1.27-3.91-.66-7.81-1.24-11.66-2.18-1.92-.44-3.86-.82-5.76-1.32l-5.72-1.55c-.95-.26-1.9-.51-2.85-.8l-2.81-.91-5.62-1.84-5.53-2.11c-1.84-.7-3.69-1.4-5.47-2.22-14.5-6.23-28.26-14.15-40.77-23.82-6.35-4.74-12.22-10.07-17.95-15.57l-4.15-4.27-2.06-2.15-1.98-2.22-3.95-4.49-3.75-4.67-1.87-2.34-1.76-2.43-3.53-4.87-3.29-5.03c-1.11-1.67-2.19-3.36-3.19-5.12l-3.06-5.22c-.97-1.76-1.89-3.57-2.82-5.35-1.95-3.55-3.53-7.29-5.25-10.97-3.15-7.49-6.09-15.14-8.27-23.06-1.21-3.92-2.09-7.96-3.06-11.97-.5-2-.79-4.07-1.18-6.09-.35-2.05-.8-4.08-1.05-6.14-.2-1.39-.4-2.78-.57-4.17-.8-.47-1.59-.94-2.38-1.42-1.38-.95-2.6-1.92-3.69-2.88,.76,8.79,2.11,17.54,4.1,26.16l.76,3.41c.26,1.14,.6,2.25,.89,3.38,.61,2.25,1.21,4.51,1.87,6.74,1.45,4.42,2.81,8.88,4.55,13.2,1.59,4.39,3.53,8.62,5.4,12.87,.99,2.11,2.06,4.17,3.09,6.25l1.58,3.1,1.7,3.04c17.97,32.52,45.09,59.59,77.26,77.54,8.06,4.45,16.39,8.4,24.96,11.75,2.12,.86,4.32,1.58,6.47,2.36,2.17,.79,4.33,1.54,6.54,2.17l6.6,1.97,6.67,1.67c1.13,.26,2.22,.56,3.35,.8l3.36,.66c2.25,.42,4.49,.91,6.76,1.27,4.52,.64,9.04,1.4,13.59,1.74,9.08,.98,18.2,1.07,27.28,.83,13.03-.5,25.18-1.96,38.29-4.9,13.09-2.97,27.2-7.5,43.35-15.65,22.62-11.45,42.65-27.43,58.31-45.38,15.8-17.89,26.98-37.79,34.29-56.29,3.58-9.3,6.25-18.26,8.15-26.58,.51-2.06,.83-4.13,1.23-6.13,.37-1.99,.78-3.94,1.04-5.84,.48-3.82,1.04-7.42,1.29-10.81,.22-3.39,.5-6.55,.54-9.47,.03-2.93,.03-5.59-.01-7.99Zm-102.99-181c-16.5-9.25-34.39-16.08-52.87-20.16-9.25-1.99-18.61-3.5-28.04-4.08l-3.53-.28c-1.17-.06-2.36-.07-3.53-.12l-7.08-.18c-4.71,.13-9.42,.1-14.13,.54-2.36,.2-4.71,.28-7.05,.6l-7.04,.88c-2.34,.29-4.65,.78-6.98,1.16l-3.5,.63-3.45,.76c-9.26,1.93-18.3,4.77-27.15,8.06-35.39,13.33-66.51,37.16-88.68,67.47-11.13,15.14-20.06,31.91-26.41,49.56l-2.3,6.66-1.99,6.74c-.69,2.24-1.23,4.52-1.77,6.8-.51,2.28-1.14,4.55-1.55,6.86-1.9,9.17-3.01,18.48-3.67,27.8-.15,2.87-.25,5.73-.29,8.62,.25-.23,.51-.48,.79-.73,1.46-1.16,2.98-2.24,4.56-3.22,.35-13.97,2.24-27.88,5.66-41.46,6.1-24.34,17.12-47.37,32.07-67.35,14.95-19.98,33.81-36.95,55.18-49.7,21.36-12.76,45.23-21.26,69.77-24.86,24.53-3.66,49.64-2.43,73.7,3.44,24.04,5.87,46.87,16.5,66.84,31,1.54,1.11,3.06,2.25,4.56,3.42,.88-.8,1.77-1.58,2.66-2.36-7.83-6.12-16.12-11.65-24.8-16.52ZM158.29,267.19c-.38,.29-.75,.6-1.1,.92-1.83,1.67-2.66,4.04-2.52,7.07,.47,2.59,1.57,4.61,3.32,6.06,.37,.31,.75,.6,1.13,.88-.47-4.96-.76-9.95-.83-14.92Zm358.06,87.35c-1.01,1.78-2.14,3.53-3.2,5.3-2.09,3.55-4.54,6.89-6.83,10.3-1.2,1.67-2.47,3.31-3.7,4.94l-.82,1.08h-.01c-2.21,3.16-4.49,6.23-6.86,9.22,9.48-11.12,17.63-23.19,24.43-36.28l-3,5.44Zm-41.34-238.12c-.83,.69-1.71,1.45-2.66,2.27,2.14,1.78,4.23,3.63,6.28,5.52,.45-1.14,.91-2.27,1.38-3.41-1.64-1.49-3.31-2.96-4.99-4.37Zm67.97,137.01c-.07-1.64-.15-3.42-.23-5.33-.06-.95-.12-1.93-.18-2.94-.1-1.01-.22-2.03-.32-3.1-.25-2.11-.51-4.32-.78-6.6-.37-2.27-.79-4.59-1.21-6.98-1.78-9.26-4.1-18.45-7.27-27.36-3.1-8.92-6.76-17.67-11.19-26.03-4.37-8.37-9.26-16.49-14.85-24.11-5.56-7.64-11.54-14.97-18.18-21.7-.99-1.02-2-2.05-3.03-3.06-.09,.23-.19,.45-.28,.67-.15,.45-.31,.83-.45,1.14-.22,.54-.44,1.08-.64,1.62,10.42,10.34,19.65,21.87,27.44,34.32,13.14,20.91,22.19,44.42,26.46,68.77,.47,2.37,.76,4.68,1.07,6.91,.29,2.22,.64,4.34,.86,6.36,.37,4.02,.83,7.59,1.04,10.5,.41,5.84,.82,9.07,1.18,8.24,.32-.53,.64-4.78,.56-11.35Z"/><path class="g" d="M529.46,274.84c-.23-4.37-.66-7.78-1.07-10.07-.95-4.33-1.89-4.17-2.79-.18-.48,2.06-.99,5.15-1.52,9.1-.73,3.95-1.36,8.78-2.56,14.35-2.24,11.13-5.88,25.34-12.79,40.96-3.44,7.8-7.59,15.98-12.77,24.17-1.2,1.9-2.46,3.8-3.77,5.71,1.65-2.6,3.23-5.24,4.73-7.91-12.63,20.89-29.43,38.7-50.35,53.51-.78,.54-1.52,1.1-2.3,1.62l-2.37,1.54c-1.58,1.01-3.13,2.05-4.73,3.03-3.25,1.86-6.41,3.85-9.76,5.49-6.54,3.53-13.37,6.39-20.25,9.03-3.48,1.17-6.91,2.49-10.45,3.44-1.7,.48-3.41,1.02-5.12,1.48-.82,1.36-1.78,2.63-2.85,3.85-3.39,2.52-6.16,2.06-8.29-1.35l-5.03,.94-5.4,.75c-1.78,.25-3.58,.51-5.38,.63-14.41,1.33-28.89,1.1-43.07-1.11-3.53-.6-7.08-1.13-10.56-1.97-1.74-.4-3.5-.73-5.24-1.18l-5.18-1.4c-.85-.23-1.73-.45-2.57-.72l-2.56-.83-5.09-1.67-5.02-1.9c-1.67-.63-3.34-1.26-4.96-2-13.15-5.63-25.66-12.8-37.03-21.58-5.76-4.29-11.09-9.13-16.3-14.1l-3.77-3.88-1.89-1.95-1.8-2.03-3.58-4.07-3.39-4.24-1.71-2.12-.09-.12c-1.01,.37-2.08-.03-3.2-1.14-1.52-1.68-1.9-3.09-1.14-4.23,.07-.1,.15-.22,.23-.32l-.6-.82-3-4.56c-1.01-1.52-2-3.06-2.9-4.65l-2.78-4.73c-.88-1.61-1.71-3.25-2.56-4.87-1.77-3.22-3.2-6.61-4.77-9.95-2.87-6.79-5.54-13.72-7.52-20.92-1.11-3.55-1.9-7.21-2.78-10.86-.47-1.81-.72-3.69-1.08-5.53-.31-1.84-.75-3.69-.97-5.56-1.55-10.33-2.17-20.79-1.84-31.22-1.78,.67-3.55,1.39-5.31,2.15-.26,9.41,.16,18.84,1.32,28.18,1.76,.92,3.32,2.25,4.67,3.98-.45,1.67-1.17,2.47-2.17,2.38-.53-.04-1.08-.16-1.64-.37,.59,3.7,1.3,7.4,2.15,11.06l.69,3.12c.23,1.02,.54,2.05,.8,3.07l1.7,6.13c1.33,4.02,2.55,8.09,4.14,12.03,1.43,3.99,3.2,7.84,4.9,11.72,.89,1.92,1.87,3.8,2.81,5.69l1.42,2.84,1.55,2.77c16.33,29.65,41.05,54.36,70.34,70.78,7.36,4.04,14.94,7.67,22.73,10.74,1.95,.78,3.94,1.43,5.9,2.15,1.98,.72,3.95,1.4,5.95,1.97l6.01,1.81,6.09,1.52c1.01,.25,2.02,.53,3.04,.73l3.07,.61c2.05,.39,4.1,.83,6.16,1.17,4.13,.59,8.24,1.3,12.39,1.61,8.29,.91,16.62,.99,24.91,.8,11.91-.42,23-1.74,34.95-4.4,11.95-2.68,24.84-6.79,39.59-14.21,20.66-10.45,38.96-25.05,53.25-41.46,14.44-16.34,24.59-34.54,31.25-51.44,3.25-8.5,5.65-16.68,7.34-24.26,.47-1.89,.75-3.77,1.11-5.6,.32-1.81,.69-3.58,.92-5.33,.41-3.5,.92-6.77,1.13-9.86,.18-3.1,.42-5.98,.45-8.65,0-2.66-.03-5.11-.07-7.29Zm-4.01-20.41c-.06-1.49-.13-3.12-.2-4.84-.04-.86-.1-1.76-.15-2.68-.09-.92-.19-1.86-.29-2.82-.19-1.67-.39-3.39-.6-5.18h-2.71c.16,1.02,.29,2.05,.42,3.04,.26,2.02,.6,3.95,.79,5.78,.34,3.66,.79,6.89,.98,9.55,.4,5.3,.82,8.25,1.17,7.49,.32-.47,.64-4.36,.59-10.34Zm-24.55,91.79c-.94,1.62-1.96,3.2-2.93,4.8-1.9,3.22-4.14,6.23-6.23,9.33-1.1,1.51-2.25,2.98-3.38,4.46l-.75,.98-.04,.06c-1.97,2.84-4.04,5.63-6.17,8.32,8.63-10.08,16.03-21.02,22.22-32.87l-2.72,4.92Zm-113.54-254.42c-33.6-7.43-69.29-4.97-101.44,7.23-32.18,12.1-60.54,33.78-80.76,61.39-10.15,13.78-18.26,29.03-24.07,45.09l-2.09,6.04-1.8,6.14c-.64,2.05-1.13,4.11-1.62,6.19-.47,2.09-1.05,4.14-1.42,6.25-1.59,7.68-2.57,15.46-3.19,23.28,.12-.04,.25-.07,.37-.12,1.64-.56,3.28-1.1,4.93-1.61,.7-9.99,2.28-19.93,4.74-29.64,5.53-22.09,15.54-42.98,29.11-61.14,13.59-18.16,30.74-33.57,50.14-45.15,19.4-11.59,41.07-19.3,63.33-22.56,22.28-3.32,45.13-2.19,66.96,3.13,21.81,5.33,42.54,14.97,60.68,28.13,.59,.42,1.17,.85,1.74,1.29,.86-.82,1.74-1.62,2.6-2.43-20.14-15.19-43.54-26.1-68.22-31.51Zm74.29,36.31c-.83,.76-1.71,1.54-2.6,2.36,4.37,3.55,8.59,7.33,12.6,11.32,.45-1.16,.89-2.3,1.35-3.45-3.63-3.57-7.4-6.98-11.34-10.23Zm61.36,103.64c-1.64-8.43-3.73-16.78-6.61-24.87-2.82-8.12-6.14-16.06-10.17-23.66-3.98-7.62-8.43-15.01-13.52-21.94-4.33-5.97-8.95-11.73-14.03-17.12-.45,1.17-.91,2.34-1.36,3.51,7.29,7.91,13.85,16.47,19.57,25.59,11.47,18.24,19.52,38.67,23.57,59.88,.95,.06,1.9,.18,2.85,.32l-.31-1.71Z"/><path class="g" d="M471.66,162.74c-.45,1.21-.89,2.41-1.33,3.63,4.23,5.13,8.12,10.53,11.65,16.15,9.68,15.39,16.66,32.48,20.51,50.3,.95,0,1.9,.01,2.85,.03-5.18-25.66-16.9-49.96-33.68-70.1Zm-8.08-8.98c-.59-.61-1.18-1.21-1.78-1.81-.51-.51-1.01-1.01-1.52-1.51-3.75-3.66-7.67-7.12-11.76-10.39-.86,.79-1.73,1.58-2.6,2.38,6.76,5.31,13.08,11.18,18.86,17.53,.44-1.18,.89-2.37,1.33-3.54h0c-.83-.91-1.67-1.78-2.52-2.66Zm-79.98-44.81c-30.25-6.7-62.5-4.49-91.42,6.48-28.97,10.87-54.55,30.41-72.81,55.3-9.16,12.41-16.47,26.14-21.71,40.61l-1.89,5.44-1.64,5.53c-.57,1.84-1.01,3.72-1.45,5.57-.42,1.89-.97,3.73-1.29,5.62-1.02,4.86-1.76,9.74-2.3,14.67,1.73-.41,3.45-.79,5.21-1.16,.09-.88,.19-1.74,.31-2.62,.23-1.83,.5-3.66,.8-5.49,.12-.76,.25-1.54,.39-2.3,.12-.72,.25-1.43,.41-2.15,.22-1.17,.45-2.34,.7-3.5,.35-1.55,.7-3.09,1.1-4.62,4.97-19.84,13.94-38.61,26.16-54.93,12.22-16.34,27.65-30.21,45.09-40.6,17.44-10.42,36.88-17.32,56.91-20.26,20.01-2.98,40.63-1.96,60.2,2.82,1.23,.29,2.44,.61,3.66,.95,8.32,2.24,16.46,5.19,24.29,8.79,1.07,.48,2.14,.99,3.2,1.51,.04,.01,.09,.04,.13,.07,1.1,.53,2.19,1.08,3.29,1.65,1.1,.56,2.18,1.14,3.26,1.74,1.08,.57,2.17,1.18,3.22,1.81,.83,.47,1.65,.95,2.47,1.46,.34,.19,.67,.4,1.01,.61,.59,.34,1.18,.72,1.77,1.11,.51,.29,1.02,.63,1.54,.97,.91,.59,1.81,1.18,2.71,1.8,.79,.53,1.58,1.07,2.36,1.64,.2,.12,.41,.26,.6,.41,.88-.82,1.74-1.62,2.62-2.43-17.57-12.73-37.71-21.89-58.9-26.54Zm-165.66,238.64c-.91-1.36-1.8-2.74-2.6-4.17l-2.5-4.26c-.79-1.43-1.54-2.91-2.3-4.36-1.61-2.88-2.88-5.94-4.3-8.94-2.56-6.1-4.99-12.32-6.76-18.77-1.01-3.19-1.71-6.48-2.5-9.76-.42-1.62-.64-3.31-.98-4.96-.28-1.67-.67-3.31-.86-5-1.7-11.15-2.17-22.5-1.4-33.76-1.77,.35-3.51,.76-5.25,1.2-.06,.51-.09,1.02-.13,1.54-.82,15.33,.23,30.78,3.67,45.7l.6,2.79c.22,.94,.5,1.86,.75,2.78l1.51,5.53c1.21,3.63,2.28,7.3,3.73,10.84,1.27,3.6,2.88,7.07,4.4,10.58,.8,1.73,1.68,3.42,2.52,5.13l1.29,2.56,1.39,2.5c1.97,3.6,4.1,7.12,6.35,10.55,1.67-1.74,3.35-3.48,5.05-5.21l-1.65-2.52Zm169.18,65.55l-7.15,1.71-2.41,.44-4.8,.91-4.84,.67c-1.61,.22-3.22,.47-4.84,.57-12.93,1.2-25.97,1.02-38.68-.97-3.17-.54-6.35-.99-9.48-1.76-1.57-.35-3.15-.64-4.7-1.05l-4.64-1.26c-.78-.2-1.57-.39-2.33-.63l-2.28-.75-4.58-1.49-4.51-1.7c-1.49-.57-3-1.13-4.46-1.8-11.79-5.05-23.04-11.45-33.25-19.34-5.19-3.83-9.98-8.19-14.67-12.65l-3.39-3.48-1.7-1.74-1.61-1.83-3.23-3.66-3.06-3.8-1.54-1.9-1.43-1.99-.12-.15c-1.74,1.73-3.48,3.45-5.22,5.16,14.04,19.72,32.45,36.28,53.44,48.09,6.63,3.66,13.46,6.95,20.5,9.73,1.76,.72,3.55,1.29,5.33,1.95,1.77,.66,3.55,1.29,5.37,1.8l5.43,1.65,5.49,1.38c.92,.22,1.83,.48,2.75,.67l2.78,.56c1.84,.35,3.69,.76,5.54,1.07,3.73,.53,7.45,1.2,11.21,1.48,7.5,.85,15.04,.92,22.56,.78,6.79-.23,13.27-.78,19.85-1.74-.53-1.8-.47-3.06,.16-3.8,.83-.98,2.93-1.48,6.28-1.48,1.05-.15,1.86-.53,2.38-1.14,.54-.6,.95-1.36,1.26-2.28,.15-.31,.23-.6,.23-.91,.94-2.17,1.83-4.34,2.68-6.55-1.43,.41-2.87,.86-4.3,1.24Zm124.82-139.26c-.26-3.96-.69-7.04-1.1-9.1-.95-4.33-1.89-4.17-2.79-.18-.48,1.9-.99,4.65-1.49,8.22-.72,3.54-1.32,7.9-2.43,12.9-2.09,9.99-5.43,22.73-11.67,36.72-3.12,6.98-6.86,14.31-11.51,21.67-1.04,1.62-2.11,3.25-3.25,4.87,1.42-2.25,2.78-4.55,4.07-6.88-11.35,18.73-26.48,34.67-45.25,47.97-.69,.5-1.36,1.01-2.06,1.48l-2.12,1.38c-1.42,.89-2.81,1.84-4.23,2.72-2.93,1.65-5.75,3.45-8.75,4.92-5.87,3.17-12,5.73-18.14,8.1-.32,.1-.63,.22-.95,.32-1.74,5.03-3.6,10.01-5.59,14.92-.15,.15-.31,.38-.45,.69-.04,.15-.1,.28-.15,.41,9.71-2.41,20.16-5.98,31.94-11.89,18.7-9.42,35.27-22.65,48.2-37.51,13.06-14.82,22.21-31.31,28.18-46.6,2.91-7.68,5.06-15.08,6.57-21.94,.42-1.7,.66-3.41,.98-5.06,.28-1.64,.61-3.23,.8-4.81,.35-3.16,.8-6.12,.97-8.92,.15-2.79,.35-5.4,.35-7.81-.01-2.41-.06-4.61-.12-6.58Zm-44.05,89.09c1.92-2.44,3.77-4.96,5.57-7.53,0-.01,.01-.03,.03-.04l.64-.83c1.01-1.33,2.05-2.65,3.04-4.01,1.87-2.77,3.91-5.46,5.62-8.35,.88-1.43,1.81-2.84,2.65-4.3l2.46-4.4c-5.57,10.64-12.24,20.44-20.01,29.48Zm39.87-111.89c-.03-.79-.07-1.59-.12-2.41-.09-.83-.18-1.67-.26-2.55-.19-1.73-.41-3.54-.61-5.4-.09-.6-.19-1.2-.31-1.81h-2.75c2.69,15.36,2.69,27.24,3.61,25.86,.32-.42,.64-3.94,.61-9.32-.04-1.36-.1-2.82-.18-4.37Z"/><path class="g" d="M464.59,182.3c-.45,1.26-.89,2.5-1.33,3.76h0c1.32,1.89,2.59,3.79,3.8,5.73,7.93,12.58,13.81,26.44,17.38,40.89,.98,.01,1.95,.03,2.91,.04-4.15-18.07-11.97-35.29-22.76-50.43Zm-13.61-16.31c-4.83-5-10.04-9.64-15.55-13.88-.86,.79-1.73,1.59-2.6,2.41,9.33,7.05,17.8,15.29,25.1,24.45,.44-1.23,.86-2.46,1.3-3.69-2.6-3.22-5.37-6.32-8.25-9.29Zm-71.14-39.88c-6.73-1.45-13.55-2.59-20.45-3l-2.57-.22c-.86-.04-1.73-.04-2.6-.07l-5.18-.15c-3.45,.13-6.92,.06-10.36,.4-1.71,.16-3.45,.18-5.15,.42l-5.13,.64c-1.71,.2-3.39,.57-5.09,.85l-2.55,.44-2.53,.56c-6.74,1.38-13.31,3.47-19.76,5.84-25.76,9.66-48.6,27.06-64.87,49.21-13.87,18.74-22.92,40.8-26.39,63.74,.97-.13,1.95-.26,2.93-.38,.76-.1,1.51-.2,2.27-.29,.66-4.52,1.55-9.01,2.66-13.44,4.39-17.57,12.35-34.23,23.19-48.73,10.86-14.5,24.56-26.83,40.06-36.05,15.48-9.23,32.7-15.35,50.46-17.95,8.87-1.33,17.91-1.77,26.9-1.33,8.98,.42,17.88,1.71,26.55,3.83,15.86,3.88,30.99,10.59,44.52,19.74,.88-.82,1.76-1.64,2.63-2.47-14.94-10.27-31.83-17.69-49.52-21.58Zm-149.38,208.4l-2.22-3.76c-.7-1.27-1.35-2.59-2.05-3.88-1.43-2.55-2.53-5.27-3.82-7.91-2.27-5.4-4.43-10.9-6-16.63-.91-2.82-1.51-5.73-2.22-8.63-.4-1.45-.57-2.94-.86-4.4-.25-1.48-.61-2.94-.78-4.43-1.38-9-1.84-18.16-1.43-27.28,.12-2.33,.28-4.65,.51-6.96-1.74,.26-3.5,.54-5.24,.83-.2,1.93-.37,3.86-.48,5.79-1.68,27.43,4.45,55.01,17.6,78.85,1.16,2.12,2.37,4.21,3.64,6.26,1.67-1.73,3.34-3.44,5.02-5.15-.59-.88-1.16-1.77-1.67-2.69Zm164.79,57.66c-2.77,.92-5.47,2-8.28,2.74-1.4,.41-2.78,.85-4.18,1.23l-4.21,1.01-2.11,.51-2.14,.4-4.24,.8-4.29,.59c-1.43,.2-2.85,.44-4.29,.51-11.47,1.08-23.07,.95-34.31-.79-2.81-.48-5.63-.86-8.4-1.54-1.39-.32-2.78-.57-4.15-.92l-4.11-1.11c-.69-.19-1.38-.37-2.06-.57l-2.02-.66-4.05-1.3-3.98-1.51c-1.35-.5-2.68-.98-3.96-1.58-10.45-4.45-20.42-10.11-29.49-17.09-4.62-3.39-8.87-7.27-13.03-11.21l-3.01-3.09c-.51-.53-1.02-1.02-1.52-1.55l-1.42-1.62-2.88-3.23-2.72-3.38-1.36-1.68-1.27-1.76-1.73-2.36c-1.73,1.71-3.44,3.42-5.16,5.12,12.68,18.58,29.65,34.17,49.11,45.18,23.55,13.39,50.68,19.76,77.64,18.97,9.63-.31,18.59-1.3,28.28-3.38,2.38-.53,4.83-1.11,7.33-1.8,1.95-5.28,3.64-10.66,5.15-16.17-1.04,.41-2.08,.82-3.12,1.23Zm99.14-119.25c-.28-3.54-.72-6.29-1.11-8.13-.95-4.33-1.9-4.17-2.79-.18-.48,1.73-.99,4.15-1.48,7.33-.69,3.16-1.24,7.02-2.3,11.45-1.93,8.87-4.94,20.13-10.53,32.49-2.81,6.17-6.13,12.65-10.28,19.15-.95,1.48-1.93,2.97-2.96,4.45,1.29-2.05,2.5-4.13,3.67-6.23-10.09,16.56-23.54,30.66-40.14,42.44-.61,.44-1.21,.89-1.83,1.3l-1.87,1.21c-1.26,.8-2.49,1.64-3.75,2.41-2.59,1.46-5.09,3.07-7.74,4.36-1.42,.78-2.85,1.51-4.3,2.19-1.58,5.82-3.31,11.57-5.18,17.25,5.08-1.78,10.43-4.04,16.12-6.88,16.72-8.41,31.59-20.28,43.16-33.59,11.69-13.27,19.82-28.06,25.12-41.72,2.57-6.89,4.46-13.5,5.78-19.63,.37-1.54,.56-3.06,.83-4.52,.25-1.48,.54-2.91,.7-4.32,.29-2.82,.7-5.47,.8-7.97,.1-2.52,.28-4.83,.25-6.98-.04-2.17-.1-4.13-.18-5.9Zm-40.03,78.87c1.68-2.17,3.32-4.37,4.87-6.66l.04-.06,.6-.78c.91-1.17,1.84-2.33,2.72-3.53,1.67-2.46,3.5-4.83,5.02-7.39,.78-1.27,1.61-2.5,2.36-3.8l2.21-3.89c-4.97,9.41-10.91,18.08-17.82,26.1Zm35.9-99.2c-.04-.7-.07-1.42-.1-2.15-.06-.75-.15-1.49-.23-2.27-.18-1.54-.35-3.15-.54-4.81-.25-1.43-.51-2.93-.76-4.43h-2.81c.18,.86,.34,1.74,.5,2.6,2.47,13.75,2.52,24.49,3.44,23.26,.32-.38,.63-3.51,.64-8.31-.04-1.2-.09-2.5-.13-3.89Z"/></g></g><text class="h" transform="translate(95.38 560.19)"><tspan x="0" y="0">Authentique</tspan></text><text class="f" transform="translate(167.21 622.81)"><tspan x="0" y="0">- MICROBR</tspan><tspan class="e" x="199.73" y="0">A</tspan><tspan x="225.58" y="0">SSERIE -</tspan></text></g></g><g id="c"/></svg>