<?xml version="1.0" encoding="UTF-8"?><svg xmlns="http://www.w3.org/2000/svg" viewBox="0 0 689.94 689.94"><defs><style>.d{fill:#fff;}.e{fill:#eabe50;}.f{fill:none;stroke:#eabe50;stroke-miterlimit:10;stroke-width:6px;}</style></defs><g id="a"/><g id="b"><g id="c"><g><circle class="d" cx="344.97" cy="344.97" r="344.97"/><path d="M222.33,94.05c.4,.82,.45,1.68,.15,2.55-.3,.88-.88,1.53-1.73,1.94-.8,.39-1.64,.43-2.51,.13-.88-.3-1.52-.87-1.92-1.69-.39-.8-.43-1.63-.13-2.51,.3-.88,.85-1.51,1.65-1.9,.85-.42,1.72-.47,2.6-.17,.88,.3,1.51,.85,1.9,1.65Z"/><path d="M236.24,87.7c.36,.85,.36,1.7,0,2.56-.35,.86-.96,1.48-1.84,1.84-.82,.34-1.66,.34-2.52,0s-1.47-.95-1.83-1.79c-.34-.82-.34-1.66,0-2.52,.35-.86,.93-1.46,1.75-1.81,.87-.37,1.74-.38,2.6-.03,.86,.35,1.46,.93,1.81,1.75Z"/><path d="M250.48,82.14c.31,.86,.27,1.72-.13,2.56-.4,.84-1.04,1.42-1.93,1.74-.84,.3-1.67,.25-2.51-.15s-1.41-1.03-1.72-1.89c-.3-.83-.25-1.67,.15-2.51,.4-.84,1.01-1.41,1.85-1.71,.89-.32,1.76-.28,2.6,.12,.84,.4,1.41,1.01,1.71,1.85Z"/><path d="M265.01,77.36c.26,.88,.17,1.73-.27,2.54-.44,.82-1.12,1.36-2.03,1.63-.85,.25-1.68,.16-2.5-.29-.82-.44-1.36-1.1-1.62-1.98-.25-.85-.16-1.68,.29-2.5,.44-.82,1.09-1.35,1.94-1.6,.91-.27,1.77-.18,2.59,.26,.82,.44,1.35,1.09,1.6,1.94Z"/><path d="M279.8,73.39c.21,.89,.07,1.73-.41,2.53-.49,.79-1.19,1.3-2.11,1.52-.86,.21-1.69,.06-2.48-.42s-1.29-1.18-1.5-2.07c-.2-.86-.06-1.69,.42-2.48,.49-.79,1.16-1.29,2.02-1.49,.92-.22,1.78-.08,2.57,.4,.79,.49,1.29,1.16,1.49,2.03Z"/><path d="M294.76,70.25c.16,.9-.02,1.74-.55,2.5-.53,.76-1.26,1.23-2.2,1.4-.87,.16-1.69-.03-2.45-.56-.76-.53-1.23-1.25-1.39-2.15-.16-.87,.03-1.69,.56-2.45,.53-.76,1.23-1.22,2.1-1.38,.93-.17,1.78,.01,2.54,.54,.76,.53,1.22,1.23,1.38,2.1Z"/><path d="M309.88,67.93c.11,.91-.12,1.73-.69,2.46s-1.33,1.16-2.27,1.27c-.88,.11-1.69-.12-2.42-.69-.73-.57-1.16-1.31-1.27-2.22-.11-.88,.12-1.69,.69-2.42,.57-.73,1.3-1.15,2.18-1.26,.94-.12,1.78,.11,2.51,.68,.73,.57,1.15,1.3,1.26,2.18Z"/><path d="M325.1,66.44c.06,.91-.21,1.72-.82,2.42-.61,.7-1.39,1.08-2.33,1.15-.88,.06-1.68-.21-2.38-.82-.7-.61-1.08-1.37-1.15-2.29-.06-.88,.21-1.68,.82-2.38,.61-.7,1.36-1.08,2.24-1.14,.94-.06,1.77,.21,2.47,.82,.7,.61,1.08,1.36,1.14,2.24Z"/><path d="M340.35,65.78c.01,.92-.3,1.71-.95,2.38-.65,.67-1.44,1.01-2.39,1.02-.89,.01-1.66-.3-2.33-.95-.67-.65-1.01-1.43-1.02-2.35-.01-.89,.3-1.66,.95-2.33,.65-.67,1.41-1.01,2.3-1.02,.95-.02,1.75,.3,2.42,.95,.67,.65,1.01,1.41,1.02,2.3Z"/><path d="M355.71,65.95c-.04,.92-.4,1.69-1.08,2.32-.68,.63-1.5,.93-2.44,.89-.89-.03-1.64-.39-2.28-1.08-.63-.68-.93-1.48-.89-2.4,.03-.89,.39-1.64,1.08-2.28,.68-.63,1.47-.93,2.35-.89,.95,.04,1.74,.4,2.37,1.08,.63,.68,.93,1.47,.89,2.35Z"/><path d="M370.96,66.94c-.09,.91-.49,1.67-1.2,2.26-.72,.59-1.55,.85-2.49,.76-.88-.08-1.62-.48-2.21-1.2s-.85-1.53-.76-2.44c.08-.88,.48-1.62,1.2-2.21,.72-.59,1.51-.85,2.4-.77,.94,.09,1.71,.49,2.3,1.21,.59,.72,.85,1.52,.77,2.4Z"/><path d="M386.16,68.76c-.13,.91-.58,1.64-1.32,2.19-.75,.55-1.59,.76-2.53,.62-.88-.13-1.59-.57-2.14-1.32-.55-.75-.76-1.57-.63-2.48,.13-.88,.57-1.59,1.32-2.14,.75-.55,1.56-.76,2.44-.63,.94,.14,1.68,.58,2.24,1.33,.55,.75,.76,1.56,.63,2.44Z"/><path d="M401.21,71.41c-.19,.9-.67,1.6-1.44,2.11-.78,.51-1.63,.67-2.56,.48-.87-.18-1.56-.66-2.07-1.43-.51-.78-.67-1.61-.49-2.51,.18-.87,.66-1.56,1.43-2.07,.78-.51,1.6-.68,2.47-.5,.93,.19,1.65,.68,2.16,1.45,.51,.78,.68,1.6,.5,2.47Z"/><path d="M416.1,74.89c-.23,.89-.75,1.56-1.56,2.03s-1.66,.58-2.58,.34c-.86-.23-1.52-.74-1.99-1.55-.47-.8-.58-1.65-.35-2.54,.23-.86,.74-1.52,1.55-1.99,.8-.47,1.63-.59,2.49-.36,.92,.24,1.61,.77,2.08,1.57,.47,.8,.59,1.63,.36,2.49Z"/><path d="M430.78,79.18c-.28,.87-.84,1.52-1.67,1.94-.83,.42-1.69,.49-2.59,.2-.84-.27-1.48-.82-1.9-1.65-.42-.83-.49-1.68-.21-2.55,.27-.84,.82-1.48,1.65-1.9,.83-.42,1.66-.5,2.51-.22,.9,.29,1.56,.85,1.99,1.68,.42,.83,.5,1.66,.22,2.51Z"/><path d="M445.21,84.28c-.33,.86-.92,1.47-1.77,1.85-.85,.38-1.72,.39-2.6,.05-.83-.32-1.43-.9-1.81-1.75s-.4-1.7-.07-2.56c.32-.83,.9-1.43,1.75-1.8,.85-.38,1.69-.4,2.52-.08,.88,.34,1.51,.94,1.89,1.79,.38,.85,.4,1.69,.09,2.52Z"/><path d="M459.32,90.15c-.38,.84-1,1.42-1.87,1.75s-1.74,.3-2.6-.09c-.81-.36-1.38-.98-1.71-1.85-.33-.87-.3-1.72,.07-2.56,.37-.81,.98-1.38,1.85-1.71s1.71-.31,2.52,.05c.86,.39,1.46,1.02,1.79,1.89,.33,.87,.31,1.71-.05,2.52Z"/><path d="M473.09,96.81c-.42,.81-1.08,1.36-1.96,1.64-.89,.28-1.75,.2-2.59-.23-.79-.41-1.32-1.06-1.6-1.94-.28-.89-.21-1.74,.21-2.55,.41-.79,1.05-1.32,1.94-1.6,.89-.28,1.72-.22,2.51,.19,.84,.44,1.4,1.1,1.68,1.98,.28,.89,.22,1.72-.19,2.51Z"/><path d="M486.47,104.2c-.47,.79-1.15,1.3-2.05,1.53-.9,.23-1.76,.11-2.57-.38-.76-.45-1.26-1.13-1.49-2.03-.23-.9-.11-1.75,.35-2.53,.45-.76,1.13-1.26,2.03-1.49,.9-.23,1.73-.12,2.49,.33,.82,.48,1.34,1.17,1.57,2.07,.23,.9,.12,1.73-.33,2.5Z"/><path d="M499.44,112.33c-.51,.76-1.22,1.24-2.13,1.42-.91,.18-1.76,0-2.55-.52-.74-.49-1.2-1.19-1.38-2.11-.18-.91-.02-1.75,.49-2.51,.49-.74,1.19-1.2,2.11-1.38s1.74-.03,2.47,.47c.79,.53,1.27,1.24,1.46,2.16,.18,.91,.03,1.74-.47,2.47Z"/><path d="M511.94,121.14c-.55,.73-1.29,1.17-2.21,1.3-.92,.13-1.76-.09-2.52-.66-.71-.53-1.13-1.26-1.26-2.18-.13-.92,.08-1.75,.63-2.48,.53-.71,1.26-1.13,2.18-1.26,.92-.13,1.73,.07,2.44,.6,.76,.57,1.2,1.31,1.34,2.23,.13,.92-.07,1.74-.6,2.44Z"/><path d="M523.94,130.63c-.59,.7-1.35,1.09-2.27,1.18s-1.75-.18-2.48-.79c-.68-.57-1.06-1.32-1.14-2.24-.08-.93,.17-1.74,.76-2.44,.57-.68,1.32-1.06,2.24-1.14,.93-.08,1.73,.16,2.41,.73,.73,.61,1.13,1.38,1.21,2.3,.08,.93-.16,1.73-.73,2.41Z"/><path d="M535.42,140.77c-.63,.67-1.4,1.02-2.33,1.05-.93,.03-1.74-.28-2.43-.93-.65-.61-.99-1.37-1.02-2.3-.03-.93,.27-1.73,.89-2.4,.61-.65,1.37-.99,2.3-1.02,.93-.03,1.72,.26,2.37,.86,.69,.65,1.05,1.44,1.08,2.36,.03,.93-.26,1.72-.86,2.36Z"/><path d="M546.32,151.51c-.66,.63-1.46,.94-2.39,.92-.93-.02-1.72-.37-2.38-1.06-.61-.64-.91-1.43-.89-2.35,.02-.93,.36-1.71,1.02-2.35,.64-.61,1.42-.91,2.35-.89s1.7,.35,2.31,.99c.66,.68,.97,1.49,.95,2.42-.02,.93-.35,1.7-.99,2.31Z"/><path d="M556.61,162.82c-.69,.6-1.51,.86-2.43,.79-.93-.07-1.7-.47-2.32-1.18-.58-.67-.83-1.47-.76-2.4,.07-.93,.45-1.69,1.15-2.29,.67-.58,1.47-.83,2.4-.76,.93,.07,1.68,.44,2.26,1.11,.62,.72,.89,1.54,.82,2.47-.07,.93-.44,1.68-1.11,2.26Z"/><path d="M566.29,174.69c-.73,.56-1.55,.78-2.47,.66-.92-.12-1.67-.56-2.25-1.31-.54-.7-.75-1.52-.63-2.44,.12-.92,.55-1.66,1.27-2.22,.7-.54,1.51-.75,2.44-.63,.92,.12,1.65,.53,2.19,1.24,.58,.75,.81,1.59,.69,2.51-.12,.92-.53,1.65-1.24,2.19Z"/><path d="M575.28,187.05c-.76,.52-1.59,.69-2.51,.52-.91-.17-1.64-.65-2.17-1.43-.5-.73-.67-1.55-.49-2.47,.17-.91,.63-1.63,1.39-2.15,.73-.5,1.55-.67,2.47-.49,.91,.17,1.62,.62,2.12,1.35,.54,.78,.72,1.63,.55,2.54-.17,.91-.62,1.62-1.35,2.12Z"/><path d="M583.6,199.89c-.78,.48-1.63,.6-2.53,.38-.9-.22-1.6-.74-2.09-1.55-.46-.76-.58-1.59-.36-2.49,.22-.9,.72-1.59,1.51-2.07,.76-.46,1.59-.58,2.49-.36,.9,.22,1.58,.71,2.04,1.47,.49,.81,.63,1.67,.41,2.57-.22,.9-.71,1.58-1.47,2.04Z"/><path d="M591.19,213.16c-.81,.43-1.66,.51-2.55,.24-.89-.27-1.56-.82-2-1.66-.42-.78-.49-1.62-.22-2.51,.27-.89,.81-1.55,1.62-1.98,.78-.42,1.62-.49,2.51-.22,.89,.27,1.54,.8,1.96,1.58,.45,.84,.54,1.7,.27,2.59-.27,.89-.8,1.54-1.58,1.96Z"/><path d="M598.05,226.84c-.83,.39-1.68,.42-2.56,.1-.87-.32-1.51-.91-1.91-1.77-.37-.8-.4-1.64-.08-2.52,.32-.87,.89-1.5,1.72-1.89,.8-.37,1.64-.4,2.52-.08,.87,.32,1.5,.88,1.87,1.68,.4,.86,.44,1.72,.12,2.6-.32,.87-.88,1.5-1.68,1.87Z"/><path d="M604.14,240.86c-.85,.34-1.7,.33-2.56-.04-.85-.37-1.46-.99-1.81-1.87-.33-.82-.31-1.66,.05-2.52s.97-1.45,1.83-1.79c.82-.33,1.66-.31,2.52,.05,.85,.37,1.45,.96,1.78,1.78,.35,.88,.34,1.75-.02,2.6-.37,.85-.96,1.45-1.78,1.78Z"/><path d="M609.45,255.2c-.87,.29-1.72,.23-2.55-.18-.83-.41-1.4-1.07-1.7-1.97-.28-.84-.22-1.68,.19-2.51,.41-.83,1.05-1.4,1.92-1.69,.84-.28,1.68-.22,2.51,.19,.83,.41,1.39,1.04,1.68,1.88,.3,.9,.25,1.76-.16,2.6-.41,.83-1.04,1.39-1.88,1.68Z"/><path d="M613.97,269.82c-.88,.25-1.73,.14-2.54-.32-.81-.46-1.34-1.14-1.59-2.06-.24-.85-.13-1.69,.33-2.49,.46-.81,1.13-1.34,2.01-1.58,.85-.24,1.69-.13,2.49,.33,.81,.46,1.33,1.11,1.57,1.97,.25,.91,.15,1.77-.31,2.58-.46,.81-1.11,1.33-1.97,1.57Z"/><path d="M617.67,284.66c-.9,.2-1.74,.04-2.52-.46-.78-.5-1.28-1.22-1.48-2.14-.19-.87-.03-1.69,.47-2.47,.5-.78,1.2-1.27,2.1-1.47,.87-.19,1.69-.03,2.47,.47,.78,.5,1.27,1.19,1.46,2.05,.2,.93,.05,1.78-.45,2.56-.5,.78-1.19,1.27-2.05,1.46Z"/><path d="M620.54,299.66c-.91,.15-1.74-.05-2.49-.6-.75-.55-1.21-1.28-1.36-2.22-.14-.88,.06-1.69,.6-2.44,.54-.75,1.27-1.2,2.17-1.35,.87-.14,1.69,.06,2.44,.6,.75,.54,1.2,1.25,1.34,2.13,.15,.93-.04,1.78-.59,2.53-.54,.75-1.25,1.2-2.13,1.34Z"/><path d="M622.59,314.83c-.91,.1-1.73-.15-2.45-.73-.72-.58-1.14-1.35-1.23-2.29-.09-.88,.15-1.68,.74-2.41,.58-.72,1.33-1.13,2.24-1.23,.88-.09,1.68,.15,2.41,.74,.72,.58,1.13,1.32,1.22,2.2,.1,.94-.14,1.77-.73,2.5-.58,.72-1.32,1.13-2.2,1.22Z"/><path d="M623.81,330.08c-.92,.05-1.72-.24-2.41-.86-.69-.62-1.06-1.41-1.11-2.35-.05-.89,.24-1.67,.87-2.36,.62-.69,1.39-1.06,2.31-1.11,.89-.05,1.67,.24,2.36,.87,.69,.62,1.06,1.38,1.1,2.26,.05,.95-.24,1.76-.86,2.45-.62,.69-1.38,1.06-2.26,1.1Z"/><path d="M624.2,345.19c-.92-.01-1.7-.36-2.35-1.02-.65-.67-.96-1.48-.95-2.42,.01-.89,.36-1.65,1.02-2.3s1.46-.96,2.38-.95c.89,.01,1.65,.36,2.3,1.02s.96,1.44,.95,2.33c-.02,.95-.36,1.74-1.03,2.39-.67,.65-1.44,.96-2.33,.95Z"/><path d="M623.76,360.68c-.92-.05-1.68-.43-2.3-1.12-.62-.69-.9-1.51-.85-2.46,.05-.89,.42-1.64,1.12-2.26,.69-.62,1.5-.9,2.41-.85,.88,.05,1.64,.42,2.26,1.12,.62,.69,.9,1.48,.85,2.37-.05,.95-.43,1.73-1.12,2.35s-1.48,.9-2.37,.85Z"/><path d="M622.5,375.93c-.91-.1-1.66-.52-2.24-1.24-.58-.73-.82-1.56-.71-2.5,.1-.88,.51-1.61,1.24-2.19,.73-.58,1.55-.82,2.46-.72,.88,.1,1.61,.51,2.19,1.24,.58,.73,.82,1.53,.72,2.41-.11,.94-.52,1.7-1.25,2.28s-1.53,.82-2.41,.72Z"/><path d="M620.41,391.08c-.9-.15-1.63-.61-2.17-1.36-.54-.76-.73-1.6-.57-2.54,.15-.87,.6-1.58,1.36-2.12s1.59-.73,2.49-.58c.87,.15,1.58,.6,2.12,1.35,.54,.76,.74,1.57,.59,2.45-.16,.93-.61,1.67-1.37,2.21-.76,.54-1.57,.74-2.45,.59Z"/><path d="M617.49,406.09c-.89-.2-1.59-.69-2.09-1.48-.5-.79-.64-1.64-.43-2.57,.19-.87,.69-1.55,1.47-2.04,.79-.5,1.63-.65,2.52-.44,.87,.19,1.55,.68,2.04,1.47,.5,.79,.65,1.61,.45,2.48-.21,.92-.7,1.64-1.49,2.13-.79,.5-1.61,.65-2.48,.45Z"/><path d="M613.75,420.91c-.88-.25-1.55-.78-2-1.59-.45-.81-.55-1.67-.29-2.58,.24-.85,.77-1.51,1.58-1.96,.81-.45,1.66-.55,2.54-.3,.85,.24,1.51,.77,1.96,1.58,.45,.81,.56,1.64,.32,2.5-.26,.91-.79,1.59-1.61,2.05-.81,.45-1.64,.56-2.5,.32Z"/><path d="M609.18,435.53c-.87-.3-1.5-.87-1.91-1.7s-.46-1.7-.15-2.6c.29-.84,.85-1.46,1.69-1.87,.84-.41,1.69-.46,2.55-.16,.84,.29,1.46,.85,1.87,1.69,.41,.84,.47,1.67,.18,2.51-.31,.9-.88,1.55-1.72,1.96-.84,.41-1.67,.47-2.51,.18Z"/><path d="M603.83,449.84c-.85-.35-1.45-.95-1.81-1.8-.36-.86-.36-1.72,0-2.6,.33-.82,.93-1.41,1.79-1.77,.86-.36,1.71-.37,2.56-.02,.82,.33,1.41,.93,1.77,1.79,.36,.86,.37,1.7,.04,2.52-.36,.88-.96,1.5-1.82,1.86-.86,.36-1.7,.37-2.52,.04Z"/><path d="M597.7,463.84c-.83-.39-1.4-1.03-1.71-1.9-.31-.88-.27-1.74,.14-2.6,.38-.8,1.01-1.36,1.88-1.67s1.73-.27,2.56,.12c.8,.38,1.36,1.01,1.67,1.88,.31,.87,.28,1.71-.1,2.52-.41,.86-1.05,1.44-1.92,1.75-.88,.31-1.71,.28-2.52-.1Z"/><path d="M590.8,477.5c-.81-.44-1.34-1.1-1.61-1.99-.26-.89-.17-1.75,.28-2.59,.42-.78,1.08-1.3,1.97-1.57,.89-.26,1.74-.18,2.55,.26,.78,.42,1.3,1.08,1.57,1.97,.26,.89,.19,1.73-.24,2.51-.45,.83-1.12,1.38-2.01,1.65-.89,.26-1.73,.19-2.51-.24Z"/><path d="M583.16,490.76c-.78-.48-1.28-1.17-1.49-2.08-.21-.9-.07-1.76,.42-2.57,.46-.76,1.15-1.24,2.05-1.46,.9-.22,1.75-.08,2.53,.4,.75,.46,1.24,1.15,1.46,2.05,.22,.9,.09,1.73-.37,2.49-.5,.81-1.2,1.32-2.1,1.53-.9,.21-1.73,.09-2.49-.37Z"/><path d="M574.81,503.57c-.75-.52-1.21-1.24-1.38-2.16-.16-.91,.02-1.76,.56-2.54,.51-.73,1.22-1.18,2.13-1.34s1.75,.01,2.5,.54c.73,.5,1.18,1.21,1.34,2.13,.17,.91,0,1.74-.51,2.46-.54,.78-1.27,1.25-2.18,1.42-.92,.16-1.74,0-2.46-.51Z"/><path d="M565.76,515.92c-.72-.56-1.14-1.31-1.26-2.23-.11-.92,.12-1.76,.7-2.51,.54-.7,1.28-1.11,2.2-1.22,.92-.12,1.75,.11,2.47,.67,.7,.54,1.11,1.28,1.22,2.2,.12,.92-.1,1.73-.64,2.43-.58,.75-1.33,1.18-2.26,1.3-.92,.11-1.73-.1-2.43-.64Z"/><path d="M556.07,527.75c-.69-.6-1.07-1.37-1.14-2.29-.06-.93,.21-1.75,.84-2.46,.58-.67,1.34-1.04,2.26-1.1s1.74,.2,2.43,.81c.67,.58,1.04,1.34,1.1,2.26,.06,.93-.19,1.72-.78,2.39-.62,.72-1.4,1.11-2.32,1.17-.93,.06-1.73-.19-2.39-.78Z"/><path d="M545.75,539.02c-.66-.64-.99-1.42-1.01-2.35s.31-1.73,.97-2.41c.62-.64,1.39-.96,2.32-.98,.93-.01,1.72,.3,2.38,.94,.64,.62,.96,1.39,.98,2.32,.01,.93-.29,1.71-.9,2.35-.66,.68-1.45,1.03-2.38,1.04-.93,.01-1.71-.29-2.35-.9Z"/><path d="M534.81,549.73c-.62-.67-.92-1.47-.88-2.4,.04-.93,.4-1.72,1.1-2.36,.65-.6,1.44-.88,2.37-.85s1.7,.39,2.33,1.06c.6,.65,.88,1.44,.85,2.37-.04,.93-.38,1.69-1.03,2.3-.69,.64-1.51,.95-2.44,.91-.93-.04-1.69-.38-2.3-1.03Z"/><path d="M523.31,559.84c-.59-.71-.83-1.52-.75-2.45,.09-.93,.5-1.69,1.22-2.29,.68-.57,1.49-.81,2.41-.72s1.68,.48,2.27,1.19c.57,.68,.81,1.49,.72,2.41-.09,.93-.47,1.67-1.15,2.24-.73,.6-1.56,.86-2.48,.78-.93-.09-1.67-.47-2.24-1.15Z"/><path d="M511.27,569.29c-.55-.74-.75-1.57-.61-2.49,.14-.92,.59-1.66,1.35-2.22,.71-.53,1.53-.72,2.45-.59,.92,.14,1.65,.57,2.2,1.31,.53,.71,.72,1.53,.59,2.45-.14,.92-.56,1.64-1.27,2.17-.76,.56-1.6,.78-2.52,.64-.92-.14-1.64-.56-2.17-1.27Z"/><path d="M498.75,578.07c-.5-.77-.66-1.6-.48-2.51,.19-.91,.68-1.63,1.47-2.15,.74-.49,1.57-.64,2.48-.45,.91,.19,1.62,.66,2.12,1.43,.49,.74,.64,1.56,.45,2.48-.19,.91-.65,1.61-1.39,2.1-.79,.52-1.64,.69-2.55,.5-.91-.19-1.61-.65-2.1-1.39Z"/><path d="M485.77,586.15c-.46-.79-.57-1.64-.34-2.54,.24-.9,.76-1.59,1.58-2.06,.77-.45,1.6-.55,2.5-.31,.9,.24,1.58,.75,2.04,1.54,.45,.77,.55,1.6,.31,2.5-.24,.9-.74,1.57-1.5,2.02-.82,.48-1.68,.6-2.58,.36-.9-.24-1.57-.74-2.02-1.5Z"/><path d="M472.36,593.51c-.42-.82-.48-1.67-.2-2.55,.29-.88,.85-1.54,1.69-1.97,.79-.4,1.63-.46,2.51-.18,.89,.29,1.54,.84,1.95,1.65,.4,.79,.46,1.63,.18,2.51-.29,.88-.82,1.53-1.61,1.93-.84,.43-1.71,.5-2.59,.22-.89-.29-1.53-.82-1.93-1.61Z"/><path d="M458.57,600.12c-.37-.84-.39-1.69-.06-2.56,.34-.87,.93-1.49,1.8-1.88,.81-.36,1.65-.37,2.52-.04,.87,.33,1.49,.92,1.86,1.76,.36,.81,.37,1.65,.04,2.52-.33,.87-.91,1.48-1.72,1.84-.87,.38-1.73,.41-2.6,.08-.87-.34-1.48-.91-1.84-1.72Z"/><path d="M444.44,605.96c-.33-.86-.3-1.71,.08-2.56,.38-.85,1.02-1.44,1.9-1.78,.83-.31,1.67-.28,2.52,.1s1.43,1,1.76,1.86c.31,.83,.28,1.67-.1,2.52-.38,.85-.99,1.43-1.81,1.74-.89,.34-1.75,.31-2.6-.07-.85-.38-1.43-.99-1.74-1.82Z"/><path d="M430.01,611.01c-.28-.87-.2-1.72,.22-2.55s1.09-1.38,2-1.67c.85-.27,1.68-.19,2.51,.24,.83,.43,1.38,1.08,1.66,1.95,.27,.84,.19,1.68-.24,2.51s-1.06,1.37-1.91,1.64c-.9,.29-1.77,.22-2.59-.21-.83-.43-1.37-1.06-1.64-1.91Z"/><path d="M415.31,615.26c-.23-.89-.11-1.73,.36-2.53,.47-.8,1.17-1.32,2.09-1.56,.86-.22,1.69-.1,2.49,.38s1.31,1.15,1.54,2.04c.22,.86,.1,1.69-.38,2.49-.47,.8-1.14,1.31-2,1.53-.92,.24-1.78,.12-2.58-.35-.8-.47-1.31-1.14-1.53-2Z"/><path d="M400.42,618.69c-.18-.9-.01-1.74,.5-2.51,.52-.77,1.24-1.25,2.17-1.44,.87-.17,1.69,0,2.46,.51,.77,.52,1.25,1.22,1.43,2.12,.17,.87,0,1.69-.51,2.46-.52,.77-1.21,1.25-2.08,1.42-.93,.19-1.78,.02-2.55-.49-.77-.52-1.25-1.21-1.42-2.08Z"/><path d="M385.35,621.3c-.13-.91,.08-1.73,.64-2.48s1.31-1.18,2.24-1.32c.88-.13,1.69,.09,2.43,.65s1.18,1.29,1.31,2.2c.13,.88-.09,1.69-.65,2.43-.56,.74-1.27,1.18-2.15,1.31-.94,.13-1.78-.08-2.52-.63s-1.18-1.27-1.31-2.15Z"/><path d="M370.15,623.08c-.08-.91,.18-1.73,.78-2.44,.6-.71,1.37-1.11,2.31-1.19,.88-.08,1.68,.18,2.39,.78s1.11,1.35,1.19,2.27c.08,.88-.18,1.68-.78,2.39-.6,.71-1.34,1.11-2.22,1.19-.94,.08-1.77-.17-2.48-.77s-1.11-1.34-1.19-2.22Z"/><path d="M354.86,624.02c-.03-.92,.27-1.71,.91-2.39,.64-.68,1.43-1.03,2.37-1.07,.89-.03,1.67,.27,2.35,.91,.68,.63,1.03,1.41,1.06,2.33,.03,.89-.27,1.67-.91,2.35-.63,.68-1.4,1.03-2.28,1.06-.95,.03-1.76-.27-2.44-.91s-1.03-1.4-1.06-2.28Z"/><path d="M339.55,624.15c.02-.92,.36-1.7,1.03-2.34,.67-.64,1.48-.96,2.43-.94,.89,.02,1.65,.36,2.29,1.03,.64,.67,.96,1.46,.94,2.38-.02,.89-.36,1.65-1.03,2.3-.67,.64-1.45,.96-2.34,.94-.95-.02-1.74-.37-2.39-1.04-.64-.67-.96-1.45-.94-2.34Z"/><path d="M324.26,623.44c.07-.91,.46-1.68,1.16-2.28,.71-.61,1.53-.87,2.47-.8,.88,.07,1.63,.45,2.24,1.16,.61,.7,.88,1.51,.81,2.43-.07,.88-.45,1.63-1.16,2.24-.7,.61-1.5,.88-2.38,.81-.94-.07-1.72-.46-2.33-1.16s-.88-1.5-.81-2.38Z"/><path d="M309.06,621.91c.12-.91,.55-1.65,1.28-2.22s1.58-.79,2.51-.67c.88,.11,1.6,.54,2.17,1.28,.57,.74,.79,1.56,.67,2.47-.11,.88-.54,1.6-1.28,2.17-.74,.57-1.54,.79-2.42,.68-.94-.12-1.69-.55-2.26-1.29-.57-.74-.79-1.55-.68-2.42Z"/><path d="M293.94,619.54c.17-.9,.64-1.62,1.4-2.14s1.62-.7,2.55-.53c.87,.16,1.57,.63,2.1,1.39,.53,.77,.7,1.6,.54,2.5-.16,.87-.63,1.57-1.39,2.1-.77,.53-1.58,.71-2.46,.55-.93-.17-1.66-.64-2.19-1.41-.52-.77-.71-1.59-.55-2.46Z"/><path d="M279,616.36c.22-.89,.72-1.58,1.52-2.06,.79-.48,1.65-.61,2.57-.39,.86,.21,1.53,.71,2.02,1.51,.48,.79,.62,1.64,.4,2.53-.21,.86-.71,1.53-1.51,2.02-.79,.48-1.62,.62-2.48,.41-.92-.22-1.62-.73-2.11-1.53-.48-.79-.62-1.62-.41-2.48Z"/><path d="M264.23,612.34c.27-.88,.81-1.54,1.63-1.97,.82-.44,1.68-.52,2.59-.25,.85,.26,1.49,.8,1.93,1.62,.44,.82,.52,1.67,.26,2.55-.26,.85-.79,1.49-1.62,1.93-.82,.44-1.65,.53-2.5,.27-.91-.28-1.58-.82-2.02-1.64-.44-.82-.53-1.65-.27-2.5Z"/><path d="M249.73,607.53c.31-.86,.89-1.49,1.74-1.88,.84-.39,1.71-.43,2.6-.1,.83,.3,1.45,.88,1.84,1.72s.43,1.7,.12,2.56c-.3,.83-.88,1.45-1.72,1.84-.84,.39-1.68,.44-2.51,.13-.89-.32-1.53-.91-1.92-1.75-.39-.84-.44-1.68-.13-2.51Z"/><path d="M235.49,601.91c.36-.84,.97-1.44,1.84-1.78s1.73-.33,2.6,.04c.82,.35,1.4,.96,1.74,1.82s.34,1.72-.02,2.56c-.35,.81-.95,1.39-1.82,1.74-.86,.35-1.7,.34-2.52,0-.87-.37-1.48-.99-1.82-1.85-.34-.86-.34-1.7,0-2.52Z"/><path d="M221.6,595.53c.41-.82,1.05-1.38,1.93-1.68,.88-.3,1.75-.24,2.6,.18,.79,.39,1.34,1.03,1.64,1.91,.3,.88,.24,1.73-.16,2.55-.39,.79-1.03,1.34-1.91,1.64-.88,.3-1.72,.25-2.51-.14-.85-.42-1.42-1.07-1.72-1.95-.3-.88-.25-1.72,.14-2.51Z"/><path d="M208.08,588.4c.45-.8,1.13-1.32,2.02-1.57,.9-.25,1.76-.14,2.58,.33,.77,.44,1.28,1.1,1.53,2,.25,.9,.15,1.74-.3,2.54-.44,.77-1.1,1.28-2,1.53-.9,.25-1.73,.16-2.5-.28-.82-.47-1.36-1.15-1.61-2.04-.25-.9-.15-1.73,.28-2.5Z"/><path d="M194.95,580.51c.49-.77,1.2-1.26,2.1-1.46s1.76-.04,2.56,.47c.75,.48,1.22,1.17,1.42,2.08,.2,.91,.05,1.75-.44,2.52-.48,.75-1.17,1.22-2.08,1.42-.91,.2-1.73,.06-2.48-.42-.8-.51-1.3-1.22-1.5-2.13-.2-.91-.06-1.74,.42-2.48Z"/><path d="M182.3,571.94c.54-.74,1.26-1.19,2.18-1.34,.92-.15,1.76,.05,2.53,.61,.72,.52,1.15,1.24,1.3,2.15,.15,.92-.04,1.75-.58,2.49-.52,.72-1.24,1.15-2.15,1.3-.92,.15-1.74-.04-2.46-.55-.77-.55-1.23-1.29-1.38-2.21-.15-.92,.04-1.74,.55-2.46Z"/><path d="M170.11,562.68c.57-.71,1.33-1.12,2.25-1.22s1.76,.15,2.49,.74c.69,.56,1.08,1.3,1.18,2.22,.1,.92-.14,1.74-.72,2.46-.56,.69-1.3,1.08-2.22,1.18-.92,.1-1.73-.13-2.42-.69-.74-.59-1.16-1.35-1.25-2.28-.1-.92,.13-1.73,.69-2.42Z"/><path d="M158.46,552.78c.61-.68,1.39-1.05,2.31-1.1,.93-.05,1.74,.25,2.45,.88,.66,.59,1.01,1.35,1.06,2.28,.05,.93-.23,1.73-.85,2.41-.59,.66-1.35,1.01-2.28,1.06s-1.72-.22-2.38-.82c-.7-.63-1.08-1.42-1.13-2.34-.05-.93,.22-1.72,.82-2.38Z"/><path d="M147.36,542.24c.65-.65,1.44-.97,2.37-.97,.93,0,1.73,.34,2.4,1.01,.63,.63,.94,1.41,.93,2.34,0,.93-.33,1.72-.98,2.37-.63,.63-1.41,.94-2.34,.93-.93,0-1.71-.32-2.33-.95-.67-.67-1-1.47-1-2.4,0-.93,.32-1.71,.95-2.33Z"/><path d="M136.84,531.12c.68-.61,1.49-.89,2.42-.84s1.71,.43,2.34,1.14c.59,.66,.86,1.46,.81,2.38-.05,.93-.42,1.7-1.11,2.31-.66,.59-1.46,.86-2.38,.81-.93-.05-1.69-.41-2.28-1.07-.63-.71-.92-1.52-.87-2.45,.05-.93,.41-1.69,1.07-2.28Z"/><path d="M126.96,519.45c.72-.57,1.54-.81,2.46-.7s1.68,.53,2.27,1.27c.55,.69,.78,1.5,.68,2.42-.1,.92-.51,1.67-1.23,2.24-.69,.55-1.5,.78-2.42,.68-.92-.1-1.66-.5-2.22-1.19-.59-.74-.84-1.57-.73-2.5,.1-.92,.5-1.66,1.19-2.22Z"/><path d="M117.71,507.25c.75-.53,1.58-.72,2.49-.57,.92,.15,1.65,.62,2.2,1.39,.52,.72,.69,1.54,.54,2.46-.15,.92-.6,1.64-1.35,2.17-.72,.52-1.54,.7-2.46,.54-.92-.15-1.63-.59-2.15-1.31-.55-.77-.75-1.62-.6-2.53,.15-.92,.59-1.63,1.31-2.15Z"/><path d="M109.15,494.56c.77-.49,1.62-.63,2.52-.43,.91,.2,1.61,.71,2.12,1.51,.47,.75,.61,1.58,.41,2.48-.2,.91-.69,1.61-1.47,2.1-.75,.47-1.58,.61-2.48,.41-.91-.2-1.6-.68-2.07-1.43-.51-.8-.66-1.65-.46-2.56,.2-.91,.68-1.6,1.43-2.07Z"/><path d="M101.3,481.43c.8-.45,1.65-.55,2.54-.29,.9,.25,1.57,.79,2.04,1.62,.43,.77,.52,1.61,.27,2.5-.25,.9-.78,1.57-1.58,2.01-.77,.43-1.61,.52-2.5,.27-.89-.25-1.56-.77-1.99-1.54-.46-.83-.57-1.69-.31-2.58,.25-.89,.77-1.56,1.54-1.99Z"/><path d="M94.19,467.9c.82-.4,1.68-.45,2.55-.15,.88,.3,1.53,.88,1.94,1.73,.39,.8,.43,1.64,.13,2.51-.3,.88-.86,1.52-1.69,1.92-.8,.39-1.63,.43-2.51,.13-.88-.3-1.51-.85-1.9-1.65-.42-.85-.47-1.72-.17-2.6,.3-.88,.85-1.51,1.65-1.9Z"/><path d="M87.83,453.99c.84-.36,1.7-.36,2.56-.01,.86,.35,1.48,.96,1.85,1.83,.35,.82,.34,1.66,0,2.52-.35,.86-.95,1.47-1.79,1.83-.82,.34-1.66,.34-2.52,0-.86-.35-1.46-.93-1.81-1.75-.37-.87-.38-1.74-.03-2.6,.35-.86,.93-1.46,1.75-1.81Z"/><path d="M82.25,439.76c.86-.31,1.72-.27,2.56,.13,.84,.4,1.42,1.04,1.74,1.93,.3,.84,.25,1.67-.14,2.51-.4,.84-1.03,1.42-1.89,1.73-.83,.3-1.67,.25-2.51-.15-.84-.4-1.41-1.01-1.71-1.85-.32-.89-.28-1.76,.11-2.6,.4-.84,1.01-1.41,1.85-1.71Z"/><path d="M77.45,425.24c.88-.26,1.73-.17,2.55,.27,.82,.44,1.36,1.12,1.63,2.03,.25,.85,.16,1.68-.28,2.5s-1.1,1.36-1.98,1.62c-.85,.25-1.68,.16-2.5-.28-.82-.44-1.35-1.09-1.61-1.94-.27-.91-.18-1.77,.26-2.59,.44-.82,1.09-1.35,1.94-1.61Z"/><path d="M73.47,410.48c.89-.21,1.73-.08,2.53,.41s1.3,1.19,1.52,2.11c.21,.86,.07,1.69-.42,2.48-.49,.79-1.18,1.29-2.07,1.51-.86,.21-1.69,.07-2.48-.42-.79-.49-1.29-1.16-1.5-2.02-.22-.92-.09-1.78,.4-2.57s1.16-1.29,2.02-1.5Z"/><path d="M70.3,395.5c.9-.16,1.74,.02,2.5,.55,.76,.53,1.23,1.26,1.4,2.19,.16,.87-.03,1.69-.56,2.45-.53,.76-1.25,1.23-2.15,1.39-.87,.16-1.69-.03-2.45-.56-.76-.53-1.22-1.23-1.38-2.1-.17-.93,.01-1.78,.54-2.55,.53-.76,1.23-1.22,2.1-1.38Z"/><path d="M67.97,380.39c.91-.11,1.73,.12,2.47,.69,.73,.57,1.16,1.33,1.28,2.27,.11,.88-.12,1.69-.69,2.42-.57,.73-1.31,1.16-2.22,1.27-.88,.11-1.69-.12-2.42-.69-.73-.57-1.16-1.29-1.27-2.17-.12-.94,.11-1.78,.68-2.51s1.3-1.16,2.18-1.27Z"/><path d="M66.46,365.17c.91-.06,1.72,.21,2.42,.82,.7,.61,1.09,1.39,1.15,2.33,.06,.89-.21,1.68-.82,2.38-.61,.7-1.37,1.08-2.29,1.15-.88,.06-1.68-.21-2.38-.82s-1.08-1.36-1.15-2.24c-.07-.94,.21-1.77,.81-2.47,.61-.7,1.36-1.08,2.24-1.15Z"/><path d="M65.79,349.86c.92-.01,1.71,.3,2.38,.95s1.01,1.44,1.02,2.39c.01,.89-.3,1.66-.95,2.33-.65,.67-1.43,1.01-2.34,1.02-.89,.01-1.66-.3-2.33-.95-.67-.65-1.01-1.41-1.02-2.3-.01-.95,.3-1.75,.95-2.42,.65-.67,1.41-1.01,2.3-1.02Z"/><path d="M65.93,334.59c.92,.03,1.69,.39,2.32,1.08s.93,1.5,.89,2.44c-.03,.89-.39,1.65-1.07,2.28-.68,.63-1.48,.93-2.4,.9-.89-.03-1.64-.39-2.28-1.07-.63-.68-.93-1.46-.9-2.35,.04-.95,.4-1.74,1.08-2.37,.68-.63,1.47-.93,2.35-.9Z"/><path d="M66.91,319.31c.91,.08,1.67,.48,2.26,1.2s.85,1.55,.76,2.49c-.08,.88-.48,1.62-1.19,2.22-.72,.59-1.53,.85-2.44,.76-.88-.08-1.62-.48-2.22-1.19-.59-.72-.85-1.51-.77-2.4,.09-.94,.49-1.71,1.2-2.31,.72-.59,1.51-.85,2.4-.77Z"/><path d="M68.71,304.1c.91,.13,1.64,.57,2.19,1.32,.55,.75,.76,1.59,.62,2.53-.13,.88-.57,1.59-1.31,2.15-.75,.55-1.57,.76-2.48,.63-.88-.13-1.59-.57-2.15-1.31-.55-.75-.77-1.56-.64-2.43,.14-.94,.58-1.68,1.33-2.24,.75-.55,1.56-.77,2.44-.64Z"/><path d="M71.34,289.05c.9,.18,1.6,.66,2.12,1.44,.51,.78,.67,1.63,.48,2.56-.18,.87-.65,1.56-1.43,2.07-.78,.51-1.61,.68-2.51,.49-.87-.18-1.56-.65-2.07-1.43-.51-.78-.68-1.6-.5-2.47,.19-.93,.67-1.65,1.45-2.16,.78-.51,1.6-.68,2.47-.5Z"/><path d="M74.8,274.15c.89,.23,1.57,.75,2.03,1.55,.47,.8,.58,1.66,.34,2.58-.23,.86-.74,1.52-1.54,1.99-.8,.47-1.65,.59-2.54,.35-.86-.23-1.52-.74-1.99-1.54-.47-.8-.59-1.63-.36-2.49,.24-.92,.76-1.61,1.57-2.08,.8-.47,1.63-.59,2.49-.36Z"/><path d="M79.08,259.47c.87,.28,1.52,.84,1.94,1.66,.42,.83,.49,1.69,.2,2.59-.27,.84-.82,1.48-1.65,1.9-.83,.42-1.68,.49-2.55,.21-.84-.27-1.48-.82-1.9-1.65-.42-.83-.5-1.66-.23-2.51,.29-.9,.85-1.56,1.68-1.99,.83-.42,1.66-.5,2.51-.23Z"/><path d="M84.15,245.05c.86,.33,1.47,.92,1.85,1.77,.38,.85,.4,1.72,.05,2.6-.32,.83-.9,1.43-1.75,1.81-.85,.38-1.7,.4-2.56,.07-.83-.32-1.43-.9-1.81-1.75-.38-.85-.41-1.69-.09-2.52,.34-.88,.94-1.51,1.78-1.89,.85-.38,1.69-.41,2.52-.09Z"/><path d="M90.02,230.92c.84,.38,1.42,1,1.75,1.87,.33,.87,.3,1.74-.09,2.6-.36,.81-.98,1.38-1.85,1.71-.87,.33-1.72,.31-2.56-.07-.81-.36-1.38-.98-1.71-1.85-.33-.87-.31-1.71,.05-2.52,.39-.86,1.02-1.46,1.89-1.79,.87-.33,1.71-.31,2.52,.05Z"/><path d="M96.66,217.14c.81,.42,1.36,1.08,1.64,1.96,.28,.89,.2,1.75-.23,2.59-.41,.79-1.05,1.32-1.94,1.6-.89,.28-1.74,.21-2.55-.21-.79-.41-1.32-1.05-1.6-1.94-.28-.89-.22-1.72,.19-2.51,.44-.84,1.1-1.4,1.98-1.68,.89-.28,1.72-.22,2.51,.19Z"/><path d="M104.04,203.74c.79,.47,1.3,1.15,1.53,2.05,.23,.9,.11,1.76-.37,2.57-.45,.76-1.13,1.26-2.02,1.49-.9,.23-1.75,.12-2.54-.35-.76-.45-1.26-1.12-1.49-2.03-.23-.9-.12-1.73,.33-2.5,.48-.82,1.17-1.34,2.07-1.57,.9-.23,1.73-.12,2.5,.33Z"/><path d="M112.15,190.76c.76,.51,1.24,1.22,1.42,2.13,.18,.91,.01,1.76-.51,2.55-.49,.74-1.19,1.2-2.1,1.38s-1.75,.02-2.51-.49c-.74-.49-1.2-1.19-1.38-2.1-.18-.91-.03-1.74,.46-2.47,.52-.79,1.24-1.27,2.15-1.46,.91-.18,1.74-.03,2.47,.46Z"/><path d="M120.96,178.25c.73,.55,1.17,1.28,1.3,2.2,.13,.92-.09,1.76-.65,2.52-.53,.71-1.26,1.13-2.18,1.26-.92,.13-1.75-.08-2.48-.62-.71-.53-1.13-1.26-1.26-2.18-.13-.92,.07-1.73,.6-2.45,.57-.76,1.31-1.2,2.23-1.34,.92-.13,1.73,.07,2.44,.6Z"/><path d="M130.43,166.24c.7,.59,1.1,1.35,1.18,2.27,.08,.93-.18,1.75-.79,2.48-.57,.68-1.32,1.06-2.24,1.14-.93,.08-1.74-.17-2.44-.76-.68-.57-1.06-1.32-1.14-2.24-.08-.93,.16-1.73,.73-2.41,.61-.73,1.37-1.13,2.3-1.21,.93-.08,1.73,.16,2.41,.73Z"/><path d="M140.54,154.77c.67,.63,1.02,1.4,1.05,2.33s-.28,1.74-.92,2.43c-.61,.65-1.37,.99-2.3,1.02-.93,.03-1.73-.27-2.4-.89-.65-.6-.99-1.37-1.02-2.3-.03-.93,.25-1.72,.86-2.37,.65-.69,1.43-1.05,2.36-1.09,.93-.03,1.72,.25,2.37,.86Z"/><path d="M151.27,143.86c.63,.66,.94,1.46,.93,2.39-.02,.93-.37,1.72-1.05,2.38-.64,.61-1.42,.91-2.35,.89s-1.71-.36-2.35-1.02c-.61-.64-.91-1.42-.89-2.35,.02-.93,.35-1.7,.99-2.32,.68-.66,1.49-.97,2.42-.96,.93,.02,1.7,.35,2.32,.99Z"/><path d="M162.58,133.54c.6,.7,.86,1.51,.79,2.43-.07,.93-.46,1.7-1.18,2.32-.67,.58-1.47,.83-2.4,.76-.93-.07-1.69-.45-2.29-1.15-.58-.67-.83-1.47-.76-2.4,.07-.93,.44-1.68,1.11-2.26,.72-.62,1.54-.89,2.47-.82,.93,.07,1.68,.44,2.26,1.11Z"/><path d="M174.42,123.86c.56,.73,.78,1.55,.66,2.47-.12,.92-.55,1.67-1.31,2.25-.7,.54-1.52,.75-2.44,.63-.92-.12-1.66-.54-2.22-1.27-.54-.7-.75-1.51-.63-2.44,.12-.92,.53-1.65,1.23-2.19,.75-.58,1.59-.81,2.51-.69,.92,.12,1.65,.53,2.19,1.23Z"/><path d="M186.77,114.85c.52,.76,.69,1.59,.52,2.51-.17,.91-.65,1.64-1.43,2.18-.73,.5-1.55,.67-2.47,.5-.91-.17-1.63-.63-2.15-1.39-.5-.73-.67-1.55-.5-2.47,.17-.91,.62-1.62,1.35-2.12,.78-.54,1.63-.72,2.54-.55,.91,.17,1.62,.62,2.12,1.35Z"/><path d="M199.6,106.52c.48,.78,.61,1.63,.39,2.53-.22,.9-.73,1.6-1.54,2.09-.76,.46-1.59,.58-2.49,.36-.9-.22-1.59-.72-2.07-1.5-.46-.76-.58-1.59-.36-2.49,.22-.9,.71-1.59,1.46-2.05,.81-.49,1.67-.63,2.57-.41,.9,.22,1.59,.71,2.05,1.47Z"/><path d="M210.44,99.3c.48,.78,.61,1.63,.39,2.53-.22,.9-.73,1.6-1.54,2.09-.76,.46-1.59,.58-2.49,.36-.9-.22-1.59-.72-2.07-1.5-.46-.76-.58-1.59-.36-2.49,.22-.9,.71-1.59,1.46-2.05,.81-.49,1.67-.63,2.57-.41,.9,.22,1.59,.71,2.05,1.47Z"/><circle class="f" cx="344.97" cy="344.97" r="306.59"/><g><path d="M286.67,344.06c-3.34,0-6.73-.3-10.15-.89-3.42-.59-6.88-1.36-10.38-2.31-3.5-.95-7-1.99-10.49-3.12-3.5-1.13-6.94-2.24-10.34-3.32-4.06,2.47-8.31,4.41-12.73,5.82-4.42,1.41-9.08,2.12-13.96,2.12-4.17,0-7.36-.75-9.57-2.24-2.21-1.49-3.32-3.47-3.32-5.94,0-3.24,1.8-5.73,5.4-7.48,3.6-1.75,9.05-2.62,16.36-2.62,3.19,0,6.4,.23,9.64,.69s6.53,1.05,9.88,1.77c3.24-2.83,6.33-6.02,9.26-9.57s5.79-7.35,8.56-11.42c-2.11,.26-4.24,.45-6.4,.58-2.16,.13-4.35,.19-6.56,.19-8.08,0-15.28-.96-21.6-2.89s-11.68-4.58-16.05-7.95c-4.37-3.37-7.7-7.33-9.99-11.88-2.29-4.55-3.43-9.45-3.43-14.7,0-6.17,1.18-11.65,3.55-16.43,2.37-4.78,5.62-8.81,9.76-12.07,4.14-3.27,9.01-5.76,14.62-7.48,5.61-1.72,11.62-2.58,18.05-2.58,4.06,0,7.77,.31,11.11,.93,3.34,.62,6.24,1.29,8.68,2.01,2.44,.72,4.36,1.42,5.75,2.08,1.39,.67,2.16,1.03,2.31,1.08l-2.01,3.47c-.05,0-.69-.3-1.93-.89-1.23-.59-2.93-1.22-5.09-1.89-2.16-.67-4.73-1.29-7.71-1.85-2.98-.57-6.2-.85-9.64-.85-6.07,0-11.51,.89-16.32,2.66-4.81,1.77-8.87,4.2-12.19,7.29-3.32,3.09-5.86,6.7-7.64,10.84-1.78,4.14-2.66,8.55-2.66,13.23,0,5.25,1.21,9.94,3.63,14.08,2.42,4.14,5.66,7.64,9.72,10.49,4.06,2.85,8.78,5.03,14.16,6.52,5.37,1.49,11.02,2.24,16.93,2.24,2.42,0,4.79-.08,7.14-.23,2.34-.15,4.67-.41,6.98-.77,3.65-5.71,7.19-11.62,10.61-17.74,3.42-6.12,6.83-12.11,10.22-17.98s6.81-11.43,10.26-16.7c3.45-5.27,7.03-9.89,10.76-13.85,3.73-3.96,7.65-7.11,11.77-9.45,4.11-2.34,8.54-3.51,13.27-3.51,1.85,0,3.57,.3,5.17,.89,1.59,.59,2.98,1.49,4.17,2.7,1.18,1.21,2.11,2.74,2.78,4.59,.67,1.85,1,4.01,1,6.48,0,4.01-.77,8.24-2.31,12.69-1.54,4.45-3.78,8.9-6.71,13.35-2.93,4.45-6.51,8.82-10.72,13.12-4.22,4.29-9,8.27-14.35,11.92-5.35,3.65-11.21,6.9-17.59,9.76-6.38,2.85-13.17,5.08-20.37,6.67-3.39,4.68-6.89,9.09-10.49,13.23-3.6,4.14-7.41,7.88-11.42,11.23,3.91,1.03,7.74,2.12,11.5,3.28,3.75,1.16,7.32,2.21,10.68,3.16,3.37,.95,6.49,1.75,9.37,2.39,2.88,.64,5.43,.96,7.64,.96,3.29,0,6.47-.57,9.53-1.7,3.06-1.13,6.11-3.14,9.14-6.02l3.16,2.47c-.05,.05-.33,.37-.85,.96-.51,.59-1.29,1.31-2.31,2.16-1.03,.85-2.31,1.75-3.86,2.7-1.54,.95-3.36,1.84-5.44,2.66-2.08,.82-4.45,1.5-7.1,2.04-2.65,.54-5.59,.81-8.83,.81Zm-68.51-5.71c3.81,0,7.41-.53,10.8-1.58,3.39-1.06,6.69-2.51,9.88-4.36-3.39-.98-6.67-1.77-9.84-2.39-3.16-.62-6.21-.93-9.14-.93-3.5,0-6.06,.51-7.68,1.54-1.62,1.03-2.43,2.21-2.43,3.55,0,.41,.12,.86,.35,1.35,.23,.49,.66,.94,1.27,1.35,.62,.41,1.47,.76,2.55,1.04,1.08,.28,2.49,.42,4.24,.42Zm117.03-112.56c-2.88,0-5.74,1.03-8.56,3.09-2.83,2.06-5.68,4.85-8.56,8.37-2.88,3.52-5.8,7.66-8.76,12.42-2.96,4.76-6.01,9.82-9.14,15.2-3.14,5.38-6.4,10.92-9.8,16.63s-6.94,11.32-10.65,16.82c6.17-1.7,12.05-3.91,17.63-6.63,5.58-2.73,10.75-5.79,15.51-9.18,4.76-3.39,9.05-7.03,12.88-10.92,3.83-3.88,7.1-7.86,9.8-11.92,2.7-4.06,4.77-8.09,6.21-12.07,1.44-3.99,2.16-7.8,2.16-11.46,0-1.9-.23-3.51-.69-4.82s-1.09-2.38-1.89-3.2c-.8-.82-1.72-1.41-2.78-1.77-1.05-.36-2.17-.54-3.36-.54Z"/><path d="M362.35,317.28c-2.37,2.78-4.71,5.34-7.02,7.68-2.31,2.34-4.62,4.35-6.91,6.02-2.29,1.67-4.56,2.98-6.83,3.94-2.26,.95-4.55,1.43-6.87,1.43-1.96,0-3.72-.35-5.29-1.04-1.57-.69-2.93-1.67-4.09-2.93-1.16-1.26-2.04-2.8-2.66-4.63-.62-1.82-.93-3.87-.93-6.13,0-3.55,.79-7.2,2.35-10.96,1.57-3.75,3.55-7.41,5.94-10.96,2.39-3.55,5.04-6.92,7.95-10.11,2.9-3.19,5.67-6.02,8.29-8.49l3.32,2.31c-1.85,2.73-3.92,5.81-6.21,9.26-2.29,3.45-4.45,7.01-6.48,10.69-2.03,3.68-3.74,7.36-5.13,11.03-1.39,3.68-2.08,7.09-2.08,10.22,0,2.11,.4,3.91,1.2,5.4,.8,1.49,2.33,2.24,4.59,2.24,2.47,0,5.18-.98,8.14-2.93,2.96-1.95,5.99-4.5,9.1-7.64,3.11-3.14,6.22-6.67,9.34-10.61,3.11-3.93,6.06-7.91,8.83-11.92s5.31-7.84,7.6-11.5c2.29-3.65,4.15-6.76,5.59-9.33l5.63,2.78c-2.98,5.86-5.85,11.33-8.6,16.39-2.75,5.07-5.2,9.62-7.33,13.66-2.14,4.04-3.83,7.55-5.09,10.53-1.26,2.98-1.89,5.35-1.89,7.1,0,.72,.15,1.31,.46,1.77s.8,.69,1.47,.69c1.9,.05,4-.77,6.29-2.47,2.29-1.7,4.6-3.83,6.94-6.4,2.34-2.57,4.63-5.39,6.87-8.45,2.24-3.06,4.26-5.93,6.06-8.6l2.78,2.16c-.31,.51-.95,1.57-1.93,3.16-.98,1.59-2.19,3.42-3.63,5.48-1.44,2.06-3.09,4.22-4.94,6.48-1.85,2.26-3.81,4.33-5.86,6.21-2.06,1.88-4.19,3.42-6.4,4.63-2.21,1.21-4.4,1.81-6.56,1.81-1.34,0-2.53-.23-3.59-.69-1.05-.46-1.94-1.08-2.66-1.85-.72-.77-1.29-1.67-1.7-2.7-.41-1.03-.62-2.11-.62-3.24,0-1.34,.22-2.8,.66-4.4,.44-1.59,1.07-3.29,1.89-5.09Z"/><path d="M427.69,309.49c-.1-3.7-.13-7.16-.08-10.38,.05-3.21-.04-6.02-.27-8.41-.23-2.39-.71-4.28-1.43-5.67-.72-1.39-1.88-2.08-3.47-2.08-1.39,0-2.85,.42-4.4,1.27s-3.09,1.96-4.63,3.32c-1.54,1.36-3.09,2.92-4.63,4.67-1.54,1.75-3,3.54-4.36,5.36-1.36,1.83-2.62,3.6-3.78,5.32-1.16,1.72-2.15,3.25-2.97,4.59l-2.78-2.16c.77-1.18,1.72-2.65,2.85-4.4,1.13-1.75,2.4-3.6,3.82-5.55,1.41-1.95,2.94-3.91,4.59-5.86,1.65-1.95,3.37-3.72,5.17-5.28,1.8-1.57,3.65-2.84,5.55-3.82,1.9-.98,3.83-1.47,5.79-1.47,1.85,0,3.54,.26,5.05,.77,1.52,.51,2.84,1.5,3.97,2.97,1.13,1.47,2.07,3.52,2.82,6.17,.75,2.65,1.25,6.08,1.5,10.3,2.88-3.6,5.44-6.71,7.68-9.33,2.24-2.62,4.29-4.78,6.17-6.48,1.88-1.7,3.61-2.96,5.21-3.78,1.59-.82,3.16-1.23,4.71-1.23s2.85,.26,3.78,.77c.93,.51,1.65,1.12,2.16,1.81,.51,.69,.85,1.4,1,2.12,.15,.72,.23,1.31,.23,1.77,0,1.34-.36,2.52-1.08,3.55-.72,1.03-1.75,1.54-3.09,1.54s-2.31-.45-3.09-1.35c-.77-.9-1.16-1.94-1.16-3.12,0-.26,.04-.69,.12-1.31,.08-.62,.24-1.23,.5-1.85-1.13,0-2.43,.54-3.9,1.62-1.47,1.08-3.14,2.62-5.02,4.63-1.88,2.01-3.97,4.44-6.29,7.29s-4.89,6.06-7.71,9.6c.1,4.99,.22,9.31,.35,12.96,.13,3.65,.36,6.67,.69,9.06,.33,2.39,.85,4.18,1.54,5.36,.7,1.18,1.66,1.77,2.89,1.77,1.54,0,3.17-.51,4.9-1.54,1.72-1.03,3.46-2.38,5.21-4.05,1.75-1.67,3.48-3.56,5.21-5.67,1.72-2.11,3.36-4.24,4.9-6.4s2.97-4.26,4.28-6.29c1.31-2.03,2.43-3.79,3.36-5.28l2.78,2.16c-.36,.62-1.08,1.83-2.16,3.63-1.08,1.8-2.42,3.87-4.01,6.21-1.59,2.34-3.42,4.8-5.48,7.37-2.06,2.57-4.22,4.93-6.48,7.06-2.26,2.14-4.6,3.9-7.02,5.29-2.42,1.39-4.78,2.08-7.1,2.08-2.06,0-3.81-.35-5.25-1.04-1.44-.69-2.65-1.92-3.63-3.66-.98-1.75-1.72-4.11-2.24-7.1-.51-2.98-.88-6.76-1.08-11.34-2.88,3.55-5.55,6.75-8.02,9.6-2.47,2.85-4.83,5.27-7.1,7.25-2.26,1.98-4.44,3.5-6.52,4.55-2.08,1.05-4.13,1.58-6.13,1.58-2.78,0-4.94-.76-6.48-2.28-1.54-1.52-2.31-3.43-2.31-5.75,0-1.08,.35-2.12,1.04-3.12,.7-1,1.69-1.5,2.97-1.5,1.13,0,2.15,.49,3.05,1.47,.9,.98,1.35,2.13,1.35,3.47,0,.57-.08,1.21-.23,1.93-.15,.72-.41,1.36-.77,1.93,.15,.1,.36,.17,.62,.19,.26,.03,.51,.04,.77,.04,1.75,0,3.66-.67,5.75-2.01,2.08-1.34,4.28-3.16,6.6-5.48s4.74-5.01,7.29-8.1c2.54-3.09,5.18-6.4,7.91-9.95v-.31Z"/></g><g><path class="e" d="M100.34,415.17l1.88-3.81h25.49l-1.88,3.81h-25.49Z"/><path class="e" d="M139.74,423.14c-.07,.41-.12,.81-.15,1.22-.03,.41-.05,.81-.05,1.22,0,1.22,.18,2.38,.53,3.48,.36,1.1,.88,2.07,1.57,2.89,.69,.83,1.56,1.48,2.59,1.96,1.03,.47,2.21,.71,3.53,.71,4.43,0,8.72-1.51,12.85-4.52,4.13-3.01,8.24-7.79,12.34-14.32l1.73,1.52c-2.23,3.72-4.5,6.86-6.8,9.42-2.3,2.56-4.6,4.63-6.88,6.22-2.29,1.59-4.53,2.74-6.73,3.45-2.2,.71-4.3,1.07-6.3,1.07-1.46,0-3-.2-4.62-.61s-3.12-1.08-4.49-2.03-2.51-2.22-3.4-3.81c-.9-1.59-1.35-3.57-1.35-5.94,0-2.54,.43-4.98,1.29-7.34,.86-2.35,1.99-4.54,3.38-6.58,1.39-2.03,2.98-3.88,4.77-5.56,1.79-1.68,3.61-3.11,5.46-4.29,1.84-1.18,3.65-2.11,5.41-2.77,1.76-.66,3.32-.99,4.67-.99,.88,0,1.78,.14,2.69,.41,.91,.27,1.73,.69,2.46,1.27,.73,.58,1.32,1.34,1.78,2.29,.46,.95,.69,2.08,.69,3.4,0,1.79-.42,3.48-1.24,5.05-.83,1.57-1.94,3.03-3.33,4.37-1.39,1.34-3,2.54-4.82,3.61s-3.74,1.97-5.74,2.72c-2,.75-4.01,1.34-6.04,1.78-2.03,.44-3.96,.68-5.79,.71Zm.41-2.18c2.27-.24,4.4-.71,6.4-1.42,2-.71,3.83-1.58,5.48-2.62,1.66-1.03,3.14-2.16,4.44-3.38,1.3-1.22,2.39-2.45,3.28-3.71,.88-1.25,1.56-2.45,2.03-3.61,.47-1.15,.71-2.18,.71-3.1s-.25-1.64-.74-2.18c-.49-.54-1.08-.81-1.75-.81-1.49,0-3.17,.53-5.03,1.6-1.86,1.07-3.72,2.54-5.59,4.42-1.86,1.88-3.61,4.09-5.26,6.63-1.64,2.54-2.97,5.26-3.99,8.18Zm19.45-29.71h-3.5l9.04-9.85h6.35l-11.88,9.85Z"/><path class="e" d="M190.68,390.44l-11.53,23.16c2.03-2.61,4.16-5.04,6.4-7.29,2.23-2.25,4.52-4.09,6.86-5.51,1.73-1.02,3.25-1.72,4.57-2.11,1.32-.39,2.57-.58,3.76-.58s2.1,.19,2.84,.56c.74,.37,1.34,.86,1.78,1.47,.44,.61,.74,1.28,.91,2.01,.17,.73,.25,1.45,.25,2.16,0,1.59-.27,3.17-.81,4.72-.54,1.56-1.21,3.1-2.01,4.62-.8,1.52-1.67,3.02-2.62,4.49-.95,1.47-1.82,2.91-2.62,4.32-.8,1.41-1.46,2.79-2.01,4.14-.54,1.35-.81,2.66-.81,3.91,0,.61,.08,1.11,.23,1.5,.15,.39,.36,.69,.61,.91,.25,.22,.53,.36,.84,.43,.3,.07,.61,.1,.91,.1,.64,0,1.4-.3,2.26-.89,.86-.59,1.79-1.37,2.77-2.34,.98-.96,1.99-2.06,3.02-3.3,1.03-1.24,2.03-2.5,3-3.81,.96-1.3,1.87-2.59,2.72-3.86,.85-1.27,1.59-2.43,2.23-3.48l1.88,1.42c-.37,.75-.92,1.73-1.65,2.95-.73,1.22-1.58,2.53-2.56,3.94-.98,1.41-2.06,2.81-3.22,4.21-1.17,1.41-2.4,2.68-3.68,3.83-1.29,1.15-2.6,2.09-3.94,2.82-1.34,.73-2.65,1.09-3.94,1.09-.88,0-1.73-.14-2.54-.41-.81-.27-1.52-.69-2.13-1.24s-1.1-1.28-1.47-2.16c-.37-.88-.56-1.93-.56-3.15,0-1.46,.3-3.13,.89-5.03,.59-1.9,1.73-4.06,3.43-6.5,1.39-2,2.59-3.66,3.61-5,1.02-1.34,1.85-2.5,2.51-3.5,.66-1,1.14-1.91,1.45-2.74,.3-.83,.46-1.75,.46-2.77,0-.88-.25-1.56-.76-2.03-.51-.47-1.08-.71-1.73-.71-1.73,0-3.5,.49-5.33,1.47-1.83,.98-3.64,2.28-5.43,3.88-1.79,1.61-3.55,3.45-5.28,5.51-1.73,2.07-3.36,4.17-4.9,6.32-1.54,2.15-2.96,4.26-4.27,6.32-1.3,2.07-2.43,3.92-3.38,5.56-.95,1.64-1.68,2.96-2.21,3.96-.52,1-.8,1.51-.84,1.55-1.42,2.91-2.81,5.73-4.16,8.46-1.35,2.72-2.63,5.31-3.83,7.74-1.2,2.44-2.31,4.66-3.33,6.68-1.02,2.01-1.9,3.77-2.64,5.26-.74,1.49-1.33,2.66-1.75,3.5-.42,.85-.65,1.29-.69,1.32l-5.54-3.15c2.78-5.25,5.28-9.99,7.52-14.22,2.23-4.23,4.37-8.22,6.4-11.96,2.03-3.74,4.03-7.37,5.99-10.89,1.96-3.52,4.05-7.2,6.25-11.04,2.2-3.84,4.6-7.97,7.19-12.39s5.54-9.4,8.86-14.96l1.78,.71Z"/><path class="e" d="M227.54,400.95c-.44,.88-1.06,2.04-1.85,3.48-.8,1.44-1.65,3.01-2.56,4.72-.91,1.71-1.85,3.5-2.79,5.38-.95,1.88-1.8,3.71-2.56,5.48s-1.38,3.45-1.85,5c-.47,1.56-.71,2.88-.71,3.96,0,.98,.2,1.65,.61,2.01s.98,.53,1.73,.53c1.39,0,2.74-.46,4.06-1.37s2.63-2.11,3.94-3.58c1.3-1.47,2.58-3.16,3.83-5.05,1.25-1.9,2.5-3.81,3.76-5.74l1.83,1.42c-.98,1.76-2.09,3.64-3.33,5.64-1.24,2-2.62,3.85-4.14,5.56-1.52,1.71-3.2,3.12-5.03,4.24s-3.83,1.68-5.99,1.68c-2.03,0-3.59-.61-4.67-1.83-1.08-1.22-1.62-2.79-1.62-4.72,0-2.27,.53-4.64,1.57-7.11,1.05-2.47,2.36-4.92,3.94-7.34,1.57-2.42,3.28-4.75,5.13-6.98,1.84-2.23,3.55-4.27,5.1-6.09l1.62,.71Zm9.5-11.27c0,.68-.17,1.38-.51,2.11-.34,.73-.77,1.38-1.29,1.96-.53,.58-1.11,1.05-1.75,1.42-.64,.37-1.29,.56-1.93,.56-.58,0-1.02-.21-1.32-.63-.3-.42-.46-.94-.46-1.55,0-.54,.1-1.18,.3-1.93,.2-.74,.51-1.45,.91-2.11s.9-1.23,1.47-1.7c.58-.47,1.24-.71,1.98-.71s1.32,.27,1.83,.81c.51,.54,.76,1.13,.76,1.78Z"/><path class="e" d="M262.07,402.17c0-1.08-.43-1.94-1.29-2.56-.86-.63-2.23-.94-4.09-.94-1.52,0-3.06,.33-4.6,.99-1.54,.66-3.02,1.57-4.44,2.72-1.42,1.15-2.75,2.52-3.99,4.11-1.24,1.59-2.3,3.32-3.2,5.18-.9,1.86-1.61,3.83-2.13,5.92-.53,2.08-.79,4.17-.79,6.27,0,1.69,.19,3.13,.56,4.32,.37,1.19,.9,2.15,1.57,2.89,.68,.75,1.49,1.28,2.44,1.6,.95,.32,2.01,.48,3.2,.48,2.34,0,4.6-.52,6.8-1.57,2.2-1.05,4.29-2.41,6.27-4.09s3.81-3.55,5.48-5.61c1.68-2.06,3.16-4.1,4.44-6.09l1.88,1.42c-1.83,3.08-3.78,5.78-5.84,8.1-2.07,2.32-4.18,4.26-6.35,5.81-2.17,1.56-4.37,2.73-6.6,3.5s-4.42,1.17-6.55,1.17c-1.69,0-3.31-.25-4.85-.76-1.54-.51-2.89-1.28-4.06-2.31-1.17-1.03-2.1-2.36-2.79-3.99s-1.04-3.55-1.04-5.79c0-2.64,.38-5.14,1.14-7.49,.76-2.35,1.78-4.53,3.05-6.53,1.27-2,2.73-3.8,4.39-5.41,1.66-1.61,3.39-2.97,5.21-4.09,1.81-1.12,3.64-1.97,5.48-2.56,1.84-.59,3.58-.89,5.21-.89s3.01,.23,4.06,.69c1.05,.46,1.88,1.01,2.49,1.65,.61,.64,1.02,1.32,1.24,2.03,.22,.71,.33,1.32,.33,1.83,0,.81-.12,1.68-.36,2.59-.24,.91-.57,1.75-.99,2.51-.42,.76-.95,1.4-1.57,1.9-.63,.51-1.31,.76-2.06,.76s-1.39-.25-1.93-.74c-.54-.49-.81-1.11-.81-1.85,0-.03,.03-.24,.08-.61,.05-.37,.21-.77,.48-1.19,.27-.42,.69-.8,1.24-1.14,.56-.34,1.35-.51,2.36-.51h.61c.2-.54,.3-1.12,.3-1.73Z"/><path class="e" d="M272.18,423.14c-.07,.41-.12,.81-.15,1.22-.03,.41-.05,.81-.05,1.22,0,1.22,.18,2.38,.53,3.48,.36,1.1,.88,2.07,1.57,2.89,.69,.83,1.56,1.48,2.59,1.96,1.03,.47,2.21,.71,3.53,.71,4.43,0,8.72-1.51,12.85-4.52,4.13-3.01,8.24-7.79,12.34-14.32l1.73,1.52c-2.23,3.72-4.5,6.86-6.8,9.42-2.3,2.56-4.6,4.63-6.88,6.22-2.29,1.59-4.53,2.74-6.73,3.45-2.2,.71-4.3,1.07-6.3,1.07-1.46,0-3-.2-4.62-.61s-3.12-1.08-4.49-2.03-2.51-2.22-3.4-3.81c-.9-1.59-1.35-3.57-1.35-5.94,0-2.54,.43-4.98,1.29-7.34,.86-2.35,1.99-4.54,3.38-6.58,1.39-2.03,2.98-3.88,4.77-5.56,1.79-1.68,3.61-3.11,5.46-4.29,1.84-1.18,3.65-2.11,5.41-2.77,1.76-.66,3.32-.99,4.67-.99,.88,0,1.78,.14,2.69,.41,.91,.27,1.73,.69,2.46,1.27,.73,.58,1.32,1.34,1.78,2.29,.46,.95,.69,2.08,.69,3.4,0,1.79-.42,3.48-1.24,5.05-.83,1.57-1.94,3.03-3.33,4.37-1.39,1.34-3,2.54-4.82,3.61s-3.74,1.97-5.74,2.72c-2,.75-4.01,1.34-6.04,1.78-2.03,.44-3.96,.68-5.79,.71Zm.41-2.18c2.27-.24,4.4-.71,6.4-1.42,2-.71,3.83-1.58,5.48-2.62,1.66-1.03,3.14-2.16,4.44-3.38,1.3-1.22,2.39-2.45,3.28-3.71,.88-1.25,1.56-2.45,2.03-3.61,.47-1.15,.71-2.18,.71-3.1s-.25-1.64-.74-2.18c-.49-.54-1.08-.81-1.75-.81-1.49,0-3.17,.53-5.03,1.6-1.86,1.07-3.72,2.54-5.59,4.42-1.86,1.88-3.61,4.09-5.26,6.63-1.64,2.54-2.97,5.26-3.99,8.18Z"/><path class="e" d="M337.43,417.2c-.51,.75-1.11,1.75-1.8,3.02-.69,1.27-1.5,2.64-2.41,4.11s-1.92,2.97-3.02,4.49c-1.1,1.52-2.3,2.89-3.61,4.11-1.3,1.22-2.72,2.22-4.24,3-1.52,.78-3.15,1.17-4.88,1.17-.95,0-1.85-.14-2.69-.43-.85-.29-1.59-.74-2.23-1.35-.64-.61-1.15-1.36-1.52-2.26-.37-.9-.56-1.96-.56-3.17,0-1.66,.33-3.39,.99-5.21,.66-1.81,1.43-3.56,2.31-5.26,.88-1.69,1.76-3.24,2.64-4.65,.88-1.4,1.52-2.53,1.93-3.38,.41-.85,.61-1.57,.61-2.18,0-.44-.14-.83-.43-1.17-.29-.34-.64-.67-1.07-.99-.42-.32-.86-.66-1.32-1.02s-.84-.79-1.14-1.29c-.85,1.35-1.71,2.73-2.59,4.11-.78,1.19-1.62,2.51-2.54,3.99s-1.79,2.92-2.64,4.34l-1.83-1.42,10.87-17.01,1.47,.76c-.07,.2-.18,.53-.33,.96-.15,.44-.23,.91-.23,1.42,0,.37,.06,.74,.18,1.09,.12,.36,.36,.69,.74,.99,1.35,1.22,2.42,2.16,3.2,2.82,.78,.66,1.35,1.19,1.7,1.57,.36,.39,.58,.71,.66,.96,.08,.25,.13,.58,.13,.99s-.07,.9-.2,1.47c-.14,.58-.36,1.27-.69,2.08-.32,.81-.76,1.77-1.32,2.87-.56,1.1-1.26,2.38-2.11,3.83-.51,.88-1.01,1.77-1.5,2.67-.49,.9-.93,1.8-1.32,2.72-.39,.91-.7,1.83-.94,2.74-.24,.91-.36,1.79-.36,2.64,0,.64,.09,1.16,.28,1.55,.19,.39,.43,.69,.74,.89s.63,.34,.99,.41c.36,.07,.7,.1,1.04,.1,1.12,0,2.23-.33,3.33-.99,1.1-.66,2.18-1.51,3.25-2.56,1.07-1.05,2.1-2.24,3.1-3.58,1-1.34,1.96-2.7,2.87-4.09,.91-1.39,1.76-2.72,2.54-3.99,.78-1.27,1.47-2.38,2.08-3.33l1.88,1.42Z"/><path class="e" d="M348.86,400.95c-.44,.88-1.06,2.04-1.85,3.48-.8,1.44-1.65,3.01-2.56,4.72-.91,1.71-1.85,3.5-2.79,5.38-.95,1.88-1.8,3.71-2.56,5.48s-1.38,3.45-1.85,5c-.47,1.56-.71,2.88-.71,3.96,0,.98,.2,1.65,.61,2.01s.98,.53,1.73,.53c1.39,0,2.74-.46,4.06-1.37s2.63-2.11,3.94-3.58c1.3-1.47,2.58-3.16,3.83-5.05,1.25-1.9,2.5-3.81,3.76-5.74l1.83,1.42c-.98,1.76-2.09,3.64-3.33,5.64-1.24,2-2.62,3.85-4.14,5.56-1.52,1.71-3.2,3.12-5.03,4.24s-3.83,1.68-5.99,1.68c-2.03,0-3.59-.61-4.67-1.83-1.08-1.22-1.62-2.79-1.62-4.72,0-2.27,.53-4.64,1.57-7.11,1.05-2.47,2.36-4.92,3.94-7.34,1.57-2.42,3.28-4.75,5.13-6.98,1.84-2.23,3.55-4.27,5.1-6.09l1.62,.71Zm9.5-11.27c0,.68-.17,1.38-.51,2.11-.34,.73-.77,1.38-1.29,1.96-.53,.58-1.11,1.05-1.75,1.42-.64,.37-1.29,.56-1.93,.56-.58,0-1.02-.21-1.32-.63-.3-.42-.46-.94-.46-1.55,0-.54,.1-1.18,.3-1.93,.2-.74,.51-1.45,.91-2.11s.9-1.23,1.47-1.7c.58-.47,1.24-.71,1.98-.71s1.32,.27,1.83,.81c.51,.54,.76,1.13,.76,1.78Z"/><path class="e" d="M358.3,423.14c-.07,.41-.12,.81-.15,1.22-.03,.41-.05,.81-.05,1.22,0,1.22,.18,2.38,.53,3.48,.36,1.1,.88,2.07,1.57,2.89,.69,.83,1.56,1.48,2.59,1.96,1.03,.47,2.21,.71,3.53,.71,4.43,0,8.72-1.51,12.85-4.52,4.13-3.01,8.24-7.79,12.34-14.32l1.73,1.52c-2.23,3.72-4.5,6.86-6.8,9.42-2.3,2.56-4.6,4.63-6.88,6.22-2.29,1.59-4.53,2.74-6.73,3.45-2.2,.71-4.3,1.07-6.3,1.07-1.46,0-3-.2-4.62-.61s-3.12-1.08-4.49-2.03-2.51-2.22-3.4-3.81c-.9-1.59-1.35-3.57-1.35-5.94,0-2.54,.43-4.98,1.29-7.34,.86-2.35,1.99-4.54,3.38-6.58,1.39-2.03,2.98-3.88,4.77-5.56,1.79-1.68,3.61-3.11,5.46-4.29,1.84-1.18,3.65-2.11,5.41-2.77,1.76-.66,3.32-.99,4.67-.99,.88,0,1.78,.14,2.69,.41,.91,.27,1.73,.69,2.46,1.27,.73,.58,1.32,1.34,1.78,2.29,.46,.95,.69,2.08,.69,3.4,0,1.79-.42,3.48-1.24,5.05-.83,1.57-1.94,3.03-3.33,4.37-1.39,1.34-3,2.54-4.82,3.61s-3.74,1.97-5.74,2.72c-2,.75-4.01,1.34-6.04,1.78-2.03,.44-3.96,.68-5.79,.71Zm.41-2.18c2.27-.24,4.4-.71,6.4-1.42,2-.71,3.83-1.58,5.48-2.62,1.66-1.03,3.14-2.16,4.44-3.38,1.3-1.22,2.39-2.45,3.28-3.71,.88-1.25,1.56-2.45,2.03-3.61,.47-1.15,.71-2.18,.71-3.1s-.25-1.64-.74-2.18c-.49-.54-1.08-.81-1.75-.81-1.49,0-3.17,.53-5.03,1.6-1.86,1.07-3.72,2.54-5.59,4.42-1.86,1.88-3.61,4.09-5.26,6.63-1.64,2.54-2.97,5.26-3.99,8.18Z"/><path class="e" d="M462.41,400.95c-.47,.88-1.1,2.04-1.88,3.48-.78,1.44-1.62,3.01-2.54,4.72-.91,1.71-1.85,3.5-2.79,5.38-.95,1.88-1.79,3.71-2.54,5.48-.75,1.78-1.36,3.45-1.85,5-.49,1.56-.74,2.88-.74,3.96,0,.98,.2,1.65,.61,2.01s.98,.53,1.73,.53c1.39,0,2.74-.46,4.06-1.37s2.63-2.11,3.94-3.58c1.3-1.47,2.58-3.16,3.83-5.05,1.25-1.9,2.5-3.81,3.76-5.74l1.83,1.42c-.98,1.76-2.09,3.64-3.33,5.64-1.24,2-2.62,3.85-4.14,5.56-1.52,1.71-3.2,3.12-5.03,4.24s-3.83,1.68-5.99,1.68c-2.03,0-3.59-.61-4.67-1.83-1.08-1.22-1.62-2.79-1.62-4.72,0-.44,.03-.88,.08-1.32,.05-.44,.11-.9,.18-1.37-1.12,1.29-2.34,2.52-3.68,3.71-1.34,1.19-2.79,2.24-4.34,3.17-1.56,.93-3.2,1.68-4.93,2.23s-3.54,.84-5.43,.84c-.95,0-1.87-.11-2.77-.33-.9-.22-1.77-.57-2.62-1.04-1.12,2.74-2.21,5.43-3.28,8.07s-2.08,5.15-3.05,7.52c-.96,2.37-1.85,4.55-2.67,6.55-.81,2-1.52,3.73-2.13,5.21s-1.08,2.64-1.42,3.5c-.34,.86-.52,1.31-.56,1.35l-5.33-2.64c1.73-4.06,3.28-7.79,4.65-11.17,1.37-3.39,2.64-6.55,3.81-9.5s2.27-5.71,3.3-8.3c1.03-2.59,2.07-5.1,3.12-7.54-.54-.78-.94-1.54-1.19-2.29-.25-.74-.41-1.35-.48-1.83-.07-.78,.14-1.43,.63-1.96,.49-.52,1.13-.79,1.9-.79,.64,0,1.24,.22,1.78,.66,1.02-2.44,1.92-4.58,2.72-6.42,.79-1.84,1.46-3.39,2.01-4.65,.61-1.46,1.15-2.72,1.62-3.81,2.95-6.94,5.68-12.94,8.2-18,2.52-5.06,4.85-9.36,6.98-12.9,2.13-3.54,4.08-6.4,5.84-8.58,1.76-2.18,3.36-3.88,4.8-5.1,1.44-1.22,2.73-2.04,3.88-2.46,1.15-.42,2.18-.63,3.1-.63,1.49,0,2.75,.33,3.78,.99,1.03,.66,1.62,1.79,1.75,3.38,.13,1.56-.14,3.52-.84,5.89-.69,2.37-1.64,4.88-2.84,7.54-1.2,2.66-2.6,5.34-4.19,8.05-1.59,2.71-3.22,5.2-4.88,7.46-3.15,4.27-6,7.8-8.56,10.61-2.56,2.81-4.8,5.08-6.73,6.8s-3.54,3-4.82,3.83c-1.29,.83-2.23,1.4-2.84,1.7l-7.06,16.91c1.08,.85,2.52,1.27,4.32,1.27,2.78,0,5.32-.6,7.64-1.8,2.32-1.2,4.39-2.65,6.22-4.34,1.83-1.69,3.41-3.44,4.75-5.26,1.34-1.81,2.39-3.33,3.17-4.54,.85-1.49,1.78-2.96,2.79-4.42,1.02-1.46,2.06-2.87,3.12-4.24s2.13-2.69,3.2-3.96,2.07-2.46,3.02-3.58l1.62,.71Zm-.25-37.88c-.03-.58-.16-1.07-.38-1.5-.22-.42-.67-.63-1.35-.63-.41,0-.93,.09-1.57,.28-.64,.19-1.4,.58-2.26,1.19s-1.84,1.51-2.92,2.69c-1.08,1.19-2.29,2.78-3.63,4.77-1.34,2-2.79,4.47-4.37,7.41s-3.26,6.5-5.05,10.66c-1.19,2.64-2.56,5.85-4.11,9.62-1.56,3.78-3.27,7.86-5.13,12.26,1.59-1.12,3.26-2.51,5-4.19,1.74-1.68,3.5-3.52,5.28-5.54,1.78-2.01,3.53-4.16,5.26-6.42,1.73-2.27,3.37-4.57,4.93-6.91,1.56-2.34,2.99-4.65,4.29-6.96,1.3-2.3,2.42-4.49,3.35-6.58,.93-2.08,1.63-3.99,2.11-5.74,.47-1.74,.66-3.22,.56-4.44Zm9.75,26.61c0,.68-.17,1.38-.51,2.11-.34,.73-.77,1.38-1.29,1.96-.53,.58-1.11,1.05-1.75,1.42-.64,.37-1.29,.56-1.93,.56-.58,0-1.02-.21-1.32-.63-.3-.42-.46-.94-.46-1.55,0-.54,.1-1.18,.3-1.93,.2-.74,.51-1.45,.91-2.11s.9-1.23,1.47-1.7c.58-.47,1.24-.71,1.98-.71s1.32,.27,1.83,.81c.51,.54,.76,1.13,.76,1.78Z"/><path class="e" d="M510.39,408.36c0,1.46-.25,2.94-.76,4.44-.51,1.51-1.15,3.01-1.93,4.52-.78,1.51-1.61,2.99-2.49,4.44-.88,1.46-1.71,2.86-2.49,4.21-.78,1.35-1.42,2.65-1.93,3.88-.51,1.24-.76,2.36-.76,3.38,0,.78,.17,1.3,.51,1.57,.34,.27,.71,.41,1.12,.41,1.29,0,2.72-.63,4.32-1.9,1.59-1.27,3.21-2.87,4.85-4.8,1.64-1.93,3.28-4.03,4.9-6.3,1.62-2.27,3.1-4.42,4.42-6.45l1.83,1.42c-.27,.41-.76,1.21-1.47,2.41-.71,1.2-1.59,2.57-2.64,4.11-1.05,1.54-2.23,3.15-3.53,4.82-1.3,1.68-2.7,3.22-4.19,4.62-1.49,1.41-3.02,2.56-4.6,3.48s-3.16,1.37-4.75,1.37c-.91,0-1.74-.15-2.49-.46-.75-.3-1.38-.73-1.9-1.27-.53-.54-.94-1.18-1.24-1.9s-.46-1.5-.46-2.31c0-1.32,.3-2.75,.89-4.29,.59-1.54,1.33-3.12,2.21-4.75,.88-1.62,1.84-3.26,2.89-4.9,1.05-1.64,2.01-3.21,2.89-4.7,.88-1.49,1.62-2.87,2.21-4.14,.59-1.27,.89-2.36,.89-3.28,0-1.05-.28-1.93-.84-2.64s-1.35-1.07-2.36-1.07c-1.08,0-2.34,.45-3.76,1.35-1.42,.9-3.01,2.21-4.77,3.94-1.76,1.73-3.68,3.85-5.76,6.37-2.08,2.52-4.34,5.39-6.78,8.61-1.39,1.86-2.74,3.66-4.06,5.38-.58,.75-1.15,1.51-1.73,2.29-.58,.78-1.15,1.55-1.73,2.31-.58,.76-1.12,1.49-1.62,2.18s-.96,1.29-1.37,1.8l-4.47-1.83,5.94-8.18c.85-1.15,1.71-2.39,2.59-3.71,.88-1.32,1.75-2.68,2.62-4.09,.86-1.4,1.68-2.82,2.46-4.24,.78-1.42,1.51-2.81,2.18-4.16,.98-2.03,1.66-3.71,2.03-5.05,.37-1.34,.56-2.41,.56-3.22,0-.91-.17-1.51-.51-1.8-.34-.29-.81-.43-1.42-.43-.64,0-1.38,.33-2.21,.99-.83,.66-1.68,1.51-2.56,2.54-.88,1.03-1.77,2.2-2.67,3.5-.9,1.3-1.75,2.6-2.56,3.88-.81,1.29-1.57,2.51-2.29,3.66-.71,1.15-1.3,2.08-1.78,2.79l-1.83-1.42c1.73-2.71,3.29-5.19,4.7-7.44,1.4-2.25,2.76-4.19,4.06-5.81,1.3-1.62,2.57-2.89,3.81-3.78,1.24-.9,2.55-1.35,3.94-1.35,.74,0,1.46,.15,2.16,.46,.69,.3,1.3,.75,1.83,1.35,.52,.59,.94,1.31,1.24,2.16,.3,.85,.46,1.83,.46,2.95,0,.88-.1,1.79-.3,2.74,1.49-1.46,2.88-2.66,4.16-3.61,1.29-.95,2.47-1.7,3.55-2.26,1.08-.56,2.08-.96,3-1.19,.91-.24,1.74-.36,2.49-.36,.64,0,1.39,.12,2.23,.36,.85,.24,1.64,.68,2.39,1.32,.74,.64,1.38,1.53,1.9,2.67,.52,1.13,.79,2.6,.79,4.39Z"/><path class="e" d="M524,423.14c-.07,.41-.12,.81-.15,1.22-.03,.41-.05,.81-.05,1.22,0,1.22,.18,2.38,.53,3.48,.36,1.1,.88,2.07,1.57,2.89,.69,.83,1.56,1.48,2.59,1.96,1.03,.47,2.21,.71,3.53,.71,4.43,0,8.72-1.51,12.85-4.52,4.13-3.01,8.24-7.79,12.34-14.32l1.73,1.52c-2.23,3.72-4.5,6.86-6.8,9.42-2.3,2.56-4.6,4.63-6.88,6.22-2.29,1.59-4.53,2.74-6.73,3.45-2.2,.71-4.3,1.07-6.3,1.07-1.46,0-3-.2-4.62-.61s-3.12-1.08-4.49-2.03-2.51-2.22-3.4-3.81c-.9-1.59-1.35-3.57-1.35-5.94,0-2.54,.43-4.98,1.29-7.34,.86-2.35,1.99-4.54,3.38-6.58,1.39-2.03,2.98-3.88,4.77-5.56,1.79-1.68,3.61-3.11,5.46-4.29,1.84-1.18,3.65-2.11,5.41-2.77,1.76-.66,3.32-.99,4.67-.99,.88,0,1.78,.14,2.69,.41,.91,.27,1.73,.69,2.46,1.27,.73,.58,1.32,1.34,1.78,2.29,.46,.95,.69,2.08,.69,3.4,0,1.79-.42,3.48-1.24,5.05-.83,1.57-1.94,3.03-3.33,4.37-1.39,1.34-3,2.54-4.82,3.61s-3.74,1.97-5.74,2.72c-2,.75-4.01,1.34-6.04,1.78-2.03,.44-3.96,.68-5.79,.71Zm.41-2.18c2.27-.24,4.4-.71,6.4-1.42,2-.71,3.83-1.58,5.48-2.62,1.66-1.03,3.14-2.16,4.44-3.38,1.3-1.22,2.39-2.45,3.28-3.71,.88-1.25,1.56-2.45,2.03-3.61,.47-1.15,.71-2.18,.71-3.1s-.25-1.64-.74-2.18c-.49-.54-1.08-.81-1.75-.81-1.49,0-3.17,.53-5.03,1.6-1.86,1.07-3.72,2.54-5.59,4.42-1.86,1.88-3.61,4.09-5.26,6.63-1.64,2.54-2.97,5.26-3.99,8.18Z"/><path class="e" d="M562.29,415.17l1.88-3.81h25.49l-1.88,3.81h-25.49Z"/></g></g></g></g></svg>