<?xml version="1.0" encoding="UTF-8"?><svg xmlns="http://www.w3.org/2000/svg" viewBox="0 0 143.74 80.44"><defs><style>.d{fill:#fcee21;}</style></defs><g id="a"/><g id="b"><g id="c"><g><g><g><path d="M32.99,40.33c.3,.65,.45,.99,.45,1.03-.1,.13-.19,.28-.27,.42s-.17,.3-.27,.46c-.09,.13-.2,.25-.35,.35-.14,.1-.31,.18-.49,.25-.27,.1-.52,.21-.76,.31s-.45,.2-.65,.3c-.22,.1-.45,.17-.7,.21-.25,.03-.49,.06-.72,.09-.16,.04-.33,.07-.49,.08-.16,.01-.31,.02-.44,.02-.11,0-.2,0-.28-.02-.07-.01-.14-.03-.19-.06-.07-.04-.13-.09-.2-.13-.06-.04-.12-.09-.18-.12-.13-.07-.22-.13-.29-.17-.09-.05-.15-.2-.2-.45-.04-.25-.06-.6-.06-1.07,0-.33,.09-.85,.28-1.56,.19-.71,.28-1.19,.28-1.43,0-.05,0-.12-.02-.22-.02-.09-.02-.17-.02-.23,0-.21,.07-.68,.22-1.42,.15-.74,.22-1.26,.22-1.55,0-.14-.05-.24-.16-.31-.11-.06-.16-.16-.16-.28,0-.18,.01-.38,.04-.6s.08-.47,.16-.74c.06-.22,.12-.43,.17-.65s.1-.43,.16-.64c.05-.25,.11-.49,.16-.75,.06-.25,.1-.5,.14-.74,.04-.16,.12-.36,.21-.6s.21-.51,.35-.81c.07-.15,.13-.29,.18-.42,.05-.13,.11-.27,.17-.42,.06-.12,.15-.23,.26-.32s.25-.18,.41-.25c.13-.05,.25-.09,.36-.12,.1-.03,.17-.04,.21-.04,.2,0,.35,.07,.44,.21,.09,.14,.14,.35,.14,.63,0,.09,0,.19-.02,.31-.01,.12-.04,.25-.08,.4-.03,.16-.06,.29-.08,.4-.03,.11-.05,.2-.06,.27,0,.18-.02,.34-.03,.49-.02,.15-.03,.29-.06,.41-.04,.09-.1,.2-.18,.32-.05,.35-.09,.64-.13,.88-.03,.23-.05,.4-.05,.5,0,.31-.08,.71-.24,1.18-.16,.47-.24,.83-.24,1.08,0,.1-.02,.24-.06,.41-.04,.17-.09,.37-.17,.6-.08,.31-.15,.55-.2,.73-.05,.17-.08,.28-.09,.31-.02,.11-.03,.24-.05,.39-.02,.15-.05,.32-.08,.52-.17,.81-.3,1.48-.39,2.02-.09,.53-.13,.93-.13,1.2,0,.25,.03,.44,.08,.57,.05,.13,.13,.2,.23,.2,.47,0,.94-.05,1.42-.16,.48-.1,.98-.26,1.5-.46,.06,0,.12-.02,.17-.04s.11-.04,.17-.07c.09-.1,.16-.2,.2-.29,.1-.06,.18-.12,.26-.18,.07-.06,.14-.13,.19-.2Z"/><path d="M33.34,39.84l1.02-.67s.08-.09,.13-.15c.05-.06,.11-.15,.18-.27,.05-.1,.12-.18,.21-.25s.18-.13,.3-.18c.06-.07,.15-.17,.26-.28s.25-.24,.42-.39c.08-.04,.19-.11,.31-.2,.13-.09,.26-.2,.41-.34,.68-.64,1.27-1.12,1.78-1.44,.51-.32,.94-.48,1.29-.48,.19,0,.34,.04,.43,.12,.09,.08,.14,.2,.14,.35,0,.16-.03,.29-.08,.41s-.14,.22-.26,.3c-.19,.13-.39,.28-.6,.45-.12,.16-.26,.32-.44,.5-.17,.17-.37,.35-.6,.52-.07,.1-.14,.18-.19,.26-.04,.04-.11,.1-.21,.2s-.24,.21-.41,.33c-.07,.16-.24,.38-.49,.64-.25,.26-.58,.57-1,.94-.05,.05-.15,.17-.28,.36s-.31,.43-.52,.74l.08,.1c.16-.05,.33-.14,.51-.27s.38-.29,.59-.5c.25-.23,.46-.42,.62-.56,.16-.15,.27-.24,.34-.28,.05-.03,.1-.06,.16-.09s.11-.07,.18-.11c.34-.41,.66-.71,.96-.91,.3-.2,.57-.3,.83-.3,.16,0,.28,.06,.36,.18,.08,.12,.13,.31,.15,.55-.02,.37-.02,.73-.02,1.07,0,.24,.06,.45,.2,.64,.14,.19,.32,.28,.54,.28,.07,0,.13-.02,.2-.06,.06-.04,.13-.09,.2-.15,.05-.07,.1-.13,.15-.19,.05-.06,.1-.12,.15-.18,.03-.01,.07-.04,.13-.08,.06-.04,.11-.08,.16-.13,.1,.22,.19,.42,.26,.59s.12,.31,.16,.44c-.17,.16-.34,.32-.51,.49s-.34,.33-.53,.47c-.22,.17-.44,.3-.65,.38-.21,.09-.42,.13-.62,.13-.48,0-.86-.14-1.12-.41-.26-.27-.41-.69-.46-1.25,0-.07,0-.14-.03-.21s-.06-.14-.12-.22c-.04,.04-.08,.08-.12,.12-.04,.04-.1,.09-.16,.16-.1,.07-.22,.17-.36,.28-.15,.11-.31,.25-.51,.4-.26,.27-.48,.49-.66,.66-.18,.17-.31,.29-.38,.37-.15,.13-.32,.25-.52,.38s-.42,.26-.66,.39c-.16,.08-.29,.15-.4,.2-.11,.05-.19,.07-.25,.07-.36,0-.62-.09-.79-.26-.17-.17-.26-.44-.26-.81,0-.2,.04-.39,.13-.58,.09-.18,.21-.36,.38-.53,.02-.1,.02-.17,.02-.23,0-.04,0-.08-.03-.12-.02-.04-.04-.09-.07-.14-.04-.1-.09-.22-.15-.35-.06-.13-.12-.27-.18-.42,.03-.03,.07-.09,.13-.17,.06-.09,.12-.19,.2-.32Z"/></g><g><path d="M25.81,53.67c.04-.05,.1-.12,.16-.21,.06-.09,.13-.18,.2-.28,.33-.41,.65-.78,.96-1.1,.31-.32,.6-.61,.88-.87,.14-.13,.31-.31,.51-.52,.2-.21,.44-.46,.7-.73,.27-.1,.56-.22,.88-.36,.2,0,.35,.07,.45,.2,.1,.13,.15,.32,.15,.56,0,.21-.02,.43-.05,.68-.03,.24-.08,.49-.14,.74-.07,.2-.12,.39-.17,.58,0,.05,.01,.09,.03,.12,.02,.03,.06,.04,.11,.04,.11-.05,.33-.24,.65-.56s.74-.77,1.26-1.34c.45-.49,.84-.86,1.17-1.1s.6-.36,.8-.36c.22,0,.37,.08,.47,.24,.1,.16,.15,.4,.15,.71,0,.45-.03,.89-.1,1.31-.07,.42-.18,.82-.35,1.21-.03,.07-.05,.14-.06,.19,0,.05-.01,.1-.01,.15,0,.05,.04,.1,.13,.15,.06-.05,.13-.13,.21-.22s.17-.22,.27-.37c.17-.14,.34-.28,.51-.42,.17-.14,.36-.29,.56-.44,.21-.16,.42-.29,.64-.37,.22-.09,.43-.13,.64-.13,.04,0,.07,.01,.11,.03,.04,.02,.07,.05,.11,.08,.17,.15,.31,.28,.42,.41,.11,.12,.19,.23,.23,.32,.29,.6,.55,1.04,.77,1.33,.23,.29,.43,.44,.6,.44,.04,0,.07,0,.11-.03s.07-.04,.11-.07c.17,.36,.32,.71,.44,1.03-.27,.21-.51,.37-.71,.47-.21,.11-.39,.16-.55,.16-.51,0-1.04-.33-1.59-1-.55-.67-.96-1-1.25-1-.39,0-1.03,.57-1.93,1.71-.9,1.14-1.46,1.71-1.68,1.71-.11,0-.26-.01-.45-.03-.06-.02-.1-.07-.13-.14s-.04-.15-.04-.25c0-.11,.02-.26,.07-.44,.04-.18,.1-.4,.18-.64,.1-.31,.17-.56,.23-.75s.09-.32,.1-.39c.02-.1,.05-.29,.09-.57s.1-.66,.16-1.13c0-.08-.02-.15-.07-.19s-.1-.07-.16-.07c-.05,0-.11,.02-.17,.05-.06,.03-.14,.09-.22,.16-.09,.1-.19,.19-.3,.29-.11,.1-.28,.23-.52,.41-.26,.3-.53,.6-.8,.91-.27,.31-.55,.62-.83,.93-.45,.52-.8,.91-1.07,1.16s-.43,.37-.51,.37c-.22,0-.39-.03-.51-.08-.12-.05-.17-.13-.17-.23,0-.25,.13-.76,.4-1.54,.26-.78,.4-1.33,.4-1.65,0-.05-.02-.09-.05-.13-.03-.03-.08-.05-.13-.05-.09,0-.2,.05-.32,.15-.12,.1-.26,.26-.42,.47-.1,.12-.23,.26-.38,.41-.15,.16-.33,.34-.55,.55-.02,.06-.05,.12-.09,.17-.04,.06-.08,.11-.12,.16-.03-.11-.08-.25-.16-.41-.07-.16-.17-.37-.29-.61Z"/><path d="M40.26,53.17l1.02-.67s.08-.09,.13-.15c.05-.06,.11-.15,.18-.27,.05-.1,.12-.18,.21-.25s.18-.13,.3-.18c.06-.07,.15-.17,.26-.28s.25-.24,.42-.39c.08-.04,.19-.11,.31-.2,.13-.09,.26-.2,.41-.34,.68-.64,1.27-1.12,1.78-1.44,.51-.32,.94-.48,1.29-.48,.19,0,.34,.04,.43,.12,.09,.08,.14,.2,.14,.35,0,.16-.03,.29-.08,.41s-.14,.22-.26,.3c-.19,.13-.39,.28-.6,.45-.12,.16-.26,.32-.44,.5-.17,.17-.37,.35-.6,.52-.07,.1-.14,.18-.19,.26-.04,.04-.11,.1-.21,.2s-.24,.21-.41,.33c-.07,.16-.24,.38-.49,.64-.25,.26-.58,.57-1,.94-.05,.05-.15,.17-.28,.36s-.31,.43-.52,.74l.08,.1c.16-.05,.33-.14,.51-.27s.38-.29,.59-.5c.25-.23,.46-.42,.62-.56,.16-.15,.27-.24,.34-.28,.05-.03,.1-.06,.16-.09s.11-.07,.18-.11c.34-.41,.66-.71,.96-.91,.3-.2,.57-.3,.83-.3,.16,0,.28,.06,.36,.18,.08,.12,.13,.31,.15,.55-.02,.37-.02,.73-.02,1.07,0,.24,.06,.45,.2,.64,.14,.19,.32,.28,.54,.28,.07,0,.13-.02,.2-.06,.06-.04,.13-.09,.2-.15,.05-.07,.1-.13,.15-.19,.05-.06,.1-.12,.15-.18,.03-.01,.07-.04,.13-.08,.06-.04,.11-.08,.16-.13,.1,.22,.19,.42,.26,.59s.12,.31,.16,.44c-.17,.16-.34,.32-.51,.49s-.34,.33-.53,.47c-.22,.17-.44,.3-.65,.38-.21,.09-.42,.13-.62,.13-.48,0-.86-.14-1.12-.41-.26-.27-.41-.69-.46-1.25,0-.07,0-.14-.03-.21s-.06-.14-.12-.22c-.04,.04-.08,.08-.12,.12-.04,.04-.1,.09-.16,.16-.1,.07-.22,.17-.36,.28-.15,.11-.31,.25-.51,.4-.26,.27-.48,.49-.66,.66-.18,.17-.31,.29-.38,.37-.15,.13-.32,.25-.52,.38s-.42,.26-.66,.39c-.16,.08-.29,.15-.4,.2-.11,.05-.19,.07-.25,.07-.36,0-.62-.09-.79-.26-.17-.17-.26-.44-.26-.81,0-.2,.04-.39,.13-.58,.09-.18,.21-.36,.38-.53,.02-.1,.02-.17,.02-.23,0-.04,0-.08-.03-.12-.02-.04-.04-.09-.07-.14-.04-.1-.09-.22-.15-.35-.06-.13-.12-.27-.18-.42,.03-.03,.07-.09,.13-.17,.06-.09,.12-.19,.2-.32Z"/><path d="M48.49,53.67l.07-.08,.03-.11c.2-.27,.55-.63,1.06-1.08,.51-.44,.86-.8,1.05-1.08,.07-.12,.16-.2,.26-.26,.1-.05,.19-.08,.29-.08,.26,0,.48,.07,.66,.2,.18,.13,.3,.33,.36,.59,.05,.23,.1,.46,.15,.7,.04,.23,.08,.47,.11,.71,.05,.15,.12,.37,.19,.68,.07,.3,.13,.47,.17,.52,.04,.07,.09,.13,.17,.16,.07,.03,.17,.05,.28,.05,.13,0,.27-.02,.41-.07s.29-.13,.44-.25c.11-.1,.23-.2,.35-.3,.12-.1,.24-.2,.36-.3l.45,1.03c-.12,.12-.28,.26-.47,.41-.2,.15-.43,.33-.71,.53-.31,.22-.57,.39-.78,.5-.22,.11-.38,.16-.49,.16-.68,0-1.12-.08-1.32-.23-.2-.16-.42-.59-.67-1.31-.03-.06-.07-.13-.13-.21-.06-.08-.13-.18-.2-.29-.09-.17-.17-.3-.23-.39-.07-.09-.12-.13-.17-.13-.12,0-.28,.08-.48,.24-.2,.16-.45,.4-.74,.72-.04-.1-.08-.21-.14-.35-.06-.13-.11-.29-.17-.47-.01-.04-.03-.09-.06-.12s-.05-.07-.08-.09Zm4.67-8.81c.19,0,.32,.04,.41,.11,.09,.07,.13,.18,.13,.32-.04,.21-.08,.38-.11,.52-.07,.27-.14,.49-.2,.66s-.1,.29-.13,.37c-.07,.16-.16,.31-.27,.43-.12,.12-.25,.23-.42,.33-.17,.12-.31,.2-.43,.25-.12,.05-.2,.07-.24,.06-.13-.01-.25-.03-.36-.04-.12-.01-.23-.02-.34-.02-.1-.05-.17-.15-.23-.3-.06-.15-.08-.35-.08-.6,0-.22,.14-.5,.41-.84,.27-.34,.51-.52,.72-.54,.13-.16,.27-.33,.45-.54,.07-.05,.17-.1,.29-.13,.12-.03,.26-.05,.41-.05Z"/><path d="M54.87,53.67c.03-.05,.07-.11,.12-.17,.05-.06,.11-.14,.17-.23,.07-.06,.17-.15,.29-.26,.12-.11,.25-.24,.4-.39,.13-.15,.3-.33,.49-.55,.19-.22,.43-.49,.7-.8,.12-.13,.27-.29,.45-.49,.18-.2,.39-.43,.64-.71,.21-.25,.43-.43,.67-.55,.24-.12,.49-.18,.76-.18s.46,.08,.59,.25c.13,.17,.19,.41,.19,.73,0,.17-.06,.5-.19,.98-.13,.48-.32,1.12-.59,1.92-.07,.15-.13,.29-.19,.42-.04,.1-.07,.18-.09,.26-.02,.07-.02,.13-.02,.17,0,.04,.03,.1,.08,.17,.04-.02,.07-.05,.11-.09s.07-.08,.12-.13c.06-.11,.15-.23,.27-.35s.27-.26,.44-.41c.07-.13,.15-.25,.26-.37,.11-.12,.23-.24,.36-.34,.03-.03,.07-.08,.12-.15,.05-.07,.11-.14,.17-.21,.1-.1,.21-.2,.35-.3,.13-.1,.29-.21,.47-.32,.2-.1,.38-.19,.54-.25,.16-.06,.3-.09,.42-.09,.23,0,.44,.06,.61,.17,.18,.11,.33,.29,.46,.52,.15,.46,.29,.89,.42,1.28,.08,.23,.17,.4,.27,.51,.1,.11,.21,.17,.34,.17,.1,0,.18-.02,.26-.06s.15-.09,.22-.17l.45,1.03c-.13,.1-.26,.21-.39,.32-.13,.11-.26,.22-.39,.32-.17,.16-.33,.27-.48,.33-.15,.06-.3,.09-.45,.09-.17,0-.33-.04-.49-.11-.16-.07-.29-.19-.4-.33-.06-.06-.13-.17-.22-.33-.09-.16-.19-.36-.31-.6-.1-.1-.21-.23-.33-.39-.12-.16-.27-.35-.43-.56l-.1-.03c-.14,.04-.28,.11-.42,.2-.14,.09-.28,.2-.44,.35-.33,.3-.58,.48-.73,.56-.15,.07-.25,.16-.3,.26-.1,.18-.28,.41-.54,.69-.25,.28-.57,.62-.95,1-.1,.1-.19,.19-.29,.28-.1,.09-.19,.18-.29,.27-.1,.08-.21,.14-.33,.17-.12,.03-.26,.05-.41,.05-.3,0-.46-.1-.49-.31-.03-.2-.05-.41-.07-.62,.11-.31,.24-.7,.38-1.17s.3-1.02,.49-1.64c0-.04,.01-.09,.04-.15,.03-.06,.06-.15,.09-.25,.04-.1,.06-.18,.08-.25s.02-.13,.02-.18-.02-.09-.06-.12c-.04-.03-.1-.04-.18-.04-.07,0-.17,.04-.3,.13-.12,.09-.27,.23-.44,.42-.21,.22-.38,.4-.5,.52s-.21,.2-.26,.22c-.07,.05-.16,.13-.26,.22s-.21,.2-.34,.32c-.02,.03-.04,.07-.07,.13-.03,.06-.08,.13-.15,.2-.03-.11-.08-.25-.16-.41-.07-.16-.17-.37-.29-.61Z"/><path d="M71.62,53.17l1.02-.67s.08-.09,.13-.15c.05-.06,.11-.15,.18-.27,.05-.1,.12-.18,.21-.25s.18-.13,.3-.18c.06-.07,.15-.17,.26-.28s.25-.24,.42-.39c.08-.04,.19-.11,.31-.2,.13-.09,.26-.2,.41-.34,.68-.64,1.27-1.12,1.78-1.44,.51-.32,.94-.48,1.29-.48,.19,0,.34,.04,.43,.12,.09,.08,.14,.2,.14,.35,0,.16-.03,.29-.08,.41s-.14,.22-.26,.3c-.19,.13-.39,.28-.6,.45-.12,.16-.26,.32-.44,.5-.17,.17-.37,.35-.6,.52-.07,.1-.14,.18-.19,.26-.04,.04-.11,.1-.21,.2s-.24,.21-.41,.33c-.07,.16-.24,.38-.49,.64-.25,.26-.58,.57-1,.94-.05,.05-.15,.17-.28,.36s-.31,.43-.52,.74l.08,.1c.16-.05,.33-.14,.51-.27s.38-.29,.59-.5c.25-.23,.46-.42,.62-.56,.16-.15,.27-.24,.34-.28,.05-.03,.1-.06,.16-.09s.11-.07,.18-.11c.34-.41,.66-.71,.96-.91,.3-.2,.57-.3,.83-.3,.16,0,.28,.06,.36,.18,.08,.12,.13,.31,.15,.55-.02,.37-.02,.73-.02,1.07,0,.24,.06,.45,.2,.64,.14,.19,.32,.28,.54,.28,.07,0,.13-.02,.2-.06,.06-.04,.13-.09,.2-.15,.05-.07,.1-.13,.15-.19,.05-.06,.1-.12,.15-.18,.03-.01,.07-.04,.13-.08,.06-.04,.11-.08,.16-.13,.1,.22,.19,.42,.26,.59s.12,.31,.16,.44c-.17,.16-.34,.32-.51,.49s-.34,.33-.53,.47c-.22,.17-.44,.3-.65,.38-.21,.09-.42,.13-.62,.13-.48,0-.86-.14-1.12-.41-.26-.27-.41-.69-.46-1.25,0-.07,0-.14-.03-.21s-.06-.14-.12-.22c-.04,.04-.08,.08-.12,.12-.04,.04-.1,.09-.16,.16-.1,.07-.22,.17-.36,.28-.15,.11-.31,.25-.51,.4-.26,.27-.48,.49-.66,.66-.18,.17-.31,.29-.38,.37-.15,.13-.32,.25-.52,.38s-.42,.26-.66,.39c-.16,.08-.29,.15-.4,.2-.11,.05-.19,.07-.25,.07-.36,0-.62-.09-.79-.26-.17-.17-.26-.44-.26-.81,0-.2,.04-.39,.13-.58,.09-.18,.21-.36,.38-.53,.02-.1,.02-.17,.02-.23,0-.04,0-.08-.03-.12-.02-.04-.04-.09-.07-.14-.04-.1-.09-.22-.15-.35-.06-.13-.12-.27-.18-.42,.03-.03,.07-.09,.13-.17,.06-.09,.12-.19,.2-.32Zm7.57-5.11c-.17,0-.3-.04-.39-.1-.04-.02-.09-.07-.14-.13s-.11-.12-.17-.17c-.09-.07-.2-.12-.32-.17-.12-.04-.24-.1-.35-.17-.11-.06-.22-.13-.33-.22-.11-.09-.21-.16-.31-.21-.1-.04-.17-.09-.21-.13-.04-.04-.12-.09-.22-.13-.04-.02-.1-.03-.16-.03s-.11-.01-.15-.03c-.07-.04-.14-.09-.2-.16s-.11-.12-.15-.17c-.07-.06-.13-.12-.19-.19-.06-.07-.1-.13-.13-.2s-.05-.14-.07-.22c-.02-.08-.03-.15-.03-.22,0-.04-.02-.1-.06-.16-.04-.06-.06-.12-.06-.18,0-.04,.02-.09,.07-.14,.05-.05,.08-.1,.09-.14,.02-.05,.07-.11,.14-.17,.07-.06,.12-.12,.15-.17,.05-.09,.11-.15,.17-.18,.06-.03,.13-.04,.2-.04,.04,0,.1,0,.17,0,.07,0,.12,0,.15,.02,.06,.04,.09,.1,.11,.18,.01,.08,.02,.17,.04,.26,.12,0,.2,0,.25,.02,.07,.11,.11,.18,.13,.21,.04,.07,.09,.15,.13,.26,.04,.1,.1,.21,.17,.31,.07,.1,.16,.19,.28,.28,.12,.09,.24,.2,.35,.32,.09,.09,.17,.19,.25,.31s.17,.23,.27,.32c.12,.1,.23,.2,.33,.28s.18,.16,.24,.25c.06,.09,.1,.18,.13,.27,.03,.09,.04,.17,.04,.24,0,.11-.02,.19-.06,.25-.04,.05-.09,.08-.17,.08Z"/><path d="M85.56,53.67c.07-.07,.13-.17,.2-.27,.07-.11,.16-.23,.27-.35l.74-.65s.05-.05,.05-.09c0-.04,0-.09,0-.16,0-.1-.02-.17-.03-.23,0-.17,.03-.46,.1-.86,.07-.4,.13-.64,.18-.73l-.07-.21c.1-.5,.23-1.04,.41-1.64,.17-.59,.37-1.23,.6-1.93,.07-.12,.15-.27,.23-.45,.08-.18,.17-.39,.28-.62,.13-.39,.29-.79,.5-1.22s.44-.86,.7-1.31c.35-.59,.66-1.03,.93-1.33,.27-.3,.52-.45,.73-.45,.43,0,.73,.08,.89,.25,.16,.17,.24,.48,.24,.94,0,.12-.02,.3-.06,.55-.04,.25-.06,.44-.06,.56s-.04,.31-.12,.54c-.08,.23-.12,.44-.12,.64,0,.06-.03,.12-.06,.18v.16c-.02,.1-.06,.23-.12,.38-.06,.15-.14,.33-.23,.54-.05,.19-.12,.4-.2,.65s-.18,.51-.29,.8c-.04,.07-.1,.17-.17,.27-.07,.11-.15,.23-.23,.36-.02,.1-.06,.21-.11,.33s-.12,.28-.21,.45c-.04,.09-.1,.19-.18,.29-.07,.1-.16,.24-.27,.4-.04,.07-.09,.17-.15,.28-.05,.11-.11,.24-.18,.38-.08,.13-.19,.28-.32,.47-.13,.19-.29,.41-.46,.66-.23,.41-.47,.8-.71,1.17,0,.72,.14,1.27,.43,1.64,.29,.37,.72,.55,1.29,.55,.04,0,.15-.03,.33-.08,.19-.05,.44-.13,.77-.25,.1-.06,.21-.14,.35-.25,.13-.11,.29-.24,.46-.39l.44,1.03c-.19,.17-.39,.35-.58,.52-.19,.18-.39,.35-.59,.52-.23,.19-.47,.34-.7,.44-.24,.1-.47,.15-.7,.15-.12,0-.3-.01-.55-.04-.25-.03-.43-.04-.56-.04-.42,0-.76-.17-1.03-.5-.27-.33-.46-.84-.57-1.51-.02-.07-.04-.13-.06-.18-.03-.05-.07-.11-.14-.18-.1,.1-.21,.21-.34,.35s-.29,.29-.47,.46l-.45-1.03Zm5.32-8.76l-.08-.04c-.42,.4-.73,.78-.94,1.14-.21,.36-.32,.7-.32,1.04,0,.05-.02,.14-.07,.26-.05,.12-.12,.28-.22,.47-.12,.23-.24,.48-.37,.76-.14,.42-.25,.76-.32,1.02-.07,.26-.11,.45-.11,.56l.07,.09c.07,0,.15-.07,.25-.2,.1-.13,.21-.31,.33-.56,.06-.13,.15-.29,.26-.47s.24-.39,.38-.64c.12-.16,.31-.58,.57-1.26,.26-.68,.4-1.11,.42-1.29,0-.15,.03-.3,.06-.44,.03-.15,.06-.29,.09-.43Z"/><path d="M92.21,53.17l1.02-.67s.08-.09,.13-.15c.05-.06,.11-.15,.18-.27,.05-.1,.12-.18,.21-.25,.09-.07,.18-.13,.3-.18,.06-.07,.15-.17,.26-.28s.25-.24,.42-.39c.08-.04,.19-.11,.31-.2,.13-.09,.26-.2,.41-.34,.68-.64,1.27-1.12,1.78-1.44,.51-.32,.94-.48,1.29-.48,.19,0,.34,.04,.43,.12,.09,.08,.14,.2,.14,.35,0,.16-.03,.29-.08,.41s-.14,.22-.26,.3c-.19,.13-.39,.28-.6,.45-.12,.16-.26,.32-.44,.5-.17,.17-.37,.35-.6,.52-.07,.1-.14,.18-.19,.26-.04,.04-.11,.1-.21,.2s-.24,.21-.41,.33c-.07,.16-.24,.38-.49,.64-.25,.26-.58,.57-1,.94-.05,.05-.15,.17-.28,.36s-.31,.43-.52,.74l.08,.1c.16-.05,.33-.14,.51-.27s.38-.29,.59-.5c.25-.23,.46-.42,.62-.56,.16-.15,.27-.24,.34-.28,.05-.03,.1-.06,.16-.09s.11-.07,.18-.11c.34-.41,.66-.71,.96-.91,.3-.2,.57-.3,.83-.3,.16,0,.28,.06,.36,.18,.08,.12,.13,.31,.15,.55-.02,.37-.02,.73-.02,1.07,0,.24,.06,.45,.2,.64,.14,.19,.32,.28,.54,.28,.07,0,.13-.02,.2-.06,.06-.04,.13-.09,.2-.15,.05-.07,.1-.13,.15-.19,.05-.06,.1-.12,.15-.18,.03-.01,.07-.04,.13-.08,.06-.04,.11-.08,.16-.13,.1,.22,.19,.42,.26,.59s.12,.31,.16,.44c-.17,.16-.34,.32-.51,.49s-.34,.33-.53,.47c-.22,.17-.44,.3-.65,.38-.21,.09-.42,.13-.62,.13-.48,0-.86-.14-1.12-.41-.26-.27-.41-.69-.46-1.25,0-.07,0-.14-.03-.21s-.06-.14-.12-.22c-.04,.04-.08,.08-.12,.12-.04,.04-.1,.09-.16,.16-.1,.07-.22,.17-.36,.28-.15,.11-.31,.25-.51,.4-.26,.27-.48,.49-.66,.66-.18,.17-.31,.29-.38,.37-.15,.13-.32,.25-.52,.38s-.42,.26-.66,.39c-.16,.08-.29,.15-.4,.2-.11,.05-.19,.07-.25,.07-.36,0-.62-.09-.79-.26-.17-.17-.26-.44-.26-.81,0-.2,.04-.39,.13-.58,.09-.18,.21-.36,.38-.53,.02-.1,.02-.17,.02-.23,0-.04,0-.08-.03-.12-.02-.04-.04-.09-.07-.14-.04-.1-.09-.22-.15-.35-.06-.13-.12-.27-.18-.42,.03-.03,.07-.09,.13-.17,.06-.09,.12-.19,.2-.32Z"/><path d="M106.15,53.67c.15-.19,.34-.43,.57-.7,.23-.27,.52-.58,.85-.93,.02-.07,.05-.15,.09-.24,.04-.09,.09-.21,.17-.35,.39-.59,.75-1.15,1.06-1.7,.31-.54,.58-1.07,.8-1.58,.07-.13,.14-.28,.22-.47,.08-.19,.18-.4,.3-.64,.1-.18,.21-.32,.31-.41,.1-.1,.2-.15,.3-.15,.15,0,.26,.06,.33,.19,.07,.13,.11,.32,.11,.59,0,.15-.13,.63-.39,1.45s-.64,1.96-1.14,3.44c-.13,.36-.28,.86-.45,1.5-.16,.64-.35,1.45-.57,2.41-.02,.14-.05,.31-.07,.49-.03,.19-.07,.4-.12,.65-.13,.48-.22,.86-.27,1.14s-.07,.47-.07,.55l.04,.09s.08-.09,.13-.21,.09-.29,.13-.51c.04-.2,.08-.37,.1-.51s.03-.25,.01-.34c.16-.43,.36-.98,.58-1.66,.22-.67,.48-1.46,.78-2.35,.12-.22,.25-.48,.41-.79,.15-.31,.31-.68,.49-1.1,.17-.16,.33-.28,.46-.36s.25-.12,.35-.12c.21,0,.4,.06,.58,.17,.18,.11,.34,.28,.49,.49,.04,.05,.11,.18,.21,.4,.1,.21,.24,.5,.41,.87,.1,.22,.2,.4,.3,.52,.1,.12,.2,.19,.3,.2l.47,1.03s-.14,.03-.3,.08c-.16,.04-.39,.09-.69,.15l-.76-.28c-.19-.05-.41-.23-.68-.55s-.48-.5-.64-.55c-.16,.11-.32,.33-.5,.66-.18,.33-.36,.75-.55,1.27-.04,.12-.1,.25-.17,.38-.07,.14-.14,.3-.22,.47-.04,.28-.1,.55-.16,.81-.1,.22-.2,.51-.31,.85-.11,.35-.23,.76-.36,1.23-.04,.16-.13,.41-.28,.74-.15,.33-.24,.58-.27,.75-.01,.1-.05,.24-.09,.41-.05,.17-.12,.37-.22,.6-.17,.3-.33,.52-.47,.68-.14,.15-.26,.23-.36,.23-.22,0-.39-.11-.5-.32-.11-.22-.17-.54-.17-.96,0-.64,.04-1.34,.11-2.11,.07-.77,.19-1.59,.33-2.47,.04-.25,.09-.51,.15-.77,.05-.26,.1-.52,.16-.79,.07-.31,.11-.6,.14-.86,.03-.26,.03-.5,.02-.7-.07,.02-.2,.12-.37,.28-.18,.17-.4,.42-.66,.75-.03-.11-.08-.25-.16-.41-.07-.16-.17-.37-.29-.61Z"/><path d="M114.32,53.17l1.02-.67s.08-.09,.13-.15c.05-.06,.11-.15,.18-.27,.05-.1,.12-.18,.21-.25s.18-.13,.3-.18c.06-.07,.15-.17,.26-.28s.25-.24,.42-.39c.08-.04,.19-.11,.31-.2,.13-.09,.26-.2,.41-.34,.68-.64,1.27-1.12,1.78-1.44,.51-.32,.94-.48,1.29-.48,.19,0,.34,.04,.43,.12,.09,.08,.14,.2,.14,.35,0,.16-.03,.29-.08,.41s-.14,.22-.26,.3c-.19,.13-.39,.28-.6,.45-.12,.16-.26,.32-.44,.5-.17,.17-.37,.35-.6,.52-.07,.1-.14,.18-.19,.26-.04,.04-.11,.1-.21,.2s-.24,.21-.41,.33c-.07,.16-.24,.38-.49,.64-.25,.26-.58,.57-1,.94-.05,.05-.15,.17-.28,.36s-.31,.43-.52,.74l.08,.1c.16-.05,.33-.14,.51-.27,.18-.13,.38-.29,.59-.5,.25-.23,.46-.42,.62-.56,.16-.15,.27-.24,.34-.28,.05-.03,.1-.06,.16-.09s.11-.07,.18-.11c.34-.41,.66-.71,.96-.91,.3-.2,.57-.3,.83-.3,.16,0,.28,.06,.36,.18,.08,.12,.13,.31,.15,.55-.02,.37-.02,.73-.02,1.07,0,.24,.06,.45,.2,.64,.14,.19,.32,.28,.54,.28,.07,0,.13-.02,.2-.06,.06-.04,.13-.09,.2-.15,.05-.07,.1-.13,.15-.19,.05-.06,.1-.12,.15-.18,.03-.01,.07-.04,.13-.08,.06-.04,.11-.08,.16-.13,.1,.22,.19,.42,.26,.59s.12,.31,.16,.44c-.17,.16-.34,.32-.51,.49s-.34,.33-.53,.47c-.22,.17-.44,.3-.65,.38-.21,.09-.42,.13-.62,.13-.48,0-.86-.14-1.12-.41-.26-.27-.41-.69-.46-1.25,0-.07,0-.14-.03-.21s-.06-.14-.12-.22c-.04,.04-.08,.08-.12,.12-.04,.04-.1,.09-.16,.16-.1,.07-.22,.17-.36,.28-.15,.11-.31,.25-.51,.4-.26,.27-.48,.49-.66,.66-.18,.17-.31,.29-.38,.37-.15,.13-.32,.25-.52,.38s-.42,.26-.66,.39c-.16,.08-.29,.15-.4,.2-.11,.05-.19,.07-.25,.07-.36,0-.62-.09-.79-.26-.17-.17-.26-.44-.26-.81,0-.2,.04-.39,.13-.58,.09-.18,.21-.36,.38-.53,.02-.1,.02-.17,.02-.23,0-.04,0-.08-.03-.12-.02-.04-.04-.09-.07-.14-.04-.1-.09-.22-.15-.35-.06-.13-.12-.27-.18-.42,.03-.03,.07-.09,.13-.17,.06-.09,.12-.19,.2-.32Zm8.38-5.83c-.08,.07-.14,.13-.18,.16-.04,.03-.08,.04-.12,.04-.19-.1-.37-.19-.52-.29-.1-.06-.23-.12-.36-.18-.14-.06-.26-.14-.37-.22-.07-.04-.13-.09-.18-.15-.05-.06-.12-.11-.19-.15-.03-.02-.08-.03-.16-.03s-.13,0-.17-.02c-.04,0-.07-.04-.09-.09-.02-.05-.04-.09-.07-.1-.05,.04-.1,.08-.15,.12-.04,.04-.09,.08-.15,.12-.04,.02-.09,.05-.15,.08-.06,.03-.1,.07-.14,.1-.07,.06-.15,.13-.21,.21-.07,.08-.13,.15-.2,.21-.07,.07-.16,.14-.26,.21s-.18,.14-.25,.21c-.07,.06-.13,.12-.18,.17-.05,.06-.1,.1-.15,.14-.06,.05-.15,.11-.26,.17-.1-.04-.18-.07-.23-.11-.11-.07-.2-.15-.26-.22-.06-.07-.09-.13-.09-.17s.02-.1,.06-.16c.04-.06,.09-.14,.16-.22,.03-.04,.06-.1,.08-.16,.02-.06,.05-.12,.08-.16,.04-.05,.1-.1,.16-.13,.06-.04,.11-.08,.15-.12,.07-.09,.12-.18,.17-.27,.04-.09,.1-.18,.16-.25,.08-.1,.17-.2,.26-.3,.09-.1,.17-.19,.24-.27,.07-.09,.13-.17,.18-.25,.05-.07,.1-.15,.16-.21,.04-.06,.1-.11,.16-.16,.06-.05,.12-.09,.16-.12,.13-.1,.25-.16,.37-.19,.12-.03,.24-.04,.35-.04,.07,0,.14,.01,.21,.03,.07,.02,.14,.06,.19,.1,.05,.04,.08,.12,.09,.24,0,.12,.03,.21,.07,.3,.03,.07,.1,.09,.21,.07,.11-.02,.19,0,.23,.07,.13,.2,.28,.42,.43,.65,.15,.23,.34,.43,.56,.6,.12,.1,.21,.19,.27,.28,.06,.09,.09,.16,.09,.22,0,.05-.01,.1-.03,.14-.02,.04-.07,.09-.13,.14Z"/><path d="M122.54,53.67l.04-.09c.04-.06,.1-.13,.17-.22s.15-.19,.25-.31c.53-.49,1.04-1.08,1.55-1.76,.5-.68,1-1.46,1.49-2.35,.06-.08,.13-.19,.2-.32,.07-.13,.16-.3,.25-.5,0-.04-.01-.08-.03-.1-.02-.02-.06-.03-.11-.03-.04,0-.12,.01-.22,.04-.1,.03-.18,.04-.23,.04h-1.4c-.06,0-.16,0-.3-.01s-.24-.01-.3-.01c-.07-.04-.14-.07-.21-.1-.06-.03-.12-.05-.18-.08-.09-.03-.16-.07-.21-.12s-.07-.11-.07-.17c0-.48,.05-.84,.15-1.09,.1-.25,.26-.38,.46-.38s.4,0,.59,.03c.18,.02,.34,.04,.49,.07,.11-.02,.22-.04,.31-.07,.2,0,.37,0,.51,.02,.14,.02,.25,.03,.32,.06,.1-.02,.19-.04,.28-.06s.2-.04,.31-.06l.37,.11c.26-.03,.54-.39,.83-1.09s.61-1.05,.94-1.05c.18,0,.32,.06,.41,.17,.1,.11,.15,.28,.15,.49,0,.17-.05,.4-.15,.68-.1,.28-.16,.49-.17,.63,.01,.03,.03,.06,.06,.09,.03,.03,.06,.07,.12,.12,.04,.03,.08,.08,.09,.15,.02,.07,.03,.16,.03,.26,0,.45-.02,.79-.06,1.03-.04,.24-.11,.37-.19,.37l-.76,.16-.06,.27c-.02,.11-.05,.23-.09,.37-.13,.37-.27,.84-.42,1.42-.16,.57-.33,1.25-.53,2.03-.12,.62-.21,1.13-.27,1.52-.06,.39-.1,.65-.1,.78,0,.12,.02,.21,.06,.27,.04,.06,.09,.09,.17,.09,.04,0,.21-.11,.49-.32,.28-.22,.67-.54,1.17-.96l.44,1.03c-.07,.08-.18,.18-.31,.29-.13,.11-.29,.23-.48,.36-.07,.08-.17,.17-.28,.27-.11,.1-.23,.22-.37,.35-.13,.15-.27,.3-.4,.45s-.26,.29-.4,.44c-.18,.19-.35,.33-.52,.42-.17,.09-.33,.13-.48,.13-.33,0-.57-.1-.73-.29-.16-.19-.24-.49-.24-.88,0-.43,.01-.81,.04-1.12s.08-.57,.15-.76c.03-.06,.05-.11,.07-.16,0-.07,.01-.17,.03-.3,.02-.13,.05-.27,.08-.45,.04-.29,.09-.58,.15-.87,.08-.18,.17-.37,.26-.57,0-.04-.03-.07-.09-.1l-.11,.07c-.11,.18-.26,.37-.44,.56-.18,.2-.39,.4-.64,.62-.38,.36-.77,.73-1.16,1.1-.02,.04-.06,.09-.12,.17s-.13,.17-.2,.28c-.04-.09-.08-.2-.14-.34-.06-.14-.11-.3-.17-.47-.01-.04-.03-.09-.06-.12s-.05-.07-.08-.09Z"/><path d="M128.73,53.67c.09-.16,.2-.31,.35-.47,.14-.16,.32-.33,.54-.5,.02-.15,.04-.3,.07-.44,.02-.15,.04-.29,.04-.44,.02-.1,.06-.23,.11-.37,.05-.14,.1-.29,.16-.46,.07-.16,.16-.37,.27-.61,.12-.25,.27-.52,.45-.83,.16-.17,.32-.36,.49-.56,.17-.2,.34-.41,.51-.62,.08-.07,.17-.13,.27-.19,.1-.06,.19-.13,.29-.2,.09-.03,.19-.06,.3-.08,.11-.02,.23-.03,.37-.03,.19,0,.34,.02,.45,.06,.12,.04,.21,.1,.28,.19,.05,.06,.1,.15,.15,.27,.05,.12,.1,.26,.14,.44,.02,.15,.05,.31,.08,.49,0-.04-.01-.03-.04,.06-.03,.08-.06,.21-.12,.39l-.1,.36c-.1,.36-.34,.77-.7,1.24s-.86,1-1.47,1.61c-.05,.05-.1,.12-.13,.2-.04,.08-.06,.16-.06,.25,0,.16,.03,.29,.08,.41,.06,.12,.14,.21,.24,.27,.06,.04,.15,.09,.28,.13,.13,.04,.28,.09,.46,.12,.29-.02,.55-.07,.79-.15,.24-.07,.45-.16,.64-.27,.04-.02,.1-.05,.18-.09,.08-.04,.16-.1,.25-.16,.1,.22,.18,.41,.26,.58,.07,.17,.13,.32,.18,.45-.42,.42-.81,.73-1.16,.94-.35,.21-.66,.32-.95,.32-.12,.07-.25,.13-.41,.16-.15,.03-.33,.05-.54,.05-.28,0-.52-.04-.73-.12-.21-.08-.39-.2-.53-.36-.07-.07-.15-.18-.22-.33-.07-.15-.15-.32-.23-.52-.07-.16-.13-.28-.19-.36s-.13-.12-.2-.12c-.06,0-.13,.03-.2,.08-.07,.06-.16,.14-.25,.25-.03-.11-.08-.25-.16-.41-.07-.16-.17-.37-.29-.61Zm3.57-3.63c-.16,0-.38,.21-.66,.64-.28,.43-.41,.74-.41,.94,0,.04,0,.08,.03,.1s.06,.03,.12,.03c.08,0,.15-.04,.2-.13,.05-.09,.1-.17,.15-.24,.08-.07,.16-.15,.24-.24s.15-.17,.23-.25c.09-.1,.16-.21,.2-.31,.04-.1,.07-.21,.07-.31,0-.07-.01-.12-.04-.16-.03-.04-.07-.06-.12-.06Z"/></g></g><path class="d" d="M23.11,.16c-3.34-.84-4.91,1.81-4.99,3.87-.12,2.86-.44,5.7-.92,8.52-1.03,.1-1.97,.68-2.5,1.57-1.61-.2-3.16,.83-3.57,2.45L.22,60.16c-.41,1.62,.48,3.26,1.99,3.84,.05,1.04,.6,2,1.47,2.57-.91,2.71-1.97,5.37-3.21,7.95-.9,1.86-.76,4.93,2.58,5.77,3.34,.84,4.91-1.81,4.99-3.88,.12-2.86,.44-5.7,.92-8.52,1.03-.1,1.97-.68,2.5-1.58,1.62,.2,3.16-.83,3.57-2.45L25.94,20.28c.41-1.62-.47-3.25-1.99-3.84-.05-1.04-.6-2-1.47-2.57,.91-2.71,1.97-5.37,3.21-7.95,.9-1.86,.76-4.94-2.58-5.77h0Z"/><path class="d" d="M130.79,64.67H12.58V20.41h118.21c7.14,0,12.95,6.16,12.95,13.74v16.79c0,7.57-5.81,13.74-12.95,13.74Zm-117.26-1h117.26c6.62,0,12.01-5.71,12.01-12.74v-16.79c0-7.02-5.39-12.74-12.01-12.74H13.53V63.67Z"/></g></g></g></svg>