<?xml version="1.0" encoding="UTF-8"?><svg xmlns="http://www.w3.org/2000/svg" viewBox="0 0 138 116.75"><defs><style>.d,.e,.f,.g,.h{fill:#f2a444;}.i,.h{opacity:.7;}.e{opacity:.6;}.f,.j{opacity:.9;}.j{fill:#592b02;}.k{fill:#260101;}.k,.g{opacity:.8;}</style></defs><g id="a"/><g id="b"><g id="c"><g><g><path d="M32.49,110.7s.02,0,.02,.03c0,.06-.02,.13-.06,.14l-.34,.07c-.11,.03-.13,.11-.14,.21,0,.29,.02,2.14,.02,2.51,.01,.46,.03,2.15,.04,2.62,.01,.11,.04,.14,.11,.16l.38,.11s.05,.09,.05,.13c0,0,0,.02-.02,.02-.19-.01-.57-.02-1.08-.02-.55,0-1.08,0-1.28,.02-.03,0-.03-.01-.03-.03,0-.04,.02-.11,.05-.12l.52-.12c.07-.02,.08-.09,.08-.18,0-.63-.18-3.18-.22-4.1-.01-.11-.02-.23-.02-.35h-.07c-.05,.13-.1,.25-.12,.33-.48,1.18-1.35,3.38-1.77,4.32-.06,.13-.11,.16-.35,.17h-.29s-.07,0-.08-.05c-.4-.88-1.24-2.85-1.66-3.92-.03-.08-.11-.23-.13-.33h-.06c0,.11-.03,.25-.04,.34-.12,.95-.35,3.13-.4,3.64-.01,.1,.02,.13,.09,.14l.58,.09s.06,.07,.06,.13c0,0,0,.02-.03,.02-.19-.01-.5-.02-.83-.02-.31,0-.55,0-.72,.02-.02,0-.02-.01-.02-.03,0-.04,.03-.12,.06-.12l.38-.09c.07-.01,.11-.04,.11-.14,.01-.46,.08-2.17,.09-2.57,.01-.37,.08-2.38,.08-2.63-.01-.1-.03-.15-.14-.18l-.4-.08s-.05-.09-.05-.13c0-.02,.01-.03,.04-.03h2.04s.06,.02,.07,.05c.38,.93,1.24,3.48,1.58,4.36,.03,.08,.07,.19,.12,.32h.06c.06-.13,.1-.27,.13-.35,.37-.92,1.12-3.15,1.53-4.33,.01-.03,.03-.05,.06-.05h2Z"/><path d="M36.64,110.7s.02,0,.02,.04c0,.04-.01,.13-.05,.14l-.38,.07c-.07,.01-.1,.06-.1,.14-.05,.62-.08,2.22-.09,2.67,0,.36-.04,2.47-.04,2.6,0,.08,.04,.1,.11,.12l.4,.09s.06,.08,.06,.12c0,.02-.01,.03-.03,.03-.17-.01-.69-.02-1.23-.02-.5,0-.94,0-1.16,.02-.02,0-.02-.01-.02-.03,0-.05,.02-.12,.05-.13l.45-.09c.07,0,.09-.04,.09-.13,.01-.39-.02-2.03-.03-2.68-.01-.7-.03-2.22-.05-2.5,0-.11-.03-.17-.11-.19l-.37-.07s-.05-.07-.05-.14c0-.02,0-.03,.02-.03h2.51Z"/><path d="M38.19,114.09c0-1.26,.53-2.16,1.15-2.68,.61-.49,1.4-.78,2.32-.78,.48,0,.85,.07,1.07,.18,.04,.02,.05,.05,.05,.1l.11,1.36s-.09,.11-.14,.11c0,0-.02,0-.04-.03-.18-.41-.4-.88-.55-1.2-.04-.08-.09-.14-.15-.19-.06-.06-.18-.13-.38-.13-.38,0-.79,.21-1.13,.59-.51,.61-.78,1.46-.78,2.56,0,1.67,.92,2.35,1.8,2.35,.18,0,.43-.03,.56-.06,.27-.05,.54-.14,.84-.26,.03-.01,.05,.03,.05,.13,0,.03,0,.05-.03,.07-.22,.12-.74,.35-1.1,.46-.17,.05-.51,.11-.83,.11-1.53,0-2.83-.71-2.83-2.66h0Z"/><path d="M49.32,112.25c0,.76-.64,1.26-1.17,1.51,.45,.63,1.04,1.74,1.42,2.53,.04,.08,.08,.12,.15,.14l.39,.11s.07,.08,.07,.13c0,.02,0,.03-.03,.03-.25-.01-.54-.02-1.09-.02-.37,0-.77,0-1.2,.02-.03,0-.03-.01-.03-.03,0-.05,.02-.11,.06-.12l.39-.08c.09-.02,.13-.06,.08-.15-.45-.67-1.03-1.46-1.59-2.1-.03-.03-.06-.05-.1-.05-.05,0-.24-.01-.32-.01-.01,.41-.04,1.74-.04,2.13,0,.1,.03,.13,.1,.15l.43,.11s.06,.07,.06,.12c0,.02-.01,.03-.03,.03-.27-.01-.7-.02-1.18-.02s-.95,0-1.15,.02c-.03,0-.03-.01-.03-.03,0-.06,.02-.12,.05-.12l.43-.09c.07-.02,.1-.06,.1-.14,0-.38-.02-2.12-.02-2.59-.01-.39-.03-2.22-.05-2.58,0-.11-.03-.16-.09-.17l-.39-.06s-.06-.07-.06-.13c0-.01,0-.03,.03-.03,.49-.04,1.42-.12,2.36-.12,1.71,0,2.47,.58,2.47,1.58h0Zm-2.73,1.74c.71,0,1.26-.71,1.26-1.68,0-.83-.46-1.48-1.11-1.48-.19,0-.27,.03-.27,.15-.05,.74-.12,2.68-.12,2.86,0,.12,.05,.16,.23,.16h0Z"/><path d="M54,116.75c-1.72,0-2.73-.98-2.73-2.8,0-1.93,1.13-3.33,3.07-3.33,1.72,0,2.64,1.16,2.64,2.79,0,2.05-1.03,3.33-2.97,3.33h-.01Zm.19-.18c.89,0,1.24-1.18,1.24-2.99,0-1.41-.45-2.78-1.31-2.78s-1.34,1.15-1.34,3.04c0,1.42,.52,2.72,1.4,2.72h.01Z"/><path d="M61.89,113.48c.06,.01,.13,.02,.14,.02,.91,.15,1.53,.76,1.53,1.52,0,1.21-1.23,1.68-3.13,1.68-.18,0-.72-.02-.9-.02-.25,0-.68,0-1,.02-.03,0-.03-.01-.03-.02,0-.05,.02-.12,.06-.13l.44-.09c.07-.02,.11-.06,.11-.16,.01-.39-.01-2.2-.01-2.61,0-.45-.02-2.25-.03-2.56,0-.11-.03-.14-.11-.16l-.44-.04s-.07-.09-.07-.13c0-.01,0-.02,.04-.02,.53-.07,1.38-.13,2.27-.13,1.69,0,2.48,.47,2.48,1.38,0,.67-.62,1.17-1.2,1.35-.04,.01-.1,.03-.16,.05v.04Zm.23,1.63c0-.86-.79-1.4-1.5-1.4-.09,0-.18,0-.22,.03-.02,.37-.06,2.42-.06,2.63,0,.09,.13,.14,.26,.14,.85,0,1.52-.43,1.52-1.39h0Zm-1.41-4.28c-.13,0-.21,.07-.21,.17-.05,.7-.1,2.26-.1,2.48,.04,.03,.13,.04,.18,.04,.63,0,1.25-.47,1.25-1.35s-.5-1.34-1.11-1.34h-.01Z"/><path d="M70,112.25c0,.76-.64,1.26-1.17,1.51,.45,.63,1.04,1.74,1.42,2.53,.04,.08,.08,.12,.14,.14l.39,.11s.07,.08,.07,.13c0,.02,0,.03-.03,.03-.25-.01-.54-.02-1.09-.02-.37,0-.77,0-1.2,.02-.03,0-.03-.01-.03-.03,0-.05,.02-.11,.06-.12l.39-.08c.09-.02,.14-.06,.08-.15-.45-.67-1.03-1.46-1.59-2.1-.03-.03-.06-.05-.1-.05-.05,0-.24-.01-.32-.01-.01,.41-.04,1.74-.04,2.13,0,.1,.03,.13,.1,.15l.43,.11s.06,.07,.06,.12c0,.02-.01,.03-.03,.03-.27-.01-.7-.02-1.18-.02s-.95,0-1.15,.02c-.03,0-.03-.01-.03-.03,0-.06,.02-.12,.05-.12l.43-.09c.07-.02,.1-.06,.1-.14,0-.38-.02-2.12-.02-2.59-.01-.39-.03-2.22-.05-2.58-.01-.11-.03-.16-.09-.17l-.39-.06s-.06-.07-.06-.13c0-.01,0-.03,.03-.03,.48-.04,1.41-.12,2.36-.12,1.72,0,2.47,.58,2.47,1.58h0Zm-2.73,1.74c.71,0,1.26-.71,1.26-1.68,0-.83-.46-1.48-1.11-1.48-.19,0-.27,.03-.27,.15-.05,.74-.12,2.68-.12,2.86,0,.12,.05,.16,.23,.16h.01Z"/><path d="M74.74,110.68c.34,0,.6,.01,.81,.02,.03,0,.07,.02,.08,.04,.31,1.05,1.31,4.39,1.7,5.58,.02,.06,.07,.11,.13,.13l.36,.1s.05,.06,.05,.13c0,0-.01,.02-.03,.02-.2,0-.67-.02-1.15-.02-.54,0-1.07,0-1.33,.02-.03,0-.03-.01-.03-.02,0-.06,.03-.13,.06-.14l.52-.09c.08,0,.09-.08,.07-.16-.11-.32-.47-1.25-.57-1.58-.44,.01-1.56,.04-2.07,.08-.03,0-.06,.03-.07,.08-.06,.28-.24,1.07-.3,1.42-.01,.12,.03,.15,.1,.16l.5,.1s.06,.07,.06,.13c0,.02-.01,.02-.03,.02-.24-.01-.63-.02-1.02-.02-.33,0-.62,0-.81,.02-.02,0-.02-.01-.02-.03,0-.03,.02-.12,.05-.13l.24-.08c.08-.02,.13-.06,.17-.17,.48-1.16,1.48-4.14,1.92-5.32,.09-.23,.21-.28,.6-.28h.01Zm-.52,.77c-.05,.15-.08,.24-.1,.33-.24,.8-.55,1.93-.74,2.6-.01,.04,.02,.07,.05,.07,.45,.06,1.48,.1,1.9,.09-.17-.47-.67-1.87-.93-2.74-.03-.09-.07-.2-.13-.34h-.06Z"/><path d="M83.38,114.83c0,1.12-1.07,1.92-2.95,1.92-.4,0-.85-.03-1.07-.11-.05-.02-.08-.04-.09-.1l-.14-1.32s.1-.1,.13-.1c.02,0,.03,.01,.04,.03,.18,.33,.36,.68,.54,.99,.07,.11,.12,.16,.23,.22,.16,.11,.4,.16,.66,.16,.83,0,1.46-.41,1.46-1.04,0-.58-.42-.93-1.41-1.31-1.03-.39-1.54-.86-1.54-1.6,0-1.02,1.2-1.96,2.81-1.96,.4,0,.79,.05,.96,.14,.05,.02,.07,.04,.07,.09l.12,1.26s-.09,.09-.12,.09c-.02,0-.03,0-.04-.02-.19-.35-.37-.7-.56-1.04-.04-.07-.08-.12-.18-.17-.13-.07-.28-.12-.52-.12-.69,0-1.28,.45-1.28,1.06,0,.52,.37,.81,1.19,1.22,.91,.42,1.71,.85,1.71,1.7h0Z"/><path d="M89.27,114.83c0,1.12-1.07,1.92-2.95,1.92-.4,0-.85-.03-1.07-.11-.05-.02-.08-.04-.09-.1l-.14-1.32s.1-.1,.12-.1c.02,0,.03,.01,.04,.03,.19,.33,.36,.68,.54,.99,.07,.11,.12,.16,.23,.22,.16,.11,.4,.16,.66,.16,.83,0,1.46-.41,1.46-1.04,0-.58-.42-.93-1.42-1.31-1.03-.39-1.54-.86-1.54-1.6,0-1.02,1.2-1.96,2.81-1.96,.4,0,.79,.05,.96,.14,.05,.02,.07,.04,.07,.09l.12,1.26s-.09,.09-.13,.09c-.02,0-.03,0-.04-.02-.18-.35-.37-.7-.56-1.04-.04-.07-.08-.12-.19-.17-.12-.07-.28-.12-.52-.12-.69,0-1.28,.45-1.28,1.06,0,.52,.37,.81,1.19,1.22,.91,.42,1.71,.85,1.71,1.7h0Z"/><path d="M95.24,116.67s-.03,.05-.08,.05c-.07,0-.29,0-.78-.03-.49-.01-1.22-.02-2.33-.02-.38,0-.86,0-1.18,.02-.03,0-.03-.01-.03-.02,0-.04,.02-.11,.05-.12l.45-.1c.07-.02,.11-.05,.11-.16,.01-.29,0-2.26,0-2.69-.01-.38-.03-2.19-.05-2.51,0-.12-.04-.16-.1-.17l-.4-.08s-.05-.07-.05-.14c0,0,0-.02,.02-.02,.23,0,.46,0,.66,0h.54c2.16,0,2.91-.03,3.02-.03,.04,0,.06,.02,.06,.06l.07,1.27s-.09,.08-.12,.08c-.01,0-.02,0-.03-.02-.14-.3-.27-.59-.42-.9-.05-.09-.13-.12-.24-.14-.43-.09-1.27-.16-1.42-.16-.1,.01-.11,.04-.11,.11-.05,.59-.11,2.13-.1,2.45,.67,.03,1.75,.05,2.01,.06,.02,0,.02,0,.02,.02,0,.06-.05,.17-.08,.17-.38,.04-1.34,.09-1.84,.14-.09,0-.12,.03-.12,.11-.01,.32-.05,2.16-.05,2.43,0,.11,.04,.13,.11,.13,.42,0,1.3-.04,1.78-.17,.1-.03,.16-.08,.2-.14,.19-.26,.37-.53,.53-.8,0-.02,.02-.02,.03-.02,.04,.01,.12,.08,.11,.12l-.25,1.22Z"/><path d="M101.76,112.25c0,.76-.64,1.26-1.17,1.51,.45,.63,1.04,1.74,1.42,2.53,.04,.08,.08,.12,.14,.14l.39,.11s.07,.08,.07,.13c0,.02,0,.03-.03,.03-.25-.01-.54-.02-1.09-.02-.37,0-.77,0-1.2,.02-.03,0-.03-.01-.03-.03,0-.05,.02-.11,.06-.12l.39-.08c.09-.02,.14-.06,.08-.15-.45-.67-1.03-1.46-1.59-2.1-.03-.03-.06-.05-.1-.05-.05,0-.24-.01-.32-.01-.01,.41-.04,1.74-.04,2.13,0,.1,.03,.13,.1,.15l.43,.11s.06,.07,.06,.12c0,.02-.01,.03-.03,.03-.27-.01-.7-.02-1.18-.02s-.95,0-1.15,.02c-.03,0-.03-.01-.03-.03,0-.06,.02-.12,.05-.12l.43-.09c.07-.02,.1-.06,.1-.14,0-.38-.02-2.12-.02-2.59-.01-.39-.03-2.22-.05-2.58-.01-.11-.03-.16-.09-.17l-.39-.06s-.06-.07-.06-.13c0-.01,0-.03,.03-.03,.48-.04,1.41-.12,2.36-.12,1.72,0,2.47,.58,2.47,1.58h0Zm-2.73,1.74c.71,0,1.26-.71,1.26-1.68,0-.83-.46-1.48-1.11-1.48-.19,0-.27,.03-.27,.15-.05,.74-.12,2.68-.12,2.86,0,.12,.05,.16,.23,.16h.01Z"/><path d="M106.24,110.7s.02,0,.02,.04c0,.04-.01,.13-.05,.14l-.38,.07c-.07,.01-.1,.06-.1,.14-.05,.62-.08,2.22-.09,2.67-.01,.36-.04,2.47-.04,2.6,0,.08,.04,.1,.11,.12l.4,.09s.06,.08,.06,.12c0,.02,0,.03-.03,.03-.17-.01-.69-.02-1.23-.02-.5,0-.94,0-1.16,.02-.02,0-.02-.01-.02-.03,0-.05,.02-.12,.05-.13l.45-.09c.07,0,.09-.04,.09-.13,.01-.39-.02-2.03-.03-2.68-.01-.7-.03-2.22-.05-2.5,0-.11-.03-.17-.11-.19l-.37-.07s-.05-.07-.05-.14c0-.02,0-.03,.02-.03h2.51Z"/><path d="M112.17,116.67s-.03,.05-.08,.05c-.07,0-.29,0-.78-.03-.49-.01-1.22-.02-2.33-.02-.38,0-.86,0-1.18,.02-.03,0-.03-.01-.03-.02,0-.04,.02-.11,.05-.12l.45-.1c.07-.02,.11-.05,.11-.16,.01-.29,0-2.26,0-2.69-.01-.38-.03-2.19-.05-2.51,0-.12-.04-.16-.1-.17l-.4-.08s-.05-.07-.05-.14c0,0,0-.02,.02-.02,.23,0,.46,0,.66,0h.54c2.16,0,2.91-.03,3.02-.03,.04,0,.06,.02,.06,.06l.07,1.27s-.09,.08-.12,.08c-.01,0-.02,0-.03-.02-.14-.3-.27-.59-.42-.9-.05-.09-.13-.12-.24-.14-.43-.09-1.27-.16-1.42-.16-.1,.01-.11,.04-.11,.11-.05,.59-.11,2.13-.1,2.45,.67,.03,1.75,.05,2.01,.06,.02,0,.02,0,.02,.02,0,.06-.05,.17-.08,.17-.38,.04-1.34,.09-1.84,.14-.09,0-.12,.03-.12,.11-.01,.32-.05,2.16-.05,2.43,0,.11,.04,.13,.11,.13,.42,0,1.3-.04,1.78-.17,.1-.03,.16-.08,.2-.14,.19-.26,.37-.53,.53-.8,0-.02,.02-.02,.03-.02,.04,.01,.12,.08,.11,.12l-.25,1.22Z"/></g><g><path d="M1.58,97.14c-.07-4.35-.15-8.08-.23-11.18-.09-3.1-.16-5.71-.23-7.84-.07-2.12-.15-3.81-.23-5.06-.09-1.25-.15-2.25-.18-3.01-.03-.75-.07-1.29-.1-1.62-.03-.33-.05-.64-.05-.95,0-.58,.17-.95,.51-1.11,.34-.15,.77-.23,1.29-.23,.58,0,1.04,.11,1.36,.33,.33,.22,.49,.8,.49,1.72l.98,27.65s.21-.03,.51-.1c.31-.07,.67-.17,1.08-.31,.41-.14,.84-.28,1.29-.44,.44-.15,.8-.3,1.08-.44,.41-.17,1.03-.45,1.85-.82,.82-.38,1.75-.8,2.78-1.28,1.03-.48,2.12-.99,3.26-1.52,1.15-.53,2.24-1.03,3.29-1.49s1.97-.89,2.78-1.28c.8-.39,1.41-.68,1.82-.85h.62c.21,0,.41,.02,.62,.05s.38,.12,.51,.26c.14,.14,.22,.34,.26,.62,0,.34-.06,.63-.18,.87-.12,.24-.28,.51-.49,.82-2.02,.38-4,1.06-5.94,2.06s-3.85,2.02-5.76,3.08c-1.9,1.06-3.82,2-5.76,2.83-1.94,.82-3.92,1.23-5.94,1.23-.86,0-1.29-.67-1.29-2Z"/><path d="M30.36,79.41c-.03-.27-.09-.71-.15-1.31-.07-.6-.15-1.26-.23-1.98-.09-.72-.18-1.49-.28-2.31-.1-.82-.2-1.6-.28-2.34-.09-.74-.16-1.4-.23-1.98-.07-.58-.12-1.01-.15-1.29v-.36c0-.45,.09-.84,.28-1.18,.19-.34,.52-.51,1-.51,.55,0,.98,.22,1.28,.67,.31,.45,.54,.99,.69,1.64,.15,.65,.25,1.37,.28,2.16,.03,.79,.04,1.54,.03,2.26-.02,.72-.05,1.35-.1,1.88-.05,.53-.08,.88-.08,1.05v1.13c0,.51,0,1.07-.03,1.67-.02,.6-.03,1.16-.05,1.67-.02,.51-.03,.87-.03,1.08-.51-.03-.95-.24-1.31-.62-.36-.38-.57-.82-.64-1.34Z"/><path d="M48.04,67.54c-.27-.51-.46-.96-.57-1.34-.1-.38-.15-.82-.15-1.34,0-.17,0-.34,.03-.51,.02-.17,.07-.33,.15-.46,.09-.14,.22-.24,.41-.31,.19-.07,.44-.05,.75,.05,.21,.07,.41,.2,.62,.39,.21,.19,.4,.43,.59,.72,.19,.29,.34,.57,.46,.85,.12,.27,.21,.5,.28,.67,.79-.62,1.65-1.24,2.57-1.88,.93-.63,1.91-1.2,2.96-1.7,1.04-.5,2.11-.9,3.19-1.21,1.08-.31,2.12-.46,3.11-.46,.34,0,.75,.03,1.23,.1,.48,.07,.93,.19,1.36,.36,.43,.17,.79,.4,1.08,.69,.29,.29,.44,.66,.44,1.11,.1,.82,0,1.65-.28,2.49-.29,.84-.69,1.65-1.18,2.44-.5,.79-1.06,1.56-1.7,2.31-.63,.75-1.27,1.47-1.9,2.16-.63,.69-1.22,1.32-1.75,1.9-.53,.58-.93,1.1-1.21,1.54,1.41-.93,2.92-1.6,4.55-2.03,1.63-.43,3.26-.64,4.91-.64,.51,0,1.07,.03,1.67,.08s1.16,.18,1.67,.39c.51,.21,.94,.5,1.29,.87,.34,.38,.51,.91,.51,1.59s-.32,1.64-.95,2.85c-.63,1.22-1.46,2.55-2.47,4.01s-2.12,2.93-3.34,4.42c-1.22,1.49-2.39,2.84-3.52,4.06-1.13,1.22-2.15,2.21-3.06,2.98-.91,.77-1.55,1.16-1.93,1.16l-1.34-.62c.17-.65,.6-1.42,1.28-2.31,.69-.89,1.5-1.82,2.44-2.78,.94-.96,1.95-1.97,3.03-3.03,1.08-1.06,2.1-2.09,3.06-3.08s1.8-1.96,2.52-2.9c.72-.94,1.19-1.8,1.41-2.57,.22-.77,.13-1.42-.28-1.95-.41-.53-1.25-.93-2.52-1.21-1.34,0-2.74,.23-4.22,.69-1.47,.46-2.88,1.12-4.21,1.98-1.34,.86-2.53,1.88-3.57,3.06-1.05,1.18-1.81,2.51-2.29,3.98,0,.96,.08,1.9,.23,2.83,.15,.93,.32,1.84,.49,2.75,.17,.91,.33,1.82,.49,2.75,.15,.93,.23,1.85,.23,2.78,0,.69-.05,1.25-.15,1.7-.1,.45-.53,.67-1.29,.67-.07,0-.18,0-.33-.03-.15-.02-.23-.04-.23-.08l-4.57-30.94Zm3.29,3.24c0,1.27,.09,2.61,.26,4.03,.17,1.42,.51,2.73,1.03,3.93,.51-.45,1.16-1.04,1.93-1.77,.77-.74,1.58-1.53,2.42-2.39,.84-.86,1.66-1.76,2.47-2.72,.8-.96,1.54-1.88,2.21-2.78,.67-.89,1.2-1.72,1.59-2.49,.39-.77,.59-1.41,.59-1.93,0-.41-.13-.68-.39-.82-.26-.14-.56-.21-.9-.21-.82,0-1.88,.17-3.16,.51-1.28,.34-2.52,.82-3.7,1.44-1.18,.62-2.2,1.36-3.06,2.24s-1.28,1.86-1.28,2.96Z"/><path d="M88.69,93.19c-.14,.41-.47,.97-1,1.67-.53,.7-1.16,1.41-1.88,2.11-.72,.7-1.46,1.32-2.24,1.85-.77,.53-1.45,.8-2.03,.8-1.1,0-2-.51-2.7-1.54-.7-1.03-1.24-2.35-1.62-3.96-.38-1.61-.63-3.4-.77-5.37-.14-1.97-.22-3.9-.26-5.78-.03-1.88-.05-3.6-.05-5.14s-.05-2.71-.15-3.5c.14-.34,.32-.55,.54-.62,.22-.07,.49-.1,.8-.1,.27,0,.52,.03,.75,.1,.22,.07,.42,.27,.59,.62,0,.38,0,1.01,.03,1.9,.02,.89,.06,1.89,.13,3.01,.07,1.11,.14,2.28,.21,3.5,.07,1.22,.13,2.37,.18,3.47,.05,1.1,.1,2.08,.15,2.96,.05,.87,.09,1.52,.13,1.93,.03,.24,.08,.63,.13,1.18s.14,1.12,.26,1.72c.12,.6,.27,1.14,.46,1.62,.19,.48,.44,.74,.75,.77,.51,0,1.04-.22,1.57-.67,.53-.45,1.05-1.01,1.57-1.7,.51-.69,.99-1.44,1.44-2.26,.44-.82,.85-1.62,1.21-2.39,.36-.77,.63-1.46,.82-2.08,.19-.62,.3-1.06,.33-1.34,.07-.58,.14-1.41,.21-2.49,.07-1.08,.12-2.24,.15-3.47,.03-1.23,.06-2.4,.08-3.5,.02-1.1,.03-1.94,.03-2.52l2.83,.15c.03,2.78,.02,5.29-.05,7.53-.07,2.24-.09,4.35-.05,6.32,.03,1.97,.19,3.88,.46,5.73,.27,1.85,.77,3.77,1.49,5.76-.1,.1-.31,.25-.62,.44-.31,.19-.53,.28-.67,.28-.86,0-1.43-.28-1.72-.85-.29-.56-.48-1.23-.56-2-.09-.77-.15-1.54-.21-2.31s-.28-1.38-.69-1.82Z"/><path d="M96.04,87.33c.1-1.23,.21-2.58,.31-4.03,.1-1.46,.27-2.9,.49-4.34,.22-1.44,.51-2.81,.87-4.11,.36-1.3,.84-2.46,1.44-3.47,.6-1.01,1.34-1.82,2.24-2.42,.89-.6,1.97-.88,3.24-.85,.86,0,1.52,.36,1.98,1.08s.79,1.59,.98,2.62c.19,1.03,.29,2.08,.31,3.16,.02,1.08,.03,1.96,.03,2.65-.69,0-1.25-.3-1.7-.9-.45-.6-.79-1.29-1.03-2.08-.24-.79-.41-1.56-.51-2.31l-.15-1.49s-.09,0-.18-.03c-.09-.02-.15-.03-.18-.03-.58,0-1.12,.33-1.62,.98-.5,.65-.96,1.48-1.39,2.49-.43,1.01-.8,2.14-1.11,3.39s-.57,2.48-.77,3.68-.37,2.3-.49,3.32c-.12,1.01-.18,1.79-.18,2.34-.07,.89-.07,1.87,0,2.93,.07,1.06,.27,2.06,.62,2.98,.34,.93,.82,1.72,1.44,2.39,.62,.67,1.44,1.12,2.47,1.36,1.27,0,2.3-.17,3.08-.51,.79-.34,1.43-.8,1.93-1.39s.88-1.23,1.16-1.95c.27-.72,.54-1.46,.8-2.24,.26-.77,.52-1.53,.8-2.29,.27-.75,.67-1.46,1.18-2.11,.41-.1,.71-.09,.9,.03,.19,.12,.32,.28,.39,.49,.07,.21,.1,.45,.1,.72v.56c0,1.44-.24,2.83-.72,4.16-.48,1.34-1.18,2.53-2.11,3.57s-2.03,1.88-3.32,2.52c-1.29,.63-2.75,.95-4.39,.95-1.37,0-2.51-.44-3.42-1.31-.91-.87-1.61-1.93-2.11-3.16-.5-1.23-.85-2.53-1.05-3.88-.21-1.35-.31-2.51-.31-3.47Z"/><path d="M118.1,59.67c.72-.68,1.29-.96,1.72-.82,.43,.14,.75,.6,.95,1.39,.21,.79,.33,1.82,.36,3.08,.03,1.27,.03,2.7-.03,4.29-.05,1.59-.15,3.27-.28,5.04-.14,1.77-.26,3.5-.36,5.19-.1,1.7-.17,3.32-.21,4.86-.03,1.54,.02,2.88,.15,4.01h.15c.07,0,.12-.02,.15-.05,1.78-1.78,3.37-3.67,4.78-5.65,1.41-1.99,2.67-3.86,3.8-5.63,1.13-1.76,2.13-3.3,3.01-4.6,.87-1.3,1.69-2.19,2.44-2.67,.51,0,.95,.09,1.31,.26,.36,.17,.54,.57,.54,1.18,0,.07,0,.18-.03,.33-.02,.15-.03,.27-.03,.33-.86,1.75-1.8,3.5-2.83,5.27-1.03,1.77-2.14,3.47-3.34,5.11s-2.49,3.2-3.88,4.68c-1.39,1.47-2.89,2.81-4.5,4.01,0,.03,0,.09-.03,.18-.02,.09-.03,.15-.03,.18,0,.34,.28,.72,.85,1.13,.56,.41,1.28,.81,2.16,1.18,.87,.38,1.85,.75,2.93,1.13,1.08,.38,2.14,.7,3.19,.98,1.05,.27,2.02,.5,2.93,.67,.91,.17,1.62,.26,2.13,.26,0,.14,0,.39,.03,.77,.02,.38,0,.77-.08,1.18-.07,.41-.19,.78-.36,1.11-.17,.33-.45,.49-.82,.49h-.2c-.07,0-.12-.02-.15-.05l-14.7-5.91c-.03,2.02-.17,3.66-.41,4.91-.24,1.25-.52,2.18-.85,2.78-.33,.6-.67,.88-1.03,.85-.36-.03-.68-.31-.95-.82l1.49-40.61Z"/></g><g><g class="i"><polygon class="d" points="54.59 12.32 52.58 7.48 49.06 5.95 44.88 0 42.95 7.33 42.95 7.33 41.09 3.46 40.33 6.79 40.05 9.52 35.76 5.12 37.7 14.4 40.33 17.86 46.98 21.32 56.67 21.74 64.28 20.91 66.08 18.42 54.59 12.32"/><polygon class="d" points="84.08 12.32 86.1 7.48 89.62 5.95 93.79 0 95.72 7.33 95.72 7.33 97.58 3.46 98.35 6.79 98.63 9.52 102.91 5.12 100.98 14.4 98.35 17.72 91.7 21.03 81.87 21.03 75.97 20.76 73.59 18.31 84.08 12.32"/></g><g><polygon class="f" points="94.88 18.97 46.84 21.6 44.9 22.85 93.36 21.6 94.88 18.97"/><polygon class="f" points="50.85 21.74 31.33 10.52 44.9 22.85 50.85 21.74"/><polygon class="f" points="87.54 19.66 105.82 7.48 93.36 21.6 87.54 19.66"/><polygon class="e" points="44.9 22.85 51.68 12.88 49.06 22.74 44.9 22.85"/><polygon class="e" points="84.64 11.35 93.36 21.6 89 21.74 84.64 11.35"/><polygon class="h" points="93.36 21.6 96.68 9 90.25 17.86 93.36 21.6"/><polygon class="g" points="42.68 12.05 44.9 22.85 49.06 22.74 42.68 12.05"/></g><polygon class="j" points="78.27 23.03 61.51 23.03 60.06 25.03 79.63 25.03 78.27 23.03"/><g><g><polygon class="j" points="73.71 47.68 71.98 52.09 67.77 52.14 65.58 47.68 63.22 33.61 60.06 25.03 79.63 25.03 76.51 33.05 73.71 47.68"/><polygon class="k" points="65.58 47.68 67.77 52.14 71.98 52.09 73.71 47.68 71.79 46.15 67.64 46.05 65.58 47.68"/></g><polygon class="j" points="76.33 19.03 63.31 19.03 60.06 25.03 79.63 25.03 76.33 19.03"/><polygon class="j" points="72.31 18.03 67.33 18.03 60.06 25.03 79.63 25.03 72.31 18.03"/></g></g><g><rect y="113.03" width="22" height="2"/><rect x="116" y="113.03" width="22" height="2"/></g></g></g></g></svg>