<?xml version="1.0" encoding="UTF-8"?><svg xmlns="http://www.w3.org/2000/svg" xmlns:xlink="http://www.w3.org/1999/xlink" viewBox="0 0 505.69 140.83"><defs><style>.e{fill:#fcffd3;}.f{fill:#c29c6a;stroke:#9a7251;}.f,.g{stroke-miterlimit:10;}.g{fill:url(#d);stroke:#634242;}</style><linearGradient id="d" x1="329.16" y1="48.7" x2="330.92" y2="151.89" gradientTransform="matrix(1, 0, 0, 1, 0, 0)" gradientUnits="userSpaceOnUse"><stop offset="0" stop-color="#e0a665"/><stop offset=".1" stop-color="#dca15b"/><stop offset=".26" stop-color="#d39542"/><stop offset=".46" stop-color="#c58219"/><stop offset=".57" stop-color="#bd7700"/><stop offset=".78" stop-color="#8d451d"/></linearGradient></defs><g id="a"/><g id="b"><g id="c"><g><g><g><path class="g" d="M285.28,89.03s19.53-36.23,48.46-33.64c28.93,2.6,49.25,37.87,38.6,47.75-10.64,9.88-95.77,15.52-87.06-14.11Z"/><path class="f" d="M309.47,60.77c-2.55,2.18-9.67,14.33-9.67,19.85,0,0,14.97-22.53,19.58-23.4,4.61-.86-6.03,.24-9.9,3.55Z"/><path class="f" d="M323.66,61.09s-9.36,15.59-9.36,21.74c0,0,16.95-25.99,22.17-26.98,.4-.08,.93,.03,.93-.02,.01-.18-6.89-2.8-10.52,.54-1.71,1.57-3.09,4.82-3.22,4.73Z"/><path class="f" d="M341.39,57.99c-2.46,3.41-8.27,13.33-8.27,18.85,0,0,16.68-15.68,16.98-16.07s-6.25-6.19-8.71-2.78Z"/><path class="f" d="M354.8,65.08c-1.4,2.61-4.71,10.21-4.71,14.43,0,0,9.66-11.38,9.67-12.3s-3.86-5.34-4.96-2.13Z"/></g><path class="e" d="M313.04,54.22s-1.92-11.7,1.67-14.07-2.18-12.13-2.18-12.13c0,0,11.56,9.64,6.83,15.77-4.73,6.12-2.77-2.45-6.32,10.43Z"/><path class="e" d="M329.43,49.35s-1.92-22.05,1.67-26.5c3.59-4.45-2.18-22.85-2.18-22.85,0,0,11.56,18.16,6.83,29.7-4.73,11.54-2.77-4.61-6.32,19.65Z"/><path class="e" d="M345.84,53.15s-1.92-18.03,1.67-21.67-2.18-18.68-2.18-18.68c0,0,11.56,14.85,6.83,24.29s-2.77-3.77-6.32,16.07Z"/></g><path d="M37.32,101.07c-2.63,4.91-6.73,10.04-12.32,15.37-5.59,5.34-9.95,7.75-13.08,7.24-3.05-.17-5.48-1.38-7.3-3.62-1.82-2.24-2.99-5.06-3.49-8.45-.51-3.39-.85-7.13-1.02-11.24-.17-4.11-.13-8.09,.13-11.94,.25-3.85,.25-7.43,0-10.73,0-1.27,.04-3.32,.13-6.16,.08-2.84,.15-5.44,.19-7.81,.04-2.37,.11-5.19,.19-8.45,.08-3.26,.19-6.2,.32-8.83,.13-2.62,.23-5.35,.32-8.19,.08-2.84,.21-5.29,.38-7.37,.17-2.07,.34-3.96,.51-5.65,.17-1.69,.36-2.88,.57-3.56,.21-.68,.45-.89,.7-.64,2.37,.85,4.13,2.35,5.27,4.51,1.14,2.16,1.71,4.45,1.71,6.86s.02,4.89,.06,7.43c.04,2.54,.06,4.62,.06,6.22,.17,2.97,.21,6.41,.13,10.35-.09,3.94-.21,8.26-.38,12.96-.17,4.7-.38,9.4-.64,14.1s-.47,9.27-.64,13.72c-.17,4.45-.28,8.38-.32,11.81-.04,3.43,.04,6.25,.25,8.45,.21,2.2,.53,3.43,.95,3.68,2.96-.85,7.66-4.45,14.1-10.8,.59-.59,1.91-2.12,3.94-4.57,4.83-5.76,7.75-8.47,8.76-8.13,.68,.17,.85,1.31,.51,3.43Z"/><path d="M42.15,84.55c-.09,.43-.4,1.29-.95,2.61-.55,1.31-.98,2.33-1.27,3.05-.3,.72-.72,1.74-1.27,3.05-.55,1.31-1.06,2.39-1.52,3.24-.47,.85-.98,1.76-1.52,2.73-.55,.97-1.1,1.8-1.65,2.48-.55,.68-1.08,1.27-1.59,1.78-3.22,1.61-5.89,1.06-8-1.65-2.12-2.71-2.71-5.72-1.78-9.02,.25-2.79,.91-6.07,1.97-9.84,1.06-3.77,2.5-7.47,4.32-11.11,1.82-3.64,3.87-6.24,6.16-7.81,2.29-1.57,4.78-1.54,7.5,.06,.34,.25,.57,.32,.7,.19s.32-.61,.57-1.46c.42-.85,.83-1.91,1.21-3.18s.68-2.14,.89-2.6c.21-.47,.57-.89,1.08-1.27s1.21-.4,2.1-.06c.89,.34,2.05,.97,3.49,1.91,.17,.76-.47,6.52-1.91,17.28-1.52,11.52-1.48,17.32,.13,17.4,.85,.09,2.2-1.31,4.07-4.19,.51-.68,1.12-1.61,1.84-2.79,.72-1.18,1.33-2.18,1.84-2.99,.51-.8,1.12-1.54,1.84-2.22,.72-.68,1.52-.95,2.41-.82,.89,.13,1.84,.7,2.86,1.71,.25,.17,.4,.38,.44,.64,.04,.25,.04,.53,0,.83-.04,.3-.13,.64-.25,1.02-.13,.38-.3,.78-.51,1.21-.21,.42-.43,.85-.64,1.27-.21,.42-.47,.87-.76,1.33-.3,.47-.57,.89-.82,1.27s-.53,.81-.83,1.27c-.3,.47-.53,.87-.7,1.21-1.61,3.3-3.6,5.46-5.97,6.48-2.37,1.02-4.53,1.02-6.48,0-1.95-1.02-3.62-2.71-5.02-5.08-1.4-2.37-2.05-5-1.97-7.88Zm-1.4-18.04c-3.9,2.46-7.28,8.55-10.16,18.29-1.78,6.1-2.33,9.61-1.65,10.54,.42,.51,1.18-.42,2.29-2.79,.34-.68,.68-1.44,1.02-2.29,.34-.84,1.18-2.67,2.54-5.46,5.76-12.28,7.92-18.42,6.48-18.42-.17,0-.34,.04-.51,.13Z"/><path d="M114.8,74.39c-1.69,3.73-3.22,7.73-4.57,12-1.36,4.28-2.35,7.98-2.99,11.11-.64,3.13-1.25,5.99-1.84,8.57-.59,2.58-1.17,4.41-1.72,5.46-.55,1.06-1.25,1.29-2.1,.7-1.27-.08-2.29-.36-3.05-.83-.76-.46-1.23-1.18-1.4-2.16-.17-.97-.25-1.86-.25-2.67s.11-1.99,.32-3.56c.21-1.57,.32-2.77,.32-3.62,.25-1.44,.57-4.04,.95-7.81,.38-3.77,.72-6.75,1.02-8.96,.3-2.2,.78-5.06,1.46-8.57,.68-3.51,1.44-6.92,2.29-10.23,.17-1.02,.44-1.73,.82-2.16,.38-.42,.89-.51,1.52-.25,.64,.25,1.16,.51,1.59,.76,.42,.25,1.1,.76,2.03,1.52-.25,.42-.51,1.16-.76,2.22-.25,1.06-.44,2.08-.57,3.05-.13,.98-.3,2.2-.51,3.68-.21,1.48-.32,2.48-.32,2.98,.25-.59,.64-1.48,1.14-2.67,.85-1.95,1.48-3.39,1.91-4.32,.42-.93,1.06-2.12,1.91-3.56,.85-1.44,1.54-2.41,2.1-2.92,.55-.51,1.25-.99,2.1-1.46,.84-.46,1.65-.49,2.41-.06,.76,.43,1.63,1.14,2.6,2.16,.97,1.02,2.01,2.46,3.11,4.32,1.02-2.46,1.76-4.17,2.22-5.15,.47-.97,1.06-2.22,1.78-3.75,.72-1.52,1.38-2.65,1.97-3.37,.59-.72,1.23-1.25,1.91-1.59,.42,.25,.89,.51,1.4,.76,.51,.25,.95,.47,1.33,.64,.38,.17,.78,.36,1.21,.57,.42,.21,.8,.47,1.14,.76,.34,.3,.65,.64,.95,1.02,.3,.38,.53,.85,.7,1.4,.17,.55,.3,1.21,.38,1.97,.17,3.22-.08,8.75-.76,16.58-.68,7.83-.93,13.27-.76,16.32,1.27-1.52,2.73-4.07,4.38-7.62,1.65-3.56,2.81-5.76,3.49-6.61,1.61,.09,2.79,.53,3.56,1.33,.76,.81,1.1,1.84,1.02,3.11-.09,1.27-.32,2.56-.7,3.87-.38,1.31-1.02,2.78-1.91,4.38-.89,1.61-1.59,2.84-2.1,3.68-.51,.85-1.1,1.78-1.78,2.79-8.05,4.32-12.11,.3-12.19-12.07,0-2.71,.51-9.31,1.52-19.82,.17-1.69,.25-2.92,.25-3.68-1.86,3.3-3.75,8.91-5.65,16.83-1.91,7.92-3.03,12.34-3.37,13.27-1.78,.09-3.16-.15-4.13-.7-.97-.55-1.61-1.5-1.91-2.86-.3-1.35-.42-2.71-.38-4.07,.04-1.35,.13-3.15,.25-5.4,.13-2.24,.15-4.13,.06-5.65,0-3.9-.06-5.86-.19-5.91-.13-.04-.74,1.08-1.84,3.37-.51,1.02-.98,1.95-1.4,2.79Z"/><path d="M159.14,105.26c-2.46-.34-4.43-1.4-5.91-3.18-1.48-1.78-2.41-3.88-2.79-6.29-.38-2.41-.62-4.97-.7-7.68-.09-2.71,0-5.21,.25-7.5,0-.51,.04-.93,.13-1.27,.08-1.86,.34-3.34,.76-4.45,.42-1.1,.95-1.88,1.59-2.35,.64-.47,1.44-.65,2.41-.57,.97,.09,1.91,.3,2.79,.64,.89,.34,1.93,.85,3.11,1.52-2.37,1.19-3.77,5.76-4.19,13.72-.43,7.28,.13,11.77,1.65,13.46,1.02,1.02,2.2,.21,3.56-2.41,.42-.42,.83-.93,1.21-1.52,.38-.59,.83-1.35,1.33-2.29,.51-.93,.97-1.76,1.4-2.48,.42-.72,.95-1.74,1.59-3.05,.64-1.31,1.14-2.35,1.52-3.11,.38-.76,.97-1.99,1.78-3.68,.8-1.69,1.38-2.88,1.71-3.56,0-.85,1.1-.97,3.3-.38,1.35,.43,1.99,.89,1.91,1.4-1.02,3.05-2.12,5.93-3.3,8.64-1.19,2.71-2.58,5.42-4.19,8.13-1.61,2.71-3.35,4.81-5.21,6.29-1.86,1.48-3.77,2.14-5.72,1.97Zm-3.05-44.84c2.12-.59,3.64-.36,4.57,.7,.93,1.06,1.23,2.46,.89,4.19-.34,1.74-1.06,3.28-2.16,4.64-2.2,.17-3.77-.27-4.7-1.33-.93-1.06-1.23-2.35-.89-3.87,.34-1.52,1.1-2.96,2.29-4.32Z"/><path d="M182.51,108.56c-3.13-.85-5.53-2.43-7.18-4.76-1.65-2.33-2.54-5.02-2.67-8.07-.13-3.05,.13-6.1,.76-9.15,.64-3.05,1.54-5.97,2.73-8.77,.85-1.78,1.5-3.09,1.97-3.94,.47-.85,1.14-1.93,2.03-3.24,.89-1.31,1.76-2.16,2.6-2.54,.84-.38,1.91-.59,3.18-.64,1.27-.04,2.62,.36,4.07,1.21,.17,.17,.84,.57,2.03,1.21,1.18,.64,1.99,1.25,2.41,1.84,.42,.59,.59,1.44,.51,2.54-.17,3.64-1.65,7.01-4.45,10.1-2.79,3.09-5.8,4.25-9.02,3.49-.09,0-.25-.04-.51-.13-.25-.08-.44-.06-.57,.06s-.28,.44-.44,.95c-1.61,8.72-1.06,14.19,1.65,16.39,.59-.25,1.14-.53,1.65-.82,.51-.3,1.04-.61,1.59-.95,.55-.34,.97-.61,1.27-.83,.3-.21,.74-.57,1.33-1.08,.59-.51,1.02-.87,1.27-1.08,.25-.21,.72-.68,1.4-1.4,.68-.72,1.16-1.23,1.46-1.52s.91-.93,1.84-1.91c.93-.97,1.61-1.71,2.03-2.22,1.02-.93,2.05-2.07,3.11-3.43,1.06-1.35,1.99-2.62,2.79-3.81,.8-1.18,1.76-2.48,2.86-3.87,1.1-1.4,2.16-2.6,3.18-3.62,2.88-.76,4.19,.04,3.94,2.41-.51,3.64-3.81,8.94-9.91,15.88-6.52,7.37-11.77,11.48-15.75,12.32-1.36,.25-2.41,.04-3.18-.64Zm4.95-36.08c-1.61,1.44-3.43,4.53-5.46,9.27-.93,2.12-1.19,3.13-.76,3.05,.42-.08,1.18-.84,2.29-2.29,1.52-1.52,2.84-3.98,3.94-7.37,.68-1.86,.68-2.75,0-2.67Z"/><path d="M280.06,140.57c-7.62-2.79-12.49-18.16-14.61-46.11-.68,.34-1.55,1.16-2.6,2.48-1.06,1.31-2.08,2.56-3.05,3.75-.97,1.19-2.22,2.12-3.75,2.79-1.52,.68-3.13,.72-4.83,.13-3.22-.76-5.36-2.6-6.41-5.53s-1.18-6.16-.38-9.72c.8-3.56,1.86-6.86,3.18-9.91,1.31-3.05,2.6-5.42,3.87-7.11,1.1-1.61,2.18-2.84,3.24-3.68,1.06-.84,2.1-1.29,3.11-1.33,1.02-.04,1.88,.04,2.6,.25,.72,.21,1.59,.55,2.61,1.02,1.02,.47,1.73,.78,2.16,.95,2.96-40.82,7.79-60.08,14.48-57.8,.25,.09,.51,.21,.76,.38,2.96,.76,4.76,3.32,5.4,7.68,.64,4.36,.3,9.72-1.02,16.07-1.31,6.35-2.79,12.49-4.45,18.42-1.65,5.93-3.41,11.79-5.27,17.59-1.86,5.8-2.97,9.42-3.3,10.86,.08,6.35,.25,11.81,.51,16.39,.25,4.57,.7,9.68,1.33,15.31,.64,5.63,1.65,10.71,3.05,15.24,1.4,4.53,3.11,8.36,5.14,11.5,.34,.42,.25,.64-.25,.64-.25,0-.76-.09-1.52-.25Zm-25.91-60.59c-1.19,1.52-2.29,5.63-3.3,12.32-.76,4.74-.68,6.9,.25,6.48,.08,0,.21-.08,.38-.25,7.96-9.23,12.24-17.06,12.83-23.5,.34-3.13-.34-4.74-2.03-4.83-2.03,0-4.24,2.2-6.61,6.61-.51,.93-1.02,1.99-1.52,3.18Zm19.82-28.2c.08-.42,.53-2.14,1.33-5.14,.8-3,1.4-5.38,1.78-7.11,.38-1.74,.87-4,1.46-6.8,.59-2.79,.99-5.31,1.21-7.56,.21-2.24,.27-4.25,.19-6.03-1.44,1.19-3.39,9.57-5.84,25.15-1.19,7.37-1.52,10.76-1.02,10.16,.17-.25,.47-1.14,.89-2.67Z"/><path d="M396.42,91.79c-.34,.68-.81,3.64-1.4,8.89-.42,3.39-1.06,5.08-1.91,5.08-.25,0-.55-.13-.89-.38-1.7-.51-3.18-1.57-4.45-3.18,.76-28.2,2.92-41.83,6.48-40.9,.51,.09,.97,.43,1.4,1.02,.34,.43,.76,.81,1.27,1.14,.51,.34,.85,.64,1.02,.89,.17,.25,.17,.59,0,1.02-1.02,1.02-1.52,3.43-1.52,7.24,.34-.59,1.04-1.84,2.1-3.75,1.06-1.91,1.93-3.41,2.61-4.51,.68-1.1,1.61-2.54,2.79-4.32,1.19-1.78,2.29-3.09,3.3-3.94,1.02-.85,2.14-1.65,3.37-2.41,1.23-.76,2.46-1.04,3.68-.82,1.23,.21,2.48,.82,3.75,1.84,1.52,1.1,2.62,1.93,3.3,2.48,.68,.55,1.33,1.31,1.97,2.29,.64,.98,1.04,2.05,1.21,3.24-.85,2.29-1.95,2.08-3.3-.64-1.61-3.13-2.54-4.83-2.79-5.08-.34-.34-.68-.42-1.02-.25-2.12,1.1-4.15,2.69-6.1,4.76-1.95,2.08-3.56,4.11-4.83,6.1-1.27,1.99-2.58,4.57-3.94,7.75-1.36,3.18-2.35,5.68-2.98,7.5-.64,1.82-1.5,4.34-2.61,7.56-.17,.59-.34,1.06-.51,1.4Z"/><path d="M432.37,118.72c-3.13-.85-5.53-2.43-7.18-4.76-1.65-2.33-2.54-5.02-2.67-8.07-.13-3.05,.13-6.1,.76-9.15,.64-3.05,1.54-5.97,2.73-8.77,.84-1.78,1.5-3.09,1.97-3.94,.46-.85,1.14-1.93,2.03-3.24,.89-1.31,1.76-2.16,2.61-2.54,.84-.38,1.91-.59,3.18-.64,1.27-.04,2.62,.36,4.06,1.21,.17,.17,.85,.57,2.03,1.21,1.18,.64,1.99,1.25,2.41,1.84,.42,.59,.59,1.44,.51,2.54-.17,3.64-1.65,7.01-4.45,10.1-2.79,3.09-5.8,4.25-9.02,3.49-.09,0-.25-.04-.51-.13-.25-.08-.44-.06-.57,.06s-.28,.44-.44,.95c-1.7,8.72-1.14,14.19,1.65,16.39,.59-.25,1.14-.53,1.65-.82,.51-.3,1.04-.61,1.59-.95,.55-.34,.97-.61,1.27-.83,.3-.21,.74-.57,1.33-1.08,.59-.51,1.02-.87,1.27-1.08,.25-.21,.72-.68,1.4-1.4,.68-.72,1.16-1.23,1.46-1.52,.3-.3,.91-.93,1.84-1.91,.93-.97,1.61-1.71,2.03-2.22,1.52-1.44,3.53-3.89,6.03-7.37,2.5-3.47,4.47-5.93,5.91-7.37,2.88-.76,4.19,.04,3.94,2.41-.51,3.64-3.81,8.94-9.91,15.88-6.52,7.37-11.77,11.48-15.75,12.32-1.36,.25-2.41,.04-3.18-.64Zm4.95-36.08c-1.61,1.44-3.43,4.53-5.46,9.27-.93,2.12-1.19,3.13-.76,3.05,.42-.08,1.18-.84,2.29-2.29,1.52-1.52,2.84-3.98,3.94-7.37,.68-1.86,.68-2.75,0-2.67Zm-3.81-8.13c-1.35,.76-1.99,.51-1.91-.76,.25-2.2,1.95-5.16,5.08-8.89,4.07-4.74,7.07-6.01,9.02-3.81,.25,.17,.46,.38,.64,.64-1.36,2.46-3.28,4.87-5.78,7.24-2.5,2.37-4.85,4.24-7.05,5.59Z"/><path d="M476.82,118.72c-3.13-.85-5.53-2.43-7.18-4.76-1.65-2.33-2.54-5.02-2.67-8.07-.13-3.05,.13-6.1,.76-9.15,.64-3.05,1.54-5.97,2.73-8.77,.85-1.78,1.5-3.09,1.97-3.94,.47-.85,1.14-1.93,2.03-3.24,.89-1.31,1.76-2.16,2.6-2.54,.84-.38,1.91-.59,3.18-.64,1.27-.04,2.62,.36,4.07,1.21,.17,.17,.84,.57,2.03,1.21,1.18,.64,1.99,1.25,2.41,1.84,.42,.59,.59,1.44,.51,2.54-.17,3.64-1.65,7.01-4.45,10.1-2.79,3.09-5.8,4.25-9.02,3.49-.09,0-.25-.04-.51-.13-.25-.08-.44-.06-.57,.06s-.28,.44-.44,.95c-1.61,8.72-1.06,14.19,1.65,16.39,.59-.25,1.14-.53,1.65-.82,.51-.3,1.04-.61,1.59-.95,.55-.34,.97-.61,1.27-.83,.3-.21,.74-.57,1.33-1.08,.59-.51,1.02-.87,1.27-1.08,.25-.21,.72-.68,1.4-1.4,.68-.72,1.16-1.23,1.46-1.52s.91-.93,1.84-1.91c.93-.97,1.61-1.71,2.03-2.22,1.02-.93,2.05-2.07,3.11-3.43,1.06-1.35,1.99-2.62,2.79-3.81,.8-1.18,1.76-2.48,2.86-3.87,1.1-1.4,2.16-2.6,3.18-3.62,2.88-.76,4.19,.04,3.94,2.41-.51,3.64-3.81,8.94-9.91,15.88-6.52,7.37-11.77,11.48-15.75,12.32-1.36,.25-2.41,.04-3.18-.64Zm4.95-36.08c-1.61,1.44-3.43,4.53-5.46,9.27-.93,2.12-1.19,3.13-.76,3.05,.42-.08,1.18-.84,2.29-2.29,1.52-1.52,2.84-3.98,3.94-7.37,.68-1.86,.68-2.75,0-2.67Z"/></g></g></g></svg>