<?xml version="1.0" encoding="UTF-8"?><svg xmlns="http://www.w3.org/2000/svg" viewBox="0 0 145.79 100.69"><defs><style>.d{stroke:#000;stroke-miterlimit:10;stroke-width:.17px;}.d,.e{fill:#fff;}.d,.e,.f,.g{fill-rule:evenodd;}.f{fill:#fcee21;}</style></defs><g id="a"/><g id="b"><g id="c"><g><g><g><path d="M49.06,17.25c-3.29-.87-9.77-3.02-10.82,1.9-.37,1.74,1.17,3.42,2.29,4.56,1.76,1.79,4.29,2.68,6.71,3.1-.04-.29-.08-.58-.11-.87-2.18,1.15-4.81,4.96-2.99,7.33,1.03,1.35,3.23,1.4,4.64,.69,1.11-.57,2.14-1.33,3.03-2.2,.89-.87,1.12-2.27,1.72-3.31,.31-.53-.52-1.01-.82-.48-.79,1.37-1.08,2.78-2.37,3.83-1.42,1.15-4.05,2.72-5.55,.77-1.37-1.79,1.31-5.02,2.82-5.81,.35-.18,.3-.8-.11-.87-1.73-.3-3.46-.85-4.96-1.78-1.38-.86-3.29-2.7-3.4-4.43-.28-4.51,7.45-2.09,9.66-1.5,.59,.16,.85-.76,.25-.92h0Z"/><path d="M63.23,12.3c1.01-.94,1.71-2.2,2.56-3.28,.95-1.19,3.72-3.5,5.05-1.62,1.41,2,.73,4.84-.33,6.78-.7,1.27-1.63,2.42-2.03,3.83-.09,.32,.16,.58,.46,.6,1.53,.14,3.04,.19,4.47,.8,.82,.35,1.57,.99,1.86,1.85,.32,.94-.81,2-1.46,2.49-.79,.59-2.05,.41-2.97,.35-.81-.06-1.78-.05-2.52-.42-.4-.2-.78-.61-1.17-.86-.52-.33-1,.5-.48,.82,.71,.45,1.2,.96,2.03,1.19,.95,.27,2.12,.24,3.1,.27,1.59,.04,2.86-.45,3.79-1.81,.94-1.35,.78-2.62-.36-3.8-1.6-1.64-4.17-1.65-6.28-1.84,.15,.2,.31,.4,.46,.6,.66-2.36,2.56-4.08,3.06-6.55,.32-1.56,.03-4.6-1.48-5.55-1.49-.94-3.35-.02-4.62,.93-1.61,1.21-2.37,3.19-3.82,4.54-.45,.42,.23,1.09,.67,.67h0Z"/></g><path class="f" d="M49.97,13.12s-1.73,3.12-.52,7.94c1.21,4.82,15.55-5.61,15.55-5.61,0,0-1.63-4.17-6.65-6.57-6.39,.71-8.38,4.25-8.38,4.25Z"/><g><path d="M51.05,10.62c-.62-1.62-1.71-3.07-3.24-3.94-1.31-.74-3.05-1.51-4.57-1.04-.31,.1-.18,.59,.14,.49,1.39-.43,2.99,.32,4.18,.99,1.41,.8,2.43,2.13,3,3.63,.12,.3,.61,.17,.49-.14h0Z"/><path d="M55.4,8.98c-.49-1.3-1.01-2.59-1.01-4.01s.6-2.71,1.15-4.02c.13-.3-.31-.56-.44-.26-.57,1.34-1.2,2.65-1.22,4.13s.5,2.89,1.03,4.3c.11,.3,.61,.17,.49-.14h0Z"/><path class="d" d="M42.68,6.13c-.13-.35,.04-.74,.4-.88,.35-.13,.74,.05,.88,.4,.13,.35-.04,.74-.4,.88-.35,.13-.74-.05-.87-.4Z"/><path class="d" d="M54.63,1.08c-.14-.38,.05-.81,.43-.95,.38-.14,.8,.05,.95,.43,.14,.38-.05,.81-.43,.95-.38,.14-.8-.05-.95-.43Z"/></g><path class="e" d="M60.42,31.55c.83-.31,1.67-.63,2.54-.96-.23,.65-.44,1.26-.65,1.87-.81-.16-1.63-.57-1.89-.91Z"/><path class="g" d="M53.04,29.2c.12,.11,.23,.2,.32,.29,.83,.79,1.85,1.26,2.89,1.7,.8,.34,1.63,.47,2.5,.41,1.05-.07,1.15-.03,2.06,.63,.5,.36,1.02,.69,1.6,.95,.6-.92,.48-1.98,.81-2.87,1.15-.65,2.08-1.5,2.85-2.51,.82-1.07,1.21-2.33,1.36-3.59,.05,.01,.1,.03,.15,.04,0-.17,.04-.35,.06-.54-.05-.03-.1-.05-.15-.08-.04-.46-.08-1.03-.12-1.59-.05-.62-.27-1.22-.32-1.82-.06-.64-.36-1.16-.53-1.73-.17-.6-.41-1.18-.65-1.75-.24-.55-.5-1.09-.79-1.62-.3-.54-.58-1.09-.97-1.57-.36-.45-.66-.95-1.09-1.38,.04-.09,.07-.18,.11-.27-.06-.06-.12-.12-.18-.18-.04,.08-.07,.15-.1,.23-.94-1.05-2.07-1.83-3.2-2.61-.1-.22-.19-.44-.29-.66-.07,.11-.08,.19-.05,.26,.16,.41,.33,.81,.12,1.26-.02,.05,.05,.16,.08,.24,.09-.18,.18-.36,.27-.56,1.98,1.2,3.51,2.91,4.67,4.95-.29,.3-.54,.57-.79,.84-.53,.59-1.13,1.09-1.8,1.52-.37,.24-.67,.58-1.1,.77-.42,.19-.85,.4-1.21,.65-.92,.63-1.99,.86-3,1.26-.39,.15-.84,.22-1.26,.29-.41,.06-.8,.28-1.18,.27-1.2-.01-2.41,.27-3.61-.02-.33-.08-.68-.05-1.09-.08-.46-2.05-.17-4.1,.17-6.14,.37,.17,.75,.35,1.14,.51,.11,.04,.26,0,.39-.01-.29-.15-.57-.35-.87-.45-.47-.15-.74-.52-1-.87-.25-.34-.49-.72-.36-1.2,.03-.11-.09-.26-.14-.39-.05,.17-.1,.33-.17,.53,.24,.49,.28,1.1,.75,1.5-.13,.63-.28,1.26-.37,1.88-.09,.62-.11,1.24-.17,1.91-.06-.02-.12-.03-.18-.05v.29s.03,.01,.04,.02c.09,.22,.15,.42,.15,.69,.01,.74,.16,1.47,.23,2.21,.18,1.71,.8,3.28,1.49,4.82,.37,.84,.84,1.66,1.46,2.38,.29,.34,.52,.73,.76,1.06-.03,.06,.14,.13,.3,.19m-.83-2.95c-.34-.03-.68-.12-1.02-.19-.22-1.02-.93-1.76-1.18-2.71-.03-.13-.09-.25-.17-.45,.43,.03,.77,.04,1.1,.09,1.39,.19,2.77,.07,4.16-.02,.48-.03,.94-.28,1.43-.33,1.17-.11,2.21-.61,3.23-1.09,1.03-.48,2.02-1.05,2.95-1.76,1.06-.81,1.96-1.74,2.86-2.74,.05,.06,.08,.08,.08,.1,.37,.98,.74,1.96,1.13,3-.36,.4-.73,.84-1.12,1.26-.73,.79-1.63,1.39-2.43,2.11-.35,.32-.89,.42-1.28,.7-.9,.66-1.99,.86-2.98,1.29-.78,.34-1.6,.48-2.44,.6-.74,.11-1.47,.23-2.21,.24-.71,0-1.41-.05-2.12-.1Zm14.74-1.27c-.14,.72-.4,1.41-.8,2-.32,.47-.64,.95-1.08,1.36-1.11,1.05-1.24,1.19-2.4,1.8-.31,.16-.57,.39-.91,.51-1.66,.57-3.35,.64-5.02,.2-.84-.22-1.65-.65-2.35-1.22-.28-.23-.57-.45-.97-.77,2.7,.12,5.15-.22,7.54-1.14,2.38-.92,4.32-2.42,6.22-4.27-.08,.6-.13,1.07-.21,1.54Z"/><polygon class="g" points="60.35 31.56 60.36 31.56 60.35 31.55 60.35 31.56"/><path class="f" d="M65.57,17.06c.05,.06,.08,.08,.08,.1,.37,.98,.74,1.96,1.13,3-.36,.4-.73,.84-1.12,1.26-.73,.79-1.63,1.39-2.43,2.11-.35,.32-.89,.42-1.28,.7-.9,.66-1.99,.86-2.98,1.29-.78,.34-1.6,.48-2.44,.6-.74,.11-1.47,.23-2.21,.24-.71,0-1.41-.05-2.12-.1-.34-.03-.68-.12-1.02-.19-.22-1.02-.93-1.76-1.18-2.71-.03-.13-.09-.25-.17-.45,.43,.03,.77,.04,1.1,.09,1.39,.19,2.77,.07,4.16-.02,.48-.03,.94-.28,1.43-.33,1.17-.11,2.21-.61,3.23-1.09,1.03-.48,2.02-1.05,2.95-1.76,1.06-.81,1.96-1.74,2.86-2.74Z"/><path class="f" d="M53.4,28.86c2.7,.12,5.15-.22,7.54-1.14,2.38-.92,4.32-2.42,6.22-4.27-.08,.6-.13,1.07-.21,1.54-.14,.72-.4,1.41-.8,2-.32,.47-.64,.95-1.08,1.36-1.11,1.05-1.24,1.19-2.4,1.8-.31,.16-.57,.39-.91,.51-1.66,.57-3.35,.64-5.02,.2-.84-.22-1.65-.65-2.35-1.22-.28-.23-.57-.45-.97-.77Zm1.27,.28l-.05,.02c.02,.05,.04,.11,.06,.16,.02,0,.04-.01,.05-.02-.02-.05-.04-.11-.06-.16Z"/><g><g><g><path d="M50.11,8.49c-1.54,.48-3.76,2.13-3.05,4.02,.29,.76,.91,1.43,1.49,1.99,.52,.49,1.16,1.08,1.9,1.16,1.21,.14,2.35-.43,2.88-1.54s.5-2.38,.06-3.47c-.54-1.34-1.73-2.23-3.2-2.17-.38,.01-.38,.61,0,.59,2.22-.08,3.33,2.35,2.8,4.28-.25,.89-.9,1.62-1.85,1.73-.63,.07-1.09-.11-1.59-.49-.61-.47-1.17-1.05-1.61-1.68-.2-.29-.38-.6-.4-.96-.03-.46,.14-.9,.41-1.27,.54-.77,1.43-1.33,2.32-1.61,.36-.11,.21-.68-.16-.57h0Z"/><path d="M54.85,6.07c-1.42,.31-2.26,1.87-2.48,3.2-.11,.65-.11,1.33,.17,1.94,.35,.76,.95,1.43,1.73,1.76,.72,.3,1.51,.28,2.25,.11,.83-.19,1.68-.53,2.31-1.11,1.3-1.21,1.23-3.05,.28-4.44-.46-.67-1.04-1.32-1.85-1.53s-1.63-.03-2.42,.09c-.38,.06-.22,.63,.16,.57,.6-.09,1.23-.22,1.83-.14,.57,.07,1.01,.39,1.38,.81,.94,1.07,1.47,2.59,.55,3.85-.44,.6-1.1,.94-1.79,1.18-.64,.22-1.35,.36-2.02,.22-1.29-.26-2.14-1.52-2.05-2.79s.78-2.84,2.1-3.12c.37-.08,.21-.65-.16-.57Z"/></g><g><path class="e" d="M50.18,8.74c-1.42,.43-3.3,1.87-2.89,3.51,.25,.96,2.14,2.88,3.05,3.07,4.24,.62,3.98-6.77-.16-6.58"/><path class="e" d="M54.92,6.33c-1.77,.35-2.78,3.26-2.13,4.7,1.02,2.15,2.92,2.17,4.83,1.34,1.9-.82,2.51-2.84,1.32-4.61-1.23-1.86-2.13-1.73-4.02-1.44h0Z"/></g></g><path class="g" d="M52.37,12.93c.15,.21,.12,.48-.05,.6-.17,.12-.43,.04-.58-.17-.15-.21-.12-.48,.05-.6,.17-.12,.43-.05,.58,.17Z"/><path class="g" d="M57.82,10.88c.15,.21,.12,.48-.05,.6-.17,.12-.43,.04-.58-.17-.15-.21-.12-.48,.05-.6,.17-.12,.43-.04,.58,.17Z"/></g><path d="M52.16,17.05c.74,1.33,2.16,1.72,3.59,1.47s2.67-1.15,3.37-2.44c.49-.91,.65-1.92,.47-2.94-.11-.64-1.1-.37-.98,.27,.27,1.55-.74,3.34-2.23,3.89-1.19,.44-2.64,.49-3.34-.76-.32-.57-1.2-.06-.88,.51h0Z"/></g><g><path d="M20.11,68.8h-.13c-1.29,0-2.31-.51-3.06-1.53l-9.52-13.32v28.04c0,1.02-.37,1.89-1.1,2.6-.73,.71-1.61,1.07-2.63,1.07s-1.89-.35-2.6-1.07c-.71-.71-1.06-1.58-1.06-2.6V42.69c0-1.02,.35-1.89,1.06-2.6,.71-.71,1.58-1.07,2.6-1.07h.2c1.29,0,2.26,.51,2.93,1.53l13.25,18.38,13.25-18.38c.75-1.02,1.75-1.53,3-1.53h.07c1.02,.04,1.9,.42,2.63,1.13,.73,.71,1.1,1.55,1.1,2.53v39.29c0,.98-.37,1.83-1.1,2.56-.73,.73-1.61,1.1-2.63,1.1s-1.89-.35-2.6-1.07c-.71-.71-1.07-1.58-1.07-2.6v-28.04l-9.59,13.32c-.75,1.02-1.75,1.53-3,1.53Z"/><path d="M56.68,42.69c0-1.02,.36-1.89,1.07-2.6,.71-.71,1.57-1.07,2.6-1.07s1.9,.36,2.63,1.07c.73,.71,1.1,1.58,1.1,2.6v39.29c0,1.02-.37,1.89-1.1,2.6-.73,.71-1.61,1.07-2.63,1.07s-1.89-.35-2.6-1.07c-.71-.71-1.07-1.58-1.07-2.6V42.69Z"/><path d="M80.19,85.65c-1.02,0-1.89-.35-2.6-1.07-.71-.71-1.06-1.58-1.06-2.6V42.69c0-1.02,.35-1.89,1.06-2.6,.71-.71,1.58-1.07,2.6-1.07h21.78c.98,0,1.83,.36,2.56,1.07,.73,.71,1.1,1.58,1.1,2.6s-.37,1.9-1.1,2.63c-.73,.73-1.59,1.1-2.56,1.1h-18.05v12.19h15.52c.98,0,1.83,.37,2.56,1.1,.73,.73,1.1,1.6,1.1,2.6s-.36,1.87-1.07,2.6c-.71,.73-1.58,1.1-2.6,1.1h-15.52v12.25h18.05c.98,0,1.83,.37,2.56,1.1s1.1,1.6,1.1,2.6-.37,1.86-1.1,2.6c-.73,.73-1.59,1.1-2.56,1.1h-21.58l-.13-.07-.07,.07Z"/><path d="M119.68,85.65c-1.02,0-1.89-.35-2.6-1.07-.71-.71-1.07-1.58-1.07-2.6V42.69c0-1.02,.35-1.89,1.07-2.6,.71-.71,1.58-1.07,2.6-1.07s1.9,.36,2.63,1.07c.73,.71,1.1,1.58,1.1,2.6v35.56h18.05c.98,0,1.83,.37,2.56,1.1,.73,.73,1.1,1.6,1.1,2.6s-.37,1.86-1.1,2.6c-.73,.73-1.59,1.1-2.56,1.1h-21.78Z"/></g><g><path d="M81.4,96.33h-.04c-.33,0-.6-.13-.79-.4l-2.46-3.44v7.24c0,.26-.09,.49-.29,.67-.19,.18-.42,.27-.68,.27s-.49-.09-.67-.27c-.18-.18-.28-.41-.28-.67v-10.15c0-.26,.09-.49,.28-.67,.18-.18,.41-.28,.67-.28h.05c.33,0,.59,.13,.76,.4l3.42,4.75,3.42-4.75c.2-.26,.45-.4,.77-.4h.02c.26,0,.49,.11,.68,.29,.19,.18,.28,.4,.28,.65v10.15c0,.25-.1,.47-.28,.66-.19,.19-.42,.28-.68,.28s-.49-.09-.67-.27c-.18-.18-.28-.41-.28-.67v-7.24l-2.48,3.44c-.2,.26-.45,.4-.77,.4Z"/><path d="M90.85,89.59c0-.26,.09-.49,.28-.67s.41-.28,.67-.28,.49,.09,.68,.28c.19,.18,.28,.41,.28,.67v10.15c0,.26-.1,.49-.28,.67-.19,.18-.42,.27-.68,.27s-.49-.09-.67-.27c-.18-.18-.28-.41-.28-.67v-10.15Z"/><path d="M102.1,95.16c.78,.6,1.17,1.43,1.17,2.5-.01,.38,.01,.72,.07,1.01,.3,.09,.5,.29,.6,.59,.1,.3,.06,.59-.14,.85-.19,.26-.48,.4-.84,.4h-.02c-.52,0-.92-.26-1.22-.79-.24-.5-.36-1.19-.36-2.06-.02-.53-.26-.94-.72-1.24-.3-.19-.62-.33-.96-.41h-2.03v3.73c0,.26-.1,.49-.29,.67-.19,.18-.41,.27-.68,.27s-.49-.09-.67-.27c-.18-.18-.27-.41-.27-.67v-10.15c0-.26,.09-.49,.27-.67s.41-.28,.67-.28h3.08c1.02,0,1.89,.36,2.61,1.08,.72,.73,1.08,1.62,1.08,2.7s-.45,1.99-1.34,2.73Zm-2.34-1.07c.49,0,.91-.17,1.26-.51,.34-.34,.52-.76,.52-1.25s-.17-.91-.52-1.26c-.34-.35-.76-.53-1.26-.53h-2.12v3.54h2.12Z"/><path d="M113.71,100.08l-.84-2.24h-4.18l-.84,2.24c-.16,.4-.44,.6-.83,.6s-.68-.14-.85-.42c-.17-.28-.21-.57-.1-.87l3.8-10.13c.08-.18,.2-.33,.37-.45,.17-.12,.35-.17,.54-.16,.44-.02,.74,.18,.91,.6l3.8,10.13c.1,.3,.07,.59-.1,.87-.17,.28-.46,.42-.85,.42s-.67-.2-.82-.6Zm-4.34-4.13h2.79l-1.39-3.7-1.39,3.7Z"/><path d="M118.86,100.69l-.02-.02s-.03,0-.05,.02c-.26,0-.49-.09-.67-.27-.18-.18-.27-.41-.27-.67v-10.15c0-.26,.09-.49,.27-.67,.18-.18,.41-.28,.67-.28h2.44c.91,0,1.68,.32,2.31,.95,.64,.64,.96,1.36,.96,2.18s-.22,1.51-.65,2.1c.53,.33,.95,.77,1.26,1.33,.32,.55,.47,1.15,.47,1.79,0,1.02-.36,1.89-1.08,2.62-.72,.72-1.58,1.08-2.61,1.08h-3.05Zm.89-10.13v2.75h1.48c.38,0,.7-.14,.96-.41,.26-.27,.4-.6,.4-.98s-.13-.7-.4-.96c-.26-.26-.58-.4-.96-.4h-1.48Zm0,4.66v3.56h2.15c.49-.01,.91-.19,1.25-.53,.34-.34,.52-.76,.52-1.26s-.17-.91-.52-1.25c-.34-.34-.76-.51-1.25-.52h-2.15Z"/><path d="M129.01,100.69c-.26,0-.49-.09-.67-.27-.18-.18-.28-.41-.28-.67v-10.15c0-.26,.09-.49,.28-.67,.18-.18,.41-.28,.67-.28h5.63c.25,0,.47,.09,.66,.28,.19,.18,.28,.41,.28,.67s-.09,.49-.28,.68c-.19,.19-.41,.28-.66,.28h-4.66v3.15h4.01c.25,0,.47,.1,.66,.28,.19,.19,.28,.41,.28,.67s-.09,.48-.28,.67c-.18,.19-.41,.28-.67,.28h-4.01v3.16h4.66c.25,0,.47,.09,.66,.29,.19,.19,.28,.41,.28,.67s-.09,.48-.28,.67c-.19,.19-.41,.28-.66,.28h-5.58l-.03-.02-.02,.02Z"/><path d="M139.21,100.69c-.26,0-.49-.09-.67-.27-.18-.18-.27-.41-.27-.67v-10.15c0-.26,.09-.49,.27-.67,.18-.18,.41-.28,.67-.28s.49,.09,.68,.28c.19,.18,.28,.41,.28,.67v9.19h4.66c.25,0,.48,.09,.66,.29,.19,.19,.28,.41,.28,.67s-.09,.48-.28,.67c-.19,.19-.41,.28-.66,.28h-5.62Z"/></g></g></g></g></svg>