<svg xmlns="http://www.w3.org/2000/svg" viewBox="0 0 183.70109 307.31023"><defs><style>.cls-1{fill:#ff900a;}.cls-2,.cls-6{fill:#fff;stroke:#000;stroke-miterlimit:10;}.cls-3{font-size:37.68707px;font-family:ArialRoundedMTBold, Arial Rounded MT Bold;}.cls-4{letter-spacing:-0.01319em;}.cls-5{letter-spacing:-0.00003em;}.cls-6{stroke-width:0.5px;}.cls-7{fill:#0053d4;}</style></defs><g id="Calque_2" data-name="Calque 2"><g id="Minerve_Hotel" data-name="Minerve Hotel"><circle class="cls-1" cx="92.29132" cy="89.50679" r="89.50679"/><polyline class="cls-2" points="2.141 209.665 2.141 49.988 102.64 49.988 102.64 209.665"/><rect class="cls-2" x="6.13312" y="262.75759" width="172.7324" height="0.00003"/><text class="cls-3" transform="translate(20.664 256.41754)">Mine<tspan class="cls-4" x="86.76465" y="0">rv</tspan><tspan class="cls-5" x="122.7041" y="0">e</tspan></text><text class="cls-3" transform="translate(43.04096 299.3609)">Hôtel</text><rect class="cls-6" x="55.2011" y="56.48786" width="16" height="9"/><rect class="cls-6" x="33.2011" y="56.48786" width="16" height="9"/><rect class="cls-6" x="33.2011" y="68.48786" width="16" height="9"/><rect class="cls-6" x="11.2011" y="56.48786" width="16" height="9"/><rect class="cls-6" x="11.2011" y="68.48786" width="16" height="9"/><rect class="cls-6" x="11.2011" y="80.48786" width="16" height="9"/><polyline class="cls-2" points="81.701 211.584 81.701 89.988 182.701 89.988 182.701 211.584"/><rect class="cls-6" x="114.2011" y="99.48786" width="16" height="9"/><rect class="cls-6" x="92.2011" y="99.48786" width="16" height="9"/><rect class="cls-6" x="92.2011" y="111.48786" width="16" height="9"/><path class="cls-7" d="M183.70105,211.23481a5.02111,5.02111,0,0,0-2.38575-3.14059,3.04742,3.04742,0,0,0-2.38575,0c-.11176.04153-4.846.02771-14.31432,0-12.29117-.036-18.43659-.05392-23.85724-3.14059-5.18761-2.95392-7.50693-6.51139-21.47065-15.70237l-.00083-.00058c-11.6799-9.54678-11.83926-15.51983-23.85723-21.98413-4.40291-2.36822-12.86259-6.68292-21.47159-3.14059-10.69869,4.40219-14.40621,18.05511-14.87094,19.86185,2.2593-3.68747,6.155-5.44794,9.86339-4.46637,3.91986,1.03756,6.90053,4.94583,7.39331,9.72924l.00031.00119.0002.001c1.14616,5.57834-2.3844,11.02307-2.846,11.73493-4.35552,6.717-13.67367,6.90756-23.39747,7.10641a48.24077,48.24077,0,0,1-7.48188-.25851c-6.38592-.84305-9.65282-3.06131-18.761-2.88208-11.9712.23562-23.93091,4.41406-23.85723,6.28118C.35041,220.10463,183.6131,217.215,183.70105,211.23481Z"/></g></g></svg>