<svg xmlns="http://www.w3.org/2000/svg" viewBox="0 0 1089 541"><defs><style>.cls-1{fill:#fff;}.cls-2{fill:#ffc200;}</style></defs><g id="Calque_2" data-name="Calque 2"><g id="Calque_1-2" data-name="Calque 1"><path class="cls-1" d="M207.33,534C96.87,534,7,444.13,7,333.67V7H881.67C992.13,7,1082,96.87,1082,207.33V534Z"/><path class="cls-2" d="M881.67,14A193.16,193.16,0,0,1,1075,207.33V527H207.33A193.16,193.16,0,0,1,14,333.67V14H881.67m0-14H0V333.67C0,448.17,92.83,541,207.33,541H1089V207.33C1089,92.83,996.17,0,881.67,0Z"/><polygon class="cls-2" points="291.62 43.75 169.22 43.75 108.02 149.75 169.22 255.75 291.62 255.75 352.82 149.75 291.62 43.75"/><polygon class="cls-2" points="291.62 263.75 169.22 263.75 108.02 369.75 169.22 475.75 291.62 475.75 352.82 369.75 291.62 263.75"/><polygon class="cls-2" points="482.62 153.75 360.22 153.75 299.02 259.75 360.22 365.75 482.62 365.75 543.82 259.75 482.62 153.75"/><path d="M207.73,338.27V196.49h23.66l43.86,124,43.66-124h23.66V338.27H329.92V209.54h-2.85l-44.48,124H267.7l-44.47-124h-2.86V338.27Z"/><path d="M375.62,210.77v-15.3h12v15.3Zm0,127.5v-102h12v102Z"/><path d="M418.25,338.27v-102h12V251a111,111,0,0,1,18.46-10.2,86.58,86.58,0,0,1,20.09-6.53v12.24a113.25,113.25,0,0,0-18.36,5.61,146.9,146.9,0,0,0-14.89,6.63l-5.3,3.06v76.5Z"/><path d="M557.58,266.66v54.68q.81,7.55,13.26,9l-.61,9.79q-15.71,0-23.05-8.16a95.22,95.22,0,0,1-38.35,8.37q-13.68,0-20.81-7.85T480.88,310q0-14.58,7.24-21.62t22.75-8.67l34.68-3.47v-9.59q0-11.42-5-16.42t-13.36-5a302.76,302.76,0,0,0-33.87,2.45l-6.32.61-.61-9.79q22.42-4.27,39.27-4.28t24.37,8Q557.57,250.15,557.58,266.66ZM493.53,309.3q0,20.61,16.93,20.6a83.26,83.26,0,0,0,16.11-1.73,100,100,0,0,0,13.88-3.57l5.1-1.84V285.84l-33.26,3.47q-10,.81-14.38,5.71T493.53,309.3Z"/><path d="M633.06,234.23q20.4,0,28.36,11.83t8,40.9q0,29.07-10.1,41.21t-37.63,12.14q-11.43,0-27.34-1.63l-5.3-.41V191h12.24v50.8A73.68,73.68,0,0,1,633.06,234.23Zm-31.82,93.84q14.26,1.21,23,1.22a46.43,46.43,0,0,0,15.6-2.45,20.47,20.47,0,0,0,10.71-8.26,34.18,34.18,0,0,0,5-13.26,125.88,125.88,0,0,0,1.22-19.68q0-21.63-5.2-31T632,245.24A67.21,67.21,0,0,0,617.35,247a71.07,71.07,0,0,0-12,3.57l-4.08,1.63Z"/><path d="M763,328.07l6.12-.61.41,10a324.41,324.41,0,0,1-39,2.86q-22-.21-30.8-13.06T691,287.68q0-53.44,42-53.45,20.19,0,30.19,11.52t10,36.83l-.41,9.79H703.44q0,18.76,6.43,27.84t22,9.08Q747.5,329.29,763,328.07Zm-59.57-45.9H761q0-20.19-6.63-28.77t-21.22-8.56q-14.58,0-22.13,8.87T703.44,282.17Z"/><path d="M798.3,210.77v-15.3h12v15.3Zm0,127.5v-102h12v102Z"/><path d="M842.16,338.27V191h12V338.27Z"/><path d="M887.24,338.27V191h12V338.27Z"/><path d="M998.63,328.07l6.12-.61.4,10a324.26,324.26,0,0,1-39,2.86q-22-.21-30.8-13.06t-8.78-39.57q0-53.44,42-53.45,20.19,0,30.19,11.52t10,36.83l-.41,9.79H939.06q0,18.76,6.42,27.84t22,9.08Q983.13,329.29,998.63,328.07Zm-59.57-45.9h57.53q0-20.19-6.63-28.77t-21.22-8.56q-14.6,0-22.14,8.87T939.06,282.17Z"/></g></g></svg>