<?xml version="1.0" encoding="UTF-8"?><svg xmlns="http://www.w3.org/2000/svg" viewBox="0 0 730.8 648.02"><defs><style>.d{fill:gray;font-family:MonotypeCorsiva, Monotype Corsiva;font-size:400px;}</style></defs><g id="a"/><g id="b"><g id="c"><g><path d="M.14,522.9H13.17v-97.28H0v-5.52H36.96l31.93,78.8,31.72-78.8h35.75v5.52h-13.81v97.28h15.08v5.52h-47.08v-5.52h12.88l.07-94.24-39.37,98.27h-2.83l-41.7-98.77v94.73h12.82v5.52H.14v-5.52Z"/><path d="M145.92,492.07c0-10.77,3.54-19.49,10.62-26.15s15.99-10,26.73-10,19.59,3.32,26.55,9.96c6.96,6.64,10.44,15.36,10.44,26.15s-3.46,19.57-10.37,26.32c-6.92,6.75-15.78,10.13-26.59,10.13s-19.74-3.38-26.8-10.13c-7.06-6.75-10.58-15.52-10.58-26.29Zm37.17,30.54c9.53,0,15.13-6.24,16.78-18.71,.47-3.72,.71-7.71,.71-11.97,0-9.57-1.13-16.73-3.4-21.5-2.79-5.71-7.48-8.57-14.09-8.57-9.53,0-15.13,6.03-16.78,18.09-.47,3.67-.71,7.67-.71,11.97,0,9.62,1.13,16.87,3.4,21.77,2.83,5.94,7.53,8.91,14.09,8.91Z"/><path d="M280.16,462.65c-7.69,0-14.66,3.71-20.89,11.14v49.11h12.88v5.52h-42.76v-5.52h11.47v-60.25h-11.54v-6.66h29.95v10.87c7.08-7.29,15.17-10.94,24.28-10.94,6.28,0,11.85,1.58,16.71,4.73,6.28,4.08,9.42,10.58,9.42,19.5v42.75h11.47v5.52h-42.76v-5.52h12.89v-44.06c0-5.42-.58-9.1-1.74-11.05-1.16-1.95-2.45-3.29-3.89-4.03-1.44-.74-3.27-1.11-5.49-1.11Z"/><path d="M359.88,528.49c-16.85,0-25.28-7.68-25.28-23.04v-43.93h-8.57v-5.52h8.57v-23.01c4.29,0,9.53-1.11,15.72-3.33,1.42-.52,2.43-.97,3.04-1.34v27.68h23.29v5.52h-23.29v48.83c0,4.25,.91,7.31,2.73,9.18,1.82,1.87,4.24,2.81,7.26,2.81,4.72,0,8.97-2.03,12.74-6.1l3.75,3.22c-3.4,4.16-8.02,6.94-13.88,8.34-1.94,.47-3.96,.7-6.09,.7Z"/><path d="M453.05,517.11c-6.04,7.59-15.34,11.38-27.9,11.38-4.44,0-9.09-.82-13.95-2.46-4.86-1.64-9.09-4.04-12.67-7.19-7.6-6.75-11.4-15.71-11.4-26.87s3.72-19.96,11.15-26.39c7.43-6.44,16.86-9.65,28.29-9.65,6.51,0,12.54,1.41,18.09,4.22,5.55,2.81,8.32,6.78,8.32,11.9,0,2.74-.9,4.98-2.69,6.72-1.79,1.74-3.71,2.61-5.74,2.61-3.35,0-5.95-.74-7.79-2.23-1.84-1.48-2.76-3.49-2.76-6.01,0-4.09,1.72-6.93,5.17-8.5-3.49-2.17-7.53-3.26-12.11-3.26-13.59,0-20.39,10.18-20.39,30.54,0,14.33,4.11,23.58,12.32,27.75,2.74,1.36,5.92,2.04,9.56,2.04,8.59,0,15.53-2.61,20.82-7.83l3.68,3.24Z"/><path d="M509.2,519.08c-5.48,6.28-12.81,9.42-22.02,9.42-6.99,0-13-1.95-18.05-5.84-5.05-3.89-7.58-8.99-7.58-15.29s2.48-11.26,7.43-14.87c4.96-3.61,11.34-5.42,19.15-5.42s14.34,1.96,19.58,5.88v-15.66c0-5.31-.71-8.9-2.12-10.79s-3.08-3.2-4.99-3.95c-1.91-.75-4.02-1.12-6.34-1.12-3.63,0-6.7,.39-9.2,1.18-2.5,.79-4.18,1.58-5.03,2.39,2.17,.6,3.85,2.1,5.03,4.49,.38,.86,.57,1.88,.57,3.08,0,2.35-.94,4.31-2.83,5.87-1.89,1.56-3.78,2.34-5.66,2.34-3.3,0-5.88-.81-7.72-2.44-1.84-1.63-2.76-3.58-2.76-5.87s.45-4.17,1.35-5.64c.9-1.47,2.1-2.8,3.61-3.99,2.88-2.24,6.5-3.96,10.87-5.15,4.37-1.19,8.46-1.78,12.28-1.78,10.62,0,18.48,2.07,23.58,6.21,5.1,4.14,7.65,9.93,7.65,17.35v36.4c0,3.78,.97,5.67,2.9,5.67s3.8-1.18,5.59-3.54l3.68,3.04c-3.21,4.96-8.45,7.43-15.72,7.43-2.55,0-5.13-.81-7.75-2.44-2.62-1.63-4.45-3.95-5.49-6.97Zm-1.27-19.82c-4.01-3.92-8.4-5.88-13.17-5.88s-8.35,1.12-10.76,3.36c-2.41,2.24-3.61,5.84-3.61,10.8,0,7.32,2.57,11.75,7.72,13.31,1.46,.47,2.95,.71,4.46,.71,4.29,0,8.4-1.65,12.32-4.96,1.13-.99,2.15-2.05,3.04-3.19v-14.16Z"/><path d="M543.89,522.9h11.04v-108.11h-11.54v-5.59h30.3v113.71h11.89v5.52h-41.7v-5.52Z"/><path d="M641.24,462.72c-7.27,0-13.64,3.39-19.12,10.18v50h11.54v5.52h-41.42v-5.52h11.47v-60.18h-11.54v-6.73h29.95v9.91c6.75-6.65,14.05-9.98,21.91-9.98s14.27,2.26,19.22,6.76c1.79,1.64,3.28,3.67,4.46,6.1,7.46-8.57,15.93-12.86,25.42-12.86,6.28,0,11.87,1.58,16.78,4.73,6.23,4.08,9.35,10.58,9.35,19.5v42.75h11.54v5.52h-42.13v-5.52h12.18v-44.75c0-5.05-.61-8.52-1.84-10.42-1.23-1.9-2.56-3.21-4-3.93-1.44-.72-3.22-1.08-5.35-1.08-4.11,0-7.88,1.08-11.33,3.23-3.45,2.16-6.3,5.02-8.57,8.59,.33,1.92,.5,3.68,.5,5.28v43.07h11.54v5.52h-41.42v-5.52h11.47v-45.24c0-4.86-.54-8.21-1.63-10.04-1.09-1.83-2.33-3.1-3.72-3.82-1.39-.72-3.15-1.08-5.27-1.08Z"/></g><g><path d="M296.81,641.01l-.84,3.7c-2.21,.26-3.9,.39-5.07,.39-1.86,0-4.33-.15-7.4-.45-3.29-.3-6.11-.46-8.44-.46-1.86,0-3.79,.3-5.78,.91,1.76-4.98,3.79-11.91,6.09-20.77l4.99-19.5-17.57,.65c-3.08,.17-6.25,.41-9.5,.71-2.93,11.56-5.96,20.11-9.08,25.65-3.12,5.54-6.68,9.62-10.69,12.24s-7.85,3.93-11.53,3.93-6.67-.87-9.22-2.6c-1.86-1.21-2.79-2.73-2.79-4.55,0-1.08,.37-2,1.1-2.76,.74-.76,1.62-1.14,2.66-1.14,1.69,0,3.42,1.19,5.2,3.57,1.08,1.43,1.96,2.35,2.63,2.76,.67,.41,1.42,.62,2.24,.62,3.38,0,6.55-2.73,9.51-8.18,2.96-5.46,7.31-18.94,13.02-40.46l6.36-23.77c-8.66,0-15.16,1.43-19.51,4.29-4.35,2.86-6.53,6.08-6.53,9.68,0,1.21,.58,2.75,1.75,4.61,1.04,1.73,1.56,3.14,1.56,4.22,0,1.26-.4,2.28-1.2,3.08s-1.81,1.2-3.02,1.2c-1.52,0-2.81-.72-3.9-2.18-1.08-1.45-1.62-3.56-1.62-6.33,0-5.02,1.82-9.46,5.46-13.31,3.64-3.85,8.92-6.58,15.85-8.18,3.98-.91,11.93-1.36,23.83-1.36-3.2,6.32-6.79,17.49-10.76,33.51,11.46,0,20.49-.41,27.09-1.23,3.74-12.55,7.04-21.31,9.9-26.27,2.86-4.96,6.07-8.54,9.64-10.75,3.57-2.21,7.57-3.31,11.98-3.31,3.81,0,6.74,.72,8.8,2.17,2.06,1.45,3.08,3.11,3.08,4.97,0,1.08-.37,1.97-1.1,2.66-.74,.69-1.69,1.04-2.85,1.04-1.51,0-3.22-1.08-5.12-3.25-1.95-2.16-3.67-3.25-5.19-3.25-3.24,0-6.44,3.01-9.59,9.03-5.62,10.74-12.13,33.4-19.53,67.99,.73,.09,1.77,.24,3.1,.46,2.46,.43,4.44,.65,5.95,.65,1.77,0,3.77-.22,6.01-.65Z"/><path d="M341.16,589.31c4.24,0,7.77,1.69,10.58,5.06s4.22,8.08,4.22,14.09c0,9.61-3.38,18.24-10.13,25.88-6.75,7.64-13.9,11.46-21.43,11.46-4.63,0-8.37-1.52-11.2-4.54-2.84-3.03-4.25-7.17-4.25-12.4,0-9.09,2.6-17.49,7.79-25.2,6.54-9.57,14.68-14.35,24.42-14.35Zm-5.52,4.87c-3.68,0-7.24,2.63-10.68,7.89-3.44,5.26-5.16,12.52-5.16,21.79,0,5.63,1.06,10.07,3.18,13.31,1.56,2.38,3.64,3.57,6.23,3.57,3.64,0,6.95-2.25,9.94-6.75,3.81-5.85,5.71-13.1,5.71-21.76,0-6.49-.88-11.13-2.63-13.9-1.75-2.77-3.95-4.16-6.59-4.16Z"/><path d="M380.32,579.31l10.31-3.96-4.67,18.18h13.45l-1.04,4.61h-13.46l-5.67,21.76c-1.8,6.53-2.7,11.08-2.7,13.63,0,1.17,.25,2.01,.75,2.53,.5,.52,1.18,.78,2.05,.78,1.34,0,3.4-.8,6.17-2.4,3.64-2.12,7.1-4.52,10.39-7.21l2.47,2.99c-9.48,7.14-15.82,11.52-19.03,13.12-3.21,1.6-5.78,2.4-7.73,2.4-1.6,0-2.87-.58-3.8-1.75-.93-1.17-1.4-3.07-1.4-5.71,0-3.12,.82-7.88,2.47-14.29l6.61-25.85h-10.52l1.17-4.61h10.53l3.64-14.22Z"/><path d="M438.7,627.63l2.14,2.86c-10.61,10.09-19.7,15.13-27.28,15.13-3.08,0-5.42-1.04-7.05-3.12-1.62-2.08-2.44-5.41-2.44-10,0-9.26,2.81-18.49,8.44-27.67,6.32-10.43,13.88-15.65,22.66-15.65,3.07,0,5.42,.77,7.05,2.31,1.62,1.54,2.44,3.65,2.44,6.33s-.97,5.58-2.92,8.31c-1.95,2.73-5.43,5.56-10.46,8.51-2.51,1.43-7.88,4.01-16.11,7.73-.39,2.34-.58,4.57-.58,6.69,0,3.07,.49,5.22,1.46,6.43,.97,1.21,2.39,1.82,4.25,1.82s3.72-.5,5.84-1.49c2.86-1.34,7.04-4.07,12.53-8.18Zm-22.73-9.42c6.97-3.12,12.21-6.47,15.72-10.07,2.38-2.51,3.57-5,3.57-7.47,0-1.86-.49-3.34-1.46-4.45-.97-1.1-2.24-1.66-3.8-1.66s-3.16,.61-4.68,1.82c-2.04,1.6-3.75,4.03-5.13,7.27-1.99,4.76-3.4,9.61-4.22,14.55Z"/><path d="M476.89,628.28l2.21,2.34c-3.38,3.81-7.37,7.28-11.98,10.42-4.61,3.14-8.41,4.71-11.4,4.71-1.34,0-2.45-.51-3.31-1.53s-1.3-2.41-1.3-4.19c0-3.46,1.34-10.65,4.02-21.56l7-28.51c2.55-10.3,4.69-17.21,6.42-20.72,2.68-5.3,6.47-9.42,11.38-12.36s10.09-4.4,15.53-4.4c1.86,0,3.32,.45,4.38,1.34s1.59,1.97,1.59,3.24c0,1.4-.52,2.54-1.55,3.43-1.04,.89-2.54,1.34-4.53,1.34-1.29,0-3.13-.22-5.5-.65-2.07-.35-3.99-.52-5.76-.52s-3.11,.37-4.01,1.1c-1.25,1.04-2.38,3.21-3.4,6.53-1.01,3.32-2.66,9.87-4.95,19.65l-6.48,27.21c-3.2,13.64-4.81,20.76-4.81,21.37,0,1.39,.5,2.08,1.49,2.08s2.34-.56,4.16-1.69c3.59-2.25,7.19-5.13,10.79-8.64Z"/><path d="M510.27,589.31c3.85,0,6.83,.75,8.93,2.24,2.1,1.49,3.15,3.21,3.15,5.16,0,1.17-.45,2.19-1.33,3.05-.89,.87-1.96,1.3-3.21,1.3-.82,0-1.54-.18-2.14-.55-.61-.37-1.47-1.29-2.6-2.76-2.12-2.81-4.22-4.22-6.3-4.22-1.78,0-3.34,.68-4.71,2.04-1.36,1.36-2.04,3.06-2.04,5.09,0,1.77,.43,3.49,1.3,5.16,.87,1.67,3.05,4.36,6.56,8.08,4.81,5.1,7.21,9.95,7.21,14.53s-1.95,8.59-5.85,12.03c-3.9,3.44-8.92,5.16-15.07,5.16-5.15,0-8.98-1.05-11.49-3.15-2.51-2.1-3.77-4.69-3.77-7.76,0-1.51,.48-2.77,1.43-3.77,.95-1,2.12-1.49,3.51-1.49,1.21,0,2.25,.4,3.12,1.2,.87,.8,1.3,1.74,1.3,2.83,0,.43-.03,1-.09,1.69-.03,.56-.04,1.04-.04,1.43,0,1.43,.6,2.64,1.81,3.64,1.17,1,2.76,1.49,4.79,1.49,2.33,0,4.38-.4,6.15-1.2s3.15-2.01,4.14-3.63,1.49-3.23,1.49-4.83-.47-3.11-1.4-4.67c-.93-1.56-3.02-4.13-6.27-7.72-4.5-5.02-6.75-9.84-6.75-14.46,0-4.24,1.71-7.95,5.13-11.12,3.42-3.18,7.77-4.77,13.05-4.77Z"/></g><text class="d" transform="translate(176.1 317)"><tspan x="0" y="0">M</tspan></text></g></g></svg>