<?xml version="1.0" encoding="UTF-8"?><svg xmlns="http://www.w3.org/2000/svg" viewBox="0 0 142.69 150.55"><defs><style>.d{fill:#ec1c24;}.e{fill:#fff;}</style></defs><g id="a"/><g id="b"><g id="c"><g><g><circle class="d" cx="71.4" cy="44.54" r="44.54"/><g><g><path class="e" d="M71.4,40.23c-8.61,0-15.35-2.64-15.35-6s6.74-6,15.35-6,15.35,2.64,15.35,6-6.74,6-15.35,6Zm0-11.14c-8.67,0-14.49,2.66-14.49,5.14s5.82,5.14,14.49,5.14,14.49-2.66,14.49-5.14-5.82-5.14-14.49-5.14Z"/><ellipse class="e" cx="71.4" cy="34.23" rx="5.24" ry="1.96"/></g><g><path class="e" d="M71.4,60.85c-8.61,0-15.35-2.64-15.35-6s6.74-6,15.35-6,15.35,2.64,15.35,6-6.74,6-15.35,6Zm0-11.14c-8.67,0-14.49,2.66-14.49,5.14s5.82,5.14,14.49,5.14,14.49-2.66,14.49-5.14-5.82-5.14-14.49-5.14Z"/><ellipse class="e" cx="71.4" cy="54.85" rx="5.24" ry="1.96"/></g><polygon class="e" points="86.75 54.85 85.11 57.15 80.33 59.28 73.82 60.38 68.4 60.38 63.62 59.63 58.03 57.32 56.05 54.85 56.05 34.23 58.2 36.81 63.33 38.88 68.34 39.75 71.4 39.8 76.64 39.4 81.83 38.25 85.17 36.46 86.75 34.23 86.75 54.85"/></g></g><g><path d="M22.78,97.76c-.71,.09-.66-.71,.05-.8,2.73-.28,6.02-3.2,7.43-6.53,.23-.71,3.24-.89,3.05,0-.28,.71-.42,2.49-.52,3.34-.66,4.42,.94,23.73,7.1,23.73s10.34-18.66,9.35-24.44c-.33-1.69-.8-2.73-1.27-4.09-.09-.23,.66-.85,.89-.89,2.02,0,3.01,4.23,4.61,5.69,.52,.47,.8,.56,1.17,.56,.14,0,.33-.14,.56-.14,.38,0,.47,.19,.52,.47,0,.52-.56,.89-1.03,.94-.38,0-.71-.09-.99-.28-.8-.38-1.41-.85-2.02-1.36,.61,8.37-5.5,25.14-12.17,25.14-7.43,0-9.21-12.78-9.21-21.15-1.93,5.08-3.71,9.4-6.2,14-2.82,4.98-6.06,9.17-9.59,10.25-1.46,.47-2.73,.47-3.76,.19-1.22-.42-2.07-1.22-2.4-2.63-.23-.75,.28-1.88,.75-.19,.24,.85,.75,1.36,1.65,1.6,.75,.23,2.07,.33,3.01,0,3.52-1.08,6.44-4.89,8.93-9.45,2.73-5.26,4.46-10.67,6.2-16.54-1.83,1.64-4.18,2.44-6.11,2.58Z"/><path d="M60.85,128.63c-1.74,2.58-4.51,5.73-7.71,5.17-.33-.09-.7-.19-.94-.33-2.96-1.46-1.55-4.28,.94-7.19,2.35-2.73,7.24-5.97,10.29-7.99,2.16-4.42,4.89-10.48,5.59-12.64-2.54,2.91-7.19,10.81-11.47,10.81s-3.76-4.23-2.4-6.86c1.03-2.07,2.3-3.62,3.81-4.93,2.07-1.97,3.81,.24,3.2,.71-1.08,.61-2.68,2.16-4.09,3.99-.75,.99-2.58,4.79-1.32,5.69,.85,.66,2.49,0,3.85-1.32,3.52-3.34,6.06-7.1,9.12-10.81,.42-1.08,3.34,.19,3.1,.71-1.17,2.58-3.95,8.88-5.69,12.6,1.17-.61,5.59-4.04,8.41-7.52,.56-.71,.94,.05,.38,.8-1.88,2.54-7.14,7.38-9.73,8.79-2.02,4.14-3.9,8.04-5.36,10.34Zm-6.63-1.6c-3.57,3.57-2.35,7.57,1.18,4.75,3.57-2.87,5.17-7.71,7.14-11.7-2.44,1.83-5.88,4.46-8.32,6.96Z"/><path d="M74.06,114.86c-3.48-4.42,7.24-11.47,10.76-12.31,1.41-.38,3.48-.47,4.7,.38,.47,.33,.8,.8,.8,1.27,0,.33-.05,.33-.28,.23-.52-.8-1.46-.89-2.35-.89-2.44,0-5.73,1.88-8.18,4.04-1.32,1.22-5.22,5.69-3.76,7.75,.66,.94,2.96-.75,3.62-1.27,1.22-1.03,3.34-2.82,4.56-4.14,.66-.71,4.23-4.65,4.65-4.65,.47,0,2.3,.38,1.88,1.13-1.69,2.4-2.63,5.31-2.82,6.81-.28,2.02,.66,3.1,2.16,2.3,1.55-.85,5.08-3.81,7-6.53,.23-.33,.8-.05,.56,.38-.85,1.65-3.76,4.75-6.11,6.44-1.5,1.13-4.98,2.26-5.92-.56-.42-1.27,.14-4.09,.75-5.73-.8,.38-5.26,6.96-9.02,6.96-.99,0-2.3-.66-3.01-1.6Z"/><path d="M101.08,102.45c2.26-5.97,7.19-15.42,13.16-14.24,.38,.05,.75,.24,1.03,.38,3.2,1.74-1.6,7.19-2.91,8.65-3.01,3.2-6.96,5.92-9.59,7.05-1.46,3.24-2.77,7-3.24,8.46l3.05-4c-.05-.66-.05-1.22,.05-1.74,.09-.61,.8-1.5,.94-.33l.19,.66c1.17-1.36,3.67-4.23,5.22-4.98,2.21-1.08,4.09,.71,1.83,1.83-1.46,.71-4.93,2.26-6.81,4.23,1.41,4.98,2.4,7.33,5.64,11.33,1.41,1.69,3.01,2.77,4.23,2.77,2.3,0,1.17-2.58,.42-3.76-.66-1.03,.28-.8,.89-.33,.33,.38,1.03,1.74,1.03,2.54-.05,1.93-2.44,2.82-3.62,2.82-4.65,0-8.7-7.61-9.82-13.82-2.16,3.05-3.76,5.97-4.42,6.34-.47,.24-3.01,1.36-2.58,.47,.28-.52,2.16-6.02,3.71-9.96-.66,.71-1.46,1.69-2.54,3.24-.28,.38-1.27,.33-.47-.71,1.32-1.6,3.05-4.23,3.99-5.5-1.27-.71-.56-1.97,.24-1.5,.14,.05,.24,.09,.38,.09Zm10.2-5.88c.71-.8,4.75-6.11,3.43-7.14-.38-.28-1.13-.14-2.21,.7-4.23,3.24-6.67,7.14-9.16,12.55,2.68-1.22,5.55-3.34,7.94-6.11Z"/><path d="M128.34,115.8c-1.55,1.13-4.98,2.26-5.92-.56-.42-1.27,.14-4.42,.8-6.06-.71,.47-3.62,7.28-7.47,7.28-.94,0-2.68-.61-3.29-1.6-1.08-1.74-.05-5.26,1.65-7.85,.66-1.03,1.83-2.77,2.26-2.91,.8-.23,1.88-.23,2.54,0,.56,.24,.24,.71-.09,.94-1.03,.94-3.43,3.43-4.61,6.58-1.5,4,.61,5.08,3.9,2.44,1.74-1.41,3.76-4.14,5.5-6.67,.85-1.22,2.44-4.23,3.05-5.17,.61,0,2.91,.42,2.44,1.27-.56,.94-2.3,3.85-2.91,5.08-.71,1.36-1.27,2.96-1.5,4.65-.28,2.02,.66,3.1,2.21,2.3,1.5-.85,5.03-3.81,6.96-6.53,.24-.33,.85-.05,.61,.38-.89,1.65-3.76,4.75-6.11,6.44Z"/></g><g><path d="M3.39,146.08H0v-.39H3.39v.39Z"/><path d="M15.21,147.88c0-.66-.24-1.18-.72-1.58-.48-.39-1.32-.75-2.51-1.08-1.2-.32-2.07-.69-2.63-1.1-.56-.41-.83-1.01-.83-1.8s.33-1.41,.98-1.88c.65-.47,1.49-.7,2.5-.7s1.86,.29,2.51,.86c.65,.57,.96,1.31,.94,2.21v.04h-.35c0-.78-.29-1.43-.87-1.95-.58-.51-1.32-.77-2.24-.77s-1.7,.21-2.26,.64-.83,.94-.83,1.53,.23,1.09,.69,1.49c.46,.39,1.29,.75,2.49,1.05,1.16,.31,2.04,.68,2.63,1.13s.89,1.08,.89,1.89-.34,1.49-1.02,1.96c-.68,.48-1.53,.72-2.54,.72s-1.96-.25-2.72-.74c-.76-.49-1.13-1.27-1.1-2.33v-.04h.34c0,.95,.35,1.64,1.05,2.07,.7,.43,1.51,.64,2.43,.64s1.68-.21,2.27-.63,.89-.97,.89-1.64Z"/><path d="M24.79,139.9v7.12c0,1.14-.33,2.02-1,2.62-.66,.61-1.53,.91-2.59,.91s-1.94-.3-2.6-.91c-.66-.61-.99-1.48-.99-2.62v-7.12h.39v7.12c0,.99,.3,1.75,.89,2.31,.6,.55,1.36,.83,2.31,.83s1.7-.28,2.3-.83c.6-.56,.89-1.33,.89-2.31v-7.12h.39Z"/><path d="M33.87,147.88c0-.66-.24-1.18-.72-1.58-.48-.39-1.32-.75-2.51-1.08-1.2-.32-2.07-.69-2.63-1.1-.56-.41-.83-1.01-.83-1.8s.33-1.41,.98-1.88c.65-.47,1.49-.7,2.5-.7s1.86,.29,2.51,.86c.65,.57,.96,1.31,.94,2.21v.04h-.35c0-.78-.29-1.43-.87-1.95-.58-.51-1.32-.77-2.24-.77s-1.7,.21-2.26,.64-.83,.94-.83,1.53,.23,1.09,.69,1.49c.46,.39,1.29,.75,2.49,1.05,1.16,.31,2.04,.68,2.63,1.13s.89,1.08,.89,1.89-.34,1.49-1.02,1.96c-.68,.48-1.53,.72-2.54,.72s-1.96-.25-2.72-.74c-.76-.49-1.13-1.27-1.1-2.33v-.04h.34c0,.95,.35,1.64,1.05,2.07,.7,.43,1.51,.64,2.43,.64s1.68-.21,2.27-.63,.89-.97,.89-1.64Z"/><path d="M43.87,150.39h-.39v-5.01h-6.71v5.01h-.39v-10.5h.39v5.1h6.71v-5.1h.39v10.5Z"/><path d="M47.43,150.39h-.39v-10.5h.39v10.5Z"/><path d="M56.52,146.08h-3.39v-.39h3.39v.39Z"/><path d="M69.44,149.27c-.22,.31-.65,.6-1.27,.87s-1.4,.41-2.31,.41c-1.2,0-2.18-.43-2.92-1.28s-1.12-1.97-1.12-3.34v-1.72c0-1.32,.36-2.39,1.09-3.22,.73-.83,1.67-1.24,2.83-1.24s1.99,.29,2.64,.86,.98,1.32,1,2.22v.04h-.34c-.04-.81-.34-1.47-.9-1.98-.56-.51-1.36-.76-2.4-.76s-1.92,.38-2.56,1.13c-.65,.76-.97,1.73-.97,2.92v1.73c0,1.25,.33,2.27,1,3.05,.67,.79,1.55,1.18,2.65,1.18,.77,0,1.45-.11,2.03-.34,.58-.23,.97-.47,1.16-.73v-3.06h-3.21v-.4h3.6v3.63Z"/><path d="M72.53,145.47v4.93h-.39v-10.5h3.34c1.11,0,1.96,.24,2.55,.72,.6,.48,.89,1.18,.89,2.09,0,.59-.19,1.13-.57,1.61-.38,.48-.89,.8-1.55,.94,.75,.13,1.29,.41,1.62,.83s.49,.96,.49,1.62v.99c0,.33,.04,.62,.12,.88s.21,.47,.39,.63v.18h-.38c-.17-.2-.3-.44-.39-.73-.09-.29-.13-.62-.13-.98v-.96c0-.71-.24-1.27-.73-1.67-.49-.4-1.18-.6-2.09-.6h-3.19Zm0-.39h2.88c1.07,0,1.86-.23,2.37-.68,.51-.45,.76-1.01,.76-1.69,0-.78-.26-1.38-.77-1.8-.51-.42-1.28-.62-2.29-.62h-2.96v4.79Z"/><path d="M82.52,150.39h-.39v-10.5h.39v10.5Z"/><path d="M86.09,150h5.38v.39h-5.78v-10.5h.4v10.11Z"/><path d="M93.71,150h5.38v.39h-5.78v-10.5h.4v10.11Z"/><path d="M106.6,147.26h-5.13l-1.17,3.14h-.43l3.92-10.5h.48l3.93,10.5h-.43l-1.17-3.14Zm-4.99-.39h4.84l-2.2-5.91-.2-.59h-.04l-.2,.59-2.21,5.91Z"/><path d="M109.89,150.39v-10.5h2.91c1.21,0,2.23,.43,3.07,1.3,.84,.87,1.26,1.97,1.26,3.31v1.28c0,1.35-.42,2.45-1.26,3.31-.84,.86-1.87,1.29-3.07,1.29h-2.91Zm.39-10.11v9.72h2.52c1.09,0,2.02-.4,2.79-1.2,.77-.8,1.15-1.8,1.15-3.02v-1.31c0-1.2-.38-2.2-1.15-3-.77-.8-1.7-1.2-2.79-1.2h-2.52Z"/><path d="M125.2,145.12h-5.26v4.89h6v.39h-6.39v-10.5h6.39v.39h-6v4.44h5.26v.39Z"/><path d="M134.25,147.88c0-.66-.24-1.18-.72-1.58-.48-.39-1.32-.75-2.51-1.08-1.2-.32-2.07-.69-2.63-1.1-.55-.41-.83-1.01-.83-1.8s.33-1.41,.98-1.88c.65-.47,1.49-.7,2.5-.7s1.86,.29,2.51,.86c.65,.57,.96,1.31,.94,2.21v.04h-.35c0-.78-.29-1.43-.87-1.95-.58-.51-1.32-.77-2.24-.77s-1.71,.21-2.26,.64c-.56,.43-.83,.94-.83,1.53s.23,1.09,.69,1.49c.46,.39,1.29,.75,2.49,1.05,1.16,.31,2.04,.68,2.63,1.13s.89,1.08,.89,1.89-.34,1.49-1.02,1.96c-.68,.48-1.53,.72-2.54,.72s-1.96-.25-2.72-.74c-.76-.49-1.13-1.27-1.1-2.33v-.04h.34c0,.95,.35,1.64,1.05,2.07,.7,.43,1.51,.64,2.43,.64s1.68-.21,2.27-.63,.89-.97,.89-1.64Z"/><path d="M142.69,146.08h-3.39v-.39h3.39v.39Z"/></g></g></g></g></svg>