<?xml version="1.0" encoding="UTF-8"?><svg xmlns="http://www.w3.org/2000/svg" viewBox="0 0 796.49 726.69"><defs><style>.d{fill:#fff;stroke:#e6e6e6;stroke-miterlimit:10;stroke-width:2px;}.e{fill:#c1272d;}.f{fill:#ffd325;}</style></defs><g id="a"/><g id="b"><g id="c"><rect class="e" y="0" width="796.49" height="511.72" rx="45.94" ry="45.94"/><path class="d" d="M464.63,123.16c131.63-35.62,328.11,53.98,227.31,136.11-46.23,31.22-86.01,4.29-146.29,44.06-26.47,17.46-60.15,32.4-81.02,42.78-86.36,42.93-434.38-50.55-382.61-130.57,51.77-80.02,116.66-.15,247.57-62.56,69.42-33.1,81.06-19.39,135.04-29.81Z"/><path class="f" d="M554.44,171.51c0-60.33-48.91-82.48-109.24-82.48s-109.24,22.15-109.24,82.48,48.91,64.06,109.24,64.06,109.24-3.73,109.24-64.06Z"/><g><path d="M14.98,576.52h54.25c32.16,0,48.23,12.65,48.23,37.95,0,12.54-5.51,22.97-16.52,31.28,15.97,6.93,23.95,19.29,23.95,37.08,0,13.64-4.7,24.5-14.11,32.59-4.59,3.87-9.52,6.56-14.77,8.09s-12.32,2.3-21.22,2.3h-8.42v-38.39h7.55c4.45,0,7.58-.56,9.41-1.7,1.82-1.13,2.73-3.12,2.73-5.96,0-4.81-3.72-7.22-11.16-7.22h-8.53v-39.81c8.17,0,12.25-2.81,12.25-8.42,0-5.18-3.68-7.77-11.05-7.77h-8.2v109.27H14.98v-149.3Z"/><path d="M222.47,634.6v33.25h-28.98c-3.94,0-6.73,.58-8.37,1.75-1.64,1.17-2.46,3.14-2.46,5.91,0,3.14,.84,5.2,2.52,6.18,1.68,.98,5.1,1.48,10.28,1.48h29.86v42.66h-34.89c-16.41,0-28.95-3.92-37.62-11.76-8.68-7.84-13.02-19.16-13.02-33.96v-58.52c0-14.29,4.1-25.38,12.3-33.25s19.74-11.81,34.62-11.81h38.61v42.88h-28.33c-7.66,0-11.48,2.48-11.48,7.44,0,2.92,.91,4.94,2.73,6.07,1.82,1.13,5.07,1.7,9.73,1.7h24.5Z"/><path d="M295.2,619.4v106.42h-44.41v-149.3h57.86c25.38,0,45.24,5.76,59.61,17.28,17.06,13.78,25.59,32.48,25.59,56.11s-7.29,41.05-21.88,55.34c-14.58,14.29-33.36,21.44-56.33,21.44-2.7,0-7.11-.15-13.23-.44v-43.86h7.11c25.88,0,38.83-10.83,38.83-32.48,0-20.34-12.72-30.52-38.17-30.52h-14.98Z"/></g><g><path d="M410.72,655.24h22.28c13.21,0,19.81,5.2,19.81,15.59,0,5.15-2.26,9.43-6.78,12.85,6.56,2.85,9.84,7.92,9.84,15.23,0,5.6-1.93,10.06-5.79,13.39-1.89,1.59-3.91,2.7-6.06,3.32s-5.06,.94-8.71,.94h-3.46v-15.77h3.1c1.83,0,3.11-.23,3.86-.7,.75-.46,1.12-1.28,1.12-2.45,0-1.98-1.53-2.96-4.58-2.96h-3.5v-16.35c3.35,0,5.03-1.15,5.03-3.46,0-2.13-1.51-3.19-4.54-3.19h-3.37v44.88h-18.24v-61.32Z"/><path d="M481.47,671.73v44.83h-18.24v-61.32h23.4c7.13,0,12.65,1.77,16.58,5.3,4.37,3.95,6.56,8.97,6.56,15.05s-2.71,11.43-8.13,15.68l10.51,25.29h-19.14l-8.85-19.77v-15.77h1.44c3.83,0,5.75-1.65,5.75-4.94,0-2.9-2.22-4.36-6.65-4.36h-3.23Z"/><path d="M550.97,679.09v13.66h-11.9c-1.62,0-2.76,.24-3.44,.72-.67,.48-1.01,1.29-1.01,2.43,0,1.29,.34,2.13,1.03,2.54,.69,.4,2.1,.61,4.22,.61h12.26v17.52h-14.33c-6.74,0-11.89-1.61-15.45-4.83-3.56-3.22-5.35-7.87-5.35-13.95v-24.03c0-5.87,1.68-10.42,5.05-13.66s8.11-4.85,14.22-4.85h15.86v17.61h-11.63c-3.14,0-4.72,1.02-4.72,3.05,0,1.2,.37,2.03,1.12,2.49,.75,.46,2.08,.7,4,.7h10.06Z"/><path d="M584.84,685.79v16.17h-5.26v14.6h-18.24v-38.99c0-7.55,2.06-13.41,6.18-17.59,4.12-4.18,9.91-6.27,17.36-6.27s12.5,1.89,15.95,5.68c3.44,3.79,5.17,9.64,5.17,17.54v39.62h-18.24v-38.41c0-2.4-.29-4.06-.85-4.99-.57-.93-1.59-1.39-3.05-1.39-2.85,0-4.27,2.13-4.27,6.38v7.64h5.26Z"/><path d="M640.09,684.12v16.44h-6.06v15.99h-18.24v-38.05c0-7.16,2.21-13.08,6.63-17.77,4.42-4.69,9.98-7.03,16.69-7.03,7.4,0,13.58,3.19,18.55,9.57l-14.96,10.92c-.84-2.34-2.32-3.5-4.45-3.5-2.82,0-4.22,1.95-4.22,5.84v7.59h6.06Z"/><path d="M683.58,685.79v16.17h-5.26v14.6h-18.24v-38.99c0-7.55,2.06-13.41,6.18-17.59,4.12-4.18,9.91-6.27,17.36-6.27s12.5,1.89,15.95,5.68c3.44,3.79,5.17,9.64,5.17,17.54v39.62h-18.24v-38.41c0-2.4-.29-4.06-.85-4.99-.57-.93-1.59-1.39-3.05-1.39-2.85,0-4.27,2.13-4.27,6.38v7.64h5.26Z"/><path d="M744.58,654.97v17.47c-1.32-.45-2.34-.67-3.05-.67-1.38,0-2.56,.51-3.55,1.53-.99,1.02-1.48,2.25-1.48,3.68,0,1.23,.54,2.79,1.62,4.67l1.39,2.43c2.52,4.37,3.77,8.6,3.77,12.67,0,5.96-2.12,11.01-6.36,15.14-4.24,4.13-9.41,6.2-15.52,6.2-2.94,0-5.84-.67-8.71-2.02v-17.74c1.74,1.11,3.28,1.66,4.63,1.66,1.59,0,2.91-.46,3.98-1.37,1.06-.91,1.59-2.06,1.59-3.44,0-.9-.85-2.86-2.56-5.88-2.73-4.79-4.09-9.58-4.09-14.38,0-5.78,2.06-10.76,6.18-14.94,4.12-4.18,9.04-6.27,14.76-6.27,2.52,0,4.99,.42,7.41,1.26Z"/><path d="M780.52,672.85v43.71h-18.24v-43.71h-13.97v-17.61h46.13v17.61h-13.93Z"/></g><g><path d="M432.96,611.79v16.17h-5.26v14.6h-18.24v-38.99c0-7.55,2.06-13.41,6.18-17.59,4.12-4.18,9.91-6.27,17.36-6.27s12.5,1.89,15.95,5.68c3.44,3.79,5.17,9.64,5.17,17.54v39.62h-18.24v-38.41c0-2.4-.29-4.06-.85-4.99-.57-.93-1.59-1.39-3.05-1.39-2.85,0-4.27,2.13-4.27,6.38v7.64h5.26Z"/><path d="M463.91,642.56v-39.8c0-6.98,2.09-12.56,6.27-16.76,4.18-4.19,9.74-6.29,16.69-6.29s12.21,2.04,15.88,6.11c3.67,4.07,5.5,9.93,5.5,17.56v39.17h-18.24v-39.17c0-3.74-1.33-5.62-4-5.62s-3.86,1.87-3.86,5.62v39.17h-18.24Z"/><path d="M537.58,598.86v43.71h-18.24v-61.32h23.76c10.42,0,18.58,2.37,24.48,7.1,7.01,5.66,10.51,13.34,10.51,23.04s-3,16.86-8.98,22.73c-5.99,5.87-13.7,8.8-23.13,8.8-1.11,0-2.92-.06-5.44-.18v-18.01h2.92c10.63,0,15.95-4.45,15.95-13.34,0-8.36-5.23-12.53-15.68-12.53h-6.15Z"/></g></g></g></svg>