<svg xmlns="http://www.w3.org/2000/svg" viewBox="0 0 191.41 191.41"><defs><style>.cls-1{fill:#f6f6f6;stroke:#1d1d1b;}.cls-1,.cls-2,.cls-6{stroke-miterlimit:10;}.cls-2{fill:#c6c6c6;stroke:#c6c6c6;stroke-width:5px;}.cls-3{fill:#1d1d1b;}.cls-4{fill:#cdcccc;}.cls-5{fill:#a48a7b;}.cls-6{fill:none;stroke:#7b6a58;}</style></defs><g id="Calque_2" data-name="Calque 2"><g id="Bed_Breakfast" data-name="Bed&amp;Breakfast"><circle class="cls-1" cx="95.7" cy="95.7" r="95.2"/><path class="cls-2" d="M52.82,111.54c-12-2.89-23.84-1.91-27.79,4.1-5.9,9,7.57,28.43,21.46,38.45a57.58,57.58,0,0,0,17.21,8.43ZM43,140.6c-7.78-5.62-15.33-16.53-12-21.55,2.21-3.36,8.84-3.91,15.57-2.29l6.09,28.56A32.59,32.59,0,0,1,43,140.6Z"/><path class="cls-3" d="M60.1,83.56a6.64,6.64,0,0,1-.82-.07,2.05,2.05,0,0,1-.79-.28.68.68,0,0,1-.34-.62,1.32,1.32,0,0,1,.24-.72,3.87,3.87,0,0,1,.61-.69,4.93,4.93,0,0,1,.78-.58,7.34,7.34,0,0,1,.73-.41,17,17,0,0,1,.77-1.54c.32-.55.68-1.1,1.08-1.66a17.62,17.62,0,0,1,1.25-1.55,11.54,11.54,0,0,1,1.32-1.24l.45-.31a1.08,1.08,0,0,1,.51-.2c.17,0,.25.07.25.22a.17.17,0,0,1,0,.12.36.36,0,0,1-.12.08c-.14.06-.26.13-.37.19l-.35.23a7.9,7.9,0,0,0-1.19,1.09A17.43,17.43,0,0,0,62.93,77c-.36.5-.68,1-1,1.49s-.54,1-.74,1.37a9.27,9.27,0,0,1,1.4-.33,10.61,10.61,0,0,1,1.45-.1,4.72,4.72,0,0,1,.49,0,4.52,4.52,0,0,1,.63.08,1.49,1.49,0,0,1,.54.21.41.41,0,0,1,.22.37c0,.15-.09.23-.25.23a.25.25,0,0,1-.16,0l-.09-.11a.73.73,0,0,0-.55-.27,6.32,6.32,0,0,0-.71,0,11.24,11.24,0,0,0-1.65.12,5.84,5.84,0,0,0-1.56.45,3.7,3.7,0,0,0-.19.59,2.62,2.62,0,0,0-.08.61q0,.41.12.51a.47.47,0,0,0,.22.13c.08,0,.11.08.11.2a.27.27,0,0,1-.06.17.23.23,0,0,1-.19.08.54.54,0,0,1-.41-.18.88.88,0,0,1-.23-.41,1.4,1.4,0,0,1-.07-.41,2,2,0,0,1,.05-.49c0-.16.06-.32.1-.47a6.54,6.54,0,0,0-.66.42,4.07,4.07,0,0,0-.69.61,1,1,0,0,0-.29.66.42.42,0,0,0,.25.4,1.77,1.77,0,0,0,.59.17c.21,0,.39,0,.54,0A8,8,0,0,0,61.52,83a15,15,0,0,0,1.66-.42,13.3,13.3,0,0,0,1.68-.66A8.8,8.8,0,0,0,66.33,81a4.52,4.52,0,0,0,1-1.06,2.15,2.15,0,0,0,.39-1.21,1.69,1.69,0,0,0-.59-1.3,3.32,3.32,0,0,0-1.37-.77,2.17,2.17,0,0,0-.35-.07c-.12,0-.24,0-.35-.06a.75.75,0,0,1-.18-.07.18.18,0,0,1-.07-.16c0-.11.08-.19.23-.22l.43-.06a2.7,2.7,0,0,0,.41-.06,9.28,9.28,0,0,0,1.11-.3,5.86,5.86,0,0,0,1.08-.49A2.73,2.73,0,0,0,69,74.5a1.79,1.79,0,0,0,.27-.45A1.19,1.19,0,0,0,69,72.76a2.4,2.4,0,0,0-.75-.57,5.36,5.36,0,0,0-1-.36c-.35-.08-.66-.14-1-.18s-.72,0-1.09,0a9.66,9.66,0,0,0-2.39.3,6.64,6.64,0,0,0-2.13,1,6.32,6.32,0,0,0-1,.8,5.22,5.22,0,0,0-.81,1,2.29,2.29,0,0,0-.32,1.14.65.65,0,0,0,.11.41,1.24,1.24,0,0,0,.21.2.21.21,0,0,1,.1.18.23.23,0,0,1-.07.17.25.25,0,0,1-.19.08.44.44,0,0,1-.37-.19,1.57,1.57,0,0,1-.22-.45,1.43,1.43,0,0,1-.08-.38,2.63,2.63,0,0,1,.35-1.28,5.64,5.64,0,0,1,.88-1.16,6.42,6.42,0,0,1,1.09-.9,7.53,7.53,0,0,1,2.31-1,10.14,10.14,0,0,1,2.58-.33c.37,0,.74,0,1.09,0a6.28,6.28,0,0,1,1.14.21,5,5,0,0,1,1.11.45,2.91,2.91,0,0,1,.84.7,1.5,1.5,0,0,1,.33,1,1.78,1.78,0,0,1-.34,1,3.21,3.21,0,0,1-.88.79,7.24,7.24,0,0,1-1.15.57,11.11,11.11,0,0,1-1.17.37,4.14,4.14,0,0,1,1.39,1,2,2,0,0,1,.58,1.43,2.46,2.46,0,0,1-.41,1.35,4.23,4.23,0,0,1-1.08,1.17,8.92,8.92,0,0,1-1.53,1,12.09,12.09,0,0,1-1.78.73,14.21,14.21,0,0,1-1.79.45A8.61,8.61,0,0,1,60.1,83.56Z"/><path class="cls-3" d="M70,82a1.23,1.23,0,0,1-1.12-.47,1.9,1.9,0,0,1-.32-1.11,3.23,3.23,0,0,1,.23-1.11A6.11,6.11,0,0,1,69.4,78a4.09,4.09,0,0,1,.95-1,1.86,1.86,0,0,1,1.17-.41.89.89,0,0,1,.64.22.75.75,0,0,1,.24.57A2.21,2.21,0,0,1,72,78.65a3.36,3.36,0,0,1-1.09,1,2.76,2.76,0,0,1-1.42.39h-.19l-.19,0a2.17,2.17,0,0,0,0,.47,1.46,1.46,0,0,0,.19.74.78.78,0,0,0,.75.34,1.83,1.83,0,0,0,.9-.23,3.26,3.26,0,0,0,.74-.53c.19-.19.36-.37.49-.53a4.91,4.91,0,0,0,.42-.53c.15-.2.33-.47.55-.8a.2.2,0,0,1,.18-.11c.15,0,.22.08.22.23a.28.28,0,0,1,0,.13,11.53,11.53,0,0,1-.93,1.35,4.76,4.76,0,0,1-1.15,1.06A2.46,2.46,0,0,1,70,82Zm-.39-2.45a2.08,2.08,0,0,0,1.11-.32,2.75,2.75,0,0,0,.86-.8,1.72,1.72,0,0,0,.33-1,.49.49,0,0,0-.08-.28.37.37,0,0,0-.29-.11,1.32,1.32,0,0,0-.78.27,3.14,3.14,0,0,0-.67.69,5.16,5.16,0,0,0-.51.81,4.7,4.7,0,0,0-.31.69l.17,0Z"/><path class="cls-3" d="M73.33,82.08a.74.74,0,0,1-.71-.34,1.36,1.36,0,0,1-.2-.73,3.28,3.28,0,0,1,.19-1,6.32,6.32,0,0,1,.54-1.16,6.2,6.2,0,0,1,.79-1.09,4.19,4.19,0,0,1,1-.81A2.2,2.2,0,0,1,76,76.61a1,1,0,0,1,.55.13,1.4,1.4,0,0,1,.4.34c.22-.35.46-.78.73-1.28l.82-1.53c.28-.51.54-1,.77-1.33a.92.92,0,0,1,.32-.35.73.73,0,0,1,.33-.1.32.32,0,0,1,.2.07.33.33,0,0,1,.08.26,1.39,1.39,0,0,1-.2.46c-.13.23-.29.51-.5.83s-.43.66-.67,1l-.68,1-.52.81c-.1.16-.24.42-.42.75l-.54,1.11A12,12,0,0,0,76.22,80a3.36,3.36,0,0,0-.18,1,.59.59,0,0,0,.08.34.24.24,0,0,0,.23.14.59.59,0,0,0,.36-.14,2.45,2.45,0,0,0,.34-.31l.22-.26.29-.41c.16-.21.32-.45.51-.7l.41-.6a.24.24,0,0,1,.21-.13q.21,0,.21.24a.4.4,0,0,1-.06.13,2.47,2.47,0,0,0-.16.26,17,17,0,0,1-1.27,1.75,1.51,1.51,0,0,1-1.12.61h-.1l-.11,0a.53.53,0,0,1-.42-.34,1.46,1.46,0,0,1-.12-.57c0-.1,0-.2,0-.31s0-.25.09-.44l-.65.77a9.73,9.73,0,0,1-.71.72,1.48,1.48,0,0,1-.61.37A1,1,0,0,1,73.33,82.08Zm.07-.48a1,1,0,0,0,.55-.24,4.62,4.62,0,0,0,.65-.62,8.47,8.47,0,0,0,.64-.79c.2-.28.38-.53.53-.77a5.51,5.51,0,0,0,.31-.53l.59-1.17a1.5,1.5,0,0,0-.27-.29.56.56,0,0,0-.39-.13,1.78,1.78,0,0,0-.94.29,3.62,3.62,0,0,0-.83.75,5.69,5.69,0,0,0-.66,1,6.37,6.37,0,0,0-.43,1A2.89,2.89,0,0,0,73,81a1.47,1.47,0,0,0,.07.38A.32.32,0,0,0,73.4,81.6Z"/><path class="cls-3" d="M84.23,83.23a2.06,2.06,0,0,1-1.31-.43,2.89,2.89,0,0,1-.87-1.08,3.14,3.14,0,0,1-.31-1.36,4.36,4.36,0,0,1,.46-2,7.88,7.88,0,0,1,1.16-1.74,16.75,16.75,0,0,1,1.43-1.47V75a5.51,5.51,0,0,1,.11-1,9.47,9.47,0,0,1,.35-1.25,6.54,6.54,0,0,1,.58-1.22,3.3,3.3,0,0,1,.79-.93,1.58,1.58,0,0,1,1-.36,1.09,1.09,0,0,1,.82.32,1.14,1.14,0,0,1,.31.83,1.93,1.93,0,0,1-.38,1.11,6.72,6.72,0,0,1-.95,1.1c-.39.36-.77.7-1.15,1a11.07,11.07,0,0,0-1,.85c0,.29.1.58.14.87s.1.6.17.9a4.44,4.44,0,0,1,.68-.83,4.05,4.05,0,0,1,.94-.72,2,2,0,0,1,1-.29,1.37,1.37,0,0,1,.88.29,1.79,1.79,0,0,1,.54.73,2.44,2.44,0,0,1,.18.93,3.44,3.44,0,0,1-.18,1,7.73,7.73,0,0,1-.47,1.13,10,10,0,0,1-.61,1.07,9,9,0,0,1-.62.85c.05.05.14.14.27.25l.41.37a4.27,4.27,0,0,1,.37.38c.11.11.16.19.16.25a.25.25,0,0,1,0,.07.11.11,0,0,1-.09,0,.56.56,0,0,1-.22-.15l-.42-.36L88,81.86l-.26-.23a5.31,5.31,0,0,1-1.6,1.18A4.48,4.48,0,0,1,84.23,83.23Zm0-.46A4,4,0,0,0,86,82.38a4.88,4.88,0,0,0,1.46-1.06,8.32,8.32,0,0,1-1.21-1.4,6.85,6.85,0,0,1-.81-1.65,2.23,2.23,0,0,0-.2.64,3.36,3.36,0,0,0,0,.65,2.06,2.06,0,0,1,0,.21.17.17,0,0,1-.15.14.19.19,0,0,1-.12-.15,1.83,1.83,0,0,1,0-.21,3.27,3.27,0,0,1,.11-.88,3.31,3.31,0,0,1,.31-.81c-.1-.33-.18-.65-.25-1s-.13-.65-.17-1a15.75,15.75,0,0,0-1.12,1.31,8.52,8.52,0,0,0-1,1.57,3.7,3.7,0,0,0-.4,1.64,2.82,2.82,0,0,0,.22,1.08,2.25,2.25,0,0,0,.64.9A1.49,1.49,0,0,0,84.23,82.77Zm1.12-8.1c.19-.18.46-.39.79-.65s.66-.54,1-.84a6,6,0,0,0,.85-.92,1.41,1.41,0,0,0,.35-.85.7.7,0,0,0-.68-.69A1,1,0,0,0,87,71a3.76,3.76,0,0,0-.62.8,7.66,7.66,0,0,0-.5,1c-.14.37-.25.72-.34,1A4.74,4.74,0,0,0,85.35,74.67Zm2.31,6.39a8.07,8.07,0,0,0,.73-1A7.1,7.1,0,0,0,89,78.75a3.36,3.36,0,0,0,.25-1.21,2.24,2.24,0,0,0-.13-.75,1.5,1.5,0,0,0-.41-.63,1,1,0,0,0-.7-.25,1.6,1.6,0,0,0-.85.29,4.78,4.78,0,0,0-.82.68,4.85,4.85,0,0,0-.6.73,8.11,8.11,0,0,0,.73,1.85A7,7,0,0,0,87.66,81.06Z"/><path class="cls-3" d="M95.71,83.56a6.64,6.64,0,0,1-.82-.07,2.12,2.12,0,0,1-.79-.28.69.69,0,0,1-.33-.62,1.32,1.32,0,0,1,.24-.72,3.8,3.8,0,0,1,.6-.69,6.06,6.06,0,0,1,.78-.58,7.38,7.38,0,0,1,.74-.41,14.69,14.69,0,0,1,.77-1.54A18.52,18.52,0,0,1,98,77a17.7,17.7,0,0,1,1.26-1.55,12.39,12.39,0,0,1,1.31-1.24l.45-.31a1.07,1.07,0,0,1,.52-.2c.16,0,.24.07.24.22a.16.16,0,0,1,0,.12.41.41,0,0,1-.13.08l-.37.19-.34.23a8,8,0,0,0-1.2,1.09A17.33,17.33,0,0,0,98.55,77c-.36.5-.69,1-1,1.49s-.54,1-.74,1.37a8.73,8.73,0,0,1,1.4-.33,10.47,10.47,0,0,1,1.44-.1,4.9,4.9,0,0,1,.5,0,4.52,4.52,0,0,1,.63.08,1.51,1.51,0,0,1,.53.21.41.41,0,0,1,.22.37c0,.15-.08.23-.25.23a.21.21,0,0,1-.15,0l-.09-.11a.75.75,0,0,0-.56-.27,6.16,6.16,0,0,0-.7,0,11.48,11.48,0,0,0-1.66.12,6.06,6.06,0,0,0-1.56.45c-.07.19-.13.38-.19.59a2.6,2.6,0,0,0-.07.61c0,.27,0,.44.11.51a.5.5,0,0,0,.23.13c.07,0,.11.08.11.2a.23.23,0,0,1-.07.17.22.22,0,0,1-.18.08.52.52,0,0,1-.41-.18,1,1,0,0,1-.24-.41,1.85,1.85,0,0,1-.07-.41,2.72,2.72,0,0,1,0-.49c0-.16.07-.32.11-.47a4.87,4.87,0,0,0-.66.42,3.42,3.42,0,0,0-.69.61,1,1,0,0,0-.3.66.43.43,0,0,0,.26.4,1.71,1.71,0,0,0,.58.17c.22,0,.4,0,.54,0A7.83,7.83,0,0,0,97.13,83a14.43,14.43,0,0,0,1.66-.42,12.21,12.21,0,0,0,1.68-.66,8.06,8.06,0,0,0,1.47-.88,4.34,4.34,0,0,0,1-1.06,2.15,2.15,0,0,0,.39-1.21,1.68,1.68,0,0,0-.58-1.3,3.36,3.36,0,0,0-1.38-.77,2,2,0,0,0-.35-.07l-.35-.06a.75.75,0,0,1-.18-.07.2.2,0,0,1-.07-.16c0-.11.08-.19.24-.22a3.27,3.27,0,0,1,.42-.06,3,3,0,0,0,.42-.06,8.67,8.67,0,0,0,1.1-.3,6,6,0,0,0,1.09-.49,3,3,0,0,0,.84-.67,2.68,2.68,0,0,0,.27-.45,1.18,1.18,0,0,0,.1-.48,1.2,1.2,0,0,0-.3-.81,2.19,2.19,0,0,0-.75-.57,5.36,5.36,0,0,0-1-.36c-.34-.08-.66-.14-1-.18s-.71,0-1.09,0a9.58,9.58,0,0,0-2.38.3,6.69,6.69,0,0,0-2.14,1,5.84,5.84,0,0,0-1,.8,4.88,4.88,0,0,0-.81,1,2.29,2.29,0,0,0-.32,1.14.65.65,0,0,0,.11.41.77.77,0,0,0,.21.2.24.24,0,0,1,.1.18.25.25,0,0,1-.08.17.22.22,0,0,1-.19.08A.44.44,0,0,1,94,76.7a1.59,1.59,0,0,1-.23-.45,1.34,1.34,0,0,1-.07-.38,2.52,2.52,0,0,1,.35-1.28A5.58,5.58,0,0,1,95,73.43a7.31,7.31,0,0,1,1.09-.9,7.69,7.69,0,0,1,2.32-1,10.14,10.14,0,0,1,2.58-.33c.37,0,.73,0,1.08,0a6.22,6.22,0,0,1,1.15.21,5.38,5.38,0,0,1,1.11.45,2.91,2.91,0,0,1,.84.7,1.55,1.55,0,0,1,.32,1,1.71,1.71,0,0,1-.34,1,3.21,3.21,0,0,1-.88.79,6.84,6.84,0,0,1-1.15.57,11.11,11.11,0,0,1-1.17.37,4.18,4.18,0,0,1,1.4,1,2,2,0,0,1,.57,1.43,2.45,2.45,0,0,1-.4,1.35,4.56,4.56,0,0,1-1.08,1.17,8.92,8.92,0,0,1-1.53,1,12.09,12.09,0,0,1-1.78.73,14.79,14.79,0,0,1-1.8.45A8.53,8.53,0,0,1,95.71,83.56Z"/><path class="cls-3" d="M106.24,82.07a.76.76,0,0,1-.5-.19.74.74,0,0,1-.21-.59,2.12,2.12,0,0,1,.12-.68,4.43,4.43,0,0,1,.24-.55,7.38,7.38,0,0,1,.53-.92c.18-.29.32-.49.41-.62a1.51,1.51,0,0,1-.66-.14,1,1,0,0,1-.53-.4c-.14.2-.33.51-.58,1a10.66,10.66,0,0,1-.94,1.39.29.29,0,0,1-.22.12c-.16,0-.24-.07-.24-.2a.24.24,0,0,1,0-.14c.16-.22.35-.5.58-.85s.47-.71.69-1.09a9.16,9.16,0,0,0,.53-1l.14-.3c0-.1.09-.2.13-.29a.65.65,0,0,1,.17-.2.36.36,0,0,1,.25-.08.4.4,0,0,1,.25.1.28.28,0,0,1,.12.22.82.82,0,0,1-.1.35l-.21.43a.89.89,0,0,0-.11.39c0,.09.08.15.23.18a2.2,2.2,0,0,0,.35.05,1.37,1.37,0,0,0,.7-.17,1,1,0,0,1,.38-.17.22.22,0,0,1,.17.07.2.2,0,0,1,0,.33,7.11,7.11,0,0,0-.51.58c-.2.25-.39.52-.59.81a7.08,7.08,0,0,0-.51.85c0,.1-.1.25-.18.43a1.39,1.39,0,0,0-.12.53q0,.42.3.42a.57.57,0,0,0,.28-.09,1.66,1.66,0,0,0,.32-.22,8.25,8.25,0,0,0,.66-.67c.2-.23.39-.48.59-.76s.42-.61.68-1a.23.23,0,0,1,.22-.11.18.18,0,0,1,.2.19.61.61,0,0,1-.09.26,9.06,9.06,0,0,1-.57.86c-.23.31-.47.6-.72.88a5.29,5.29,0,0,1-.64.63A1.57,1.57,0,0,1,106.24,82.07Z"/><path class="cls-3" d="M109.94,82a1.23,1.23,0,0,1-1.12-.47,1.9,1.9,0,0,1-.32-1.11,3.23,3.23,0,0,1,.23-1.11,6.11,6.11,0,0,1,.65-1.27,4.09,4.09,0,0,1,1-1,1.86,1.86,0,0,1,1.17-.41.89.89,0,0,1,.64.22.75.75,0,0,1,.24.57,2.21,2.21,0,0,1-.42,1.26,3.36,3.36,0,0,1-1.09,1,2.77,2.77,0,0,1-1.43.39h-.18l-.19,0a2.17,2.17,0,0,0,0,.47,1.46,1.46,0,0,0,.19.74.78.78,0,0,0,.75.34,1.83,1.83,0,0,0,.9-.23,3.26,3.26,0,0,0,.74-.53c.19-.19.36-.37.49-.53a4.91,4.91,0,0,0,.42-.53c.15-.2.33-.47.55-.8a.2.2,0,0,1,.18-.11c.15,0,.22.08.22.23a.28.28,0,0,1,0,.13,11.53,11.53,0,0,1-.93,1.35,4.76,4.76,0,0,1-1.15,1.06A2.49,2.49,0,0,1,109.94,82Zm-.39-2.45a2.08,2.08,0,0,0,1.11-.32,2.75,2.75,0,0,0,.86-.8,1.72,1.72,0,0,0,.33-1,.49.49,0,0,0-.08-.28.37.37,0,0,0-.29-.11,1.32,1.32,0,0,0-.78.27A3.14,3.14,0,0,0,110,78a5.16,5.16,0,0,0-.51.81,4.7,4.7,0,0,0-.31.69l.17,0Z"/><path class="cls-3" d="M113.3,81.91a.83.83,0,0,1-.71-.27,1.09,1.09,0,0,1-.19-.66,2.74,2.74,0,0,1,.12-.78,6.54,6.54,0,0,1,.27-.75c.1-.24.18-.41.24-.52a11,11,0,0,1,.63-.94,5.72,5.72,0,0,1,.76-.79,3.23,3.23,0,0,1,.83-.55,2,2,0,0,1,.86-.19,1.28,1.28,0,0,1,1.06.39,1.41,1.41,0,0,1,.31.85,1.39,1.39,0,0,1,0,.33,1.86,1.86,0,0,1-.15.4c0,.11-.12.17-.21.17a.27.27,0,0,1-.2-.11.23.23,0,0,1-.06-.22,1,1,0,0,1,.09-.21,1.11,1.11,0,0,0,.07-.22s0-.1,0-.14,0-.08,0-.13a.63.63,0,0,0-.27-.58,1.14,1.14,0,0,0-.59-.16,1.65,1.65,0,0,0-.74.2,3.26,3.26,0,0,0-.66.47,9.5,9.5,0,0,0-.68.79,7.13,7.13,0,0,0-.59.92c0,.05-.08.17-.16.37a7.05,7.05,0,0,0-.25.66,2.17,2.17,0,0,0-.12.68.64.64,0,0,0,.1.37.4.4,0,0,0,.35.15,1.16,1.16,0,0,0,.62-.24,5.51,5.51,0,0,0,.71-.62c.24-.24.46-.48.66-.71s.34-.4.44-.52a2.61,2.61,0,0,0,.17-.28l.18-.27a.24.24,0,0,1,.19-.06.54.54,0,0,1,.26.07c.08,0,.12.11.1.19s-.12.24-.23.48a7.24,7.24,0,0,0-.3.79,2.62,2.62,0,0,0-.14.76c0,.26.08.42.25.46a.46.46,0,0,0,.36-.12A3.06,3.06,0,0,0,117,81l.24-.3a10.77,10.77,0,0,0,.61-.89c.2-.3.39-.59.59-.86a.27.27,0,0,1,.21-.13c.15,0,.22.08.22.24a1.33,1.33,0,0,1-.2.39c-.13.22-.3.46-.49.73l-.54.73a6.36,6.36,0,0,1-.55.63,1.09,1.09,0,0,1-.8.31.73.73,0,0,1-.61-.2.67.67,0,0,1-.16-.45,2.53,2.53,0,0,1,0-.46c0-.16.07-.3.1-.41l-.07,0a3.92,3.92,0,0,1-.42.44c-.18.18-.39.35-.62.54a4.91,4.91,0,0,1-.67.45A1.25,1.25,0,0,1,113.3,81.91Z"/><path class="cls-3" d="M118.35,81.86c-.17,0-.25-.07-.25-.21a2.1,2.1,0,0,1,.13-.35l.32-.71.34-.75.2-.45s0-.15-.08-.32a1.5,1.5,0,0,1-.07-.45.62.62,0,0,1,.06-.29.22.22,0,0,1,.22-.12.28.28,0,0,1,.18.1l.14.12a3.31,3.31,0,0,0,.22-.47c.06-.15.13-.31.2-.46.36-.82.69-1.62,1-2.39s.68-1.56,1.06-2.37a.53.53,0,0,1,.21-.21.43.43,0,0,1,.24-.08c.16,0,.23.07.23.2a2,2,0,0,1-.16.55c-.11.29-.25.62-.43,1s-.38.8-.59,1.23-.41.85-.6,1.25l-.52,1-.29.59.08,0a9.66,9.66,0,0,1,1-1.19,5.11,5.11,0,0,1,1.34-.91,2.28,2.28,0,0,1,.87-.21,1,1,0,0,1,.56.15.51.51,0,0,1,.21.42,1.29,1.29,0,0,1-.31.72,3.45,3.45,0,0,1-.65.59,7.36,7.36,0,0,1-.8.48,5.86,5.86,0,0,1-.73.31,5.63,5.63,0,0,1-.68.17l-.69.12a.63.63,0,0,0-.32.15.61.61,0,0,0-.17.26,3.44,3.44,0,0,0,.34.84,2.76,2.76,0,0,0,.63.8,1.36,1.36,0,0,0,.91.33,1.39,1.39,0,0,0,.92-.35,4.79,4.79,0,0,0,.79-.91c.26-.37.52-.75.8-1.13a.27.27,0,0,1,.2-.09h0c.1,0,.15.07.15.23a.27.27,0,0,1,0,.14l-.46.68a9,9,0,0,1-.64.85,4,4,0,0,1-.82.72,1.66,1.66,0,0,1-.94.3,2,2,0,0,1-1-.27,2.19,2.19,0,0,1-.76-.69,3.06,3.06,0,0,1-.45-.88c-.15.29-.29.59-.42.89a6.3,6.3,0,0,1-.46.85.32.32,0,0,1-.1.1A.28.28,0,0,1,118.35,81.86Zm2.41-3.38a7.14,7.14,0,0,0,.8-.18,6.8,6.8,0,0,0,.91-.35,2.83,2.83,0,0,0,.74-.51,1.82,1.82,0,0,0,.27-.35.75.75,0,0,0,.1-.35c0-.16-.07-.24-.23-.24a1.89,1.89,0,0,0-.76.3,5.69,5.69,0,0,0-1.83,1.68Z"/><path class="cls-3" d="M124.47,83.62c-.18,0-.26-.08-.26-.25a1,1,0,0,1,0-.29c0-.11,0-.21.07-.3.1-.52.24-1.1.41-1.75s.36-1.29.58-1.92a13.08,13.08,0,0,1,.68-1.67l-.4.07a1.69,1.69,0,0,0-.48.15c-.15.07-.22.16-.22.27s-.06.14-.17.18a.72.72,0,0,1-.3.07.21.21,0,0,1-.23-.23.52.52,0,0,1,.23-.41,2.43,2.43,0,0,1,.56-.3,4.2,4.2,0,0,1,.66-.21l.54-.11.63-1.28a13,13,0,0,1,.85-1.45,7.44,7.44,0,0,1,1.06-1.28,3.31,3.31,0,0,1,1.28-.8,1.5,1.5,0,0,1,.56-.1,1.06,1.06,0,0,1,.82.26.83.83,0,0,1,.22.57,1,1,0,0,1-.15.53c-.11.16-.22.24-.34.24a.26.26,0,0,1-.19-.08.14.14,0,0,1,0-.17.94.94,0,0,0,.17-.51.36.36,0,0,0-.12-.28.56.56,0,0,0-.38-.11.9.9,0,0,0-.37.07,2.87,2.87,0,0,0-1.13.71,7.84,7.84,0,0,0-.95,1.16,14.32,14.32,0,0,0-.75,1.29q-.33.65-.54,1.14a7.37,7.37,0,0,1,.74-.1l.61-.06.79-.07h0a.16.16,0,0,1,.18.18.33.33,0,0,1,0,.17.18.18,0,0,1-.14.1l-1.39.14-1,.14c-.36.91-.7,1.82-1,2.73a20.22,20.22,0,0,0-.74,2.8c0,.09,0,.18,0,.28l-.06.28A.23.23,0,0,1,124.47,83.62Z"/><path class="cls-3" d="M128.67,81.91a.81.81,0,0,1-.71-.27,1.1,1.1,0,0,1-.2-.66,2.77,2.77,0,0,1,.13-.78,6.54,6.54,0,0,1,.27-.75c.1-.24.18-.41.24-.52A11,11,0,0,1,129,78a5.67,5.67,0,0,1,.75-.79,3.28,3.28,0,0,1,.84-.55,2,2,0,0,1,.86-.19,1.25,1.25,0,0,1,1.05.39,1.36,1.36,0,0,1,.32.85,1.39,1.39,0,0,1,0,.33,1.86,1.86,0,0,1-.15.4c-.06.11-.13.17-.21.17a.27.27,0,0,1-.2-.11.23.23,0,0,1-.06-.22,1.8,1.8,0,0,1,.08-.21.7.7,0,0,0,.07-.22l0-.14v-.13a.63.63,0,0,0-.27-.58,1.08,1.08,0,0,0-.58-.16,1.65,1.65,0,0,0-.74.2,3.26,3.26,0,0,0-.66.47,6.8,6.8,0,0,0-.68.79,6.2,6.2,0,0,0-.59.92l-.17.37c-.08.2-.17.42-.25.66a2.47,2.47,0,0,0-.11.68.64.64,0,0,0,.1.37.39.39,0,0,0,.35.15,1.11,1.11,0,0,0,.61-.24,5.56,5.56,0,0,0,.72-.62c.24-.24.46-.48.66-.71s.34-.4.43-.52l.18-.28.18-.27s.09-.06.19-.06a.47.47,0,0,1,.25.07c.09,0,.13.11.1.19l-.22.48a7.24,7.24,0,0,0-.3.79,2.32,2.32,0,0,0-.14.76c0,.26.08.42.24.46a.47.47,0,0,0,.37-.12,3.06,3.06,0,0,0,.36-.36l.24-.3a10.77,10.77,0,0,0,.61-.89c.19-.3.39-.59.58-.86a.31.31,0,0,1,.22-.13c.15,0,.22.08.22.24a1.33,1.33,0,0,1-.2.39c-.14.22-.3.46-.49.73l-.54.73a5.39,5.39,0,0,1-.56.63,1,1,0,0,1-.79.31.73.73,0,0,1-.61-.2.68.68,0,0,1-.17-.45,2.58,2.58,0,0,1,0-.46c0-.16.06-.3.09-.41l-.06,0a3.92,3.92,0,0,1-.42.44c-.19.18-.39.35-.62.54a4.43,4.43,0,0,1-.68.45A1.19,1.19,0,0,1,128.67,81.91Z"/><path class="cls-3" d="M134.18,82a1.84,1.84,0,0,1-1.16-.31.84.84,0,0,1-.41-.65.58.58,0,0,1,.21-.44,1,1,0,0,1,.71-.2,3.23,3.23,0,0,1,.75.1c.21,0,.44.12.69.2a2.1,2.1,0,0,0,.75.11.85.85,0,0,0,.12-.28,1.1,1.1,0,0,0,0-.27,2,2,0,0,0-.16-.85,6.38,6.38,0,0,0-.38-.67A3.41,3.41,0,0,1,135,78l-.51.89a15.6,15.6,0,0,1-1,1.5.23.23,0,0,1-.19.08c-.16,0-.23-.07-.23-.2a.25.25,0,0,1,.07-.14l.31-.48c.19-.31.41-.64.66-1a13.26,13.26,0,0,0,.71-1.25,1.86,1.86,0,0,1,.11-.52,3.13,3.13,0,0,1,.22-.45,1.34,1.34,0,0,1,.36-.41.56.56,0,0,1,.34-.13c.19,0,.29.11.29.34a1.49,1.49,0,0,1-.18.61,1.62,1.62,0,0,1-.28.39l-.3.29a1.77,1.77,0,0,0,.19.7,5.32,5.32,0,0,0,.35.61,3.43,3.43,0,0,1,.33.63,2.09,2.09,0,0,1,.14.83,1.35,1.35,0,0,1-.11.57,1.06,1.06,0,0,0,.71-.26,3.56,3.56,0,0,0,.7-.7,9.92,9.92,0,0,0,.6-.89.24.24,0,0,1,.2-.11.3.3,0,0,1,.15,0,.15.15,0,0,1,.08.16.34.34,0,0,1,0,.15,6.49,6.49,0,0,1-.87,1.25,2.4,2.4,0,0,1-.83.62,3,3,0,0,1-.93.2,3.07,3.07,0,0,1-.83.55A2.46,2.46,0,0,1,134.18,82Zm-.08-.37a1.73,1.73,0,0,0,.63-.11,3.3,3.3,0,0,0,.57-.31,2.75,2.75,0,0,1-.54-.12L134.2,81a3.06,3.06,0,0,0-.69-.1c-.3,0-.45.08-.45.22s.1.24.3.37A1.31,1.31,0,0,0,134.1,81.63Z"/><path class="cls-3" d="M138.75,82.41a.58.58,0,0,1-.47-.2,1,1,0,0,1-.2-.45,2.88,2.88,0,0,1,0-.47,4.93,4.93,0,0,1,.23-1.43,16.65,16.65,0,0,1,.55-1.59l.58-1.41a3.75,3.75,0,0,0-.61.09,2.26,2.26,0,0,1-.6.08c-.14,0-.22-.06-.22-.19a.3.3,0,0,1,.28-.31c.23,0,.46-.09.7-.12l.7-.08.27-.53.38-.77c.15-.27.29-.52.43-.74a3,3,0,0,1,.35-.47.26.26,0,0,1,.2-.1.29.29,0,0,1,.19.06.21.21,0,0,1,.08.16.28.28,0,0,1-.05.12,4.79,4.79,0,0,0-.65,1.06c-.18.38-.35.76-.53,1.12l.59-.06.61,0a.47.47,0,0,1,.17,0,.13.13,0,0,1,.09.14.18.18,0,0,1-.09.15.85.85,0,0,1-.19.1l-.71.1-.72.08c-.13.31-.29.66-.46,1s-.35.78-.51,1.19-.29.81-.4,1.19a4.14,4.14,0,0,0-.15,1c0,.05,0,.14,0,.26a.68.68,0,0,0,.07.32.2.2,0,0,0,.18.14.48.48,0,0,0,.38-.14.28.28,0,0,1,.24-.14.34.34,0,0,1,.2.06.17.17,0,0,1,.08.15c0,.1-.06.18-.18.27a1.42,1.42,0,0,1-.41.2A1.3,1.3,0,0,1,138.75,82.41Z"/><path class="cls-3" d="M61.93,61.15c0-1.65,0-3.12,0-4.4l-.09-4.45v-4c0-1.19,0-2.52,0-4q0-6.63-.25-12.26l-.05-1.79q-.15-2.91-.15-4.74l.15-.2a1.12,1.12,0,0,1,.2-.25.29.29,0,0,1,.24-.19.76.76,0,0,1,.35-.05,6.29,6.29,0,0,1,3.14.79,6.37,6.37,0,0,1,2.3,2.17A11.33,11.33,0,0,1,69.4,34a15.3,15.3,0,0,1-.72,4.55,13.26,13.26,0,0,1-2.15,4.2,5.43,5.43,0,0,1-3.31,2.38l.1,5.49.1,2.67q.19,4.74.19,8.1a2.35,2.35,0,0,1-.22,1.17.94.94,0,0,1-.86.37C62.13,62.88,61.93,62.3,61.93,61.15Zm2.18-18.3a1.6,1.6,0,0,0,.35-.39l.34-.35A10.94,10.94,0,0,0,68,34.05a12.27,12.27,0,0,0-1.08-5.14A4.74,4.74,0,0,0,65.2,27a4.89,4.89,0,0,0-2.67-.72q0,2.82.29,8.45t.3,8.46l.1.1A1.77,1.77,0,0,0,64.11,42.85Z"/><path class="cls-3" d="M82.7,62.85a1.65,1.65,0,0,1-.3-.91q-.45-3.61-.54-4.5l-.25-2a11.52,11.52,0,0,0-2.47-.25l-1.78-.1C76.57,55,76,55,75.63,55c-.2,0-.32.08-.35.24s0,.15,0,.15l-.1,1a34.24,34.24,0,0,1-.54,3.56A9.38,9.38,0,0,1,74,62c-.27.56-.51.84-.74.84a1.09,1.09,0,0,1-.65-.27.77.77,0,0,1-.34-.57l0-.15.05-.15q.88-3.51,1.48-7l.59-3.07L75,47.9l.54-3.27c.16-.89.46-2.32.89-4.3.46-2.24.74-3.77.84-4.6,0-.1.1-.7.2-1.83s.24-2.17.34-2.76a4.71,4.71,0,0,1,.3-1.49h.35a.87.87,0,0,0,.34.05,1.2,1.2,0,0,0,.89-.3,1,1,0,0,1,.62.23.66.66,0,0,1,.27.52A49.19,49.19,0,0,0,81,35.58c.13,1.06.23,1.93.29,2.62q.55,6.39,2.77,23.93v.15a.84.84,0,0,1-.39.75A1.55,1.55,0,0,1,82.7,62.85Zm-1.34-8.72q-.49-7.12-1.88-21l-2.67,13.2a52.55,52.55,0,0,0-1.13,7.17c0,.17.62.32,1.88.45a32.52,32.52,0,0,0,3.31.2Z"/><path class="cls-3" d="M89.42,62.09a7.28,7.28,0,0,0,.1-1.64q0-4.55.15-13.49t.15-12.86l.1-1.78.14-1.48a.31.31,0,0,1,.35-.35,2.27,2.27,0,0,1,.69.15l.15.05c0,.73,0,1.38,0,2V40c0,1.58,0,3.37,0,5.38a7.72,7.72,0,0,0,0,1.09l0,1c0,.66-.05,1.33-.05,2s0,1.45.05,2.07l0,2.13-.15.4,0-.05c0,.09,0,.16,0,.19v.2a1.47,1.47,0,0,0,.15.69l-.15,4.75v.3a5.21,5.21,0,0,0,0,1,.22.22,0,0,0,.25.25l2.57.1q1.14,0,1.56,0l.52,0h.15a.7.7,0,0,1,.49.27.86.86,0,0,1,.25.57c0,.4-.27.61-.79.64S94.17,63,92,63l.1,0a9.36,9.36,0,0,0-.94,0,3.46,3.46,0,0,1-.89.1C89.8,63.22,89.52,62.84,89.42,62.09Z"/><path class="cls-3" d="M110.48,62.85a1.59,1.59,0,0,1-.29-.91c-.3-2.41-.48-3.91-.55-4.5l-.24-2a11.55,11.55,0,0,0-2.48-.25l-1.78-.1c-.79-.09-1.36-.14-1.73-.14-.19,0-.31.08-.34.24s0,.15,0,.15l-.1,1a35.27,35.27,0,0,1-.55,3.56,8.86,8.86,0,0,1-.59,2.08c-.26.56-.51.84-.74.84a1.06,1.06,0,0,1-.64-.27.79.79,0,0,1-.35-.57l0-.15.05-.15c.59-2.34,1.09-4.66,1.48-7l.6-3.07.59-3.75.54-3.27c.17-.89.46-2.32.89-4.3.46-2.24.74-3.77.84-4.6a17.82,17.82,0,0,0,.2-1.83c.13-1.25.25-2.17.35-2.76a5.21,5.21,0,0,1,.29-1.49h.35a.92.92,0,0,0,.35.05,1.21,1.21,0,0,0,.89-.3.93.93,0,0,1,.61.23.64.64,0,0,1,.28.52,49,49,0,0,0,.34,5.43c.13,1.06.23,1.93.3,2.62q.54,6.39,2.77,23.93v.15a.83.83,0,0,1-.4.75A1.57,1.57,0,0,1,110.48,62.85Zm-1.33-8.72q-.5-7.12-1.88-21l-2.67,13.2a51.56,51.56,0,0,0-1.14,7.17c0,.17.63.32,1.88.45a32.69,32.69,0,0,0,3.31.2Z"/><path class="cls-3" d="M120.82,62.93a4.82,4.82,0,0,1-1.61-.84A5.35,5.35,0,0,1,118,60.45a14.09,14.09,0,0,1-1.24-5.68c-.06-1.12-.1-2.11-.1-3V46.16q0-3.21.2-6.22a30.59,30.59,0,0,1,.45-3.76,15.62,15.62,0,0,1,.93-3.07,5.68,5.68,0,0,1,1.54-2.22,5,5,0,0,1,1.33-.69c.43-.17.84-.35,1.24-.55h2.13a.16.16,0,0,0,.14.05l.25.05.2.15c.1.1.15.16.15.2a.69.69,0,0,1,0,.29l-.65.75H122.5a2.2,2.2,0,0,0-1.71.91,6.15,6.15,0,0,0-1.16,2.3,17.3,17.3,0,0,0-.64,2.92,26.14,26.14,0,0,0-.3,2.91c-.07,1.06-.1,1.78-.1,2.18l-.1.25c0,1.84,0,3.51-.1,5l-.1,5a24.89,24.89,0,0,0,.3,4A7.34,7.34,0,0,0,120,60.16a4,4,0,0,0,3.5,1.58,1.77,1.77,0,0,0,1.24-.45c.5,0,.74.19.74.55s-.2.5-.61.81a5,5,0,0,1-1.27.72H122Z"/><path class="cls-3" d="M131.2,62.18v-.64a3.25,3.25,0,0,0,.05-.59l-.2-.2a5.75,5.75,0,0,0,.39-2c0-.75,0-1.84-.14-3.26l-.1-3.26q0-2.48.15-7.42.19-4.39.19-7.46l-.1-3q-.09-1.34-.09-3a1.39,1.39,0,0,1,.34-1.06,1.58,1.58,0,0,1,1.09-.32,1.1,1.1,0,0,1,.79.29,10.52,10.52,0,0,0,1.43.2,10.68,10.68,0,0,1,2.13.45c.63.2.94.44.94.74s-.31.66-.94,1a14.79,14.79,0,0,0-4-.94l-.25.3c0,.29.05,1,.05,2.12,0,1.42,0,2.69-.1,3.81s-.05,2.44-.05,3.85c0,.93.23,1.39.69,1.39l.79-.05a7.58,7.58,0,0,1,.84,0c1.29,0,1.93.3,1.93.89a1.55,1.55,0,0,1-.25.91.82.82,0,0,1-.74.38,1.54,1.54,0,0,1-1.13-.4l-1.59-.25h-.24l-.25.25V45c.07.56.1,1.86.1,3.9,0,1.29,0,2.46-.05,3.51l0,3.51q0,1.94.15,4a2.08,2.08,0,0,0,.49,1.51,2.69,2.69,0,0,0,1.63.37l.89,0c.3,0,.63-.05,1-.05,1,0,1.44.21,1.44.64,0,.6-.73.89-2.18.89h-4.05C131.59,63.22,131.26,62.88,131.2,62.18Z"/><path class="cls-4" d="M48.13,102.67c5.92-6.22,23.51-7.27,45.11-6.9,27.43.46,50.18-.58,55.7,7.43,8.71,12.63-1.31,49.76-18.5,62C112.3,178,74.81,178.48,59.51,161.22,47.38,147.53,37.6,113.74,48.13,102.67Z"/><path class="cls-5" d="M58.7,104.52a344,344,0,0,1,42.91-1.09c18.62.68,36.44,1.34,36.94,5.16.57,4.34-15.34,13-42.91,12.22S48.68,105.61,58.7,104.52Z"/><path class="cls-6" d="M99.57,98.25c1.53.86,1.85,4.48.86,5.45-3.58,3.93-.56,4.31-.62,5.77"/><path class="cls-6" d="M105.24,98.25c1.53.86,1.86,4.48.86,5.45-3.58,3.93-.55,4.31-.61,5.77"/><path class="cls-6" d="M110,98.25c1.53.86,1.85,4.48.86,5.45-3.58,3.93-.55,4.31-.61,5.77"/></g></g></svg>