<?xml version="1.0" encoding="UTF-8"?><svg xmlns="http://www.w3.org/2000/svg" viewBox="0 0 146.67 151.11"><defs><style>.d{fill:none;stroke:#009245;stroke-miterlimit:10;stroke-width:3px;}.e{fill:#009245;}.f{fill:red;}.g{fill:#999;}</style></defs><g id="a"/><g id="b"><g id="c"><g><g><path class="g" d="M84.49,98.55c-1.8,1.66-3.32,4.11-2.17,5.92,.29,.43-.36,1.01-1.08,.22-.58-.65-.65-4.11,.5-6.35l.22-.36c-1.8-1.95-5.7-4.04-9.02-3.25-7.65,1.8-3.46,14.29-.29,18.33,1.37,1.8,1.08,2.24-.43,2.45-4.4,.5-9.02,2.31-11.47,3.61-11.18,5.56-7.58,17.82,5.99,16.45,8.66-.87,17.1-5.12,20.06-14.94,.87-2.74,.65-6.06,.14-7.07-2.81,1.66-5.99,3.25-8.59,4.83-2.53,1.51-9.38,8.01-6.13,10.54,.79,.72,1.01,1.44-.36,1.01-2.02-.65-2.53-5.41-1.01-8.44,1.08-1.95,3.1-3.32,5.84-4.91,7.5-4.47,18.69-7.94,16.96-12.05-.22-.58,.36-.58,.72,0,1.37,3.25-1.95,5.99-6.49,8.59,1.23,1.3,3.1,4.55,2.67,7.43-2.09,11.18-15.15,15.73-24.53,16.45-18.62,1.44-19.99-16.24-7-21.14,4.91-1.8,9.67-1.3,12.27-1.66-4.47-3.75-10.46-12.2-6.49-17.82,1.95-2.74,9.16-4.11,12.27-3.25,1.73,.43,4.47,1.95,5.77,3.61,.87-1.01,1.8-1.95,2.81-2.02,1.16-.29,2.6,.58,1.44,1.66-.43,.5-1.59,1.15-2.6,2.17Z"/><g><path class="f" d="M49.33,86.5c0,2.49-.63,4.39-1.88,5.72-1.25,1.33-3.06,1.99-5.43,1.99h-1.09v8.48h-4.35v-23.4h5.94c4.54,0,6.82,2.4,6.82,7.2Zm-8.4,3.94h.83c1.07,0,1.86-.29,2.38-.88,.52-.59,.78-1.55,.78-2.88,0-1.23-.24-2.14-.72-2.73-.48-.59-1.22-.89-2.22-.89h-1.06v7.38Z"/><path class="f" d="M62.7,102.7l-1.34-5.91h-6.1l-1.34,5.91h-4.35l5.79-23.49h5.91l5.81,23.49h-4.37Zm-2.16-9.76l-1.25-5.44c-.07-.33-.24-1.16-.5-2.49-.26-1.33-.42-2.22-.47-2.66-.14,.92-.31,1.93-.53,3.03s-.77,3.62-1.66,7.56h4.42Z"/><path class="f" d="M79.79,96.25c0,2.19-.55,3.86-1.66,5.03-1.1,1.16-2.7,1.74-4.78,1.74s-3.77-.4-5.2-1.2v-4.3c1.75,1.14,3.35,1.71,4.82,1.71,.83,0,1.46-.23,1.88-.69,.42-.46,.63-1.08,.63-1.87s-.25-1.49-.75-2.14c-.5-.65-1.33-1.36-2.48-2.15-1-.69-1.76-1.36-2.28-1.99-.52-.63-.92-1.35-1.2-2.14-.28-.79-.42-1.71-.42-2.75,0-2.01,.56-3.6,1.67-4.77,1.11-1.17,2.61-1.76,4.49-1.76s3.51,.5,5.17,1.5l-1.44,3.49c-.51-.3-1.05-.57-1.61-.8-.56-.23-1.16-.35-1.8-.35-.7,0-1.25,.23-1.62,.7-.38,.46-.57,1.1-.57,1.9s.23,1.48,.68,2.06c.45,.59,1.25,1.25,2.38,2,1.53,1.02,2.59,2.07,3.19,3.14,.6,1.07,.9,2.28,.9,3.65Z"/><path class="f" d="M89.85,102.7h-4.34v-19.57h-4.48v-3.83h13.3v3.83h-4.48v19.57Z"/><path class="f" d="M106.78,102.7l-1.34-5.91h-6.1l-1.34,5.91h-4.35l5.79-23.49h5.91l5.81,23.49h-4.37Zm-2.16-9.76l-1.25-5.44c-.08-.33-.24-1.16-.5-2.49s-.42-2.22-.47-2.66c-.14,.92-.31,1.93-.53,3.03s-.77,3.62-1.66,7.56h4.42Z"/></g><g><path class="f" d="M36.64,142.55l-2.71-12.16h-.11c.12,.94,.19,1.8,.19,2.58v9.58h-2.46v-14.28h4.08l2.44,11.22h.08l2.42-11.22h4.14v14.28h-2.52v-9.68c0-.8,.05-1.62,.14-2.46h-.08l-2.71,12.14h-2.9Z"/><path class="f" d="M53.99,142.55l-.82-3.6h-3.72l-.82,3.6h-2.66l3.54-14.34h3.6l3.54,14.34h-2.67Zm-1.32-5.96l-.76-3.32c-.05-.2-.15-.71-.31-1.52s-.26-1.35-.29-1.63c-.08,.56-.19,1.18-.32,1.85s-.47,2.21-1.02,4.61h2.7Z"/><path class="f" d="M63.01,142.55l-2.71-12.16h-.11c.12,.94,.19,1.8,.19,2.58v9.58h-2.46v-14.28h4.08l2.44,11.22h.08l2.42-11.22h4.14v14.28h-2.52v-9.68c0-.8,.05-1.62,.14-2.46h-.08l-2.71,12.14h-2.9Z"/><path class="f" d="M80.35,142.55l-.82-3.6h-3.72l-.82,3.6h-2.66l3.54-14.34h3.6l3.54,14.34h-2.67Zm-1.32-5.96l-.76-3.32c-.05-.2-.15-.71-.31-1.52s-.26-1.35-.29-1.63c-.08,.56-.19,1.18-.32,1.85s-.47,2.21-1.02,4.61h2.7Z"/><path class="f" d="M89.38,142.55l-2.71-12.16h-.11c.12,.94,.19,1.8,.19,2.58v9.58h-2.46v-14.28h4.08l2.44,11.22h.08l2.42-11.22h4.14v14.28h-2.52v-9.68c0-.8,.05-1.62,.14-2.46h-.08l-2.71,12.14h-2.9Z"/><path class="f" d="M100.44,142.55v-14.28h2.5v14.28h-2.5Z"/><path class="f" d="M112.72,142.55l-.82-3.6h-3.72l-.82,3.6h-2.66l3.54-14.34h3.6l3.54,14.34h-2.67Zm-1.32-5.96l-.76-3.32c-.05-.2-.15-.71-.31-1.52s-.26-1.35-.29-1.63c-.08,.56-.19,1.18-.32,1.85s-.47,2.21-1.02,4.61h2.7Z"/></g></g><rect class="d" x="1.5" y="69.61" width="143.67" height="80"/><g><rect class="g" x="106.14" y="-1.17" width=".66" height="30.76" transform="translate(14.72 -41.64) rotate(23.73)"/><g><rect class="f" x="121.16" y="5.64" width="6.02" height="9.76" transform="translate(14.73 -49.07) rotate(23.73)"/><rect class="e" x="110.14" y=".8" width="6.02" height="9.76" transform="translate(11.85 -45.05) rotate(23.73)"/></g></g><path class="f" d="M133.52,42.02c-.11-.53-.6-1.76-2.66-1.76h-4.6c-1.04,0-1.88,.84-1.88,1.88s.84,1.88,1.88,1.88h.06c-4.16,2.29-11.06,5.62-17.36,8.44h-7.85c-1.04,0-1.88,.84-1.88,1.88s.84,1.88,1.88,1.88h4.31l-2.11,2.76H41.79l-1.92-2.76h49.62c1.04,0,1.88-.84,1.88-1.88s-.84-1.88-1.88-1.88H36.29c-6.26-2.82-13.12-6.15-17.25-8.44H116.92c.83,0,1.54-.54,1.79-1.29,.14-.29,.21-.62,.18-.97-.03-.41-.86-10.14-7.42-14.73-2.09-1.46-4.5-2.23-7.19-2.3-.49-1.41-1.86-4.68-4.75-7.7-3.46-3.61-9.83-7.53-20.49-5.72-5.18,.87-8.86,3.43-11.49,6.73-1-.83-2.92-2.18-5.69-3.03-3.74-1.15-9.86-1.63-17.79,2.66-16.31,8.83-18.48,21.73-18.57,22.28-.02,.1-.02,.21-.02,.31H14.55c-2.06,0-2.55,1.23-2.66,1.76-.36,1.66,1.07,2.82,4.19,4.65,1.86,1.09,4.47,2.46,7.75,4.08,5.56,2.74,11.23,5.29,11.29,5.32,.03,.01,.06,.02,.08,.03l4.06,5.85c.35,.51,.93,.81,1.54,.81h63.45c.59,0,1.14-.27,1.5-.74l4.62-6.05c1.11-.5,6.17-2.78,11.13-5.22,3.3-1.62,5.93-2.99,7.8-4.08,3.14-1.82,4.57-2.99,4.22-4.65h0Zm-92.92-8.56c1.25,.71,2.96,1.8,3.94,2.85,.42,.46,.74,1.07,.93,1.83,.21,.85,.98,1.42,1.82,1.42,.15,0,.3-.02,.46-.06,1.01-.25,1.62-1.28,1.37-2.29-.35-1.38-.96-2.55-1.82-3.48-1.09-1.17-2.66-2.26-3.96-3.05,.71-.61,1.48-1.2,2.3-1.76,1.57,.81,4.14,2.35,5.33,3.87,.49,.64,1.15,1.95,1.47,4.63,.12,.96,.93,1.66,1.87,1.66,.08,0,.15,0,.23-.01,1.03-.12,1.77-1.06,1.64-2.09-.34-2.83-1.09-5.01-2.24-6.49-1.17-1.5-2.99-2.81-4.56-3.78,.98-.47,1.9-.83,2.77-1.1,3.47,5.42,7.32,6.58,9.63,6.71-.54,3.28-.66,6.15-.67,7.92h-24.23c.76-2.46,2-4.73,3.73-6.8h0Zm21.97-4.87c-.83,.07-3.48-.04-6.29-3.64,3.98-.03,6.18,1.85,6.34,2,.11,.1,.22,.18,.34,.25-.14,.46-.27,.93-.39,1.39h0Zm28.85,.76c-1.46-1.37-4.62-4-8.37-5.07-2.18-.62-5.01-.44-7.44,.11,.84-.77,1.84-1.41,3.03-1.87,8.48-3.21,13.32,2.66,14.99,5.25-.75,.48-1.49,1.01-2.22,1.57h0Zm-18.84,0c.07-.05,.14-.1,.21-.17,1.01-.68,6.38-2.09,9.23-1.27,2.77,.79,5.26,2.77,6.55,3.94-.56,.55-1.11,1.11-1.64,1.68-1-.78-2.77-1.83-5.77-2.69-3.32-.95-6.92,.08-9.23,1.04,.16-.85,.37-1.7,.64-2.53h0Zm-1.03,10.35c-.06-.99-.09-2.17-.06-3.43,1.4-.83,5.52-2.69,8.63-1.81,2.41,.69,3.73,1.48,4.37,1.95-1,1.29-1.89,2.6-2.64,3.85h-10.27c0-.18-.02-.37-.03-.56h0Zm43.32,.56h-3.42c-.44-3.44-2.48-8.65-7.95-8.65-3.11,0-6.48,1.57-10.02,4.68-.78,.69-.86,1.88-.17,2.66,.69,.78,1.88,.86,2.66,.17,2.79-2.45,5.4-3.75,7.53-3.75,2.89,0,3.84,3.15,4.14,4.89h-21.29c3.4-4.88,8.57-9.82,13.19-11.12,3.96-1.11,7.25-.78,9.77,.97,3.64,2.54,5.05,7.48,5.57,10.15h0ZM79.66,15.03c14.1-2.39,19.26,6.53,20.73,10.05-.61,.12-1.24,.27-1.87,.44-.52,.15-1.05,.33-1.57,.54-.8-1.16-2.35-3.12-4.62-4.8-3.24-2.39-7.43-5.48-14.4-2.48-9.91,4.25-9.4,15.81-9.82,21.49h-3.23c.02-5.52,1.17-22.93,14.79-25.24h0Zm-33.8,5.96c11.8-6.39,18.49-.82,19.58,.21-.42,.75-.8,1.53-1.14,2.31-2.28-1.56-8.9-4.83-18.69,.96-.1,.06-.2,.12-.31,.18-6.59,4-10.74,9.25-12.35,15.61h-3.69c.38-1.76,3.14-12,16.59-19.27h0Z"/></g></g></g></svg>