<?xml version="1.0" encoding="UTF-8"?><svg xmlns="http://www.w3.org/2000/svg" viewBox="0 0 146.84 120.51"><defs><style>.d{fill:#66a2b2;}.e,.f{fill:#f1b5bc;}.g{fill:#fff;}.h{fill:#ee9da7;}.i{fill:#95c2d1;}.j{fill:#4c2c18;}.f{font-family:MarckScript-Regular, Marck Script;font-size:39.62px;opacity:.3;}</style></defs><g id="a"/><g id="b"><g id="c"><g><path class="g" d="M51.17,103.94l-3.03,7.75,6.49,.65s2.42-7.66,2.9-7.62c.48,.04-6.36-.78-6.36-.78Z"/><g><circle class="h" cx="72.84" cy="69.79" r="37.83"/><g><polygon class="g" points="139.02 106.26 2.57 108.99 10.47 73.88 144.47 67.07 139.02 106.26"/><path class="h" d="M0,111.08l8.82-39.16,138.02-7.02-6.03,43.37-1.74,.03L0,111.08Zm12.13-35.24l-6.99,31.05,132.1-2.64,4.87-35.02L12.13,75.85Z"/></g><text class="f" transform="translate(9.38 103.5)"><tspan x="0" y="0">Cupcake</tspan></text><g><path class="e" d="M30.01,77.1c.98,0,1.74,.27,2.28,.81,.54,.54,.81,1.27,.81,2.2,0,2.06-1.23,3.97-3.68,5.73-2.46,1.76-5.26,2.63-8.4,2.63-1.37,0-2.83-.2-4.36-.59-1,1.64-1.5,3.41-1.5,5.33s.53,3.46,1.58,4.64c1.06,1.18,2.6,1.76,4.64,1.76,3.64,0,6.04-2.13,7.17-6.38h1.86c-.29,2.46-1.45,4.62-3.47,6.5-2.02,1.88-4.68,2.81-7.98,2.81-1.74,0-3.37-.64-4.87-1.92s-2.26-3.14-2.26-5.57,.92-5.08,2.77-7.96c-1.35-.79-2.42-1.77-3.21-2.93l1.07-1.19c.18,.18,.44,.46,.75,.83,.61,.71,1.43,1.33,2.46,1.86,1.56-2.17,3.82-4.13,6.79-5.9,2.97-1.77,5.49-2.65,7.55-2.65Zm-9.11,9.79c2.3,0,4.32-.54,6.06-1.62,1.74-1.08,2.62-2.35,2.62-3.8,0-.5-.18-.9-.53-1.21-.36-.3-.81-.46-1.37-.46-1.61,0-3.41,.64-5.39,1.92-1.98,1.28-3.55,2.82-4.71,4.62,.95,.37,2.06,.55,3.33,.55Z"/><path class="e" d="M50.57,97.78l.83,.67c-.45,1.11-1.16,2.05-2.12,2.81-.96,.77-1.84,1.15-2.62,1.15s-1.39-.27-1.84-.81-.67-1.25-.67-2.12,.14-1.99,.44-3.37c-1.24,1.96-2.58,3.49-4,4.6s-2.63,1.66-3.61,1.66c-1.48,0-2.22-1.06-2.22-3.17,0-1.8,.61-4.09,1.82-6.89s2.1-4.42,2.66-4.87l1.9,.83c-1.08,1.74-1.9,3.46-2.46,5.15s-.83,2.82-.83,3.39,.18,1.02,.53,1.37,.77,.51,1.25,.51c1.06,0,2.37-.97,3.94-2.91s3.18-4.84,4.81-8.7l2.02,.91c-.05,.21-.65,1.74-1.8,4.6-1.15,2.85-1.72,4.56-1.72,5.13s.12,1,.38,1.29c.25,.29,.5,.44,.75,.44s.44-.01,.57-.04c.13-.03,.26-.08,.4-.16,.13-.08,.24-.14,.34-.2,.09-.05,.21-.14,.34-.28l.32-.28c.05-.08,.15-.2,.3-.38s.24-.28,.3-.34Z"/><path class="e" d="M63.25,88.69c1.48-1.1,2.77-1.64,3.88-1.64s1.97,.34,2.58,1.01c.61,.67,.91,1.53,.91,2.56,0,2.85-1.02,5.49-3.07,7.91-2.05,2.42-4.35,3.62-6.91,3.62-1.14,0-2.03-.2-2.69-.59l.95-1.7c1.37,.18,2.23,.28,2.58,.28,1.43,0,2.76-.83,4-2.5,1.24-1.66,1.86-3.37,1.86-5.11,0-.66-.19-1.21-.58-1.64s-.88-.65-1.49-.65c-1.45,0-3.1,1.28-4.93,3.84-1.84,2.56-3.55,5.74-5.15,9.53-1.6,3.79-2.99,7.83-4.18,12.1l-2.38-.83c.05-.16,.55-1.53,1.49-4.1,.94-2.58,1.86-5.13,2.75-7.67,2.48-6.97,3.72-10.79,3.72-11.45,0-1.69-.34-3.22-1.03-4.6l1.98-.99c.82,1.14,1.23,2.33,1.23,3.59s-.25,2.99-.75,5.21c2.01-3.01,3.75-5.07,5.23-6.16Z"/><path class="e" d="M82.47,96.51l.95,.79c-.63,1.45-1.65,2.62-3.05,3.49-1.4,.87-2.75,1.31-4.06,1.31s-2.39-.41-3.25-1.23-1.29-1.94-1.29-3.37,.62-2.97,1.86-4.64,2.85-3.04,4.81-4.12c1.97-1.08,3.9-1.62,5.8-1.62,.26,0,.66,.03,1.19,.08l-.12,1.54c-2.91,.13-5.32,1.02-7.23,2.66-1.92,1.64-2.87,3.38-2.87,5.23,0,.77,.24,1.39,.71,1.86,.48,.48,1.1,.71,1.86,.71,1.21,0,2.77-.9,4.68-2.69Z"/><path class="e" d="M103.19,98.14l.91,.67c-.37,.79-1.05,1.54-2.04,2.26-.99,.71-1.9,1.07-2.71,1.07-1.56,0-2.34-.82-2.34-2.46,0-.77,.2-1.68,.59-2.73l-1.47,1.51c-1.43,1.45-2.66,2.43-3.71,2.93-1.04,.5-2.07,.75-3.07,.75s-1.76-.28-2.28-.85c-.52-.57-.77-1.35-.77-2.36,0-1.85,.71-3.68,2.14-5.49,1.43-1.81,3.25-3.28,5.47-4.42,2.22-1.13,4.44-1.72,6.66-1.74l.08,1.31-1.66,.36c-2.4,.53-4.52,1.58-6.36,3.17s-2.75,3.16-2.75,4.73,.63,2.36,1.9,2.36c1.19,0,2.65-.83,4.4-2.5,1.74-1.66,3.2-3.62,4.36-5.86l1.66,.99c-1.64,3.3-2.46,5.4-2.46,6.3,0,.37,.12,.68,.38,.93s.5,.38,.75,.38,.42-.01,.5-.04c.08-.03,.16-.06,.24-.1s.18-.1,.3-.18c.12-.08,.22-.16,.32-.24,.09-.08,.24-.2,.46-.36,.21-.16,.38-.29,.52-.4Z"/><path class="e" d="M120.78,98.1l.99,.87c-1.53,2.51-3.16,3.76-4.87,3.76-1.06,0-2.14-.78-3.25-2.34s-1.66-2.84-1.66-3.84c0-.63,.95-1.27,2.85-1.9,.71-.24,1.37-.6,1.96-1.09,.59-.49,.89-1,.89-1.53s-.15-.93-.44-1.21-.66-.42-1.11-.42c-2.91,.26-5.94,4.17-9.11,11.73l-2.42-.83c0-1.14,1.54-5.73,4.62-13.79s5.26-12.93,6.56-14.62l1.94,.71c-3.57,6.21-6.55,13.42-8.95,21.63,2.06-3.09,3.83-5.15,5.31-6.18s2.89-1.54,4.24-1.54c.82,0,1.47,.25,1.96,.75,.49,.5,.73,1.14,.73,1.92s-.19,1.49-.58,2.12-.93,1.19-1.64,1.66c-1.03,.69-2.3,1.36-3.8,2.02,.24,1.24,.65,2.18,1.23,2.81s1.24,.95,1.98,.95c.4,0,1.25-.55,2.58-1.66Z"/><path class="e" d="M133.81,97.46l.91,.71c-.82,1.14-1.94,2.08-3.37,2.83-1.43,.75-2.81,1.13-4.16,1.13s-2.43-.4-3.25-1.19c-.82-.79-1.23-1.84-1.23-3.13,0-2.43,1.29-4.82,3.86-7.17,2.58-2.35,5.18-3.53,7.83-3.53,1.74,0,2.62,.69,2.62,2.06s-.92,2.87-2.75,4.32c-1.84,1.45-4.42,2.77-7.75,3.96,.24,.61,.61,1.08,1.11,1.43,.5,.34,1.02,.51,1.54,.51,1.14,0,2.68-.65,4.64-1.94Zm-7.49-1.19c2.14-.74,3.98-1.66,5.51-2.77,1.53-1.11,2.3-2.13,2.3-3.05,0-.34-.13-.65-.4-.91-.26-.26-.57-.4-.91-.4-1.24,0-2.58,.77-4.02,2.32-1.44,1.54-2.27,3.15-2.48,4.81Z"/></g></g><g><path class="j" d="M55.52,120.07l.98-.02-.16-7.86-.98,.02v-.45l3.48-.07c1.19-.02,2.08,.21,2.69,.71,.55,.45,.84,1.1,.85,1.95,.02,.94-.25,1.69-.81,2.25-.6,.6-1.47,.91-2.59,.93l-.99,.02,.05,2.47,1.45-.03v.45l-3.96,.08v-.45Zm3.31-2.94c.71-.01,1.24-.34,1.58-.97,.26-.5,.38-1.07,.37-1.73-.02-1.11-.41-1.82-1.15-2.15-.25-.11-.55-.16-.89-.15l-.87,.02,.1,5,.86-.02Z"/><path class="j" d="M63.01,119.91l.89-.02-.18-8.74-.76,.02v-.45l2.27-.05,.19,9.19,.96-.02v.45l-3.36,.07v-.45Z"/><path class="j" d="M72.3,119.24c0,.32,.09,.47,.24,.47,.16,0,.3-.1,.45-.29l.3,.24c-.17,.27-.43,.46-.78,.56-.11,.03-.27,.05-.48,.06-.21,0-.42-.06-.63-.18-.21-.13-.37-.31-.46-.55-.29,.34-.67,.58-1.14,.72-.17,.05-.38,.08-.63,.08-.25,0-.51-.03-.77-.1-.26-.07-.49-.18-.69-.33-.42-.31-.63-.73-.64-1.25,0-.5,.19-.9,.59-1.2,.38-.29,.89-.45,1.52-.46,.63-.01,1.16,.13,1.59,.44l-.03-1.36c0-.46-.07-.77-.19-.94-.12-.16-.25-.27-.41-.33-.16-.06-.33-.09-.52-.09-.19,0-.34,.02-.46,.04-.11,.02-.22,.05-.31,.08-.19,.06-.31,.13-.38,.2,.18,.05,.31,.18,.42,.39,.03,.08,.05,.17,.05,.27,0,.1-.02,.2-.06,.3s-.1,.17-.17,.24c-.15,.14-.29,.21-.45,.22-.15,0-.28-.01-.37-.04-.09-.03-.18-.08-.25-.15-.16-.14-.23-.31-.24-.51,0-.2,.03-.36,.1-.49,.07-.13,.16-.25,.28-.35,.12-.1,.25-.2,.41-.27,.16-.08,.32-.15,.49-.2,.33-.11,.66-.16,.96-.17,.86-.02,1.5,.14,1.92,.48,.42,.34,.64,.82,.65,1.44l.06,3.05Zm-1.49-1.3c-.33-.31-.69-.46-1.07-.45-.39,0-.67,.11-.86,.29-.19,.19-.28,.48-.27,.88,.01,.59,.23,.95,.65,1.06,.12,.04,.24,.05,.36,.05,.35,0,.68-.15,.99-.42,.09-.08,.17-.17,.24-.26l-.02-1.15Z"/><path class="j" d="M73.76,119.68l.93-.02-.1-4.96-.85,.02v-.45l2.35-.05,.11,5.41,.93-.02v.45l-3.36,.07v-.45Zm1.54-6.61c-.21,0-.4-.07-.57-.22-.16-.14-.23-.3-.24-.47s.01-.3,.05-.4c.04-.1,.09-.18,.16-.26,.15-.16,.33-.24,.56-.24,.35,0,.6,.15,.74,.47,.04,.09,.07,.2,.07,.31,0,.11-.02,.22-.05,.31-.04,.09-.09,.18-.16,.25-.15,.16-.34,.24-.56,.25Z"/><path class="j" d="M78.85,119.61c-.12,.09-.19,.23-.2,.42h-.55v-1.71h.51c0,.28,.18,.57,.53,.85,.4,.32,.9,.47,1.48,.46,.55-.01,.89-.18,1.04-.51,.04-.1,.06-.2,.06-.3,0-.19-.14-.36-.4-.52-.26-.15-.7-.33-1.3-.53-.6-.2-1.08-.47-1.43-.8-.35-.33-.53-.73-.54-1.19-.01-.51,.2-.93,.64-1.26,.42-.31,.91-.47,1.48-.48,.57-.01,1.03,.12,1.39,.39,.11-.04,.19-.12,.25-.26,.02-.05,.03-.1,.03-.17h.44l.03,1.59h-.5c-.07-.35-.25-.62-.54-.82s-.64-.29-1.07-.28c-.32,0-.59,.09-.8,.25-.19,.14-.29,.32-.28,.54,0,.21,.12,.39,.34,.55,.25,.17,.59,.33,1.03,.47,.43,.14,.77,.27,1.02,.38,.24,.11,.46,.24,.64,.39,.37,.31,.56,.71,.57,1.2,.02,.73-.37,1.26-1.17,1.6-.31,.13-.63,.2-.95,.21-.68,.01-1.25-.15-1.73-.5Z"/><path class="j" d="M83.53,119.48l.93-.02-.1-4.96-.85,.02v-.45l2.35-.05,.11,5.41,.93-.02v.45l-3.36,.07v-.45Zm1.54-6.61c-.21,0-.4-.07-.57-.22-.16-.14-.24-.3-.24-.47s.01-.3,.05-.4c.04-.1,.09-.18,.16-.26,.15-.16,.33-.24,.56-.24,.35,0,.6,.15,.74,.47,.04,.09,.07,.2,.07,.31,0,.11-.02,.22-.05,.31-.04,.09-.09,.18-.16,.25-.15,.16-.34,.24-.56,.25Z"/><path class="j" d="M91.22,114.4c-.55,.18-1,.47-1.36,.88l.08,4.08,1.25-.03v.44l-3.6,.08v-.44l.84-.02-.1-4.97-.86,.02v-.45l2.35-.05,.02,.79c.4-.4,.86-.68,1.37-.84,.17-.05,.38-.08,.61-.09,.23,0,.43,.07,.61,.22,.18,.15,.27,.36,.28,.62,0,.21-.07,.4-.21,.55-.15,.15-.33,.23-.54,.24-.21,0-.4-.07-.55-.21-.15-.14-.22-.32-.23-.54,0-.09,.01-.18,.04-.27Z"/><path class="j" d="M94.48,119.28c-.12,.09-.19,.23-.2,.42h-.55v-1.71h.51c0,.28,.18,.57,.53,.85,.4,.32,.9,.47,1.48,.46,.55-.01,.89-.18,1.04-.51,.04-.1,.06-.2,.06-.3,0-.19-.14-.36-.4-.52-.26-.15-.7-.33-1.3-.53-.6-.2-1.08-.47-1.43-.8-.35-.33-.53-.73-.54-1.19-.01-.51,.2-.93,.64-1.25,.42-.31,.91-.47,1.48-.48,.57-.01,1.03,.12,1.39,.4,.11-.04,.19-.12,.25-.26,.02-.05,.03-.1,.03-.17h.43l.03,1.59h-.5c-.07-.35-.25-.62-.54-.82-.28-.19-.64-.29-1.07-.28-.32,0-.59,.09-.8,.25-.19,.14-.28,.32-.28,.54,0,.21,.12,.39,.34,.55,.25,.17,.59,.33,1.03,.47,.43,.14,.77,.27,1.02,.38,.24,.11,.46,.24,.63,.39,.37,.31,.56,.71,.58,1.2,.01,.73-.38,1.26-1.17,1.6-.31,.13-.63,.2-.95,.21-.68,.01-1.25-.15-1.73-.5Z"/><path class="j" d="M104.24,119.08c-.12,.09-.19,.23-.2,.42h-.55v-1.71h.51c0,.28,.18,.57,.53,.85,.4,.32,.9,.47,1.48,.46,.55-.01,.89-.18,1.04-.51,.04-.1,.06-.2,.06-.3,0-.19-.14-.36-.4-.52-.27-.15-.7-.33-1.3-.53s-1.08-.47-1.43-.8c-.35-.33-.53-.73-.54-1.19-.01-.51,.2-.93,.64-1.25,.42-.31,.91-.47,1.48-.48s1.03,.12,1.39,.4c.11-.04,.19-.12,.25-.26,.02-.05,.03-.1,.03-.17h.43l.03,1.59h-.5c-.07-.35-.25-.62-.54-.82-.28-.19-.64-.29-1.07-.28-.32,0-.59,.09-.8,.25-.19,.14-.29,.32-.28,.54,0,.21,.12,.39,.34,.55,.25,.17,.59,.33,1.03,.47,.43,.14,.77,.27,1.02,.38s.46,.24,.63,.39c.37,.31,.56,.71,.58,1.2,.02,.73-.37,1.26-1.17,1.6-.31,.13-.63,.2-.95,.21-.67,.01-1.25-.15-1.73-.5Z"/><path class="j" d="M113.65,118.74c-.5,.46-1.07,.7-1.73,.71-.53,.01-1-.1-1.41-.33-.57-.32-.87-.87-.88-1.65l-.07-3.5-.75,.02v-.45l2.23-.05,.09,4.21c.02,.8,.4,1.2,1.14,1.18,.51-.01,.97-.26,1.37-.74l-.09-4.26-.99,.02v-.45l2.46-.05,.11,5.41,.74-.02v.45l-2.21,.05v-.56Z"/><path class="j" d="M120.12,118.73c.69-.01,1.25-.25,1.67-.7l.3,.27c-.31,.41-.76,.7-1.36,.88-.22,.07-.51,.1-.87,.11-.36,0-.74-.05-1.13-.18-.39-.13-.74-.32-1.04-.58-.63-.55-.95-1.3-.97-2.26-.02-.91,.27-1.65,.88-2.21,.58-.54,1.33-.82,2.25-.84,.53-.01,1,.09,1.41,.29,.49,.25,.74,.58,.75,1.01,0,.23-.07,.42-.21,.57-.14,.14-.29,.22-.45,.22-.16,0-.29-.01-.38-.04s-.17-.08-.24-.14c-.16-.12-.24-.29-.24-.5,0-.35,.13-.59,.4-.73-.29-.17-.61-.25-.98-.24-1.1,.02-1.63,.89-1.59,2.6,.03,1.21,.37,1.98,1.04,2.31,.22,.11,.48,.16,.78,.16Z"/><path class="j" d="M126.39,113.66c-.55,.18-1,.47-1.36,.88l.08,4.08,1.25-.03v.44l-3.6,.08v-.44l.84-.02-.1-4.97-.86,.02v-.45l2.35-.05,.02,.79c.4-.4,.86-.68,1.37-.84,.17-.05,.38-.08,.61-.09,.23,0,.43,.07,.61,.22s.27,.36,.28,.62c0,.21-.07,.4-.21,.55-.15,.15-.33,.23-.54,.23-.21,0-.4-.07-.55-.21-.15-.14-.22-.32-.23-.54,0-.09,.01-.18,.04-.27Z"/><path class="j" d="M132.06,118.48c.69-.01,1.32-.31,1.87-.88l.31,.27c-.41,.52-.95,.88-1.64,1.06-.23,.06-.52,.1-.89,.1-.37,0-.75-.06-1.15-.21-.4-.15-.74-.35-1.02-.62-.59-.56-.9-1.29-.92-2.19-.02-.87,.26-1.6,.83-2.17,.56-.56,1.29-.86,2.19-.88,1.31-.03,2.15,.5,2.52,1.6,.11,.35,.18,.74,.19,1.18l-4.14,.09v.17c.03,1.18,.38,1.95,1.05,2.3,.23,.12,.5,.18,.82,.17Zm.73-3.17c-.02-.61-.12-1.08-.31-1.39s-.48-.47-.89-.46c-.83,.02-1.29,.65-1.37,1.91l2.57-.05Zm-1.92-3.35l1.22-1.94c.07-.12,.15-.2,.22-.27,.07-.06,.17-.1,.27-.11,.11-.02,.2-.01,.28,0,.08,.02,.16,.05,.22,.1,.15,.11,.23,.24,.25,.39,.03,.32-.07,.55-.29,.7l-2,1.31-.18-.19Z"/><path class="j" d="M136.48,118.4c-.12,.09-.18,.23-.2,.42h-.55v-1.71h.51c0,.28,.18,.57,.53,.85,.4,.32,.9,.47,1.48,.46,.55-.01,.89-.18,1.04-.51,.04-.1,.06-.2,.06-.3,0-.19-.14-.36-.4-.52-.27-.15-.7-.33-1.3-.53-.6-.2-1.08-.47-1.43-.8-.35-.33-.53-.73-.54-1.19-.01-.51,.2-.93,.64-1.25,.42-.31,.91-.47,1.48-.48s1.03,.12,1.39,.39c.11-.04,.19-.12,.25-.26,.02-.05,.03-.1,.03-.17h.43l.03,1.59h-.5c-.07-.35-.25-.62-.54-.82-.28-.19-.64-.29-1.07-.28-.32,0-.59,.09-.8,.25-.19,.14-.28,.32-.28,.54,0,.21,.12,.39,.34,.55,.25,.17,.59,.33,1.03,.47s.77,.27,1.02,.38,.46,.24,.63,.39c.37,.31,.56,.71,.58,1.2,.02,.73-.37,1.26-1.17,1.6-.31,.13-.63,.2-.95,.21-.67,.01-1.25-.15-1.73-.5Z"/></g><g><path class="g" d="M73.79,.55c-.55,3.14-4.5,6.54-6.41,8.86-2.86,3.54-5.59,2.59-9.27,4.36-3.27,1.64-5.45,4.77-4.91,8.59,.27,2.32,.27,3.14-1.23,5.04-1.23,1.5-2.04,2.45-2.59,4.36s-.55,3.41-1.64,5.04c-1.23,1.77-2.59,3.54-3.95,5.18-2.59,3.14-2.86,5.86-1.91,9.68,1.09,3.82,2.32,7.36,2.86,11.45,.55,4.5,2.18,7.63,4.77,11.31,1.5,2.04,3,4.36,4.23,6.54,1.36,2.45,1.09,4.23,3.95,4.5,4.77,.41,9.41,1.09,14.31,1.09h9.95c3.41,0,9,1.23,11.18-1.5,2.59-3.14,4.63-8.59,5.32-12.68,1.23-7.36,3.54-15.13,5.45-22.36,.41-1.91,.27-2.86,0-4.77-.27-1.64-1.91-3.68-2.86-5.04-1.36-2.18-2.18-4.77-3.54-6.82-1.09-1.64-2.59-2.32-4.23-3.54-4.63-3.68-6.95-10.63-9.41-15.95-1.36-3.14-2.73-4.23-5.59-5.86-3-1.77-3.14-5.04-4.09-8.04l-.41,.55Z"/><path class="j" d="M50.4,41.38c-6.76,1.13-6.38,6.38-.75,8.63,4.13,1.88,10.14,2.25,15.02,2.63,8.26,.38,18.77,1.88,26.65-1.5,3-.75,9.76-4.13,8.26-8.26-1.5-3-15.77-3.38-18.39-3.38-9.76-.38-20.65,.38-30.78,1.88h0Z"/><path class="h" d="M73.54,6.73c.87,2.04,1.6,2.62,3.5,3.21,2.04,.58,2.91,.44,3.79,2.62,.88,2.19,.88,3.21,2.19,4.95,1.31,1.6,1.6,3.64,2.77,5.39,1.02,1.75,2.33,2.91,3.35,4.81,1.17,2.19,2.62,2.33,4.52,3.93,2.91,2.48,5.1,7.29,3.93,11.22-1.31,3.79-6.41,4.37-9.91,5.54-5.39,1.89-11.22,1.6-16.9,1.6-7.43,0-13.55-1.31-20.55-4.08-1.46-.58-4.95-1.46-4.08-3.5,.73-1.6,3.64-1.17,4.37-3.21,1.46-3.64-1.46-6.99,2.33-10.2,1.75-1.75,3.5-1.89,2.91-4.95-.44-2.48-2.19-3.93-.29-6.41,3.21-4.23,9.18-2.19,12.24-6.56,2.62-3.79,3.32-5.22,6.7-7.58,0,0-1.75,1.17-.87,3.21Z"/><path class="e" d="M72.71,8.78c1.02,4.81-5.39,5.1-8.31,6.27-4.37,1.46-5.83,3.64-6.27,7.87,1.89,0,3.79-2.62,5.68-3.35,2.04-.87,4.08-.58,6.27-1.17,4.66-1.17,4.66-6.27,2.91-10.05"/><path class="e" d="M77.08,16.94c-2.89,6.21-8.6,4.81-12.09,5.97-4.08,1.31-10.64,6.85-11.22,11.22,3.21,.44,5.97-4.66,8.89-5.68,3.06-1.02,6.27,.58,9.33,.15,6.85-.87,7.14-10.93,6.85-16.03-.44,1.46-1.31,2.91-1.75,4.37h0Z"/><path class="e" d="M81.6,22.31c0,2.28-1.44,5.36-2.71,7.15-2.55,3.41-7.02,2.76-10.69,3.41-5.42,.98-13.72,3.41-17.23,8.13-4.31,6.18,7.34,6.18,10.21,6.18,6.54,0,8.77-5.69,14.36-7.8,2.07-.81,4.31-.65,6.06-2.11,1.75-1.79,2.23-4.88,2.39-7.31,.32-4.06-.96-6.83-1.91-10.57-.16,.81-.48,1.46-.64,2.28l.16,.65Z"/><path class="e" d="M88.06,31.74c-.65,5.85,.16,8.45-5.85,10.89-2.93,.98-11.7,3.09-12.52,6.01,2.6,.98,6.18,.32,8.94,.32,3.25,.16,6.66,.16,9.59-1.63,4.88-2.93,6.99-13.98,0-15.93l-.16,.33Z"/><polygon class="i" points="43.85 47.66 54.25 52.78 61.89 83.91 58.15 83.91 43.85 47.66"/><polygon class="i" points="86.76 83.91 90.66 83.91 102.03 46.36 93.26 51.48 86.76 83.91"/><polygon class="i" points="56.85 52.87 65.95 54.08 68.94 83.91 64.65 83.91 56.85 52.87"/><polygon class="i" points="81.56 54.17 89.36 52.78 84.26 83.91 80.26 83.91 81.56 54.17"/><polygon class="i" points="68.34 53.91 78.52 53.91 76.14 83.91 71.15 83.91 68.34 53.91"/><polygon class="d" points="45.29 49.48 58.64 83.81 59.27 83.81 46.69 50.31 45.29 49.48"/><polygon class="d" points="57.42 53.69 58.73 53.87 65.62 83.81 64.9 83.81 57.42 53.69"/><polygon class="d" points="68.94 54.78 71.62 83.81 72.52 83.81 69.96 54.78 68.94 54.78"/><polygon class="d" points="88.63 53.69 83.73 83.81 82.85 83.81 87.7 54 88.63 53.69"/><polygon class="d" points="100.95 47.83 89.92 83.81 88.93 83.81 99.79 48.8 100.95 47.83"/></g></g></g></g></svg>