<?xml version="1.0" encoding="UTF-8"?><svg xmlns="http://www.w3.org/2000/svg" viewBox="0 0 147.3 125.58"><defs><style>.d{fill:#333;}.e{fill:#8cc63f;}.f{fill:#d9e021;}</style></defs><g id="a"/><g id="b"><g id="c"><g><path class="d" d="M14.73,0C6.7,0,.18,6.42,0,14.41V81.12H29.46V14.41c-.18-7.99-6.7-14.41-14.73-14.41Z"/><polygon class="d" points="146.35 67.76 146.35 61.85 84.6 24.61 31.07 61.85 31.07 67.76 146.35 67.76"/><g><path class="f" d="M.19,101.03v-13.1H4.42c3.06,0,4.6,1.01,4.6,3.04,0,.78-.26,1.44-.79,2-.53,.56-1.27,.96-2.21,1.2,2.43,.5,3.65,1.65,3.65,3.46,0,1.03-.36,1.84-1.07,2.43-.46,.39-.99,.65-1.58,.77-.59,.13-1.55,.19-2.86,.19H.19Zm2.01-7.43h.7c2.71,0,4.06-.75,4.06-2.27,0-.74-.26-1.24-.79-1.5-.52-.26-1.54-.39-3.04-.39h-.94v4.15Zm0,5.92h1.82c1.33,0,2.24-.14,2.74-.41,.5-.27,.75-.77,.75-1.5,0-.84-.41-1.51-1.23-2.01-.82-.5-1.94-.74-3.34-.74h-.73v4.67Z"/><path class="f" d="M11.54,94.48c0-2.09,.51-3.75,1.54-5,1.03-1.24,2.4-1.86,4.13-1.86s3.11,.62,4.13,1.86c1.03,1.24,1.54,2.91,1.54,5s-.51,3.77-1.54,5.01c-1.03,1.24-2.4,1.87-4.13,1.87s-3.11-.62-4.13-1.87c-1.03-1.24-1.54-2.91-1.54-5.01Zm2.14,0c0,1.72,.3,3.04,.91,3.97,.61,.93,1.48,1.39,2.61,1.39s2-.46,2.61-1.39c.61-.93,.92-2.25,.92-3.97s-.31-3.03-.92-3.96c-.61-.93-1.48-1.39-2.61-1.39s-2,.46-2.61,1.39c-.61,.93-.91,2.25-.91,3.96Z"/><path class="f" d="M25.07,87.93h2.01v7.95c0,1.39,.22,2.39,.66,3.02,.44,.62,1.15,.93,2.13,.93,1.04,0,1.78-.31,2.24-.93,.46-.62,.68-1.65,.68-3.07v-7.9h1.76v7.61c0,1.64-.19,2.82-.58,3.53-.82,1.52-2.18,2.28-4.07,2.28-1.64,0-2.85-.45-3.64-1.35-.79-.9-1.18-2.28-1.18-4.15v-7.92Z"/><path class="f" d="M47.9,100.63c-1.35,.48-2.62,.73-3.81,.73-2.08,0-3.76-.62-5.03-1.87-1.27-1.25-1.91-2.89-1.91-4.93s.63-3.73,1.9-5.01c1.27-1.28,2.92-1.92,4.96-1.92,1.16,0,2.4,.2,3.72,.59v1.85c-1.35-.62-2.61-.93-3.78-.93-1.35,0-2.47,.5-3.34,1.49-.87,.99-1.31,2.26-1.31,3.8s.49,2.82,1.48,3.81c.99,.99,2.26,1.48,3.81,1.48,.94,0,2.05-.24,3.32-.73v1.65Z"/><path class="f" d="M50.22,101.03v-13.1h2.01v5.73h5.54v-5.73h2.01v13.1h-2.01v-5.86h-5.54v5.86h-2.01Z"/><path class="f" d="M63.52,101.03v-13.1h8.85v1.51h-6.84v3.97h5.8v1.51h-5.8v4.6h7.31v1.51h-9.32Z"/><path class="f" d="M75.79,101.03v-13.1h3.67c1.52,0,2.58,.12,3.18,.38,1.27,.53,1.9,1.45,1.9,2.78,0,.91-.22,1.67-.66,2.28-.44,.61-1.17,1.17-2.21,1.7l4.52,5.96h-2.44l-4.14-5.45h-1.82v5.45h-2.01Zm2.01-6.96h1.06c1.08,0,1.94-.24,2.57-.72,.63-.48,.95-1.12,.95-1.93,0-.76-.24-1.28-.71-1.56s-1.36-.42-2.63-.42h-1.24v4.62Z"/><path d="M108.94,101.03l-.76-.91c-1.11,.86-2.41,1.29-3.9,1.29s-2.6-.45-3.53-1.35c-.93-.9-1.39-2.04-1.39-3.42,0-1.08,.28-1.97,.84-2.69,.56-.72,1.47-1.35,2.75-1.89-.61-1.33-.91-2.4-.91-3.21,0-.98,.31-1.78,.92-2.39,.62-.61,1.42-.92,2.4-.92s1.71,.27,2.3,.81c.59,.54,.89,1.24,.89,2.11,0,1.52-1.06,2.88-3.19,4.1,.78,1.52,1.92,3.19,3.41,5,.64-.95,.96-2.21,.96-3.8l-.02-.78h2.01c-.14,2.52-.82,4.45-2.02,5.78,.64,.76,1.31,1.52,2.02,2.27h-2.78Zm-1.64-2.07c-1.61-1.95-2.86-3.84-3.75-5.65-1.4,.69-2.09,1.66-2.09,2.91,0,1.02,.31,1.89,.93,2.6,.62,.71,1.37,1.07,2.26,1.07s1.74-.31,2.65-.94Zm-2.53-7.74c1.29-.61,1.93-1.49,1.93-2.62,0-.46-.12-.83-.36-1.12-.24-.29-.55-.43-.93-.43s-.69,.16-.96,.46c-.26,.31-.4,.69-.4,1.13,0,.63,.24,1.49,.71,2.57Z"/></g><g><g><path class="e" d="M31.07,80.57h1.2v-9.58h-1.19v-.54h4.25c1.45,0,2.53,.31,3.26,.93,.66,.57,.99,1.37,.99,2.39,0,1.14-.35,2.05-1.05,2.72-.75,.71-1.81,1.07-3.18,1.07h-1.21v3.01h1.76v.54h-4.84v-.54Zm4.12-3.5c.87,0,1.52-.38,1.95-1.14,.33-.6,.5-1.3,.5-2.09,0-1.35-.45-2.23-1.35-2.65-.3-.14-.66-.21-1.08-.21h-1.06v6.09h1.05Z"/><path class="e" d="M40.68,80.57h1.13v-9.58h-1.13v-.54h4.53c1.96,0,3.21,.48,3.74,1.43,.19,.35,.29,.75,.29,1.21s-.07,.86-.21,1.2c-.14,.34-.33,.64-.58,.9-.49,.51-1.15,.84-1.98,1,1.09,.17,1.85,.7,2.26,1.61,.12,.26,.22,.51,.31,.77l.24,.75c.16,.53,.38,.89,.64,1.09,.15,.11,.34,.17,.59,.17h.1v.54h-.92c-.82,0-1.39-.12-1.7-.35-.19-.14-.35-.35-.47-.61-.12-.26-.22-.55-.3-.86-.08-.31-.15-.56-.21-.77-.06-.2-.13-.41-.21-.61-.08-.2-.18-.4-.3-.58-.12-.19-.26-.35-.42-.49-.37-.32-.81-.47-1.32-.47h-1.07v4.2h1.63v.54h-4.64v-.54Zm4.4-4.71c.84,0,1.44-.29,1.79-.89,.26-.42,.39-1.01,.39-1.75s-.15-1.25-.45-1.6c-.37-.43-.99-.64-1.86-.64h-1.27v4.87h1.39Z"/><path class="e" d="M51.75,78.47c-.19-.41-.34-.84-.44-1.3-.1-.46-.15-.92-.15-1.39s.05-.92,.15-1.37c.1-.45,.25-.88,.44-1.28,.2-.41,.44-.78,.74-1.12,.3-.34,.64-.64,1.03-.89,.83-.54,1.8-.81,2.92-.81,1.7,0,3.03,.57,4,1.7,.86,1.02,1.29,2.28,1.29,3.76s-.44,2.81-1.31,3.83c-.59,.7-1.38,1.18-2.35,1.45-.49,.14-1.03,.21-1.62,.21s-1.13-.07-1.61-.21c-.49-.14-.93-.33-1.32-.58-.39-.25-.73-.54-1.03-.88-.3-.34-.54-.72-.74-1.12Zm4.67,2.21c.4,0,.76-.07,1.07-.21,.31-.14,.59-.33,.83-.57,.24-.24,.45-.52,.63-.84,.18-.32,.32-.67,.43-1.03,.22-.71,.33-1.36,.33-1.96s-.03-1.09-.08-1.49c-.05-.4-.14-.78-.25-1.14-.11-.36-.26-.7-.44-1.01-.18-.31-.39-.58-.63-.82-.52-.49-1.14-.73-1.88-.73-1.15,0-2.01,.52-2.57,1.55-.48,.89-.71,2-.7,3.33,.02,1.3,.26,2.4,.73,3.29,.58,1.08,1.42,1.62,2.53,1.62Z"/><path class="e" d="M63.4,80.57h1.04v-9.58h-1.04v-.54h4.38c2.77,0,4.57,.9,5.38,2.69,.32,.72,.48,1.57,.48,2.56,0,1.38-.36,2.54-1.1,3.5-.59,.78-1.49,1.34-2.69,1.67-.62,.17-1.36,.25-2.2,.25h-4.25v-.54Zm4.11,0c1.48,0,2.54-.38,3.16-1.12,.62-.73,.93-1.96,.93-3.69v-.23c-.04-2.39-.84-3.82-2.42-4.3-.51-.16-1.08-.24-1.73-.24h-1.14v9.58h1.2Z"/><path class="e" d="M75.59,70.99h-.95v-.54h3.85v.54h-1.02v6.32c0,1.72,.5,2.75,1.5,3.12,.32,.12,.63,.18,.93,.18s.56-.02,.78-.04c.22-.03,.45-.08,.67-.16,.22-.08,.44-.2,.65-.35,.21-.15,.39-.34,.55-.58,.35-.53,.53-1.24,.53-2.14v-6.34h-1.25v-.54h2.89v.54h-.96v6.44c0,1.29-.36,2.26-1.08,2.92-.66,.6-1.57,.91-2.72,.91-1.05,0-1.95-.21-2.7-.63-.67-.38-1.16-.99-1.45-1.83-.15-.44-.23-.96-.23-1.58v-6.23Z"/><path class="e" d="M91.19,80.57c1.69,0,2.87-.56,3.54-1.67l.36,.34c-.18,.42-.55,.83-1.1,1.21-.77,.53-1.73,.8-2.89,.8-1.64,0-2.96-.52-3.95-1.56-.97-1.01-1.45-2.33-1.45-3.96,0-1.54,.47-2.82,1.42-3.82,1-1.07,2.37-1.6,4.11-1.6,.94,0,1.76,.19,2.46,.57,.2,.11,.35,.21,.47,.32,.19-.22,.28-.47,.29-.75h.57v2.92h-.59c-.13-.77-.51-1.39-1.14-1.85-.58-.42-1.22-.64-1.92-.64s-1.28,.13-1.73,.39c-.45,.26-.8,.61-1.06,1.06-.48,.82-.72,1.98-.71,3.48,.01,1.31,.27,2.39,.78,3.26,.59,1,1.44,1.5,2.55,1.5Z"/><path class="e" d="M98.76,80.57h1.39v-9.59h-1.02c-.88,0-1.49,.27-1.84,.8-.27,.41-.42,1.1-.47,2.06h-.55v-3.4h9.63v3.4h-.55c-.04-.96-.2-1.64-.47-2.06-.34-.53-.96-.8-1.83-.8h-1.02v9.59h1.39v.54h-4.67v-.54Z"/><path class="e" d="M107.15,80.56h1.33v-9.57h-1.33v-.54h8.86v3.04h-.54c-.02-.39-.05-.73-.1-1.03-.04-.3-.13-.55-.26-.76-.27-.43-.82-.66-1.65-.7h-3.1v4.21h1.87c.4,0,.7-.06,.91-.19,.21-.13,.34-.35,.38-.67,.01-.09,.02-.19,.02-.29,0-.11,.02-.21,.03-.31h.58v3.47h-.58c-.01-.11-.02-.21-.03-.31,0-.1-.01-.19-.02-.29-.05-.32-.18-.54-.39-.67-.21-.13-.52-.19-.9-.19h-1.87v4.83h2.98c1.22,0,1.97-.57,2.23-1.7,.07-.33,.12-.66,.14-1h.55v3.24h-9.11v-.55Z"/><path class="e" d="M118.42,70.99h-.96v-.54h3.85v.54h-1.02v6.32c0,1.72,.5,2.75,1.51,3.12,.32,.12,.63,.18,.93,.18s.56-.02,.78-.04c.22-.03,.45-.08,.67-.16,.22-.08,.44-.2,.65-.35,.21-.15,.39-.34,.55-.58,.35-.53,.53-1.24,.53-2.14v-6.34h-1.25v-.54h2.89v.54h-.96v6.44c0,1.29-.36,2.26-1.08,2.92-.66,.6-1.57,.91-2.72,.91-1.05,0-1.95-.21-2.7-.63-.67-.38-1.16-.99-1.45-1.83-.15-.44-.23-.96-.23-1.58v-6.23Z"/><path class="e" d="M128.78,80.57h1.13v-9.58h-1.13v-.54h4.53c1.96,0,3.21,.48,3.74,1.43,.2,.35,.29,.75,.29,1.21s-.07,.86-.21,1.2c-.14,.34-.33,.64-.58,.9-.49,.51-1.15,.84-1.98,1,1.09,.17,1.84,.7,2.26,1.61,.12,.26,.22,.51,.31,.77l.24,.75c.16,.53,.38,.89,.64,1.09,.15,.11,.34,.17,.58,.17h.1v.54h-.92c-.82,0-1.39-.12-1.7-.35-.19-.14-.35-.35-.47-.61-.12-.26-.23-.55-.3-.86-.08-.31-.15-.56-.21-.77-.06-.2-.13-.41-.21-.61-.08-.2-.18-.4-.3-.58-.12-.19-.25-.35-.42-.49-.37-.32-.81-.47-1.32-.47h-1.07v4.2h1.63v.54h-4.64v-.54Zm4.4-4.71c.84,0,1.44-.29,1.79-.89,.26-.42,.39-1.01,.39-1.75s-.15-1.25-.44-1.6c-.37-.43-.99-.64-1.86-.64h-1.27v4.87h1.39Z"/><path class="e" d="M140.71,80.31c-.19,.21-.29,.48-.29,.81h-.62v-2.84h.72c.18,.71,.55,1.29,1.12,1.73,.58,.45,1.28,.68,2.1,.68,1.02,0,1.7-.28,2.04-.84,.11-.19,.17-.4,.17-.64s-.03-.45-.1-.66c-.07-.2-.19-.4-.38-.59-.39-.4-1.03-.77-1.89-1.08-.87-.32-1.52-.61-1.97-.87-.44-.26-.79-.54-1.05-.84-.45-.52-.67-1.17-.67-1.97,0-.87,.37-1.58,1.11-2.11,.7-.51,1.56-.76,2.59-.76,.58,0,1.08,.07,1.48,.2,.41,.14,.72,.29,.93,.48,.11-.16,.17-.34,.18-.54h.65v2.59h-.67c-.07-.69-.37-1.23-.91-1.63-.47-.35-1.06-.52-1.74-.52-.63,0-1.16,.13-1.57,.4-.43,.28-.64,.64-.64,1.07,0,.5,.19,.92,.56,1.26,.41,.37,1.22,.82,2.42,1.35,1.13,.46,1.93,.93,2.39,1.42,.43,.46,.64,1.03,.64,1.72,0,.98-.35,1.75-1.07,2.34-.66,.54-1.49,.81-2.48,.81s-1.79-.2-2.51-.59c-.21-.12-.39-.24-.53-.36Z"/></g><g><path class="f" d="M139.61,84.43c0,.08-.02,.23-.05,.44-.03,.21-.06,.44-.09,.69-.03,.25-.06,.5-.09,.75-.03,.25-.05,.44-.05,.56-.04,.04-.09,.06-.16,.06-.04,0-.08-.02-.12-.06,.04-.17,.07-.31,.08-.44,0-.12,.02-.25,.02-.38,0-.41-.17-.74-.51-.96-.34-.23-.82-.34-1.45-.34-.44,0-.89,.07-1.35,.22-.47,.14-.95,.4-1.43,.78-.49,.37-1,.87-1.53,1.5-.53,.62-1.07,1.41-1.63,2.37-.31,.54-.7,1.24-1.15,2.09-.46,.85-.94,1.76-1.46,2.73-.52,.97-1.04,1.95-1.56,2.96-.52,1.01-1,1.95-1.43,2.82,.19,0,.5,0,.93-.01,.44-.01,.88-.02,1.34-.02h2.03c.1,.06,.13,.17,.09,.31h-.62c-.33,0-.73,0-1.18,.01-.46,.01-.93,.02-1.42,.03-.49,.01-.93,.01-1.32,.01-.69,1.33-1.41,2.66-2.17,4-.76,1.34-1.52,2.63-2.27,3.88-.76,1.25-1.5,2.4-2.24,3.47-.74,1.07-1.42,2.01-2.04,2.82-1.56,1.99-3.04,3.68-4.44,5.06-1.4,1.38-2.73,2.5-4,3.36-1.27,.86-2.45,1.49-3.57,1.87-1.11,.39-2.17,.58-3.16,.58-.29,0-.61-.03-.95-.09-.34-.06-.67-.19-1-.38s-.61-.45-.86-.79c-.25-.34-.44-.8-.56-1.36,0-.17,.02-.24,.06-.22,.04,.02,.08,.08,.12,.19,.02,.14,.1,.34,.25,.58,.15,.24,.36,.47,.64,.7,.28,.23,.63,.42,1.04,.58,.42,.16,.91,.23,1.49,.23,.94-.02,1.95-.19,3.04-.51,1.09-.32,2.24-.89,3.44-1.7,1.21-.81,2.47-1.9,3.79-3.26,1.32-1.36,2.68-3.08,4.1-5.16,.75-1.1,1.49-2.28,2.23-3.53,.74-1.26,1.45-2.5,2.15-3.74,.69-1.24,1.35-2.42,1.96-3.57,.61-1.14,1.17-2.14,1.67-2.99-.89,.06-1.6,.12-2.12,.19-.52,.06-.93,.16-1.25,.3-.31,.14-.55,.33-.73,.59-.17,.26-.38,.62-.61,1.07l-.09-.03c.29-.69,.58-1.2,.87-1.54,.29-.34,.56-.55,.81-.64,.17-.04,.39-.08,.67-.12,.28-.04,.58-.07,.9-.09,.32-.02,.64-.04,.95-.06,.31-.02,.58-.03,.81-.03,1.04-1.91,2.04-3.68,3.01-5.31,.97-1.63,1.97-3.23,3.01-4.78,.56-.85,1.16-1.68,1.81-2.48,.64-.8,1.3-1.5,1.96-2.12,.67-.61,1.33-1.1,1.98-1.47,.66-.36,1.28-.54,1.88-.54,.42,0,.78,.09,1.09,.28,.31,.19,.47,.41,.47,.66Z"/><path class="f" d="M134.12,102.63c-.5,.64-1.07,1.25-1.71,1.84-.64,.58-1.24,1.05-1.78,1.4-.42,.27-.84,.48-1.28,.62-.44,.15-.83,.22-1.18,.22-.12,0-.27-.01-.44-.03-.17-.02-.32-.07-.45-.16-.13-.08-.25-.19-.34-.33-.09-.13-.14-.32-.14-.54,0-.27,.1-.64,.31-1.1,.21-.47,.45-.95,.73-1.45,.28-.5,.56-.98,.84-1.43,.28-.46,.5-.8,.67-1.03,.1-.17,.29-.31,.54-.42,.26-.11,.43-.17,.51-.17,.11,0,.16,.03,.16,.09,0,.04-.01,.11-.05,.19-.03,.09-.07,.15-.11,.19-.27,.42-.55,.87-.83,1.37-.28,.5-.53,.98-.76,1.45-.23,.47-.41,.9-.54,1.29-.13,.39-.2,.71-.2,.93,0,.25,.07,.43,.2,.55,.14,.11,.32,.17,.54,.17,.42,0,.87-.14,1.37-.42,.5-.28,.99-.62,1.48-1.01,.49-.39,.94-.81,1.35-1.25,.42-.44,.74-.81,.97-1.12,.1-.1,.16-.13,.17-.08,.01,.05,0,.13-.05,.23Zm-1.4-6.95c0,.25-.11,.5-.33,.75-.22,.25-.46,.38-.73,.38-.25,0-.37-.12-.37-.38,0-.27,.1-.53,.3-.78,.2-.25,.44-.37,.73-.37,.27,0,.41,.13,.41,.4Z"/><path class="f" d="M147.3,86.4c0,.29-.12,.72-.34,1.27-.23,.56-.55,1.21-.98,1.95-.43,.74-.95,1.53-1.56,2.37-.61,.84-1.31,1.68-2.09,2.51-.78,.83-1.63,1.63-2.57,2.38-.93,.76-1.93,1.43-2.99,2.01-.19,.33-.45,.78-.78,1.34-.33,.56-.66,1.15-.98,1.77-.32,.62-.6,1.24-.84,1.84-.24,.6-.36,1.11-.36,1.53,0,.66,.3,.99,.9,.99,.52,0,1.06-.14,1.62-.43,.56-.29,1.1-.64,1.61-1.06,.51-.41,.99-.86,1.43-1.32,.45-.47,.82-.89,1.14-1.26,.15-.14,.23-.18,.25-.11,.02,.08-.01,.15-.09,.23-.37,.46-.82,.94-1.32,1.46-.51,.52-1.05,1-1.62,1.43-.57,.44-1.17,.8-1.79,1.09-.62,.29-1.25,.44-1.87,.44-.54,0-.93-.13-1.17-.39-.24-.26-.36-.58-.36-.95s.16-.91,.48-1.61c.32-.69,.7-1.43,1.14-2.2,.44-.77,.87-1.5,1.31-2.18,.44-.69,.76-1.21,.97-1.56,.35-.6,.72-1.23,1.11-1.88,.38-.66,.76-1.29,1.14-1.92,.37-.62,.73-1.22,1.07-1.79,.34-.57,.66-1.07,.95-1.51,.35-.54,.72-1.05,1.09-1.53,.37-.48,.85-.96,1.43-1.43,.79-.66,1.52-1.17,2.18-1.53,.67-.35,1.11-.53,1.34-.53,.16,0,.3,.05,.41,.14,.1,.09,.16,.23,.16,.42Zm-1.4,.81c0-.33-.14-.5-.41-.5-.1,0-.22,.03-.34,.09-.12,.06-.29,.19-.48,.39s-.44,.47-.72,.83c-.28,.35-.64,.81-1.07,1.37-.17,.23-.4,.56-.7,1-.3,.44-.69,1.01-1.15,1.73-.47,.72-1.03,1.6-1.68,2.65-.65,1.05-1.43,2.29-2.32,3.72,1.25-.71,2.41-1.56,3.5-2.57,1.09-1.01,2.03-2.04,2.82-3.1,.79-1.06,1.41-2.09,1.87-3.08,.46-1,.69-1.84,.69-2.52Z"/><path class="f" d="M143.35,101c-.06,.11-.11,.12-.16,.03-.12-.27-.38-.4-.78-.4-.29,0-.58,.08-.87,.25-.29,.17-.44,.42-.44,.75,0,.16,.05,.33,.16,.5,.1,.17,.25,.38,.44,.66,.17,.25,.32,.5,.47,.75,.14,.25,.22,.51,.22,.78,0,.54-.12,.98-.37,1.33-.25,.34-.55,.62-.89,.82-.34,.21-.69,.35-1.04,.42-.35,.07-.63,.11-.84,.11-1.27,0-1.96-.43-2.09-1.28,.11-.06,.22-.14,.36-.23,.13-.09,.23-.18,.3-.26,.04,0,.07,.04,.09,.12,.11,.37,.3,.69,.59,.96,.29,.27,.63,.41,1.03,.41,.17,0,.36-.01,.59-.05,.23-.03,.44-.1,.64-.22,.2-.11,.37-.27,.51-.48,.14-.21,.22-.49,.22-.84,0-.27-.05-.52-.16-.75-.1-.23-.22-.44-.34-.62-.12-.21-.25-.41-.37-.62s-.19-.44-.19-.69,.09-.52,.27-.81c.17-.29,.4-.56,.67-.8,.27-.24,.57-.44,.89-.61,.32-.17,.64-.25,.95-.25,.33,0,.5,.11,.5,.31-.06,.1-.12,.22-.19,.36-.06,.14-.11,.25-.16,.36Z"/></g></g></g></g></g></svg>