<svg xmlns="http://www.w3.org/2000/svg" viewBox="0 0 441.42 153.11"><defs><style>.cls-1{fill:#fff;}.cls-2{fill:#e42213;}</style></defs><g id="Calque_2" data-name="Calque 2"><g id="Calque_1-2" data-name="Calque 1"><polygon class="cls-1" points="428.58 153.12 11.95 153.12 11.95 153.12 428.58 72.11 428.58 153.12"/><path class="cls-2" d="M191.36,118.23a19.78,19.78,0,0,1,2.56,1.48,17.83,17.83,0,0,1,5.59,6.22,17.34,17.34,0,0,1,2.18,8.37q0,7.63-7,13a24.56,24.56,0,0,1-15.3,5.1q-8.4,0-13.6-4.78a15.62,15.62,0,0,1-5.07-12.09,17,17,0,0,1,4.77-12.24l-16.68,3.25v11a5.49,5.49,0,0,0,1,3.45,3.22,3.22,0,0,0,2.66,1.33,8.07,8.07,0,0,0,3.62-1.26,1.75,1.75,0,0,1,2.6.7,3.81,3.81,0,0,1,.7,2.21c0,1.46-.79,2.85-2.39,4.19A18,18,0,0,1,145,152.37a12.74,12.74,0,0,1-9-3.18,11,11,0,0,1-3.41-8.39V129.68L119,132.31a21.76,21.76,0,0,1,3.08,2.52,8.89,8.89,0,0,1,2.67,6.54,9.89,9.89,0,0,1-4.29,8.15,14.33,14.33,0,0,1-9,2.85,46.57,46.57,0,0,1-5-.46c-2.27-.25-3.55-.38-3.83-.38a6,6,0,0,0-1,.1,11.12,11.12,0,0,1-1.48.14,3.78,3.78,0,0,1-2.6-.84,12,12,0,0,1-2.67-4.1,12.29,12.29,0,0,1-1.23-4.8c0-2.15.84-3.23,2.53-3.23a2.89,2.89,0,0,1,1.81.65,47.14,47.14,0,0,1,3.46,3.46,12.59,12.59,0,0,0,2.39,2.13,3.8,3.8,0,0,0,2,.58,2.73,2.73,0,0,0,1.86-.61,2.08,2.08,0,0,0,.71-1.64c0-1.05-.91-2-2.71-2.88a30.27,30.27,0,0,1-6.73-4.28l-25.88,5a8.13,8.13,0,0,0,4.91,1.7,12.63,12.63,0,0,0,3.74-.65A12.44,12.44,0,0,0,85,140.7a3.74,3.74,0,0,1,1.9-.84A2.37,2.37,0,0,1,88.73,141a3.7,3.7,0,0,1,.88,2.32q0,2.53-3.16,4.89a21,21,0,0,1-12.9,4.18,18.32,18.32,0,0,1-12.38-4.29,17.23,17.23,0,0,1-3.3-3.89l-4.83.94a2.19,2.19,0,0,1,1,.82,2.75,2.75,0,0,1,.46,1.53,3.59,3.59,0,0,1-.85,2.2,5.77,5.77,0,0,1-2.18,1.74,19.43,19.43,0,0,1-8.08,1.37q-6.85,0-9.81-3.62l-.17-.22-9.53,1.85a7.13,7.13,0,0,1-.87.36,22.68,22.68,0,0,1-5.21.83L12,153.11H428.58v-81Zm178.31-13a22.26,22.26,0,0,1,8.22-1.76,8.92,8.92,0,0,1,4.86,1.15,3.49,3.49,0,0,1,1.79,3.07,4.79,4.79,0,0,1-2.71,4.29,20.21,20.21,0,0,1-10.37,2.5,7.38,7.38,0,0,1-4.08-1,3.93,3.93,0,0,1-2-3.51C365.34,107.92,366.79,106.34,369.67,105.19Zm-122,46c-1.85.61-5.16.91-9.91.91a19.61,19.61,0,0,1-6.86-.84,3,3,0,0,1-2.07-2.85,2,2,0,0,1,.21-1,17.71,17.71,0,0,1,1.4-1.64q1.41-1.47,1.41-9.84,0-4.86-1.12-7.17a4.09,4.09,0,0,0-6.61-.36q-.89,1.52-.88,5.49v7a10.55,10.55,0,0,0,.26,2.85,18.22,18.22,0,0,0,1.74,3,2.68,2.68,0,0,1,.39,1.44q0,2.07-2.88,3.06a30.39,30.39,0,0,1-9,1q-9.78,0-9.78-4a2.3,2.3,0,0,1,.3-1.29,6.5,6.5,0,0,1,1.42-1.24,2.92,2.92,0,0,0,1.16-1.53,26.47,26.47,0,0,0,.46-4.24q.26-4,.25-8.4a8.77,8.77,0,0,0-.37-3.18,5.86,5.86,0,0,0-2.13-1.85,2.64,2.64,0,0,1-.28-4.62,22.91,22.91,0,0,1,5.06-2.27q3.38-1.2,6.51-2a20.56,20.56,0,0,1,4.29-.83,2.31,2.31,0,0,1,1.77.78,2.57,2.57,0,0,1,.72,1.82c0,.07,0,.37,0,.88a3.1,3.1,0,0,0,0,.49c0,1.13.47,1.69,1.41,1.69.56,0,1.16-.44,1.79-1.33a10,10,0,0,1,8.79-4.36,12.46,12.46,0,0,1,7.59,2.32,8.92,8.92,0,0,1,3.1,3.88,21.92,21.92,0,0,1,1.09,6.56l.49,12.37a5,5,0,0,0,.44,2.08,17.54,17.54,0,0,0,2.16,2.56,2.26,2.26,0,0,1,.53,1.59Q250.49,150.29,247.71,151.21Zm38.64-3.94a24.54,24.54,0,0,1-15.3,5.1q-8.4,0-13.6-4.78a15.61,15.61,0,0,1-5.06-12.09,17,17,0,0,1,6.18-13.57,23.28,23.28,0,0,1,15.72-5.56,19.36,19.36,0,0,1,11.28,3.34,17.83,17.83,0,0,1,5.59,6.22,17.23,17.23,0,0,1,2.18,8.37Q293.34,141.93,286.35,147.27Zm66.3,4.89a21,21,0,0,1-7.54-1.13c-1.91-.75-2.86-1.73-2.86-2.95a2.35,2.35,0,0,1,.19-1.07q.19-.37,1.35-1.95t1.09-9.6a22.06,22.06,0,0,0-.67-6.61,3,3,0,0,0-3.09-2.21,3.21,3.21,0,0,0-2.06.72,3.32,3.32,0,0,0-1.17,1.81,41,41,0,0,0-.35,6.75,60.33,60.33,0,0,0,.36,7.17,11.41,11.41,0,0,0,1.78,3.52,2.37,2.37,0,0,1,.35,1.33q0,4.19-10.93,4.18c-4.39,0-7.34-.32-8.86-1a2.75,2.75,0,0,1-1.83-2.74,2.39,2.39,0,0,1,.23-1.23,13,13,0,0,1,1.56-1.62,3.76,3.76,0,0,0,1-1.39,10.21,10.21,0,0,0,.33-2.37c.16-2.58.25-5.18.25-7.81,0-4.59-1.18-6.89-3.52-6.89q-2.64,0-3.13,3a56.75,56.75,0,0,0-.42,7.94,47.75,47.75,0,0,0,.16,5.06,7.16,7.16,0,0,0,.86,2.5,5.48,5.48,0,0,1,.84,2.46c0,1.53-1.06,2.58-3.2,3.17a29.17,29.17,0,0,1-7.66.94,26.56,26.56,0,0,1-8-.86c-1.68-.57-2.53-1.48-2.53-2.72a2,2,0,0,1,.34-1.2,10.37,10.37,0,0,1,1.53-1.54,5.93,5.93,0,0,0,1.82-4q.39-4.35.39-9a22.12,22.12,0,0,0-.33-4.66,3.74,3.74,0,0,0-1.43-2.13,7.34,7.34,0,0,1-1.35-1.23,2,2,0,0,1-.3-1.16q0-2.35,3.69-3.72c5.93-2.14,10.37-3.21,13.33-3.24,1.33,0,2,.95,2,2.85v.6c0,.37,0,.68,0,.91,0,1.27.38,1.9,1.13,1.9.4,0,1-.5,1.86-1.51a13.54,13.54,0,0,1,4.78-3.46,14.35,14.35,0,0,1,5.91-1.29q5.87,0,8.16,4.29c.58,1.06,1.06,1.58,1.44,1.58s.87-.47,1.83-1.4a14.43,14.43,0,0,1,10.37-4.47,10.92,10.92,0,0,1,7.42,2.5q3,2.59,3,7.8c0,.75,0,2-.07,3.8-.05.61-.07,2.45-.07,5.52,0,2,0,3.35,0,4.15q0,.74,0,1.05a6,6,0,0,0,1.4,3.94,13.18,13.18,0,0,1,1,1.35,1.82,1.82,0,0,1,.19.9Q363.23,152.16,352.65,152.16Zm24.75,0a38.8,38.8,0,0,1-9.81-1,3.9,3.9,0,0,1-2-1.23,3,3,0,0,1-.76-2,2.44,2.44,0,0,1,.39-1.48,10.83,10.83,0,0,1,2-1.69,4.51,4.51,0,0,0,1.54-2.63,23.84,23.84,0,0,0,.46-5.45c0-.78,0-2.22-.16-4.35s-.18-3.35-.23-3.7a2.91,2.91,0,0,0-2-2.22,3,3,0,0,1-2.18-2.81c0-1.48.94-2.58,2.84-3.31a65.77,65.77,0,0,1,8.44-2.56,32.54,32.54,0,0,1,7-1.06c1.29,0,1.94.73,1.94,2.18v20.43a10.65,10.65,0,0,0,.43,3.55,4.8,4.8,0,0,0,1.78,2.07,6.2,6.2,0,0,1,1.46,1.32,2.4,2.4,0,0,1,.37,1.39Q388.9,152.12,377.4,152.12Zm48.52-17.91a2.83,2.83,0,0,1-2.46,1.46H406.93c-.72,0-1.09.32-1.09,1q0,2.28,2.48,4.31a8.26,8.26,0,0,0,5.33,2,14.15,14.15,0,0,0,7.14-2.25,3.68,3.68,0,0,1,1.89-.84,2.4,2.4,0,0,1,1.8,1.12,3.76,3.76,0,0,1,.88,2.32q0,2.53-3.17,4.89a21,21,0,0,1-12.9,4.18,18.34,18.34,0,0,1-12.38-4.29,17.42,17.42,0,0,1-4-5.1,17.7,17.7,0,0,1-2.08-8.36A17.09,17.09,0,0,1,394.42,124a18.81,18.81,0,0,1,7.87-6.08,19.75,19.75,0,0,1,7.77-1.51,17.44,17.44,0,0,1,11.36,3.79,15.27,15.27,0,0,1,3.79,4.5,11.7,11.7,0,0,1,1.66,5.77A6.76,6.76,0,0,1,425.92,134.21Z"/><path class="cls-2" d="M274.71,127a3.72,3.72,0,0,0-3.23-2.46,3,3,0,0,0-2.48,1.14,4.7,4.7,0,0,0-.93,3.05,28.5,28.5,0,0,0,.79,5.74,41.94,41.94,0,0,0,1.88,6.45c.72,1.93,1.91,2.89,3.55,2.89q3.13,0,3.13-4a33.59,33.59,0,0,0-.79-6.71A27.74,27.74,0,0,0,274.71,127Z"/><path class="cls-2" d="M179.09,140.87c.72,1.93,1.91,2.89,3.55,2.89,2.08,0,3.13-1.33,3.13-4a32.94,32.94,0,0,0-.8-6.71,27.26,27.26,0,0,0-1.91-6.12,3.73,3.73,0,0,0-3.24-2.46,3,3,0,0,0-2.47,1.14,4.65,4.65,0,0,0-.94,3.05,28.65,28.65,0,0,0,.8,5.74A41.94,41.94,0,0,0,179.09,140.87Z"/><path class="cls-2" d="M409.71,122.73a3.62,3.62,0,0,0-3.09,1.55,4.86,4.86,0,0,0-1.06,2.92,1.85,1.85,0,0,0,.51,1.48,2.85,2.85,0,0,0,1.78.42h3.55c1.5,0,2.25-.69,2.25-2.08a4.4,4.4,0,0,0-1.09-3.09A3.68,3.68,0,0,0,409.71,122.73Z"/><path class="cls-2" d="M25.91,147.87a3.46,3.46,0,0,0-2.11-3.06,5.7,5.7,0,0,1-1.34-.95,2.41,2.41,0,0,1-.52-1.09,33,33,0,0,1-.56-7,11.78,11.78,0,0,1,.36-3.76q.38-.81,1.71-.81A4.87,4.87,0,0,1,27,132.72a11,11,0,0,1,2.05,4.71,72.39,72.39,0,0,0,2.2,7.66,14.63,14.63,0,0,0,2.1,3.86L53,145.13l-.16-.07a6.2,6.2,0,0,1-2.78-1.32,6.34,6.34,0,0,1-.92-3c-.49-3.72-1.31-6.49-2.46-8.29a10.31,10.31,0,0,0-5.41-4.05c-1.15-.42-1.72-1-1.72-1.65,0-.51.37-1,1.12-1.33a9.86,9.86,0,0,0,4.25-4,11.42,11.42,0,0,0,1.55-5.89,10.62,10.62,0,0,0-4.43-9.07q-4.92-3.63-12.44-3.62-1.34,0-4.68.24c-3.51.28-6.33.42-8.44.42-1.26,0-2.19,0-2.77-.07q-4.65-.34-5.8-.35a17.31,17.31,0,0,0-4.15.39A6.12,6.12,0,0,0,1,104.89a3.05,3.05,0,0,0-1,2.27,2.37,2.37,0,0,0,.53,1.6,6.52,6.52,0,0,0,2.07,1.35,4,4,0,0,1,2.11,2.57,29.11,29.11,0,0,1,.49,6.64q0,15.41-.17,17.9a17.8,17.8,0,0,1-.76,4.8,5.22,5.22,0,0,1-2.09,2.41,8.22,8.22,0,0,0-1.76,1.42A2.16,2.16,0,0,0,0,147.2q0,4.92,13,4.92c1.77,0,3.34,0,4.72-.13l6.08-1.19A3.15,3.15,0,0,0,25.91,147.87ZM21,121.5l.39-8.19a3.72,3.72,0,0,1,.63-2.25,2.51,2.51,0,0,1,1.94-.63q4.82,0,4.81,6.78c0,2.35-.47,4.05-1.4,5.12a5.7,5.7,0,0,1-4.5,1.6,2,2,0,0,1-1.5-.42,2.76,2.76,0,0,1-.37-1.69Z"/><path class="cls-2" d="M72.58,140.93q-2.47-2-2.48-4.31c0-.63.36-1,1.09-1H87.71a2.85,2.85,0,0,0,2.47-1.46,6.76,6.76,0,0,0,.94-3.74,11.79,11.79,0,0,0-1.65-5.77,15.27,15.27,0,0,0-3.79-4.5,17.46,17.46,0,0,0-11.36-3.79,19.75,19.75,0,0,0-7.77,1.51A18.74,18.74,0,0,0,58.68,124a17.09,17.09,0,0,0-3.59,10.62A17.81,17.81,0,0,0,57.16,143c.22.42.46.82.71,1.21L73,141.25Zm-1.7-16.65A3.61,3.61,0,0,1,74,122.73a3.68,3.68,0,0,1,2.85,1.2A4.45,4.45,0,0,1,77.91,127c0,1.39-.75,2.08-2.25,2.08H72.11a2.85,2.85,0,0,1-1.78-.42,1.85,1.85,0,0,1-.51-1.48A4.86,4.86,0,0,1,70.88,124.28Z"/><path class="cls-2" d="M112.92,129c-2.2-1-3.3-2.08-3.3-3.23a2.46,2.46,0,0,1,2.42-2.43c1,0,2.23.73,3.73,2.18a23.92,23.92,0,0,0,3.11,2.64,4.1,4.1,0,0,0,2.2.6,3.42,3.42,0,0,0,2.46-.94,3.1,3.1,0,0,0,1-2.33,8.93,8.93,0,0,0-.84-3.41,15.1,15.1,0,0,0-2.18-3.62c-1.1-1.39-2.19-2.08-3.27-2.08a4,4,0,0,0-1.37.32,8.65,8.65,0,0,1-2.32.63,8.58,8.58,0,0,1-1.34-.14,33.68,33.68,0,0,0-5.73-.77,12.38,12.38,0,0,0-10,4.32,10.8,10.8,0,0,0-2.57,7.21,10.19,10.19,0,0,0,2.52,6.82,13.09,13.09,0,0,0,1.44,1.45l20.07-3.9A38.49,38.49,0,0,0,112.92,129Z"/><path class="cls-2" d="M148.82,125.62a1.89,1.89,0,0,1,.35-1.34,1.91,1.91,0,0,1,1.33-.35h6.37a2.14,2.14,0,0,0,1.79-.65,4,4,0,0,0,.49-2.34v-2.07a3.58,3.58,0,0,0-.38-2,2.18,2.18,0,0,0-1.69-.48h-6.51a2.13,2.13,0,0,1-1.42-.32,2,2,0,0,1-.33-1.37v-4.74a2.91,2.91,0,0,0-.3-1.6,1.4,1.4,0,0,0-1.18-.41h-2.85a3.1,3.1,0,0,0-1.47.32l-16.11,10.12a1.79,1.79,0,0,0-.8,1.55v1.55a2.72,2.72,0,0,0,.28,1.56c.18.23.62.34,1.3.34h3.62a.9.9,0,0,1,1.19,1.19v5.12l16.32-3.17Z"/><path class="cls-2" d="M182.64,116.37a23.27,23.27,0,0,0-15.72,5.56c-.5.43-1,.87-1.42,1.33l25.86-5A20.07,20.07,0,0,0,182.64,116.37Z"/><rect class="cls-2" x="385.62" y="48.1" width="12" height="59"/><path class="cls-2" d="M391.62,51.23c12.11,0,21.92-8,21.92-17.87H369.71C369.71,43.23,379.52,51.23,391.62,51.23Z"/><rect class="cls-2" x="369.71" y="2.45" width="7.78" height="30.91"/><rect class="cls-2" x="387.73" y="2.45" width="7.78" height="30.91"/><rect class="cls-2" x="405.76" y="2.45" width="7.78" height="30.91"/><path class="cls-2" d="M440.19,69.89H424.63a1.23,1.23,0,0,1-1.23-1.23L420.92,2.77A2.45,2.45,0,0,1,422.41.42l1-.42,17.94,68.23A1.23,1.23,0,0,1,440.19,69.89Z"/><rect class="cls-2" x="423.1" y="60.72" width="5.61" height="46.38"/></g></g></svg>