<svg xmlns="http://www.w3.org/2000/svg" viewBox="0 0 415.61 278.56"><defs><style>.cls-1,.cls-4{fill:#82915f;}.cls-1{opacity:0.14;}.cls-2{fill:none;stroke:#0e0e0e;stroke-miterlimit:10;stroke-width:2px;}.cls-3{fill:#0e0e0e;}</style></defs><g id="Calque_2" data-name="Calque 2"><g id="Calque_3" data-name="Calque 3"><circle class="cls-1" cx="207.64" cy="139.28" r="139.28"/><path class="cls-2" d="M139.74,195.63s30.83-14.39,55.25,0,70-6.39,70-6.39"/><path class="cls-2" d="M224.86,205.78s-17,2.68-28.12-3.18"/><path class="cls-3" d="M32.94,193.1a40.43,40.43,0,0,1-13.13-3.41,37.3,37.3,0,0,1-9.42-6.21,28.57,28.57,0,0,1-6.11-7.92,36.66,36.66,0,0,1-3.21-8.92A39.33,39.33,0,0,1,.27,153a22.07,22.07,0,0,1,5.21-11.83,2.84,2.84,0,0,0,.6-.8h.2q1.2-1.2,2.61-2.4a18.51,18.51,0,0,1,3.21-2.21,26.91,26.91,0,0,1,4-1.8,18.62,18.62,0,0,1,4.21-.81,17.73,17.73,0,0,1,5.22.41c2.53.53,3.74,2,3.6,4.41a3.34,3.34,0,0,1-.5,1.8c-.33.53-.63,1.07-.9,1.6L26.53,143a13.57,13.57,0,0,0-2.21,3,37.74,37.74,0,0,0-2,3.71,35.93,35.93,0,0,0-1.81,4.71,30.25,30.25,0,0,0-1.2,6.82,24.68,24.68,0,0,0,.4,6.11,13.82,13.82,0,0,0,2.81,6.12,5.48,5.48,0,0,0,.9,1.4,16,16,0,0,0,2.81,2.71,19.67,19.67,0,0,0,4.91,2.7,22.26,22.26,0,0,0,7.22,1.4,22.77,22.77,0,0,0,9.62-1.4,18.72,18.72,0,0,0,6-3.81A15.62,15.62,0,0,0,57.4,172a29.59,29.59,0,0,0,2.2-5.51,33,33,0,0,0,1.11-5.51,23.06,23.06,0,0,0,.1-4.71,35.45,35.45,0,0,0-3-10.33c-1.6-3.54-3.28-6.84-5-9.92q-3.21-5.21-6.82-10.22a83.08,83.08,0,0,1-8.12-12.93,48.66,48.66,0,0,1-4.71-14.43,44.81,44.81,0,0,1,.4-15.74A49.75,49.75,0,0,1,40.36,66q5.2-8.42,11.43-12.23A34.69,34.69,0,0,1,63.61,49a38.84,38.84,0,0,1,13-.2,23.63,23.63,0,0,1,7.42,3,33.69,33.69,0,0,1,6.51,4.91,32.08,32.08,0,0,1,5.92,7.72,37.26,37.26,0,0,1,3.61,10.22,37.71,37.71,0,0,1,0,13.43,50.74,50.74,0,0,1-3.21,10.83,93.79,93.79,0,0,1-4.61,10.42,61.81,61.81,0,0,1-6.22,9.62,15.48,15.48,0,0,1-3.7,3.31q-2.52,1.71-4.51.1a21.08,21.08,0,0,1-3.31-3.81,29.3,29.3,0,0,1-2.91-5.11,16.28,16.28,0,0,1-1.4-5.51,8.82,8.82,0,0,1,1.2-5.22,22.93,22.93,0,0,1,1.4-2.4l1.61-2.41a48.2,48.2,0,0,0,4.91-9.82,29.1,29.1,0,0,0,1.9-10,15.82,15.82,0,0,0-2.4-8.62A13.23,13.23,0,0,0,71,64a12.1,12.1,0,0,0-6.21,0,13.26,13.26,0,0,0-9.63,8.82,69.78,69.78,0,0,0-2.8,8.72,36.11,36.11,0,0,0-1,10.22,56,56,0,0,0,1.91,12A59.45,59.45,0,0,0,59,117.53q4.61,8,8.22,15.83A124.67,124.67,0,0,1,73,147.6,53.74,53.74,0,0,1,76,161a33.15,33.15,0,0,1-.4,6.61,29,29,0,0,1-3.21,9.62,34.43,34.43,0,0,1-7.61,9.53q-5,4.5-13.64,6.11A63,63,0,0,1,32.94,193.1Z"/><path class="cls-3" d="M157.42,147.2a2.4,2.4,0,0,1,2,2.4,4.88,4.88,0,0,1-.4,1.81c-.8,1.73-2,4-3.51,6.91s-3.28,5.78-5.21,8.72a87,87,0,0,1-6.22,8.32,25.12,25.12,0,0,1-6.91,5.91,10.92,10.92,0,0,1-4.41,1.71,16.61,16.61,0,0,1-4,.1,18.14,18.14,0,0,1-4-.8,10.12,10.12,0,0,1-5.51-5.62,22.08,22.08,0,0,1-1.3-9,41.87,41.87,0,0,1-10.13,11q-5.52,4-10.52,3.61a17.74,17.74,0,0,1-7.12-2,12,12,0,0,1-5.41-5.91q-1.91-4.11-1.6-10.93t4.11-17a64.42,64.42,0,0,1,8.61-16.53,43.72,43.72,0,0,1,9.63-9.63,21.72,21.72,0,0,1,9.52-3.9,16.69,16.69,0,0,1,8.32.8,9.56,9.56,0,0,1,4.51,3.41,14.08,14.08,0,0,1,2.1,4.81c.67-1.34,1.27-2.68,1.81-4,.26-.54.53-1.07.8-1.61a5,5,0,0,1,1.2-2,7.14,7.14,0,0,1,1.4-1.4,1.73,1.73,0,0,1,1.81-.2,26.64,26.64,0,0,1,4.81,2.4,23.56,23.56,0,0,1,5.61,4.81,3.6,3.6,0,0,1,1,2,6.92,6.92,0,0,1-.1,2.6,13.49,13.49,0,0,1-1.5,3.81c-.53.94-1.34,2.41-2.4,4.41s-2.24,4.31-3.51,6.92-2.51,5.34-3.71,8.22a65.23,65.23,0,0,0-2.81,8,19.25,19.25,0,0,0-.8,6.32c.13,1.73.87,2.8,2.21,3.21s3,.1,4.71-1.31a34,34,0,0,0,4.91-5.21,49,49,0,0,0,4.31-6.61l3.1-5.72a3.57,3.57,0,0,1,1-1.6A4.27,4.27,0,0,1,157.42,147.2Zm-34.27-4.41a36.48,36.48,0,0,0,1.4-6.72,10.55,10.55,0,0,0-.3-4,4,4,0,0,0-1.2-2,9,9,0,0,0-1.11-.7,5.49,5.49,0,0,0-2-.1,7.68,7.68,0,0,0-3.71,1.9,29.54,29.54,0,0,0-5.31,6,80.36,80.36,0,0,0-6.82,12.43q-3.81,8.42-4.61,12.83a20.18,20.18,0,0,0-.4,6.62,3.35,3.35,0,0,0,2.61,2.8c2.53.4,5-.77,7.41-3.51a56.79,56.79,0,0,0,6.62-9.32,116.13,116.13,0,0,0,6.62-14,.55.55,0,0,1,.2-.4Z"/><path class="cls-3" d="M172.86,139.18Q171.26,143,170,147.1c-.87,2.74-1.77,5.64-2.7,8.72-.14.53-.34,1.33-.61,2.4s-.53,2.21-.8,3.41a33.06,33.06,0,0,0-.6,3.51,10.75,10.75,0,0,0,0,2.9,4.77,4.77,0,0,0,1.2,3,117.07,117.07,0,0,0,10.13-13.93q5.12-8.12,9.52-16.34t7.72-15.23l4.91-10.43a1.86,1.86,0,0,1,1-1.4q1.6-.8,3.61,1a14.86,14.86,0,0,1,4.51,7,16.75,16.75,0,0,1,.5,6.41,21.44,21.44,0,0,1-2.21,6.62,105.3,105.3,0,0,1-9,14.73,117.19,117.19,0,0,1-9.82,11.73,169.21,169.21,0,0,1-12.73,11.93,126.07,126.07,0,0,1-10.32,7.91c-2.41,1.61-4.61,2.27-6.62,2a6.35,6.35,0,0,1-3.3-1.21,10,10,0,0,1-1.91-1.8,10.09,10.09,0,0,1-1.9-3.91c-.33-1.4-.63-2.84-.9-4.31a27.16,27.16,0,0,1,.4-7.92c.53-3,.93-5.31,1.2-6.91q2-7.62,3.61-13c.53-1.87,1.1-3.68,1.7-5.41s1.1-3.28,1.5-4.61a8,8,0,0,0,1-2.81c.66-2.14,1.37-4.18,2.1-6.11s1.44-3.64,2.11-5.12,1.27-3.13,1.8-4.61a.61.61,0,0,1,.2-.4,3.51,3.51,0,0,1,.4-1,5.44,5.44,0,0,1,1.31-1.6,2,2,0,0,1,2.1-.4,23.24,23.24,0,0,1,4.51,1.9,22,22,0,0,1,5.51,4.11,2.14,2.14,0,0,1,.4.8,6.85,6.85,0,0,1,.41,1.1,5.62,5.62,0,0,1,.2,1.51,10,10,0,0,1-1.41,4.61.4.4,0,0,1-.1.3.4.4,0,0,0-.1.3l-1.2,2.51c-.67,1.4-1.27,2.64-1.81,3.7s-.87,2.21-1.4,3.41S173.13,138.38,172.86,139.18Z"/><path class="cls-3" d="M206.33,146.39A64.73,64.73,0,0,1,215,129.86a43.72,43.72,0,0,1,9.63-9.63,21.72,21.72,0,0,1,9.52-3.9,16.69,16.69,0,0,1,8.32.8,9.43,9.43,0,0,1,4.91,4.11,16.11,16.11,0,0,1,1.9,5.71,21.15,21.15,0,0,1,.3,2.21,13,13,0,0,1-.1,2.8,41.14,41.14,0,0,1-1.4,7.32,29.14,29.14,0,0,1-4.41,9.12,35.93,35.93,0,0,1-9.12,8.72q-5.91,4.11-15.74,5.91a18.32,18.32,0,0,0,.4,6.62c.54,2.13,2.07,3.67,4.61,4.61a4.11,4.11,0,0,0,1.81.4h.2l.2.2a19.48,19.48,0,0,0,6.82-.4,24.31,24.31,0,0,0,5.91-2.31,26.17,26.17,0,0,0,4.81-3.4,51.85,51.85,0,0,0,3.71-3.71,9.76,9.76,0,0,0,.7-.8,7.22,7.22,0,0,1,.7-.81c.8-1.06,1.27-1.67,1.4-1.8a62.45,62.45,0,0,0,4-6.21c1.21-2.14,2.14-3.95,2.81-5.42a3.54,3.54,0,0,1,1-1.6,4.3,4.3,0,0,1,3.61-1.2,2.47,2.47,0,0,1,1.5,1,3.1,3.1,0,0,1,.31,1.4,4.91,4.91,0,0,1-.41,1.81c-.67,1.33-1.43,2.9-2.3,4.71a62.54,62.54,0,0,1-3.31,5.91,34.1,34.1,0,0,1-3.81,6.21c-.27.41-.57.84-.9,1.31s-.77,1-1.3,1.7a67.45,67.45,0,0,1-9.92,9.12,24.44,24.44,0,0,1-13.94,4.91,18.11,18.11,0,0,1-5.41,0q-7.42-.79-11.53-3.41a16.83,16.83,0,0,1-6.11-6.41,18.66,18.66,0,0,1-2.1-7.42,35.25,35.25,0,0,1,.3-8v-.2A72.19,72.19,0,0,1,206.33,146.39Zm16.84,3.21c-.53,1.07-1,2-1.3,2.81s-.64,1.6-.9,2.4a21.75,21.75,0,0,0,9.22-3.4,29.86,29.86,0,0,0,6.41-5.82,26,26,0,0,0,3.91-6.31,19.07,19.07,0,0,0,1.51-5.11c.26-2.41,0-3.84-.7-4.31a3.77,3.77,0,0,0-1.51-.7,6.79,6.79,0,0,0-2.6.7,13,13,0,0,0-3.71,2.8,38.19,38.19,0,0,0-4.71,6.12A78.78,78.78,0,0,0,223.17,149.6Z"/><path class="cls-3" d="M305.56,181.27a12.65,12.65,0,0,1-4.41,1.51,16.61,16.61,0,0,1-4,.1,18.14,18.14,0,0,1-4-.8,9.56,9.56,0,0,1-5.11-5.32,25.34,25.34,0,0,1-1.7-8.52,49.84,49.84,0,0,1-10.13,10.63,15.22,15.22,0,0,1-11.52,3.41h-.6q-5.42-.81-7.62-4.61a19.69,19.69,0,0,1-2.61-8,27.21,27.21,0,0,1,.1-6.92,58.26,58.26,0,0,1,1.11-5.91c.67-2.41,1.27-4.71,1.8-6.92s1.07-4.24,1.6-6.11,1.31-3.68,1.91-5.41,1.1-3.21,1.5-4.41a5,5,0,0,0,.5-1.51,5.08,5.08,0,0,1,.5-1.5q1-3.21,2.11-6.11c.73-1.94,1.43-3.64,2.1-5.12s1.27-3.13,1.81-4.61a.57.57,0,0,1,.2-.4,3.51,3.51,0,0,1,.4-1,5.39,5.39,0,0,1,1.3-1.6,2,2,0,0,1,2.11-.4,22.86,22.86,0,0,1,4.51,1.9,17.8,17.8,0,0,1,5.31,4.31,6.34,6.34,0,0,1,.6.8,8,8,0,0,1,.4,1,4.57,4.57,0,0,1,.2,1.41,10.08,10.08,0,0,1-1.4,4.61.45.45,0,0,1-.1.3.4.4,0,0,0-.1.3,10.81,10.81,0,0,0-1.31,2.5c-.6,1.41-1.17,2.65-1.7,3.71s-1,2.21-1.5,3.41-.9,2.21-1.31,3q-1.39,3.81-2.7,7.92c-.87,2.74-1.77,5.64-2.71,8.72a38.17,38.17,0,0,0-1.3,4.81,13.94,13.94,0,0,0-.3,5.41c.13,2,.67,3.21,1.6,3.61a1.4,1.4,0,0,0,1.4.4c1.88.26,3.84-.8,5.92-3.21a51.19,51.19,0,0,0,5.81-8.42c1.81-3.21,3.41-6.34,4.81-9.42s2.31-5.14,2.71-6.21c1.07-3.08,2.13-6,3.21-8.72s2.07-5.18,3-7.32q1.6-3.61,3.21-6.82a5.07,5.07,0,0,1,1.2-2,6.93,6.93,0,0,1,1.41-1.4,1.71,1.71,0,0,1,1.8-.2,31.24,31.24,0,0,1,4.61,2.4,30.05,30.05,0,0,1,5.81,4.61,6.18,6.18,0,0,1,.81,2.21,7.14,7.14,0,0,1-.1,2.6,13.56,13.56,0,0,1-1.51,3.81q-.8,1.41-2.4,4.41c-1.07,2-2.24,4.31-3.51,6.92s-2.51,5.34-3.71,8.22a55.28,55.28,0,0,0-2.71,8,23.55,23.55,0,0,0-.8,6.32c.07,1.73.77,2.8,2.11,3.21a5.54,5.54,0,0,0,4.91-1.41,28.52,28.52,0,0,0,4.91-5.21,55.15,55.15,0,0,0,4.31-6.72l3.11-5.71a3.45,3.45,0,0,1,1-1.6,4.34,4.34,0,0,1,3.61-1,1.9,1.9,0,0,1,1.5.8,3.1,3.1,0,0,1,.3,1.4,6.55,6.55,0,0,1-.4,2c-.8,1.73-1.94,4-3.41,6.81a99,99,0,0,1-5.11,8.62,88,88,0,0,1-6.31,8.42A25.93,25.93,0,0,1,305.56,181.27Z"/><path class="cls-3" d="M341.24,139q-1,2.61-2,5.41l-2,5.61q3.81-6.41,8.32-13.13a113.44,113.44,0,0,1,9-11.82,39.32,39.32,0,0,1,8.82-7.72q4.31-2.61,7.92-.8a38.44,38.44,0,0,1,4.41,2.4,24.32,24.32,0,0,1,5,4.21,6.16,6.16,0,0,1,.8,2.21,8.6,8.6,0,0,1,0,2.6,11.14,11.14,0,0,1-1.4,3.81c-.8,1.2-2.11,3.54-3.91,7S372.64,146,370.91,150a2.43,2.43,0,0,1-2.41,1.21,13.36,13.36,0,0,1-3.81-.61c-1.33-.4-2.67-.86-4-1.4l-3-1.2a2.92,2.92,0,0,1-1.81-1.91,10.56,10.56,0,0,1-.2-1.7q1.21-3.4,2.41-6.62c.8-2.13,1.6-4.14,2.4-6l-.4.2a103.22,103.22,0,0,0-11,13.23,171.05,171.05,0,0,0-10,16,151.53,151.53,0,0,0-10,22.25v.6a1.78,1.78,0,0,1-.9,1.5,3.09,3.09,0,0,1-1.1.3,15.07,15.07,0,0,1-6.32-1.8,15.85,15.85,0,0,1-3.7-3,3.28,3.28,0,0,1-1-2.4,1.88,1.88,0,0,1,0-1.21,68.31,68.31,0,0,1,1-8.31q.79-4.52,1.8-9t2.1-8.72q1.11-4.22,2.11-7.62c.67-1.87,1.3-3.68,1.9-5.41s1.11-3.21,1.51-4.41a5.34,5.34,0,0,0,.5-1.51,4.8,4.8,0,0,1,.5-1.5q1-3.21,2.1-6.11c.74-1.94,1.44-3.64,2.11-5.12s1.27-3.13,1.8-4.61a.61.61,0,0,1,.2-.4,3.88,3.88,0,0,1,.4-1,5.6,5.6,0,0,1,1.31-1.6,2,2,0,0,1,2.1-.4,22.62,22.62,0,0,1,4.51,1.9,17.67,17.67,0,0,1,5.31,4.31,5.34,5.34,0,0,1,.61.8,9.85,9.85,0,0,1,.4,1,4.57,4.57,0,0,1,.2,1.41,10,10,0,0,1-1.41,4.61.4.4,0,0,1-.1.3.45.45,0,0,0-.1.3,10.54,10.54,0,0,0-1.3,2.5c-.6,1.41-1.17,2.65-1.7,3.71s-1,2.21-1.51,3.41S341.51,138.18,341.24,139Z"/><path class="cls-3" d="M387.74,169.25a.55.55,0,0,1,.21.4,8.67,8.67,0,0,1-.41,1.4,2.51,2.51,0,0,0-.6,1.2,6.47,6.47,0,0,0-.2,1.51,2.45,2.45,0,0,0,.5,1.4,2.7,2.7,0,0,0,1.91.9,2.61,2.61,0,0,0,2.7-.6,5.27,5.27,0,0,0,1.21-2.71,15.68,15.68,0,0,0,.1-4c-.14-1.54-.27-3-.4-4.51-.27-3.08-.57-5.88-.91-8.42s-.63-5.15-.9-7.82v-2.41q-1.6,3.21-3.1,5.82c-1,1.73-1.84,3.14-2.51,4.21a4.07,4.07,0,0,1-1.2,1.4,3.21,3.21,0,0,1-1.41.5,1.83,1.83,0,0,1-1.6-.9,3.37,3.37,0,0,1-1.1-1.81,4.34,4.34,0,0,1,.1-1.6,6.79,6.79,0,0,1,.8-1.8q1.2-2.81,2.91-6.42t3.2-7.22c1-2.4,1.94-4.57,2.81-6.51a29.69,29.69,0,0,0,1.7-4.51c.27-2.94.6-5.54,1-7.82s.93-3.67,1.6-4.21a12.78,12.78,0,0,1,3.71-2.1,28,28,0,0,1,5-1.41,38.54,38.54,0,0,1,5.51-.6,46.35,46.35,0,0,1,5.21.1,3.65,3.65,0,0,1,1.61,1.21,5.09,5.09,0,0,1,.4,2.2,14.2,14.2,0,0,1-1,4.21A35.34,35.34,0,0,0,412.7,124q-.9,3.51-1.6,7.82a63.94,63.94,0,0,0-.8,9.12,58.79,58.79,0,0,0,.5,9.22q.79,4.62,1.6,10.73a38.2,38.2,0,0,1-.2,11.72,18.28,18.28,0,0,1-5,9.73q-4,4.1-13,4.51a20.36,20.36,0,0,1-9-1.41,11.71,11.71,0,0,1-5.41-4.21q-2.21-3-1-8.82a10.5,10.5,0,0,1,1.61-4.11,5,5,0,0,1,1.6-1.5.82.82,0,0,1,.6-.2,10.54,10.54,0,0,1,2,.2,18.45,18.45,0,0,1,1.9.9A2.89,2.89,0,0,1,387.74,169.25Z"/><path class="cls-4" d="M122,108.74a19.51,19.51,0,0,1-6.23-1.6,17.93,17.93,0,0,1-4.47-2.93,13.5,13.5,0,0,1-2.9-3.72,17.21,17.21,0,0,1-1.52-4.2,18.48,18.48,0,0,1-.38-6.42A10.37,10.37,0,0,1,109,84.31a1.6,1.6,0,0,0,.29-.38h.09c.38-.37.8-.75,1.24-1.13a9.21,9.21,0,0,1,1.52-1,14.63,14.63,0,0,1,1.9-.85,9,9,0,0,1,2-.37,8.58,8.58,0,0,1,2.47.19,1.85,1.85,0,0,1,1.71,2.07,1.61,1.61,0,0,1-.23.85,7.18,7.18,0,0,0-.43.75l-.57.76a6.63,6.63,0,0,0-1,1.41,18.44,18.44,0,0,0-1,1.75,16.6,16.6,0,0,0-.86,2.22,15,15,0,0,0-.57,3.2,11.64,11.64,0,0,0,.19,2.88,6.44,6.44,0,0,0,1.34,2.88,2.67,2.67,0,0,0,.42.66,7.87,7.87,0,0,0,1.33,1.27,9.37,9.37,0,0,0,2.33,1.27,10.56,10.56,0,0,0,3.43.66,10.7,10.7,0,0,0,4.56-.66,8.77,8.77,0,0,0,2.85-1.79,7.14,7.14,0,0,0,1.62-2.12,14.65,14.65,0,0,0,1-2.59,16.62,16.62,0,0,0,.52-2.6,11.3,11.3,0,0,0,.05-2.22,16.43,16.43,0,0,0-1.43-4.85q-1.14-2.5-2.38-4.67-1.52-2.46-3.23-4.81A38.93,38.93,0,0,1,124.32,71a22.78,22.78,0,0,1-2.24-6.79,21,21,0,0,1,.19-7.4,23.38,23.38,0,0,1,3.24-7.83,17.22,17.22,0,0,1,5.42-5.76,16.56,16.56,0,0,1,5.61-2.26,18.35,18.35,0,0,1,6.18-.09,11.3,11.3,0,0,1,3.52,1.41,16.75,16.75,0,0,1,3.09,2.31,15.46,15.46,0,0,1,2.8,3.63A17.37,17.37,0,0,1,153.84,53a17.58,17.58,0,0,1,0,6.32,23.05,23.05,0,0,1-1.52,5.1,40.79,40.79,0,0,1-2.19,4.9,29.19,29.19,0,0,1-2.94,4.53,7.58,7.58,0,0,1-1.76,1.56,1.66,1.66,0,0,1-2.14,0,10,10,0,0,1-1.57-1.79,14,14,0,0,1-1.38-2.4,7.61,7.61,0,0,1-.66-2.6,4,4,0,0,1,.57-2.45,11,11,0,0,1,.66-1.13l.76-1.13A22.57,22.57,0,0,0,144,59.31a13.63,13.63,0,0,0,.91-4.71,7.43,7.43,0,0,0-1.15-4.06,6.25,6.25,0,0,0-3.7-2.54,5.67,5.67,0,0,0-2.95,0,6.27,6.27,0,0,0-4.57,4.15,33.46,33.46,0,0,0-1.33,4.1,16.56,16.56,0,0,0-.47,4.81,25.76,25.76,0,0,0,.9,5.66,27.85,27.85,0,0,0,2.71,6.46q2.19,3.78,3.9,7.45a61.54,61.54,0,0,1,2.76,6.7,25.44,25.44,0,0,1,1.42,6.32,14.84,14.84,0,0,1-.19,3.11,13.68,13.68,0,0,1-1.52,4.53,16.18,16.18,0,0,1-3.61,4.48,13.18,13.18,0,0,1-6.47,2.88A30.27,30.27,0,0,1,122,108.74Z"/><path class="cls-4" d="M181,87.14a1.14,1.14,0,0,1,1,1.13,2.44,2.44,0,0,1-.19.85c-.38.82-.94,1.9-1.67,3.25s-1.55,2.73-2.47,4.11a40,40,0,0,1-2.95,3.91,11.69,11.69,0,0,1-3.28,2.78,5.28,5.28,0,0,1-2.09.81,7.67,7.67,0,0,1-1.9,0,8.77,8.77,0,0,1-1.9-.37,4.81,4.81,0,0,1-2.62-2.64,10.36,10.36,0,0,1-.61-4.25A19.71,19.71,0,0,1,157.5,102a7.55,7.55,0,0,1-5,1.7,8.39,8.39,0,0,1-3.37-1,5.65,5.65,0,0,1-2.57-2.78,11,11,0,0,1-.76-5.14,27,27,0,0,1,1.95-8A29.93,29.93,0,0,1,151.85,79a20.65,20.65,0,0,1,4.56-4.53,10.47,10.47,0,0,1,4.52-1.84,8,8,0,0,1,3.94.38,4.53,4.53,0,0,1,2.14,1.6,6.6,6.6,0,0,1,1,2.27c.32-.63.6-1.26.86-1.89.12-.25.25-.5.38-.75a2.28,2.28,0,0,1,.57-1,3.44,3.44,0,0,1,.66-.66.83.83,0,0,1,.86-.09,12.32,12.32,0,0,1,2.28,1.13,11,11,0,0,1,2.66,2.27,1.67,1.67,0,0,1,.48.94,3.25,3.25,0,0,1,0,1.22,6.1,6.1,0,0,1-.71,1.8q-.39.66-1.14,2.07c-.51,1-1.07,2-1.67,3.26s-1.19,2.51-1.76,3.86a30.94,30.94,0,0,0-1.33,3.78,8.93,8.93,0,0,0-.38,3,1.51,1.51,0,0,0,1.05,1.51,2.24,2.24,0,0,0,2.23-.62,15.74,15.74,0,0,0,2.33-2.45,23.54,23.54,0,0,0,2-3.11l1.47-2.69a1.59,1.59,0,0,1,.48-.75A2,2,0,0,1,181,87.14Zm-16.26-2.08a16.77,16.77,0,0,0,.66-3.15A4.71,4.71,0,0,0,165.3,80a1.85,1.85,0,0,0-.57-.94,4,4,0,0,0-.52-.33,2.59,2.59,0,0,0-1,0,3.68,3.68,0,0,0-1.76.89A14.1,14.1,0,0,0,159,82.42a38.25,38.25,0,0,0-3.24,5.85,28.68,28.68,0,0,0-2.18,6,9.12,9.12,0,0,0-.19,3.11,1.57,1.57,0,0,0,1.23,1.32c1.21.19,2.38-.36,3.52-1.65a27.52,27.52,0,0,0,3.14-4.38,54.9,54.9,0,0,0,3.14-6.61.3.3,0,0,1,.09-.19Z"/><path class="cls-4" d="M191.59,75.92a1.73,1.73,0,0,1,.48.94,3.47,3.47,0,0,1,0,1.22,6.39,6.39,0,0,1-.71,1.8c-.26.44-.64,1.13-1.15,2.07s-1.06,2-1.66,3.26-1.19,2.51-1.76,3.86a30.94,30.94,0,0,0-1.33,3.78,8.93,8.93,0,0,0-.38,3,1.51,1.51,0,0,0,1.05,1.51,2.24,2.24,0,0,0,2.23-.62,15.74,15.74,0,0,0,2.33-2.45,22.52,22.52,0,0,0,2-3.11l1.48-2.69a1.64,1.64,0,0,1,.47-.75,2.07,2.07,0,0,1,1.71-.57,1.14,1.14,0,0,1,1,1.13,2.44,2.44,0,0,1-.19.85c-.38.82-.94,1.9-1.67,3.25s-1.55,2.73-2.47,4.11a40,40,0,0,1-2.95,3.91,11.69,11.69,0,0,1-3.28,2.78,5.33,5.33,0,0,1-2.09.81,7.67,7.67,0,0,1-1.9,0,8.77,8.77,0,0,1-1.9-.37,4.73,4.73,0,0,1-2.48-2.46,10,10,0,0,1-.8-3.86,21.25,21.25,0,0,1,.47-4.77q.53-2.59,1.28-5.14a99.92,99.92,0,0,1,5.23-13.2,2.41,2.41,0,0,1,.58-1,3.44,3.44,0,0,1,.66-.66.83.83,0,0,1,.86-.09,12.32,12.32,0,0,1,2.28,1.13A11,11,0,0,1,191.59,75.92Zm-2.66-6.23a2.77,2.77,0,0,1-.67-2.69,9.8,9.8,0,0,1,.86-2.4,15.68,15.68,0,0,1,.9-1.32,12.54,12.54,0,0,0,.72-1l.57-.85a4.88,4.88,0,0,1,.95-1,2.89,2.89,0,0,1,1-.52,1.39,1.39,0,0,1,1.14.33,9,9,0,0,1,1.38,1.23,10.74,10.74,0,0,1,1.42,1.89,7.11,7.11,0,0,1,.86,2.21,3.16,3.16,0,0,1-.33,2.22c-.26.38-.62.88-1.1,1.51s-1.12,1.48-2,2.54a1.38,1.38,0,0,1-1.23.52,4.27,4.27,0,0,1-1.62-.47,10.32,10.32,0,0,1-1.62-1A7.63,7.63,0,0,1,188.93,69.69Z"/><path class="cls-4" d="M201.67,88.74q1.8-3.1,4-6.27a51.48,51.48,0,0,1,4.32-5.61,20.11,20.11,0,0,1,4.23-3.73,3.68,3.68,0,0,1,3.76-.42,14.85,14.85,0,0,1,2.18,1.13,9.39,9.39,0,0,1,2.29,2,2.23,2.23,0,0,1,.47,1,3.05,3.05,0,0,1-.05,1.22,6.1,6.1,0,0,1-.71,1.8q-.37.66-1.14,2.07c-.51,1-1.06,2-1.66,3.26s-1.19,2.51-1.76,3.86a26.08,26.08,0,0,0-1.29,3.78,11.25,11.25,0,0,0-.38,3,1.45,1.45,0,0,0,1,1.51,2.64,2.64,0,0,0,2.28-.66,11.5,11.5,0,0,0,2.33-2.46,35,35,0,0,0,2-3.16c.63-1.09,1.11-2,1.42-2.68a1.79,1.79,0,0,1,.48-.76,2.08,2.08,0,0,1,1.71-.47.94.94,0,0,1,.95,1,3,3,0,0,1-.19.94c-.38.82-.93,1.89-1.66,3.21s-1.56,2.67-2.47,4a46.94,46.94,0,0,1-2.95,4,11.69,11.69,0,0,1-3.28,2.82,6,6,0,0,1-2.09.71,7.78,7.78,0,0,1-1.91.05,8.31,8.31,0,0,1-1.9-.38,4.84,4.84,0,0,1-2.9-3.77,19.54,19.54,0,0,1-.05-6.23,37.94,37.94,0,0,1,1.72-7.12q1.23-3.63,2.37-6.55l-.09.09a38.32,38.32,0,0,0-5.33,6.23,70.92,70.92,0,0,0-4.8,7.68,74,74,0,0,0-4.7,10.62.86.86,0,0,1-.43.7,1.39,1.39,0,0,1-.52.14,7.69,7.69,0,0,1-3-.84,5.86,5.86,0,0,1-1.71-1.42,1.52,1.52,0,0,1-.48-1.13.9.9,0,0,1,0-.57,34,34,0,0,1,.48-3.91c.25-1.42.54-2.83.86-4.25s.65-2.78,1-4.1.69-2.51,1-3.58c.32-.88.62-1.73.91-2.55s.52-1.51.71-2.08a9,9,0,0,1,.47-1.41c.32-1,.65-2,1-2.88s.68-1.71,1-2.4.6-1.48.86-2.17a.28.28,0,0,1,.09-.19,1.92,1.92,0,0,1,.19-.47,2.77,2.77,0,0,1,.62-.76,1,1,0,0,1,1-.19,11.35,11.35,0,0,1,2.14.9,8.39,8.39,0,0,1,2.52,2,2.46,2.46,0,0,1,.28.38,2.4,2.4,0,0,1,.19.47,1.91,1.91,0,0,1,.1.66,4.62,4.62,0,0,1-.67,2.17.2.2,0,0,1,0,.14.16.16,0,0,0,0,.14,5.14,5.14,0,0,0-.62,1.18q-.44,1-.81,1.74c-.25.51-.51,1-.76,1.61s-.44,1-.57,1.41l-.95,2.64C202.3,86.79,202,87.74,201.67,88.74Z"/><path class="cls-4" d="M236.85,74.88a76.45,76.45,0,0,0-2.95,7.64c-.89,2.7-1.68,5.6-2.38,8.68a14.8,14.8,0,0,0-.37,4.43.2.2,0,0,0,0,.14.38.38,0,0,1,.05.24,1.57,1.57,0,0,0,.95,1.32,2.64,2.64,0,0,0,2.28-.66,11.5,11.5,0,0,0,2.33-2.46,35,35,0,0,0,2-3.16c.63-1.09,1.11-2,1.42-2.68a3.14,3.14,0,0,1,.57-.76,1.94,1.94,0,0,1,1.62-.47.94.94,0,0,1,.95,1,3,3,0,0,1-.19.94q-.76,1.6-2.38,4.48a47.57,47.57,0,0,1-3.61,5.52c-.38.38-.73.75-1,1.13a13,13,0,0,1-1.9,1.89.77.77,0,0,1-.19.14.51.51,0,0,0-.19.23,13.43,13.43,0,0,1-1.42.71,5.94,5.94,0,0,1-1.72.43,3.54,3.54,0,0,1-1.33-.1,4.38,4.38,0,0,1-2.75-2,12.39,12.39,0,0,1-1.43-3.34,24.16,24.16,0,0,1-.57-4.53,14.79,14.79,0,0,1-.05-2c0-.63.08-1.29.14-2,.13-1.39.32-2.72.57-4a32.52,32.52,0,0,1,.86-3.44,27.43,27.43,0,0,1,1-3.31c1.21-3.45,2.44-6.68,3.71-9.66s2.53-5.81,3.8-8.45q-6.47,0-12.83,0t-12.84,0c-.7,0-1.14-.15-1.33-.47a2.73,2.73,0,0,1-.29-.56,4.73,4.73,0,0,1,.29-2.88,4.12,4.12,0,0,1,1.76-1.84,8.09,8.09,0,0,1,2.71-.9,15.5,15.5,0,0,1,3.14-.14q5.7.18,11.22.4t11.12.49c1.08-2,2.08-3.76,3-5.37s1.72-2.94,2.42-4c.76-1.25,1.49-2.36,2.19-3.3a6,6,0,0,1,1.14-1,3.22,3.22,0,0,1,1.09-.56,1.45,1.45,0,0,1,1.29.28,11.31,11.31,0,0,1,1.52,1.32,10.3,10.3,0,0,1,1.66,2.17,7.72,7.72,0,0,1,1,2.59,3.52,3.52,0,0,1-.43,2.5c-.31.51-.85,1.26-1.61,2.27S249.12,54,248,55.45q3.22.19,8.36.34l11.22.35,12.7.4q6.6.2,12.69.34l11.32.3,8.55.25a7.25,7.25,0,0,1,.91.09,7.52,7.52,0,0,1,1.18.28,5.55,5.55,0,0,1,1,.43.69.69,0,0,1,.43.61c0,.25-.28.47-.85.66a11.26,11.26,0,0,1-1.95.43c-.73.09-1.48.15-2.24.19s-1.36,0-1.81,0c-2.22.13-5.05.22-8.51.29l-11.31.18q-6.14.1-12.74.15t-12.74,0H244.36c-1.27,1.89-2.53,4-3.8,6.32S238.05,72.05,236.85,74.88Z"/><path class="cls-4" d="M122.3,230.49v1.29H111.81V213.71h10.36V215h-9v7h8.33v1.29h-8.33v7.18Zm-5.13-18.59H115.9l2.08-3.28h1.56Z"/><path class="cls-4" d="M140.16,219.31a5.48,5.48,0,0,1-5.68,5.57h-4.81v6.9h-1.38V213.71h6.19A5.49,5.49,0,0,1,140.16,219.31Zm-1.38,0a4.15,4.15,0,0,0-4.3-4.31h-4.81v8.59h4.81A4.14,4.14,0,0,0,138.78,219.31Z"/><path class="cls-4" d="M147.55,213.71v18.07h-1.38V213.71Z"/><path class="cls-4" d="M153.64,222.74a9.21,9.21,0,0,1,9.48-9.32,8.9,8.9,0,0,1,7.81,4.34l-1.22.7a7.45,7.45,0,0,0-6.59-3.72,8,8,0,1,0,0,16,7.46,7.46,0,0,0,6.64-3.8l1.22.7a8.9,8.9,0,0,1-7.86,4.41A9.21,9.21,0,0,1,153.64,222.74Z"/><path class="cls-4" d="M187.33,230.49v1.29H176.84V213.71H187.2V215h-9v7h8.33v1.29h-8.33v7.18Z"/><path class="cls-4" d="M200.45,224.37H194.7v7.41h-1.38V213.71h7.18a5.32,5.32,0,0,1,1.38,10.48l4.53,7.59h-1.59Zm-5.75-1.29h5.8a4,4,0,0,0,0-8.08h-5.8Z"/><path class="cls-4" d="M213.26,213.71v18.07h-1.38V213.71Z"/><path class="cls-4" d="M230.88,230.49v1.29H220.39V213.71h10.36V215h-9v7h8.33v1.29h-8.33v7.18Z"/><path class="cls-4" d="M247.81,215v7.22h8.4v1.3h-8.4v8.26h-1.38V213.71h10.1V215Z"/><path class="cls-4" d="M263.89,213.71v18.07h-1.38V213.71Z"/><path class="cls-4" d="M284.38,213.71v18.07h-1.22l-10.75-15.54v15.54H271V213.71h1.19L283,229.25V213.71Z"/><path class="cls-4" d="M302,230.49v1.29H291.52V213.71h10.36V215h-9v7h8.33v1.29H292.9v7.18Z"/></g></g></svg>