<?xml version="1.0" encoding="UTF-8"?><svg xmlns="http://www.w3.org/2000/svg" viewBox="0 0 146.72 146.72"><defs><style>.d{fill:#e6e6e6;}.e,.f{fill:#f5f5f5;}.g{fill:#fcee21;}.f{stroke:#fcee21;}.f,.h{stroke-miterlimit:10;}.h{fill:none;stroke:#e6e6e6;}</style></defs><g id="a"/><g id="b"><g id="c"><g><g><g><rect class="g" x="43.97" y="36.45" width="54.35" height="54.34"/><path class="d" d="M98.1,80.05c-.22,0-.45-.03-.68-.06l-1.62-.22-.27-1.67V42.23l1.74-.12c.38-.05,.6-.08,.83-.08,6.53,0,11.84,5.32,11.84,11.84v14.35c0,6.52-5.31,11.83-11.84,11.83Zm1.19-34.19v30.35c3.9-.57,6.91-3.94,6.91-8v-14.35c0-4.06-3-7.43-6.91-8Z"/><rect class="d" x="42.61" y="93.7" width="57.09" height="9.28"/><path class="d" d="M98.33,90.79H43.97V36.45h54.35v54.34Zm-51.02-3.33h47.69V39.77H47.31v47.69Z"/><rect class="e" x="55.56" y="47.86" width="5" height="34.28"/><rect class="e" x="68.29" y="47.86" width="4.99" height="34.28"/><rect class="e" x="81.75" y="47.86" width="4.99" height="34.28"/><path class="f" d="M96.25,27.75c-.03-.05-.05-.11-.1-.17,.89-1.06,1.46-2.42,1.46-3.93,0-3.41-2.75-6.17-6.17-6.17-2.2,0-4.12,1.17-5.21,2.9-.08-3.68-3.07-6.64-6.77-6.64-1.29,0-2.46,.38-3.49,.99-1.05-.61-2.25-.99-3.55-.99-.61,0-1.17,.1-1.74,.24-1.13-1.09-2.67-1.76-4.38-1.76-3.19,0-5.81,2.35-6.28,5.41-.49-.08-.98-.16-1.49-.16-3.78,0-6.99,2.25-8.48,5.47-.21-.02-.4-.07-.62-.07-1.81,0-3.43,.69-4.67,1.79-.37-.07-.75-.13-1.16-.13-3.08,0-5.57,2.5-5.57,5.57,0,1.3,.46,2.47,1.18,3.41-1.47,.9-2.43,2.33-2.43,3.97,0,2.72,2.63,4.92,5.89,4.92s5.88-2.2,5.88-4.92c0-.66-.15-1.28-.43-1.85,.42,.07,.85,.12,1.31,.12,1.45,0,2.79-.45,3.9-1.2,1.47,1.01,3.26,1.59,5.2,1.59,1.47,0,2.85-.38,4.1-.98,1.49,2.61,4.28,4.39,7.5,4.39,1.6,0,3.07-.45,4.35-1.2,1.23,2.15,3.51,3.61,6.17,3.61,1.52,0,2.93-.48,4.08-1.3,1.17,.54,2.44,.86,3.81,.86,.95,0,1.85-.19,2.71-.45,.41,.07,.84,.13,1.29,.13,4.01,0,7.26-3.25,7.26-7.26,0-2.64-1.44-4.94-3.55-6.21Zm-18.31-.61c.11,.02,.21,.04,.32,.06,.04,.32,.1,.62,.2,.91-.03,.01-.07,.03-.12,.05-.11-.35-.24-.69-.39-1.02Z"/></g><g><g><path d="M15.91,116.36c-.07,.53-.25,1.01-.53,1.44-.28,.43-.66,.81-1.14,1.14-.86,.58-1.83,.86-2.91,.86-.7,0-1.45-.26-2.25-.79-.07-.05-.11-.07-.12-.07-.09,0-.17,.19-.24,.57h-.7l.36-2.46,.74-.36c-.03,.39,0,.73,.1,1.02s.24,.53,.44,.72c.42,.39,.91,.58,1.48,.58,.66,0,1.25-.19,1.79-.56,.26-.18,.47-.39,.62-.63,.15-.24,.24-.51,.29-.81,.11-.72-.23-1.36-1.01-1.92l.02,.02c-.2-.12-.4-.24-.59-.36-.19-.12-.39-.25-.6-.37v.02c-.2-.12-.4-.24-.6-.37-.2-.13-.4-.26-.59-.38-.88-.69-1.25-1.55-1.1-2.56,.14-.99,.63-1.79,1.48-2.42,.4-.3,.83-.52,1.27-.67,.44-.15,.91-.22,1.4-.22,.28,0,.53,.02,.75,.04,.22,.03,.4,.08,.55,.15h-.02c.15,.06,.3,.15,.46,.26s.33,.25,.51,.42c0-.04,0-.1,.02-.2s.04-.23,.07-.39h.72l-.36,2.48-.76,.31c.11-.78-.02-1.35-.38-1.73-.36-.39-.82-.59-1.39-.59s-1.07,.18-1.55,.55c-.22,.18-.41,.39-.55,.61-.14,.23-.23,.47-.26,.74-.09,.68,.26,1.3,1.05,1.86,.4,.25,.81,.51,1.24,.78,.43,.27,.84,.53,1.25,.78,.86,.67,1.22,1.51,1.07,2.51Z"/><path d="M23.62,119.66l.12-.72c.63,0,.98-.16,1.05-.49,.01-.07,.02-.13,.02-.17v-.1l-.33-1.36h-4.3l-.54,1.14c-.05,.08-.08,.17-.11,.25-.03,.09-.05,.16-.06,.23-.05,.33,.25,.49,.91,.49l-.11,.72h-3.49l.12-.72c.28,0,.53-.02,.73-.06,.21-.04,.39-.1,.55-.19s.3-.2,.42-.34c.12-.14,.24-.32,.34-.53l5.34-10.61,2.39,10.61c.04,.21,.1,.38,.19,.52,.08,.14,.2,.26,.33,.35s.31,.15,.5,.19c.2,.04,.43,.06,.7,.06l-.11,.72h-4.68Zm-3.05-3.56h3.73l-1.15-5.16-2.58,5.16Z"/><path d="M29.62,119.66l.11-.72c.18,0,.36-.03,.54-.08,.18-.05,.34-.13,.49-.22,.15-.09,.27-.21,.37-.33s.16-.27,.18-.41l1.15-8.22c.02-.15,0-.29-.06-.41s-.15-.24-.27-.33c-.12-.09-.26-.17-.43-.22s-.34-.08-.52-.08l.11-.72h4.69l-.11,.72c-.19,0-.37,.03-.55,.08-.18,.05-.34,.13-.48,.22-.14,.09-.26,.21-.36,.33s-.16,.27-.18,.41l-1.16,8.22c-.02,.15,0,.29,.06,.41,.06,.13,.15,.24,.27,.33s.26,.17,.43,.22,.34,.08,.53,.08l-.11,.72h-4.69Z"/><path d="M49.79,108.62c-.16,0-.31,.03-.46,.08s-.29,.13-.41,.22c-.12,.09-.23,.21-.31,.33s-.13,.27-.16,.41l-1.5,10.65-6.83-9.76-1.03,7.33c-.02,.15,0,.29,.06,.41s.15,.24,.27,.33,.26,.17,.42,.22c.16,.05,.34,.08,.52,.08l-.11,.72h-3.56l.11-.72c.18,0,.36-.03,.54-.08s.34-.13,.49-.22,.27-.21,.37-.33c.1-.13,.16-.27,.18-.41l1.15-8.22c.02-.15,0-.29-.06-.41s-.15-.24-.27-.33c-.12-.09-.26-.17-.43-.22-.17-.05-.34-.08-.52-.08l.11-.72h2.35l6.06,8.69,.97-6.92c.02-.15,0-.29-.05-.41-.06-.13-.15-.24-.26-.33-.12-.09-.26-.17-.42-.22-.16-.05-.34-.08-.52-.08l.11-.72h3.54l-.07,.51-.26,.21Z"/><path d="M61.49,110.03c.03-.18,.03-.36,0-.53-.03-.17-.08-.32-.16-.45s-.18-.24-.3-.31c-.12-.08-.25-.11-.4-.11h-1.28c-.16,0-.31,.03-.46,.08s-.29,.13-.41,.22c-.12,.09-.23,.21-.31,.33s-.13,.27-.16,.41l-1.15,8.22c-.02,.15,0,.29,.05,.41s.15,.24,.26,.33c.12,.09,.26,.17,.42,.22,.16,.05,.34,.08,.52,.08l-.11,.72h-4.67l.11-.72c.18,0,.36-.03,.54-.08,.18-.05,.34-.13,.48-.22,.14-.09,.26-.21,.35-.33s.15-.27,.18-.41l1.15-8.22c.02-.15,.01-.29-.04-.41-.05-.13-.12-.24-.22-.33-.1-.09-.21-.17-.35-.22s-.29-.08-.44-.08h-1.28c-.15,0-.3,.04-.44,.11s-.26,.18-.37,.31c-.11,.13-.2,.28-.28,.45-.08,.17-.13,.35-.15,.53h-.76l.66-2.13h9.7l.04,2.13h-.74Z"/><path d="M61.43,115.99l.14-1h4.67l-.14,1h-4.67Z"/><path d="M73.39,119.66l.11-.72c.63,0,.98-.16,1.05-.49,.01-.07,.02-.13,.02-.17v-.1l-.33-1.36h-4.3l-.54,1.14c-.05,.08-.08,.17-.11,.25-.03,.09-.04,.16-.06,.23-.05,.33,.25,.49,.91,.49l-.11,.72h-3.49l.11-.72c.28,0,.53-.02,.74-.06,.21-.04,.39-.1,.55-.19,.16-.08,.3-.2,.42-.34,.12-.14,.24-.32,.34-.53l5.33-10.61,2.39,10.61c.04,.21,.1,.38,.19,.52,.08,.14,.2,.26,.33,.35,.14,.09,.3,.15,.5,.19,.2,.04,.43,.06,.7,.06l-.11,.72h-4.67Zm-3.05-3.56h3.73l-1.15-5.16-2.58,5.16Z"/><path d="M88.01,119.66h-8.62l.11-.72c.18,0,.36-.03,.54-.08,.18-.05,.34-.13,.49-.22s.27-.21,.37-.33,.16-.27,.18-.41l1.15-8.22c.02-.15,0-.29-.06-.41-.06-.13-.15-.24-.27-.33-.12-.09-.26-.17-.43-.22s-.34-.08-.52-.08l.11-.72h4.69l-.11,.72c-.19,0-.37,.03-.55,.08s-.34,.13-.48,.22c-.14,.09-.26,.21-.36,.33s-.16,.27-.18,.41l-1.16,8.22c-.02,.15,0,.29,.04,.41s.12,.24,.22,.33c.1,.09,.22,.17,.36,.22s.29,.08,.44,.08h2.69c.15,0,.29-.04,.43-.11,.14-.08,.27-.18,.38-.31s.21-.28,.29-.45,.13-.34,.16-.53h.74l-.65,2.13Z"/><path d="M101.52,116.54c-.17,1.08-.82,1.9-1.95,2.46-.46,.22-.94,.39-1.45,.5s-1.04,.17-1.61,.17h-6.16l.11-.72c.18,0,.36-.04,.54-.09,.18-.05,.34-.13,.49-.22s.27-.2,.37-.33c.1-.13,.16-.26,.18-.41l1.15-8.22c.02-.15,0-.28-.06-.41-.06-.13-.15-.24-.27-.33-.12-.09-.26-.17-.43-.22s-.34-.08-.52-.09l.11-.72h5.83c1.11,0,2.05,.22,2.83,.67,.98,.57,1.4,1.39,1.26,2.46-.06,.4-.2,.77-.4,1.1-.2,.33-.48,.63-.83,.9-.19,.15-.39,.27-.61,.38s-.44,.21-.68,.3c.26,.08,.49,.18,.71,.3,.21,.12,.41,.25,.58,.4,.65,.54,.92,1.25,.81,2.12Zm-2.15,0c.09-.65-.07-1.21-.48-1.67-.41-.48-.94-.72-1.58-.72h-1.92l.11-.72h1.57c.67,0,1.26-.23,1.79-.69,.27-.23,.48-.49,.64-.78,.16-.28,.26-.59,.31-.93,.09-.66-.07-1.22-.48-1.68-.41-.48-.94-.72-1.58-.72h-1.36c-.16,0-.31,.03-.47,.08-.15,.05-.29,.13-.41,.22-.12,.09-.23,.21-.31,.33-.08,.13-.14,.27-.16,.41l-1.16,8.22c-.02,.15,0,.29,.04,.41s.12,.24,.22,.33c.1,.09,.22,.17,.36,.22s.29,.08,.44,.08h1.7c.67,0,1.26-.23,1.79-.69,.27-.23,.48-.5,.64-.78,.16-.29,.26-.6,.31-.93Z"/><path d="M112.77,119.66h-9.32l.11-.72c.18,0,.36-.03,.54-.08,.18-.05,.34-.13,.49-.22s.27-.21,.37-.33,.16-.27,.18-.41l1.15-8.22c.02-.15,0-.29-.06-.41-.06-.13-.15-.24-.27-.33-.12-.09-.26-.17-.43-.22s-.34-.08-.52-.08l.11-.72h9.32l.05,2.13h-.76c.03-.18,.03-.36,0-.53-.03-.17-.08-.32-.16-.45s-.18-.24-.3-.31-.25-.11-.4-.11h-3.39c-.16,0-.31,.03-.47,.08-.15,.05-.29,.13-.41,.22-.12,.09-.23,.21-.31,.33-.08,.13-.14,.27-.16,.41l-.53,3.75h1.77c.15,0,.29-.04,.43-.11s.27-.18,.38-.31c.12-.13,.21-.28,.29-.45,.08-.17,.13-.34,.16-.53h.72l-.5,3.54h-.72c.02-.18,.02-.36,0-.53-.03-.17-.08-.32-.16-.45s-.18-.24-.29-.31-.25-.11-.4-.11h-1.77l-.53,3.75c-.02,.15,0,.29,.04,.41s.12,.24,.22,.33c.1,.09,.22,.17,.36,.22s.29,.08,.44,.08h3.39c.15,0,.29-.04,.43-.11s.27-.18,.38-.31,.21-.28,.29-.45c.08-.17,.13-.34,.16-.53h.76l-.67,2.13Z"/><path d="M127.77,122.49c-.72,0-1.35-.11-1.89-.32-.54-.21-1.01-.54-1.41-.97-.39-.44-.65-.95-.8-1.52s-.17-1.22-.07-1.93l.18-1.21c.09-.65-.07-1.21-.48-1.67-.41-.48-.94-.72-1.58-.72h-1.21l.11-.72h1.57c.67,0,1.26-.23,1.79-.69,.27-.23,.48-.49,.64-.78,.16-.28,.26-.59,.31-.93,.09-.66-.07-1.22-.48-1.68-.41-.48-.94-.72-1.58-.72h-1.36c-.16,0-.31,.03-.47,.08-.15,.05-.29,.13-.41,.22-.12,.09-.23,.21-.31,.33-.08,.13-.14,.27-.16,.41l-1.16,8.22c-.02,.15,0,.29,.06,.41s.15,.24,.27,.33,.26,.17,.43,.22c.16,.05,.34,.08,.53,.08l-.11,.72h-4.69l.11-.72c.18,0,.36-.04,.54-.09,.18-.05,.34-.13,.49-.22s.27-.2,.37-.33c.1-.13,.16-.26,.18-.41l1.15-8.22c.02-.15,0-.28-.06-.41-.06-.13-.15-.24-.27-.33-.12-.09-.26-.17-.43-.22s-.34-.08-.52-.09l.11-.72h5.83c1.11,0,2.05,.22,2.83,.67,.98,.57,1.4,1.39,1.26,2.46-.06,.42-.21,.81-.44,1.16-.23,.35-.54,.66-.94,.92v-.02c-.21,.15-.43,.29-.67,.41-.24,.12-.49,.22-.74,.3,1.27,.46,1.82,1.38,1.65,2.74l-.18,1.19c-.38,2.69,.32,4.04,2.11,4.04h.25l-.08,.51-.25,.21Z"/><path d="M139.14,110.03c.03-.18,.03-.36,0-.53-.03-.17-.08-.32-.16-.45s-.18-.24-.3-.31c-.12-.08-.25-.11-.4-.11h-1.28c-.16,0-.31,.03-.46,.08-.15,.05-.29,.13-.41,.22-.12,.09-.23,.21-.31,.33s-.13,.27-.16,.41l-1.15,8.22c-.02,.15,0,.29,.05,.41s.15,.24,.26,.33,.26,.17,.42,.22c.16,.05,.34,.08,.52,.08l-.11,.72h-4.67l.11-.72c.18,0,.36-.03,.54-.08s.34-.13,.48-.22c.14-.09,.26-.21,.35-.33s.15-.27,.18-.41l1.15-8.22c.02-.15,.01-.29-.04-.41s-.12-.24-.22-.33c-.1-.09-.21-.17-.35-.22s-.29-.08-.44-.08h-1.28c-.15,0-.3,.04-.44,.11s-.26,.18-.37,.31-.2,.28-.28,.45c-.08,.17-.13,.35-.15,.53h-.76l.66-2.13h9.7l.04,2.13h-.74Z"/></g><g><path d="M54.05,134.83c-.08,.54-.41,.94-.97,1.22-.23,.11-.47,.19-.72,.25-.25,.06-.52,.08-.8,.08h-3.06l.05-.36c.09,0,.18-.02,.27-.04,.09-.03,.17-.06,.24-.11,.07-.05,.13-.1,.18-.16,.05-.06,.08-.13,.09-.2l.57-4.09c.01-.07,0-.14-.03-.2-.03-.06-.08-.12-.14-.16-.06-.05-.13-.08-.21-.11-.08-.03-.17-.04-.26-.04l.05-.36h2.9c.55,0,1.02,.11,1.41,.33,.49,.28,.7,.69,.63,1.22-.03,.2-.1,.38-.2,.55s-.24,.32-.41,.45c-.09,.07-.19,.14-.3,.19s-.22,.1-.34,.15c.13,.04,.25,.09,.35,.15,.11,.06,.2,.13,.29,.2,.32,.27,.46,.62,.4,1.05Zm-1.07,0c.04-.32-.04-.6-.24-.83-.2-.24-.47-.36-.79-.36h-.95l.06-.36h.78c.33,0,.63-.11,.89-.34,.13-.12,.24-.25,.32-.39,.08-.14,.13-.3,.16-.46,.04-.33-.04-.61-.24-.84-.2-.24-.47-.36-.79-.36h-.67c-.08,0-.16,.01-.23,.04-.08,.03-.14,.06-.21,.11-.06,.05-.11,.1-.15,.17-.04,.06-.07,.13-.08,.21l-.58,4.09c-.01,.07,0,.14,.02,.21,.02,.06,.06,.12,.11,.17,.05,.05,.11,.08,.18,.11,.07,.03,.14,.04,.22,.04h.84c.33,0,.63-.11,.89-.34,.13-.12,.24-.25,.32-.39,.08-.14,.13-.3,.16-.46Z"/><path d="M61.13,137.79c-.36,0-.67-.05-.94-.16s-.5-.27-.7-.48c-.19-.22-.32-.47-.4-.76-.07-.29-.08-.61-.03-.96l.09-.6c.04-.32-.04-.6-.24-.83-.2-.24-.47-.36-.79-.36h-.6l.06-.36h.78c.33,0,.63-.11,.89-.34,.13-.12,.24-.25,.32-.39,.08-.14,.13-.3,.16-.46,.04-.33-.04-.61-.24-.84-.2-.24-.47-.36-.79-.36h-.67c-.08,0-.16,.01-.23,.04-.08,.03-.14,.06-.21,.11-.06,.05-.11,.1-.15,.17-.04,.06-.07,.13-.08,.21l-.58,4.09c-.01,.07,0,.14,.03,.21,.03,.06,.08,.12,.14,.17,.06,.05,.13,.08,.21,.11,.08,.03,.17,.04,.26,.04l-.05,.36h-2.33l.05-.36c.09,0,.18-.02,.27-.04,.09-.03,.17-.06,.24-.11,.07-.05,.13-.1,.18-.16,.05-.06,.08-.13,.09-.2l.57-4.09c.01-.07,0-.14-.03-.2-.03-.06-.08-.12-.14-.16-.06-.05-.13-.08-.21-.11-.08-.03-.17-.04-.26-.04l.05-.36h2.9c.55,0,1.02,.11,1.41,.33,.49,.28,.7,.69,.63,1.22-.03,.21-.1,.4-.22,.58-.11,.18-.27,.33-.47,.46h0c-.1,.07-.21,.13-.33,.19s-.24,.11-.37,.15c.63,.23,.91,.68,.82,1.36l-.09,.59c-.19,1.34,.16,2.01,1.05,2.01h.13l-.04,.25-.12,.1Z"/><path d="M64.47,136.38l.06-.36c.31,0,.49-.08,.52-.25,0-.04,0-.06,0-.08v-.05l-.16-.67h-2.14l-.27,.56s-.04,.08-.05,.12-.02,.08-.03,.12c-.03,.16,.12,.25,.45,.25l-.05,.36h-1.73l.06-.36c.14,0,.26,0,.37-.03,.1-.02,.19-.05,.27-.09,.08-.04,.15-.1,.21-.17,.06-.07,.12-.16,.17-.27l2.65-5.27,1.19,5.27c.02,.1,.05,.19,.09,.26s.1,.13,.17,.17c.07,.04,.15,.08,.25,.09,.1,.02,.21,.03,.35,.03l-.05,.36h-2.32Zm-1.51-1.77h1.86l-.57-2.56-1.28,2.56Z"/><path d="M71.38,134.74c-.03,.26-.12,.5-.26,.72-.14,.21-.33,.4-.57,.57-.43,.29-.91,.43-1.44,.43-.35,0-.72-.13-1.12-.39-.03-.02-.05-.03-.06-.03-.04,0-.08,.09-.12,.28h-.35l.18-1.23,.37-.18c-.01,.19,0,.36,.05,.51,.05,.15,.12,.27,.22,.36,.21,.19,.45,.29,.74,.29,.33,0,.62-.09,.89-.28,.13-.09,.23-.2,.31-.31,.07-.12,.12-.25,.14-.4,.05-.36-.12-.68-.5-.95h0c-.1-.05-.2-.11-.29-.17-.1-.06-.2-.12-.3-.18h0c-.1-.05-.2-.11-.3-.18-.1-.07-.2-.13-.29-.19-.44-.34-.62-.77-.55-1.27,.07-.49,.32-.89,.74-1.2,.2-.15,.41-.26,.63-.33,.22-.07,.45-.11,.7-.11,.14,0,.26,0,.37,.02s.2,.04,.27,.07h0c.07,.03,.15,.08,.23,.13,.08,.06,.17,.13,.26,.21,0-.02,0-.05,0-.1,0-.05,.02-.11,.04-.2h.36l-.18,1.23-.38,.15c.05-.38-.01-.67-.19-.86-.18-.2-.41-.29-.69-.29s-.53,.09-.77,.28c-.11,.09-.2,.19-.27,.3-.07,.11-.11,.24-.13,.37-.04,.34,.13,.65,.52,.92,.2,.12,.4,.25,.62,.39,.21,.13,.42,.26,.62,.39,.43,.34,.61,.75,.53,1.25Z"/><path d="M76.28,134.74c-.03,.26-.12,.5-.26,.72-.14,.21-.33,.4-.57,.57-.43,.29-.91,.43-1.44,.43-.35,0-.72-.13-1.12-.39-.03-.02-.05-.03-.06-.03-.04,0-.08,.09-.12,.28h-.35l.18-1.23,.37-.18c-.01,.19,0,.36,.05,.51,.05,.15,.12,.27,.22,.36,.21,.19,.45,.29,.74,.29,.33,0,.62-.09,.89-.28,.13-.09,.23-.2,.31-.31,.07-.12,.12-.25,.14-.4,.05-.36-.12-.68-.5-.95h0c-.1-.05-.2-.11-.29-.17-.1-.06-.2-.12-.3-.18h0c-.1-.05-.2-.11-.3-.18-.1-.07-.2-.13-.29-.19-.44-.34-.62-.77-.55-1.27,.07-.49,.32-.89,.74-1.2,.2-.15,.41-.26,.63-.33,.22-.07,.45-.11,.7-.11,.14,0,.26,0,.37,.02s.2,.04,.27,.07h0c.07,.03,.15,.08,.23,.13,.08,.06,.17,.13,.26,.21,0-.02,0-.05,0-.1,0-.05,.02-.11,.04-.2h.36l-.18,1.23-.38,.15c.05-.38-.01-.67-.19-.86-.18-.2-.41-.29-.69-.29s-.53,.09-.77,.28c-.11,.09-.2,.19-.27,.3-.07,.11-.11,.24-.13,.37-.04,.34,.13,.65,.52,.92,.2,.12,.4,.25,.62,.39,.21,.13,.42,.26,.62,.39,.43,.34,.61,.75,.53,1.25Z"/><path d="M81.87,136.38h-4.63l.05-.36c.09,0,.18-.01,.27-.04,.09-.03,.17-.06,.24-.11,.07-.05,.13-.1,.18-.17,.05-.06,.08-.13,.09-.21l.57-4.09c.01-.07,0-.14-.03-.21-.03-.06-.08-.12-.14-.17-.06-.05-.13-.08-.21-.11-.08-.03-.17-.04-.26-.04l.05-.36h4.63l.03,1.06h-.38c.01-.09,.01-.18,0-.26-.01-.08-.04-.16-.08-.23-.04-.07-.09-.12-.15-.16s-.13-.06-.2-.06h-1.69c-.08,0-.16,.01-.23,.04-.08,.03-.14,.06-.21,.11-.06,.05-.11,.1-.15,.17-.04,.06-.07,.13-.08,.21l-.26,1.86h.88c.07,0,.14-.02,.21-.06,.07-.04,.13-.09,.19-.16,.06-.07,.1-.14,.14-.22s.06-.17,.08-.26h.36l-.25,1.76h-.36c.01-.09,0-.18,0-.26-.01-.08-.04-.16-.08-.22-.04-.07-.09-.12-.15-.16-.06-.04-.12-.06-.2-.06h-.88l-.26,1.86c-.01,.07,0,.14,.02,.21,.02,.06,.06,.12,.11,.17,.05,.05,.11,.08,.18,.11,.07,.03,.14,.04,.22,.04h1.68c.07,0,.14-.02,.21-.06,.07-.04,.13-.09,.19-.16,.06-.07,.1-.14,.14-.22,.04-.08,.07-.17,.08-.26h.38l-.33,1.06Z"/><path d="M89.33,137.79c-.36,0-.67-.05-.94-.16s-.5-.27-.7-.48c-.19-.22-.33-.47-.4-.76-.07-.29-.08-.61-.03-.96l.09-.6c.04-.32-.04-.6-.24-.83-.2-.24-.47-.36-.79-.36h-.6l.06-.36h.78c.33,0,.63-.11,.89-.34,.13-.12,.24-.25,.32-.39s.13-.3,.16-.46c.04-.33-.04-.61-.24-.84-.2-.24-.47-.36-.79-.36h-.67c-.08,0-.16,.01-.23,.04-.08,.03-.14,.06-.21,.11s-.11,.1-.15,.17c-.04,.06-.07,.13-.08,.21l-.58,4.09c-.01,.07,0,.14,.03,.21,.03,.06,.08,.12,.14,.17,.06,.05,.13,.08,.21,.11,.08,.03,.17,.04,.26,.04l-.05,.36h-2.33l.05-.36c.09,0,.18-.02,.27-.04,.09-.03,.17-.06,.24-.11s.13-.1,.18-.16c.05-.06,.08-.13,.09-.2l.57-4.09c.01-.07,0-.14-.03-.2-.03-.06-.08-.12-.14-.16-.06-.05-.13-.08-.21-.11-.08-.03-.17-.04-.26-.04l.05-.36h2.9c.55,0,1.02,.11,1.41,.33,.49,.28,.7,.69,.63,1.22-.03,.21-.1,.4-.22,.58-.11,.18-.27,.33-.47,.46h0c-.1,.07-.21,.13-.33,.19s-.24,.11-.37,.15c.63,.23,.91,.68,.82,1.36l-.09,.59c-.19,1.34,.16,2.01,1.05,2.01h.13l-.04,.25-.12,.1Z"/><path d="M89.79,136.38l.05-.36c.09,0,.18-.01,.27-.04,.09-.03,.17-.06,.24-.11s.13-.1,.18-.17,.08-.13,.09-.21l.57-4.09c.01-.07,0-.14-.03-.21-.03-.06-.08-.12-.14-.17s-.13-.08-.21-.11c-.08-.03-.17-.04-.26-.04l.05-.36h2.33l-.05,.36c-.09,0-.18,.01-.27,.04-.09,.03-.17,.06-.24,.11s-.13,.1-.18,.17c-.05,.06-.08,.13-.09,.21l-.58,4.09c-.01,.07,0,.14,.03,.21,.03,.06,.08,.12,.14,.17s.13,.08,.21,.11c.08,.03,.17,.04,.26,.04l-.05,.36h-2.33Z"/><path d="M97.94,136.38h-4.63l.05-.36c.09,0,.18-.01,.27-.04,.09-.03,.17-.06,.24-.11s.13-.1,.18-.17,.08-.13,.09-.21l.57-4.09c.01-.07,0-.14-.03-.21-.03-.06-.08-.12-.14-.17s-.13-.08-.21-.11c-.08-.03-.17-.04-.26-.04l.05-.36h4.63l.03,1.06h-.38c.01-.09,.01-.18,0-.26-.01-.08-.04-.16-.08-.23-.04-.07-.09-.12-.15-.16-.06-.04-.13-.06-.2-.06h-1.68c-.08,0-.16,.01-.23,.04-.08,.03-.14,.06-.21,.11s-.11,.1-.15,.17c-.04,.06-.07,.13-.08,.21l-.26,1.86h.88c.07,0,.14-.02,.21-.06,.07-.04,.13-.09,.19-.16,.06-.07,.1-.14,.14-.22,.04-.08,.06-.17,.08-.26h.36l-.25,1.76h-.36c.01-.09,0-.18,0-.26-.01-.08-.04-.16-.08-.22-.04-.07-.09-.12-.15-.16-.06-.04-.12-.06-.2-.06h-.88l-.26,1.86c-.01,.07,0,.14,.02,.21,.03,.06,.06,.12,.11,.17,.05,.05,.11,.08,.18,.11s.14,.04,.22,.04h1.69c.07,0,.14-.02,.21-.06,.07-.04,.13-.09,.19-.16s.11-.14,.14-.22,.07-.17,.08-.26h.38l-.33,1.06Z"/></g></g><line class="h" x1="106.26" y1="125.42" x2="40.46" y2="125.42"/></g><path d="M146.72,146.72H0V0H146.72V146.72ZM1,145.72H145.72V1H1V145.72Z"/></g></g></g></svg>