<?xml version="1.0" encoding="UTF-8"?><svg xmlns="http://www.w3.org/2000/svg" viewBox="0 0 1406.97 715.1"><defs><style>.d{fill:#fff;}.e{fill:#def6ff;stroke:#000;stroke-miterlimit:10;stroke-width:16px;}.f{fill:#422803;}.g{fill:#e0be12;}</style></defs><g id="a"/><g id="b"><g id="c"><g><g><path d="M42.23,614.53c-28.15-9.52-42.23-24.41-42.23-44.68,0-11.42,3.67-20.33,11.02-26.72,7.34-6.39,17.61-9.59,30.8-9.59,12.24,0,23.59,1.84,34.07,5.51,2.17,.82,3.94,2.21,5.3,4.18,1.36,1.97,2.04,4.18,2.04,6.63,0,1.77-.75,3.09-2.24,3.98-1.5,.89-3.06,.99-4.69,.31-11.02-4.9-22.1-7.34-33.25-7.34-8.16,0-14.72,1.91-19.69,5.71-4.97,3.81-7.45,9.59-7.45,17.34,0,13.33,8.91,22.99,26.72,28.97,16.86,5.58,28.69,11.97,35.5,19.18,6.8,7.21,10.2,16.46,10.2,27.74,0,13.33-4.01,23.46-12.04,30.4-8.03,6.94-19.79,10.4-35.29,10.4-11.7,0-22.24-2.11-31.62-6.32-4.76-2.17-7.14-5.98-7.14-11.42,0-1.77,.75-3.06,2.24-3.88,1.5-.82,2.99-.82,4.49,0,9.25,5.3,19.51,7.96,30.8,7.96,21.49,0,32.23-9.04,32.23-27.13,0-7.34-2.31-13.46-6.94-18.36-4.62-4.9-12.24-9.18-22.85-12.85Z"/><path d="M159.93,686.54c-16.73,0-29.45-4.59-38.15-13.77-8.71-9.18-13.06-22.95-13.06-41.31s4.18-32.81,12.55-41.72c8.36-8.91,19.82-13.36,34.37-13.36,26.79,0,41,15.84,42.64,47.53,.13,3.26-.99,6.02-3.37,8.26-2.38,2.24-5.2,3.37-8.47,3.37h-60.38c-1.09,0-1.63,.61-1.63,1.84,1.22,24.89,13.53,37.33,36.92,37.33,7.75,0,15.71-1.43,23.87-4.28,1.49-.54,2.92-.37,4.28,.51,1.36,.89,2.04,2.14,2.04,3.77,0,4.62-2.11,7.48-6.32,8.57-8.71,2.17-17.14,3.26-25.3,3.26Zm-4.28-98.33c-18.91,0-29.24,11.22-31.01,33.66,0,1.09,.61,1.63,1.84,1.63h54.88c1.09,0,1.63-.54,1.63-1.63-.82-22.44-9.93-33.66-27.34-33.66Zm-1.63-49.57c3.94-5.71,9.31-8.57,16.12-8.57,2.04,0,3.5,.95,4.39,2.86,.88,1.91,.64,3.61-.71,5.1l-16.93,20.2c-3.26,3.95-7.48,5.92-12.65,5.92-1.63,0-2.82-.71-3.57-2.14-.75-1.43-.65-2.82,.31-4.18l13.06-19.18Z"/><path d="M236.74,682.05c-1.56,1.63-3.5,2.45-5.81,2.45s-4.25-.82-5.81-2.45c-1.56-1.63-2.35-3.54-2.35-5.71v-90.17c0-2.17,.75-4.01,2.24-5.51s3.33-2.24,5.51-2.24,4.01,.75,5.51,2.24c1.5,1.5,2.24,3.33,2.24,5.51v15.71c0,.14,.07,.2,.2,.2,.27,0,.41-.13,.41-.41,4.08-6.8,9.82-12.27,17.24-16.42,7.41-4.15,15.74-6.43,24.99-6.83,1.9-.13,3.53,.48,4.9,1.84,1.36,1.36,2.04,2.99,2.04,4.9,0,1.77-.65,3.33-1.94,4.69-1.29,1.36-2.89,2.11-4.79,2.24-13.46,.54-23.87,4.46-31.21,11.73-7.34,7.28-11.02,17.44-11.02,30.5v42.02c0,2.18-.78,4.08-2.35,5.71Z"/><path d="M336.7,550.98c-1.56,1.56-3.5,2.35-5.81,2.35s-4.25-.78-5.81-2.35c-1.57-1.56-2.35-3.5-2.35-5.81v-5.51c0-2.17,.78-4.08,2.35-5.71,1.56-1.63,3.5-2.45,5.81-2.45s4.25,.82,5.81,2.45c1.56,1.63,2.35,3.54,2.35,5.71v5.51c0,2.31-.78,4.25-2.35,5.81Zm0,131.07c-1.56,1.63-3.5,2.45-5.81,2.45s-4.25-.82-5.81-2.45c-1.57-1.63-2.35-3.54-2.35-5.71v-89.76c0-2.17,.78-4.08,2.35-5.71,1.56-1.63,3.5-2.45,5.81-2.45s4.25,.82,5.81,2.45c1.56,1.63,2.35,3.54,2.35,5.71v89.76c0,2.18-.78,4.08-2.35,5.71Z"/><path d="M420.64,686.54c-16.05,0-28.39-4.66-37.03-13.97-8.64-9.31-12.95-23.02-12.95-41.11s4.18-31.62,12.55-41c8.36-9.38,20.16-14.08,35.39-14.08,7.07,0,14.55,.75,22.44,2.24,1.9,.41,3.5,1.4,4.79,2.96,1.29,1.57,1.94,3.37,1.94,5.41,0,1.63-.71,2.93-2.14,3.88-1.43,.95-2.96,1.22-4.59,.82-6.94-1.77-14.08-2.65-21.42-2.65-21.76,0-32.64,14.15-32.64,42.43,0,14.69,2.86,25.43,8.57,32.23,5.71,6.8,14.41,10.2,26.11,10.2,7.61,0,14.55-1.02,20.81-3.06,1.5-.54,2.92-.34,4.28,.61,1.36,.95,2.04,2.24,2.04,3.88,0,2.04-.61,3.88-1.84,5.51s-2.86,2.72-4.9,3.26c-6.39,1.63-13.53,2.45-21.42,2.45Z"/><path d="M511.63,686.54c-11.83,0-20.5-3.26-26.01-9.79s-8.26-17.34-8.26-32.44v-58.14c0-2.17,.71-4.01,2.14-5.51,1.43-1.5,3.23-2.24,5.41-2.24s4.01,.75,5.51,2.24c1.5,1.5,2.24,3.33,2.24,5.51v56.1c0,12.24,1.84,20.64,5.51,25.19,3.67,4.56,9.52,6.83,17.54,6.83,7.34,0,14.28-3.16,20.81-9.49,6.53-6.32,9.79-13.23,9.79-20.71v-57.94c0-2.17,.78-4.01,2.35-5.51,1.56-1.5,3.43-2.24,5.61-2.24s4.01,.75,5.51,2.24c1.5,1.5,2.24,3.33,2.24,5.51v90.98c0,2.04-.71,3.77-2.14,5.2-1.43,1.43-3.16,2.14-5.2,2.14s-3.81-.71-5.3-2.14c-1.5-1.43-2.24-3.16-2.24-5.2v-8.36c0-.13-.07-.2-.2-.2s-.27,.07-.41,.2c-9.38,11.83-21.01,17.75-34.88,17.75Z"/><path d="M614.75,682.05c-1.56,1.63-3.5,2.45-5.81,2.45s-4.25-.82-5.81-2.45c-1.56-1.63-2.35-3.54-2.35-5.71v-136.68c0-2.17,.78-4.08,2.35-5.71,1.56-1.63,3.5-2.45,5.81-2.45s4.25,.82,5.81,2.45c1.56,1.63,2.35,3.54,2.35,5.71v136.68c0,2.18-.78,4.08-2.35,5.71Z"/><path d="M656.87,594.74c-1.77,0-3.23-.58-4.39-1.73-1.16-1.15-1.73-2.62-1.73-4.39s.58-3.23,1.73-4.39,2.62-1.73,4.39-1.73h14.89c1.22,0,1.84-.61,1.84-1.84v-29.17c0-2.17,.75-4.01,2.24-5.51s3.33-2.24,5.51-2.24,4.01,.75,5.51,2.24c1.5,1.5,2.24,3.33,2.24,5.51v29.17c0,1.22,.61,1.84,1.84,1.84h30.6c1.77,0,3.23,.58,4.39,1.73,1.15,1.16,1.73,2.62,1.73,4.39s-.58,3.23-1.73,4.39c-1.16,1.16-2.62,1.73-4.39,1.73h-30.6c-1.22,0-1.84,.61-1.84,1.84v53.86c0,9.79,1.29,16.22,3.88,19.28,2.58,3.06,7.55,4.59,14.89,4.59,4.35,0,7.96-.34,10.81-1.02,1.5-.27,2.89,.04,4.18,.92,1.29,.89,1.94,2.08,1.94,3.57,0,1.91-.58,3.61-1.73,5.1-1.16,1.5-2.62,2.38-4.39,2.65-3.54,.68-8.03,1.02-13.46,1.02-11.97,0-20.23-2.48-24.79-7.45-4.56-4.96-6.83-14.04-6.83-27.23v-55.28c0-1.22-.61-1.84-1.84-1.84h-14.89Z"/><path d="M791.51,686.54c-11.83,0-20.5-3.26-26.01-9.79s-8.26-17.34-8.26-32.44v-58.14c0-2.17,.71-4.01,2.14-5.51,1.43-1.5,3.23-2.24,5.41-2.24s4.01,.75,5.51,2.24c1.5,1.5,2.24,3.33,2.24,5.51v56.1c0,12.24,1.84,20.64,5.51,25.19,3.67,4.56,9.52,6.83,17.54,6.83,7.34,0,14.28-3.16,20.81-9.49,6.53-6.32,9.79-13.23,9.79-20.71v-57.94c0-2.17,.78-4.01,2.35-5.51,1.56-1.5,3.43-2.24,5.61-2.24s4.01,.75,5.51,2.24c1.5,1.5,2.24,3.33,2.24,5.51v90.98c0,2.04-.71,3.77-2.14,5.2-1.43,1.43-3.16,2.14-5.2,2.14s-3.81-.71-5.3-2.14c-1.5-1.43-2.24-3.16-2.24-5.2v-8.36c0-.13-.07-.2-.2-.2s-.27,.07-.41,.2c-9.38,11.83-21.01,17.75-34.88,17.75Z"/><path d="M886.47,682.05c-1.57,1.63-3.5,2.45-5.81,2.45s-4.25-.82-5.81-2.45c-1.57-1.63-2.35-3.54-2.35-5.71v-90.17c0-2.17,.75-4.01,2.24-5.51s3.33-2.24,5.51-2.24,4.01,.75,5.51,2.24c1.5,1.5,2.24,3.33,2.24,5.51v15.71c0,.14,.07,.2,.2,.2,.27,0,.41-.13,.41-.41,4.08-6.8,9.82-12.27,17.24-16.42,7.41-4.15,15.74-6.43,24.99-6.83,1.9-.13,3.54,.48,4.9,1.84,1.36,1.36,2.04,2.99,2.04,4.9,0,1.77-.65,3.33-1.94,4.69-1.29,1.36-2.89,2.11-4.79,2.24-13.46,.54-23.87,4.46-31.21,11.73-7.34,7.28-11.02,17.44-11.02,30.5v42.02c0,2.18-.78,4.08-2.35,5.71Z"/><path d="M1004.29,686.54c-16.73,0-29.45-4.59-38.15-13.77-8.71-9.18-13.06-22.95-13.06-41.31s4.18-32.81,12.55-41.72c8.36-8.91,19.82-13.36,34.37-13.36,26.79,0,41,15.84,42.64,47.53,.13,3.26-.99,6.02-3.37,8.26-2.38,2.24-5.2,3.37-8.47,3.37h-60.38c-1.09,0-1.63,.61-1.63,1.84,1.22,24.89,13.53,37.33,36.92,37.33,7.75,0,15.71-1.43,23.87-4.28,1.5-.54,2.92-.37,4.28,.51,1.36,.89,2.04,2.14,2.04,3.77,0,4.62-2.11,7.48-6.32,8.57-8.71,2.17-17.14,3.26-25.3,3.26Zm-4.28-98.33c-18.91,0-29.24,11.22-31.01,33.66,0,1.09,.61,1.63,1.84,1.63h54.88c1.09,0,1.63-.54,1.63-1.63-.82-22.44-9.93-33.66-27.34-33.66Z"/><path d="M1076.5,632.48c-1.77,0-3.26-.64-4.49-1.94-1.22-1.29-1.84-2.82-1.84-4.59s.61-3.26,1.84-4.49,2.72-1.84,4.49-1.84h49.78c1.77,0,3.26,.61,4.49,1.84,1.22,1.22,1.84,2.72,1.84,4.49s-.61,3.3-1.84,4.59c-1.22,1.29-2.72,1.94-4.49,1.94h-49.78Z"/><path d="M1223.58,686.54c-19.99,0-35.74-6.7-47.23-20.09-11.49-13.39-17.24-32.2-17.24-56.41s5.74-43.01,17.24-56.41c11.49-13.39,27.23-20.09,47.23-20.09s35.94,6.7,47.43,20.09c11.49,13.4,17.24,32.2,17.24,56.41,0,16.73-3.03,30.98-9.08,42.74-6.05,11.76-14.59,20.37-25.6,25.81-.14,0-.2,.07-.2,.2,0,.27,.07,.41,.2,.41,18.09,4.35,32.98,13.73,44.68,28.15,1.22,1.5,1.36,3.16,.41,5-.95,1.84-2.45,2.75-4.49,2.75-6.12,0-11.29-2.58-15.5-7.75-6.53-7.62-13.94-12.99-22.24-16.12-8.3-3.13-19.25-4.69-32.84-4.69Zm35.7-123.42c-8.3-10.61-20.2-15.91-35.7-15.91s-27.37,5.3-35.6,15.91c-8.23,10.61-12.34,26.25-12.34,46.92s4.11,36.31,12.34,46.92c8.23,10.61,20.09,15.91,35.6,15.91s27.4-5.3,35.7-15.91c8.29-10.61,12.44-26.25,12.44-46.92s-4.15-36.31-12.44-46.92Z"/><path d="M1371.27,686.54c-19.58,0-35.29-6.7-47.12-20.09-11.83-13.39-17.75-32.2-17.75-56.41s5.68-42.84,17.03-56.3c11.35-13.46,27.1-20.2,47.23-20.2,10.61,0,20.06,1.02,28.36,3.06,2.04,.55,3.7,1.7,5,3.47,1.29,1.77,1.94,3.74,1.94,5.92,0,1.77-.71,3.16-2.14,4.18-1.43,1.02-3.03,1.26-4.79,.71-8.03-2.45-17-3.67-26.93-3.67-15.37,0-27.41,5.51-36.11,16.52-8.71,11.02-13.06,26.45-13.06,46.31s4.52,35.12,13.57,46.21c9.04,11.09,21.11,16.63,36.21,16.63,10.06,0,19.18-1.22,27.34-3.67,1.77-.54,3.37-.31,4.79,.71,1.43,1.02,2.14,2.42,2.14,4.18,0,2.18-.65,4.12-1.94,5.81-1.29,1.7-2.96,2.82-5,3.37-9.11,2.17-18.7,3.26-28.76,3.26Z"/></g><g><rect class="f" x="245.99" y="464.5" width="915" height="47"/><path class="e" d="M703.49,8c-248.25,0-449.5,201.25-449.5,449.5h899c0-248.25-201.25-449.5-449.5-449.5Z"/><g><rect class="g" x="601.94" y="177.02" width="19.18" height="272.48"/><ellipse class="g" cx="611.8" cy="172.43" rx="13.91" ry="30.79"/><ellipse class="g" cx="629.79" cy="200.18" rx="23.77" ry="10.45" transform="translate(173.5 678.21) rotate(-63.97)"/><ellipse class="g" cx="631.41" cy="237.75" rx="23.77" ry="10.45" transform="translate(140.66 700.74) rotate(-63.97)"/><ellipse class="g" cx="631.41" cy="277.52" rx="22.78" ry="10.91" transform="translate(52.83 652.94) rotate(-56.7)"/><ellipse class="g" cx="594.48" cy="200.18" rx="10.45" ry="23.77" transform="translate(-27.54 281.24) rotate(-26.03)"/><ellipse class="g" cx="592.87" cy="237.75" rx="10.45" ry="23.77" transform="translate(-44.19 284.34) rotate(-26.03)"/><ellipse class="g" cx="592.87" cy="277.52" rx="10.91" ry="22.78" transform="translate(-55.03 371.01) rotate(-33.3)"/></g><g><rect class="g" x="754.7" y="177.02" width="19.18" height="272.48"/><ellipse class="g" cx="764.57" cy="172.43" rx="13.91" ry="30.79"/><ellipse class="g" cx="782.55" cy="200.18" rx="23.77" ry="10.45" transform="translate(259.21 815.47) rotate(-63.97)"/><ellipse class="g" cx="784.17" cy="237.75" rx="23.77" ry="10.45" transform="translate(226.37 838) rotate(-63.97)"/><ellipse class="g" cx="784.17" cy="277.52" rx="22.78" ry="10.91" transform="translate(121.73 780.62) rotate(-56.7)"/><ellipse class="g" cx="747.24" cy="200.18" rx="10.45" ry="23.77" transform="translate(-12.04 348.29) rotate(-26.03)"/><ellipse class="g" cx="745.63" cy="237.75" rx="10.45" ry="23.77" transform="translate(-28.69 351.39) rotate(-26.03)"/><ellipse class="g" cx="745.63" cy="277.52" rx="10.91" ry="22.78" transform="translate(-29.95 454.87) rotate(-33.3)"/></g><g><rect class="g" x="680.07" y="138.83" width="19.18" height="310.67"/><ellipse class="g" cx="689.93" cy="133.6" rx="13.91" ry="35.1"/><ellipse class="g" cx="707.92" cy="165.24" rx="26.52" ry="10.68" transform="translate(289.11 759.42) rotate(-67.96)"/><ellipse class="g" cx="709.54" cy="208.07" rx="26.52" ry="10.68" transform="translate(250.42 787.68) rotate(-67.96)"/><ellipse class="g" cx="709.54" cy="253.42" rx="25.09" ry="11.28" transform="translate(151.06 759.15) rotate(-61.82)"/><ellipse class="g" cx="672.61" cy="165.24" rx="10.68" ry="26.52" transform="translate(-12.85 264.47) rotate(-22.04)"/><ellipse class="g" cx="670.99" cy="208.07" rx="10.68" ry="26.52" transform="translate(-29.04 266.99) rotate(-22.04)"/><ellipse class="g" cx="670.99" cy="253.42" rx="11.28" ry="25.09" transform="translate(-40.14 346.94) rotate(-28.18)"/></g><path class="d" d="M660.1,93.86c-18.87-32.68-85.95-29.27-149.83,7.62-63.88,36.88-92.19,104.94-73.32,137.62,18.87,32.68,57.75-21.09,121.63-57.97,63.88-36.88,120.39-54.59,101.52-87.26Z"/></g></g></g></g></svg>