<?xml version="1.0" encoding="UTF-8"?><svg xmlns="http://www.w3.org/2000/svg" width="326.53" height="336.18" viewBox="0 0 326.53 336.18"><defs><style>.d{stroke-width:10px;}.d,.e,.f{fill:#649e64;}.d,.f{stroke:#fff;stroke-miterlimit:10;}.g{fill:#fff;}.h{fill:#457c45;}.f{stroke-width:6px;}.i{font-family:KeepCalm-Medium, Keep Calm;font-size:39.1px;}</style></defs><g id="a"/><g id="b"><g id="c"><g><path class="d" d="M279.34,241.9c19.31-24.87,30.83-56.08,30.83-90C310.17,70.77,244.4,5,163.27,5S16.36,70.77,16.36,151.91c0,33.92,11.53,65.13,30.83,90h232.15Z"/><g><path class="h" d="M187.54,232.54c0-5.82-7.92-10.54-17.7-10.54s-17.7,4.72-17.7,10.54"/><rect class="h" x="166.14" y="196.05" width="7.33" height="32.71" rx="1.97" ry="1.97"/><path class="h" d="M172.44,190.23s21.81-.37,22.73-23.53c0,0-22.47,.05-22.73,23.53Z"/><path class="h" d="M167.25,190.3s-21.81-.37-22.73-23.53c0,0,22.47,.05,22.73,23.53Z"/><path class="h" d="M167.25,168.55s-21.81-.37-22.73-23.53c0,0,22.47,.05,22.73,23.53Z"/><path class="h" d="M167.25,147.39s-21.81-.37-22.73-23.53c0,0,22.47,.05,22.73,23.53Z"/><path class="h" d="M167.25,125.84s-21.81-.37-22.73-23.53c0,0,22.47,.05,22.73,23.53Z"/><path class="h" d="M172.44,168.55s21.81-.37,22.73-23.53c0,0-22.47,.05-22.73,23.53Z"/><path class="h" d="M172.44,147.39s21.81-.37,22.73-23.53c0,0-22.47,.05-22.73,23.53Z"/><path class="h" d="M172.44,125.84s21.81-.37,22.73-23.53c0,0-22.47,.05-22.73,23.53Z"/><path class="h" d="M169.97,108.14s15.42-15.42,0-32.71c0,0-16.12,15.66,0,32.71Z"/></g><g><path class="h" d="M247.99,232.54c0-3.63-6.37-6.57-14.23-6.57s-14.23,2.94-14.23,6.57"/><rect class="h" x="230.78" y="205.11" width="5.9" height="26.3" rx="1.58" ry="1.58"/><path class="h" d="M235.84,200.43s17.53-.3,18.27-18.91c0,0-18.07,.04-18.27,18.91Z"/><path class="h" d="M231.67,200.48s-17.53-.3-18.27-18.91c0,0,18.07,.04,18.27,18.91Z"/><path class="h" d="M231.67,183s-17.53-.3-18.27-18.91c0,0,18.07,.04,18.27,18.91Z"/><path class="h" d="M231.67,165.99s-17.53-.3-18.27-18.91c0,0,18.07,.04,18.27,18.91Z"/><path class="h" d="M231.67,148.67s-17.53-.3-18.27-18.91c0,0,18.07,.04,18.27,18.91Z"/><path class="h" d="M235.84,183s17.53-.3,18.27-18.91c0,0-18.07,.04-18.27,18.91Z"/><path class="h" d="M235.84,165.99s17.53-.3,18.27-18.91c0,0-18.07,.04-18.27,18.91Z"/><path class="h" d="M235.84,148.67s17.53-.3,18.27-18.91c0,0-18.07,.04-18.27,18.91Z"/><path class="h" d="M233.86,134.43s12.4-12.4,0-26.3c0,0-12.96,12.59,0,26.3Z"/></g><g><path class="h" d="M116.5,232.61c0-3.67-6.37-6.65-14.23-6.65s-14.23,2.98-14.23,6.65"/><rect class="h" x="99.29" y="205.11" width="5.9" height="26.3" rx="1.58" ry="1.58"/><path class="h" d="M104.36,200.43s17.53-.3,18.27-18.91c0,0-18.07,.04-18.27,18.91Z"/><path class="h" d="M100.18,200.48s-17.53-.3-18.27-18.91c0,0,18.07,.04,18.27,18.91Z"/><path class="h" d="M100.18,183s-17.53-.3-18.27-18.91c0,0,18.07,.04,18.27,18.91Z"/><path class="h" d="M100.18,165.99s-17.53-.3-18.27-18.91c0,0,18.07,.04,18.27,18.91Z"/><path class="h" d="M100.18,148.67s-17.53-.3-18.27-18.91c0,0,18.07,.04,18.27,18.91Z"/><path class="h" d="M104.36,183s17.53-.3,18.27-18.91c0,0-18.07,.04-18.27,18.91Z"/><path class="h" d="M104.36,165.99s17.53-.3,18.27-18.91c0,0-18.07,.04-18.27,18.91Z"/><path class="h" d="M104.36,148.67s17.53-.3,18.27-18.91c0,0-18.07,.04-18.27,18.91Z"/><path class="h" d="M102.37,134.43s12.4-12.4,0-26.3c0,0-12.96,12.59,0,26.3Z"/></g><path class="g" d="M183.15,235.53c0-7.48-7.92-13.54-17.7-13.54s-17.7,6.06-17.7,13.54"/><rect class="g" x="161.75" y="196.05" width="7.33" height="32.71" rx="1.97" ry="1.97"/><path class="g" d="M168.05,190.23s21.81-.37,22.73-23.53c0,0-22.47,.05-22.73,23.53Z"/><path class="g" d="M162.86,190.3s-21.81-.37-22.73-23.53c0,0,22.47,.05,22.73,23.53Z"/><path class="g" d="M162.86,168.55s-21.81-.37-22.73-23.53c0,0,22.47,.05,22.73,23.53Z"/><path class="g" d="M162.86,147.39s-21.81-.37-22.73-23.53c0,0,22.47,.05,22.73,23.53Z"/><path class="g" d="M162.86,125.84s-21.81-.37-22.73-23.53c0,0,22.47,.05,22.73,23.53Z"/><path class="g" d="M168.05,168.55s21.81-.37,22.73-23.53c0,0-22.47,.05-22.73,23.53Z"/><path class="g" d="M168.05,147.39s21.81-.37,22.73-23.53c0,0-22.47,.05-22.73,23.53Z"/><path class="g" d="M168.05,125.84s21.81-.37,22.73-23.53c0,0-22.47,.05-22.73,23.53Z"/><path class="g" d="M165.58,108.14s15.42-15.42,0-32.71c0,0-16.12,15.66,0,32.71Z"/><g><path class="g" d="M245.06,236.85c0-6.01-6.37-10.88-14.23-10.88s-14.23,4.87-14.23,10.88"/><rect class="g" x="227.86" y="205.11" width="5.9" height="26.3" rx="1.58" ry="1.58"/><path class="g" d="M232.92,200.43s17.53-.3,18.27-18.91c0,0-18.07,.04-18.27,18.91Z"/><path class="g" d="M228.75,200.48s-17.53-.3-18.27-18.91c0,0,18.07,.04,18.27,18.91Z"/><path class="g" d="M228.75,183s-17.53-.3-18.27-18.91c0,0,18.07,.04,18.27,18.91Z"/><path class="g" d="M228.75,165.99s-17.53-.3-18.27-18.91c0,0,18.07,.04,18.27,18.91Z"/><path class="g" d="M228.75,148.67s-17.53-.3-18.27-18.91c0,0,18.07,.04,18.27,18.91Z"/><path class="g" d="M232.92,183s17.53-.3,18.27-18.91c0,0-18.07,.04-18.27,18.91Z"/><path class="g" d="M232.92,165.99s17.53-.3,18.27-18.91c0,0-18.07,.04-18.27,18.91Z"/><path class="g" d="M232.92,148.67s17.53-.3,18.27-18.91c0,0-18.07,.04-18.27,18.91Z"/><path class="g" d="M230.93,134.43s12.4-12.4,0-26.3c0,0-12.96,12.59,0,26.3Z"/></g><g><path class="g" d="M113.58,236.85c0-6.01-6.37-10.88-14.23-10.88s-14.23,4.87-14.23,10.88"/><rect class="g" x="96.37" y="205.11" width="5.9" height="26.3" rx="1.58" ry="1.58"/><path class="g" d="M101.43,200.43s17.53-.3,18.27-18.91c0,0-18.07,.04-18.27,18.91Z"/><path class="g" d="M97.26,200.48s-17.53-.3-18.27-18.91c0,0,18.07,.04,18.27,18.91Z"/><path class="g" d="M97.26,183s-17.53-.3-18.27-18.91c0,0,18.07,.04,18.27,18.91Z"/><path class="g" d="M97.26,165.99s-17.53-.3-18.27-18.91c0,0,18.07,.04,18.27,18.91Z"/><path class="g" d="M97.26,148.67s-17.53-.3-18.27-18.91c0,0,18.07,.04,18.27,18.91Z"/><path class="g" d="M101.43,183s17.53-.3,18.27-18.91c0,0-18.07,.04-18.27,18.91Z"/><path class="g" d="M101.43,165.99s17.53-.3,18.27-18.91c0,0-18.07,.04-18.27,18.91Z"/><path class="g" d="M101.43,148.67s17.53-.3,18.27-18.91c0,0-18.07,.04-18.27,18.91Z"/><path class="g" d="M99.45,134.43s12.4-12.4,0-26.3c0,0-12.96,12.59,0,26.3Z"/></g><path class="f" d="M122.95,45.3s-38.3,.82-51.38,45.09"/><g><path class="e" d="M62.98,277.16c0,.89-.19,1.74-.58,2.55-.39,.8-.93,1.51-1.62,2.13s-1.52,1.11-2.47,1.47-2.01,.55-3.16,.55c-1.03,0-1.96-.06-2.79-.18s-1.6-.31-2.32-.57c-.73-.26-1.42-.59-2.08-1-.67-.41-1.36-.9-2.07-1.47l3.28-3.31c.95,.79,1.89,1.36,2.8,1.68,.91,.33,1.91,.49,2.98,.49,.44,0,.85-.06,1.24-.19,.39-.13,.72-.3,1.01-.52s.52-.48,.69-.77c.17-.3,.25-.63,.25-.98,0-.38-.07-.71-.21-1.01-.14-.3-.39-.59-.75-.86s-.85-.56-1.49-.85-1.45-.61-2.44-.97c-.87-.32-1.71-.68-2.52-1.09s-1.51-.9-2.12-1.48c-.61-.58-1.09-1.25-1.46-2.03-.37-.77-.55-1.69-.55-2.74s.2-1.95,.61-2.8c.41-.85,.96-1.58,1.67-2.19,.71-.61,1.53-1.08,2.47-1.42,.94-.34,1.96-.51,3.05-.51,1.83,0,3.37,.24,4.62,.71,1.25,.48,2.36,1.17,3.34,2.09l-3.22,3.25c-.6-.58-1.26-1.02-2-1.33-.73-.31-1.6-.46-2.59-.46-.46,0-.88,.07-1.27,.21-.39,.14-.72,.32-1,.55-.28,.23-.5,.5-.67,.8s-.25,.63-.25,.97c0,.38,.08,.72,.24,1.03,.16,.31,.43,.61,.8,.89,.38,.29,.88,.58,1.5,.86,.63,.29,1.41,.6,2.34,.94,1.19,.42,2.21,.87,3.07,1.37,.85,.5,1.55,1.04,2.09,1.64s.93,1.27,1.19,2.01,.39,1.58,.39,2.52Z"/><path class="e" d="M81.99,283.42h-15.73v-23.8h15.73v3.81h-11.2v5.69h11.05v3.72h-11.05v6.55h11.2v4.02Z"/><path class="e" d="M103.47,283.42h-5.08l-1.69-5.42c-.18-.6-.4-1.14-.67-1.64-.27-.5-.59-.92-.97-1.28-.38-.36-.83-.64-1.35-.83-.52-.2-1.14-.3-1.86-.3h-1.72v9.47h-4.56v-23.8l9.4-.03c1.01,0,1.95,.17,2.83,.52,.87,.35,1.63,.83,2.26,1.45,.63,.62,1.13,1.34,1.49,2.17,.36,.83,.54,1.74,.54,2.71,0,.7-.11,1.37-.33,2.03s-.52,1.26-.92,1.82-.86,1.05-1.41,1.47c-.54,.43-1.14,.75-1.79,.97,.75,.28,1.36,.68,1.83,1.21,.47,.53,.85,1.16,1.13,1.89,.14,.34,.27,.68,.38,1.01s.24,.69,.37,1.06c.13,.37,.27,.76,.42,1.19s.31,.9,.49,1.42c.22,.66,.42,1.22,.61,1.68,.19,.47,.39,.88,.61,1.24Zm-6.02-16.65c0-.56-.1-1.06-.31-1.52s-.49-.85-.85-1.19c-.36-.34-.78-.6-1.27-.79-.49-.19-1.01-.28-1.56-.28h-3.34v7.42h3.34c.56,0,1.08-.08,1.56-.25,.49-.17,.91-.41,1.27-.73,.36-.32,.64-.7,.85-1.15,.21-.45,.31-.95,.31-1.5Z"/><path class="e" d="M124.24,283.42h-5.08l-1.69-5.42c-.18-.6-.4-1.14-.67-1.64-.27-.5-.59-.92-.97-1.28-.38-.36-.83-.64-1.35-.83-.52-.2-1.14-.3-1.86-.3h-1.72v9.47h-4.56v-23.8l9.4-.03c1.01,0,1.95,.17,2.83,.52,.87,.35,1.63,.83,2.26,1.45,.63,.62,1.13,1.34,1.49,2.17,.36,.83,.54,1.74,.54,2.71,0,.7-.11,1.37-.33,2.03s-.52,1.26-.92,1.82-.86,1.05-1.41,1.47c-.54,.43-1.14,.75-1.79,.97,.75,.28,1.36,.68,1.83,1.21,.47,.53,.85,1.16,1.13,1.89,.14,.34,.27,.68,.38,1.01s.24,.69,.37,1.06c.13,.37,.27,.76,.42,1.19s.31,.9,.49,1.42c.22,.66,.42,1.22,.61,1.68,.19,.47,.39,.88,.61,1.24Zm-6.02-16.65c0-.56-.1-1.06-.31-1.52s-.49-.85-.85-1.19c-.36-.34-.78-.6-1.27-.79-.49-.19-1.01-.28-1.56-.28h-3.34v7.42h3.34c.56,0,1.08-.08,1.56-.25,.49-.17,.91-.41,1.27-.73,.36-.32,.64-.7,.85-1.15,.21-.45,.31-.95,.31-1.5Z"/><path class="e" d="M131.72,283.42h-4.62v-23.8h4.62v23.8Z"/><path class="e" d="M157.96,279.13c-1.19,1.45-2.64,2.6-4.33,3.46-1.7,.85-3.57,1.28-5.62,1.28-1.77,0-3.43-.32-4.98-.97-1.55-.65-2.9-1.52-4.04-2.64s-2.05-2.42-2.71-3.92c-.66-1.5-.99-3.11-.99-4.84s.33-3.34,.99-4.84c.66-1.5,1.56-2.81,2.71-3.93s2.49-2,4.04-2.64c1.55-.64,3.21-.95,4.98-.95,2.05,0,3.92,.43,5.62,1.28,1.7,.85,3.11,1.97,4.25,3.34l-3.19,3.28c-.74-1.05-1.68-1.9-2.84-2.55-1.16-.65-2.44-.97-3.83-.97-1.11,0-2.16,.21-3.14,.64-.98,.43-1.84,1-2.58,1.73-.74,.73-1.32,1.57-1.74,2.53-.43,.96-.64,1.99-.64,3.08s.21,2.09,.64,3.05c.43,.96,1.01,1.81,1.74,2.53,.73,.72,1.59,1.3,2.58,1.73,.98,.43,2.03,.64,3.14,.64,1.47,0,2.77-.33,3.9-1,1.13-.67,2.08-1.54,2.83-2.64l3.22,3.31Z"/><path class="e" d="M181.26,259.58v12.93c0,1.59-.24,3.07-.72,4.44-.48,1.37-1.17,2.57-2.07,3.59-.9,1.02-2.01,1.83-3.31,2.41-1.3,.59-2.79,.88-4.45,.88s-3.1-.29-4.41-.86c-1.31-.58-2.43-1.37-3.35-2.37-.92-1-1.63-2.18-2.13-3.55-.5-1.36-.74-2.83-.74-4.39v-13.08h4.62v13.11c0,.91,.13,1.77,.39,2.58,.26,.8,.64,1.5,1.13,2.1,.5,.6,1.12,1.07,1.86,1.42s1.59,.52,2.55,.52c1.01,0,1.89-.16,2.64-.49,.75-.33,1.36-.78,1.85-1.37,.49-.59,.85-1.28,1.1-2.07,.25-.79,.37-1.67,.37-2.62v-13.17h4.68Z"/><path class="e" d="M201.25,283.42h-16.12v-23.8h4.71v19.34h11.41v4.47Z"/><path class="e" d="M216.42,263.72h-6.58v19.69h-4.68v-19.69h-6.58v-4.11h17.85v4.11Z"/><path class="e" d="M240.28,259.58v12.93c0,1.59-.24,3.07-.72,4.44-.48,1.37-1.17,2.57-2.07,3.59-.9,1.02-2.01,1.83-3.31,2.41-1.3,.59-2.79,.88-4.45,.88s-3.1-.29-4.41-.86c-1.31-.58-2.43-1.37-3.35-2.37-.92-1-1.63-2.18-2.13-3.55-.5-1.36-.74-2.83-.74-4.39v-13.08h4.62v13.11c0,.91,.13,1.77,.39,2.58,.26,.8,.64,1.5,1.13,2.1,.5,.6,1.12,1.07,1.86,1.42s1.59,.52,2.55,.52c1.01,0,1.89-.16,2.64-.49,.75-.33,1.36-.78,1.85-1.37,.49-.59,.85-1.28,1.1-2.07,.25-.79,.37-1.67,.37-2.62v-13.17h4.68Z"/><path class="e" d="M262.06,283.42h-5.08l-1.69-5.42c-.18-.6-.4-1.14-.67-1.64-.27-.5-.59-.92-.97-1.28-.38-.36-.83-.64-1.35-.83-.52-.2-1.14-.3-1.86-.3h-1.72v9.47h-4.56v-23.8l9.4-.03c1.01,0,1.95,.17,2.83,.52,.87,.35,1.63,.83,2.26,1.45,.63,.62,1.13,1.34,1.49,2.17,.36,.83,.54,1.74,.54,2.71,0,.7-.11,1.37-.33,2.03s-.52,1.26-.92,1.82-.86,1.05-1.41,1.47c-.54,.43-1.14,.75-1.79,.97,.75,.28,1.36,.68,1.83,1.21,.47,.53,.85,1.16,1.13,1.89,.14,.34,.27,.68,.38,1.01s.24,.69,.37,1.06c.13,.37,.27,.76,.42,1.19s.31,.9,.49,1.42c.22,.66,.42,1.22,.61,1.68,.19,.47,.39,.88,.61,1.24Zm-6.02-16.65c0-.56-.1-1.06-.31-1.52s-.49-.85-.85-1.19c-.36-.34-.78-.6-1.27-.79-.49-.19-1.01-.28-1.56-.28h-3.34v7.42h3.34c.56,0,1.08-.08,1.56-.25,.49-.17,.91-.41,1.27-.73,.36-.32,.64-.7,.85-1.15,.21-.45,.31-.95,.31-1.5Z"/><path class="e" d="M280.65,283.42h-15.73v-23.8h15.73v3.81h-11.2v5.69h11.05v3.72h-11.05v6.55h11.2v4.02Z"/></g><g><path class="e" d="M77.13,323.61c0,1.68-.36,3.27-1.09,4.78-.73,1.51-1.74,2.84-3.04,3.99-1.3,1.16-2.85,2.08-4.64,2.77-1.79,.69-3.76,1.03-5.92,1.03-1.94,0-3.68-.11-5.22-.33-1.55-.22-3-.58-4.36-1.06-1.36-.48-2.66-1.11-3.91-1.87-1.25-.76-2.54-1.68-3.88-2.76l6.14-6.2c1.79,1.49,3.54,2.54,5.25,3.16,1.71,.62,3.58,.92,5.59,.92,.82,0,1.59-.12,2.32-.36,.73-.24,1.36-.57,1.9-.98,.54-.41,.97-.89,1.29-1.45s.47-1.17,.47-1.84c0-.71-.13-1.34-.39-1.9-.26-.56-.73-1.1-1.4-1.62-.67-.52-1.6-1.05-2.79-1.59-1.19-.54-2.72-1.14-4.58-1.82-1.64-.59-3.21-1.27-4.72-2.04-1.51-.76-2.83-1.68-3.97-2.76-1.14-1.08-2.05-2.35-2.74-3.8-.69-1.45-1.03-3.17-1.03-5.14s.38-3.65,1.15-5.25c.76-1.6,1.81-2.97,3.13-4.11,1.32-1.14,2.87-2.02,4.64-2.65,1.77-.63,3.68-.95,5.73-.95,3.43,0,6.31,.45,8.66,1.34,2.35,.89,4.43,2.2,6.26,3.91l-6.03,6.09c-1.12-1.08-2.37-1.91-3.74-2.49-1.38-.58-3-.87-4.86-.87-.86,0-1.65,.13-2.37,.39-.73,.26-1.35,.61-1.87,1.03-.52,.43-.94,.93-1.26,1.51-.32,.58-.48,1.18-.48,1.82,0,.71,.15,1.35,.45,1.93,.3,.58,.8,1.14,1.51,1.68,.71,.54,1.65,1.08,2.82,1.62,1.17,.54,2.63,1.13,4.38,1.76,2.24,.78,4.15,1.64,5.75,2.57,1.6,.93,2.91,1.96,3.91,3.07,1.01,1.12,1.75,2.37,2.24,3.77,.48,1.4,.73,2.97,.73,4.72Z"/><path class="e" d="M91.93,335.34h-8.66v-44.63h8.66v44.63Z"/><path class="e" d="M144.89,335.34h-8.49v-29.83l-14.08,23.74-13.52-23.96v30.05h-8.49v-44.69h9.78l12.4,22.18,12.96-22.18h9.44v44.69Z"/><path class="e" d="M198.35,335.34h-9.5l-4.13-8.94h-21.67l-4.19,8.94h-9.5l21.12-44.69h6.76l21.12,44.69Zm-17.04-16.14l-7.43-16.09-7.54,16.09h14.97Z"/><path class="e" d="M236.39,335.34h-9.54l-3.18-10.17c-.33-1.12-.75-2.14-1.25-3.07-.5-.93-1.11-1.73-1.81-2.4-.71-.67-1.55-1.19-2.54-1.56-.98-.37-2.15-.56-3.48-.56h-3.23v17.76h-8.55v-44.63l17.62-.06c1.9,0,3.66,.33,5.3,.98,1.64,.65,3.05,1.56,4.24,2.71,1.19,1.16,2.12,2.51,2.79,4.08s1,3.26,1,5.08c0,1.3-.2,2.57-.61,3.8-.41,1.23-.98,2.37-1.72,3.41s-1.62,1.96-2.63,2.76c-1.02,.8-2.14,1.41-3.36,1.82,1.41,.52,2.55,1.28,3.44,2.26,.89,.99,1.59,2.17,2.11,3.55,.26,.63,.5,1.27,.72,1.9,.22,.63,.45,1.29,.69,1.98,.24,.69,.5,1.43,.78,2.23s.58,1.69,.92,2.65c.41,1.23,.79,2.28,1.15,3.16,.35,.88,.74,1.65,1.15,2.32Zm-11.28-31.23c0-1.04-.2-1.99-.59-2.85-.39-.86-.92-1.6-1.59-2.23-.67-.63-1.46-1.13-2.37-1.48-.91-.35-1.89-.53-2.93-.53h-6.26v13.91h6.26c1.04,0,2.02-.16,2.93-.47,.91-.32,1.7-.77,2.37-1.37s1.2-1.31,1.59-2.15c.39-.84,.59-1.78,.59-2.82Z"/><path class="e" d="M281.47,312.99c0,3.09-.52,5.99-1.56,8.69s-2.5,5.06-4.36,7.09c-1.86,2.03-4.09,3.63-6.68,4.8-2.59,1.17-5.41,1.76-8.46,1.76h-18.66v-44.69h18.66c3.05,0,5.87,.6,8.46,1.79,2.59,1.19,4.81,2.79,6.68,4.8,1.86,2.01,3.31,4.38,4.36,7.09,1.04,2.72,1.56,5.61,1.56,8.66Zm-8.77-.22c.04-2.08-.28-4.06-.95-5.92-.67-1.86-1.64-3.49-2.91-4.89-1.27-1.4-2.82-2.49-4.66-3.3-1.84-.8-3.92-1.2-6.23-1.2h-7.54v30.5h7.54c2.27,0,4.31-.38,6.12-1.15,1.81-.76,3.34-1.82,4.61-3.18,1.27-1.36,2.24-2.96,2.93-4.8,.69-1.84,1.05-3.86,1.09-6.06Z"/></g><text class="i" transform="translate(270.53 116.01)"><tspan x="0" y="0" xml:space="preserve">  </tspan></text><path class="e" d="M293.82,312.92s15.42,15.42,32.71,0c0,0-15.66-16.12-32.71,0Z"/><path class="e" d="M32.71,312.61s-15.42-15.42-32.71,0c0,0,15.66,16.12,32.71,0Z"/></g></g></g></svg>