<?xml version="1.0" encoding="UTF-8"?><svg xmlns="http://www.w3.org/2000/svg" viewBox="0 0 145.02 96.45"><defs><style>.d{fill:#fff;}.e{fill:#a95000;}</style></defs><g id="a"/><g id="b"><g id="c"><g><g><path class="d" d="M119.42,60.92c-.12-32-26.24-58.24-58.46-58.24S2.63,28.92,2.51,60.92H119.42Z"/><path d="M121.93,62.92H0v-2.3C.13,27.14,27.48,0,60.97,0s60.83,27.08,60.96,60.57v2.35ZM5.07,57.92H116.86c-1.43-29-25.99-53.24-55.89-53.24S6.5,28.92,5.07,57.92Z"/></g><g><path d="M16.89,56.05c1.18,.73,2.9,1.33,4.71,1.33,2.69,0,4.26-1.42,4.26-3.48,0-1.9-1.09-2.99-3.84-4.05-3.32-1.18-5.38-2.9-5.38-5.77,0-3.17,2.63-5.53,6.59-5.53,2.09,0,3.6,.48,4.5,1l-.73,2.15c-.67-.36-2.02-.97-3.87-.97-2.78,0-3.84,1.66-3.84,3.05,0,1.9,1.24,2.84,4.05,3.93,3.45,1.33,5.2,2.99,5.2,5.98,0,3.14-2.33,5.86-7.13,5.86-1.96,0-4.11-.57-5.2-1.3l.67-2.21Z"/><path d="M42.7,49.7h-7.92v7.35h8.83v2.21h-11.46v-20.37h11v2.21h-8.37v6.44h7.92v2.18Z"/><path d="M47.02,39.15c1.33-.27,3.23-.42,5.05-.42,2.81,0,4.62,.51,5.89,1.66,1.03,.91,1.6,2.3,1.6,3.87,0,2.69-1.69,4.47-3.84,5.2v.09c1.57,.54,2.51,1.99,2.99,4.11,.66,2.84,1.15,4.81,1.57,5.59h-2.72c-.33-.57-.79-2.33-1.36-4.87-.6-2.81-1.69-3.87-4.08-3.96h-2.48v8.83h-2.63v-20.1Zm2.63,9.28h2.69c2.81,0,4.59-1.54,4.59-3.87,0-2.63-1.9-3.78-4.69-3.81-1.27,0-2.18,.12-2.6,.24v7.44Z"/><path d="M63.28,39.15c1.33-.27,3.23-.42,5.05-.42,2.81,0,4.62,.51,5.89,1.66,1.03,.91,1.6,2.3,1.6,3.87,0,2.69-1.69,4.47-3.84,5.2v.09c1.57,.54,2.51,1.99,2.99,4.11,.66,2.84,1.15,4.81,1.57,5.59h-2.72c-.33-.57-.79-2.33-1.36-4.87-.61-2.81-1.69-3.87-4.08-3.96h-2.48v8.83h-2.63v-20.1Zm2.63,9.28h2.69c2.81,0,4.59-1.54,4.59-3.87,0-2.63-1.9-3.78-4.68-3.81-1.27,0-2.18,.12-2.6,.24v7.44Z"/><path d="M90.08,49.7h-7.92v7.35h8.83v2.21h-11.45v-20.37h11v2.21h-8.37v6.44h7.92v2.18Z"/><path d="M94.04,56.05c1.18,.73,2.9,1.33,4.71,1.33,2.69,0,4.26-1.42,4.26-3.48,0-1.9-1.09-2.99-3.84-4.05-3.32-1.18-5.38-2.9-5.38-5.77,0-3.17,2.63-5.53,6.59-5.53,2.08,0,3.6,.48,4.5,1l-.73,2.15c-.67-.36-2.03-.97-3.87-.97-2.78,0-3.84,1.66-3.84,3.05,0,1.9,1.24,2.84,4.05,3.93,3.45,1.33,5.2,2.99,5.2,5.98,0,3.14-2.33,5.86-7.13,5.86-1.96,0-4.11-.57-5.2-1.3l.67-2.21Z"/></g><g><path class="e" d="M52.76,69.72c0,.46-.14,.97-.43,1.51-.29,.54-.7,1.05-1.23,1.52-.54,.47-1.19,.86-1.95,1.16-.77,.3-1.64,.46-2.62,.46-.46,0-.87-.06-1.22-.19-.06-.04-.08-.07-.08-.11,0-.07,.04-.11,.11-.11,.09,.04,.26,.07,.51,.11,.25,.04,.48,.06,.71,.06,.7,0,1.35-.14,1.95-.42,.6-.28,1.12-.64,1.55-1.08,.43-.44,.78-.94,1.02-1.5,.25-.55,.37-1.11,.37-1.66,0-.77-.24-1.3-.71-1.58-.47-.28-1.04-.42-1.7-.42-.46,0-.88,.05-1.25,.14-.24,.07-.43,.23-.55,.47-.35,.59-.77,1.3-1.26,2.12-.49,.82-.98,1.67-1.48,2.55-.5,.88-.98,1.73-1.44,2.56-.46,.83-.85,1.55-1.16,2.16-.2,.41-.31,.74-.31,1,0,.35,.15,.6,.44,.73,.29,.14,.74,.21,1.33,.21,.2,0,.31,.03,.31,.08s-.05,.09-.14,.11c-.33,.05-.71,.1-1.12,.14-.41,.04-.83,.06-1.23,.06-.07,0-.19-.01-.35-.03-.16-.02-.31-.05-.46-.1-.15-.05-.28-.11-.39-.19-.11-.08-.17-.2-.17-.34,0-.11,.05-.28,.14-.5,.26-.57,.6-1.22,1.02-1.94,.42-.72,.83-1.4,1.22-2.05,.46-.77,.96-1.64,1.5-2.59,.54-.95,1.01-1.8,1.41-2.56,.04-.05,.09-.16,.17-.32,.07-.16,.15-.32,.22-.48,.07-.17,.14-.32,.19-.47,.06-.15,.08-.25,.08-.3,0-.07-.05-.11-.14-.11-.59,.02-1.17,.06-1.73,.14-.56,.07-1.14,.11-1.73,.11-.35,0-.53-.1-.53-.3,0-.04,.03-.13,.1-.29,.06-.16,.12-.24,.18-.24,.04,0,.06,.04,.08,.11,.02,.09,.13,.16,.33,.19,.17,.04,.37,.06,.61,.07,.24,0,.47,.01,.69,.01,.55,0,1.12-.02,1.69-.05,.57-.04,1.11-.08,1.62-.14,.51-.06,.96-.1,1.36-.14,.4-.04,.71-.06,.93-.06,.41,0,.82,.04,1.23,.11,.42,.07,.79,.21,1.14,.4,.34,.19,.62,.45,.83,.78,.21,.32,.32,.73,.32,1.21Z"/><path class="e" d="M59.13,74.96c-.32,.43-.7,.81-1.15,1.15-.45,.34-.96,.51-1.54,.51-.31,0-.62-.08-.93-.24-.3-.16-.55-.39-.73-.71-.13,.3-.3,.63-.5,1.01-.2,.38-.44,.76-.72,1.14-.28,.38-.59,.73-.93,1.04-.34,.31-.71,.57-1.09,.77-.33,.15-.61,.22-.83,.22-.66,0-1-.29-1-.89,0-.33,.06-.67,.18-1.03,.12-.35,.27-.69,.46-1.02,.18-.33,.38-.65,.6-.94,.21-.3,.41-.54,.59-.72,.39-.42,.83-.79,1.33-1.08,.5-.29,1.03-.47,1.61-.53,.04-.15,.09-.32,.17-.51,.07-.19,.2-.31,.39-.35,.09-.02,.18-.04,.28-.05,.09-.02,.17-.05,.25-.08,.06-.04,.11-.04,.17-.01,.06,.03,.07,.08,.03,.15-.13,.2-.23,.46-.29,.78-.07,.31-.1,.66-.1,1.02,0,.52,.1,.94,.29,1.27,.2,.33,.53,.5,1.01,.5s.92-.16,1.3-.47c.39-.31,.71-.66,.97-1.03,.04-.09,.1-.12,.18-.08,.09,.04,.09,.09,.02,.17Zm-4.57,.19c-.04-.17-.07-.36-.08-.58-.02-.22-.03-.43-.03-.64,0-.09-.04-.14-.11-.14-.2,0-.42,.07-.64,.21-.22,.14-.44,.32-.66,.55-.22,.23-.44,.5-.66,.79-.22,.3-.42,.6-.61,.91-.24,.41-.46,.85-.65,1.32-.19,.47-.28,.92-.26,1.34,0,.13,.02,.25,.07,.36,.05,.11,.15,.17,.32,.17,.31,0,.66-.17,1.03-.53,.37-.35,.72-.76,1.05-1.23,.33-.47,.61-.95,.84-1.43,.23-.48,.36-.85,.4-1.11Z"/><path class="e" d="M63.28,76.04c-.44,.57-.95,1.12-1.52,1.63-.57,.52-1.1,.93-1.58,1.25-.37,.24-.75,.43-1.14,.55-.39,.13-.74,.19-1.05,.19-.11,0-.24,0-.39-.03-.15-.02-.28-.06-.4-.14-.12-.07-.22-.17-.3-.29-.08-.12-.13-.28-.13-.48,0-.24,.09-.57,.28-.98,.18-.42,.4-.85,.65-1.29,.25-.44,.5-.87,.75-1.27,.25-.41,.45-.71,.59-.92,.09-.15,.25-.27,.49-.37,.23-.1,.38-.15,.46-.15,.09,0,.14,.03,.14,.08,0,.04-.01,.09-.04,.17-.03,.07-.06,.13-.1,.17-.24,.37-.48,.78-.73,1.22-.25,.44-.48,.87-.68,1.29-.2,.42-.36,.8-.48,1.15-.12,.35-.18,.63-.18,.83,0,.22,.06,.38,.18,.48,.12,.1,.28,.15,.48,.15,.37,0,.78-.12,1.22-.37,.44-.25,.88-.55,1.32-.9,.43-.35,.84-.72,1.21-1.11,.37-.39,.65-.72,.86-1,.09-.09,.14-.12,.15-.07,0,.05,0,.12-.04,.21Zm-1.25-6.18c0,.22-.1,.44-.29,.67-.19,.22-.41,.33-.65,.33-.22,0-.33-.11-.33-.33,0-.24,.09-.47,.26-.69,.17-.22,.39-.33,.65-.33,.24,0,.36,.12,.36,.36Z"/><path class="e" d="M68.32,69.56c-.15,.04-.31,.11-.5,.21-.19,.1-.32,.23-.41,.37-.42,.59-.84,1.21-1.23,1.86-.4,.65-.78,1.29-1.15,1.94h3.43c.06,.04,.08,.07,.08,.11s-.02,.06-.06,.08c-.15,0-.37,0-.66,.01-.29,0-.62,.02-.97,.04-.35,.02-.71,.04-1.08,.06-.37,.02-.69,.04-.97,.06-.52,.92-.91,1.71-1.19,2.35-.28,.65-.42,1.21-.42,1.69,0,.66,.3,1,.91,1,.29,0,.63-.08,1.01-.24,.38-.16,.78-.36,1.2-.62,.06-.06,.11-.05,.17,.01,.06,.06,.04,.12-.05,.15-.63,.41-1.21,.7-1.74,.89-.54,.18-1.08,.28-1.63,.28-.3,0-.55-.09-.78-.26-.22-.18-.33-.48-.33-.9,0-.37,.17-.91,.5-1.63,.33-.72,.82-1.61,1.47-2.66-.22,.02-.49,.04-.82,.07-.32,.03-.51,.04-.57,.04-.09,0-.14-.04-.14-.11,.07-.13,.19-.26,.36-.39l1.41-.03c.17-.28,.35-.59,.55-.93,.2-.34,.41-.68,.61-1.03,.2-.34,.41-.67,.62-1,.21-.32,.4-.62,.57-.9,.2-.09,.48-.21,.84-.36,.36-.15,.68-.27,.96-.36,.04,0,.06,.02,.08,.07,.02,.05,0,.09-.08,.12Z"/><path class="e" d="M73.5,74.01c-.11,.13-.23,.29-.35,.47-.12,.19-.2,.32-.24,.42-.02,.05-.05,.08-.11,.08-.02,0-.05-.03-.08-.08-.04-.06-.09-.12-.15-.18-.07-.06-.15-.12-.26-.18-.11-.06-.27-.08-.47-.08-.24,0-.51,.08-.8,.25-.29,.17-.55,.35-.77,.55-.35,.3-.66,.62-.93,.97-.27,.35-.52,.71-.76,1.09-.24,.38-.47,.77-.69,1.16-.22,.4-.46,.8-.72,1.21-.02,.05-.07,.08-.17,.08-.04,0-.12-.06-.24-.17-.12-.11-.18-.19-.18-.25,0-.11,.06-.28,.19-.5,.29-.52,.59-1.04,.9-1.56,.3-.53,.59-1.02,.86-1.48,.27-.46,.5-.86,.71-1.2,.2-.34,.34-.6,.42-.76,.09-.17,.16-.25,.19-.25s.13,.05,.28,.14c.15,.09,.22,.22,.22,.39,0,.05-.03,.15-.1,.28-.07,.13-.14,.26-.22,.4-.08,.14-.16,.27-.24,.4-.07,.13-.13,.22-.17,.28-.05,.09-.06,.14-.03,.14s.08-.03,.14-.08c.18-.18,.41-.39,.68-.61,.27-.22,.55-.43,.84-.62,.29-.19,.59-.36,.87-.49,.29-.13,.54-.19,.76-.19,.17,0,.31,.04,.43,.12,.12,.08,.18,.17,.18,.26Z"/><path class="e" d="M82,75.87c-.42,.52-.89,1.04-1.4,1.57-.51,.53-1.02,1-1.54,1.43s-1.03,.77-1.54,1.02c-.51,.26-.97,.39-1.4,.39-.37,0-.63-.09-.78-.28-.15-.18-.22-.42-.22-.69,0-.26,.08-.6,.24-1.04,.16-.43,.39-.9,.71-1.4-.24,.31-.52,.65-.83,1-.31,.35-.64,.67-.97,.96-.33,.29-.67,.53-1,.72-.33,.19-.63,.29-.89,.29-.39,0-.58-.19-.58-.58,0-.42,.17-.96,.5-1.61,.33-.65,.78-1.27,1.34-1.87,.56-.6,1.2-1.12,1.93-1.55,.72-.43,1.47-.65,2.24-.65,.09-.19,.17-.31,.25-.39s.15-.13,.22-.17l.77-.22,.06,.03c-.09,.09-.18,.21-.26,.35-.08,.14-.17,.28-.26,.43,.09,0,.23,0,.42,.03,.18,.02,.32,.04,.42,.06,.09,.04,.14,.08,.14,.14s-.03,.08-.08,.08c-.11-.04-.28-.06-.5-.08-.22-.02-.39-.03-.5-.03-.85,1.5-1.47,2.68-1.87,3.56-.4,.88-.6,1.53-.6,1.95,0,.17,.04,.3,.12,.41,.08,.11,.25,.17,.51,.17,.29,0,.65-.11,1.05-.32,.41-.21,.84-.51,1.3-.89,.46-.38,.94-.82,1.43-1.32,.49-.5,.96-1.03,1.4-1.58,.04-.05,.07-.07,.11-.04,.04,.03,.05,.07,.05,.12Zm-4.32-2.1c-.63,0-1.23,.22-1.8,.67-.57,.44-1.08,.96-1.52,1.57-.44,.6-.8,1.19-1.07,1.79-.27,.59-.4,1.03-.4,1.3,0,.15,.06,.22,.17,.22s.28-.07,.51-.22c.23-.15,.5-.35,.79-.59,.29-.25,.59-.54,.9-.87,.31-.33,.59-.69,.85-1.08,.29-.44,.58-.91,.86-1.41,.28-.5,.53-.94,.75-1.33l-.03-.03Z"/><path class="e" d="M84.36,74.6c-.05,.09-.1,.1-.14,.03-.11-.24-.34-.36-.69-.36-.26,0-.52,.07-.78,.22-.26,.15-.39,.37-.39,.67,0,.15,.05,.3,.14,.44,.09,.15,.22,.34,.39,.58,.15,.22,.29,.44,.42,.67,.13,.22,.19,.45,.19,.69,0,.48-.11,.87-.33,1.18-.22,.3-.49,.55-.79,.73-.3,.18-.61,.31-.93,.37-.31,.06-.56,.1-.75,.1-1.13,0-1.74-.38-1.86-1.14,.09-.05,.2-.12,.32-.21s.21-.16,.26-.24c.04,0,.06,.04,.08,.11,.09,.33,.27,.62,.53,.86,.26,.24,.56,.36,.91,.36,.15,0,.32-.01,.53-.04,.2-.03,.39-.09,.57-.19,.18-.1,.33-.24,.46-.43,.13-.18,.19-.43,.19-.75,0-.24-.05-.46-.14-.66-.09-.2-.19-.39-.3-.55-.11-.18-.22-.37-.33-.55-.11-.19-.17-.39-.17-.61s.08-.46,.24-.72c.16-.26,.36-.49,.6-.71,.24-.21,.5-.39,.79-.54,.29-.15,.57-.22,.85-.22,.29,0,.44,.09,.44,.28-.06,.09-.11,.2-.17,.32-.06,.12-.1,.23-.14,.32Z"/><path class="e" d="M111.81,74.85c0,.61-.15,1.19-.44,1.73-.3,.54-.69,1.02-1.18,1.43-.49,.41-1.05,.73-1.68,.97-.63,.24-1.27,.36-1.94,.36-.78,0-1.47-.19-2.08-.58-1.18,.61-2.48,.91-3.88,.91-.48,0-.94-.05-1.38-.15-.44-.1-.84-.27-1.19-.5-.35-.23-.63-.53-.83-.9-.2-.37-.31-.82-.31-1.36,0-.65,.19-1.26,.55-1.86,.37-.59,.78-1.1,1.25-1.52,.57-.52,1.22-1.01,1.95-1.47,.73-.46,1.39-.9,1.98-1.33,.11-.44,.26-.92,.46-1.41,.19-.5,.42-.96,.68-1.39-1.55,0-3.02,.26-4.42,.78-1.39,.52-2.61,1.22-3.64,2.12-1.03,.9-1.86,1.94-2.46,3.14-.61,1.2-.91,2.47-.91,3.82,0,.94,.18,1.75,.54,2.44,.36,.68,.86,1.25,1.5,1.7,.64,.45,1.38,.79,2.24,1,.86,.21,1.8,.32,2.81,.32,1.24,0,2.41-.17,3.53-.53,1.12-.35,2.15-.91,3.09-1.69,.09-.07,.16-.11,.21-.1,.05,0,.03,.07-.04,.18-.17,.26-.45,.52-.86,.79-.41,.27-.91,.52-1.52,.75-.61,.23-1.3,.42-2.06,.57-.77,.15-1.59,.22-2.48,.22-1,0-1.97-.12-2.91-.34-.94-.23-1.78-.59-2.52-1.08-.74-.49-1.33-1.12-1.79-1.9-.45-.78-.68-1.7-.68-2.77,0-1.37,.36-2.63,1.07-3.79,.71-1.16,1.65-2.18,2.81-3.05,1.16-.87,2.49-1.55,3.99-2.04,1.5-.49,3.03-.73,4.6-.73,.06-.11,.14-.24,.25-.39,.11-.15,.23-.3,.35-.44,.12-.15,.25-.27,.39-.37,.14-.1,.27-.15,.4-.15,.17,0,.29,.05,.36,.14,.07,.09,.11,.18,.11,.28,0,.17-.03,.35-.1,.55-.07,.2-.14,.39-.24,.55,1.16,.2,2.09,.62,2.8,1.26,.7,.64,1.05,1.55,1.05,2.73,0,.61-.11,1.22-.32,1.84-.21,.62-.49,1.21-.84,1.79-.35,.57-.76,1.1-1.22,1.58-.46,.48-.94,.89-1.44,1.22,.26,.18,.55,.35,.89,.48,.33,.14,.67,.21,1.03,.21,.44,0,.89-.06,1.34-.19,.45-.13,.86-.33,1.22-.61,.36-.28,.65-.64,.87-1.08,.22-.44,.33-.98,.33-1.61,0-.35-.05-.66-.15-.94-.1-.28-.24-.51-.4-.71-.17-.19-.35-.35-.55-.46-.2-.11-.4-.17-.58-.19-.04,0-.06-.01-.07-.04-.01-.03,.01-.05,.07-.07,.15,0,.31-.02,.5-.07,.18-.05,.33-.07,.44-.07,.44,0,.8,.19,1.07,.57,.27,.38,.4,.86,.4,1.45Zm-7.51,3.74c-.35-.24-.65-.55-.9-.93-.25-.38-.46-.79-.62-1.25-.17-.45-.29-.93-.36-1.44-.07-.51-.11-1.02-.11-1.54,0-.37,0-.71,.03-1.04,.02-.32,.06-.67,.14-1.04-.43,.39-.88,.79-1.37,1.22-.49,.43-.91,.82-1.26,1.19-.22,.22-.45,.48-.69,.78-.24,.29-.47,.6-.68,.91-.21,.31-.39,.65-.53,1-.14,.35-.21,.69-.21,1.02,0,.41,.08,.74,.25,1,.17,.26,.39,.46,.67,.61,.28,.15,.58,.25,.93,.31,.34,.05,.69,.08,1.04,.08,.63,0,1.26-.07,1.91-.22,.65-.15,1.24-.37,1.77-.67Zm4.4-6.56c0-1.01-.3-1.9-.91-2.66-.61-.76-1.43-1.24-2.47-1.44-.2,.42-.54,.93-1.01,1.52s-1.01,1.17-1.62,1.74c-.07,.31-.11,.69-.11,1.14,0,1.22,.25,2.34,.75,3.35,.5,1.02,1.14,1.81,1.91,2.38,1.16-.81,2.03-1.76,2.6-2.84,.57-1.08,.86-2.15,.86-3.2Zm-3.52-4.13c-.18-.04-.39-.06-.62-.08-.23-.02-.45-.03-.65-.03-.24,.41-.45,.84-.62,1.29-.18,.45-.31,.89-.4,1.32,.44-.31,.89-.71,1.34-1.18,.45-.47,.77-.91,.96-1.32Zm.22-.86c0-.13-.02-.24-.06-.33-.04-.09-.11-.14-.22-.14-.13,0-.25,.04-.36,.11-.11,.07-.22,.17-.32,.28-.1,.11-.19,.23-.26,.35-.07,.12-.13,.22-.17,.29,.44,0,.85,.05,1.22,.14,.04-.11,.07-.23,.11-.35s.06-.24,.06-.35Z"/><path class="e" d="M138.17,59.86c0,.07-.01,.2-.04,.39-.03,.18-.05,.39-.08,.61-.03,.22-.05,.44-.08,.67-.03,.22-.04,.39-.04,.5-.04,.04-.08,.05-.14,.05-.04,0-.07-.02-.11-.05,.04-.15,.06-.28,.07-.39,0-.11,.01-.22,.01-.33,0-.37-.15-.65-.46-.86-.31-.2-.73-.3-1.29-.3-.39,0-.79,.06-1.2,.19-.42,.13-.84,.36-1.27,.69-.43,.33-.89,.78-1.36,1.33-.47,.55-.96,1.26-1.45,2.11-.28,.48-.62,1.1-1.02,1.86-.41,.76-.84,1.57-1.3,2.42-.46,.86-.92,1.74-1.38,2.63-.46,.9-.89,1.73-1.27,2.51,.17,0,.44,0,.83-.01,.39,0,.79-.01,1.19-.01h1.8c.09,.05,.12,.15,.08,.28h-.55c-.3,0-.65,0-1.05,.01-.41,0-.83,.02-1.26,.03s-.83,.01-1.18,.01c-.61,1.18-1.25,2.37-1.92,3.56-.67,1.19-1.35,2.34-2.02,3.45-.67,1.11-1.34,2.14-1.99,3.09-.66,.95-1.26,1.79-1.81,2.51-1.39,1.77-2.7,3.27-3.95,4.5-1.25,1.23-2.43,2.22-3.56,2.99-1.13,.77-2.18,1.32-3.17,1.66-.99,.34-1.93,.51-2.81,.51-.26,0-.54-.03-.84-.08-.3-.05-.6-.17-.89-.33-.29-.17-.54-.4-.76-.71-.22-.3-.39-.71-.5-1.21,0-.15,.02-.21,.06-.19,.04,.02,.07,.07,.11,.17,.02,.13,.09,.3,.22,.51,.13,.21,.32,.42,.57,.62,.25,.2,.56,.38,.93,.51,.37,.14,.81,.21,1.33,.21,.83-.02,1.73-.17,2.7-.46,.97-.29,1.99-.79,3.06-1.51,1.07-.72,2.19-1.68,3.37-2.89,1.17-1.21,2.39-2.74,3.64-4.58,.66-.98,1.33-2.03,1.98-3.14,.66-1.12,1.29-2.22,1.91-3.32,.62-1.1,1.2-2.16,1.75-3.17,.54-1.02,1.04-1.9,1.48-2.66-.79,.05-1.42,.11-1.88,.17-.46,.06-.83,.14-1.11,.26-.28,.12-.49,.3-.65,.53-.16,.23-.34,.55-.54,.96l-.08-.03c.26-.61,.52-1.07,.78-1.37,.26-.3,.5-.49,.72-.57,.15-.04,.35-.07,.59-.11,.25-.04,.52-.07,.8-.08,.29-.02,.57-.04,.85-.06,.28-.02,.52-.03,.72-.03,.92-1.7,1.81-3.27,2.67-4.72,.86-1.45,1.75-2.87,2.67-4.25,.5-.76,1.03-1.49,1.61-2.2,.57-.71,1.15-1.34,1.75-1.88,.59-.54,1.18-.98,1.76-1.3,.58-.32,1.14-.48,1.68-.48,.37,0,.69,.08,.97,.25,.28,.17,.41,.36,.41,.58Z"/><path class="e" d="M133.3,76.04c-.44,.57-.95,1.12-1.52,1.63-.57,.52-1.1,.93-1.58,1.25-.37,.24-.75,.43-1.14,.55-.39,.13-.74,.19-1.05,.19-.11,0-.24,0-.39-.03-.15-.02-.28-.06-.4-.14-.12-.07-.22-.17-.3-.29-.08-.12-.12-.28-.12-.48,0-.24,.09-.57,.28-.98,.18-.42,.4-.85,.65-1.29,.25-.44,.5-.87,.75-1.27,.25-.41,.45-.71,.59-.92,.09-.15,.25-.27,.49-.37,.23-.1,.38-.15,.46-.15,.09,0,.14,.03,.14,.08,0,.04-.01,.09-.04,.17-.03,.07-.06,.13-.1,.17-.24,.37-.48,.78-.73,1.22-.25,.44-.48,.87-.68,1.29-.2,.42-.36,.8-.48,1.15-.12,.35-.18,.63-.18,.83,0,.22,.06,.38,.18,.48,.12,.1,.28,.15,.48,.15,.37,0,.78-.12,1.22-.37,.44-.25,.88-.55,1.32-.9,.43-.35,.83-.72,1.2-1.11,.37-.39,.66-.72,.86-1,.09-.09,.14-.12,.15-.07,0,.05,0,.12-.04,.21Zm-1.25-6.18c0,.22-.1,.44-.29,.67-.19,.22-.41,.33-.65,.33-.22,0-.33-.11-.33-.33,0-.24,.09-.47,.26-.69,.17-.22,.39-.33,.65-.33,.24,0,.36,.12,.36,.36Z"/><path class="e" d="M145.02,61.61c0,.26-.1,.64-.3,1.14-.2,.5-.5,1.08-.87,1.73-.38,.66-.84,1.36-1.38,2.11-.54,.75-1.16,1.49-1.86,2.23-.69,.74-1.45,1.44-2.29,2.12-.83,.67-1.72,1.27-2.66,1.79-.17,.3-.4,.69-.69,1.19-.3,.5-.59,1.03-.87,1.58-.29,.55-.54,1.1-.75,1.63-.21,.54-.32,.99-.32,1.36,0,.59,.27,.89,.8,.89,.46,0,.94-.13,1.44-.39,.5-.26,.97-.57,1.43-.94,.45-.37,.88-.76,1.27-1.18,.4-.41,.73-.79,1.01-1.12,.13-.13,.2-.16,.22-.1,.02,.07,0,.13-.08,.21-.33,.41-.73,.84-1.18,1.3-.45,.46-.93,.89-1.44,1.27-.51,.39-1.04,.71-1.59,.97-.55,.26-1.11,.39-1.66,.39-.48,0-.83-.12-1.04-.35-.21-.23-.32-.51-.32-.85s.14-.81,.43-1.43c.29-.62,.62-1.27,1.01-1.95,.39-.68,.78-1.33,1.16-1.94,.39-.61,.67-1.07,.86-1.38,.31-.54,.64-1.09,.98-1.68,.34-.58,.68-1.15,1.01-1.7,.33-.55,.65-1.08,.96-1.59,.3-.51,.59-.96,.84-1.34,.31-.48,.64-.93,.97-1.36,.33-.42,.76-.85,1.27-1.27,.7-.59,1.35-1.04,1.94-1.36,.59-.31,.99-.47,1.19-.47,.15,0,.27,.04,.36,.12,.09,.08,.14,.21,.14,.37Zm-1.25,.72c0-.29-.12-.44-.36-.44-.09,0-.19,.03-.3,.08-.11,.06-.25,.17-.43,.35-.17,.18-.39,.42-.64,.73-.25,.31-.57,.72-.96,1.22-.15,.2-.36,.5-.62,.89-.27,.39-.61,.9-1.02,1.54-.42,.64-.92,1.42-1.5,2.35-.58,.93-1.27,2.04-2.06,3.31,1.11-.63,2.15-1.39,3.12-2.29,.97-.9,1.81-1.82,2.51-2.76,.7-.94,1.26-1.86,1.66-2.74,.41-.89,.61-1.63,.61-2.24Z"/><path class="e" d="M141.5,74.6c-.05,.09-.1,.1-.14,.03-.11-.24-.34-.36-.69-.36-.26,0-.52,.07-.78,.22-.26,.15-.39,.37-.39,.67,0,.15,.05,.3,.14,.44,.09,.15,.22,.34,.39,.58,.15,.22,.29,.44,.41,.67,.13,.22,.19,.45,.19,.69,0,.48-.11,.87-.33,1.18-.22,.3-.49,.55-.79,.73-.3,.18-.61,.31-.93,.37-.31,.06-.56,.1-.75,.1-1.13,0-1.75-.38-1.86-1.14,.09-.05,.2-.12,.32-.21,.12-.08,.21-.16,.26-.24,.04,0,.06,.04,.08,.11,.09,.33,.27,.62,.53,.86,.26,.24,.56,.36,.91,.36,.15,0,.32-.01,.53-.04,.2-.03,.39-.09,.57-.19,.18-.1,.33-.24,.46-.43,.13-.18,.19-.43,.19-.75,0-.24-.05-.46-.14-.66-.09-.2-.19-.39-.3-.55-.11-.18-.22-.37-.33-.55-.11-.19-.17-.39-.17-.61s.08-.46,.24-.72c.16-.26,.36-.49,.59-.71,.24-.21,.5-.39,.79-.54,.29-.15,.57-.22,.84-.22,.29,0,.44,.09,.44,.28-.06,.09-.11,.2-.17,.32-.06,.12-.1,.23-.14,.32Z"/></g></g></g></g></svg>