<svg xmlns="http://www.w3.org/2000/svg" viewBox="0 0 391.38 406.22"><defs><style>.cls-1{fill:none;stroke:#ff3864;stroke-miterlimit:10;stroke-width:10px;}.cls-2{fill:#261447;}</style></defs><g id="Calque_2" data-name="Calque 2"><g id="Calque_2-2" data-name="Calque 2"><path class="cls-1" d="M193.51,273c56.28,5.93,95.36-3,141.71-49.66C381.34,177,391.8,142,384.06,81.35"/><path class="cls-1" d="M197.76,277.23c-6.25-56.25,2.5-95.38,48.84-142,46.12-46.38,81-57,141.71-49.66"/><path class="cls-1" d="M192.15,272.8c54.26-16.07,86.94-39.31,111.92-100.11,24.85-60.51,21.15-96.79-9.22-149.88"/><path class="cls-1" d="M197.7,275.07C170.4,225.5,163.5,186,188.48,125.2c24.85-60.5,53-83.71,111.92-100.11"/><path class="cls-1" d="M193.48,274.21c44-35.6,65.27-69.58,65.08-135.32C258.37,73.48,241.06,41.38,192.69,4"/><path class="cls-1" d="M199.47,274.2c-44.19-35.35-65.68-69.2-65.87-134.94-.19-65.41,16.93-97.62,65.09-135.32"/><path class="cls-1" d="M197.87,273c-56.28,5.93-95.36-3-141.71-49.66C10,177-.42,142,7.32,81.35"/><path class="cls-1" d="M193.62,277.23c6.25-56.25-2.49-95.38-48.84-142-46.12-46.38-81-57-141.71-49.66"/><path class="cls-1" d="M199.23,272.8C145,256.73,112.3,233.49,87.32,172.69,62.46,112.18,66.17,75.9,96.53,22.81"/><path class="cls-1" d="M193.69,275.07C221,225.5,227.89,186,202.91,125.2,178.05,64.7,149.9,41.49,91,25.09"/><path class="cls-2" d="M105.16,345.23c1.17,1,2.19,1.93,3.06,2.75s1.86,1.82,3,3a39.64,39.64,0,0,1,2.84,3.27,38.73,38.73,0,0,1,2.35,3.44,22.54,22.54,0,0,1,1.84,3.73,20.2,20.2,0,0,1,1,3.95,16.74,16.74,0,0,1,.11,4.24,16,16,0,0,1-2.55,7.13,21.41,21.41,0,0,1-5.23,5.68,27.46,27.46,0,0,1-6.7,3.68,12.55,12.55,0,0,1-3.52.92c-1.36.17-2.75.28-4.17.32a18.68,18.68,0,0,1-4.32-.39,20.4,20.4,0,0,1-4-1.23,9.51,9.51,0,0,1-3.18-2.22,7.75,7.75,0,0,1-1.86-3.33c-.28-1.07.36-1.73,1.91-2a14.14,14.14,0,0,1,6.71.81l1.24.45A20.78,20.78,0,0,0,97.17,378q6.6-3.57,8.8-9.42a12.72,12.72,0,0,0,.83-4.05,14.4,14.4,0,0,0-.3-3.79,15.08,15.08,0,0,0-1.4-3.66,28.17,28.17,0,0,0-4.61-6.57q-1.62-1.78-2.76-2.88l-2.83-2.7c-.76-.7-1.89-1.72-3.41-3.06s-2.77-2.46-3.75-3.35-2.13-2-3.46-3.39a40.14,40.14,0,0,1-3.3-3.81,27.19,27.19,0,0,1-2.45-4,18.16,18.16,0,0,1-1.64-4.44,15.15,15.15,0,0,1-.06-6.15A18,18,0,0,1,79,311,22.93,22.93,0,0,1,83,306.11a22.25,22.25,0,0,1,5-3.59A14.93,14.93,0,0,1,92.55,301a17.35,17.35,0,0,1,5-.11,9,9,0,0,1,4.45,1.8,7.36,7.36,0,0,1,2.66,4c.19.7-.4.9-1.79.6a5.08,5.08,0,0,1-2.55-1l-.14-.16c-.67-1.05-1.21-1.64-1.63-1.78a4.62,4.62,0,0,0-2.45.51,16.49,16.49,0,0,0-5.27,3.72,19.67,19.67,0,0,0-4.43,6.61,14.08,14.08,0,0,0-1,7.45,16,16,0,0,0,1.87,5.44,23.8,23.8,0,0,0,3.83,5.1c1.58,1.62,3.07,3,4.48,4.24s3.12,2.59,5.13,4.16S104.21,344.37,105.16,345.23ZM91.49,380s0,0-.1.06l.25-.08C91.53,379.94,91.49,379.94,91.49,380Z"/><path class="cls-2" d="M136,328.37a13.9,13.9,0,0,1,4.64,5.36,14.82,14.82,0,0,1,1.53,7q-.09,5.19-4.12,11.14a27.26,27.26,0,0,1-10.11,9.1,103.45,103.45,0,0,1,3.31,21.28,102,102,0,0,1-1.2,23.38q-.3.63-1.47.6a5.29,5.29,0,0,1-2.44-.77c-.85-.48-1.24-1-1.16-1.51q4.65-33.39-12.19-74.64c-.12-.29,0-.5.4-.61a5.46,5.46,0,0,1,3.11.45c.9.33,1.45.73,1.63,1.21.08.18.19.45.34.82s.26.63.34.81a10.84,10.84,0,0,1,3.92-5.16,7.67,7.67,0,0,1,4.49-1.35,14.49,14.49,0,0,1,4.76.78A17.39,17.39,0,0,1,136,328.37Zm-10.86,22.06a30.51,30.51,0,0,0,3.15-3.4,25.62,25.62,0,0,0,2.56-4,16.93,16.93,0,0,0,1.6-4.27,10.73,10.73,0,0,0,0-4.34,9.72,9.72,0,0,0-1.92-4.17.54.54,0,0,0-.1-.13,2,2,0,0,1-.18-.21l-.18-.2h-.26a6.67,6.67,0,0,0-1.91.94,9.69,9.69,0,0,0-1.78,1.66,10.26,10.26,0,0,0-1.35,2.17c-.4.82-.71,1.53-1,2.14s-.53,1.45-.88,2.51-.61,1.82-.77,2.28Q123.51,345.14,125.12,350.43Zm5.5-20.77h-.07l-.07.05.09.06A.11.11,0,0,1,130.62,329.66Z"/><path class="cls-2" d="M178.71,338.62a1.31,1.31,0,0,1,1,.09c.44.18.65.41.63.68a5.68,5.68,0,0,1-1,2.22c-1.84,2.85-2.77,4.29-2.79,4.34q-.47.71-4.47,6.24a1,1,0,0,1-.73.38,2,2,0,0,1-1.25.05,6.18,6.18,0,0,1-1.24-.31,8.44,8.44,0,0,1-2.92-2.16,8.06,8.06,0,0,1-3.81,2.13,10.59,10.59,0,0,1-4.58.19,15.67,15.67,0,0,1-6.94-3,16,16,0,0,1-4.8-5.86,23.39,23.39,0,0,1-1.83-5.46,19.7,19.7,0,0,1-.33-5.72,16.23,16.23,0,0,1,1.34-5.25A10.73,10.73,0,0,1,148.4,323a12.86,12.86,0,0,1,5.58-2.31,14.77,14.77,0,0,1,4.83,0A16.48,16.48,0,0,1,163.2,322a14.25,14.25,0,0,1,3.13,2,3.29,3.29,0,0,1,1.34,1.94c.06.79.2,2.45.43,5s.4,4.37.52,5.56.31,2.76.58,4.71.55,3.72.87,5.32q1.52-1.57,2.52-2.55.41-.39,1.35-1.38c.62-.65,1.14-1.18,1.55-1.58a15.57,15.57,0,0,1,1.51-1.28A9,9,0,0,1,178.71,338.62Zm-22.66,9.81a2.52,2.52,0,0,0,1.68.62,4.14,4.14,0,0,0,2-.63,17.37,17.37,0,0,0,1.76-1.16c.48-.36,1.06-.86,1.75-1.49-.32-.72-1.06-2.6-2.24-5.63a99,99,0,0,1-3.56-12.4,7.16,7.16,0,0,0-2.66,3.16,13.72,13.72,0,0,0-1.24,4.22,27.3,27.3,0,0,0-.15,4.47Q153.7,346.46,156.05,348.43Z"/><path class="cls-2" d="M237.38,327a74.09,74.09,0,0,1,6.13,33.47,53.31,53.31,0,0,1-.79,7.17,48.42,48.42,0,0,1-1.81,6.95,28.11,28.11,0,0,1-3.23,6.55,23.36,23.36,0,0,1-4.79,5.29,20.34,20.34,0,0,1-7.08,3.77,22.6,22.6,0,0,1-7.88,1,31.28,31.28,0,0,1-7.83-1.48,30.51,30.51,0,0,1-7.28-3.43q-15.45-9.89-18.67-37.5a67.53,67.53,0,0,1,.59-17.55A38.2,38.2,0,0,1,190.37,316a31,31,0,0,1,5-5.78,27.9,27.9,0,0,1,6.16-4.23,18.81,18.81,0,0,1,7.16-1.93,17.12,17.12,0,0,1,7.52,1.19s0,0,0,0a.09.09,0,0,1,.08,0,23.88,23.88,0,0,1,6.9,3.26,30.26,30.26,0,0,1,5.92,5.27,50.62,50.62,0,0,1,4.64,6.29A58.93,58.93,0,0,1,237.38,327Zm-4.72,24.44a62.76,62.76,0,0,0-.33-10,80.82,80.82,0,0,0-2-11.32,82.09,82.09,0,0,0-3.41-10.68,31.55,31.55,0,0,0-4.81-8.39,11.38,11.38,0,0,0-6-4.19,9.59,9.59,0,0,0-6.83.72,15.19,15.19,0,0,0-5.38,5,33.22,33.22,0,0,0-4,8,59.59,59.59,0,0,0-2.5,9.93,80.35,80.35,0,0,0-1.06,10.66,68.74,68.74,0,0,0,.35,10.18q1.57,14.31,6.31,23.16a29.17,29.17,0,0,0,4.83,6.86,17.7,17.7,0,0,0,2.16,2,11.22,11.22,0,0,0,1.27.8l.22.13-.14-.07a3.61,3.61,0,0,1,.44.22.19.19,0,0,0,.15,0h.26a13,13,0,0,0,2.1-.07,13.7,13.7,0,0,0,4.06-1.4,19.39,19.39,0,0,0,7.44-7.18Q231.81,366.39,232.66,351.41Z"/><path class="cls-2" d="M281.09,342.45a1.32,1.32,0,0,1,1,.1c.45.17.65.4.63.67a5.68,5.68,0,0,1-1,2.22c-.16.22-.56.86-1.22,1.93s-1.17,1.86-1.53,2.41-1.8,2.54-4.47,6.24a1,1,0,0,1-.35.28,1.88,1.88,0,0,1-1.44.35,26.08,26.08,0,0,1-8.48-1.71,21.29,21.29,0,0,1-7.13-4.46l-.75-.69c-.42-.38-.8-.74-1.14-1.1a9.2,9.2,0,0,1-.89-1.05q1.68,12.69,2.89,24c.09.81-.45,1.13-1.62,1a5.16,5.16,0,0,1-2.86-1.37,1.73,1.73,0,0,1-.66-1.09q-2-14.81-3.14-23t-2.56-20.79q-1.47-12.61-2.39-23.07c-.07-.84.47-1.17,1.61-1a5.11,5.11,0,0,1,2.94,1.35,2,2,0,0,1,.67,1.16q1.1,11.63,4.47,37.83c1-1.08,1.5-1.71,1.65-1.88a45.11,45.11,0,0,0,3.07-5.45c.65-1.3,1.15-2.39,1.51-3.27a16.78,16.78,0,0,0,.9-3.25,9.5,9.5,0,0,0,0-3.56c-.2-1.06.57-1.66,2.32-1.79a12.8,12.8,0,0,1,5.84,1.07c2,.85,3,1.85,3.07,3q.1,5.08-4.62,10.86-5,6.11-10.44,8A47.85,47.85,0,0,0,262.5,349c2.28.95,4.22,1.71,5.82,2.26l2.37.87c.6-.64,1.37-1.45,2.32-2.43s2.36-2.35,4.25-4.12A20.44,20.44,0,0,1,281.09,342.45Z"/><path class="cls-2" d="M312.11,337.11a1.32,1.32,0,0,1,1,.1c.44.17.65.4.62.67a5.39,5.39,0,0,1-1,2.22q-2.76,4.27-2.78,4.35-.46.69-4.47,6.23a1.1,1.1,0,0,1-.74.39,2.1,2.1,0,0,1-1.25.05,6,6,0,0,1-1.24-.32,8.53,8.53,0,0,1-2.92-2.16,8.06,8.06,0,0,1-3.81,2.14,10.74,10.74,0,0,1-4.58.18,15.62,15.62,0,0,1-6.93-3,16.08,16.08,0,0,1-4.8-5.87,23.72,23.72,0,0,1-1.84-5.46,20,20,0,0,1-.32-5.72,15.85,15.85,0,0,1,1.34-5.24,10.56,10.56,0,0,1,3.4-4.14,12.62,12.62,0,0,1,5.58-2.31,14.5,14.5,0,0,1,4.83,0,16.19,16.19,0,0,1,4.4,1.29,14.35,14.35,0,0,1,3.13,2,3.21,3.21,0,0,1,1.33,1.94c.06.79.21,2.44.44,5s.39,4.37.52,5.56.31,2.77.57,4.71.55,3.73.88,5.32c1-1.05,1.85-1.9,2.51-2.55q.4-.39,1.35-1.38l1.55-1.58a18.72,18.72,0,0,1,1.51-1.28A9.38,9.38,0,0,1,312.11,337.11Zm-22.66,9.81a2.5,2.5,0,0,0,1.67.62,4,4,0,0,0,2-.63,16.54,16.54,0,0,0,1.77-1.16c.47-.36,1.06-.86,1.75-1.49-.32-.72-1.07-2.6-2.25-5.62a100,100,0,0,1-3.55-12.41,7.3,7.3,0,0,0-2.67,3.16,13.72,13.72,0,0,0-1.24,4.22,26.34,26.34,0,0,0-.14,4.48C287,342.66,287.88,345.61,289.45,346.92Z"/></g></g></svg>