<?xml version="1.0" encoding="UTF-8"?><svg xmlns="http://www.w3.org/2000/svg" width="311.9" height="314.03" viewBox="0 0 311.9 314.03"><defs><style>.d{fill:#5b9ad8;stroke:#fff;stroke-miterlimit:10;stroke-width:3px;}</style></defs><g id="a"/><g id="b"><g id="c"><g><g><path class="d" d="M153.36,2.15s-91.37,91.37,0,193.81c0,0,95.52-92.75,0-193.81Z"/><path class="d" d="M229.81,17.14s-118.9,50.58-72.46,179.75c0,0,123.27-50.31,72.46-179.75Z"/><path class="d" d="M296.85,72.29s-128.88-9.27-146.52,126.86c0,0,132.64,11.5,146.52-126.86Z"/><path class="d" d="M77.28,17.14s118.9,50.58,72.46,179.75c0,0-123.27-50.31-72.46-179.75Z"/><path class="d" d="M1.65,72.29s128.88-9.27,146.52,126.86c0,0-132.64,11.5-146.52-126.86Z"/></g><g><path d="M68.41,215.02c0-4.93,4.09-9.03,9.01-9.03,2.25,.02,4.44,1.05,6.03,2.65l-1.15,1.56c-1.26-1.29-3.02-2.2-4.95-2.2-3.52,0-6.93,3.05-6.93,7.02s3.37,7,6.96,7c1.98,0,3.67-.94,4.93-2.18l1.14,1.59c-1.46,1.45-3.43,2.58-6.02,2.58-4.87,0-9.02-4.01-9.02-8.99Z"/><path d="M87.82,208.19v5.55h7.21v1.98h-7.21v6.09h8.32v1.97h-10.3v-17.54h10.3v1.95h-8.32Z"/><path d="M113.37,206.2v17.85h-.1l-12.02-13.35v13.1h-1.98v-17.83h.11l12.01,13.34v-13.11h1.98Z"/><path d="M127.93,208.2h-5.08v15.58h-1.98v-15.58h-5.1v-1.96h12.16v1.96Z"/><path d="M140.49,223.78l-4.9-6.84h-3.27v6.84h-1.98v-17.54h5.17c3.25,0,5.91,2.5,5.91,5.59,0,2.27-1.56,4.23-3.69,4.87l5.21,7.07h-2.45Zm-4.92-8.51c2.09,0,3.81-1.59,3.81-3.48,0-2.02-1.74-3.59-3.81-3.59h-3.26v7.06h3.26Z"/><path d="M146.95,208.19v5.55h7.21v1.98h-7.21v6.09h8.32v1.97h-10.3v-17.54h10.3v1.95h-8.32Z"/><path d="M178.76,215.02c0,5.35-3.48,8.76-8.94,8.76h-4.88v-17.54h4.88c5.46-.01,8.94,3.41,8.94,8.78Zm-1.99,0c0-4.15-2.72-6.82-6.96-6.82h-2.89v13.6h2.93c4.22,0,6.93-2.65,6.93-6.78Z"/><path d="M183.5,208.19v5.55h7.21v1.98h-7.21v6.09h8.32v1.97h-10.3v-17.54h10.3v1.95h-8.32Z"/><path d="M200.38,220.65l1.52-1.12c.79,1.5,2.59,2.5,4.45,2.5,2.29,0,4.17-1.24,4.17-2.97,0-1.97-2.51-2.92-4.75-3.76-2.15-.84-4.56-1.89-4.56-4.6s2.43-4.71,5.5-4.71c2.6,0,4.37,1.42,5.03,3.15l-1.49,1c-.57-1.32-1.98-2.21-3.56-2.21-1.88,0-3.49,1.24-3.49,2.81,0,1.7,1.93,2.32,4.19,3.19,2.63,1.07,5.12,2.29,5.12,5.1,0,3.02-2.8,4.99-6.17,4.99-2.88,0-5.12-1.5-5.96-3.37Z"/><path d="M215.09,206.24h5.56c3.39,0,6.17,2.55,6.17,5.66s-2.77,5.41-6.17,5.41h-3.58v6.47h-1.98v-17.54Zm9.75,5.64c0-2.02-1.88-3.68-4.19-3.68h-3.58v7.15h3.58c2.31,.02,4.19-1.54,4.19-3.47Z"/><path d="M237.39,220.9h-9.57l-1.28,2.88h-2.14l8.1-17.81h.22l8.12,17.81h-2.15l-1.28-2.88Zm-.76-1.72l-4.01-9.02-4.03,9.02h8.04Z"/><path d="M47.28,304.33v8.53H1.48v-75.96H10.05v67.43H47.28Z"/><path d="M49.68,274.92c0-21.53,17.58-39.11,39.01-39.11s39.06,17.58,39.06,39.11-17.58,38.92-39.11,38.92-38.97-17.53-38.97-38.92Zm69.41-.05c0-16.73-13.67-30.44-30.44-30.44s-30.3,13.71-30.3,30.44,13.62,30.3,30.3,30.3,30.44-13.62,30.44-30.3Z"/><path d="M183.07,245.38h-22v67.47h-8.58v-67.47h-22.1v-8.48h52.68v8.48Z"/><path d="M192.68,283.36v-46.46h8.62v46.41c0,12.77,8.29,22.05,19.51,22.05s19.51-9.33,19.51-22.05v-46.41h8.62v46.46c0,17.72-11.97,30.67-28.13,30.67s-28.13-12.96-28.13-30.67Z"/><path d="M259.36,299.29l6.6-4.85c3.44,6.5,11.21,10.84,19.27,10.84,9.94,0,18.05-5.37,18.05-12.86,0-8.53-10.88-12.63-20.59-16.3-9.33-3.63-19.74-8.2-19.74-19.93s10.51-20.4,23.84-20.4c11.26,0,18.94,6.17,21.77,13.67l-6.46,4.33c-2.45-5.7-8.58-9.57-15.41-9.57-8.15,0-15.12,5.37-15.12,12.16,0,7.35,8.34,10.04,18.14,13.81,11.4,4.62,22.19,9.89,22.19,22.1,0,13.1-12.11,21.63-26.72,21.63-12.49,0-22.19-6.5-25.82-14.61Z"/></g></g></g></g></svg>