<?xml version="1.0" encoding="UTF-8"?><svg xmlns="http://www.w3.org/2000/svg" viewBox="0 0 150.51 137.23"><defs><style>.d{fill:#8cc63f;}</style></defs><g id="a"/><g id="b"><g id="c"><g><g><path class="d" d="M108.39,21.52c-5.98,1.04-10.4,3.47-13.55,6.97-.53-1.21-1.47-2.09-2.95-2.6-.41-1.04-.82-2.06-1.22-3.03,3.98,.62,7.36,.26,10.52-.41,3.53-.83,6.75-2.2,9.66-4.01,2.91-1.81,5.54-4.12,7.82-6.94,2.25-2.89,4.24-6.19,5.36-10.87-4.69-1.01-8.54-.65-12.11,.11-3.54,.84-6.74,2.19-9.66,4.03-2.91,1.83-5.52,4.13-7.8,6.96-1.91,2.43-3.61,5.17-4.79,8.77-6.24-14.57-10.22-16.93-12.28-16.69l.44,4.01c-.34,.04-.52-.02-.52-.02,.18,.06,3.6,1.55,10.04,17.62-1.13,.05-2.39,.2-3.82,.45-22.52,3.94-37.77,24.28-34.07,45.42,3.7,21.14,24.95,35.1,47.47,31.16,7.8-1.37,10.16-3.9,9.73-7.5,4.25,2.9,9.26,4.17,15.14,3.15,18.13-3.17,29.81-22.88,26.11-44.03-3.7-21.14-21.38-35.71-39.51-32.54Z"/><g><path d="M17.1,79.8c-.77-2.29-1.56-4.44-2.36-6.44L5.56,50.41c-1.32-3.32-2.09-5.13-2.31-5.44s-.96-.46-2.21-.46H0v-1.62c2.67,.12,4.94,.18,6.82,.18,1.97,0,4.34-.06,7.1-.18v1.62h-2.53c-.87,0-1.43,.08-1.69,.25-.26,.16-.38,.42-.38,.76,0,.22,.04,.47,.13,.75l3.32,8.87,6.98,17.79,6.78-16.96c2.27-5.66,3.4-8.97,3.4-9.93,0-.78-.47-1.18-1.41-1.22l-1.05-.08-2.2-.23v-1.62c2.27,.12,4.14,.18,5.6,.18s3.46-.06,5.78-.18v1.62h-1.03c-.82,0-1.41,.19-1.78,.58-.37,.38-1.03,1.75-1.99,4.09l-8.64,21.1c-1.62,3.97-2.78,7.14-3.46,9.51h-2.64Z"/><path d="M37.82,66.98c.09,3.37,.95,5.92,2.59,7.67,1.64,1.74,3.79,2.62,6.45,2.62,1.19,0,2.38-.2,3.56-.59,1.18-.39,2.35-.98,3.51-1.77l.44,.38-.82,2.15c-1.42,.82-2.88,1.44-4.38,1.85-1.5,.41-3.05,.62-4.64,.62-3.47,0-6.27-1.1-8.4-3.29-2.13-2.2-3.19-5.17-3.19-8.94,0-2.87,.6-5.36,1.79-7.46,.79-1.38,2.24-2.67,4.36-3.85s4.18-1.77,6.18-1.77c3.03,0,5.42,.89,7.19,2.67,1.77,1.78,2.65,4.26,2.65,7.46l-.05,1.51c-1.13,.27-2.2,.45-3.23,.54-1.83,.14-4.36,.21-7.6,.21h-6.4Zm.05-1.92c2.65,.12,5.57,.18,8.77,.18,1.28,0,2.52-.06,3.72-.18v-1.44c0-1.5-.3-2.93-.9-4.28-.38-.84-1.03-1.53-1.97-2.09-.94-.56-2.03-.83-3.26-.83-1.91,0-3.44,.7-4.59,2.1-1.15,1.4-1.74,3.58-1.77,6.54Z"/><path d="M66.33,60.41c.69-.65,1.43-1.5,2.24-2.56,.96-1.25,1.85-2.1,2.67-2.56,.82-.46,1.69-.69,2.6-.69s1.66,.11,2.16,.33c.24,.1,.36,.27,.36,.49l-.03,.26c-.27,1.38-.42,3.33-.46,5.82h-1.15c-.39-.87-.86-1.49-1.39-1.85-.54-.36-1.18-.54-1.93-.54-1.01,0-1.94,.34-2.8,1.02-.86,.68-1.44,1.64-1.73,2.87-.29,1.23-.43,3.64-.43,7.25,0,2.37,.09,4.37,.28,5.99,.07,.6,.24,.97,.51,1.13,.65,.36,1.61,.54,2.87,.54h1.54v1.49c-2.62-.12-5.09-.18-7.44-.18s-4.52,.06-6.74,.18v-1.49l2.46-.21c.87-.07,1.42-.23,1.65-.49,.23-.26,.38-1.08,.45-2.49,.12-2.46,.18-5.38,.18-8.77,0-4.12-.16-6.54-.49-7.26-.22-.46-.92-.69-2.1-.69h-2.15v-1.49c1.66-.19,3.14-.43,4.44-.73,1.3-.3,2.45-.68,3.46-1.14,.24-.12,.44-.18,.59-.18,.19,0,.32,.05,.38,.15,.07,.1,.1,.33,.1,.7l-.1,5.1Z"/><path d="M99.36,59.36c.39,1.1,.59,2,.59,2.7,0,1.52-.46,2.99-1.38,4.41-.92,1.41-2.24,2.55-3.95,3.42-1.71,.87-3.56,1.3-5.54,1.3l-1.21-.03c-1.12,.83-1.84,1.45-2.13,1.86-.3,.41-.45,.81-.45,1.2,0,.65,.33,1.16,1,1.53,.67,.37,2.03,.56,4.08,.56,.79,0,1.91-.03,3.38-.09,2.1-.1,3.62-.14,4.56-.14,1.35,0,2.38,.22,3.1,.65,.72,.44,1.33,1.2,1.85,2.29,.51,1.09,.77,2.31,.77,3.68,0,1.92-.58,3.75-1.74,5.51-1.16,1.75-2.86,3.16-5.08,4.22-2.22,1.06-4.78,1.59-7.67,1.59-3.52,0-6.23-.76-8.13-2.29-1.9-1.53-2.85-3.41-2.85-5.65,0-1.38,.5-2.79,1.49-4.21,1.78-.84,3.27-1.68,4.48-2.54-1.4-.46-2.3-.88-2.7-1.26-.4-.38-.6-.87-.6-1.47,0-.71,.2-1.42,.59-2.12,.22-.43,.79-.95,1.69-1.56l2.48-1.76c-2.05-.51-3.53-1.24-4.43-2.18-1.2-1.27-1.79-2.89-1.79-4.85,0-1.73,.44-3.3,1.33-4.72s2.2-2.54,3.92-3.36c2.21-1.04,4.33-1.57,6.38-1.57,1.3,0,2.44,.17,3.42,.51,.98,.34,1.99,.92,3.01,1.74h2.15c2.22,0,3.95-.08,5.18-.23l.28,.54c-.51,.74-.97,1.52-1.36,2.33h-4.74Zm-10.88,20.38c-1.21,0-2.04,.14-2.48,.41-1.43,.92-2.3,1.67-2.61,2.24-.51,.89-.77,2.01-.77,3.37,0,1.87,.69,3.41,2.07,4.62,1.38,1.22,3.3,1.82,5.76,1.82,1.89,0,3.56-.35,4.99-1.05s2.55-1.67,3.34-2.89c.79-1.22,1.19-2.49,1.19-3.79,0-1.11-.28-2.09-.83-2.93-.56-.84-1.22-1.38-1.98-1.62-.39-.12-1.29-.18-2.69-.18h-5.99Zm7.01-16.33c0-2.14-.55-3.87-1.65-5.17-1.1-1.3-2.48-1.96-4.14-1.96s-2.97,.53-3.97,1.6c-1,1.06-1.5,2.54-1.5,4.43,0,2.28,.54,4.07,1.63,5.37,1.09,1.29,2.45,1.94,4.1,1.94s2.98-.54,4-1.63,1.53-2.61,1.53-4.57Z"/><path d="M111.98,66.98c.08,3.37,.95,5.92,2.58,7.67,1.64,1.74,3.79,2.62,6.45,2.62,1.19,0,2.38-.2,3.56-.59,1.18-.39,2.35-.98,3.51-1.77l.43,.38-.82,2.15c-1.42,.82-2.88,1.44-4.38,1.85-1.5,.41-3.05,.62-4.64,.62-3.47,0-6.27-1.1-8.4-3.29-2.13-2.2-3.19-5.17-3.19-8.94,0-2.87,.6-5.36,1.79-7.46,.79-1.38,2.24-2.67,4.36-3.85s4.18-1.77,6.18-1.77c3.03,0,5.42,.89,7.19,2.67,1.77,1.78,2.65,4.26,2.65,7.46l-.05,1.51c-1.13,.27-2.2,.45-3.23,.54-1.83,.14-4.36,.21-7.6,.21h-6.4Zm.05-1.92c2.65,.12,5.57,.18,8.77,.18,1.28,0,2.52-.06,3.72-.18v-1.44c0-1.5-.3-2.93-.9-4.28-.38-.84-1.03-1.53-1.97-2.09s-2.03-.83-3.26-.83c-1.92,0-3.45,.7-4.59,2.1-1.15,1.4-1.74,3.58-1.77,6.54Z"/><path d="M140.49,60.41c.69-.65,1.43-1.5,2.24-2.56,.96-1.25,1.85-2.1,2.67-2.56s1.69-.69,2.6-.69,1.66,.11,2.16,.33c.24,.1,.36,.27,.36,.49l-.03,.26c-.27,1.38-.42,3.33-.46,5.82h-1.15c-.39-.87-.86-1.49-1.39-1.85-.54-.36-1.18-.54-1.93-.54-1,0-1.94,.34-2.8,1.02s-1.44,1.64-1.73,2.87c-.29,1.23-.43,3.64-.43,7.25,0,2.37,.09,4.37,.28,5.99,.07,.6,.24,.97,.51,1.13,.65,.36,1.61,.54,2.87,.54h1.54v1.49c-2.62-.12-5.09-.18-7.44-.18s-4.52,.06-6.74,.18v-1.49l2.46-.21c.87-.07,1.42-.23,1.65-.49,.23-.26,.38-1.08,.45-2.49,.12-2.46,.18-5.38,.18-8.77,0-4.12-.16-6.54-.49-7.26-.22-.46-.92-.69-2.1-.69h-2.15v-1.49c1.66-.19,3.14-.43,4.44-.73,1.3-.3,2.45-.68,3.46-1.14,.24-.12,.44-.18,.59-.18,.19,0,.32,.05,.38,.15,.07,.1,.1,.33,.1,.7l-.1,5.1Z"/></g></g><g><path d="M15.26,107.04h6.28c.84,0,1.62,.09,2.32,.27,.7,.18,1.31,.43,1.81,.76,.5,.33,.89,.72,1.18,1.18,.28,.46,.42,.97,.42,1.54,0,.35-.04,.67-.11,.96s-.2,.57-.37,.83c-.17,.26-.4,.51-.69,.75-.29,.24-.64,.48-1.06,.71,.43,.14,.83,.32,1.19,.55,.36,.23,.67,.49,.94,.8,.26,.3,.47,.64,.62,1.01s.22,.76,.22,1.18c0,.57-.13,1.1-.39,1.6-.26,.5-.64,.93-1.12,1.3s-1.07,.66-1.75,.87c-.68,.21-1.44,.32-2.27,.32h-7.2v-14.63Zm3.59,6.35h2.36c.38,0,.72-.06,1.02-.18,.3-.12,.55-.28,.76-.5,.21-.21,.36-.47,.47-.76,.11-.29,.16-.61,.16-.96,0-.38-.07-.73-.21-1.04-.14-.32-.34-.59-.62-.82-.28-.23-.63-.4-1.07-.53s-.95-.19-1.54-.19h-1.34v4.98Zm0,6.79h1.97c.58,0,1.08-.06,1.51-.19,.43-.12,.78-.3,1.06-.52,.28-.22,.48-.48,.62-.79,.13-.31,.2-.64,.2-1,0-.41-.06-.79-.18-1.14s-.32-.65-.6-.91-.64-.46-1.08-.6c-.45-.15-.99-.22-1.64-.22h-1.85v5.38Z"/><path d="M35.61,121.92c-.78,0-1.52-.14-2.21-.43-.69-.29-1.29-.68-1.8-1.18-.51-.49-.92-1.07-1.22-1.72-.3-.65-.45-1.35-.45-2.08,0-.87,.14-1.67,.41-2.42,.27-.75,.66-1.39,1.16-1.93,.5-.54,1.11-.96,1.81-1.27,.7-.31,1.49-.46,2.36-.46,.77,0,1.47,.12,2.11,.37,.64,.24,1.19,.58,1.64,1,.46,.43,.81,.92,1.06,1.5s.38,1.19,.38,1.85h-7.65c.02,.61,.11,1.19,.27,1.75,.16,.56,.36,1.04,.62,1.47,.26,.42,.56,.76,.91,1.01,.35,.25,.74,.38,1.16,.38,.37,0,.73-.06,1.08-.19,.36-.13,.69-.3,.99-.52,.3-.22,.56-.48,.78-.77s.38-.61,.48-.94l1.71,.26c-.17,.6-.44,1.17-.82,1.69-.38,.53-.82,.99-1.33,1.38-.51,.39-1.06,.7-1.66,.93-.6,.23-1.21,.34-1.81,.34Zm1.42-7.92c-.02-.33-.09-.63-.2-.9-.11-.27-.26-.5-.43-.69-.18-.19-.38-.34-.61-.45-.23-.11-.48-.16-.74-.16-.21,0-.41,.05-.61,.15-.2,.1-.38,.25-.54,.44-.16,.19-.3,.43-.41,.7-.11,.27-.19,.57-.23,.9h3.78Z"/><path d="M46.71,121.67h-3.32v-15.45l3.32-.92v16.38Z"/><path d="M52.8,121.67h-3.32v-15.45l3.32-.92v16.38Z"/><path d="M60.63,121.92c-.78,0-1.52-.14-2.21-.43-.69-.29-1.29-.68-1.8-1.18-.51-.49-.92-1.07-1.22-1.72-.3-.65-.45-1.35-.45-2.08,0-.87,.14-1.67,.41-2.42,.27-.75,.66-1.39,1.16-1.93,.5-.54,1.11-.96,1.81-1.27,.7-.31,1.49-.46,2.36-.46,.77,0,1.47,.12,2.11,.37,.64,.24,1.19,.58,1.64,1,.46,.43,.81,.92,1.06,1.5s.38,1.19,.38,1.85h-7.65c.02,.61,.11,1.19,.27,1.75,.16,.56,.36,1.04,.62,1.47,.26,.42,.56,.76,.91,1.01,.35,.25,.74,.38,1.16,.38,.37,0,.73-.06,1.08-.19,.36-.13,.69-.3,.99-.52,.3-.22,.56-.48,.78-.77s.38-.61,.48-.94l1.71,.26c-.17,.6-.44,1.17-.82,1.69-.38,.53-.82,.99-1.33,1.38-.51,.39-1.06,.7-1.66,.93-.6,.23-1.21,.34-1.81,.34Zm1.42-7.92c-.02-.33-.09-.63-.2-.9-.11-.27-.26-.5-.43-.69-.18-.19-.38-.34-.61-.45-.23-.11-.48-.16-.74-.16-.21,0-.41,.05-.61,.15-.2,.1-.38,.25-.54,.44-.16,.19-.3,.43-.41,.7-.11,.27-.19,.57-.23,.9h3.78Z"/><path d="M73.5,111.77c-.36,0-.68,.09-.97,.27s-.54,.42-.74,.72c-.2,.3-.36,.66-.47,1.06s-.17,.83-.17,1.27c0,.62,.07,1.21,.21,1.77,.14,.56,.34,1.06,.59,1.48,.25,.43,.56,.77,.92,1.02,.36,.26,.76,.38,1.2,.38,.37,0,.71-.08,1.01-.23s.57-.36,.81-.61c.24-.25,.46-.55,.66-.9,.2-.34,.38-.71,.55-1.1l1.6,.42c-.18,.72-.44,1.37-.77,1.93-.33,.56-.72,1.04-1.18,1.43-.46,.39-.97,.68-1.55,.88-.58,.2-1.21,.3-1.88,.3-.76,0-1.47-.15-2.14-.44-.67-.29-1.25-.69-1.75-1.19-.5-.5-.89-1.08-1.18-1.75s-.43-1.37-.43-2.12c0-.81,.15-1.58,.46-2.31,.31-.72,.73-1.35,1.26-1.89,.53-.54,1.15-.97,1.86-1.28s1.47-.47,2.28-.47c.68,0,1.29,.07,1.84,.21,.55,.14,1.01,.33,1.4,.57,.38,.24,.68,.53,.89,.87s.31,.7,.31,1.1c0,.18-.05,.36-.17,.52-.11,.17-.25,.31-.43,.44-.18,.13-.38,.22-.61,.3s-.46,.11-.7,.11c-.27,0-.5-.04-.7-.11-.2-.08-.37-.17-.51-.3-.14-.12-.24-.26-.31-.42-.07-.16-.1-.32-.1-.49s0-.34-.02-.51-.05-.33-.12-.47-.17-.26-.32-.35c-.14-.09-.35-.14-.63-.14Z"/><path d="M87.53,114.13c0-.57-.09-1-.28-1.3s-.42-.45-.71-.45c-.14,0-.3,.03-.5,.09-.19,.06-.4,.14-.63,.25s-.45,.23-.67,.38c-.22,.14-.43,.3-.62,.48v8.09h-3.39v-15.45l3.39-.92v6.22c.51-.38,1.08-.66,1.71-.84,.63-.18,1.24-.27,1.84-.27,.45,0,.87,.09,1.26,.26,.39,.17,.73,.42,1.03,.72,.29,.31,.52,.67,.69,1.08,.17,.41,.25,.85,.25,1.31v7.89h-3.37v-7.54Z"/><path d="M102.24,121.67h-3.37v-.88c-.18,.15-.36,.29-.54,.43-.18,.13-.38,.25-.59,.35s-.46,.17-.74,.23c-.27,.05-.6,.08-.97,.08-.51,0-.97-.07-1.37-.22s-.75-.34-1.03-.6-.5-.56-.66-.91c-.15-.35-.23-.73-.23-1.13,0-.43,.08-.81,.24-1.15,.16-.34,.38-.64,.66-.92,.28-.27,.61-.52,.98-.74,.38-.22,.78-.42,1.2-.6,.43-.18,.87-.34,1.32-.49,.46-.15,.91-.29,1.36-.44l.37-.08v-1.1c0-.35-.03-.65-.1-.9-.07-.25-.17-.45-.3-.61-.13-.16-.29-.27-.47-.34-.18-.07-.38-.1-.61-.1-.27,0-.49,.03-.67,.1-.18,.07-.32,.16-.43,.29-.11,.12-.19,.26-.24,.42-.05,.16-.07,.33-.07,.51,0,.21-.02,.41-.06,.6s-.12,.37-.23,.51-.27,.27-.47,.35c-.2,.09-.45,.13-.75,.13-.24,0-.45-.04-.65-.11-.19-.07-.36-.17-.5-.3-.14-.13-.24-.28-.32-.45s-.11-.36-.11-.56c0-.38,.13-.73,.39-1.06,.26-.33,.61-.61,1.05-.85,.44-.24,.95-.43,1.53-.56,.58-.13,1.19-.2,1.83-.2,.79,0,1.47,.07,2.04,.21s1.04,.34,1.42,.6,.65,.58,.82,.95c.17,.37,.26,.79,.26,1.24v8.26Zm-3.37-5.7c-.32,.14-.65,.29-.98,.47-.33,.18-.63,.38-.9,.59s-.48,.45-.65,.69c-.17,.24-.25,.5-.25,.76,0,.21,.03,.41,.09,.6,.06,.19,.13,.35,.23,.49,.1,.14,.2,.25,.33,.34,.12,.08,.25,.13,.38,.13,.27,0,.54-.08,.83-.25,.29-.17,.6-.38,.93-.64v-3.18Z"/><path d="M106.56,118.59c.2,.59,.48,1.06,.84,1.4,.36,.34,.82,.51,1.36,.51,.23,0,.44-.03,.63-.09,.19-.06,.36-.14,.5-.25,.14-.1,.24-.22,.32-.36,.08-.14,.11-.28,.11-.43,0-.26-.05-.49-.15-.7-.1-.21-.23-.39-.41-.56-.17-.17-.38-.32-.62-.46-.24-.14-.5-.27-.77-.4-.43-.19-.87-.4-1.3-.62-.43-.22-.82-.48-1.16-.78-.35-.29-.63-.63-.84-1s-.32-.81-.32-1.3c0-.46,.1-.89,.29-1.27,.19-.38,.47-.71,.82-.99,.35-.27,.77-.49,1.26-.64,.49-.15,1.03-.23,1.62-.23,.54,0,1.02,.05,1.43,.15,.41,.1,.78,.24,1.1,.43,.32,.19,.6,.42,.84,.68,.24,.27,.46,.57,.66,.91l-1.93,.68c-.11-.35-.23-.62-.38-.82s-.29-.35-.45-.45c-.16-.1-.31-.16-.46-.18-.15-.02-.29-.03-.4-.03-.21,0-.4,.02-.59,.07s-.35,.11-.5,.2c-.14,.09-.26,.19-.34,.32-.08,.12-.12,.27-.12,.44,0,.21,.05,.41,.17,.59s.26,.36,.45,.52c.19,.16,.42,.32,.68,.46s.55,.28,.86,.41c.46,.19,.92,.4,1.36,.64,.45,.24,.84,.5,1.18,.8,.34,.3,.62,.63,.83,.99,.21,.37,.31,.77,.31,1.22,0,.48-.08,.93-.24,1.35-.16,.42-.42,.78-.77,1.1-.35,.31-.81,.56-1.38,.74-.57,.18-1.25,.27-2.06,.27-.68,0-1.27-.08-1.75-.23-.48-.16-.88-.36-1.21-.61s-.61-.53-.83-.84c-.22-.31-.41-.61-.57-.92l1.91-.73Z"/><path d="M116.9,118.59c.2,.59,.48,1.06,.84,1.4,.36,.34,.82,.51,1.36,.51,.23,0,.44-.03,.63-.09,.19-.06,.36-.14,.5-.25,.14-.1,.24-.22,.32-.36,.08-.14,.11-.28,.11-.43,0-.26-.05-.49-.15-.7-.1-.21-.23-.39-.41-.56-.17-.17-.38-.32-.62-.46-.24-.14-.5-.27-.77-.4-.43-.19-.87-.4-1.3-.62-.43-.22-.82-.48-1.16-.78-.35-.29-.63-.63-.84-1s-.32-.81-.32-1.3c0-.46,.1-.89,.29-1.27,.19-.38,.47-.71,.82-.99,.35-.27,.77-.49,1.26-.64,.49-.15,1.03-.23,1.62-.23,.54,0,1.02,.05,1.43,.15,.41,.1,.78,.24,1.1,.43,.32,.19,.6,.42,.84,.68,.24,.27,.46,.57,.66,.91l-1.93,.68c-.11-.35-.23-.62-.38-.82s-.29-.35-.45-.45c-.16-.1-.31-.16-.46-.18-.15-.02-.29-.03-.4-.03-.21,0-.4,.02-.59,.07s-.35,.11-.5,.2c-.14,.09-.26,.19-.34,.32-.08,.12-.12,.27-.12,.44,0,.21,.05,.41,.17,.59s.26,.36,.45,.52c.19,.16,.42,.32,.68,.46s.55,.28,.86,.41c.46,.19,.92,.4,1.36,.64,.45,.24,.84,.5,1.18,.8,.34,.3,.62,.63,.83,.99,.21,.37,.31,.77,.31,1.22,0,.48-.08,.93-.24,1.35-.16,.42-.42,.78-.77,1.1-.35,.31-.81,.56-1.38,.74-.57,.18-1.25,.27-2.06,.27-.68,0-1.27-.08-1.75-.23-.48-.16-.88-.36-1.21-.61s-.61-.53-.83-.84c-.22-.31-.41-.61-.57-.92l1.91-.73Z"/><path d="M131,121.92c-.78,0-1.52-.14-2.21-.43s-1.29-.68-1.8-1.18c-.51-.49-.92-1.07-1.21-1.72s-.45-1.35-.45-2.08c0-.87,.14-1.67,.41-2.42,.27-.75,.66-1.39,1.16-1.93s1.1-.96,1.81-1.27c.7-.31,1.49-.46,2.36-.46,.77,0,1.47,.12,2.11,.37,.64,.24,1.19,.58,1.64,1,.46,.43,.81,.92,1.06,1.5s.38,1.19,.38,1.85h-7.65c.02,.61,.11,1.19,.27,1.75,.16,.56,.36,1.04,.62,1.47s.56,.76,.91,1.01,.74,.38,1.16,.38c.37,0,.73-.06,1.08-.19,.36-.13,.69-.3,.99-.52s.56-.48,.78-.77,.38-.61,.48-.94l1.71,.26c-.17,.6-.44,1.17-.82,1.69-.38,.53-.82,.99-1.33,1.38s-1.06,.7-1.66,.93c-.6,.23-1.21,.34-1.81,.34Zm1.42-7.92c-.02-.33-.09-.63-.2-.9-.11-.27-.25-.5-.43-.69-.18-.19-.38-.34-.61-.45-.23-.11-.48-.16-.74-.16-.21,0-.41,.05-.61,.15-.2,.1-.38,.25-.54,.44-.16,.19-.3,.43-.41,.7-.11,.27-.19,.57-.23,.9h3.78Z"/></g><g><path d="M59.56,137.21c-.36,0-.73-.07-1.1-.21-.38-.14-.75-.34-1.13-.59-.4,.25-.83,.45-1.31,.59-.48,.14-1.02,.21-1.63,.21-.49,0-.92-.06-1.3-.17-.38-.11-.7-.26-.96-.46-.26-.19-.46-.42-.59-.69s-.2-.56-.2-.87c0-.35,.07-.66,.21-.95,.14-.29,.33-.55,.56-.79,.23-.24,.5-.46,.8-.67,.3-.21,.61-.4,.94-.59-.15-.36-.26-.71-.34-1.06-.08-.35-.12-.68-.12-1.01s.07-.64,.2-.95c.14-.31,.33-.58,.58-.82,.25-.24,.55-.43,.9-.58s.74-.22,1.17-.22c.3,0,.59,.04,.88,.11s.56,.19,.79,.35c.24,.16,.43,.37,.58,.62,.15,.25,.22,.56,.22,.91,0,.32-.08,.61-.23,.87s-.36,.51-.61,.74c-.25,.23-.54,.44-.86,.64-.32,.2-.65,.4-.98,.59,.19,.43,.41,.84,.67,1.25,.26,.41,.53,.79,.83,1.13,.22-.22,.42-.44,.61-.68,.19-.24,.37-.47,.53-.7,.16-.23,.31-.46,.44-.68,.13-.22,.23-.42,.32-.6l1.09,.72c-.33,.52-.66,1.02-1,1.5s-.69,.92-1.09,1.31c.24,.19,.48,.33,.72,.44,.24,.1,.48,.16,.71,.16,.21,0,.38-.03,.54-.09s.29-.15,.41-.26c.12-.11,.22-.25,.31-.41,.09-.16,.18-.33,.26-.51l.85,.38c-.22,.72-.55,1.23-.99,1.55-.44,.32-1,.48-1.69,.48Zm-4.77-1.13c.26,0,.52-.04,.77-.13,.25-.09,.51-.2,.76-.35-.36-.34-.7-.71-1.02-1.12-.32-.4-.61-.83-.86-1.27-.31,.22-.56,.46-.76,.72-.19,.25-.29,.53-.29,.84,0,.17,.03,.33,.08,.49,.05,.16,.14,.3,.25,.42s.26,.22,.43,.29c.18,.07,.39,.11,.64,.11Zm.6-6.3c0,.18,.02,.38,.05,.6,.03,.21,.08,.43,.15,.66,.21-.13,.4-.26,.57-.41s.33-.29,.46-.44,.23-.31,.3-.47c.07-.17,.11-.34,.11-.53,0-.17-.02-.31-.05-.42-.04-.11-.09-.2-.15-.27s-.14-.12-.23-.15c-.08-.03-.18-.04-.29-.04-.13,0-.25,.04-.37,.11-.12,.08-.22,.18-.3,.31-.08,.13-.15,.29-.2,.47-.05,.18-.07,.38-.07,.59Z"/><path d="M70.47,129.8h1.81v.89h-1.81v6.37h-2.2v-6.37h-1.42v-.89h1.42v-.83c0-.38,.08-.73,.23-1.07s.36-.64,.63-.9c.27-.26,.59-.47,.95-.62,.37-.15,.77-.23,1.21-.23,.37,0,.69,.04,.96,.11,.27,.07,.49,.17,.66,.29s.3,.25,.38,.41c.08,.15,.12,.31,.12,.47,0,.12-.02,.23-.07,.34-.05,.11-.11,.2-.2,.28s-.18,.14-.3,.19c-.11,.05-.24,.07-.37,.07-.19,0-.33-.04-.42-.11-.09-.07-.17-.16-.21-.26s-.08-.22-.1-.35c-.02-.12-.05-.24-.09-.35-.04-.1-.09-.19-.17-.26s-.18-.11-.33-.11c-.46,0-.69,.4-.69,1.2v1.72Z"/><path d="M73.46,127.49c0-.15,.03-.29,.09-.42s.15-.24,.26-.34,.23-.17,.38-.23c.14-.05,.3-.08,.46-.08s.32,.03,.46,.08c.14,.06,.27,.13,.38,.23,.11,.1,.19,.21,.25,.34s.09,.27,.09,.42-.03,.29-.09,.42-.15,.24-.25,.34c-.11,.1-.23,.17-.38,.23-.14,.05-.3,.08-.46,.08s-.32-.03-.46-.08c-.14-.06-.27-.13-.38-.23s-.19-.21-.26-.34-.09-.27-.09-.42Zm.1,2.71l2.2-.61v7.47h-2.2v-6.86Z"/><path d="M79.85,137.06h-2.19v-10.17l2.19-.61v10.78Z"/><path d="M83.86,137.06h-2.19v-10.17l2.19-.61v10.78Z"/><path d="M89.01,137.23c-.52,0-1-.09-1.45-.29-.45-.19-.85-.45-1.19-.77-.34-.33-.6-.7-.8-1.13s-.29-.89-.29-1.37c0-.57,.09-1.1,.27-1.59,.18-.49,.44-.91,.77-1.27,.33-.36,.73-.63,1.19-.84,.46-.2,.98-.3,1.55-.3,.51,0,.97,.08,1.39,.24s.78,.38,1.08,.66c.3,.28,.53,.61,.7,.98,.17,.38,.25,.78,.25,1.22h-5.03c.02,.4,.07,.78,.18,1.15,.1,.37,.24,.69,.41,.97,.17,.28,.37,.5,.6,.67s.49,.25,.77,.25c.24,0,.48-.04,.71-.13s.45-.2,.65-.35c.2-.15,.37-.31,.51-.51,.15-.19,.25-.4,.32-.62l1.13,.17c-.11,.4-.29,.77-.54,1.12-.25,.35-.54,.65-.88,.91-.33,.26-.7,.46-1.09,.61-.4,.15-.79,.23-1.2,.23Zm.93-5.21c-.01-.22-.06-.41-.13-.59-.07-.18-.17-.33-.29-.46-.12-.12-.25-.22-.4-.29s-.31-.11-.49-.11c-.14,0-.27,.03-.4,.1-.13,.07-.25,.17-.36,.29-.11,.13-.2,.28-.27,.46s-.13,.37-.15,.59h2.49Z"/><path d="M94.99,135.03c.13,.39,.31,.7,.55,.92,.24,.22,.54,.33,.9,.33,.15,0,.29-.02,.42-.06,.13-.04,.24-.09,.33-.16,.09-.07,.16-.15,.21-.24,.05-.09,.08-.19,.08-.29,0-.17-.03-.32-.1-.46-.06-.13-.15-.26-.27-.37-.11-.11-.25-.21-.41-.3-.16-.09-.33-.18-.51-.26-.29-.12-.57-.26-.85-.41s-.54-.32-.77-.51c-.23-.19-.41-.41-.55-.66-.14-.25-.21-.53-.21-.86,0-.31,.06-.58,.19-.84,.13-.25,.31-.47,.54-.65,.23-.18,.51-.32,.83-.42,.32-.1,.68-.15,1.07-.15,.36,0,.67,.03,.94,.1,.27,.07,.51,.16,.72,.28,.21,.12,.39,.27,.55,.45,.16,.18,.3,.38,.43,.6l-1.27,.45c-.07-.23-.15-.41-.25-.54-.09-.13-.19-.23-.3-.29s-.2-.1-.3-.12c-.1-.01-.19-.02-.26-.02-.13,0-.26,.02-.39,.05-.12,.03-.23,.07-.33,.13-.09,.06-.17,.13-.22,.21-.06,.08-.08,.18-.08,.29,0,.14,.04,.27,.11,.39,.07,.12,.17,.23,.3,.34,.13,.11,.27,.21,.45,.3,.17,.09,.36,.18,.57,.27,.31,.12,.6,.27,.9,.42,.29,.16,.55,.33,.78,.53s.41,.41,.54,.65c.14,.24,.21,.51,.21,.8,0,.32-.05,.61-.16,.89-.11,.28-.27,.52-.51,.72-.23,.21-.54,.37-.91,.48-.37,.12-.83,.18-1.36,.18-.45,0-.83-.05-1.15-.15-.32-.1-.58-.24-.8-.4s-.4-.35-.54-.55c-.15-.2-.27-.4-.38-.6l1.25-.48Z"/></g></g></g></g></svg>