<svg xmlns="http://www.w3.org/2000/svg" viewBox="0 0 181.43 112.43"><defs><style>.cls-1{fill:#1d1d1b;}.cls-2{fill:none;stroke:#be1622;stroke-miterlimit:10;stroke-width:3px;}.cls-3{fill:#385144;}.cls-4{fill:#537a67;}</style></defs><g id="Calque_2" data-name="Calque 2"><g id="Pomiculteur"><path class="cls-1" d="M52.76,76.66V64.89h4.88a3,3,0,0,1,1.4.32,3.69,3.69,0,0,1,1.1.85,3.74,3.74,0,0,1,.72,1.18,3.52,3.52,0,0,1,.26,1.35,4.16,4.16,0,0,1-.24,1.4,3.67,3.67,0,0,1-.69,1.18,3.25,3.25,0,0,1-1.07.83,3,3,0,0,1-1.38.32H53.91v4.34Zm1.15-5.37h3.76a2.07,2.07,0,0,0,.94-.22,2.31,2.31,0,0,0,.72-.6,3.1,3.1,0,0,0,.47-.86,3.2,3.2,0,0,0,.16-1,2.78,2.78,0,0,0-.19-1,3.06,3.06,0,0,0-.51-.86,2.41,2.41,0,0,0-.77-.57,2.09,2.09,0,0,0-.92-.2H53.91Z"/><path class="cls-1" d="M66.3,76.83a4.17,4.17,0,0,1-1.74-.36,4.27,4.27,0,0,1-1.36-1,4.41,4.41,0,0,1-.88-1.42,4.78,4.78,0,0,1,0-3.44,4.64,4.64,0,0,1,.9-1.42,4.19,4.19,0,0,1,1.36-1,4,4,0,0,1,1.72-.37,3.89,3.89,0,0,1,1.71.37,4.19,4.19,0,0,1,1.36,1,4.64,4.64,0,0,1,.9,1.42,4.78,4.78,0,0,1,0,3.44,4.64,4.64,0,0,1-.9,1.42,4.17,4.17,0,0,1-1.36,1A4,4,0,0,1,66.3,76.83Zm-3.14-4.45a3.78,3.78,0,0,0,.24,1.36,3.49,3.49,0,0,0,.67,1.09,3,3,0,0,0,1,.74,2.94,2.94,0,0,0,2.44,0,3.17,3.17,0,0,0,1-.75,3.34,3.34,0,0,0,.68-1.1,3.8,3.8,0,0,0,0-2.71,3.29,3.29,0,0,0-.68-1.11,3.25,3.25,0,0,0-1-.75,2.78,2.78,0,0,0-1.21-.27,2.82,2.82,0,0,0-1.22.27,3.09,3.09,0,0,0-1,.76A3.79,3.79,0,0,0,63.41,71,3.61,3.61,0,0,0,63.16,72.38Z"/><path class="cls-1" d="M85.29,76.66H84.16V71.84a4.18,4.18,0,0,0-.47-2.23,1.63,1.63,0,0,0-1.44-.71,2.41,2.41,0,0,0-.93.18,2.85,2.85,0,0,0-.82.52,3.29,3.29,0,0,0-.65.78,3.8,3.8,0,0,0-.43,1v5.27H78.29V71.84a4.13,4.13,0,0,0-.47-2.24,1.58,1.58,0,0,0-1.42-.7,2.53,2.53,0,0,0-1.74.68,3.76,3.76,0,0,0-1.1,1.79v5.29H72.43V68h1v2a4.19,4.19,0,0,1,1.39-1.55,3.49,3.49,0,0,1,1.91-.56,2.49,2.49,0,0,1,1.76.62,2.59,2.59,0,0,1,.8,1.6,3.69,3.69,0,0,1,3.35-2.22,2.58,2.58,0,0,1,1.22.27,2.16,2.16,0,0,1,.81.75,3.82,3.82,0,0,1,.45,1.18,8,8,0,0,1,.14,1.53Z"/><path class="cls-1" d="M100.48,76.66H99.35V71.84a4.18,4.18,0,0,0-.47-2.23,1.62,1.62,0,0,0-1.44-.71,2.41,2.41,0,0,0-.93.18,2.85,2.85,0,0,0-.82.52,3.85,3.85,0,0,0-.65.78,3.8,3.8,0,0,0-.43,1v5.27H93.48V71.84A4.23,4.23,0,0,0,93,69.6a1.59,1.59,0,0,0-1.43-.7,2.56,2.56,0,0,0-1.74.68,3.76,3.76,0,0,0-1.1,1.79v5.29H87.63V68h1v2a4.13,4.13,0,0,1,1.4-1.55,3.44,3.44,0,0,1,1.9-.56,2.49,2.49,0,0,1,1.76.62,2.59,2.59,0,0,1,.8,1.6,3.7,3.7,0,0,1,3.35-2.22,2.58,2.58,0,0,1,1.22.27,2.08,2.08,0,0,1,.81.75,3.59,3.59,0,0,1,.45,1.18,8,8,0,0,1,.14,1.53Z"/><path class="cls-1" d="M106.6,76.83a4.17,4.17,0,0,1-1.74-.36,4.23,4.23,0,0,1-1.38-1,4.34,4.34,0,0,1-.9-1.43,4.57,4.57,0,0,1-.33-1.74,4.5,4.5,0,0,1,.33-1.72,4.15,4.15,0,0,1,.9-1.41,4.45,4.45,0,0,1,1.37-1,4.09,4.09,0,0,1,1.73-.36,4.17,4.17,0,0,1,1.74.36,4.23,4.23,0,0,1,1.35,1,4.66,4.66,0,0,1,.88,1.41,4.53,4.53,0,0,1,.31,1.69,2.44,2.44,0,0,1,0,.27.68.68,0,0,1,0,.18h-7.38a3.6,3.6,0,0,0,.32,1.28,3.42,3.42,0,0,0,.7,1,3,3,0,0,0,1,.68,2.93,2.93,0,0,0,1.18.24,3.06,3.06,0,0,0,.85-.12,3.21,3.21,0,0,0,.76-.32,2.64,2.64,0,0,0,.62-.48,2.18,2.18,0,0,0,.43-.64l1,.26a2.88,2.88,0,0,1-.56.87,3.74,3.74,0,0,1-.84.68,3.91,3.91,0,0,1-1.07.45A4.27,4.27,0,0,1,106.6,76.83Zm3.18-4.94a3.44,3.44,0,0,0-.32-1.27,3.35,3.35,0,0,0-.7-1,3.11,3.11,0,0,0-1-.65,3.24,3.24,0,0,0-1.2-.23,3.15,3.15,0,0,0-1.19.23,3,3,0,0,0-1,.65,3.22,3.22,0,0,0-.68,1,3.89,3.89,0,0,0-.31,1.26Z"/><path class="cls-1" d="M115.46,76.83a6,6,0,0,1-2-.33,4.66,4.66,0,0,1-1.66-1l.52-.76a5.54,5.54,0,0,0,1.48.9,4.32,4.32,0,0,0,1.62.3,2.87,2.87,0,0,0,1.67-.43,1.37,1.37,0,0,0,.62-1.2,1,1,0,0,0-.17-.6,1.39,1.39,0,0,0-.49-.43,3.5,3.5,0,0,0-.81-.32c-.33-.09-.7-.19-1.14-.29s-.92-.24-1.29-.37a4,4,0,0,1-.9-.41,1.51,1.51,0,0,1-.53-.57,1.83,1.83,0,0,1-.18-.86,2.46,2.46,0,0,1,.26-1.14,2.22,2.22,0,0,1,.7-.82,3,3,0,0,1,1-.49,4.68,4.68,0,0,1,1.26-.17,4.73,4.73,0,0,1,1.8.33,3.46,3.46,0,0,1,1.31.85l-.54.66a3,3,0,0,0-1.17-.74,4.12,4.12,0,0,0-1.44-.25,3.64,3.64,0,0,0-.83.09,2,2,0,0,0-.67.29,1.39,1.39,0,0,0-.45.51,1.47,1.47,0,0,0-.17.72,1.13,1.13,0,0,0,.12.56.91.91,0,0,0,.38.37,3,3,0,0,0,.67.29c.27.08.6.16,1,.25.55.14,1,.27,1.46.4a4.29,4.29,0,0,1,1,.47,1.87,1.87,0,0,1,.64.64,1.94,1.94,0,0,1,.21.93,2.23,2.23,0,0,1-.91,1.89A3.92,3.92,0,0,1,115.46,76.83Z"/><path class="cls-1" d="M125.16,76.66V64.89h5a3,3,0,0,1,1.41.32,3.84,3.84,0,0,1,2.09,3.38,4.16,4.16,0,0,1-.19,1.23,3.78,3.78,0,0,1-.54,1.06,3.5,3.5,0,0,1-.83.8,3,3,0,0,1-1.08.44l2.9,4.54h-1.31l-2.78-4.34H126.3v4.34Zm1.14-5.37h3.87a2.06,2.06,0,0,0,.93-.22,2.27,2.27,0,0,0,.73-.61,2.84,2.84,0,0,0,.46-.86,3.1,3.1,0,0,0,.17-1,2.89,2.89,0,0,0-.19-1,2.75,2.75,0,0,0-.52-.86,2.4,2.4,0,0,0-.76-.58,2.1,2.1,0,0,0-.92-.21H126.3Z"/><path class="cls-1" d="M139.22,76.83a4.12,4.12,0,0,1-1.73-.36,4.17,4.17,0,0,1-1.36-1,4.43,4.43,0,0,1-.89-1.42,4.85,4.85,0,0,1,0-3.44,4.64,4.64,0,0,1,.9-1.42,4.19,4.19,0,0,1,1.36-1,3.89,3.89,0,0,1,1.71-.37,4,4,0,0,1,1.72.37,4.19,4.19,0,0,1,1.36,1,4.64,4.64,0,0,1,.9,1.42,4.78,4.78,0,0,1,0,3.44,4.64,4.64,0,0,1-.9,1.42,4.17,4.17,0,0,1-1.36,1A4.11,4.11,0,0,1,139.22,76.83Zm-3.13-4.45a3.78,3.78,0,0,0,.24,1.36,3.65,3.65,0,0,0,.66,1.09,3.14,3.14,0,0,0,1,.74,2.82,2.82,0,0,0,1.22.26,2.86,2.86,0,0,0,1.22-.27,3.17,3.17,0,0,0,1-.75,3.52,3.52,0,0,0,.68-1.1,3.8,3.8,0,0,0,0-2.71,3.45,3.45,0,0,0-.68-1.11,3.17,3.17,0,0,0-1-.75,2.75,2.75,0,0,0-1.21-.27,2.86,2.86,0,0,0-1.22.27,3.05,3.05,0,0,0-1,.76,3.78,3.78,0,0,0-.92,2.48Z"/><path class="cls-1" d="M148,76.83a2.4,2.4,0,0,1-2.06-.94,4.66,4.66,0,0,1-.69-2.79V68h1.12V72.9c0,2,.67,2.93,2,2.93a3,3,0,0,0,1-.16,3.07,3.07,0,0,0,.89-.48,4,4,0,0,0,.73-.75,3.81,3.81,0,0,0,.52-1V68h1.13V75.2c0,.31.14.47.41.47v1a2.65,2.65,0,0,1-.46,0,1,1,0,0,1-.66-.23.73.73,0,0,1-.27-.58V74.71A4.16,4.16,0,0,1,148,76.83Z"/><path class="cls-1" d="M158.71,76.78a3.65,3.65,0,0,1-1.63-.37,4.27,4.27,0,0,1-1.28-1A4.55,4.55,0,0,1,155,74a4.62,4.62,0,0,1-.3-1.64,5.22,5.22,0,0,1,.29-1.72,4.4,4.4,0,0,1,.83-1.43,3.9,3.9,0,0,1,1.26-1,3.59,3.59,0,0,1,1.64-.37,3.32,3.32,0,0,1,1.92.56,5.29,5.29,0,0,1,1.39,1.4V68h1V76.7a3.63,3.63,0,0,1-.34,1.58,3.35,3.35,0,0,1-.92,1.15,3.94,3.94,0,0,1-1.35.7,5.85,5.85,0,0,1-1.64.23,4.78,4.78,0,0,1-2.39-.53,4.11,4.11,0,0,1-1.47-1.43l.69-.54A3.19,3.19,0,0,0,157,79.08a4.3,4.3,0,0,0,1.81.39,4,4,0,0,0,1.2-.18,3,3,0,0,0,1-.51,2.59,2.59,0,0,0,.67-.86,2.77,2.77,0,0,0,.25-1.22V75a3.74,3.74,0,0,1-1.37,1.31A3.62,3.62,0,0,1,158.71,76.78Zm.32-1a2.73,2.73,0,0,0,1-.18,3.16,3.16,0,0,0,.88-.49,3,3,0,0,0,.65-.69,2.09,2.09,0,0,0,.35-.78V71a3.15,3.15,0,0,0-.51-.86,3.57,3.57,0,0,0-.72-.68,3.46,3.46,0,0,0-.85-.45,2.7,2.7,0,0,0-.92-.16,2.74,2.74,0,0,0-1.3.3,3.4,3.4,0,0,0-1,.81,3.5,3.5,0,0,0-.6,1.13,4,4,0,0,0-.21,1.27,3.5,3.5,0,0,0,.25,1.33,3.34,3.34,0,0,0,.68,1.1,3,3,0,0,0,1,.75A3,3,0,0,0,159,75.83Z"/><path class="cls-1" d="M169.21,76.83a4.17,4.17,0,0,1-1.74-.36,4.23,4.23,0,0,1-1.38-1,4.34,4.34,0,0,1-.9-1.43,4.57,4.57,0,0,1-.33-1.74,4.5,4.5,0,0,1,.33-1.72,4.15,4.15,0,0,1,.9-1.41,4.45,4.45,0,0,1,1.37-1,4.12,4.12,0,0,1,1.73-.36,4.17,4.17,0,0,1,1.74.36,4.23,4.23,0,0,1,1.35,1,4.66,4.66,0,0,1,.88,1.41,4.53,4.53,0,0,1,.31,1.69,2.44,2.44,0,0,1,0,.27.68.68,0,0,1,0,.18h-7.38a3.6,3.6,0,0,0,.32,1.28,3.42,3.42,0,0,0,.7,1,3,3,0,0,0,1,.68,2.93,2.93,0,0,0,1.18.24,3.06,3.06,0,0,0,.85-.12,3.21,3.21,0,0,0,.76-.32,2.64,2.64,0,0,0,.62-.48,2.18,2.18,0,0,0,.43-.64l1,.26a2.88,2.88,0,0,1-.56.87,3.74,3.74,0,0,1-.84.68,3.91,3.91,0,0,1-1.07.45A4.27,4.27,0,0,1,169.21,76.83Zm3.18-4.94a3.44,3.44,0,0,0-.32-1.27,3.35,3.35,0,0,0-.7-1,3.11,3.11,0,0,0-1-.65,3.24,3.24,0,0,0-1.2-.23A3.15,3.15,0,0,0,168,69a3,3,0,0,0-1,.65,3.22,3.22,0,0,0-.68,1,3.64,3.64,0,0,0-.3,1.26Z"/><path class="cls-1" d="M178.07,76.83a6,6,0,0,1-2-.33,4.66,4.66,0,0,1-1.66-1l.52-.76a5.54,5.54,0,0,0,1.48.9,4.36,4.36,0,0,0,1.62.3,2.87,2.87,0,0,0,1.67-.43,1.37,1.37,0,0,0,.62-1.2,1,1,0,0,0-.17-.6,1.39,1.39,0,0,0-.49-.43,3.5,3.5,0,0,0-.81-.32c-.33-.09-.7-.19-1.14-.29s-.92-.24-1.29-.37a4,4,0,0,1-.9-.41,1.51,1.51,0,0,1-.53-.57,1.83,1.83,0,0,1-.18-.86,2.46,2.46,0,0,1,.26-1.14,2.22,2.22,0,0,1,.7-.82,3,3,0,0,1,1-.49,4.68,4.68,0,0,1,1.26-.17,4.73,4.73,0,0,1,1.8.33,3.46,3.46,0,0,1,1.31.85l-.54.66a3,3,0,0,0-1.17-.74,4.12,4.12,0,0,0-1.44-.25,3.64,3.64,0,0,0-.83.09,2.13,2.13,0,0,0-.67.29,1.39,1.39,0,0,0-.45.51,1.47,1.47,0,0,0-.17.72,1.13,1.13,0,0,0,.12.56.91.91,0,0,0,.38.37,3,3,0,0,0,.67.29c.27.08.6.16,1,.25.55.14,1,.27,1.46.4a4.29,4.29,0,0,1,1.05.47,1.87,1.87,0,0,1,.64.64,1.94,1.94,0,0,1,.21.93,2.23,2.23,0,0,1-.91,1.89A3.92,3.92,0,0,1,178.07,76.83Z"/><path class="cls-1" d="M52.48,47.42l3.61,8.86,3.58-8.86h1l-4.2,10.1h-.87l-4.21-10.1Z"/><path class="cls-1" d="M65.17,57.66a3.62,3.62,0,0,1-2.67-1.15,3.71,3.71,0,0,1-.77-1.23,3.87,3.87,0,0,1-.28-1.49,3.81,3.81,0,0,1,.28-1.47,3.67,3.67,0,0,1,1.94-2A3.49,3.49,0,0,1,65.16,50a3.57,3.57,0,0,1,2.64,1.14,3.7,3.7,0,0,1,.76,1.21,3.89,3.89,0,0,1,.27,1.45c0,.07,0,.15,0,.22a.51.51,0,0,1,0,.16H62.47a3,3,0,0,0,.28,1.1,3.26,3.26,0,0,0,.6.88,2.55,2.55,0,0,0,.84.57,2.44,2.44,0,0,0,1,.21,2.57,2.57,0,0,0,.73-.1,3.42,3.42,0,0,0,.65-.27,2.18,2.18,0,0,0,.9-1l.84.23a2.77,2.77,0,0,1-.49.75,3.73,3.73,0,0,1-.72.58,3.88,3.88,0,0,1-.91.38A4,4,0,0,1,65.17,57.66Zm2.73-4.24A2.87,2.87,0,0,0,67,51.49a2.73,2.73,0,0,0-.85-.56,2.7,2.7,0,0,0-2,0,2.62,2.62,0,0,0-.85.56,2.67,2.67,0,0,0-.58.85,3.18,3.18,0,0,0-.27,1.08Z"/><path class="cls-1" d="M74,51a3,3,0,0,0-1.7.54,2.69,2.69,0,0,0-1,1.41v4.61h-1V50.11h.91v1.78a3.65,3.65,0,0,1,1-1.3,2,2,0,0,1,1.35-.52H74Z"/><path class="cls-1" d="M78.27,57.62a3.07,3.07,0,0,1-1.4-.32,3.69,3.69,0,0,1-1.1-.85,3.78,3.78,0,0,1-.72-1.21,4,4,0,0,1-.25-1.41,4.28,4.28,0,0,1,.25-1.47,3.72,3.72,0,0,1,.7-1.23,3.46,3.46,0,0,1,1.09-.84,3.23,3.23,0,0,1,1.4-.31,2.86,2.86,0,0,1,1.65.48,4.53,4.53,0,0,1,1.19,1.2V50.11H82v7.43a2.92,2.92,0,0,1-1.07,2.35,3.65,3.65,0,0,1-1.16.6,5.06,5.06,0,0,1-1.41.2,4.09,4.09,0,0,1-2-.46A3.59,3.59,0,0,1,75,59l.59-.47a2.72,2.72,0,0,0,1.17,1,3.67,3.67,0,0,0,2.58.19,2.54,2.54,0,0,0,.85-.44,2.12,2.12,0,0,0,.58-.74A2.46,2.46,0,0,0,81,57.54V56.08a3.15,3.15,0,0,1-1.17,1.12A3.05,3.05,0,0,1,78.27,57.62Zm.27-.82a2.48,2.48,0,0,0,.84-.15,3.15,3.15,0,0,0,.74-.42,2.83,2.83,0,0,0,.56-.59A1.9,1.9,0,0,0,81,55V52.68a2.91,2.91,0,0,0-.43-.74,3.39,3.39,0,0,0-.62-.58A3,3,0,0,0,79.2,51a2.3,2.3,0,0,0-1.9.12,2.48,2.48,0,0,0-.82.69,2.79,2.79,0,0,0-.52,1,3.47,3.47,0,0,0-.18,1.1,3.07,3.07,0,0,0,.79,2.08,2.81,2.81,0,0,0,.88.64A2.51,2.51,0,0,0,78.54,56.8Z"/><path class="cls-1" d="M87.27,57.66a3.62,3.62,0,0,1-2.68-1.15,3.71,3.71,0,0,1-.77-1.23,3.87,3.87,0,0,1-.28-1.49,3.81,3.81,0,0,1,.28-1.47,3.73,3.73,0,0,1,.77-1.21,3.79,3.79,0,0,1,1.18-.82A3.44,3.44,0,0,1,87.25,50a3.49,3.49,0,0,1,1.49.31,3.57,3.57,0,0,1,1.16.83,3.85,3.85,0,0,1,.75,1.21,3.89,3.89,0,0,1,.27,1.45,1.62,1.62,0,0,1,0,.22.51.51,0,0,1,0,.16H84.56a3.17,3.17,0,0,0,.88,2,2.55,2.55,0,0,0,.84.57,2.44,2.44,0,0,0,1,.21,2.57,2.57,0,0,0,.73-.1,3.17,3.17,0,0,0,.65-.27,2,2,0,0,0,.9-1l.84.23a2.77,2.77,0,0,1-.49.75,3.73,3.73,0,0,1-.72.58,3.9,3.9,0,0,1-1.93.52ZM90,53.42a3,3,0,0,0-.27-1.09,3.2,3.2,0,0,0-.6-.84,2.62,2.62,0,0,0-.85-.56,2.7,2.7,0,0,0-2,0,2.62,2.62,0,0,0-.85.56,2.84,2.84,0,0,0-.58.85,3,3,0,0,0-.26,1.08Z"/><path class="cls-1" d="M96.07,51a3,3,0,0,0-1.71.54,2.68,2.68,0,0,0-1,1.41v4.61h-1V50.11h.91v1.78a3.65,3.65,0,0,1,1-1.3,2,2,0,0,1,1.35-.52h.43Z"/><path class="cls-2" d="M62.58,38c-8.9-25.11-35.09-21.79-47.65-14.72C.17,31.6-1,51,4.67,67.29,6.75,73.19,18.5,103.92,50,110c23.31,4.45,47.76-6.45,61.56-27.54"/><path class="cls-2" d="M120.49,58.69c1.4-3.45,7.65-19.76,0-32.77C111,9.79,82.84,3.18,56.12,18"/><path class="cls-3" d="M54.14,21.2a11.93,11.93,0,0,0-6-3.42c-1.23-5.9-.81-11.45.25-17.78a13.72,13.72,0,0,0,5.79,0C52.52,7,52.8,13,54.14,21.2Z"/><path class="cls-4" d="M56.44,14.1A25.74,25.74,0,0,1,70.35,3.89c2.09-.62,6.44-1.91,7.72-.17,1.5,2-2.15,6.89-2.37,7.18C72.92,14.54,64.05,20.37,59.92,19s-5.78.87-5.78.87S55.35,15.62,56.44,14.1Z"/></g></g></svg>