<?xml version="1.0" encoding="UTF-8"?><svg xmlns="http://www.w3.org/2000/svg" width="716.39" height="571.09" viewBox="0 0 716.39 571.09"><defs><style>.g{fill:#8c6239;}.h{fill:#8cc63f;}.i{fill:blue;}.j{fill:#f7931e;}.k{letter-spacing:-.01em;}.l{font-family:BrushScriptMT, Brush Script MT;font-size:86.5px;}.m{letter-spacing:0em;}</style></defs><g id="a"><path class="g" d="M602.95,392.89c3.4-12.28-59.83-90.21-131.78-115.02-71.52-30.06-136.43-46.17-192.52-115.83-15.89-19.73,30.26-69.91,4.17-97.3-17.74,72.52-76.96,93.13-1.57,150.65,33.39,19.43,62.35,57.52,95.48,70.83,69.32,27.84,120.74,.62,226.21,106.67Z"/><path class="g" d="M374.99,238.1c18.93-23.71-35.57-71.25-4.51-104.75,20.71,75.92,94.37,73.73,4.7,147.13"/></g><g id="b"/><g id="c"/><g id="d"><path class="j" d="M586.93,113.97c-52.37,37.32-70.32,81.74-70.32,81.74,0,0-21.7,56.89,5.78,93.06,31.46,36.87,37.54,29.81,79.77,87.24,9.52-56.43,11.33-125.01-7.03-159.38-18.36-34.37-37.44-60.48-8.21-102.66Z"/><path class="h" d="M523.23,170.8h0s-22.39-14.46,5.31-40.07c27.71-25.63,27.75-32.52,27.75-32.52,0,0,15.69,19.57-.19,32.72-30.81,26.78-32.87,39.87-32.87,39.87Z"/><text class="l" transform="translate(93.75 473)"><tspan class="k" x="0" y="0">V</tspan><tspan class="m" x="35.77" y="0">illégiature Gaspé</tspan></text></g><g id="e"><path class="i" d="M603.08,392.91c-2.05-12.57-86.53-80.35-162.25-72.76-101.45,3.45-212.03,78.31-357,19.27-2.84,4.24,27.05,47.4,160.35,53.93,153.24,7.22,167.58-71.63,358.9-.44Z"/></g><g id="f"/></svg>