<?xml version="1.0" encoding="UTF-8"?><svg xmlns="http://www.w3.org/2000/svg" viewBox="0 0 150.28 73.82"><defs><style>.d{fill:none;stroke:#736357;stroke-miterlimit:10;stroke-width:3.53px;}.e{fill:#fff;}.f{fill:#736357;}</style></defs><g id="a"/><g id="b"><g id="c"><g><path class="f" d="M142.24,52.03H9.31s-17.83-14.36,0-30.24H142.24s13.35,13.61,0,30.24Z"/><g><path class="e" d="M15.01,47.11l-6.97-20.37h2.16l4.08,12.08c.1,.3,.36,1.08,.79,2.36,.42,1.28,.74,2.25,.97,2.93,.22-.67,.54-1.61,.96-2.82,.42-1.22,.7-2.04,.85-2.46l4.01-12.08h2.06l-6.97,20.37h-1.92Z"/><path class="e" d="M34.13,26.36c1.35,0,2.54,.2,3.57,.58,1.03,.39,1.91,.99,2.67,1.81,.75,.82,1.32,1.9,1.7,3.25,.38,1.35,.58,2.95,.58,4.79,0,3.71-.72,6.42-2.16,8.11-1.44,1.7-3.56,2.55-6.37,2.55-1.36,0-2.56-.2-3.58-.58-1.02-.39-1.9-1-2.64-1.84-.74-.84-1.3-1.94-1.68-3.31-.38-1.37-.56-3.01-.56-4.91s.19-3.46,.58-4.81c.39-1.35,.95-2.44,1.69-3.26,.74-.82,1.63-1.42,2.65-1.81,1.02-.38,2.21-.58,3.56-.58Zm-.01,1.63c-.96,0-1.81,.13-2.54,.4-.73,.27-1.33,.65-1.81,1.13-.48,.49-.87,1.1-1.16,1.84-.3,.74-.51,1.55-.63,2.43-.13,.88-.19,1.88-.19,3,0,3.13,.48,5.41,1.45,6.85,.97,1.44,2.6,2.16,4.9,2.16s3.95-.71,4.91-2.14c.96-1.43,1.45-3.72,1.45-6.86,0-1.12-.06-2.12-.19-3.01-.12-.88-.34-1.69-.64-2.44-.3-.74-.69-1.36-1.18-1.84-.48-.49-1.09-.87-1.82-1.13-.73-.27-1.58-.4-2.55-.4Z"/><path class="e" d="M58.72,47.11h-12.43V26.74h2.03v18.8h10.4v1.57Z"/><path class="e" d="M58.79,47.11l6.76-20.37h2.67l6.79,20.37h-2.09l-1.86-5.55h-8.46l-1.78,5.55h-2.03Zm8.03-18.95c-.14,.43-.37,1.16-.69,2.21-.32,1.04-.55,1.8-.7,2.27l-2.35,7.4h7.52l-2.37-7.42c-.54-1.67-1.01-3.16-1.41-4.47Z"/><path class="e" d="M79.68,47.11h-2.03V26.74h2.03v20.37Z"/><path class="e" d="M96.32,47.11h-12.43V26.74h2.03v18.8h10.39v1.57Z"/><path class="e" d="M110.52,47.11h-12.43V26.74h2.03v18.8h10.4v1.57Z"/><path class="e" d="M125.92,47.11h-13.64V26.74h13.48v1.56h-11.45v7.15h9.96v1.6h-9.96v8.49h11.61v1.57Z"/><path class="e" d="M134.73,26.49c1.64,0,3.03,.27,4.17,.82,1.14,.55,2.11,1.44,2.91,2.67l-1.5,1.11c-.55-.96-1.28-1.7-2.21-2.21-.93-.51-1.95-.76-3.08-.76-1.46,0-2.64,.27-3.56,.81-.92,.54-1.38,1.36-1.38,2.48,0,.44,.1,.84,.29,1.2,.19,.36,.43,.66,.7,.89,.27,.23,.64,.46,1.1,.68,.46,.22,.87,.39,1.24,.51s.82,.27,1.37,.45c.55,.18,.97,.32,1.27,.43,.62,.24,1.13,.44,1.53,.61,.4,.16,.84,.36,1.32,.61,.48,.24,.87,.47,1.17,.68,.3,.21,.6,.46,.91,.76,.31,.3,.54,.61,.7,.93,.16,.33,.3,.7,.4,1.12,.11,.42,.16,.88,.16,1.37,0,1.83-.68,3.26-2.05,4.28-1.37,1.03-3.2,1.54-5.5,1.54-.66,0-1.31-.05-1.96-.17-.64-.11-1.3-.3-1.96-.57-.66-.27-1.26-.61-1.79-1.02-.53-.41-.99-.94-1.4-1.59-.4-.65-.68-1.38-.83-2.2l1.71-.74c.42,1.53,1.15,2.67,2.19,3.41,1.04,.74,2.43,1.11,4.15,1.11,.53,0,1.04-.04,1.52-.12,.48-.08,.96-.22,1.42-.41,.47-.2,.87-.44,1.22-.73,.34-.29,.62-.67,.83-1.14,.21-.47,.31-1,.31-1.59,0-.38-.05-.73-.15-1.05-.1-.32-.21-.59-.32-.81-.11-.23-.33-.46-.67-.7-.33-.24-.6-.43-.79-.56-.2-.13-.57-.31-1.13-.54-.56-.22-.97-.38-1.25-.48-.27-.1-.79-.28-1.54-.54-.12-.05-.21-.08-.28-.1-1.65-.58-2.8-1.04-3.45-1.41-1.49-.83-2.34-1.91-2.55-3.26-.03-.22-.04-.45-.04-.69,0-.84,.19-1.6,.57-2.27,.38-.67,.89-1.2,1.54-1.61,.65-.4,1.36-.71,2.16-.91,.79-.2,1.63-.31,2.51-.31Z"/></g><ellipse class="d" cx="75.14" cy="36.91" rx="73.38" ry="35.14"/><g><path d="M34.08,57.07h2.01c.42,0,.79,.04,1.09,.15,.31,.1,.57,.26,.79,.49,.22,.22,.39,.53,.49,.9,.11,.38,.16,.83,.16,1.37,0,.71-.1,1.28-.28,1.71-.19,.42-.47,.75-.84,.94-.37,.2-.85,.3-1.44,.3h-1.99v-5.85Zm2.02,.45h-1.43v4.94h1.21c.41,0,.76-.04,1.04-.13,.27-.09,.5-.23,.67-.45,.17-.2,.29-.46,.37-.76,.07-.31,.11-.69,.11-1.15,0-.41-.03-.76-.09-1.05-.06-.28-.17-.54-.31-.75-.15-.22-.35-.38-.6-.49-.26-.1-.57-.16-.95-.16Z"/><path d="M43.58,62.92h-3.91v-5.85h3.87v.44h-3.28v2.05h2.86v.47h-2.86v2.43h3.33v.46Z"/><path d="M46.11,57c.47,0,.87,.08,1.2,.23,.33,.16,.6,.41,.83,.77l-.43,.32c-.16-.28-.37-.49-.64-.64-.26-.14-.56-.21-.88-.21-.42,0-.76,.08-1.02,.23-.27,.15-.4,.39-.4,.71,0,.12,.03,.24,.08,.34,.06,.11,.12,.19,.2,.26,.08,.06,.19,.14,.32,.2,.13,.06,.25,.11,.35,.15,.1,.04,.23,.08,.39,.13,.16,.05,.28,.09,.36,.12,.18,.07,.33,.12,.44,.17,.11,.04,.24,.11,.38,.18,.14,.07,.25,.13,.33,.19,.09,.07,.17,.14,.26,.23,.09,.09,.15,.18,.2,.26,.05,.09,.09,.2,.11,.33,.03,.12,.05,.25,.05,.39,0,.52-.2,.93-.59,1.23-.39,.29-.92,.43-1.58,.43-.19,0-.38,0-.56-.04-.19-.04-.37-.09-.57-.16-.19-.08-.36-.18-.51-.29-.15-.12-.29-.27-.4-.46-.12-.19-.2-.39-.24-.63l.49-.22c.12,.44,.33,.77,.63,.98,.3,.22,.7,.33,1.19,.33,.15,0,.3-.01,.44-.04,.14-.03,.28-.06,.41-.12,.13-.05,.25-.12,.35-.2,.1-.08,.18-.2,.24-.33,.06-.13,.09-.29,.09-.46,0-.11-.02-.21-.04-.3-.03-.09-.06-.17-.09-.23-.03-.06-.09-.13-.19-.2-.1-.07-.17-.12-.23-.16-.06-.03-.16-.08-.33-.15-.16-.06-.28-.1-.36-.13-.08-.03-.22-.08-.44-.15-.03-.01-.06-.02-.08-.03-.48-.17-.81-.3-.99-.4-.43-.24-.67-.55-.73-.93,0-.07-.01-.13-.01-.2,0-.24,.06-.46,.16-.65,.11-.2,.26-.35,.44-.46,.19-.12,.39-.2,.62-.26,.23-.07,.47-.09,.72-.09Z"/><path d="M56.13,57.23s-.11-.03-.17-.04c-.07,0-.15,0-.24,0-.16,0-.29,.05-.38,.16-.09,.1-.18,.21-.28,.33-.11,.16-.23,.33-.35,.51-.12,.19-.23,.37-.33,.55-.09,.15-.19,.32-.31,.52-.12,.21-.24,.42-.37,.65-.13,.23-.26,.47-.4,.7-.14,.23-.26,.45-.38,.67-.21,.34-.42,.61-.63,.81-.21,.19-.44,.35-.67,.49-.05,.02-.08,.05-.09,.08,0,.02,.03,.03,.1,.03,.24-.02,.54-.05,.88-.08,.33-.02,.67-.04,.99-.07,.33-.02,.62-.04,.88-.06,.26-.02,.44-.03,.55-.03h.16c.08,0,.16,0,.24,0,.08,0,.15,0,.22,.01,.07,0,.12,.01,.16,.02,.14,.03,.21,.1,.21,.18,0,.04-.02,.13-.06,.25-.04,.13-.08,.23-.11,.3-.02,0-.03-.02-.03-.06s0-.08-.02-.13c-.01-.04-.05-.07-.1-.09-.13-.05-.28-.09-.44-.11-.17-.03-.34-.05-.51-.07-.17-.01-.34-.01-.5-.02-.17,0-.33,0-.47,0-.51,0-.93,.01-1.27,.02-.35,.02-.63,.04-.87,.07-.23,.02-.42,.05-.57,.08-.15,.02-.28,.06-.39,.09-.04,0-.07-.02-.09-.06-.02-.03-.04-.05-.04-.08,0-.05,.03-.08,.1-.08,.16,0,.3,0,.42-.03,.12,0,.23-.05,.32-.1,.14-.09,.27-.21,.4-.36,.13-.15,.28-.38,.46-.69,.18-.3,.37-.63,.58-.99,.2-.37,.41-.74,.61-1.12,.21-.37,.41-.75,.61-1.1,.2-.37,.38-.68,.54-.97,.02-.04,.05-.08,.09-.09,.04-.02,.08-.05,.12-.07,.18-.07,.41-.12,.69-.17,.27-.04,.52-.06,.74-.06,.04,.02,.06,.05,.06,.09,0,.04-.02,.07-.05,.09Z"/><path d="M55.88,63.31c0-.16,.07-.3,.17-.42,.11-.12,.26-.28,.44-.45,1.67-1.56,3.01-2.79,4.04-3.69,1.03-.9,1.68-1.44,1.97-1.64,.07-.04,.18-.08,.32-.12,.14-.04,.23-.08,.29-.13,.05-.05,.08-.06,.09-.02,0,.03,0,.07-.02,.1-.09,.14-.16,.28-.21,.46-.05,.17-.09,.31-.1,.43-.01,.03-.04,.15-.08,.35-.04,.19-.08,.43-.13,.72-.05,.28-.11,.59-.16,.91-.06,.33-.11,.64-.16,.93-.05,.31-.1,.57-.12,.81-.03,.24-.05,.41-.06,.5,0,.15,.02,.27,.05,.35,.03,.08,.07,.14,.11,.18,.04,.03,.09,.06,.13,.07,.04,.01,.08,.02,.11,.02,.04,0,.09,0,.16-.02,.06-.02,.13-.03,.19-.04,.07-.02,.1-.01,.11,0,0,.03-.03,.05-.09,.07-.03,0-.1,.02-.19,.05-.09,.03-.19,.05-.31,.09-.12,.03-.23,.07-.35,.1-.12,.02-.22,.05-.31,.07-.13,0-.22-.09-.26-.26,0-.05,.03-.16,.05-.33,.02-.17,.06-.35,.08-.54,.03-.19,.06-.38,.08-.55,.02-.17,.04-.27,.04-.33,0-.09-.05-.19-.14-.29-.09-.1-.22-.17-.4-.22-.06-.01-.18-.03-.35-.04-.18,0-.38-.01-.63-.01s-.5,0-.74,0c-.24,0-.43-.02-.55-.02-.66,.59-1.21,1.15-1.66,1.64-.45,.5-.78,.91-1.01,1.23-.07,.11-.12,.22-.15,.31-.03,.09-.06,.21-.07,.35-.02,.06-.04,.08-.08,.05l-.08-.65Zm3.36-3.18s.06,.09,.17,.11c.1,.03,.23,.05,.37,.06,.14,0,.29,0,.45,0h.39c.28,0,.51,0,.68,0,.17,0,.29,.02,.37,.04,.08,.03,.13,.03,.15,.03,.02,0,.03-.04,.05-.1,.03-.17,.08-.41,.13-.71,.05-.29,.1-.59,.16-.88,.05-.29,.09-.55,.14-.77,.04-.23,.06-.35,.07-.39,.01-.07,.01-.1,0-.1-.02,0-.06,.01-.13,.07-.02,.02-.1,.08-.22,.18-.12,.09-.27,.22-.46,.38-.19,.15-.39,.33-.61,.52-.22,.18-.44,.37-.66,.56-.21,.18-.41,.36-.59,.54-.19,.18-.33,.33-.44,.46Z"/><path d="M72.15,57.21s-.09,.03-.14,.06c-.05,.02-.1,.06-.14,.1-.18,.23-.37,.48-.54,.73-.19,.26-.36,.53-.53,.8-.17,.26-.33,.53-.49,.81-.16,.27-.3,.52-.42,.78-.06,.12-.13,.25-.2,.4-.08,.16-.15,.33-.21,.49-.07,.16-.12,.33-.16,.49-.04,.16-.07,.32-.07,.46,0,.18,.04,.33,.13,.44,.09,.1,.23,.16,.43,.16,.12,0,.24-.02,.36-.06,.12-.03,.24-.07,.34-.11,.11-.05,.2-.09,.28-.13,.07-.03,.11-.05,.12-.05,.04,0,.07,.02,.08,.05,0,.04-.01,.07-.05,.08-.25,.12-.51,.22-.77,.3-.27,.08-.54,.12-.81,.12-.57,0-.86-.22-.86-.67,0-.13,.03-.28,.08-.42,.05-.16,.12-.29,.18-.41,.07-.13,.12-.24,.18-.33,.05-.09,.08-.15,.08-.16,0-.02,0-.03-.01-.04,0,0-.01,0-.02,.02-.34,.38-.68,.69-1.03,.95-.34,.25-.68,.46-1,.6-.33,.15-.62,.25-.9,.31-.28,.06-.52,.09-.72,.09-.17,0-.33-.02-.5-.05-.17-.05-.31-.1-.45-.19-.14-.09-.24-.2-.33-.34-.08-.14-.12-.3-.12-.5,0-.26,.09-.55,.26-.87,.13-.24,.29-.51,.47-.81,.18-.29,.37-.58,.56-.9,.19-.3,.38-.6,.56-.9,.18-.29,.34-.57,.48-.82,.03-.07,.05-.12,.05-.16,0-.08-.07-.11-.19-.11-.06,0-.15,0-.26,0-.11,0-.23,0-.35,0-.06,0-.12,0-.17,0-.05,0-.1,0-.14,0-.07,0-.11-.03-.11-.08,0-.06,.03-.08,.09-.08,.09,0,.23,0,.43,.01,.19,.01,.4,.02,.62,.02s.38,0,.52-.02c.14,0,.26-.02,.35-.03,.09-.02,.17-.03,.24-.04,.07,0,.13-.01,.19-.01,.04,0,.06,.02,.06,.06,0,.02-.02,.04-.08,.06-.07,.02-.14,.04-.22,.05-.08,.03-.16,.07-.22,.15-.18,.22-.35,.46-.53,.73-.18,.26-.36,.53-.54,.82-.17,.28-.35,.57-.53,.85-.18,.3-.33,.57-.48,.84-.22,.38-.33,.74-.33,1.07,0,.27,.09,.5,.26,.67,.17,.17,.43,.25,.78,.25,.37,0,.73-.07,1.08-.21,.35-.14,.7-.33,1.02-.56,.33-.23,.63-.5,.9-.8,.28-.3,.52-.61,.73-.92,.12-.19,.25-.39,.38-.64,.14-.24,.27-.49,.4-.73,.13-.24,.25-.48,.37-.7,.11-.21,.21-.39,.29-.52,.06-.09,.12-.17,.19-.25,.06-.06,.15-.11,.27-.16,.03,0,.08-.02,.16-.04,.08-.02,.16-.04,.24-.06,.08-.03,.16-.05,.23-.06,.07-.01,.12-.02,.15-.02,.04,0,.07,.02,.08,.06,0,.04,0,.06-.05,.06Z"/><path d="M72.49,58.64s-.04,.01-.05,0c-.02,0-.03-.02-.03-.04,.03-.07,.05-.15,.08-.25,.03-.1,.04-.19,.06-.27,0-.08,.05-.16,.16-.22,.23-.12,.48-.23,.76-.34,.28-.1,.56-.18,.84-.25,.51-.1,1.05-.16,1.6-.16,.69,0,1.22,.08,1.6,.23,.38,.16,.57,.43,.57,.82,0,.19-.07,.39-.19,.59-.13,.21-.3,.39-.53,.57-.22,.18-.5,.32-.83,.46-.33,.12-.68,.21-1.07,.25-.08,.01-.1,.04-.08,.1,.17,.31,.39,.69,.68,1.15,.3,.45,.63,.93,.98,1.45,.19,.26,.41,.52,.64,.76,.24,.24,.5,.45,.78,.64,.27,.18,.58,.34,.89,.44,.32,.12,.64,.17,.98,.17,.53,0,1.03-.13,1.55-.4,.05-.03,.08-.03,.08,.03,0,.03-.02,.05-.05,.06-.28,.15-.57,.27-.88,.36-.3,.09-.63,.13-.98,.13-.49,0-.92-.05-1.3-.15-.37-.1-.71-.25-1.02-.47-.31-.21-.62-.48-.89-.81-.29-.33-.58-.73-.88-1.2-.09-.13-.2-.31-.32-.52-.12-.2-.25-.42-.38-.63-.13-.21-.25-.43-.37-.63-.12-.21-.22-.38-.29-.5,0-.04,0-.06,.04-.06,.39,0,.75-.03,1.08-.1,.33-.07,.61-.18,.84-.32,.24-.15,.43-.33,.56-.55,.13-.22,.21-.48,.21-.77,0-.11-.02-.22-.07-.33-.03-.12-.1-.23-.2-.31-.1-.09-.23-.16-.4-.23-.17-.06-.38-.09-.63-.09-.09,0-.17,.01-.26,.04-.08,.02-.15,.06-.22,.13-.09,.12-.23,.31-.4,.57-.18,.27-.36,.57-.57,.92-.21,.35-.43,.72-.65,1.11-.23,.39-.44,.76-.64,1.14-.2,.36-.39,.7-.54,1.01-.16,.29-.27,.53-.36,.71,0,.02-.02,.03-.05,.03-.04,0-.09-.02-.13-.02-.04,0-.09,0-.13,0h-.16c-.06,0-.13,.01-.19,.03-.11,.06-.2,.14-.3,.25-.02,0-.04,0-.06-.02-.02,0-.02-.02,0-.04,.8-1.17,1.47-2.2,2.02-3.11,.55-.91,1.02-1.74,1.42-2.5,.02-.07,.03-.12,.02-.14-.01-.01-.04-.02-.08-.02-.26,0-.52,.07-.78,.15-.26,.09-.5,.18-.73,.31-.15,.09-.29,.2-.42,.36-.13,.15-.24,.3-.34,.48Z"/><path d="M83.5,62.04s.05,0,.05,.06c-.05,.04-.11,.09-.15,.16-.05,.06-.09,.12-.13,.17-.06,.11-.17,.19-.36,.24-.22,.05-.46,.09-.71,.13-.25,.04-.5,.08-.76,.12-.26,.03-.52,.06-.77,.08-.25,.01-.49,.02-.71,.02-.33,0-.6,0-.81-.03-.21-.02-.38-.06-.49-.11-.12-.04-.2-.11-.24-.17-.05-.06-.08-.14-.08-.23,0-.16,.05-.32,.15-.5,.03-.06,.11-.2,.23-.4,.12-.21,.25-.43,.37-.66,.14-.23,.25-.44,.36-.63,.11-.18,.16-.28,.16-.29,0-.03-.01-.04-.04-.05-.02,0-.08-.01-.18-.01-.05,0-.07-.01-.07-.04,0-.06,.05-.09,.16-.11,.19-.03,.34-.14,.44-.31,.04-.07,.11-.2,.23-.41,.12-.21,.24-.43,.37-.67,.12-.24,.24-.46,.34-.65,.1-.2,.15-.32,.15-.35,0-.04-.03-.06-.08-.06-.26,0-.53,0-.78,.03-.26,.02-.49,.06-.69,.11h-.03c.02-.16,.06-.26,.11-.31,.27,.01,.55,.02,.86,.03,.3,.01,.58,.02,.85,.02,.1,0,.26,0,.5-.02,.23,0,.5-.02,.79-.02,.29,0,.58-.02,.88-.03,.29,0,.54-.01,.76-.01,.05,0,.08,.02,.08,.06-.02,.05-.06,.12-.11,.21-.05,.09-.1,.18-.14,.27h-.06c0-.06-.01-.11-.03-.16-.03-.04-.05-.07-.07-.08-.27-.04-.57-.07-.88-.09-.31-.01-.62-.02-.93-.02-.15,0-.24,.04-.32,.12-.23,.31-.47,.67-.71,1.06-.24,.39-.46,.79-.67,1.15-.03,.08,0,.12,.08,.12,.13,0,.24,0,.37,0h.37c.4,0,.75,0,1.05-.03,.3-.02,.6-.06,.9-.14l.04,.04s-.04,.08-.06,.13c-.03,.06-.05,.1-.06,.15,0,.03-.05,.05-.11,.05-.22,0-.47-.02-.74-.02-.27,0-.54,0-.8,0h-.59c-.18,0-.36,0-.52,.01-.07,0-.12,.03-.14,.08-.15,.26-.3,.54-.46,.82-.15,.29-.28,.56-.39,.84-.09,.21-.13,.38-.13,.54,0,.41,.3,.61,.92,.61,.22,0,.49-.02,.81-.05,.32-.04,.64-.09,.97-.16,.33-.07,.64-.16,.94-.27,.31-.11,.54-.22,.72-.36Z"/><path d="M84.66,63.11s-.04-.03-.07-.09c-.02-.05-.06-.1-.1-.16-.03-.05-.06-.11-.08-.17-.01-.06-.03-.11-.03-.14,0-.09,.03-.18,.09-.3,.05-.12,.11-.21,.18-.31,.1-.19,.26-.45,.46-.8,.21-.34,.49-.82,.86-1.42,.19-.33,.39-.67,.57-1.01,.17-.34,.31-.61,.39-.81,.03-.09,.05-.16,.05-.22,0-.09-.02-.16-.08-.21-.05-.04-.13-.06-.23-.06-.11,0-.22,0-.36,0-.13,0-.24,.01-.34,.02-.03,0-.06-.02-.08-.06-.02-.03-.03-.08-.03-.12s.01-.06,.03-.06c.09,.03,.2,.05,.33,.07,.12,0,.25,.01,.37,.01,.16,0,.33,0,.49-.03,.17-.03,.3-.05,.4-.09,.06,0,.1,.04,.11,.12,.02,.07,.04,.17,.07,.3,.03,.13,.05,.25,.08,.35,.07,.25,.16,.55,.27,.88,.11,.33,.23,.66,.35,1.01,.13,.34,.25,.68,.38,1.02,.12,.34,.24,.65,.33,.93,.01,.07,.03,.12,.05,.17,.02,.04,.04,.06,.09,.06,.02,0,.05-.03,.09-.07,.02-.05,.06-.1,.08-.15,.19-.41,.41-.83,.61-1.25,.22-.43,.43-.85,.64-1.27,.22-.42,.44-.82,.66-1.21,.23-.39,.45-.76,.66-1.1,.06-.09,.12-.17,.19-.27,.07-.1,.16-.18,.25-.26,.09-.08,.19-.14,.28-.2,.1-.05,.21-.08,.33-.08,.06,0,.14,.03,.23,.09,.09,.06,.15,.12,.18,.19,0,.02-.02,.03-.04,.03-.11,0-.2,0-.31,.03-.11,.03-.22,.07-.33,.14-.12,.08-.24,.17-.37,.31-.12,.13-.25,.29-.41,.5-.41,.57-.82,1.23-1.22,1.98-.4,.74-.76,1.49-1.1,2.25-.1,.22-.2,.45-.3,.7-.09,.23-.19,.44-.29,.64-.03,.06-.05,.09-.08,.09-.04,0-.07-.03-.12-.09-.1-.37-.23-.77-.37-1.21-.14-.43-.3-.86-.45-1.29-.15-.43-.29-.83-.43-1.2-.15-.38-.26-.68-.36-.9-.05-.12-.1-.17-.14-.17-.05,0-.1,.05-.17,.16-.23,.34-.42,.66-.61,.95-.19,.3-.36,.59-.52,.87-.16,.28-.3,.56-.44,.83-.14,.26-.27,.54-.39,.82-.04,.08-.08,.17-.1,.27-.04,.11-.07,.22-.09,.33-.03,.12-.05,.23-.06,.36-.02,.12-.03,.22-.03,.3h-.04Z"/><path d="M95.24,57.3c-.47,0-.88,.03-1.24,.06-.36,.05-.68,.14-.96,.28-.27,.14-.52,.34-.74,.61-.21,.26-.42,.61-.6,1.06,0,.03-.03,.04-.05,.03-.03-.02-.04-.04-.06-.1,.08-.23,.17-.46,.27-.68,.1-.23,.23-.43,.36-.62,.14-.18,.29-.35,.45-.47,.17-.12,.34-.21,.54-.25,.21-.04,.46-.06,.73-.06,.27,0,.54,0,.81,0s.51,0,.76,0c.25,0,.51,0,.76,0h.56c.7,0,1.25-.13,1.67-.35,.13-.07,.25-.18,.39-.31,.13-.15,.19-.3,.19-.46,0-.04,0-.07,0-.09,0,0-.01-.01-.01-.03,0-.04,.01-.06,.03-.06,0,0,.02,0,.04,.03,.11,.12,.19,.22,.23,.34,.03,.04,.04,.09,.04,.15,0,.05-.02,.12-.06,.19-.14,.24-.36,.42-.66,.52-.29,.1-.64,.16-1.06,.18-.15,.01-.3,.01-.47,0-.17,0-.31,0-.45,0-.12,0-.21,.05-.27,.13-.49,.74-.94,1.46-1.35,2.16-.41,.71-.78,1.37-1.12,1.98-.08,.14-.14,.29-.19,.41-.04,.12-.08,.24-.08,.35,0,.07,0,.13,.03,.2,.02,.07,.05,.13,.11,.17,.07,.05,.16,.09,.27,.12,.12,.02,.28,.04,.46,.04h.16c.06,0,.11,0,.16-.02,.02,.04,0,.08-.05,.11-.15,.02-.31,.03-.5,.04-.19,0-.35,0-.51,0-.13,0-.25,0-.37,0-.12,0-.22-.02-.31-.06-.09-.02-.16-.07-.23-.13-.05-.06-.08-.15-.08-.26,0-.07,.02-.15,.06-.23,.03-.09,.08-.18,.14-.28,.23-.38,.47-.77,.71-1.17,.24-.4,.48-.8,.71-1.2,.23-.39,.45-.78,.67-1.16,.21-.37,.42-.74,.59-1.08,.05-.08,.03-.12-.06-.12h-.43Z"/><path d="M96.14,62.88c.08,0,.14-.03,.21-.08,.06-.04,.12-.09,.16-.14,.11-.14,.25-.32,.42-.57,.18-.25,.36-.54,.57-.85,.2-.31,.41-.64,.63-.99,.21-.35,.42-.68,.62-1.01,.18-.33,.35-.63,.5-.9,.15-.28,.25-.5,.29-.68,.02-.06,.03-.1,.03-.14,0-.1-.12-.15-.36-.15-.11,0-.22,0-.36,.01-.12,0-.25,.03-.36,.06h-.04c.02-.08,.05-.14,.08-.17,.37-.02,.72-.04,1.08-.07,.36-.01,.65-.05,.91-.1,.04,.02,.06,.06,.06,.1,0,.02-.02,.04-.08,.06-.07,0-.12,.05-.17,.11-.04,.06-.09,.14-.13,.22-.18,.33-.38,.71-.62,1.13-.23,.42-.47,.84-.74,1.29-.25,.45-.52,.89-.8,1.34-.28,.44-.53,.85-.78,1.24-.07,.09-.15,.17-.23,.22-.09,.05-.17,.09-.25,.11-.1,0-.21,.02-.32,.02-.11,0-.21,0-.29,0-.02-.01-.03-.02-.03-.06Z"/><path d="M99.72,62.89c.11-.13,.21-.25,.31-.4,.1-.14,.17-.27,.22-.36,.06-.09,.16-.25,.29-.47,.13-.23,.29-.5,.47-.81,.18-.31,.37-.64,.56-.99,.2-.36,.39-.69,.57-1.01,.18-.32,.34-.61,.49-.88,.13-.27,.24-.46,.3-.6,0-.03-.02-.04-.04-.05-.02-.01-.04-.02-.06-.02-.27,0-.55,.03-.82,.08-.27,.05-.54,.08-.82,.09-.16,0-.23-.07-.23-.21,0,0,0-.05,.01-.1,0-.06,.03-.08,.05-.08,.02,0,.08,.02,.21,.08,.11,.05,.24,.08,.35,.08,.16,0,.36,0,.62-.02,.25-.01,.47-.03,.65-.04,.21,0,.43-.02,.64-.03,.21,0,.42-.01,.64-.01,.34,0,.67,.02,1.01,.06,.33,.05,.63,.14,.9,.26,.27,.13,.48,.31,.65,.55,.17,.24,.25,.56,.25,.95,0,.36-.06,.73-.2,1.09-.14,.38-.32,.73-.55,1.05-.22,.33-.49,.61-.78,.88-.3,.26-.62,.46-.95,.61-.33,.16-.67,.25-1.02,.33-.36,.06-.71,.09-1.08,.09-.29,0-.58-.01-.85-.06-.26-.03-.53-.12-.79-.27-.09-.04-.16-.06-.22-.06-.07,0-.17,.04-.31,.09-.13,.06-.26,.14-.37,.23l-.08-.06Zm6.51-4c0-.2-.03-.39-.09-.57-.08-.19-.19-.37-.36-.52-.17-.16-.39-.28-.69-.37-.28-.1-.66-.15-1.1-.15-.1,0-.18,0-.24,.01-.07,.01-.13,.07-.18,.15-.22,.33-.45,.71-.7,1.12-.24,.41-.48,.83-.72,1.25-.24,.42-.46,.83-.69,1.24-.21,.41-.4,.77-.56,1.09-.03,.07-.05,.13-.05,.16,0,.06,.03,.11,.08,.15,.15,.16,.35,.28,.61,.36,.25,.08,.51,.12,.79,.12,.53,0,1.02-.11,1.5-.32,.47-.2,.88-.49,1.24-.85,.35-.37,.64-.79,.84-1.28,.22-.49,.31-1.01,.31-1.58Z"/><path d="M112.69,62.04s.05,0,.05,.06c-.05,.04-.11,.09-.15,.16-.04,.06-.09,.12-.13,.17-.06,.11-.18,.19-.36,.24-.21,.05-.46,.09-.7,.13-.25,.04-.5,.08-.77,.12-.26,.03-.52,.06-.77,.08-.25,.01-.49,.02-.71,.02-.33,0-.6,0-.81-.03-.22-.02-.38-.06-.49-.11-.12-.04-.2-.11-.24-.17-.05-.06-.07-.14-.07-.23,0-.16,.05-.32,.14-.5,.03-.06,.11-.2,.23-.4,.12-.21,.25-.43,.37-.66,.14-.23,.25-.44,.36-.63,.11-.18,.16-.28,.16-.29,0-.03-.01-.04-.03-.05-.03,0-.09-.01-.19-.01-.05,0-.06-.01-.06-.04,0-.06,.05-.09,.16-.11,.19-.03,.34-.14,.44-.31,.04-.07,.11-.2,.23-.41,.11-.21,.24-.43,.36-.67,.13-.24,.24-.46,.34-.65,.1-.2,.15-.32,.15-.35,0-.04-.03-.06-.08-.06-.26,0-.53,0-.78,.03-.26,.02-.49,.06-.7,.11h-.03c.02-.16,.06-.26,.11-.31,.27,.01,.55,.02,.86,.03,.3,.01,.58,.02,.85,.02,.1,0,.26,0,.5-.02,.23,0,.5-.02,.8-.02,.29,0,.58-.02,.88-.03,.29,0,.54-.01,.76-.01,.05,0,.08,.02,.08,.06-.02,.05-.06,.12-.11,.21-.05,.09-.1,.18-.14,.27h-.06c0-.06,0-.11-.03-.16-.03-.04-.05-.07-.07-.08-.27-.04-.57-.07-.88-.09-.31-.01-.62-.02-.93-.02-.15,0-.24,.04-.31,.12-.24,.31-.48,.67-.72,1.06-.24,.39-.46,.79-.67,1.15-.03,.08,0,.12,.08,.12,.13,0,.25,0,.37,0h.37c.4,0,.75,0,1.06-.03,.3-.02,.59-.06,.9-.14l.04,.04s-.04,.08-.06,.13c-.03,.06-.05,.1-.06,.15,0,.03-.05,.05-.11,.05-.22,0-.47-.02-.74-.02-.27,0-.54,0-.8,0h-.59c-.19,0-.36,0-.53,.01-.07,0-.11,.03-.14,.08-.14,.26-.29,.54-.46,.82-.15,.29-.28,.56-.4,.84-.09,.21-.12,.38-.12,.54,0,.41,.3,.61,.93,.61,.21,0,.48-.02,.8-.05,.32-.04,.64-.09,.97-.16,.33-.07,.64-.16,.94-.27,.31-.11,.54-.22,.72-.36Z"/><path d="M118.08,57.62c-.04,.09-.07,.21-.12,.34-.05,.14-.08,.26-.11,.36-.04,.01-.06,0-.09-.04,.03-.05,.04-.11,.04-.19,0-.16-.08-.31-.23-.45-.15-.13-.39-.21-.72-.21-.35,0-.62,.1-.85,.31-.21,.2-.33,.47-.33,.81,0,.26,.07,.5,.19,.73,.13,.22,.26,.44,.4,.62,.12,.15,.21,.28,.29,.38s.13,.19,.18,.27c.04,.08,.07,.16,.09,.24,0,.07,.02,.16,.02,.26,0,.18-.04,.37-.12,.54-.08,.17-.2,.34-.33,.48-.14,.14-.29,.28-.45,.39-.16,.12-.32,.22-.47,.29-.39,.18-.83,.26-1.3,.26-.21,0-.4-.02-.6-.06-.2-.03-.37-.09-.54-.17-.05-.02-.08-.04-.12-.07-.03-.03-.05-.04-.06-.07,.03-.15,.08-.31,.12-.5,.05-.19,.09-.34,.13-.46,0-.02,.02-.03,.03-.03,.03,0,.04,.03,.04,.06-.03,.08-.04,.15-.04,.23,0,.24,.1,.47,.31,.65,.19,.18,.51,.28,.92,.28,.16,0,.32-.02,.49-.04,.16-.03,.3-.07,.43-.14,.27-.12,.5-.29,.69-.51,.19-.23,.28-.49,.28-.8,0-.15-.04-.29-.11-.44-.07-.15-.21-.36-.4-.61-.18-.22-.31-.43-.4-.6-.09-.17-.15-.37-.15-.59s.06-.46,.15-.68c.1-.22,.23-.43,.38-.6,.05-.06,.12-.13,.21-.21,.09-.08,.2-.16,.33-.23,.13-.07,.28-.14,.45-.19,.17-.05,.36-.08,.57-.08,.13,0,.28,.02,.4,.06,.13,.04,.25,.12,.36,.23,.04,.07,.06,.13,.06,.18Z"/></g><g><path d="M75.64,6.28c-.11-.04-.24-.07-.38-.09-.14-.02-.32-.03-.53-.03-.36,0-.64,.11-.82,.34-.19,.23-.39,.47-.6,.74-.25,.34-.5,.72-.77,1.12-.27,.41-.5,.8-.71,1.18-.19,.32-.41,.71-.67,1.15-.26,.45-.53,.92-.81,1.42-.28,.5-.57,1.01-.87,1.52-.29,.51-.57,1-.84,1.45-.46,.76-.92,1.35-1.38,1.78-.46,.43-.95,.78-1.46,1.07-.11,.06-.18,.11-.2,.17-.02,.06,.06,.09,.23,.09,.53-.06,1.17-.11,1.91-.17,.74-.06,1.46-.11,2.18-.16,.71-.05,1.35-.09,1.92-.13,.57-.04,.97-.06,1.19-.06h.37c.17,0,.34,0,.51,.01,.17,0,.33,.02,.48,.03,.15,0,.27,.02,.34,.04,.3,.08,.46,.21,.46,.4,0,.1-.04,.28-.13,.55-.08,.27-.17,.49-.24,.64-.04,0-.06-.04-.06-.11,0-.1-.01-.19-.04-.28-.03-.1-.1-.16-.21-.2-.28-.11-.61-.2-.97-.26-.36-.06-.73-.1-1.11-.13-.38-.03-.75-.05-1.11-.06-.36,0-.7-.01-1.02-.01-1.1,0-2.02,.02-2.77,.06-.75,.04-1.38,.09-1.89,.14-.51,.06-.93,.12-1.25,.18-.32,.07-.61,.14-.85,.21-.08-.02-.14-.06-.2-.13-.06-.07-.09-.13-.09-.19,0-.11,.08-.17,.23-.17,.34,0,.64-.02,.91-.06,.27-.04,.49-.11,.68-.23,.3-.19,.59-.45,.87-.78,.27-.33,.61-.83,1.01-1.49,.4-.66,.82-1.39,1.27-2.19,.44-.8,.89-1.61,1.34-2.43,.45-.82,.89-1.63,1.32-2.42,.44-.79,.83-1.48,1.19-2.09,.04-.1,.1-.17,.18-.21,.09-.05,.18-.09,.27-.13,.4-.15,.9-.27,1.49-.37,.6-.09,1.13-.14,1.61-.14,.09,.04,.14,.1,.13,.2,0,.1-.04,.16-.1,.2Z"/><path d="M83.97,15.29c-.32,.4-.71,.81-1.15,1.24-.45,.43-.93,.81-1.45,1.17-.52,.35-1.06,.64-1.62,.85-.56,.22-1.11,.33-1.66,.33-.89,0-1.34-.4-1.34-1.19,0-.53,.14-1.1,.41-1.72,.28-.62,.63-1.18,1.07-1.71,.44-.52,.91-.96,1.44-1.31,.52-.35,1.02-.53,1.49-.53,.26,0,.45,.05,.55,.14,.1,.09,.16,.22,.16,.37,0,.23-.07,.47-.21,.74-.14,.27-.36,.52-.64,.75-.28,.24-.65,.44-1.08,.6-.44,.16-.96,.24-1.57,.24-.09,.17-.2,.44-.31,.81-.11,.37-.17,.74-.17,1.12,0,.78,.35,1.17,1.05,1.17,.44,0,.89-.1,1.35-.31,.46-.21,.91-.47,1.35-.78,.44-.31,.84-.65,1.21-1.02,.37-.37,.68-.72,.92-1.04,.04-.04,.08-.05,.13-.03,.05,.02,.07,.06,.07,.11Zm-2.99-2.22c0-.25-.12-.37-.37-.37-.19,0-.38,.07-.58,.21-.2,.14-.39,.33-.58,.55-.19,.23-.37,.47-.54,.74-.17,.27-.31,.52-.43,.77,.04,.02,.1,.03,.2,.04,.09,0,.17,.01,.23,.01,.55,0,1.03-.19,1.45-.58,.42-.39,.62-.85,.62-1.38Z"/><path d="M86.73,13.47c-.06,.1-.11,.1-.14,.03-.11-.25-.35-.37-.71-.37-.27,0-.53,.08-.8,.23-.27,.15-.4,.38-.4,.68,0,.15,.05,.3,.14,.46,.09,.15,.23,.35,.4,.6,.15,.23,.29,.45,.43,.68,.13,.23,.2,.47,.2,.71,0,.49-.11,.9-.34,1.21-.23,.31-.5,.56-.81,.75-.31,.19-.63,.32-.95,.38-.32,.07-.58,.1-.77,.1-1.16,0-1.79-.39-1.9-1.17,.09-.06,.2-.13,.33-.21,.12-.09,.21-.17,.27-.24,.04,0,.07,.04,.09,.11,.09,.34,.28,.64,.54,.88,.27,.25,.58,.37,.94,.37,.15,0,.33-.01,.54-.04,.21-.03,.4-.09,.58-.2,.18-.1,.34-.25,.47-.44,.13-.19,.2-.44,.2-.77,0-.25-.05-.47-.14-.68-.09-.21-.2-.4-.31-.57-.11-.19-.23-.38-.34-.57-.11-.19-.17-.4-.17-.63s.08-.47,.24-.74c.16-.27,.37-.51,.61-.73,.25-.22,.52-.4,.81-.55,.29-.15,.58-.23,.87-.23,.3,0,.46,.1,.46,.28-.06,.1-.11,.2-.17,.33-.06,.12-.1,.23-.14,.33Z"/></g></g></g></g></svg>