<?xml version="1.0" encoding="UTF-8"?><svg xmlns="http://www.w3.org/2000/svg" viewBox="0 0 266.2 263.9"><defs><style>.d{stroke-width:6px;}.d,.e,.f{stroke-miterlimit:10;}.d,.f{fill:none;stroke:#000;}.g{fill:#f7931e;}.h,.e{fill:#fff;}.e{opacity:.5;stroke:#fff;}.e,.f{stroke-width:8px;}</style></defs><g id="a"/><g id="b"><g id="c"><g><g><rect class="h" x="85.26" y="77.36" width="86" height="38"/><path class="g" d="M86.48,98.95s22.78,9.4,32.78,3.4c7.49-4.49,13.17-6.12,24-6,9.22,.11,15.31,3.12,17,4,4.66,2.44,7.86,5.48,9.79,7.63,.4,26.12,.8,52.25,1.21,78.37-7.9,3.6-21.49,8.57-39,9-21.4,.52-37.76-6.01-46-10l.22-86.4Z"/><path class="f" d="M150.06,194.36h-44.6c-12.81,0-23.2-10.39-23.2-23.2V90.56c.33-1.74,.91-3.89,2-6.2,2.1-4.48,5.05-7.38,7-9,8.19,2.38,19.08,4.66,32,5,17.75,.47,32.28-2.9,42-6,3.56,2.66,5.24,5.46,6,7,.5,1,.82,1.89,.96,2.3,.95,2.8,1.09,5.26,1.04,6.9v80.6c0,12.81-10.39,23.2-23.2,23.2Z"/><path class="d" d="M180.57,93.36h-6.3v76h6.3c13.09,0,23.7-10.61,23.7-23.7v-28.6c0-13.09-10.61-23.7-23.7-23.7Z"/><path class="e" d="M109.6,177.98c-7.61-3.24-12.43-7.47-14.03-11.62-.84,1.47-1.31,3.06-1.31,4.72,0,7.33,8.95,13.28,20,13.28,4.03,0,7.78-.79,10.91-2.15-5.36-.75-10.73-2.16-15.58-4.22Z"/></g><g><path d="M34.93,237.75v-.44c1.15-.05,2.11-.29,2.88-.72s1.29-.92,1.56-1.48c.16-.35,.28-.78,.36-1.3,.08-.52,.13-1.05,.16-1.58,.05-1.76,.08-3.44,.08-5.04v-16.28c-.88,1.97-1.69,3.79-2.42,5.44-.73,1.65-1.46,3.27-2.18,4.84-.72,1.57-1.45,3.18-2.18,4.82-.73,1.64-1.54,3.45-2.42,5.42-.13,.27-.32,.69-.56,1.26-.24,.57-.48,1.16-.72,1.76s-.47,1.15-.68,1.64c-.21,.49-.35,.82-.4,.98h-.24c-.85-1.97-1.7-3.93-2.54-5.88-.84-1.95-1.66-3.82-2.46-5.62-.8-1.8-1.55-3.49-2.24-5.06-.69-1.57-1.32-2.97-1.88-4.2-.56-1.23-1.02-2.25-1.38-3.08-.36-.83-.61-1.39-.74-1.68,0,1.76,0,3.31-.02,4.66-.01,1.35-.03,2.68-.04,4-.01,1.32-.02,2.71-.02,4.18v5.12c0,1.25,.04,2.34,.12,3.26s.28,1.69,.6,2.32c.32,.63,.81,1.12,1.46,1.48,.65,.36,1.55,.62,2.7,.78v.4H11.29v-.4c.93-.19,1.69-.46,2.28-.82,.59-.36,1.05-.86,1.4-1.5,.35-.64,.6-1.43,.76-2.38,.16-.95,.25-2.1,.28-3.46,.05-1.15,.09-2.5,.12-4.06s.04-3.23,.04-5.02v-5.04c0-.53-.01-1.19-.04-1.96-.03-.75-.19-1.35-.48-1.82-.29-.47-.64-.83-1.04-1.1-.4-.27-.83-.46-1.28-.58-.45-.12-.84-.21-1.16-.26v-.4h8.52l9.56,21.76c1.17-2.53,2.32-5.05,3.44-7.56,1.12-2.51,2.13-4.77,3.02-6.8,.89-2.03,1.63-3.71,2.2-5.06,.57-1.35,.9-2.13,.98-2.34h8.52v.4c-1.09,.03-1.93,.25-2.5,.68-.57,.43-.97,.93-1.18,1.52-.16,.45-.27,1.16-.32,2.12-.05,.96-.09,1.91-.12,2.84-.03,1.28-.04,2.52-.04,3.72v7.96c0,1.41,.01,2.91,.04,4.48,0,.51,.03,1.02,.1,1.54s.18,.93,.34,1.22c.03,.05,.13,.18,.3,.38,.17,.2,.42,.41,.74,.64,.32,.23,.72,.43,1.2,.6,.48,.17,1.04,.27,1.68,.3v.4h-13.72Z"/><path d="M50.65,237.75v-.4c.32-.03,.64-.06,.96-.1,.32-.04,.61-.11,.86-.2,.25-.09,.47-.22,.64-.38s.26-.36,.26-.6v-13.72c0-.21-.02-.4-.06-.56s-.15-.31-.34-.44c-.24-.16-.53-.32-.86-.48s-.69-.31-1.06-.44v-.24l5.4-1.76h.24v17.88c.05,.27,.17,.46,.34,.58,.17,.12,.38,.21,.62,.26,.24,.05,.5,.09,.78,.1,.28,.01,.55,.05,.82,.1v.4h-8.6Zm5.74-24.1c-.41,.41-.93,.62-1.54,.62s-1.09-.21-1.52-.64c-.43-.43-.64-.93-.64-1.52s.21-1.12,.62-1.52c.41-.4,.93-.6,1.54-.6s1.13,.2,1.54,.6c.41,.4,.62,.91,.62,1.52s-.21,1.13-.62,1.54Z"/><path d="M76.65,234.29c-.48,.71-1.07,1.33-1.76,1.88-.69,.55-1.47,.97-2.34,1.26-.87,.29-1.81,.44-2.82,.44-1.28,0-2.47-.25-3.56-.74-1.09-.49-2.03-1.19-2.8-2.08-.77-.89-1.38-1.94-1.82-3.14s-.66-2.48-.66-3.84c0-1.28,.23-2.5,.68-3.66,.45-1.16,1.08-2.18,1.88-3.06,.8-.88,1.75-1.59,2.86-2.12,1.11-.53,2.31-.8,3.62-.8,.88,0,1.75,.11,2.6,.32,.85,.21,1.61,.52,2.28,.92s1.21,.89,1.62,1.48c.41,.59,.62,1.27,.62,2.04,0,.56-.21,1.05-.62,1.46-.41,.41-.9,.62-1.46,.62-.45,0-.86-.13-1.22-.4-.36-.27-.59-.6-.7-1,.13-.37,.2-.83,.2-1.36,0-.99-.26-1.81-.78-2.46-.52-.65-1.34-.98-2.46-.98-.83,0-1.59,.21-2.28,.64-.69,.43-1.29,1-1.8,1.72-.51,.72-.91,1.56-1.2,2.52-.29,.96-.44,1.99-.44,3.08,0,1.2,.16,2.3,.48,3.3,.32,1,.77,1.85,1.36,2.56,.59,.71,1.3,1.25,2.14,1.64s1.78,.58,2.82,.58c1.65,0,2.96-.27,3.92-.82s1.76-1.35,2.4-2.42l.32,.16c-.24,.8-.6,1.55-1.08,2.26Z"/><path d="M91.53,222.01c-.35,.39-.75,.58-1.2,.58-.43,0-.77-.07-1.02-.22-.25-.15-.47-.31-.66-.5-.19-.19-.39-.35-.6-.5s-.51-.22-.88-.22c-.32,0-.63,.11-.94,.34-.31,.23-.59,.51-.86,.86-.27,.35-.51,.74-.72,1.18-.21,.44-.4,.86-.56,1.26v11.52c.08,.24,.25,.43,.52,.56,.27,.13,.57,.23,.9,.28,.33,.05,.68,.09,1.04,.1,.36,.01,.67,.05,.94,.1v.4h-8.96v-.4c.61-.05,1.14-.17,1.58-.36,.44-.19,.66-.49,.66-.92v-13.52c0-.21-.02-.37-.06-.48-.04-.11-.15-.23-.34-.36-.24-.13-.52-.3-.84-.5s-.64-.37-.96-.5v-.24l5.24-2.04h.24l-.08,5.56h.08c.13-.32,.35-.79,.64-1.4,.29-.61,.67-1.23,1.12-1.86,.45-.63,1-1.17,1.64-1.62s1.37-.68,2.2-.68c.67,0,1.23,.2,1.7,.6,.47,.4,.7,.91,.7,1.52s-.17,1.07-.52,1.46Z"/><path d="M110.57,231.81c-.51,1.21-1.19,2.27-2.04,3.18-.85,.91-1.85,1.61-2.98,2.12-1.13,.51-2.33,.76-3.58,.76-1.04,0-2.12-.19-3.24-.56-1.12-.37-2.15-.97-3.1-1.78-.95-.81-1.72-1.85-2.32-3.12-.6-1.27-.9-2.75-.9-4.46,0-1.23,.23-2.41,.7-3.56,.47-1.15,1.12-2.16,1.96-3.04,.84-.88,1.85-1.59,3.04-2.12,1.19-.53,2.5-.8,3.94-.8,1.07,0,2.15,.2,3.24,.6s2.09,.99,2.98,1.78c.89,.79,1.63,1.77,2.2,2.96,.57,1.19,.86,2.58,.86,4.18,0,1.36-.25,2.65-.76,3.86Zm-3.26-6.82c-.2-1.04-.53-2-.98-2.88-.45-.88-1.05-1.61-1.8-2.18-.75-.57-1.67-.86-2.76-.86-.88,0-1.67,.27-2.36,.8s-1.29,1.23-1.78,2.1c-.49,.87-.87,1.84-1.12,2.92-.25,1.08-.38,2.18-.38,3.3,0,1.23,.11,2.39,.32,3.48,.21,1.09,.56,2.06,1.04,2.9,.48,.84,1.09,1.51,1.84,2,.75,.49,1.64,.74,2.68,.74s1.91-.31,2.62-.94c.71-.63,1.28-1.41,1.72-2.36,.44-.95,.76-1.97,.96-3.06s.3-2.11,.3-3.04-.1-1.88-.3-2.92Z"/><path d="M132.15,231.89c-.47,1.19-1.12,2.22-1.96,3.1-.84,.88-1.83,1.57-2.98,2.06-1.15,.49-2.4,.74-3.76,.74-1.52,0-2.91-.21-4.16-.62-1.25-.41-2.31-.98-3.16-1.7h-.2l-.96,2.16h-.28v-24.92c-.24-.16-.57-.36-1-.6s-.87-.48-1.32-.72v-.24l5.4-2.44h.32l-.12,14.24,.08,.04c.24-.56,.6-1.11,1.08-1.64s1.03-1.02,1.66-1.46c.62-.44,1.31-.79,2.05-1.06,.74-.27,1.49-.4,2.23-.4,1.25,0,2.35,.27,3.31,.8,.96,.53,1.77,1.25,2.43,2.14,.67,.89,1.17,1.92,1.52,3.08,.35,1.16,.52,2.37,.52,3.62,0,1.36-.23,2.63-.7,3.82Zm-3.36-6.16c-.25-.92-.64-1.73-1.16-2.44-.52-.71-1.18-1.27-1.97-1.7s-1.74-.64-2.83-.64c-.82,0-1.53,.13-2.13,.4-.6,.27-1.09,.57-1.47,.92-.38,.35-.68,.69-.88,1.04-.2,.35-.3,.6-.3,.76-.03,.32-.04,.79-.04,1.4v3.04c0,.51,.01,1.01,.04,1.52,.03,.88,.15,1.75,.36,2.62,.21,.87,.54,1.64,.98,2.32s1,1.23,1.69,1.64c.69,.41,1.53,.62,2.51,.62,.85,0,1.61-.21,2.29-.64s1.26-1.03,1.75-1.8c.49-.77,.87-1.69,1.14-2.74,.27-1.05,.4-2.19,.4-3.42,0-1.01-.13-1.98-.38-2.9Z"/><path d="M147.77,222.01c-.35,.39-.75,.58-1.2,.58-.43,0-.77-.07-1.02-.22-.25-.15-.47-.31-.66-.5-.19-.19-.39-.35-.6-.5s-.51-.22-.88-.22c-.32,0-.63,.11-.94,.34-.31,.23-.59,.51-.86,.86-.27,.35-.51,.74-.72,1.18-.21,.44-.4,.86-.56,1.26v11.52c.08,.24,.25,.43,.52,.56,.27,.13,.57,.23,.9,.28,.33,.05,.68,.09,1.04,.1,.36,.01,.67,.05,.94,.1v.4h-8.96v-.4c.61-.05,1.14-.17,1.58-.36,.44-.19,.66-.49,.66-.92v-13.52c0-.21-.02-.37-.06-.48-.04-.11-.15-.23-.34-.36-.24-.13-.52-.3-.84-.5s-.64-.37-.96-.5v-.24l5.24-2.04h.24l-.08,5.56h.08c.13-.32,.35-.79,.64-1.4,.29-.61,.67-1.23,1.12-1.86,.45-.63,1-1.17,1.64-1.62s1.37-.68,2.2-.68c.67,0,1.23,.2,1.7,.6,.47,.4,.7,.91,.7,1.52s-.17,1.07-.52,1.46Z"/><path d="M166.13,235.31c-.21,.48-.49,.91-.84,1.3-.35,.39-.75,.68-1.22,.88s-.98,.3-1.54,.3c-.91,0-1.71-.27-2.42-.8-.71-.53-1.06-1.47-1.06-2.8l-.08-.04c-.21,.35-.5,.73-.86,1.16-.36,.43-.79,.83-1.28,1.2-.49,.37-1.04,.67-1.64,.9-.6,.23-1.26,.34-1.98,.34-.43,0-.86-.06-1.3-.18-.44-.12-.84-.33-1.2-.64-.36-.31-.65-.7-.88-1.18-.23-.48-.34-1.07-.34-1.76,0-.75,.3-1.47,.9-2.16,.6-.69,1.34-1.32,2.22-1.88,.88-.56,1.66-1.04,2.34-1.44,.68-.4,1.27-.74,1.78-1.02s.95-.52,1.34-.72c.39-.2,.71-.38,.98-.54v-4.12c0-.05-.05-.18-.14-.38-.09-.2-.25-.41-.48-.62s-.54-.41-.94-.58c-.4-.17-.92-.26-1.56-.26-.43,0-.85,.07-1.26,.22-.41,.15-.78,.33-1.1,.56-.32,.23-.57,.45-.76,.68-.19,.23-.28,.42-.28,.58v1.8c0,.37-.19,.71-.58,1s-.81,.44-1.26,.44c-.43,0-.79-.15-1.1-.46-.31-.31-.46-.66-.46-1.06,0-.32,.08-.61,.24-.88,.16-.27,.36-.51,.6-.72,.24-.21,.5-.4,.78-.56,.28-.16,.53-.31,.74-.44,.69-.4,1.4-.79,2.12-1.16,.72-.37,1.41-.69,2.06-.96,.65-.27,1.25-.48,1.8-.64,.55-.16,.99-.24,1.34-.24,.69,0,1.35,.18,1.96,.54,.61,.36,1.05,.81,1.32,1.34,.11,.19,.17,.51,.2,.98,.03,.47,.04,.93,.04,1.38,0,.96,0,1.83-.02,2.6s-.02,1.52-.02,2.24,0,1.46-.02,2.22c-.01,.76-.02,1.59-.02,2.5,0,1.2,.21,1.99,.62,2.38,.41,.39,.89,.58,1.42,.58,.61,0,1.07-.13,1.36-.38,.29-.25,.49-.58,.6-.98h.24c-.03,.51-.15,1-.36,1.48Zm-7.08-8.44c-.48,.35-1.08,.71-1.8,1.1-.72,.39-1.42,.81-2.1,1.26-.68,.45-1.27,.95-1.76,1.5-.49,.55-.74,1.17-.74,1.86s.24,1.32,.72,1.88c.48,.56,1.11,.84,1.88,.84,.69,0,1.31-.08,1.84-.24,.53-.16,1.03-.47,1.48-.92,.32-.29,.48-.67,.48-1.12v-6.16Z"/><path d="M179.95,234.61c-.41,.76-.97,1.38-1.66,1.86-.69,.48-1.49,.83-2.38,1.04-.89,.21-1.83,.32-2.82,.32-1.17,0-2.28-.11-3.32-.32-1.04-.21-2-.52-2.88-.92v-5.28h.32c.21,.64,.48,1.31,.8,2.02,.32,.71,.7,1.36,1.15,1.96s1,1.09,1.63,1.48,1.39,.58,2.27,.58c1.27,0,2.29-.37,3.05-1.1,.76-.73,1.14-1.86,1.14-3.38,0-.83-.26-1.51-.78-2.06-.52-.55-1.23-.91-2.13-1.1-.72-.13-1.41-.28-2.07-.44-.66-.16-1.26-.33-1.79-.52-1.01-.35-1.83-.95-2.45-1.8s-.94-1.88-.94-3.08c0-.83,.17-1.57,.52-2.24,.35-.67,.81-1.24,1.4-1.72,.59-.48,1.27-.85,2.04-1.1,.77-.25,1.6-.38,2.48-.38,1.12,0,2.11,.1,2.96,.3,.85,.2,1.67,.45,2.44,.74l.48,4.96-.32,.08c-.37-.8-.75-1.54-1.12-2.22-.37-.68-.79-1.27-1.24-1.76-.45-.49-.97-.87-1.54-1.14-.57-.27-1.23-.4-1.98-.4-.45,0-.9,.08-1.34,.24-.44,.16-.83,.39-1.16,.7-.33,.31-.61,.69-.82,1.16-.21,.47-.32,1.01-.32,1.62,0,.99,.28,1.69,.84,2.12,.56,.43,1.27,.75,2.12,.96,.59,.13,1.23,.27,1.92,.42s1.29,.29,1.8,.42c1.2,.29,2.22,.91,3.06,1.84,.84,.93,1.26,2.08,1.26,3.44,0,1.04-.21,1.94-.62,2.7Z"/><path d="M195.23,234.61c-.41,.76-.97,1.38-1.66,1.86-.69,.48-1.49,.83-2.38,1.04-.89,.21-1.83,.32-2.82,.32-1.17,0-2.28-.11-3.32-.32-1.04-.21-2-.52-2.88-.92v-5.28h.32c.21,.64,.48,1.31,.8,2.02,.32,.71,.7,1.36,1.15,1.96s1,1.09,1.63,1.48,1.39,.58,2.27,.58c1.27,0,2.29-.37,3.05-1.1,.76-.73,1.14-1.86,1.14-3.38,0-.83-.26-1.51-.78-2.06-.52-.55-1.23-.91-2.13-1.1-.72-.13-1.41-.28-2.07-.44-.66-.16-1.26-.33-1.79-.52-1.01-.35-1.83-.95-2.45-1.8s-.94-1.88-.94-3.08c0-.83,.17-1.57,.52-2.24,.35-.67,.81-1.24,1.4-1.72,.59-.48,1.27-.85,2.04-1.1,.77-.25,1.6-.38,2.48-.38,1.12,0,2.11,.1,2.96,.3,.85,.2,1.67,.45,2.44,.74l.48,4.96-.32,.08c-.37-.8-.75-1.54-1.12-2.22-.37-.68-.79-1.27-1.24-1.76-.45-.49-.97-.87-1.54-1.14-.57-.27-1.23-.4-1.98-.4-.45,0-.9,.08-1.34,.24-.44,.16-.83,.39-1.16,.7-.33,.31-.61,.69-.82,1.16-.21,.47-.32,1.01-.32,1.62,0,.99,.28,1.69,.84,2.12,.56,.43,1.27,.75,2.12,.96,.59,.13,1.23,.27,1.92,.42s1.29,.29,1.8,.42c1.2,.29,2.22,.91,3.06,1.84,.84,.93,1.26,2.08,1.26,3.44,0,1.04-.21,1.94-.62,2.7Z"/><path d="M212.97,233.65c-.37,.73-.88,1.41-1.52,2.02-.64,.61-1.41,1.12-2.3,1.52-.89,.4-1.89,.6-2.98,.6-1.36,0-2.6-.25-3.72-.76-1.12-.51-2.07-1.22-2.86-2.14s-1.39-2-1.82-3.24c-.43-1.24-.64-2.55-.64-3.94,0-1.12,.2-2.23,.6-3.34,.4-1.11,.97-2.1,1.7-2.98,.73-.88,1.63-1.59,2.68-2.14,1.05-.55,2.22-.82,3.5-.82,1.04,0,2.02,.13,2.94,.4s1.72,.67,2.4,1.22c.68,.55,1.23,1.23,1.66,2.06,.43,.83,.68,1.8,.76,2.92h-12.84c0,.21-.01,.46-.04,.74-.03,.28-.04,.57-.04,.86,0,1.12,.16,2.19,.48,3.22,.32,1.03,.79,1.93,1.4,2.72,.61,.79,1.39,1.41,2.32,1.86,.93,.45,2.01,.68,3.24,.68,1.33,0,2.5-.34,3.5-1.02,1-.68,1.66-1.51,1.98-2.5l.32,.08c-.11,.59-.35,1.25-.72,1.98Zm-4.58-13.48c-.68-.71-1.59-1.06-2.74-1.06-.75,0-1.42,.22-2.02,.66-.6,.44-1.12,.95-1.56,1.54-.44,.59-.78,1.18-1.02,1.78-.24,.6-.39,1.06-.44,1.38h1.64c.48,0,.95,0,1.42-.02s.95-.03,1.46-.04c.51-.01,1.07-.02,1.68-.02,.4,0,.77-.01,1.12-.04,.35-.03,.65-.09,.92-.2,.19-.21,.33-.41,.42-.6s.14-.47,.14-.84c0-.99-.34-1.83-1.02-2.54Z"/><path d="M227.93,222.01c-.35,.39-.75,.58-1.2,.58-.43,0-.77-.07-1.02-.22-.25-.15-.47-.31-.66-.5-.19-.19-.39-.35-.6-.5s-.51-.22-.88-.22c-.32,0-.63,.11-.94,.34-.31,.23-.59,.51-.86,.86-.27,.35-.51,.74-.72,1.18-.21,.44-.4,.86-.56,1.26v11.52c.08,.24,.25,.43,.52,.56,.27,.13,.57,.23,.9,.28,.33,.05,.68,.09,1.04,.1,.36,.01,.67,.05,.94,.1v.4h-8.96v-.4c.61-.05,1.14-.17,1.58-.36,.44-.19,.66-.49,.66-.92v-13.52c0-.21-.02-.37-.06-.48-.04-.11-.15-.23-.34-.36-.24-.13-.52-.3-.84-.5s-.64-.37-.96-.5v-.24l5.24-2.04h.24l-.08,5.56h.08c.13-.32,.35-.79,.64-1.4,.29-.61,.67-1.23,1.12-1.86,.45-.63,1-1.17,1.64-1.62s1.37-.68,2.2-.68c.67,0,1.23,.2,1.7,.6,.47,.4,.7,.91,.7,1.52s-.17,1.07-.52,1.46Z"/><path d="M228.77,237.75v-.4c.32-.03,.64-.06,.96-.1,.32-.04,.61-.11,.86-.2,.25-.09,.47-.22,.64-.38s.26-.36,.26-.6v-13.72c0-.21-.02-.4-.06-.56s-.15-.31-.34-.44c-.24-.16-.53-.32-.86-.48s-.69-.31-1.06-.44v-.24l5.4-1.76h.24v17.88c.05,.27,.17,.46,.34,.58,.17,.12,.38,.21,.62,.26,.24,.05,.5,.09,.78,.1,.28,.01,.55,.05,.82,.1v.4h-8.6Zm5.74-24.1c-.41,.41-.93,.62-1.54,.62s-1.09-.21-1.52-.64c-.43-.43-.64-.93-.64-1.52s.21-1.12,.62-1.52c.41-.4,.93-.6,1.54-.6s1.13,.2,1.54,.6c.41,.4,.62,.91,.62,1.52s-.21,1.13-.62,1.54Z"/><path d="M254.81,233.65c-.37,.73-.88,1.41-1.52,2.02-.64,.61-1.41,1.12-2.3,1.52-.89,.4-1.89,.6-2.98,.6-1.36,0-2.6-.25-3.72-.76-1.12-.51-2.07-1.22-2.86-2.14s-1.39-2-1.82-3.24c-.43-1.24-.64-2.55-.64-3.94,0-1.12,.2-2.23,.6-3.34,.4-1.11,.97-2.1,1.7-2.98,.73-.88,1.63-1.59,2.68-2.14,1.05-.55,2.22-.82,3.5-.82,1.04,0,2.02,.13,2.94,.4s1.72,.67,2.4,1.22c.68,.55,1.23,1.23,1.66,2.06,.43,.83,.68,1.8,.76,2.92h-12.84c0,.21-.01,.46-.04,.74-.03,.28-.04,.57-.04,.86,0,1.12,.16,2.19,.48,3.22,.32,1.03,.79,1.93,1.4,2.72,.61,.79,1.39,1.41,2.32,1.86,.93,.45,2.01,.68,3.24,.68,1.33,0,2.5-.34,3.5-1.02,1-.68,1.66-1.51,1.98-2.5l.32,.08c-.11,.59-.35,1.25-.72,1.98Zm-4.58-13.48c-.68-.71-1.59-1.06-2.74-1.06-.75,0-1.42,.22-2.02,.66-.6,.44-1.12,.95-1.56,1.54-.44,.59-.78,1.18-1.02,1.78-.24,.6-.39,1.06-.44,1.38h1.64c.48,0,.95,0,1.42-.02s.95-.03,1.46-.04c.51-.01,1.07-.02,1.68-.02,.4,0,.77-.01,1.12-.04,.35-.03,.65-.09,.92-.2,.19-.21,.33-.41,.42-.6s.14-.47,.14-.84c0-.99-.34-1.83-1.02-2.54Z"/></g><g><path d="M54.14,63.05l-25.9,23.5-.45-.14-5.36-49.57c-.6,.55-1.4,1.27-2.41,2.18-.97,.88-1.98,1.79-3.01,2.73-1.03,.93-2,1.83-2.92,2.69-.92,.86-1.63,1.55-2.15,2.07-1.04,1.05-1.82,2.15-2.36,3.31-.54,1.17-.9,2.36-1.1,3.58-.08,.6-.15,1.38-.2,2.33-.05,.96-.05,1.97-.02,3.04,.03,1.07,.09,2.13,.17,3.17,.09,1.04,.21,1.97,.36,2.77l-.63,.26-5.17-11.99c.43-.33,1.18-.98,2.25-1.92,1.07-.95,2.35-2.08,3.82-3.39s3.05-2.73,4.74-4.27c1.72-1.56,3.42-3.1,5.11-4.64,1.69-1.53,3.28-2.98,4.77-4.33,1.52-1.38,2.81-2.55,3.87-3.51l.36,.14,5.36,49.49c1.46-1.27,2.76-2.43,3.9-3.46,1.17-1.07,2.33-2.12,3.48-3.16,.49-.44,1.1-1.02,1.83-1.74,.73-.72,1.47-1.5,2.23-2.34,2.09-2.36,3.33-5.18,3.72-8.46,.39-3.28,.19-6.8-.62-10.56l.63-.26,5.68,12.47Z"/><path d="M64.23,27.16c-.37,.25-.69,.54-.97,.88-.28,.33-.47,.72-.58,1.16s-.1,.97,.03,1.61c.13,.64,.34,1.65,.63,3.04,.29,1.39,.62,3.03,1.01,4.91,.39,1.89,.81,3.96,1.28,6.23,.46,2.26,.95,4.58,1.45,6.96,.5,2.38,1,4.73,1.49,7.07,.49,2.34,.94,4.57,1.36,6.68,.31,1.51,.25,2.76-.17,3.75-.42,.99-1.02,1.7-1.8,2.13-.68,.38-1.42,.51-2.23,.4-.81-.11-1.41-.5-1.79-1.18-.38-.68-.49-1.36-.33-2.03,.16-.67,.57-1.19,1.25-1.57,.67-.38,1.35-.49,2.04-.33,.68,.16,1.39,.32,2.11,.5l.1-.06c-.14-1.12-.31-2.2-.52-3.26-.21-1.05-.41-2.01-.59-2.85-.19-.85-.35-1.56-.5-2.14-.15-.58-.25-.97-.31-1.15-.14-.1-.6-.48-1.36-1.13-.76-.66-1.75-1.5-2.94-2.54-1.2-1.04-2.55-2.19-4.06-3.47-1.51-1.28-3.05-2.6-4.63-3.96-1.58-1.36-3.13-2.69-4.66-4.01-1.53-1.31-2.93-2.52-4.21-3.62-.49-.17-1-.24-1.54-.2-.54,.03-1.4,.34-2.58,.91l-.31-.56,11.04-6.16,.31,.56c-.65,.5-1.19,.98-1.62,1.44-.43,.46-.46,1.01-.11,1.65,.09,.17,.43,.53,1,1.07,.57,.55,1.3,1.21,2.18,2,.88,.79,1.86,1.65,2.93,2.58,1.07,.93,2.15,1.87,3.23,2.82,1.08,.95,2.13,1.86,3.15,2.73,1.02,.87,1.9,1.63,2.66,2.27-.05-.33-.18-1-.4-2.03-.22-1.03-.48-2.25-.77-3.65-.3-1.41-.61-2.88-.94-4.42-.33-1.54-.65-2.99-.96-4.34-.31-1.35-.59-2.5-.83-3.46-.24-.95-.42-1.53-.53-1.73-.17-.3-.39-.5-.66-.59s-.58-.11-.92-.05c-.34,.06-.69,.17-1.05,.32-.36,.16-.7,.3-1.02,.44l-.31-.56,7.8-4.35,.31,.56c-.39,.26-.76,.52-1.13,.76Z"/><path d="M84.75,22.48l-8.25,3.1,5.36,14.28c.69,1.85,1.59,3.04,2.7,3.57,1.11,.53,2.3,.56,3.56,.09,1.05-.39,1.85-.89,2.41-1.49,.56-.6,.96-1.36,1.19-2.27l.39,.04c-.01,.62-.1,1.31-.25,2.05-.16,.74-.46,1.47-.91,2.2-.45,.73-1.05,1.39-1.8,1.98-.75,.59-1.7,1.1-2.86,1.54-.76,.29-1.53,.44-2.32,.47-.79,.03-1.53-.08-2.24-.34-.71-.25-1.33-.59-1.89-1.03-.55-.43-.93-.94-1.15-1.52-1.28-3.4-2.47-6.64-3.58-9.71-1.11-3.07-2.12-5.8-3.01-8.19l-3.96,1.49-.22-.6,5.03-10.38,.43-.16,1.77,4.72,10.05-3.77-.44,3.94Z"/><path d="M109.27,41.35l-.12-.63c1.01-.27,1.84-.56,2.49-.86s.92-.76,.8-1.37l-2.74-14.24c-.21-1.1-.49-2.11-.82-3.03-.33-.92-.77-1.68-1.3-2.29-.53-.61-1.17-1.03-1.93-1.28-.76-.25-1.67-.27-2.73-.07-1.37,.26-2.48,.73-3.33,1.41-.85,.68-1.49,1.49-1.89,2.43-.05,.13-.11,.39-.18,.77-.06,.39-.07,.73,0,1.04l3.37,17.49c.07,.34,.21,.59,.44,.74,.23,.15,.5,.25,.82,.28,.32,.04,.68,.04,1.06,0,.39-.03,.78-.05,1.17-.05l.11,.57-11.33,2.18-.11-.57c.86-.24,1.62-.54,2.28-.88,.66-.34,.92-.88,.79-1.6l-6.23-32.35c-.06-.3-.13-.53-.22-.67-.09-.14-.28-.28-.58-.42-.36-.21-.81-.38-1.37-.53-.56-.15-1.12-.33-1.67-.54l-.07-.34,6.96-4.94,.46-.09,3.63,19.8,.12,.04c.16-.58,.45-1.27,.87-2.06s.98-1.57,1.7-2.34c.71-.77,1.57-1.47,2.56-2.12,1-.64,2.14-1.09,3.42-1.34,1.25-.24,2.34-.22,3.28,.05,.93,.27,1.73,.75,2.39,1.43,.66,.68,1.2,1.53,1.61,2.55s.74,2.16,.98,3.41l3.23,16.8c.05,.27,.21,.47,.47,.62,.26,.15,.58,.23,.94,.26,.36,.03,.73,.04,1.13,.02,.39-.02,.76-.04,1.11-.07l.1,.51-11.68,2.25Z"/><path d="M147.26,30.95c-.76,1.75-1.77,3.27-3.03,4.56-1.26,1.3-2.71,2.3-4.37,3.01-1.66,.71-3.39,1.05-5.21,1.02-1.51-.02-3.07-.32-4.69-.88-1.62-.57-3.1-1.45-4.46-2.65s-2.45-2.73-3.29-4.58-1.24-4.01-1.21-6.49c.03-1.78,.39-3.49,1.09-5.15,.7-1.65,1.67-3.11,2.91-4.37,1.24-1.26,2.72-2.26,4.45-3.01,1.73-.75,3.64-1.1,5.73-1.07,1.55,.02,3.11,.34,4.68,.94,1.58,.6,3,1.49,4.28,2.65,1.28,1.16,2.32,2.61,3.12,4.34,.8,1.73,1.19,3.76,1.15,6.08-.03,1.97-.43,3.83-1.19,5.58Zm-4.58-9.96c-.27-1.51-.72-2.91-1.36-4.2-.64-1.29-1.49-2.35-2.56-3.2s-2.4-1.29-3.98-1.31c-1.28-.02-2.42,.35-3.44,1.11s-1.89,1.76-2.63,3.01c-.74,1.25-1.3,2.65-1.69,4.21-.39,1.56-.6,3.15-.62,4.78-.03,1.78,.1,3.46,.39,5.05s.77,3,1.44,4.23c.68,1.23,1.55,2.21,2.62,2.94,1.07,.73,2.36,1.11,3.87,1.13s2.78-.41,3.82-1.3c1.04-.89,1.89-2.02,2.55-3.38,.66-1.36,1.15-2.83,1.46-4.42,.31-1.58,.48-3.05,.5-4.4,.02-1.31-.1-2.73-.37-4.24Z"/><path d="M148.24,40.03l.1-.63c1.77,.17,2.97,.17,3.58,.01,.61-.16,.97-.54,1.06-1.15l5.24-32.94c.05-.31,.06-.54,.02-.7-.03-.16-.17-.36-.4-.59-.31-.25-.78-.62-1.41-1.13-.62-.51-1.15-.9-1.58-1.16l.05-.34,8.62-1.39,.4,.06-6.25,39.24c-.06,.38-.02,.68,.12,.9s.38,.39,.71,.52c.33,.13,.76,.25,1.29,.35,.53,.1,1.15,.25,1.87,.44l-.1,.63-13.35-2.12Z"/><path d="M189.4,41.41c-1.23,1.45-2.64,2.62-4.22,3.5-1.58,.88-3.26,1.42-5.05,1.62-1.79,.2-3.55,.03-5.28-.52-1.44-.46-2.85-1.19-4.23-2.2-1.38-1.01-2.55-2.28-3.5-3.82-.95-1.54-1.56-3.32-1.83-5.33-.27-2.01-.03-4.2,.72-6.56,.54-1.69,1.38-3.23,2.53-4.61,1.15-1.38,2.5-2.49,4.04-3.34,1.55-.85,3.26-1.38,5.13-1.59,1.87-.21,3.81,0,5.8,.63,1.47,.47,2.88,1.22,4.21,2.25,1.33,1.03,2.45,2.29,3.34,3.77,.89,1.48,1.47,3.17,1.74,5.06,.27,1.89,.05,3.94-.65,6.15-.6,1.88-1.51,3.55-2.75,5Zm-1.51-10.86c.18-1.53,.15-3-.09-4.41-.24-1.42-.75-2.68-1.53-3.8-.78-1.12-1.93-1.92-3.44-2.4-1.22-.39-2.42-.36-3.61,.07-1.19,.43-2.32,1.14-3.38,2.12-1.06,.98-2.01,2.16-2.83,3.54-.83,1.38-1.48,2.84-1.98,4.39-.54,1.7-.9,3.34-1.09,4.95-.19,1.61-.13,3.09,.16,4.46,.29,1.37,.85,2.56,1.66,3.57,.81,1.01,1.94,1.74,3.38,2.2,1.44,.46,2.78,.41,4.03-.15,1.25-.55,2.39-1.39,3.41-2.5,1.02-1.12,1.91-2.38,2.67-3.81,.76-1.42,1.34-2.78,1.75-4.07,.4-1.25,.69-2.64,.87-4.17Z"/><path d="M225.04,44.21c-.57,.19-1.11,.14-1.62-.15-.2-.11-.46-.37-.76-.77-.31-.4-.64-.85-.99-1.36-.35-.51-.7-1.05-1.04-1.63-.34-.57-.65-1.09-.92-1.56l-.32,.09c.07,1.06,.08,2.03,.05,2.9-.03,.87-.35,1.85-.96,2.92-1.51,2.66-3.57,4.12-6.17,4.4-2.6,.28-5.54-.51-8.8-2.36-.47-.27-.93-.57-1.38-.92-.45-.34-1.01-.71-1.68-1.09-1.12-.54-2.12-.78-3-.71-.89,.08-1.52,.45-1.9,1.12-.31,.54-.39,1.08-.25,1.62s.4,1.06,.79,1.55c.39,.49,.87,.94,1.43,1.35s1.14,.78,1.71,1.1l8.07,4.58c1.18,.67,2.13,1.46,2.86,2.36,.73,.91,1.25,1.87,1.56,2.89,.31,1.02,.41,2.04,.29,3.07-.12,1.02-.46,2.04-1.03,3.05-.74,1.31-1.78,2.38-3.12,3.2-1.33,.82-2.85,1.35-4.54,1.59-1.69,.24-3.49,.17-5.38-.22-1.89-.39-3.8-1.12-5.71-2.21-3.67-2.08-6.2-4.25-7.62-6.49-1.41-2.25-1.58-4.33-.49-6.25,.4-.71,.96-1.24,1.67-1.59,.71-.35,1.51-.62,2.39-.81,.88-.19,1.82-.3,2.8-.35,.98-.04,1.95-.08,2.9-.12l.06-.1c-1.6-1.18-2.64-2.41-3.13-3.71-.49-1.3-.37-2.59,.36-3.86,.36-.64,.86-1.16,1.49-1.56,.63-.4,1.34-.68,2.15-.85,.8-.17,1.66-.2,2.56-.11,.9,.09,1.8,.33,2.7,.7l.09-.15c-1.16-1.41-1.83-2.91-2.02-4.48-.19-1.58,.2-3.22,1.17-4.94,.61-1.08,1.43-1.95,2.45-2.61,1.02-.67,2.17-1.09,3.43-1.29,1.27-.19,2.61-.15,4.03,.12,1.42,.27,2.84,.81,4.25,1.61,1.28,.73,2.34,1.49,3.2,2.29,.86,.8,1.66,1.79,2.41,2.97,.33,.36,.62,.64,.89,.84,.27,.2,.6,.41,1,.64,.4,.23,.8,.38,1.18,.44,.39,.06,.76,.1,1.11,.1,.35,0,.72,.03,1.09,.08,.37,.05,.76,.2,1.16,.42,.57,.32,.93,.79,1.07,1.41,.14,.61,.05,1.21-.28,1.78-.29,.5-.72,.85-1.29,1.04Zm-17.79,19.75c0-.93-.21-1.7-.63-2.29-.53-.79-1.31-1.58-2.33-2.36-1.02-.78-2.51-1.73-4.46-2.83-.71-.4-1.45-.78-2.23-1.13-.78-.35-1.42-.63-1.93-.83-1.81-.49-3.26-.48-4.37,.05-1.1,.53-1.95,1.32-2.54,2.36-.61,1.08-.85,2.18-.72,3.33,.13,1.14,.47,2.24,1.03,3.29,.56,1.05,1.26,1.99,2.1,2.83s1.68,1.49,2.52,1.96c1.01,.57,1.9,1.01,2.68,1.32,.78,.31,1.51,.53,2.2,.65,1.44,.2,2.91,.03,4.39-.51,1.48-.54,2.63-1.53,3.46-2.97,.55-.98,.83-1.93,.83-2.87Zm8.25-24.27c.2-.91,.25-1.78,.13-2.63-.12-.85-.42-1.64-.91-2.39-.49-.74-1.19-1.38-2.1-1.89-.84-.48-1.71-.71-2.6-.71-.89,0-1.75,.21-2.58,.6s-1.6,.95-2.31,1.66c-.71,.71-1.32,1.5-1.81,2.37-1.15,2.02-1.56,3.93-1.23,5.74,.33,1.81,1.23,3.13,2.71,3.97,.91,.52,1.82,.77,2.74,.75s1.8-.22,2.66-.62c.85-.41,1.64-.97,2.36-1.69,.72-.72,1.35-1.56,1.88-2.5,.5-.87,.85-1.76,1.05-2.67Z"/><path d="M227.58,77.44l-.3-.27,3.92-4.36v-.08c-.76,.2-1.61,.37-2.56,.5-.95,.13-1.92,.16-2.89,.09-.98-.07-1.93-.29-2.87-.67-.94-.38-1.81-.92-2.61-1.65-1.84-1.66-2.71-3.42-2.6-5.3,.11-1.88,1.1-3.87,2.99-5.97l9.46-10.52c.1-.11,.25-.27,.43-.47,.18-.2,.35-.42,.52-.66s.32-.46,.48-.66c.15-.2,.24-.37,.26-.51,.12-.36,.12-.7,0-1.01-.11-.31-.27-.61-.48-.9-.21-.29-.45-.57-.72-.84-.28-.27-.53-.54-.76-.8l.43-.47,6.64,5.97-11.29,12.55c-1.71,1.9-2.68,3.56-2.92,4.98s.44,2.85,2.03,4.28c.61,.54,1.21,.94,1.8,1.19,.59,.24,1.17,.41,1.76,.49,.58,.08,1.17,.1,1.75,.05,.59-.04,1.17-.12,1.74-.23l11.05-12.29c.26-.29,.56-.68,.9-1.18,.34-.5,.53-.94,.57-1.32-.22-.45-.58-.99-1.09-1.61s-1.06-1.24-1.64-1.86l.43-.47,7.25,6.52-15.32,17.03c-.21,.23-.34,.42-.4,.58-.06,.15-.05,.39,.02,.72,.13,.38,.34,.91,.64,1.59,.3,.68,.55,1.25,.77,1.71l-.23,.26-7.13-4.39Z"/><path d="M252.05,98.16c-1.18,.19-2.4,.18-3.67-.04-1.27-.22-2.52-.68-3.75-1.38-1.24-.7-2.32-1.69-3.26-2.96-1.17-1.59-1.94-3.25-2.31-5-.37-1.74-.36-3.47,.04-5.18,.4-1.71,1.14-3.35,2.22-4.91,1.08-1.56,2.43-2.94,4.05-4.13,1.31-.96,2.78-1.69,4.42-2.17,1.64-.48,3.28-.68,4.94-.58,1.66,.1,3.26,.53,4.8,1.29,1.54,.76,2.87,1.89,3.96,3.38,.89,1.21,1.58,2.47,2.06,3.78,.48,1.3,.69,2.59,.64,3.85-.05,1.26-.38,2.5-.98,3.71-.6,1.21-1.52,2.34-2.76,3.4l-11.03-15c-.25,.18-.55,.38-.9,.59-.35,.21-.7,.44-1.04,.69-1.31,.96-2.42,2.07-3.35,3.33-.92,1.26-1.58,2.58-1.97,3.97s-.45,2.83-.18,4.31c.27,1.48,.94,2.94,1.99,4.37,1.15,1.56,2.54,2.63,4.2,3.21,1.65,.58,3.19,.64,4.62,.17l.18,.44c-.78,.38-1.75,.67-2.93,.86Zm11.81-16.93c.24-1.4-.13-2.77-1.12-4.11-.64-.87-1.48-1.47-2.51-1.79-1.03-.32-2.08-.49-3.14-.5-1.06,0-2.05,.1-2.96,.34s-1.57,.46-1.99,.67c.53,.72,1,1.35,1.41,1.92,.41,.56,.83,1.11,1.24,1.64,.42,.53,.85,1.09,1.3,1.67,.45,.58,.94,1.23,1.47,1.95,.34,.47,.68,.89,1.01,1.27,.33,.38,.67,.68,1.02,.9,.41,.03,.76,.03,1.06-.02,.3-.05,.67-.24,1.1-.56,1.15-.85,1.85-1.97,2.09-3.37Z"/></g><text/></g></g></g></svg>